<?xml version="1.0" encoding="utf-8"?>
<!-- Generator: Adobe Illustrator 24.0.0, SVG Export Plug-In . SVG Version: 6.00 Build 0)  -->
<svg version="1.1" id="图层_1" xmlns="http://www.w3.org/2000/svg" xmlns:xlink="http://www.w3.org/1999/xlink" x="0px" y="0px"
	 viewBox="0 0 136 44" style="enable-background:new 0 0 136 44;" xml:space="preserve">
<style type="text/css">
	.st0{fill:#1E8BCA;}
	.st1{opacity:0.4;fill:#FFFFFF;}
	.st2{fill:#FFFFFF;}
	.st3{fill-rule:evenodd;clip-rule:evenodd;fill:#DB4B35;}
	.st4{fill-rule:evenodd;clip-rule:evenodd;fill:#129B7F;}
	.st5{fill-rule:evenodd;clip-rule:evenodd;fill:#FFFFFF;}
	.st6{fill-rule:evenodd;clip-rule:evenodd;fill:#040000;}
	.st7{fill-rule:evenodd;clip-rule:evenodd;fill:#2479AE;}
	.st8{fill-rule:evenodd;clip-rule:evenodd;fill:#1AAF5D;}
	.st9{fill:#1AAF5D;}
	.st10{fill:#1F64C9;}
	.st11{fill-rule:evenodd;clip-rule:evenodd;fill:#E87E04;}
	.st12{fill-rule:evenodd;clip-rule:evenodd;fill:#227FBB;}
	.st13{fill:#DB4B35;}
</style>
<rect class="st0" width="136" height="44"/>
<path class="st1" d="M125.5,39l3.5-16.6c0.3-1.5-0.5-2-1.5-1.7l-20.6,8c-1.4,0.5-1.4,1.3-0.2,1.7l5.3,1.6l12.3-7.7
	c0.6-0.4,1.1-0.2,0.7,0.2l-9.9,9l-0.4,5.4c0.5,0,0.8-0.2,1.1-0.5l2.6-2.5l5.4,3.9C124.5,40.5,125.2,40.2,125.5,39L125.5,39z"/>
<g>
	<g>
		<path id="white_4_" class="st5" d="M37.4,22.1C37.4,22.1,37.4,22.1,37.4,22.1c0,8.4-6.8,15.1-15.3,15.1S6.8,30.4,6.8,22.1
			c0,0,0,0,0,0H37.4L37.4,22.1L37.4,22.1L37.4,22.1L37.4,22.1z"/>
		<path id="red_4_" class="st3" d="M37.3,22.1c0-8.4-6.8-15.3-15.3-15.3S6.9,13.6,6.8,22.1H37.3L37.3,22.1L37.3,22.1L37.3,22.1
			L37.3,22.1z"/>
	</g>
	<g>
		<path class="st2" d="M43.4,17.7h1.3v9.7h-1.3V17.7z"/>
		<path class="st2" d="M52.3,22.2v5.2h-1.2v-4.8c0-1.2-0.2-1.8-1.4-1.8c-1,0-1.9,0.2-2.3,1.5v5.1h-1.2v-7.6h1.2v1.1
			c0.5-1,1.5-1.2,2.4-1.2C51.7,19.7,52.3,20.7,52.3,22.2z"/>
		<path class="st2" d="M60,16.7v10.6h-1l-0.2-1.2c-0.3,0.8-1.1,1.4-2.5,1.4c-2.5,0-3.1-1.6-3.1-3.9c0-2.1,0.6-3.9,3.1-3.9
			c1.5,0,2.2,0.6,2.5,1.5v-4.4H60z M58.8,23.6c0-1.7-0.5-2.9-2.3-2.9c-1.8,0-2,1.4-2,2.9c0,1.6,0.2,2.9,2,2.9
			C58.3,26.5,58.8,25.4,58.8,23.6z"/>
		<path class="st2" d="M61,23.6c0-3,1.3-3.9,3.5-3.9c2.2,0,3.5,0.9,3.5,3.9c0,3-1.2,3.9-3.5,3.9C62.2,27.5,61,26.6,61,23.6z
			 M66.7,23.6c0-2.2-0.6-2.9-2.2-2.9c-1.7,0-2.2,0.7-2.2,2.9c0,2.2,0.6,2.9,2.2,2.9C66.2,26.5,66.7,25.8,66.7,23.6z"/>
		<path class="st2" d="M75.1,22.2v5.2h-1.2v-4.8c0-1.2-0.2-1.8-1.4-1.8c-1,0-1.9,0.2-2.3,1.5v5.1h-1.2v-7.6h1.2v1.1
			c0.5-1,1.5-1.2,2.4-1.2C74.5,19.7,75.1,20.7,75.1,22.2z"/>
		<path class="st2" d="M82.4,23.7l-5.1,0.3c0,1.7,0.6,2.4,2.4,2.4c0.8,0,1.8-0.2,2.4-0.5v1.1c-0.4,0.2-1.5,0.4-2.5,0.4
			c-2.2,0-3.5-0.9-3.5-3.9c0-3,1.3-3.9,3.4-3.9c2.6,0,3,1.7,3,3.2C82.5,23.1,82.5,23.4,82.4,23.7z M81.3,22.9c0-1.2-0.2-2.2-1.8-2.2
			c-1.7,0-2.1,0.9-2.2,2.5L81.3,22.9z"/>
		<path class="st2" d="M83,27.2v-1c0.5,0.2,1.5,0.3,2.2,0.3c1.1,0,1.8-0.3,1.8-1.2c0-0.9-0.3-1.1-1.7-1.4c-1.7-0.4-2.1-0.9-2.1-2.2
			c0-1.2,0.9-2,2.7-2c0.7,0,1.5,0.1,1.9,0.3l-0.1,1c-0.4-0.2-1.1-0.3-1.8-0.3c-1.1,0-1.6,0.2-1.6,1.1c0,0.8,0.3,0.9,1.4,1.2
			c1.7,0.4,2.4,0.9,2.4,2.3c0,1.5-1,2.2-2.9,2.2C84.5,27.5,83.4,27.4,83,27.2z"/>
		<path class="st2" d="M88.9,17.7c0-0.6,0.2-0.7,0.7-0.7c0.5,0,0.7,0.1,0.7,0.7c0,0.6-0.2,0.7-0.7,0.7
			C89.1,18.4,88.9,18.3,88.9,17.7z M89,19.8h1.2v7.6H89V19.8z"/>
		<path class="st2" d="M97.7,22v5.4h-1l-0.2-1.1c-0.4,0.8-1.6,1.3-2.7,1.3c-1.8,0-2.6-0.8-2.6-2.3c0-1.8,1.2-2.4,3-2.4h2.3v-0.6
			c0-0.9-0.3-1.5-1.9-1.5c-0.5,0-1.1,0.1-1.7,0.2v-1.1c0.6-0.1,1.2-0.1,1.7-0.1C97,19.7,97.7,20.7,97.7,22z M96.5,25.1v-1.2h-2.2
			c-1.2,0-1.8,0.3-1.8,1.4c0,0.8,0.4,1.3,1.5,1.3C95.1,26.5,96.1,26,96.5,25.1z"/>
	</g>
</g>
</svg>
