<?xml version="1.0" encoding="utf-8"?>
<!-- Generator: Adobe Illustrator 24.0.0, SVG Export Plug-In . SVG Version: 6.00 Build 0)  -->
<svg version="1.1" id="图层_1" xmlns="http://www.w3.org/2000/svg" xmlns:xlink="http://www.w3.org/1999/xlink" x="0px" y="0px"
	 viewBox="0 0 136 44" style="enable-background:new 0 0 136 44;" xml:space="preserve">
<style type="text/css">
	.st0{fill:#1E8BCA;}
	.st1{opacity:0.4;fill:#FFFFFF;}
	.st2{fill:#FFFFFF;}
	.st3{fill-rule:evenodd;clip-rule:evenodd;fill:#DB4B35;}
	.st4{fill-rule:evenodd;clip-rule:evenodd;fill:#129B7F;}
	.st5{fill-rule:evenodd;clip-rule:evenodd;fill:#FFFFFF;}
	.st6{fill-rule:evenodd;clip-rule:evenodd;fill:#040000;}
	.st7{fill-rule:evenodd;clip-rule:evenodd;fill:#2479AE;}
	.st8{fill-rule:evenodd;clip-rule:evenodd;fill:#1AAF5D;}
	.st9{fill:#1AAF5D;}
	.st10{fill:#1F64C9;}
	.st11{fill-rule:evenodd;clip-rule:evenodd;fill:#E87E04;}
	.st12{fill-rule:evenodd;clip-rule:evenodd;fill:#227FBB;}
	.st13{fill:#DB4B35;}
</style>
<rect class="st0" width="136" height="44"/>
<path class="st1" d="M125.5,39l3.5-16.6c0.3-1.5-0.5-2-1.5-1.7l-20.6,8c-1.4,0.5-1.4,1.3-0.2,1.7l5.3,1.6l12.3-7.7
	c0.6-0.4,1.1-0.2,0.7,0.2l-9.9,9l-0.4,5.4c0.5,0,0.8-0.2,1.1-0.5l2.6-2.5l5.4,3.9C124.5,40.5,125.2,40.2,125.5,39L125.5,39z"/>
<g>
	<g>
		<circle class="st3" cx="22.1" cy="22" r="15.2"/>
		<g>
			<path class="st2" d="M19.1,20.2c-0.3-1-1.1-1.8-2.3-1.8c-1.8,0-2.7,1.7-2.7,3.5c0,2.4,1.2,3.6,2.7,3.6c1.3,0,2.2-0.8,2.4-2.4
				l2.4,0.7c-0.5,2.4-2.1,3.8-4.8,3.8c-3.4,0-5.3-2.4-5.3-5.8c0-3.4,2.2-5.7,5.3-5.7c2.6,0,4.2,1.6,4.7,3.4L19.1,20.2z"/>
			<path class="st2" d="M30.1,27.5l-4.4-7c-0.2-0.3-0.4-0.7-0.6-1h0c0.1,0.5,0.1,1.1,0.1,1.9v6.1h-2.4V16.4h2.7l4.2,6.8
				c0.2,0.3,0.4,0.7,0.6,1.1l0,0c0-0.5-0.1-1.2-0.1-1.7v-6.2h2.4v11.1H30.1z"/>
		</g>
	</g>
	<g>
		<path class="st2" d="M52.5,23.9h-4v3.5h-1v-3.5h-4v-5.1h4v-2.3l1,0v2.3h4V23.9z M47.5,23v-3.3h-3.1V23H47.5z M51.5,19.7h-3.1V23
			h3.1V19.7z"/>
		<path class="st2" d="M63.9,27.3c-2-0.8-3.7-1.6-5-2.7c-1.2,1.1-2.9,1.9-5,2.8l-0.5-0.9c2.1-0.7,3.7-1.5,4.8-2.5
			c-1.2-1.3-2.1-2.8-2.6-4.8h-1.8v-0.9h4.7c-0.2-0.6-0.4-1.3-0.5-1.6l0.9-0.2c0.2,0.4,0.4,1.3,0.6,1.9h4.4v0.9H62
			c-0.5,2-1.2,3.5-2.4,4.8c1.2,1,2.7,1.7,4.7,2.4L63.9,27.3z M56.6,19.2c0.5,1.8,1.2,3.1,2.3,4.2c1.1-1.1,1.7-2.4,2.1-4.2H56.6z"/>
		<path class="st2" d="M67.2,22.3v5h-0.9v-4.7c-0.5,0.6-1.1,1.2-1.8,1.7L64,23.6c1.5-1.3,2.6-2.5,3.3-4h-2.7v-0.9h1.8
			c-0.1-0.7-0.4-1.6-0.5-2l0.8-0.1c0.1,0.4,0.4,1.4,0.5,2.1h1v0.9c-0.3,0.6-0.7,1.3-1.1,1.9c0.6,0.4,1.7,1.3,2.2,1.8L68.9,24
			C68.5,23.5,67.8,22.8,67.2,22.3z M75.1,25.9v0.9h-6.8v-0.9h3V21H69v-0.9h2.3v-3.6l0.9,0v3.6h2.4V21h-2.4v4.9H75.1z"/>
		<path class="st2" d="M85.8,25.9v0.9h-9.6v-9.6h9.3v0.9h-8.3v7.9H85.8z M77.4,24.7c1.2-0.7,2.3-1.7,3.4-2.7c-1.1-1.1-2.2-2-2.9-2.6
			l0.6-0.7c0.7,0.6,1.8,1.6,2.9,2.6c0.8-0.9,1.6-1.8,2.2-2.7l0.8,0.6c-0.7,0.9-1.5,1.9-2.3,2.8c1,1,2,2,2.7,2.7l-0.6,0.8
			c-0.7-0.8-1.7-1.9-2.8-2.9c-1.1,1.1-2.3,2.1-3.5,2.8L77.4,24.7z"/>
	</g>
</g>
</svg>
