<?xml version="1.0" encoding="iso-8859-1"?>
<!-- Generator: Adobe Illustrator 24.0.0, SVG Export Plug-In . SVG Version: 6.00 Build 0)  -->
<svg version="1.1" id="&#x56FE;&#x5C42;_1" xmlns="http://www.w3.org/2000/svg" xmlns:xlink="http://www.w3.org/1999/xlink" x="0px"
	 y="0px" viewBox="0 0 68 62.5" style="enable-background:new 0 0 68 62.5;" xml:space="preserve">
<g>
	<path style="fill:#1E8BCA;" d="M44.639,43.489c0-6.941,5.627-12.569,12.569-12.569c1.602,0,3.132,0.303,4.541,0.849
		c0.003-0.174,0.013-0.345,0.013-0.52c0-16.847-13.657-30.504-30.504-30.504C14.41,0.746,0.752,14.403,0.752,31.25
		S14.41,61.754,31.257,61.754c7.558,0,14.469-2.755,19.797-7.307C47.226,52.293,44.639,48.195,44.639,43.489z"/>
	<path style="fill:#FFFFFF;" d="M40.844,45.923l5.06-23.853c0.447-2.099-0.758-2.925-2.134-2.41L14.03,31.122
		c-2.031,0.791-1.996,1.928-0.344,2.443l7.607,2.375l17.658-11.118c0.826-0.551,1.584-0.24,0.965,0.311L25.633,38.039l-0.551,7.849
		c0.791,0,1.137-0.344,1.549-0.758l3.716-3.58l7.71,5.679c1.412,0.791,2.41,0.379,2.789-1.309L40.844,45.923z"/>
	<g id="flags_12_" transform="translate(-180.000000, -6120.000000)">
		<g id="turkey_8_" transform="translate(180.000000, 6120.000000)">
			<circle id="red_10_" style="fill-rule:evenodd;clip-rule:evenodd;fill:#DB4B35;" cx="57.297" cy="43.747" r="9.951"/>
			<path id="white_12_" style="fill-rule:evenodd;clip-rule:evenodd;fill:#DB4B35;" d="M62.246,44.686l-0.769,0.789l-0.158-1.09
				l-0.988-0.487l0.988-0.487l0.158-1.09l0.769,0.789l1.086-0.186l-0.513,0.975l0.513,0.975L62.246,44.686L62.246,44.686z
				 M60.101,46.161c-0.849,1.528-2.48,2.562-4.352,2.562c-2.748,0-4.976-2.228-4.976-4.976s2.228-4.976,4.976-4.976
				c1.872,0,3.503,1.034,4.352,2.562c-0.709-0.888-1.801-1.456-3.025-1.456c-2.137,0-3.87,1.733-3.87,3.87s1.733,3.87,3.87,3.87
				C58.3,47.617,59.392,47.048,60.101,46.161C60.101,46.161,59.392,47.048,60.101,46.161L60.101,46.161z"/>
		</g>
	</g>
	<path style="fill:#EEE939;" d="M60.679,48.321c-0.758-0.551-1.485-1.08-2.212-1.608c-0.314-0.228-0.63-0.452-0.939-0.686
		c-0.092-0.069-0.153-0.062-0.242,0.003c-1.005,0.736-2.013,1.468-3.02,2.201c-0.033,0.024-0.066,0.047-0.119,0.084
		c0.011-0.056,0.014-0.09,0.024-0.121c0.384-1.179,0.765-2.358,1.155-3.535c0.047-0.143,0.022-0.219-0.099-0.306
		c-1.004-0.72-2.002-1.448-3.002-2.173c-0.029-0.021-0.057-0.042-0.117-0.088c0.082-0.004,0.129-0.008,0.176-0.008
		c1.23,0.001,2.461-0.001,3.691,0.008c0.151,0.001,0.203-0.054,0.245-0.185c0.374-1.171,0.755-2.34,1.134-3.51
		c0.012-0.038,0.028-0.075,0.053-0.142c0.026,0.061,0.044,0.095,0.055,0.131c0.38,1.174,0.763,2.348,1.137,3.525
		c0.043,0.136,0.103,0.182,0.248,0.181c1.23-0.008,2.461-0.006,3.691-0.007c0.044,0,0.089,0,0.17,0
		c-0.064,0.053-0.097,0.083-0.132,0.108c-0.992,0.719-1.982,1.441-2.977,2.155c-0.125,0.09-0.157,0.166-0.107,0.317
		c0.389,1.172,0.768,2.347,1.15,3.521C60.652,48.218,60.66,48.252,60.679,48.321z"/>
</g>
</svg>
