<?xml version="1.0" encoding="utf-8"?>
<!-- Generator: Adobe Illustrator 24.0.0, SVG Export Plug-In . SVG Version: 6.00 Build 0)  -->
<svg version="1.1" id="图层_1" xmlns="http://www.w3.org/2000/svg" xmlns:xlink="http://www.w3.org/1999/xlink" x="0px" y="0px"
	 viewBox="0 0 136 44" style="enable-background:new 0 0 136 44;" xml:space="preserve">
<style type="text/css">
	.st0{fill:#1E8BCA;}
	.st1{opacity:0.4;fill:#FFFFFF;enable-background:new    ;}
	.st2{fill:#DB4B35;}
	.st3{fill-rule:evenodd;clip-rule:evenodd;fill:#DB4B35;}
	.st4{fill:#EEE939;}
	.st5{fill:#FFFFFF;}
</style>
<title>资源 5</title>
<path class="st0" d="M2,0h132c1.1,0,2,0.9,2,2v40c0,1.1-0.9,2-2,2H2c-1.1,0-2-0.9-2-2V2C0,0.9,0.9,0,2,0z"/>
<path class="st1" d="M125.5,39l3.5-16.6c0.3-1.5-0.5-2-1.5-1.7l-20.6,8c-1.4,0.5-1.4,1.3-0.2,1.7l5.3,1.7l12.2-7.7
	c0.6-0.4,1.1-0.2,0.7,0.2l-9.9,9l-0.4,5.4c0.4,0,0.8-0.2,1.1-0.5l2.6-2.5l5.3,3.9C124.5,40.5,125.2,40.2,125.5,39L125.5,39z"/>
<g id="flags">
	<g id="turkey">
		<circle id="red" class="st2" cx="22.1" cy="22.2" r="15.3"/>
		<path id="white" class="st3" d="M29.7,23.6l-1.2,1.2l-0.2-1.7l-1.5-0.8l1.5-0.7l0.2-1.7l1.2,1.2l1.7-0.3l-0.8,1.5l0.8,1.5
			L29.7,23.6L29.7,23.6z M26.5,25.9c-2,3.7-6.7,5-10.4,3s-5-6.7-3-10.4s6.7-5,10.4-3c1.3,0.7,2.3,1.7,3,3c-2-2.6-5.8-3-8.3-0.9
			s-3,5.8-0.9,8.3s5.8,3,8.3,0.9C25.9,26.5,26.2,26.2,26.5,25.9z"/>
	</g>
</g>
<path class="st4" d="M27.3,29.2c-1.2-0.8-2.3-1.6-3.4-2.5c-0.5-0.3-1-0.7-1.4-1c-0.1-0.1-0.3-0.1-0.4,0l-4.6,3.4l-0.2,0.1
	c0-0.1,0-0.1,0-0.2c0.6-1.8,1.2-3.6,1.8-5.4c0.1-0.2,0.1-0.4-0.1-0.5c0,0,0,0,0,0c-1.5-1.1-3.1-2.2-4.6-3.3l-0.2-0.1h5.9
	c0.2,0,0.3-0.1,0.4-0.3c0.6-1.8,1.2-3.6,1.7-5.4l0.1-0.2c0,0.1,0.1,0.1,0.1,0.2c0.6,1.8,1.2,3.6,1.8,5.4c0,0.2,0.2,0.3,0.4,0.3
	c0,0,0,0,0,0h5.9l-0.2,0.2c-1.5,1.1-3,2.2-4.6,3.3c-0.2,0.1-0.3,0.3-0.2,0.5c0,0,0,0,0,0c0.6,1.8,1.2,3.6,1.8,5.4
	C27.3,29,27.3,29.1,27.3,29.2z"/>
<g>
	<path class="st5" d="M42.6,18.4h1.8l1.8,5.8h0.1l1.9-5.8H50L47.3,26h-2.1L42.6,18.4z"/>
	<path class="st5" d="M50.8,18.4c0-0.7,0.2-0.8,0.9-0.8c0.7,0,0.9,0.1,0.9,0.8c0,0.7-0.2,0.8-0.9,0.8C51,19.2,50.8,19.1,50.8,18.4z
		 M50.9,20h1.6V26h-1.6V20z"/>
	<path class="st5" d="M59.1,23.4l-3.8,0.2c0.1,0.8,0.5,1.2,1.6,1.2c0.7,0,1.6-0.2,2-0.4v1.2c-0.4,0.2-1.2,0.4-2.3,0.4
		c-1.8,0-2.9-0.7-2.9-3.1s1.1-3.1,2.9-3.1c2.1,0,2.5,1.1,2.5,2.6C59.2,22.9,59.2,23.2,59.1,23.4z M57.7,22.3c0-0.6-0.2-1.2-1.1-1.2
		c-1,0-1.3,0.4-1.3,1.4L57.7,22.3z"/>
	<path class="st5" d="M62.2,21.3v2.6c0,0.7,0.1,0.9,0.7,0.9c0.2,0,0.4,0,0.5,0V26c-0.2,0-0.5,0.1-0.8,0.1c-1.5,0-2-0.4-2-2v-2.8
		h-0.8V20h0.8v-1.4h1.6V20h1.2v1.2H62.2z"/>
	<path class="st5" d="M69.8,21.9v4h-1.6v-3.6c0-0.8-0.2-1.1-1-1.1c-0.7,0-1.1,0.2-1.3,0.8V26h-1.6V20H66v0.7c0.3-0.6,1-0.8,1.9-0.8
		C69.3,19.9,69.8,20.6,69.8,21.9z"/>
	<path class="st5" d="M76.5,21.9V26h-1.4l-0.2-0.7c-0.3,0.4-0.9,0.8-1.9,0.8c-1.3,0-2-0.6-2-1.8c0-1.4,0.8-1.9,2.4-1.9h1.5v-0.2
		c0-0.7-0.2-1-1.3-1c-0.4,0-0.9,0-1.3,0.1V20c0.4-0.1,1-0.1,1.4-0.1C75.8,19.9,76.5,20.6,76.5,21.9z M74.9,24.2v-0.7h-1.2
		c-0.8,0-1.1,0.1-1.1,0.7c0,0.5,0.3,0.6,0.9,0.6C74.2,24.9,74.7,24.6,74.9,24.2z"/>
	<path class="st5" d="M86.9,22V26h-1.6v-3.6c0-0.8-0.2-1.1-0.9-1.1c-0.6,0-1,0.2-1.1,0.9V26h-1.6v-3.6c0-0.8-0.2-1.1-0.9-1.1
		c-0.7,0-0.9,0.2-1.1,0.8V26h-1.6V20h1.6v0.7c0.3-0.5,0.8-0.8,1.7-0.8c0.9,0,1.4,0.3,1.7,0.8c0.3-0.6,1-0.8,1.9-0.8
		C86.2,19.9,86.9,20.6,86.9,22z"/>
</g>
</svg>
