<?xml version="1.0" encoding="iso-8859-1"?>
<!-- Generator: Adobe Illustrator 24.0.0, SVG Export Plug-In . SVG Version: 6.00 Build 0)  -->
<svg version="1.1" id="&#x56FE;&#x5C42;_1" xmlns="http://www.w3.org/2000/svg" xmlns:xlink="http://www.w3.org/1999/xlink" x="0px"
	 y="0px" viewBox="0 0 136 44" style="enable-background:new 0 0 136 44;" xml:space="preserve">
<path style="fill:#FFFFFF;" d="M2,0h132c1.105,0,2,0.895,2,2v40c0,1.105-0.895,2-2,2H2c-1.105,0-2-0.895-2-2V2C0,0.895,0.895,0,2,0z
	"/>
<g>
	<g>
		<linearGradient id="SVGID_1_" gradientUnits="userSpaceOnUse" x1="8.3558" y1="24.0969" x2="32.1689" y2="24.0969">
			<stop  offset="0" style="stop-color:#D66FA7"/>
			<stop  offset="1" style="stop-color:#E29AC1"/>
		</linearGradient>
		<path style="fill:url(#SVGID_1_);" d="M29.829,20.044c-0.032,1.359-0.3,2.632-0.796,3.782c-2.805,6.506-8.346,9.55-9.795,10.254
			c-1.967-0.73-3.584-1.9-4.906-3.259l-0.004,0.003c-0.285-0.313-0.44-0.543-0.44-0.543l-5.532,4.836l4.556-2.688
			c1.6,1.616,3.583,3.004,6.04,3.823l0.377,0.126l0.368-0.15c0.314-0.128,7.718-3.236,11.304-11.552
			c0.605-1.404,0.932-2.945,0.971-4.58l0.197-8.279l-2.192,2.013L29.829,20.044z"/>
		<linearGradient id="SVGID_2_" gradientUnits="userSpaceOnUse" x1="6.8983" y1="18.9533" x2="34.1598" y2="18.9533">
			<stop  offset="0" style="stop-color:#D66FA7"/>
			<stop  offset="1" style="stop-color:#E29AC1"/>
		</linearGradient>
		<path style="fill:url(#SVGID_2_);" d="M12.67,28.826c-1.539-2.149-2.51-4.447-3.079-6.122c-0.37-1.087-0.554-2.244-0.549-3.44
			l0.028-6.063c1.359-0.549,5.019-1.794,10.307-1.833c2.901-0.019,6.103,0.506,8.38,0.976l0.019-0.017
			c0.5,0.262,0.778,0.507,0.778,0.507l5.605-5.212l-4.654,3.118l0.185-0.17c-2.246-0.525-6.363-1.346-10.141-1.346
			c-0.062,0-0.126,0-0.188,0.001c-7.297,0.053-11.663,2.226-11.845,2.319L6.933,11.84l-0.035,7.415
			c-0.007,1.434,0.217,2.827,0.663,4.14c0.639,1.88,1.743,4.47,3.52,6.89L12.67,28.826z"/>
	</g>
	<g>
		<g>
			<path style="fill:#231815;" d="M40.66,27.063l0.941-1.092c0.941,0.922,2.221,1.524,3.614,1.524c1.694,0,2.673-0.809,2.673-1.939
				c0-1.318-0.96-1.694-2.202-2.221l-1.789-0.79c-1.223-0.489-2.654-1.355-2.654-3.181c0-1.882,1.694-3.275,4.047-3.275
				c1.543,0,2.899,0.621,3.802,1.525l-0.829,1.017c-0.809-0.715-1.75-1.148-3.03-1.148c-1.431,0-2.391,0.677-2.391,1.788
				c0,1.186,1.149,1.619,2.202,2.033l1.732,0.771c1.525,0.602,2.73,1.468,2.73,3.295c0,1.958-1.656,3.52-4.367,3.52
				C43.333,28.889,41.77,28.173,40.66,27.063z"/>
			<path style="fill:#231815;" d="M54.269,25.381v-3.994h-2.397V20.31l2.449-0.086l0.191-2.709h1.198v2.709h4.132v1.163H55.71v4.011
				c0,1.511,0.503,2.292,2.136,2.292c0.781,0,1.406-0.156,2.014-0.382l0.312,1.059c-0.764,0.278-1.58,0.504-2.639,0.504
				C55.068,28.871,54.269,27.464,54.269,25.381z"/>
			<path style="fill:#231815;" d="M62.506,26.474c0-1.893,1.771-2.813,6.13-3.16c-0.052-1.146-0.608-2.119-2.24-2.119
				c-1.094,0-2.17,0.521-2.952,1.007l-0.573-0.973c0.868-0.556,2.292-1.215,3.768-1.215c2.31,0,3.438,1.372,3.438,3.473v5.175
				h-1.198l-0.122-1.146h-0.052c-0.92,0.729-2.136,1.355-3.317,1.355C63.808,28.871,62.506,27.985,62.506,26.474z M68.636,26.458
				v-2.188c-3.612,0.278-4.706,0.99-4.706,2.101c0,0.955,0.868,1.337,1.841,1.337C66.726,27.707,67.663,27.256,68.636,26.458z"/>
			<path style="fill:#231815;" d="M72.705,32.118L73,30.972c0.226,0.069,0.504,0.122,0.764,0.122c1.181,0,1.893-0.747,2.31-1.789
				l0.243-0.625l-3.924-8.457h1.458l2.049,4.653c0.33,0.747,0.695,1.632,1.042,2.449h0.069c0.296-0.799,0.625-1.685,0.903-2.449
				l1.824-4.653h1.389l-3.733,9.133c-0.626,1.667-1.65,2.935-3.577,2.935C73.417,32.292,73,32.222,72.705,32.118z"/>
		</g>
		<g>
			<path style="fill:#231815;" d="M82.887,24.823h2.502c0,0.51,0.151,0.933,0.452,1.268c0.452,0.498,1.182,0.747,2.19,0.747
				c0.741,0,1.332-0.105,1.772-0.312c0.556-0.266,0.834-0.7,0.834-1.302c0-0.45-0.209-0.792-0.625-1.023
				c-0.279-0.151-0.823-0.324-1.634-0.52l-1.338-0.312c-1.332-0.312-2.241-0.636-2.728-0.971c-0.823-0.566-1.234-1.463-1.234-2.689
				c0-0.96,0.289-1.77,0.869-2.428c0.822-0.937,2.131-1.405,3.927-1.405c1.702,0,2.988,0.479,3.857,1.436
				c0.672,0.738,1.007,1.597,1.007,2.578h-2.502c-0.058-0.493-0.203-0.872-0.434-1.136c-0.417-0.482-1.124-0.723-2.12-0.723
				c-0.59,0-1.077,0.105-1.459,0.312c-0.475,0.266-0.713,0.66-0.713,1.18c0,0.428,0.151,0.752,0.452,0.971
				c0.174,0.127,0.464,0.238,0.869,0.329l3.041,0.746c1.031,0.255,1.789,0.584,2.276,0.989c0.66,0.544,0.99,1.33,0.99,2.359
				c0,1.261-0.417,2.238-1.251,2.932c-0.916,0.763-2.137,1.145-3.666,1.145c-2.027,0-3.486-0.498-4.378-1.495
				C83.206,26.792,82.887,25.9,82.887,24.823z"/>
			<path style="fill:#231815;" d="M97.76,26.091l-0.868,2.571h-2.745l4.468-12.458h3.02l4.361,12.458h-2.832l-0.799-2.571H97.76z
				 M98.455,23.936h3.18l-1.546-4.917L98.455,23.936z"/>
			<path style="fill:#231815;" d="M110.269,23.415v5.247h-2.606V16.205h8.878v2.206h-6.272v2.798h5.49v2.206H110.269z"/>
			<path style="fill:#231815;" d="M128.27,16.205v8.103c0,1.596-0.457,2.788-1.373,3.574c-0.868,0.741-2.12,1.111-3.753,1.111
				c-0.73,0-1.39-0.093-1.981-0.278c-0.811-0.255-1.471-0.665-1.98-1.232c-0.649-0.729-0.974-1.735-0.974-3.02v-8.259h2.659v8.084
				c0,0.821,0.209,1.443,0.625,1.864c0.417,0.422,0.95,0.633,1.598,0.633c0.869,0,1.506-0.202,1.912-0.607
				c0.405-0.404,0.608-0.995,0.608-1.77v-8.204H128.27z"/>
		</g>
	</g>
</g>
</svg>
