<?xml version="1.0" encoding="iso-8859-1"?>
<!-- Generator: Adobe Illustrator 24.0.0, SVG Export Plug-In . SVG Version: 6.00 Build 0)  -->
<svg version="1.1" id="&#x56FE;&#x5C42;_1" xmlns="http://www.w3.org/2000/svg" xmlns:xlink="http://www.w3.org/1999/xlink" x="0px"
	 y="0px" viewBox="0 0 136 44" style="enable-background:new 0 0 136 44;" xml:space="preserve">
<path style="fill:#FFFFFF;" d="M2,0h132c1.105,0,2,0.895,2,2v40c0,1.105-0.895,2-2,2H2c-1.105,0-2-0.895-2-2V2C0,0.895,0.895,0,2,0z
	"/>
<g>
	<g>
		<g>
			<linearGradient id="SVGID_1_" gradientUnits="userSpaceOnUse" x1="11.1252" y1="33.7523" x2="32.5564" y2="12.3211">
				<stop  offset="0" style="stop-color:#58C0D6"/>
				<stop  offset="1" style="stop-color:#67C1B6"/>
			</linearGradient>
			<path style="fill:url(#SVGID_1_);" d="M17.539,36.765l-0.164-0.028c-3.981-0.688-11.297-4.584-10.489-14.4
				c0.689-8.366,7.389-11.363,10.835-11.779l0.224-0.013l12.804-0.031v0c0.005,2.1-1.694,3.806-3.794,3.811l-8.867,0.023
				c-0.842,0.137-6.84,1.353-7.412,8.302c-0.682,8.287,6.08,10.074,7.202,10.313l8.345-0.033c0.523-0.056,1.631-0.41,1.631-2.084
				c0-0.532-0.081-1.239-0.466-1.597c-0.359-0.334-0.934-0.322-0.945-0.337l-0.091,0.006l-6.946-0.149
				c-2.118-0.152-5.074-1.661-4.926-5.224c0.157-3.779,3.192-5.096,4.775-5.266l0.11-0.012l9.886,0.128v0
				c-0.021,2.1-1.74,3.786-3.84,3.765l-5.825-0.087c-0.482,0.091-1.257,0.431-1.306,1.63c-0.031,0.753,0.415,1.179,1.327,1.272
				l6.675,0.138c0.505-0.003,2.276,0.034,3.693,1.35c0.767,0.712,1.681,2.051,1.681,4.383c0,4.074-3.175,5.752-5.309,5.884
				L17.539,36.765z"/>
		</g>
		<g>
			<rect x="35.247" y="7.235" style="fill:#6AC1B0;" width="2.637" height="8.54"/>
			
				<rect x="35.247" y="7.235" transform="matrix(-1.836970e-16 1 -1 -1.836970e-16 48.0699 -25.0606)" style="fill:#6AC1B0;" width="2.637" height="8.54"/>
		</g>
	</g>
	<g>
		<path style="fill:#323333;" d="M55.991,25.796v-2.722h6.248v5.579c-1.196,0.815-2.254,1.37-3.173,1.665
			c-0.919,0.294-2.01,0.442-3.271,0.442c-1.553,0-2.819-0.265-3.798-0.794c-0.979-0.529-1.738-1.318-2.276-2.365
			c-0.538-1.047-0.808-2.249-0.808-3.606c0-1.428,0.294-2.67,0.883-3.726c0.589-1.057,1.452-1.858,2.589-2.406
			c0.886-0.422,2.08-0.634,3.58-0.634c1.446,0,2.527,0.131,3.244,0.393c0.717,0.262,1.312,0.668,1.785,1.218
			c0.473,0.55,0.829,1.248,1.067,2.093l-3.901,0.696c-0.161-0.494-0.433-0.872-0.817-1.134c-0.384-0.262-0.874-0.393-1.468-0.393
			c-0.887,0-1.593,0.308-2.12,0.924c-0.526,0.616-0.79,1.59-0.79,2.924c0,1.416,0.266,2.428,0.799,3.035
			c0.532,0.607,1.275,0.91,2.227,0.91c0.452,0,0.883-0.065,1.294-0.196s0.881-0.354,1.41-0.669v-1.232H55.991z"/>
		<path style="fill:#323333;" d="M63.953,25.823c0-1.446,0.488-2.638,1.464-3.575c0.976-0.938,2.294-1.406,3.954-1.406
			c1.898,0,3.332,0.55,4.302,1.651c0.779,0.887,1.169,1.979,1.169,3.276c0,1.458-0.484,2.653-1.45,3.584
			c-0.967,0.932-2.305,1.397-4.013,1.397c-1.523,0-2.755-0.387-3.695-1.161C64.53,28.632,63.953,27.376,63.953,25.823z
			 M67.595,25.814c0,0.845,0.171,1.47,0.513,1.875c0.342,0.405,0.772,0.607,1.29,0.607c0.523,0,0.954-0.199,1.29-0.598
			c0.336-0.399,0.505-1.039,0.505-1.919c0-0.821-0.17-1.433-0.509-1.834c-0.339-0.402-0.758-0.603-1.259-0.603
			c-0.53,0-0.967,0.204-1.312,0.611C67.767,24.361,67.595,24.981,67.595,25.814z"/>
		<path style="fill:#323333;" d="M76.628,22.565h3.419v-3.437h2.883v3.437h3.437v2.883H82.93v3.419h-2.883v-3.419h-3.419V22.565z"/>
		<path style="fill:#323333;" d="M88.679,34.142V21.057h3.401v1.401c0.47-0.589,0.901-0.988,1.294-1.196
			c0.53-0.279,1.116-0.419,1.759-0.419c1.268,0,2.248,0.485,2.941,1.455c0.693,0.97,1.04,2.169,1.04,3.597
			c0,1.577-0.378,2.781-1.134,3.611c-0.756,0.83-1.711,1.245-2.866,1.245c-0.559,0-1.07-0.095-1.531-0.286
			c-0.461-0.19-0.873-0.473-1.236-0.848v4.526H88.679z M92.321,25.823c0,0.75,0.157,1.306,0.473,1.669
			c0.315,0.363,0.714,0.544,1.196,0.544c0.422,0,0.776-0.174,1.062-0.522c0.285-0.348,0.428-0.939,0.428-1.772
			c0-0.767-0.149-1.331-0.446-1.691c-0.298-0.36-0.66-0.54-1.089-0.54c-0.464,0-0.851,0.181-1.161,0.544
			S92.321,25.008,92.321,25.823z"/>
		<path style="fill:#323333;" d="M100.979,17.45h3.642v13.086h-3.642V17.45z"/>
		<path style="fill:#323333;" d="M116.931,30.536h-3.392v-1.535c-0.506,0.631-1.016,1.08-1.531,1.348
			c-0.515,0.268-1.147,0.402-1.897,0.402c-1,0-1.784-0.299-2.352-0.897c-0.568-0.598-0.853-1.519-0.853-2.763v-6.034h3.651v5.213
			c0,0.595,0.11,1.017,0.33,1.268c0.22,0.25,0.529,0.375,0.928,0.375c0.434,0,0.79-0.166,1.067-0.5
			c0.277-0.333,0.415-0.931,0.415-1.794v-4.561h3.633V30.536z"/>
		<path style="fill:#323333;" d="M118.492,27.903l3.606-0.339c0.149,0.428,0.357,0.735,0.625,0.92
			c0.268,0.184,0.625,0.277,1.071,0.277c0.488,0,0.866-0.104,1.134-0.312c0.208-0.154,0.312-0.347,0.312-0.579
			c0-0.261-0.137-0.463-0.411-0.606c-0.196-0.101-0.717-0.226-1.562-0.374c-1.262-0.22-2.138-0.424-2.629-0.611
			c-0.491-0.187-0.904-0.504-1.241-0.95c-0.336-0.446-0.505-0.954-0.505-1.525c0-0.624,0.182-1.162,0.545-1.614
			c0.363-0.452,0.863-0.789,1.5-1.012c0.636-0.223,1.491-0.335,2.562-0.335c1.131,0,1.965,0.086,2.504,0.259
			c0.538,0.172,0.987,0.44,1.348,0.803c0.36,0.363,0.659,0.854,0.897,1.473l-3.446,0.339c-0.089-0.303-0.238-0.526-0.446-0.669
			c-0.286-0.19-0.631-0.285-1.036-0.285c-0.41,0-0.71,0.072-0.897,0.218s-0.281,0.323-0.281,0.531c0,0.232,0.119,0.407,0.357,0.526
			c0.238,0.119,0.756,0.226,1.553,0.321c1.208,0.137,2.107,0.327,2.696,0.571s1.04,0.591,1.352,1.043
			c0.312,0.452,0.469,0.948,0.469,1.489c0,0.547-0.165,1.079-0.496,1.596c-0.33,0.517-0.851,0.929-1.562,1.235
			c-0.711,0.306-1.68,0.459-2.906,0.459c-1.732,0-2.965-0.247-3.7-0.741C119.172,29.516,118.701,28.813,118.492,27.903z"/>
	</g>
</g>
</svg>
