<svg xmlns="http://www.w3.org/2000/svg" xmlns:xlink="http://www.w3.org/1999/xlink" viewBox="0 0 136 44"><defs><style>.cls-1{fill:#fff;}.cls-2{fill:#091a36;}.cls-3{fill:url(#未命名的渐变_3);}.cls-4{fill:url(#未命名的渐变_2);}.cls-5{fill:#004b7a;}</style><linearGradient id="未命名的渐变_3" x1="39.58" y1="274.93" x2="22" y2="285.07" gradientTransform="matrix(0.75, 0.66, 0.66, -0.75, -177.41, 211.75)" gradientUnits="userSpaceOnUse"><stop offset="0" stop-color="#095b8d"/><stop offset="1" stop-color="#091a36"/></linearGradient><linearGradient id="未命名的渐变_2" x1="34.63" y1="283.47" x2="47.09" y2="283.47" gradientTransform="matrix(0.75, 0.66, 0.66, -0.75, -177.19, 204.23)" gradientUnits="userSpaceOnUse"><stop offset="0" stop-color="#035182"/><stop offset="1" stop-color="#0a5d92"/></linearGradient></defs><title>资源 10</title><g id="图层_2" data-name="图层 2"><g id="图层_1-2" data-name="图层 1"><rect class="cls-1" width="136" height="44" rx="2"/><rect class="cls-2" x="13.56" y="12.73" width="8.5" height="18.55" transform="translate(-10.1 17.27) rotate(-41.38)"/><rect class="cls-3" x="26.54" y="12.73" width="8.5" height="18.55" transform="translate(-6.86 25.85) rotate(-41.38)"/><rect class="cls-4" x="36.61" y="13.93" width="8.5" height="9.2" transform="translate(-2.05 31.64) rotate(-41.38)"/><path class="cls-2" d="M62.4,25.17c1.66.07,2.52,1,2.59,2.88a2.48,2.48,0,0,1-2.69,2.88,2.58,2.58,0,0,1-2.67-2.5,1.22,1.22,0,0,1,0-.27C59.68,26.22,60.6,25.22,62.4,25.17ZM62.33,30c.91,0,1.38-.65,1.4-1.9s-.49-1.89-1.4-1.91-1.45.67-1.47,1.94S61.37,30,62.33,30Z"/><path class="cls-2" d="M69.42,25.53l-.5,1a1.1,1.1,0,0,0-.76-.26c-.65,0-1,.48-.93,1.52v2.95H66V25.28h1.19v.79a1.21,1.21,0,0,1,1.08-.9A1.55,1.55,0,0,1,69.42,25.53Z"/><path class="cls-2" d="M70.1,23.34h1.19v7.45H70.1Z"/><path class="cls-2" d="M76.12,23.34H77.3v7.48H76.12v-.61a1.75,1.75,0,0,1-1.55.72c-1.51,0-2.27-1-2.27-2.81s.8-2.95,2.41-2.95a1.84,1.84,0,0,1,1.41.72Zm0,5v-.72c0-.94-.46-1.42-1.3-1.44s-1.33.61-1.33,1.9S73.91,30,74.82,30s1.3-.55,1.3-1.62Z"/><path class="cls-5" d="M85.22,25.39l-1.3.36A2,2,0,0,0,82,24.31c-1.42.07-2.16,1-2.23,2.77s.74,2.72,2.16,2.77A1.92,1.92,0,0,0,84,28.09l1.33.32A3.07,3.07,0,0,1,82,30.89q-3.42-.06-3.49-3.81t3.6-3.89A3.24,3.24,0,0,1,85.22,25.39Z"/><path class="cls-5" d="M88.86,25.17c1.65.07,2.51,1,2.59,2.88a2.48,2.48,0,0,1-2.7,2.88,2.58,2.58,0,0,1-2.67-2.5,1.22,1.22,0,0,1,0-.27C86.13,26.22,87.06,25.22,88.86,25.17ZM88.78,30c.92,0,1.38-.65,1.41-1.9s-.49-1.89-1.41-1.91-1.45.67-1.47,1.94S87.82,30,88.78,30Z"/><path class="cls-5" d="M92.53,23.34h1.18v1.33H92.53Zm0,1.94h1.18v5.51H92.53Z"/><path class="cls-5" d="M99.72,27.3v3.49H98.54V27.4c0-.81-.33-1.22-1-1.22a1.33,1.33,0,0,0-1.4,1.24v3.37H95V25.28h1.15V26a1.75,1.75,0,0,1,1.55-.79C99.09,25.14,99.77,25.83,99.72,27.3Z"/><path class="cls-2" d="M101.34,23.34h1.23v7.45h-1.23Z"/><path class="cls-2" d="M108.87,27.3v3.49h-1.19V27.4c0-.81-.33-1.22-1-1.22a1.33,1.33,0,0,0-1.41,1.25h0v3.35h-1.15V25.28h1.15V26a1.75,1.75,0,0,1,1.55-.79C108.24,25.12,108.91,25.83,108.87,27.3Z"/><path class="cls-2" d="M113.69,23.34h1.19v7.48h-1.19v-.61a1.75,1.75,0,0,1-1.55.72c-1.51,0-2.27-1-2.27-2.81s.81-2.95,2.41-2.95a1.81,1.81,0,0,1,1.41.72Zm0,5v-.72c0-.94-.46-1.42-1.3-1.44s-1.33.61-1.33,1.9.42,1.9,1.33,1.87,1.3-.5,1.3-1.57Z"/><path class="cls-2" d="M120,29l1.22.33A2.31,2.31,0,0,1,118.66,31a2.58,2.58,0,0,1-2.74-2.39,3,3,0,0,1,0-.42c.07-1.87,1-2.85,2.7-3s2.58,1,2.63,3v.32h-4.07A1.47,1.47,0,0,0,118.62,30,1.22,1.22,0,0,0,120,29Zm-1.37-2.7a1.36,1.36,0,0,0-1.37,1.23H120a1.25,1.25,0,0,0-1.21-1.29h-.17Z"/><path class="cls-2" d="M121.93,25.28h1.44L124.49,27l.1.15a.39.39,0,0,0,.08.14,1.55,1.55,0,0,1,.14-.29c.07-.09.44-.65,1.11-1.65h1.44l-2,2.73,2.2,2.74H126l-1.19-1.69a.41.41,0,0,1-.07-.15l-.11-.14a.88.88,0,0,1-.18.29l-1.26,1.69h-1.48L124,28Z"/><path class="cls-2" d="M57.9,23.34l-1.51,6h0L54.8,25.77,56,23.34H55l-.7,1.36-.6-1.36h-1l1,2.45L52,29.19l-.14.12s-.66-2.83-1.48-6H49.09l2.16,7.45h1.11v-.07l1.85-3.8,1.35,3.23.23.64H56.9l2.27-7.45Z"/></g></g></svg>