<svg xmlns="http://www.w3.org/2000/svg" viewBox="0 0 136 44"><defs><style>.cls-1{fill:#1e8bca;}.cls-2,.cls-4,.cls-7{fill:#fff;}.cls-2{opacity:0.4;}.cls-3{fill:#1aaf5d;}.cls-3,.cls-4,.cls-5,.cls-6{fill-rule:evenodd;}.cls-5{fill:#e87e04;}.cls-6{fill:#227fbb;}</style></defs><title>资源 16</title><g id="图层_2" data-name="图层 2"><g id="图层_1-2" data-name="图层 1"><rect class="cls-1" width="136" height="44" rx="2"/><path class="cls-2" d="M125.47,39,129,22.44c.31-1.45-.53-2-1.49-1.67l-20.63,8c-1.41.55-1.39,1.34-.24,1.7l5.28,1.65,12.25-7.72c.57-.38,1.1-.16.67.22l-9.91,9L114.54,39a1.37,1.37,0,0,0,1.07-.52L118.19,36l5.35,3.94c1,.55,1.67.27,1.94-.9Z"/><g id="Page-1"><g id="flags"><g id="india"><path id="green" class="cls-3" d="M36.36,27.05H7.55a15.28,15.28,0,0,0,28.81,0Z"/><path id="white" class="cls-4" d="M7.55,27.05H36.36a15.35,15.35,0,0,0,0-10.19H7.55a15.35,15.35,0,0,0,0,10.19Z"/><path id="orange" class="cls-5" d="M7.55,16.86H36.36a15.28,15.28,0,0,0-28.81,0Z"/><path id="emblem" class="cls-6" d="M22.73,25.86a4.77,4.77,0,0,0,.65-.17h0l0-.06a.17.17,0,0,1,.09-.22.17.17,0,0,1,.23.09.09.09,0,0,1,0,.07,4,4,0,0,0,.61-.34.13.13,0,0,1-.07-.06.17.17,0,0,1,0-.24.17.17,0,0,1,.24,0,.16.16,0,0,1,0,.08h0a3,3,0,0,0,.51-.5h0a.19.19,0,0,1-.1,0,.17.17,0,0,1,0-.24.17.17,0,0,1,.24,0,.18.18,0,0,1,.06.09,3.14,3.14,0,0,0,.37-.64.24.24,0,0,1-.12,0,.17.17,0,0,1-.09-.23.16.16,0,0,1,.22-.09.18.18,0,0,1,.09.08h0a3.58,3.58,0,0,0,.2-.73h0a.19.19,0,0,1-.13,0,.17.17,0,0,1-.15-.19.18.18,0,0,1,.19-.15.19.19,0,0,1,.12.07c0-.13,0-.25,0-.38s0-.27,0-.4a.2.2,0,0,1-.12.08.18.18,0,1,1-.05-.35.23.23,0,0,1,.14,0h0a4.73,4.73,0,0,0-.21-.76h0a.18.18,0,0,1-.1.11.17.17,0,1,1-.14-.32.19.19,0,0,1,.15,0,3.62,3.62,0,0,0-.41-.68.18.18,0,0,1-.06.13.17.17,0,0,1-.24,0,.18.18,0,0,1,0-.25.17.17,0,0,1,.14,0h0a4.25,4.25,0,0,0-.57-.55h0a.17.17,0,0,1,0,.14.17.17,0,1,1-.27-.21.19.19,0,0,1,.11-.07,3.6,3.6,0,0,0-.67-.37.15.15,0,0,1,0,.13.17.17,0,0,1-.22.1.19.19,0,0,1-.1-.23.2.2,0,0,1,.09-.09h0a4.33,4.33,0,0,0-.73-.18h0a.23.23,0,0,1,0,.11.17.17,0,0,1-.2.15.17.17,0,0,1-.15-.19.13.13,0,0,1,.05-.09h-.27a3.39,3.39,0,0,0-.45,0,.36.36,0,0,1,0,.09.17.17,0,0,1-.15.19.16.16,0,0,1-.19-.14.14.14,0,0,1,0-.09h0a3,3,0,0,0-.67.2h0a.1.1,0,0,1,.05.06.17.17,0,0,1-.1.22.16.16,0,0,1-.22-.09.14.14,0,0,1,0-.06,3.36,3.36,0,0,0-.57.35.08.08,0,0,1,0,0,.17.17,0,0,1,0,.24.17.17,0,0,1-.24,0l0,0h0a4,4,0,0,0-.45.47h0l0,0a.17.17,0,0,1-.2.28l0,0a4.4,4.4,0,0,0-.31.56h0a.18.18,0,0,1,.09.23.16.16,0,0,1-.22.09h0a3.22,3.22,0,0,0-.15.63h0a.17.17,0,0,1,.15.19.18.18,0,0,1-.19.15h0a2.09,2.09,0,0,0,0,.25c0,.13,0,.26,0,.39h0a.19.19,0,0,1,.2.15.18.18,0,0,1-.15.2h0a4.24,4.24,0,0,0,.17.61h0a.17.17,0,0,1,.23.09.18.18,0,0,1-.09.23h0a4.45,4.45,0,0,0,.33.55h0a.17.17,0,0,1,.24,0,.18.18,0,0,1,0,.25h0a4.78,4.78,0,0,0,.45.45h0a.17.17,0,1,1,.27.21h0a3.86,3.86,0,0,0,.56.32v0a.17.17,0,0,1,.22-.1.19.19,0,0,1,.1.23l0,0h0a3.45,3.45,0,0,0,.63.17h0v0a.17.17,0,0,1,.2-.14.16.16,0,0,1,.14.19.06.06,0,0,1,0,0h.66a.43.43,0,0,1,0,0,.17.17,0,0,1,.15-.19.16.16,0,0,1,.19.14v.06Zm-.51-3.06.16-.07h0l.39.9,1.14,1.73L23,23.51l-.58-.78.14-.12.6.78,1.55,1.38L23.3,23.22l-.77-.61h0a.76.76,0,0,0,.11-.14h0l.78.59,1.86.93-1.74-1.14-.9-.38a.49.49,0,0,0,.06-.17l.92.37,2,.42-2-.65-1-.14h0a.51.51,0,0,0,0-.17h0l1,.12,2.07-.12L23.71,22l-1,.12a1.13,1.13,0,0,0,0-.18l1-.14,2-.65-2,.42-.92.37a.77.77,0,0,0-.07-.16h0l.91-.39,1.74-1.14-1.86.93-.79.6a.53.53,0,0,0-.11-.14L23.3,21l1.38-1.55-1.55,1.38-.61.79h0a.49.49,0,0,0-.14-.11h0l.59-.8.94-1.85-1.14,1.73-.39.92a.68.68,0,0,0-.35-.09.67.67,0,0,0-.34.09l-.59-.8-.94-1.85,1.14,1.73.39.92h0a.49.49,0,0,0-.14.11h0l-.61-.79-1.56-1.38L20.77,21l.78.62a.53.53,0,0,0-.11.14l-.79-.6-1.86-.93,1.74,1.14.91.39h0a.46.46,0,0,0-.07.16h0l-.92-.37-2-.42,2,.65,1,.14a.57.57,0,0,0,0,.18l-1-.12-2.07.12,2.07.12,1-.12h0a1,1,0,0,0,0,.17h0l-1,.14-2,.65,2-.42.91-.37a.87.87,0,0,0,.07.17l-.9.38L18.79,24l1.86-.93.78-.59h0a.76.76,0,0,0,.11.14h0l-.77.61-1.39,1.55,1.56-1.38.6-.78a.81.81,0,0,0,.14.12l-.58.78-.94,1.85,1.14-1.73.39-.9h0l.16.07h0l-.36.9-.43,2,.66-2,.13-1,.18,0h0l.11,1L22,25.87l-.11-2.08.11-1h0l.17,0,.14,1,.65,2-.42-2-.36-.9Zm-.13,3.5a4.21,4.21,0,1,0-4.21-4.21,4.21,4.21,0,0,0,4.21,4.21Zm-1-7.8.43,2,.37.92-.14-1-.66-2Zm1-.13-.11,2.08.11,1,.12-1L22,18.37Zm1,.13-.65,2-.14,1,.37-.92.42-2Z"/></g></g></g><path class="cls-7" d="M43.39,17.37h1V25.3h-1Z"/><path class="cls-7" d="M50.62,21V25.3h-1V21.39c0-.95-.19-1.49-1.17-1.49a1.67,1.67,0,0,0-1.87,1.23V25.3h-1V19.13h1V20a2,2,0,0,1,2-1C50.16,19,50.62,19.85,50.62,21Z"/><path class="cls-7" d="M56.91,16.62V25.3h-.83l-.15-1a1.93,1.93,0,0,1-2,1.13c-2,0-2.54-1.31-2.54-3.2,0-1.69.5-3.19,2.54-3.19,1.21,0,1.76.47,2,1.18V16.62ZM56,22.21c0-1.41-.41-2.37-1.9-2.37S52.43,21,52.43,22.21s.19,2.37,1.64,2.37S56,23.69,56,22.21Z"/><path class="cls-7" d="M58,17.42c0-.51.16-.58.6-.58s.58.07.58.58S59,18,58.57,18,58,17.92,58,17.42Zm.09,1.71h1V25.3h-1Z"/><path class="cls-7" d="M65.11,20.92V25.3h-.84l-.15-.94a2.47,2.47,0,0,1-2.2,1.05c-1.47,0-2.12-.67-2.12-1.84,0-1.46,1-2,2.44-2h1.88V21.1c0-.75-.26-1.26-1.51-1.26a7.14,7.14,0,0,0-1.36.14v-.87a11.09,11.09,0,0,1,1.4-.09C64.59,19,65.11,19.82,65.11,20.92Zm-1,2.49v-1H62.31c-1,0-1.5.2-1.5,1.16,0,.67.33,1,1.2,1A2.14,2.14,0,0,0,64.12,23.41Z"/><path class="cls-7" d="M68.08,21.33c0-3,1.44-4.07,3.83-4.07a6.12,6.12,0,0,1,2.06.31v.91a5.78,5.78,0,0,0-2-.32c-1.77,0-2.8.61-2.8,3.17s1,3.19,2.76,3.19a5.74,5.74,0,0,0,1.29-.15V21.92H71.61v-.87h2.57v4a8,8,0,0,1-2.39.33C69.49,25.41,68.08,24.65,68.08,21.33Z"/><path class="cls-7" d="M78.26,19l0,.89h-.14a1.79,1.79,0,0,0-1.91,1.36v4h-1V19.13h1v1.12a1.88,1.88,0,0,1,2-1.23Z"/><path class="cls-7" d="M78,22.21c0-2.45,1-3.19,2.85-3.19s2.85.74,2.85,3.19-1,3.2-2.85,3.2S78,24.67,78,22.21Zm4.66,0c0-1.8-.46-2.37-1.81-2.37s-1.8.57-1.8,2.37.47,2.37,1.8,2.37S82.69,24,82.69,22.21Z"/><path class="cls-7" d="M89.45,19.13V25.3h-.83l-.12-.89a2,2,0,0,1-2,1c-1.61,0-2.06-.82-2.06-2V19.13h1V23c0,.93.21,1.5,1.19,1.5a1.63,1.63,0,0,0,1.81-1.22V19.13Z"/><path class="cls-7" d="M96.14,22.21c0,1.7-.48,3.2-2.55,3.2-1.19,0-1.74-.47-2-1.19v3.36h-1V19.13h1v1.11a1.83,1.83,0,0,1,2-1.22C95.66,19,96.14,20.33,96.14,22.21Zm-1,0c0-1.3-.21-2.37-1.64-2.37s-1.92.9-1.92,2.37.44,2.37,1.92,2.37S95.11,23.41,95.11,22.21Z"/></g></g></svg>