<svg xmlns="http://www.w3.org/2000/svg" viewBox="0 0 136 44"><defs><style>.cls-1{fill:#1e8bca;}.cls-2,.cls-6{fill:#fff;}.cls-2{opacity:0.4;}.cls-3,.cls-4{fill:#db4b35;}.cls-4{fill-rule:evenodd;}.cls-5{fill:#eee939;}</style></defs><title>资源 5</title><g id="图层_2" data-name="图层 2"><g id="图层_1-2" data-name="图层 1"><rect class="cls-1" width="136" height="44" rx="2"/><path class="cls-2" d="M125.47,39,129,22.44c.31-1.45-.53-2-1.49-1.67l-20.63,8c-1.41.55-1.39,1.34-.24,1.7l5.28,1.65,12.25-7.72c.57-.38,1.1-.16.67.22l-9.91,9L114.54,39a1.37,1.37,0,0,0,1.07-.52L118.19,36l5.35,3.94c1,.55,1.67.27,1.94-.9Z"/><g id="flags"><g id="turkey"><circle id="red" class="cls-3" cx="22.14" cy="22.17" r="15.27"/><path id="white" class="cls-4" d="M29.74,23.61l-1.18,1.21-.25-1.67L26.8,22.4l1.51-.74L28.56,20l1.18,1.21,1.66-.28-.78,1.49.78,1.5-1.66-.29Zm-3.29,2.27a7.64,7.64,0,1,1,0-7.41,5.94,5.94,0,1,0,0,7.41Z"/></g></g><path class="cls-5" d="M27.33,29.19c-1.16-.84-2.28-1.65-3.39-2.47-.48-.34-1-.69-1.44-1a.28.28,0,0,0-.38,0l-4.63,3.37-.18.13c0-.08,0-.13,0-.18q.89-2.71,1.78-5.43A.35.35,0,0,0,19,23.1c-1.54-1.1-3.07-2.22-4.6-3.33l-.18-.14h5.93a.34.34,0,0,0,.38-.28c.57-1.8,1.16-3.59,1.74-5.39l.08-.22a1.6,1.6,0,0,1,.08.2q.88,2.72,1.75,5.41a.33.33,0,0,0,.38.28h5.93l-.21.17c-1.52,1.1-3,2.21-4.57,3.3a.36.36,0,0,0-.16.49c.6,1.8,1.18,3.6,1.76,5.4C27.29,29,27.3,29.09,27.33,29.19Z"/><path class="cls-6" d="M43.61,19.15h.69l.82,2.75c.18.59.3,1.08.49,1.67h0c.19-.59.32-1.08.49-1.67l.81-2.75h.67L46,24.24h-.76Z"/><path class="cls-6" d="M50.38,21H48.63v-.52H51v3.77h-.64Zm-.26-1.81a.52.52,0,1,1,.51.5A.48.48,0,0,1,50.12,19.18Z"/><path class="cls-6" d="M53.12,22.35a1.89,1.89,0,0,1,1.92-2,1.61,1.61,0,0,1,1.72,1.76,2.13,2.13,0,0,1,0,.39H53.54V22h2.81l-.16.17c0-.89-.44-1.33-1.13-1.33a1.33,1.33,0,0,0-1.31,1.47,1.37,1.37,0,0,0,1.48,1.47,2,2,0,0,0,1.14-.36l.24.42a2.61,2.61,0,0,1-1.46.45A1.91,1.91,0,0,1,53.12,22.35Zm.72-2.76.87-1.09h.66l.87,1.09-.27.24L55.06,19h0l-.91.87Zm.69,5.82a.51.51,0,0,1,1,0,.51.51,0,0,1-1,0Z"/><path class="cls-6" d="M58.84,22.77V21H57.77v-.48l1.1,0L59,19.26h.54v1.21h1.84V21H59.49v1.79c0,.67.22,1,.95,1a2.49,2.49,0,0,0,.9-.17l.14.48a3.4,3.4,0,0,1-1.18.22C59.2,24.33,58.84,23.7,58.84,22.77Z"/><path class="cls-6" d="M67.19,19.15h.71l1.63,3.2.49,1h0c0-.5-.08-1.08-.08-1.61V19.15h.62v5.09h-.71L68.23,21,67.74,20h0c0,.52.09,1.06.09,1.59v2.66h-.62Z"/><path class="cls-6" d="M71.83,23.26c0-.84.79-1.26,2.73-1.41a.9.9,0,0,0-1-1,2.7,2.7,0,0,0-1.31.45L72,20.92a3.28,3.28,0,0,1,1.68-.54,1.4,1.4,0,0,1,1.54,1.55v2.31h-.54l0-.51h0a2.61,2.61,0,0,1-1.49.6A1.14,1.14,0,0,1,71.83,23.26Zm2.73,0v-1c-1.61.12-2.1.44-2.1.93s.39.6.83.6A2,2,0,0,0,74.56,23.25Z"/><path class="cls-6" d="M76.31,20.47h.51l.06.5h0a.94.94,0,0,1,.86-.59c.38,0,.61.21.72.65a1,1,0,0,1,.88-.65c.53,0,.84.41.84,1.16v2.7h-.64V21.59c0-.44-.12-.66-.4-.66s-.4.19-.6.58v2.73H78V21.59c0-.44-.11-.66-.39-.66s-.44.19-.62.58v2.73h-.64Z"/><path class="cls-6" d="M85.67,21.69A2.33,2.33,0,0,1,88,19.06a1.88,1.88,0,0,1,1.4.62l-.37.41a1.38,1.38,0,0,0-1-.46c-1,0-1.6.79-1.6,2.05S87,23.76,88,23.76a1.44,1.44,0,0,0,1.14-.56l.38.39a2,2,0,0,1-1.58.74C86.64,24.33,85.67,23.35,85.67,21.69Z"/><path class="cls-6" d="M90.29,22.36a1.86,1.86,0,1,1,3.72,0,1.86,1.86,0,1,1-3.72,0ZM91,19.59l.88-1.09h.65l.87,1.09-.27.24L92.17,19h0l-.92.87Zm2.4,2.77c0-.87-.48-1.45-1.2-1.45s-1.2.58-1.2,1.45.48,1.44,1.2,1.44S93.35,23.22,93.35,22.36Zm-1.71,3.05a.49.49,0,0,1,.51-.5.48.48,0,0,1,.51.5.47.47,0,0,1-.51.49A.48.48,0,0,1,91.64,25.41Z"/><path class="cls-6" d="M95.2,20.47h.53l0,.64h0a1.93,1.93,0,0,1,1.42-.73c.89,0,1.3.52,1.3,1.52v2.34h-.64V22c0-.71-.25-1.05-.86-1.05-.45,0-.75.23-1.19.68v2.63H95.2Z"/><path class="cls-6" d="M99.69,24.93a1.05,1.05,0,0,1,.62-.84v0a.69.69,0,0,1-.39-.62,1,1,0,0,1,.45-.71v0a1.19,1.19,0,0,1-.46-1,1.38,1.38,0,0,1,1.48-1.35,1.57,1.57,0,0,1,.56.09h1.56V21h-1a1.15,1.15,0,0,1,.32.76A1.32,1.32,0,0,1,101.39,23a1.55,1.55,0,0,1-.64-.14.54.54,0,0,0-.29.44c0,.29.29.43.78.43h.85c1,0,1.43.25,1.43.89S102.71,26,101.43,26C100.33,26,99.69,25.59,99.69,24.93Zm3.2-.17c0-.36-.28-.46-.86-.46h-.73a2.52,2.52,0,0,1-.58-.06c-.35.19-.48.41-.48.63,0,.39.43.64,1.24.64S102.89,25.14,102.89,24.76Zm-.63-3a.87.87,0,1,0-.87.89A.86.86,0,0,0,102.26,21.73Z"/><path class="cls-6" d="M109.05,19.15h.66v2.13h2.11V19.15h.66v5.09h-.66V21.85h-2.11v2.39h-.66Z"/><path class="cls-6" d="M113.56,22.36a1.86,1.86,0,1,1,3.72,0,1.86,1.86,0,1,1-3.72,0Zm3.06,0c0-.87-.48-1.45-1.2-1.45s-1.2.58-1.2,1.45.48,1.44,1.2,1.44S116.62,23.22,116.62,22.36Zm-2.25-3.71.45-.44,1.1,1.31-.33.31Z"/><path class="cls-6" d="M118.37,23.26c0-.84.79-1.26,2.74-1.41a.9.9,0,0,0-1-1,2.7,2.7,0,0,0-1.32.45l-.26-.43a3.32,3.32,0,0,1,1.69-.54,1.4,1.4,0,0,1,1.53,1.55v2.31h-.53l-.06-.51h0a2.55,2.55,0,0,1-1.48.6C119,24.33,118.37,23.94,118.37,23.26Zm2.74,0v-1c-1.61.12-2.1.44-2.1.93s.38.6.82.6A2,2,0,0,0,121.11,23.25Z"/></g></g></svg>