<?xml version="1.0" encoding="iso-8859-1"?>
<!-- Generator: Adobe Illustrator 24.0.0, SVG Export Plug-In . SVG Version: 6.00 Build 0)  -->
<svg version="1.1" id="&#x56FE;&#x5C42;_1" xmlns="http://www.w3.org/2000/svg" xmlns:xlink="http://www.w3.org/1999/xlink" x="0px"
	 y="0px" viewBox="0 0 68 62.5" style="enable-background:new 0 0 68 62.5;" xml:space="preserve">
<g>
	<path style="fill:#1E8BCA;" d="M44.639,43.489c0-6.941,5.627-12.569,12.569-12.569c1.602,0,3.132,0.303,4.541,0.849
		c0.003-0.174,0.013-0.345,0.013-0.52c0-16.847-13.657-30.504-30.504-30.504C14.41,0.746,0.752,14.403,0.752,31.25
		S14.41,61.754,31.257,61.754c7.558,0,14.469-2.755,19.797-7.307C47.226,52.293,44.639,48.195,44.639,43.489z"/>
	<path style="fill:#FFFFFF;" d="M40.844,45.923l5.06-23.853c0.447-2.099-0.758-2.925-2.134-2.41L14.03,31.122
		c-2.031,0.791-1.996,1.928-0.344,2.443l7.607,2.375l17.658-11.118c0.826-0.551,1.584-0.24,0.965,0.311L25.633,38.039l-0.551,7.849
		c0.791,0,1.137-0.344,1.549-0.758l3.716-3.58l7.71,5.679c1.412,0.791,2.41,0.379,2.789-1.309L40.844,45.923z"/>
	<g id="Page-1_8_">
		<g id="flags_8_" transform="translate(-180.000000, -6120.000000)">
			<g id="turkey_7_" transform="translate(180.000000, 6120.000000)">
				<circle id="red_9_" style="fill-rule:evenodd;clip-rule:evenodd;fill:#03743C;" cx="57.297" cy="43.747" r="9.951"/>
				<path id="white_10_" style="fill-rule:evenodd;clip-rule:evenodd;fill:#03743C;" d="M62.246,44.686l-0.769,0.789l-0.158-1.09
					l-0.988-0.487l0.988-0.487l0.158-1.09l0.769,0.789l1.086-0.186l-0.513,0.975l0.513,0.975L62.246,44.686L62.246,44.686z
					 M60.101,46.161c-0.849,1.528-2.48,2.562-4.352,2.562c-2.748,0-4.976-2.228-4.976-4.976s2.228-4.976,4.976-4.976
					c1.872,0,3.503,1.034,4.352,2.562c-0.709-0.888-1.801-1.456-3.025-1.456c-2.137,0-3.87,1.733-3.87,3.87s1.733,3.87,3.87,3.87
					C58.3,47.617,59.392,47.048,60.101,46.161C60.101,46.161,59.392,47.048,60.101,46.161L60.101,46.161z"/>
			</g>
		</g>
	</g>
	<g>
		<path style="fill:#FFFFFF;" d="M53.761,44.164c-0.196,0.078-0.385,0.158-0.578,0.228c-0.202,0.074-0.405,0.142-0.611,0.204
			c-0.073,0.022-0.153,0.016-0.23,0.023c-0.005-0.013-0.011-0.026-0.016-0.04c0.038-0.043,0.07-0.096,0.115-0.128
			c0.245-0.175,0.491-0.349,0.741-0.517c0.175-0.117,0.356-0.228,0.539-0.333c0.083-0.048,0.116-0.114,0.141-0.201
			c0.037-0.127,0.084-0.253,0.139-0.373c0.026-0.058,0.079-0.104,0.12-0.156c0.011,0.005,0.023,0.01,0.034,0.015
			c-0.01,0.125-0.02,0.251-0.033,0.409c0.06-0.045,0.101-0.071,0.137-0.102c0.162-0.142,0.329-0.279,0.481-0.431
			c0.179-0.178,0.197-0.369,0.065-0.586c-0.046-0.076-0.106-0.148-0.171-0.209c-0.163-0.154-0.174-0.341-0.117-0.536
			c0.054-0.187,0.264-0.251,0.415-0.129c0.173,0.14,0.26,0.333,0.315,0.567c-0.074-0.008-0.127-0.013-0.16-0.017
			c0.043,0.161,0.089,0.324,0.13,0.488c0.054,0.216,0.002,0.418-0.092,0.612c-0.179,0.369-0.467,0.635-0.808,0.851
			c-0.068,0.043-0.154,0.079-0.112,0.187c0.038,0.098,0.109,0.165,0.216,0.147c0.128-0.021,0.278-0.031,0.374-0.104
			c0.221-0.167,0.424-0.362,0.62-0.559c0.258-0.259,0.309-0.584,0.215-0.923c-0.096-0.347-0.221-0.685-0.335-1.027
			c-0.062-0.187-0.027-0.35,0.116-0.452c0.029-0.021,0.099-0.021,0.128,0c0.05,0.036,0.091,0.092,0.121,0.147
			c0.211,0.392,0.332,0.809,0.358,1.255c0.003,0.056,0.026,0.11,0.046,0.189c0.304-0.449,0.74-0.597,1.21-0.678
			c0.094-0.016,0.131-0.06,0.131-0.155c0-0.124-0.004-0.252,0.026-0.371c0.061-0.244,0.297-0.422,0.494-0.397
			c0.303,0.038,0.504,0.236,0.524,0.515c0.024,0.341-0.12,0.608-0.44,0.745c-0.183,0.079-0.386,0.112-0.58,0.166
			c-0.031,0.009-0.063,0.014-0.095,0.021c0,0.011-0.001,0.022-0.001,0.033c0.041,0.006,0.083,0.016,0.124,0.016
			c0.457,0.002,0.914,0.001,1.371,0.004c0.064,0.001,0.127,0.023,0.165,0.031c-0.074,0.208-0.139,0.397-0.211,0.582
			c-0.014,0.036-0.057,0.076-0.093,0.084c-0.348,0.075-0.698,0.144-1.048,0.212c-0.084,0.016-0.176,0.006-0.255,0.034
			c-0.085,0.031-0.172,0.081-0.234,0.146c-0.086,0.09-0.071,0.193,0.031,0.267c0.097,0.07,0.205,0.127,0.312,0.18
			c0.11,0.054,0.155,0.132,0.12,0.251c-0.039,0.132-0.1,0.17-0.238,0.153c-0.384-0.049-0.758-0.135-1.067-0.383
			c-0.128-0.103-0.232-0.239-0.335-0.371c-0.074-0.095-0.105-0.108-0.187-0.015c-0.149,0.168-0.279,0.355-0.447,0.501
			c-0.176,0.153-0.375,0.293-0.586,0.392c-0.382,0.181-0.807-0.007-0.967-0.397C53.784,44.212,53.775,44.194,53.761,44.164z
			 M56.334,42.964c-0.137-0.014-0.208,0.068-0.18,0.203c0.056,0.278,0.23,0.464,0.465,0.601c0.03,0.018,0.091,0.034,0.103,0.021
			c0.024-0.028,0.036-0.077,0.033-0.116c-0.016-0.271,0.026-0.336,0.273-0.436c0.05-0.02,0.089-0.067,0.132-0.102
			c-0.054-0.035-0.104-0.091-0.161-0.1C56.778,43.004,56.556,42.987,56.334,42.964z M57.98,41.779
			c0.003-0.015,0.007-0.03,0.01-0.045c-0.061-0.038-0.12-0.081-0.185-0.11c-0.015-0.007-0.052,0.033-0.079,0.052
			c0.058,0.045,0.113,0.093,0.174,0.131C57.916,41.816,57.953,41.79,57.98,41.779z"/>
		<path style="fill:#FFFFFF;" d="M61.427,49.238c-0.145-0.246-0.102-0.384,0.119-0.461c0.072,0.143,0.361,0.194,0.154,0.447
			c0.233,0.013,0.436,0.033,0.64,0.035c0.257,0.002,0.514-0.009,0.771-0.018c0.146-0.005,0.265,0.044,0.343,0.167
			c0.139,0.221,0.186,0.463,0.121,0.717c-0.068,0.267-0.361,0.343-0.559,0.151c-0.02-0.02-0.057-0.03-0.087-0.031
			c-0.362-0.004-0.724-0.006-1.086-0.004c-0.045,0-0.096,0.024-0.132,0.052c-0.102,0.082-0.177,0.076-0.243-0.037
			c-0.092-0.156-0.102-0.326-0.059-0.517c-0.06,0-0.114,0-0.168,0c-2.764,0.007-5.529,0.015-8.293,0.02
			c-0.311,0.001-0.62-0.02-0.917-0.126c-0.262-0.094-0.473-0.251-0.623-0.479C54.744,49.181,58.075,49.21,61.427,49.238z
			 M62.326,49.811c0-0.008,0-0.015,0-0.023c-0.177,0-0.354-0.004-0.53,0.004c-0.031,0.001-0.086,0.052-0.084,0.077
			c0.002,0.039,0.045,0.11,0.068,0.108c0.17-0.009,0.346,0.07,0.511-0.05c0.048-0.035,0.165-0.041,0.206-0.007
			c0.112,0.094,0.234,0.063,0.352,0.063c0.032,0,0.082-0.048,0.094-0.084c0.02-0.063-0.023-0.09-0.088-0.09
			C62.679,49.812,62.502,49.811,62.326,49.811z"/>
		<path style="fill:#FFFFFF;" d="M65.126,43.694c-0.173-0.29-0.346-0.579-0.519-0.869c-0.012,0-0.025-0.001-0.037-0.001
			c0.061,0.409-0.034,0.752-0.407,1.021c0-0.079,0.001-0.128,0-0.177c-0.018-0.521-0.037-1.041-0.057-1.562
			c-0.001-0.032-0.013-0.069-0.031-0.096c-0.105-0.157-0.214-0.312-0.343-0.499c0,0.072,0,0.111,0,0.15
			c0.007,0.534,0.017,1.069,0.019,1.603c0.001,0.338-0.095,0.63-0.43,0.789c-0.142,0.067-0.287,0.077-0.419-0.009
			c-0.125-0.082-0.245-0.175-0.353-0.277c-0.122-0.116-0.226-0.116-0.292,0.036c-0.052,0.121-0.066,0.257-0.113,0.381
			c-0.057,0.15-0.117,0.303-0.204,0.436c-0.069,0.105-0.191,0.12-0.314,0.064c-0.522-0.236-0.742-1.042-0.412-1.511
			c0.007-0.01,0.019-0.017,0.051-0.045c0,0.088,0.002,0.157,0,0.226c-0.009,0.242,0.029,0.475,0.164,0.679
			c0.045,0.068,0.136,0.14,0.208,0.142c0.057,0.002,0.137-0.09,0.173-0.159c0.11-0.214,0.197-0.439,0.306-0.654
			c0.05-0.098,0.119-0.191,0.196-0.271c0.122-0.126,0.244-0.111,0.347,0.031c0.066,0.09,0.125,0.186,0.192,0.276
			c0.059,0.079,0.118,0.166,0.239,0.143c0.115-0.022,0.146-0.118,0.162-0.21c0.034-0.19,0.082-0.382,0.075-0.572
			c-0.022-0.624-0.064-1.247-0.104-1.87c-0.004-0.059-0.041-0.122-0.078-0.171c-0.22-0.287-0.44-0.575-0.67-0.855
			c-0.23-0.279-0.151-0.587-0.121-0.926c0.272,0.145,0.441,0.362,0.649,0.576c-0.006-0.101-0.014-0.173-0.012-0.244
			c0.002-0.055,0.003-0.117,0.029-0.161c0.036-0.06,0.095-0.105,0.145-0.157c0.045,0.048,0.1,0.089,0.132,0.144
			c0.116,0.202,0.223,0.408,0.334,0.612c0.006,0.011,0.017,0.022,0.019,0.034c0.007,0.057,0.024,0.118,0.01,0.17
			c-0.005,0.017-0.091,0.013-0.128,0.017c-0.086,0.497,0.143,0.894,0.483,1.27c-0.096-0.557-0.191-1.096-0.283-1.636
			c-0.032-0.187-0.077-0.375,0.092-0.531c0.118-0.109,0.182-0.114,0.245,0.029c0.118,0.266,0.221,0.54,0.323,0.813
			c0.027,0.072,0.022,0.145-0.085,0.163c-0.104,0.018-0.059,0.104-0.051,0.157c0.03,0.204,0.074,0.406,0.105,0.61
			c0.052,0.34,0.093,0.681,0.15,1.02c0.017,0.102,0.055,0.207,0.109,0.295c0.159,0.256,0.345,0.496,0.496,0.756
			c0.151,0.259,0.105,0.541,0.059,0.816C65.157,43.692,65.142,43.693,65.126,43.694z M62.876,39.649
			c0.062,0.074,0.107,0.127,0.151,0.181c0.007-0.005,0.014-0.009,0.021-0.014c-0.011-0.066-0.022-0.131-0.035-0.203
			C62.972,39.624,62.94,39.632,62.876,39.649z"/>
		<path style="fill:#FFFFFF;" d="M52.235,39.91c-0.023-0.166-0.045-0.332-0.071-0.498c-0.019-0.117,0.012-0.215,0.107-0.285
			c0.146-0.108,0.263-0.091,0.337,0.073c0.107,0.238,0.193,0.487,0.287,0.731c0.036,0.093-0.03,0.115-0.097,0.126
			c-0.036,0.006-0.075-0.005-0.122-0.009c0,0.035-0.003,0.065,0,0.093c0.062,0.472,0.125,0.944,0.188,1.423
			c0.037-0.014,0.065-0.024,0.093-0.034c0.135-0.046,0.203,0.001,0.21,0.148c0.003,0.069-0.011,0.149,0.088,0.157
			c0.085,0.007,0.161-0.011,0.201-0.103c0.023-0.055,0.053-0.109,0.09-0.156c0.113-0.141,0.244-0.121,0.318,0.042
			c0.019,0.042,0.056,0.076,0.085,0.113c0.024-0.044,0.059-0.085,0.069-0.132c0.038-0.167,0.086-0.208,0.327-0.237
			c-0.038,0.248-0.056,0.492-0.116,0.727c-0.047,0.184-0.314,0.266-0.502,0.163c-0.113-0.062-0.18-0.042-0.271,0.036
			c-0.185,0.159-0.337,0.16-0.597,0.019c0.011,0.14,0.02,0.269,0.031,0.398c0.055,0.654-0.168,1.183-0.712,1.563
			c-0.391,0.273-0.819,0.433-1.303,0.423c-0.533-0.011-0.887-0.347-0.902-0.877c-0.005-0.18,0.019-0.36,0.031-0.541
			c0.002-0.029,0.007-0.064,0.024-0.086c0.043-0.057,0.093-0.109,0.14-0.163c0.034,0.06,0.085,0.116,0.097,0.181
			c0.026,0.13,0.035,0.264,0.046,0.397c0.033,0.417,0.35,0.549,0.667,0.561c0.773,0.031,1.394-0.496,1.532-1.288
			c0.02-0.114,0.032-0.23,0.042-0.346c0.003-0.038-0.009-0.078-0.014-0.118c-0.017-0.004-0.034-0.008-0.051-0.012
			c-0.024,0.06-0.058,0.119-0.07,0.181c-0.089,0.473-0.272,0.891-0.687,1.168c-0.287,0.191-0.6,0.26-0.933,0.127
			c-0.326-0.129-0.527-0.463-0.496-0.843c0.016-0.186,0.069-0.37,0.114-0.553c0.009-0.037,0.058-0.065,0.088-0.096
			c0.032,0.036,0.087,0.068,0.093,0.107c0.027,0.17,0.043,0.341,0.058,0.513c0.022,0.259,0.209,0.424,0.465,0.381
			c0.371-0.064,0.681-0.24,0.898-0.555c0.067-0.097,0.129-0.203,0.095-0.352c-0.059,0.036-0.11,0.064-0.157,0.097
			c-0.117,0.081-0.247,0.097-0.382,0.072c-0.157-0.03-0.25-0.136-0.25-0.297c0.001-0.133,0.002-0.269,0.031-0.397
			c0.05-0.222,0.196-0.372,0.414-0.438c0.148-0.045,0.281,0.001,0.388,0.113c0.047,0.05,0.086,0.11,0.139,0.153
			c0.035,0.029,0.101,0.061,0.13,0.046c0.041-0.021,0.085-0.085,0.083-0.129c-0.006-0.145-0.03-0.29-0.052-0.434
			c-0.068-0.442-0.137-0.883-0.207-1.325c-0.002-0.012-0.012-0.022-0.019-0.033C52.233,39.906,52.235,39.91,52.235,39.91z
			 M51.821,42.234c0.043-0.065,0.097-0.112,0.091-0.148c-0.008-0.042-0.09-0.113-0.102-0.106c-0.055,0.033-0.096,0.087-0.143,0.134
			C51.709,42.147,51.752,42.18,51.821,42.234z"/>
		<path style="fill:#FFFFFF;" d="M52.233,39.906c-0.04,0.039-0.081,0.077-0.127,0.122c0.044,0.197,0.101,0.421,0.143,0.647
			c0.071,0.385-0.274,0.74-0.663,0.676c-0.075-0.012-0.138-0.081-0.212-0.113c-0.07-0.031-0.146-0.049-0.22-0.072
			c-0.023,0.074-0.067,0.149-0.065,0.222c0.006,0.219,0.047,0.438,0.042,0.657c-0.006,0.26-0.03,0.523-0.078,0.779
			c-0.034,0.181-0.128,0.234-0.27,0.225c-0.018-0.377-0.036-0.754-0.054-1.132c-0.003-0.06-0.001-0.121-0.006-0.181
			c-0.013-0.138-0.068-0.189-0.207-0.197c-0.246-0.014-0.382-0.158-0.382-0.407c-0.001-0.241,0.001-0.483-0.001-0.724
			c0-0.045-0.012-0.089-0.02-0.151c-0.14,0.096-0.139,0.228-0.149,0.353c-0.013,0.154-0.013,0.31-0.029,0.464
			c-0.021,0.19-0.108,0.295-0.249,0.32c-0.127,0.023-0.266-0.063-0.343-0.223c-0.123-0.256-0.123-0.534-0.128-0.809
			c-0.002-0.138,0.008-0.276,0.018-0.413c0.003-0.034,0.027-0.066,0.042-0.098c0.029,0.026,0.076,0.048,0.084,0.08
			c0.042,0.162,0.073,0.327,0.112,0.49c0.029,0.121,0.061,0.241,0.1,0.359c0.01,0.03,0.052,0.07,0.077,0.069
			c0.026-0.001,0.066-0.043,0.074-0.074c0.039-0.162,0.058-0.331,0.108-0.489c0.054-0.17,0.126-0.336,0.207-0.495
			c0.043-0.085,0.129-0.146,0.237-0.12c0.111,0.027,0.144,0.13,0.148,0.221c0.009,0.235-0.004,0.471-0.001,0.707
			c0.001,0.074,0.017,0.151,0.043,0.22c0.011,0.03,0.065,0.045,0.099,0.067c0.021-0.034,0.061-0.069,0.06-0.103
			c-0.005-0.146-0.014-0.292-0.036-0.436c-0.036-0.238-0.091-0.473-0.123-0.711c-0.019-0.136-0.021-0.276-0.006-0.412
			c0.007-0.058,0.067-0.131,0.121-0.155c0.035-0.015,0.127,0.033,0.153,0.077c0.051,0.086,0.092,0.187,0.106,0.286
			c0.036,0.268,0.053,0.539,0.082,0.808c0.012,0.111,0.031,0.222,0.059,0.329c0.013,0.049,0.053,0.091,0.081,0.134
			c0.107-0.051,0.071-0.109,0.041-0.168c-0.117-0.231-0.178-0.475-0.161-0.735c0.004-0.068,0.012-0.14,0.037-0.201
			c0.019-0.046,0.067-0.106,0.106-0.109c0.048-0.004,0.116,0.032,0.148,0.073c0.195,0.243,0.241,0.528,0.194,0.828
			c-0.013,0.085,0.002,0.139,0.067,0.19c0.078,0.061,0.149,0.133,0.232,0.185c0.042,0.026,0.111,0.037,0.155,0.021
			c0.026-0.009,0.049-0.09,0.039-0.13c-0.027-0.111-0.057-0.225-0.113-0.323c-0.115-0.2-0.218-0.4-0.221-0.638
			c-0.001-0.108,0.037-0.197,0.133-0.248c0.097-0.052,0.198-0.019,0.258,0.056c0.099,0.126,0.176,0.269,0.263,0.405
			C52.235,39.91,52.233,39.906,52.233,39.906z"/>
		<path style="fill:#FFFFFF;" d="M57.879,39.418c-0.011-0.102-0.031-0.205-0.031-0.307c0-0.215,0.107-0.282,0.286-0.161
			c0.17,0.115,0.318,0.262,0.475,0.397c0.015,0.013,0.019,0.038,0.041,0.05c0.04-0.173,0.042-0.346,0.222-0.461
			c0.236,0.338,0.515,0.645,0.577,1.087c-0.029,0-0.048,0.001-0.066,0c-0.016-0.002-0.032-0.007-0.054-0.012
			c-0.002,0.036-0.007,0.066-0.004,0.095c0.023,0.205,0.041,0.411,0.075,0.614c0.016,0.093,0.055,0.187,0.102,0.27
			c0.306,0.538,0.625,1.07,0.924,1.613c0.127,0.231,0.096,0.493,0.055,0.746c-0.003,0.021-0.014,0.041-0.025,0.059
			c-0.006,0.01-0.019,0.016-0.033,0.026c-0.304-0.548-0.606-1.095-0.909-1.641c-0.008,0.004-0.016,0.008-0.024,0.013
			c0,0.153-0.002,0.306,0,0.459c0.006,0.422,0.021,0.844,0.017,1.266c-0.002,0.206-0.103,0.38-0.257,0.517
			c-0.038,0.034-0.093,0.051-0.156,0.084c0-0.114-0.004-0.203,0.001-0.292c0.048-0.94-0.001-1.877-0.114-2.811
			c-0.006-0.052-0.034-0.107-0.066-0.151c-0.296-0.419-0.594-0.836-0.891-1.253c-0.05-0.07-0.098-0.14-0.147-0.211
			C57.876,39.414,57.879,39.418,57.879,39.418z M58.778,39.952c-0.031-0.27-0.035-0.275-0.163-0.219
			C58.663,39.799,58.71,39.862,58.778,39.952z"/>
		<path style="fill:#FFFFFF;" d="M57.876,39.414c-0.003,0.163-0.003,0.163-0.219,0.192c-0.003,0.014-0.012,0.031-0.008,0.045
			c0.055,0.207,0.106,0.416,0.17,0.62c0.041,0.13,0.203,0.17,0.348,0.1c0.012-0.006,0.021-0.016,0.033-0.02
			c0.064-0.021,0.129-0.04,0.193-0.06c-0.005,0.072,0.01,0.154-0.019,0.214c-0.053,0.111-0.123,0.218-0.205,0.308
			c-0.035,0.039-0.119,0.033-0.181,0.047c-0.006-0.058-0.011-0.116-0.017-0.174c-0.001-0.013,0-0.026,0-0.079
			c-0.065,0.034-0.125,0.05-0.16,0.089c-0.046,0.049-0.078,0.114-0.106,0.177c-0.082,0.183-0.24,0.215-0.416,0.223
			c-0.167,0.007-0.274-0.073-0.35-0.216c-0.083-0.156-0.18-0.169-0.305-0.048c-0.053,0.051-0.105,0.102-0.155,0.156
			c-0.144,0.153-0.312,0.224-0.523,0.161c-0.222-0.066-0.328-0.231-0.36-0.444c-0.023-0.157-0.02-0.317-0.03-0.476
			c-0.002-0.036-0.008-0.072-0.013-0.107c-0.015-0.004-0.03-0.007-0.046-0.011c-0.029,0.071-0.061,0.141-0.085,0.213
			c-0.053,0.159-0.094,0.321-0.152,0.477c-0.099,0.267-0.378,0.225-0.51,0.076c-0.151-0.17-0.225-0.375-0.27-0.592
			c-0.053-0.257-0.047-0.514,0.035-0.765c0.011-0.035,0.044-0.064,0.067-0.096c0.025,0.032,0.066,0.06,0.074,0.095
			c0.048,0.222,0.084,0.447,0.134,0.669c0.019,0.086,0.051,0.174,0.095,0.25c0.054,0.092,0.108,0.084,0.153-0.016
			c0.024-0.054,0.032-0.116,0.055-0.171c0.104-0.249,0.207-0.498,0.32-0.743c0.028-0.06,0.079-0.119,0.134-0.154
			c0.059-0.038,0.149-0.081,0.203-0.06c0.056,0.021,0.115,0.113,0.12,0.177c0.018,0.249,0.019,0.499,0.018,0.748
			c-0.001,0.224,0.16,0.396,0.364,0.377c0.124-0.012,0.305-0.223,0.312-0.373c0.012-0.255,0.005-0.506-0.097-0.749
			c-0.097-0.233,0.01-0.43,0.147-0.608c0.062-0.081,0.106-0.017,0.142,0.046c0.126,0.222,0.132,0.468,0.15,0.713
			c0.015,0.21,0.034,0.42,0.058,0.629c0.007,0.059,0.03,0.117,0.054,0.172c0.041,0.095,0.108,0.157,0.221,0.139
			c0.121-0.019,0.203-0.109,0.206-0.228c0.007-0.244-0.097-0.454-0.224-0.649c-0.12-0.184-0.104-0.37-0.045-0.557
			c0.058-0.183,0.305-0.238,0.432-0.095c0.101,0.114,0.175,0.253,0.261,0.381C57.879,39.418,57.876,39.414,57.876,39.414z"/>
		<path style="fill:#FFFFFF;" d="M65.054,38.945c0.173,0.269,0.344,0.516,0.494,0.775c0.087,0.151-0.068,0.133-0.167,0.168
			c0.01,0.096,0.013,0.197,0.032,0.295c0.164,0.827,0.207,1.664,0.209,2.505c0.001,0.302,0.012,0.604-0.008,0.905
			c-0.044,0.681-0.352,1.083-1.078,1.176c-0.072,0.009-0.146,0.029-0.217,0.022c-0.054-0.005-0.138-0.034-0.147-0.07
			c-0.014-0.049,0.014-0.131,0.053-0.167c0.077-0.072,0.168-0.141,0.265-0.179c0.272-0.106,0.492-0.275,0.633-0.525
			c0.071-0.125,0.131-0.282,0.123-0.42c-0.036-0.704-0.085-1.409-0.151-2.111c-0.056-0.59-0.148-1.177-0.215-1.766
			C64.856,39.344,64.893,39.142,65.054,38.945z"/>
		<path style="fill:#FFFFFF;" d="M60.461,38.998c0.178,0.282,0.316,0.556,0.38,0.861c0.007,0.033-0.04,0.108-0.072,0.115
			c-0.096,0.02-0.105,0.08-0.095,0.152c0.034,0.234,0.077,0.466,0.107,0.7c0.046,0.367,0.095,0.734,0.121,1.103
			c0.025,0.365,0.008,0.733,0.033,1.098c0.037,0.542-0.214,0.963-0.541,1.354c-0.174,0.208-0.401,0.337-0.675,0.37
			c-0.179,0.021-0.346-0.098-0.393-0.288c0.067-0.032,0.137-0.063,0.204-0.099c0.372-0.193,0.685-0.462,0.971-0.764
			c0.128-0.135,0.094-0.308,0.081-0.469c-0.046-0.588-0.094-1.176-0.152-1.762c-0.049-0.501-0.111-1-0.17-1.5
			c-0.031-0.262-0.014-0.516,0.118-0.751C60.399,39.082,60.425,39.05,60.461,38.998z"/>
		<path style="fill:#FFFFFF;" d="M61.137,38.966c0.185,0.323,0.352,0.612,0.516,0.904c0.043,0.078,0.018,0.127-0.078,0.115
			c-0.114-0.013-0.134,0.05-0.12,0.142c0.091,0.621,0.194,1.24,0.27,1.863c0.049,0.401,0.068,0.806,0.086,1.21
			c0.01,0.217-0.081,0.411-0.201,0.589c-0.029,0.043-0.078,0.073-0.139,0.129c-0.009-0.062-0.019-0.093-0.018-0.123
			c0.026-1.026-0.144-2.031-0.332-3.034c-0.061-0.325-0.142-0.649-0.165-0.977c-0.015-0.217,0.052-0.44,0.09-0.659
			C61.055,39.074,61.098,39.031,61.137,38.966z"/>
		<path style="fill:#FFFFFF;" d="M54.386,39.686c-0.265,0.267-0.519,0.535-0.789,0.786c-0.059,0.055-0.174,0.058-0.266,0.066
			c-0.102,0.008-0.205-0.006-0.344-0.012c0.057-0.061,0.088-0.103,0.127-0.135c0.262-0.217,0.528-0.428,0.787-0.648
			c0.132-0.113,0.126-0.124-0.007-0.233c-0.118-0.098-0.118-0.306,0.001-0.424c0.085-0.085,0.325-0.093,0.41-0.015
			c0.105,0.097,0.106,0.281,0.002,0.395C54.241,39.537,54.241,39.537,54.386,39.686z M54.03,39.288
			c-0.025,0.082-0.006,0.145,0.075,0.176c0.014,0.005,0.062-0.03,0.062-0.046C54.168,39.335,54.129,39.283,54.03,39.288z"/>
		<path style="fill:#FFFFFF;" d="M62.6,41.545c-0.058-0.021-0.105-0.025-0.134-0.051c-0.16-0.141-0.328-0.277-0.466-0.438
			c-0.051-0.059-0.044-0.187-0.026-0.276c0.009-0.045,0.098-0.089,0.158-0.102c0.039-0.008,0.091,0.04,0.135,0.067
			c0.037,0.023,0.07,0.051,0.105,0.077c0.01-0.038,0.03-0.077,0.028-0.115c-0.01-0.161,0.036-0.246,0.153-0.268
			c0.122-0.023,0.201,0.037,0.248,0.187c0.009,0.029,0.017,0.058,0.022,0.087c0.008,0.05,0.013,0.1,0.021,0.161
			c-0.036,0.003-0.065,0.011-0.092,0.006c-0.082-0.015-0.108,0.026-0.113,0.099C62.627,41.161,62.614,41.34,62.6,41.545z"/>
		<path style="fill:#FFFFFF;" d="M50.688,41.995c-0.457,0.219-0.909,0.436-1.361,0.652c-0.009-0.006-0.018-0.012-0.027-0.017
			c0.019-0.052,0.029-0.11,0.058-0.157c0.214-0.354,0.521-0.593,0.918-0.703C50.509,41.705,50.615,41.768,50.688,41.995z"/>
		<path style="fill:#FFFFFF;" d="M49.412,43.249c-0.004,0.312-0.07,0.62,0.023,0.964c0.048-0.06,0.07-0.095,0.099-0.121
			c0.029-0.026,0.072-0.066,0.099-0.06c0.033,0.007,0.068,0.053,0.082,0.09c0.047,0.122-0.06,0.418-0.171,0.489
			c-0.125,0.08-0.332-0.006-0.383-0.172c-0.072-0.232-0.049-0.467,0.008-0.7C49.213,43.559,49.278,43.389,49.412,43.249z"/>
		<path style="fill:#FFFFFF;" d="M62.183,42.469c-0.08-0.188-0.058-0.29,0.072-0.384c0.237-0.172,0.476-0.342,0.714-0.512
			c0.031-0.022,0.064-0.039,0.104-0.064c0.077,0.123,0.087,0.255,0.001,0.343C62.821,42.113,62.513,42.3,62.183,42.469z"/>
		<path style="fill:#FFFFFF;" d="M58.154,44.27c0.001-0.087,0.008-0.176-0.13-0.13c-0.025,0.008-0.073-0.006-0.088-0.026
			c-0.016-0.022-0.019-0.079-0.003-0.094c0.09-0.084,0.179-0.176,0.285-0.234c0.089-0.049,0.156,0.029,0.133,0.136
			c-0.007,0.034-0.023,0.068-0.019,0.101c0.005,0.044,0.014,0.097,0.042,0.126c0.014,0.015,0.074-0.012,0.112-0.022
			c0.103-0.027,0.204-0.066,0.309-0.078c0.036-0.004,0.1,0.051,0.111,0.09c0.008,0.028-0.042,0.095-0.08,0.111
			c-0.15,0.063-0.306,0.111-0.459,0.168C58.21,44.476,58.149,44.436,58.154,44.27z"/>
		<path style="fill:#FFFFFF;" d="M64.039,44.311c0.062,0.005,0.112,0.004,0.16,0.013c0.031,0.006,0.078,0.022,0.084,0.044
			c0.009,0.031-0.001,0.093-0.022,0.103c-0.159,0.079-0.321,0.153-0.487,0.216c-0.028,0.011-0.1-0.025-0.112-0.056
			c-0.012-0.031,0.019-0.084,0.042-0.121c0.017-0.028,0.05-0.047,0.075-0.07c0.123-0.11,0.12-0.129-0.005-0.234
			c-0.032-0.027-0.058-0.088-0.052-0.128c0.005-0.033,0.056-0.067,0.095-0.086c0.028-0.014,0.067-0.008,0.102-0.008
			c0.203,0,0.241,0.059,0.154,0.239C64.062,44.246,64.055,44.27,64.039,44.311z"/>
		<path style="fill:#FFFFFF;" d="M62.94,42.917c-0.03-0.11-0.061-0.22-0.091-0.33c-0.026-0.095-0.071-0.189-0.073-0.285
			c-0.001-0.057,0.053-0.13,0.104-0.166c0.024-0.017,0.125,0.021,0.145,0.059c0.14,0.259,0.187,0.533,0.075,0.817
			c-0.014,0.035-0.037,0.07-0.065,0.095c-0.022,0.02-0.058,0.025-0.088,0.037c-0.01-0.026-0.027-0.052-0.029-0.079
			c-0.005-0.047-0.001-0.095-0.001-0.142C62.925,42.921,62.933,42.919,62.94,42.917z"/>
		<path style="fill:#FFFFFF;" d="M56.641,41.433c0.095-0.175,0.095-0.175,0.231-0.001c0.01-0.039,0.009-0.077,0.028-0.098
			c0.025-0.028,0.066-0.059,0.1-0.059c0.024,0,0.063,0.044,0.072,0.075c0.053,0.182,0.029,0.282-0.072,0.347
			c-0.12,0.077-0.378,0.074-0.479-0.005c-0.084-0.066-0.128-0.245-0.077-0.342c0.016-0.03,0.053-0.066,0.082-0.067
			c0.025-0.001,0.055,0.04,0.078,0.067C56.617,41.368,56.623,41.393,56.641,41.433z"/>
		<path style="fill:#FFFFFF;" d="M59.75,40.486c0.103-0.163,0.103-0.163,0.215,0.004c0.007-0.003,0.019-0.006,0.02-0.011
			c0.015-0.067,0.022-0.159,0.114-0.134c0.039,0.01,0.077,0.102,0.08,0.159c0.012,0.208-0.115,0.328-0.326,0.322
			c-0.225-0.007-0.347-0.13-0.319-0.34c0.007-0.05,0.058-0.094,0.089-0.141c0.031,0.034,0.062,0.069,0.093,0.103
			C59.727,40.461,59.738,40.473,59.75,40.486z"/>
		<path style="fill:#FFFFFF;" d="M51.312,39.184c0.109-0.2,0.109-0.2,0.229-0.007c0.012-0.037,0.014-0.074,0.034-0.095
			c0.026-0.028,0.069-0.062,0.1-0.058c0.028,0.004,0.065,0.056,0.068,0.089c0.011,0.124,0.026,0.256-0.107,0.334
			c-0.133,0.078-0.275,0.07-0.409,0.01c-0.115-0.052-0.171-0.268-0.104-0.375c0.016-0.026,0.052-0.054,0.079-0.054
			c0.025,0,0.053,0.034,0.072,0.059C51.289,39.107,51.294,39.136,51.312,39.184z"/>
		<path style="fill:#FFFFFF;" d="M59.787,40.019c0-0.048-0.006-0.098,0.001-0.145c0.024-0.155-0.015-0.289-0.117-0.407
			c-0.034-0.039-0.064-0.082-0.091-0.125c-0.068-0.11-0.06-0.2,0.018-0.251c0.083-0.053,0.203-0.036,0.256,0.068
			c0.065,0.126,0.129,0.267,0.137,0.406c0.008,0.125-0.056,0.256-0.096,0.381c-0.011,0.034-0.05,0.058-0.076,0.087
			C59.809,40.028,59.798,40.023,59.787,40.019z"/>
		<path style="fill:#FFFFFF;" d="M64.602,40.597c0-0.094-0.009-0.161,0.002-0.224c0.027-0.164-0.024-0.301-0.111-0.437
			c-0.049-0.076-0.081-0.17-0.095-0.259c-0.006-0.039,0.041-0.113,0.079-0.126c0.046-0.015,0.124,0.002,0.159,0.035
			c0.2,0.195,0.221,0.745,0.044,0.967C64.672,40.562,64.658,40.566,64.602,40.597z"/>
		<path style="fill:#FFFFFF;" d="M54.273,40.664c-0.004,0.246-0.158,0.388-0.362,0.35c-0.053-0.01-0.113-0.049-0.146-0.093
			c-0.114-0.153-0.033-0.433,0.141-0.508c0.028-0.012,0.075-0.02,0.093-0.005c0.019,0.016,0.021,0.061,0.019,0.092
			c-0.003,0.064-0.022,0.127-0.02,0.19c0.004,0.09,0.055,0.109,0.13,0.062C54.172,40.728,54.214,40.701,54.273,40.664z"/>
		<path style="fill:#FFFFFF;" d="M49.79,39.77c-0.008-0.054-0.022-0.091-0.017-0.126c0.023-0.157-0.035-0.283-0.13-0.404
			c-0.058-0.074-0.118-0.163-0.017-0.249c0.078-0.065,0.202-0.023,0.275,0.086C50.032,39.271,49.983,39.647,49.79,39.77z"/>
		<path style="fill:#FFFFFF;" d="M55.971,39.493c0.039-0.18,0.066-0.345,0.116-0.503c0.016-0.051,0.093-0.082,0.143-0.122
			c0.028,0.058,0.085,0.121,0.078,0.174c-0.022,0.164-0.061,0.327-0.113,0.484c-0.014,0.042-0.093,0.076-0.146,0.084
			C56.028,39.614,55.995,39.533,55.971,39.493z"/>
		<path style="fill:#FFFFFF;" d="M53.588,43.309c-0.005-0.024-0.016-0.049-0.013-0.072c0.024-0.19-0.01-0.354-0.167-0.485
			c-0.03-0.025-0.038-0.126-0.013-0.156c0.028-0.034,0.117-0.052,0.158-0.033c0.147,0.069,0.189,0.216,0.208,0.361
			c0.02,0.153-0.027,0.29-0.134,0.397C53.614,43.318,53.601,43.314,53.588,43.309z"/>
		<path style="fill:#FFFFFF;" d="M55.221,38.823c-0.016,0.063-0.023,0.117-0.045,0.165c-0.017,0.038-0.063,0.062-0.078,0.1
			c-0.02,0.049-0.033,0.106-0.025,0.156c0.003,0.018,0.077,0.024,0.122,0.036c0.014,0.112-0.084,0.227-0.202,0.229
			c-0.078,0.001-0.151-0.098-0.15-0.204C54.844,39.079,55.005,38.858,55.221,38.823z"/>
	</g>
</g>
</svg>
