<svg xmlns="http://www.w3.org/2000/svg" viewBox="0 0 136 44"><defs><style>.cls-1{fill:#1e8bca;}.cls-2,.cls-3,.cls-6{fill:#fff;}.cls-2{opacity:0.4;}.cls-4{fill:#129b7f;}.cls-5{fill:#db4b35;}.cls-5,.cls-6,.cls-7{fill-rule:evenodd;}.cls-7{fill:#25a55a;}</style></defs><title>资源 4</title><g id="图层_2" data-name="图层 2"><g id="图层_1-2" data-name="图层 1"><rect class="cls-1" width="136" height="44" rx="2"/><path class="cls-2" d="M125.47,39,129,22.44c.31-1.45-.53-2-1.49-1.67l-20.63,8c-1.41.55-1.39,1.34-.24,1.7l5.28,1.65,12.25-7.72c.57-.38,1.1-.16.67.22l-9.91,9L114.54,39a1.37,1.37,0,0,0,1.07-.52L118.19,36l5.35,3.94c1,.55,1.67.27,1.94-.9Z"/><path class="cls-3" d="M46.39,21.18a4.25,4.25,0,0,0-1.63-.33,1,1,0,0,0-.75.29l.12.5L44,22.1l-.07,0-.34-.93a1.16,1.16,0,0,1,1.27-1.05,5.51,5.51,0,0,1,1.92.51,2.61,2.61,0,0,0,1,.18h.52l-.35.59a9.73,9.73,0,0,0-1.57.39c-1.28.48-2.17,1.17-2.17,1.95,0,1.22,1.29,1.92,2.93,1.92a9,9,0,0,0,1.5-.13l0,.06a6.82,6.82,0,0,1-1,.7,5.93,5.93,0,0,1-1.11.1c-1.54,0-2.83-.75-2.83-2.38a3.14,3.14,0,0,1,2.64-2.84Zm-.09,1.91a5.84,5.84,0,0,1,.71.63,2.39,2.39,0,0,1-.49.57c-.23-.22-.46-.4-.69-.6C46,23.48,46.15,23.27,46.3,23.09Z"/><path class="cls-3" d="M50.59,22.09c-.65,0-1,.27-1,.43a18.12,18.12,0,0,0,.75,3,2.62,2.62,0,0,1,.07.52,3.51,3.51,0,0,1-.14.86l-.14,0a16.28,16.28,0,0,0-.85-3.09,2.78,2.78,0,0,1-.12-.68,2.08,2.08,0,0,1,.16-.77,1.54,1.54,0,0,1,.52-.76,5.63,5.63,0,0,1-.08-.76,1.17,1.17,0,0,1,.32-.71.84.84,0,0,1,.55-.24,1.15,1.15,0,0,1,.74.26,3.73,3.73,0,0,1,.89,1.14,1,1,0,0,1,.08.38,1.61,1.61,0,0,1-.2.62A10.69,10.69,0,0,0,50.59,22.09Zm1.17-.67c-.34-.45-.69-.88-1.25-.88a.92.92,0,0,0-.36.07l0,.3a2.13,2.13,0,0,1-.15.56,2.69,2.69,0,0,1,.8-.1,5.34,5.34,0,0,1,.92.11Z"/><path class="cls-3" d="M54.45,19.23l.08,0c.36.34,1.47,1,1.66,1.68a2,2,0,0,1,.09.66A2.11,2.11,0,0,1,56,22.63a1.66,1.66,0,0,1-1.22.54,1.23,1.23,0,0,1-.7-.18,1.45,1.45,0,0,1-.6-1.3,2.54,2.54,0,0,1,.35-1.13,4.1,4.1,0,0,1,.58-.74A4.12,4.12,0,0,1,54.45,19.23Zm-.64,2.37a.93.93,0,0,0,1,.79,1.5,1.5,0,0,0,.91-.32.48.48,0,0,0,.26-.39,1.21,1.21,0,0,0-.32-.64,3.53,3.53,0,0,0-.94-.76A1.9,1.9,0,0,0,53.81,21.6Z"/><path class="cls-3" d="M59.21,22.48c-.69,0-1.28-.32-1.28-1.1a1.65,1.65,0,0,1,.37-1,1.29,1.29,0,0,1,.84-.49,1.08,1.08,0,0,1,.89.67,3.39,3.39,0,0,1,.37,1.61A2.78,2.78,0,0,1,60,23.7c-.53.79-1,1.11-1.51,1.11a2.92,2.92,0,0,1-1.68-.57l.09-.19a1.74,1.74,0,0,0,.85.2,2.33,2.33,0,0,0,1.72-.9,1.92,1.92,0,0,0,.56-1A2.63,2.63,0,0,1,59.21,22.48ZM59,20.62c-.28,0-.66.31-.66.52,0,.37.52.63,1,.63a2.91,2.91,0,0,0,.66-.08C59.79,21.1,59.45,20.62,59,20.62Z"/><path class="cls-3" d="M63.36,20.07l.42.79A2.27,2.27,0,0,1,64.07,22v.64a2.68,2.68,0,0,1-.74,1.63,1.4,1.4,0,0,1-1,.53,3.45,3.45,0,0,1-1.5-.45l.06-.2a2,2,0,0,0,.65.11,2.56,2.56,0,0,0,2.06-1.58.59.59,0,0,0,.06-.26.89.89,0,0,0-.08-.31,8.76,8.76,0,0,0-.7-1.29c.13-.25.27-.49.42-.73Z"/><path class="cls-3" d="M69.61,20.85c-.11-.5-.28-.73-.45-.73a1.69,1.69,0,0,0-.93.42c-.33.25-.57.54-.57.75,0,.52,1.52.46,1.93.79a.83.83,0,0,1,.26.66,1.79,1.79,0,0,1-.48,1.08,3.59,3.59,0,0,1-2.27,1,1.93,1.93,0,0,1-2-2.15,3.5,3.5,0,0,1,.31-1.44l.23.07a3.33,3.33,0,0,0-.19,1A1.61,1.61,0,0,0,67.16,24a3.49,3.49,0,0,0,1.58-.48c.37-.23.73-.5.73-.59s-.43-.31-.92-.38a2.07,2.07,0,0,1-1.07-.36.76.76,0,0,1-.22-.52,2.14,2.14,0,0,1,.65-1.51,2.62,2.62,0,0,1,1.46-.83.44.44,0,0,1,.42.31,1.24,1.24,0,0,1,.14.55,2.29,2.29,0,0,1-.24.65Z"/><path class="cls-3" d="M73.56,23.2A7.64,7.64,0,0,0,73.63,22v-.57c0-1.07-.12-2.63-.22-3.65a6.94,6.94,0,0,1,.58-.62l.05,0c.12,1.28.15,2.76.15,4.13a9,9,0,0,1,0,1,1.47,1.47,0,0,1-.51.95Z"/><path class="cls-3" d="M78.68,20.79a5.29,5.29,0,0,1,.38.89c.07.18.11.52.48.52a.75.75,0,0,0,.39-.13.72.72,0,0,0,.33-.45l.15-.58.35-.2,0,0a2.59,2.59,0,0,0-.06.58.62.62,0,0,0,.63.67.28.28,0,0,0,.31-.27,4.05,4.05,0,0,0-.18-1,4.49,4.49,0,0,1,.51-.55l0,0a6.24,6.24,0,0,1,.13,1.08,2.07,2.07,0,0,1-.18.75.87.87,0,0,1-1.62.21h0a1.14,1.14,0,0,1-1,.55h-.15a2.8,2.8,0,0,1-.2.9A2.23,2.23,0,0,1,77,25a1.62,1.62,0,0,1-1.7-1.79,3.11,3.11,0,0,1,.44-1.65l.23.11a2.73,2.73,0,0,0-.29,1.1,1.33,1.33,0,0,0,1.43,1.41A1.94,1.94,0,0,0,78.87,23a3.77,3.77,0,0,0-.6-1.61,4.79,4.79,0,0,1,.38-.63Z"/><path class="cls-3" d="M86.84,17.1a2.6,2.6,0,0,0,.49,1.35,2.81,2.81,0,0,1-.4.33c0,.75.07,1.68.07,2.44a4.73,4.73,0,0,1-.28,1.72,2,2,0,0,1-.67.66,2.31,2.31,0,0,1-1.23.37,1.57,1.57,0,0,1-1.22-.51,2,2,0,0,1-.41-1.32,3.59,3.59,0,0,1,.39-1.48l.21.09a2.67,2.67,0,0,0-.24,1,1.43,1.43,0,0,0,.29.9,1.23,1.23,0,0,0,1,.48,2,2,0,0,0,1-.28,1.61,1.61,0,0,0,.64-.55c0-.13,0-.25,0-.37,0-.88-.06-2-.15-3.27,0-.24-.06-.51-.06-.77a.67.67,0,0,1,.13-.46,1.5,1.5,0,0,1,.35-.37Z"/><path class="cls-3" d="M88.34,23.2A7.64,7.64,0,0,0,88.41,22v-.57c0-1.07-.12-2.63-.21-3.65a5.66,5.66,0,0,1,.57-.62l.06,0C89,18.48,89,20,89,21.33a9,9,0,0,1,0,1,1.54,1.54,0,0,1-.52.95Z"/><path class="cls-3" d="M91.46,22.09c-.64,0-1,.27-1,.43a19.22,19.22,0,0,0,.75,3,2,2,0,0,1,.07.52,3.51,3.51,0,0,1-.13.86l-.14,0a16.45,16.45,0,0,0-.86-3.09,2.75,2.75,0,0,1-.11-.68,2.07,2.07,0,0,1,.15-.77,1.49,1.49,0,0,1,.53-.76,4.46,4.46,0,0,1-.09-.76,1.13,1.13,0,0,1,.33-.71.83.83,0,0,1,.54-.24,1.13,1.13,0,0,1,.74.26,3.76,3.76,0,0,1,.9,1.14,1,1,0,0,1,.07.38,1.59,1.59,0,0,1-.19.62A10.82,10.82,0,0,0,91.46,22.09Zm1.17-.67c-.33-.45-.69-.88-1.24-.88a.92.92,0,0,0-.36.07l0,.3a3.37,3.37,0,0,1-.15.56,2.64,2.64,0,0,1,.8-.1,5.14,5.14,0,0,1,.91.11Z"/><path class="cls-3" d="M98.79,20.85c-.11-.5-.28-.73-.44-.73a1.75,1.75,0,0,0-.94.42c-.32.25-.57.54-.57.75,0,.52,1.52.46,1.93.79a.8.8,0,0,1,.26.66,1.79,1.79,0,0,1-.48,1.08,3.57,3.57,0,0,1-2.26,1,1.93,1.93,0,0,1-2-2.15,3.67,3.67,0,0,1,.31-1.44l.23.07a3.28,3.28,0,0,0-.18,1A1.61,1.61,0,0,0,96.34,24a3.46,3.46,0,0,0,1.58-.48c.38-.23.73-.5.73-.59s-.43-.31-.91-.38a2.12,2.12,0,0,1-1.08-.36.75.75,0,0,1-.21-.52,2.14,2.14,0,0,1,.65-1.51,2.63,2.63,0,0,1,1.45-.83.46.46,0,0,1,.43.31,1.39,1.39,0,0,1,.14.55,2.29,2.29,0,0,1-.24.65Z"/><path class="cls-3" d="M102.75,23.2a9.14,9.14,0,0,0,.06-1.18v-.57c0-1.07-.12-2.63-.21-3.65a5.66,5.66,0,0,1,.57-.62l.06,0c.12,1.28.15,2.76.15,4.13a9,9,0,0,1,0,1,1.54,1.54,0,0,1-.52.95Z"/><path class="cls-3" d="M109,20.85c-.11-.5-.28-.73-.44-.73a1.75,1.75,0,0,0-.94.42c-.32.25-.57.54-.57.75,0,.52,1.52.46,1.93.79a.8.8,0,0,1,.26.66,1.79,1.79,0,0,1-.48,1.08,3.57,3.57,0,0,1-2.26,1,1.93,1.93,0,0,1-2-2.15,3.67,3.67,0,0,1,.31-1.44l.23.07a3.28,3.28,0,0,0-.18,1,1.61,1.61,0,0,0,1.72,1.7,3.46,3.46,0,0,0,1.58-.48c.38-.23.73-.5.73-.59s-.43-.31-.91-.38a2.12,2.12,0,0,1-1.08-.36.75.75,0,0,1-.21-.52,2.14,2.14,0,0,1,.65-1.51,2.63,2.63,0,0,1,1.45-.83.46.46,0,0,1,.43.31,1.39,1.39,0,0,1,.14.55,2.29,2.29,0,0,1-.24.65Z"/><path class="cls-3" d="M112.36,20.07l.41.79a2.27,2.27,0,0,1,.29,1.12v.64a2.72,2.72,0,0,1-.73,1.63,1.42,1.42,0,0,1-1,.53,3.52,3.52,0,0,1-1.51-.45l.07-.2a2,2,0,0,0,.65.11,2.54,2.54,0,0,0,2.05-1.58.63.63,0,0,0,.07-.26,1.18,1.18,0,0,0-.08-.31,8.78,8.78,0,0,0-.71-1.29c.14-.25.27-.49.42-.73Z"/><path class="cls-3" d="M114.19,23.2a7.65,7.65,0,0,0,.06-1.18v-.57c0-1.07-.11-2.63-.21-3.65a6.94,6.94,0,0,1,.58-.62l0,0c.12,1.28.15,2.76.15,4.13a9,9,0,0,1,0,1,1.52,1.52,0,0,1-.51.95Z"/><path class="cls-3" d="M119.5,19.7a4.9,4.9,0,0,1,.63,2.41,2.52,2.52,0,0,1-.42,1.49,2.82,2.82,0,0,1-1.95.89,1.69,1.69,0,0,1-1.8-1.78,3.09,3.09,0,0,1,.51-1.7l.22.12a2.75,2.75,0,0,0-.33,1.1,1.29,1.29,0,0,0,.4,1,1.67,1.67,0,0,0,1.1.39,2.53,2.53,0,0,0,1.42-.51c.26-.2.41-.37.41-.49a3.38,3.38,0,0,0-.19-1,4.87,4.87,0,0,0-.49-1.16c.14-.24.28-.49.45-.74Zm-1.59-1.89a5.77,5.77,0,0,1,.7.63,2.35,2.35,0,0,1-.48.57c-.23-.22-.46-.4-.69-.6A7.35,7.35,0,0,1,117.91,17.81Z"/><path class="cls-4" d="M21.94,6.76a15.09,15.09,0,0,0-1.88,30.07A7.42,7.42,0,0,0,21.6,37l.5,0a15.1,15.1,0,0,0-.16-30.19ZM19.56,35.58A13.83,13.83,0,0,1,8.12,22a14.06,14.06,0,0,1,.29-2.85,1.47,1.47,0,0,0,2.35-.33c.62.36,1.44.43,1.44,1.16,0,2.42.09,5,2.28,5a3.09,3.09,0,0,1,1.78,1.87c.19.5.95,0,1.78,0,.41,0,0,.7,0,2.21s3.24,3.82,3.24,3.82a18.54,18.54,0,0,0,.11,2.44,5.61,5.61,0,0,0-1.83.25Zm5.8-.31c-.07-.35-.38-.55-.95-.39.45-2,.67-3,1.63-3.87a1.29,1.29,0,0,0-.89-2.37c-.83.13-.3-1-1-1.09s-1.7-1.53-2.77-2c-.56-.27-1.12-1-2-1s-1.89.65-1.89.12a30.91,30.91,0,0,0-.21-3.38c0-.38-.25-.13.79-.1.57,0,.29-1.14.85-1.19s1.87.52,2.2.3,2.29,5.18,2.29.89c0-.51-.27-1.4,0-1.88a23.68,23.68,0,0,0,1.93-3.68,2.8,2.8,0,0,0-1.88,0c-.28.09.08.52-.31.61-1.48.34-2.79-.4-2.33-1.09s2.17-.32,2.32-1.74c.08-.82.15-1.77.2-2.48,2,.31,1.77-2.58-1.19-2.89A13.85,13.85,0,0,1,35,17.33a.53.53,0,0,0-.33-.15c-.9-2.24-3.07-.62-2.33,1.35-4,3-2.94,5.15-1.64,6.36a11.67,11.67,0,0,1,1.75,2.28c-.46,1.35,1.7.81,2.77-1.47a13.87,13.87,0,0,1-9.9,9.57ZM34.6,19.14a12.5,12.5,0,0,1,.28,2.93,15,15,0,0,0-.29-2.21c0-.25,0-.5,0-.72Z"/><g id="Page-1"><g id="flags"><g id="iran"><path id="red" class="cls-5" d="M36.31,26.9H7.75a15.15,15.15,0,0,0,28.56,0Z"/><path id="white" class="cls-6" d="M7.75,26.9H36.31a15.26,15.26,0,0,0,0-10.1H7.75a15.26,15.26,0,0,0,0,10.1Z"/><path id="green" class="cls-7" d="M36.31,16.8a15.15,15.15,0,0,0-28.56,0Z"/><g id="bottom"><path id="Rectangle" class="cls-6" d="M9.58,27.23v.34H8.74v.51h.5v-.17H8.91v-.17h.67v.34h.84v-.85h-.17v.68h-.17v-.68H9.92v.68H9.75v-.68ZM8,27.22l.08.17H9.41v-.17Zm2.63.35v.51h.17v-.34h.5v.34h.84v-.51h-.5v.17h.33v.17h-.5v-.34Zm2.52-.34v.34h-.84v.51h.51v-.17h-.34v-.17h.67v.34H14v-.85h-.16v.68h-.17v-.68h-.17v.68h-.17v-.68Zm-2.52,0v.17h2.35v-.17Zm3.53.35v.51h.17v-.34h.5v.34h.85v-.51h-.51v.17h.34v.17H15v-.34Zm2.53-.34v.34H15.8v.51h.51v-.17H16v-.17h.68v.34h.84v-.85h-.17v.68h-.17v-.68H17v.68h-.17v-.68Zm-2.53,0v.17h2.36v-.17Zm3.53.35v.51h.17v-.34h.51v.34h.84v-.51h-.5v.17H19v.17h-.5v-.34Zm2.53-.34v.34h-.84v.51h.5v-.17h-.33v-.17h.67v.34H21v-.85h-.17v.68h-.17v-.68h-.16v.68h-.17v-.68Zm-2.53,0v.17H20v-.17Zm3.54.35v.51h.17v-.34h.5v.34h.84v-.51h-.5v.17h.33v.17H22v-.34Zm2.52-.34v.34h-.84v.51h.51v-.17H23v-.17h.67v.34h.84v-.85h-.16v.68h-.17v-.68h-.17v.68h-.17v-.68Zm-2.52,0v.17h2.35v-.17Zm3.53.35v.51h.17v-.34h.5v.34h.85v-.51h-.51v.17h.34v.17h-.51v-.34Zm2.53-.34v.34H26.4v.51h.51v-.17h-.34v-.17h.68v.34h.84v-.85h-.17v.68h-.17v-.68h-.17v.68h-.17v-.68Zm-2.53,0v.17h2.36v-.17Zm3.54.35v.51h.16v-.34h.51v.34h.84v-.51h-.5v.17h.33v.17h-.5v-.34Zm2.52-.34v.34h-.84v.51h.5v-.17h-.33v-.17h.67v.34h.84v-.85h-.17v.68h-.17v-.68h-.16v.68H31v-.68Zm-2.52,0v.17h2.35v-.17Zm3.53.35v.51H32v-.34h.5v.34h.84v-.51h-.5v.17h.33v.17h-.5v-.34Zm2.52-.34v.34h-.84v.51H34v-.17h-.34v-.17h.67v.34h.84v-.85H35v.68h-.17v-.68h-.17v.68h-.17v-.68Zm-2.52,0v.17h2.35v-.17Zm3.53.35v.51h.17v-.34h.38l.08-.17Zm0-.35v.17H36l.08-.17Z"/><g id="Group"><rect id="Rectangle-460" class="cls-3" x="10.92" y="27.91" width="0.17" height="0.17"/><rect id="Rectangle-461" class="cls-3" x="14.46" y="27.91" width="0.17" height="0.17"/><rect id="Rectangle-462" class="cls-3" x="17.99" y="27.91" width="0.17" height="0.17"/><rect id="Rectangle-463" class="cls-3" x="21.52" y="27.91" width="0.17" height="0.17"/><rect id="Rectangle-464" class="cls-3" x="25.06" y="27.91" width="0.17" height="0.17"/><rect id="Rectangle-465" class="cls-3" x="28.59" y="27.91" width="0.17" height="0.17"/><rect id="Rectangle-466" class="cls-3" x="32.13" y="27.91" width="0.17" height="0.17"/></g><path id="Rectangle-19" class="cls-6" d="M7.87,27.07l-.06-.17h.76v.17Zm.87,0V26.9h1.68v.17Zm1.85,0V26.9H12.1v.17Zm1.68,0V26.9H14v.17Zm1.85,0V26.9h1.52v.17Zm1.68,0V26.9h1.69v.17Zm1.85,0V26.9h1.52v.17Zm1.69,0V26.9H21v.17Zm1.85,0V26.9H22.7v.17Zm1.68,0V26.9h1.68v.17Zm1.85,0V26.9h1.52v.17Zm1.68,0V26.9h1.69v.17Zm1.86,0V26.9h1.51v.17Zm1.68,0V26.9h1.68v.17Zm1.85,0V26.9H33.3v.17Zm1.68,0V26.9h1.68v.17Zm1.85,0V26.9h.8l-.09.17Z"/></g><g id="top"><g id="Group-3"><rect id="Rectangle-460-2" data-name="Rectangle-460" class="cls-3" x="10.92" y="16.3" width="0.17" height="0.17"/><rect id="Rectangle-461-2" data-name="Rectangle-461" class="cls-3" x="14.46" y="16.3" width="0.17" height="0.17"/><rect id="Rectangle-462-2" data-name="Rectangle-462" class="cls-3" x="17.99" y="16.3" width="0.17" height="0.17"/><rect id="Rectangle-463-2" data-name="Rectangle-463" class="cls-3" x="21.52" y="16.3" width="0.17" height="0.17"/><rect id="Rectangle-464-2" data-name="Rectangle-464" class="cls-3" x="25.06" y="16.3" width="0.17" height="0.17"/><rect id="Rectangle-465-2" data-name="Rectangle-465" class="cls-3" x="28.59" y="16.3" width="0.17" height="0.17"/><rect id="Rectangle-466-2" data-name="Rectangle-466" class="cls-3" x="32.13" y="16.3" width="0.17" height="0.17"/></g><path id="Rectangle-2" data-name="Rectangle" class="cls-6" d="M8,16.47h.53V16H8.24l-.08.17H8.4v.17H8.09L8,16.47Zm1.54-.85V16H8.74v.51h.5V16.3H8.91v-.17h.67v.34h.84v-.85h-.17v.68h-.17v-.68H9.92v.68H9.75v-.68Zm-1.19,0-.08.17h1.1v-.17Zm-.37,1-.08.17h.63v-.17Zm.72,0v.17h1.68v-.17ZM10.59,16v.51h.17v-.34h.5v.34h.84V16h-.5v.17h.33v.17h-.5V16Zm2.52-.34V16h-.84v.51h.51V16.3h-.34v-.17h.67v.34H14v-.85h-.16v.68h-.17v-.68h-.17v.68h-.17v-.68Zm-2.52,0v.17h2.35v-.17Zm0,1v.17H12.1v-.17Zm1.68,0v.17H14v-.17ZM14.12,16v.51h.17v-.34h.5v.34h.85V16h-.51v.17h.34v.17H15V16Zm2.53-.34V16H15.8v.51h.51V16.3H16v-.17h.68v.34h.84v-.85h-.17v.68h-.17v-.68H17v.68h-.17v-.68Zm-2.53,0v.17h2.36v-.17Zm0,1v.17h1.52v-.17Zm1.68,0v.17h1.69v-.17ZM17.65,16v.51h.17v-.34h.51v.34h.84V16h-.5v.17H19v.17h-.5V16Zm2.53-.34V16h-.84v.51h.5V16.3h-.33v-.17h.67v.34H21v-.85h-.17v.68h-.17v-.68h-.16v.68h-.17v-.68Zm-2.53,0v.17H20v-.17Zm0,1v.17h1.52v-.17Zm1.69,0v.17H21v-.17ZM21.19,16v.51h.17v-.34h.5v.34h.84V16h-.5v.17h.33v.17H22V16Zm2.52-.34V16h-.84v.51h.51V16.3H23v-.17h.67v.34h.84v-.85h-.16v.68h-.17v-.68h-.17v.68h-.17v-.68Zm-2.52,0v.17h2.35v-.17Zm0,1v.17H22.7v-.17Zm1.68,0v.17h1.68v-.17ZM24.72,16v.51h.17v-.34h.5v.34h.85V16h-.51v.17h.34v.17h-.51V16Zm2.53-.34V16H26.4v.51h.51V16.3h-.34v-.17h.68v.34h.84v-.85h-.17v.68h-.17v-.68h-.17v.68h-.17v-.68Zm-2.53,0v.17h2.36v-.17Zm0,1v.17h1.52v-.17Zm1.68,0v.17h1.69v-.17ZM28.26,16v.51h.16v-.34h.51v.34h.84V16h-.5v.17h.33v.17h-.5V16Zm2.52-.34V16h-.84v.51h.5V16.3h-.33v-.17h.67v.34h.84v-.85h-.17v.68h-.17v-.68h-.16v.68H31v-.68Zm-2.52,0v.17h2.35v-.17Zm0,1v.17h1.51v-.17Zm1.68,0v.17h1.68v-.17ZM31.79,16v.51H32v-.34h.5v.34h.84V16h-.5v.17h.33v.17h-.5V16Zm2.52-.34V16h-.84v.51H34V16.3h-.34v-.17h.67v.34h.84v-.85H35v.68h-.17v-.68h-.17v.68h-.17v-.68Zm-2.52,0v.17h2.35v-.17Zm0,1v.17H33.3v-.17Zm1.68,0v.17h1.68v-.17ZM35.32,16v.51h.17v-.34h.37L35.8,16Zm0-.35v.17h.4l-.08-.17Zm0,1v.17h.79L36,16.63Z"/></g><path id="Shape" class="cls-5" d="M18.32,25.3a3.67,3.67,0,0,1,1.51-6.79c-2.92,1.72-2.92,4.56-1.51,6.79Zm7.42,0a3.67,3.67,0,0,0-1.52-6.79c2.93,1.72,2.93,4.56,1.52,6.79ZM22,17.82c-.63.64-1.71,0-1.34-.68.65,1,1.34.2,1.34.2s.69.84,1.34-.2c.37.69-.71,1.32-1.34.68ZM21.59,26a4.37,4.37,0,0,1-2.36-.13,4.49,4.49,0,0,0,1.92-.27s-2.6-1.25-2.55-3.8,1.69-3.36,1.69-3.36S17.56,22,21.57,25l-.18-3.68v-2.7a2.19,2.19,0,0,0,.65-.48,2.25,2.25,0,0,0,.64.48v2.7L22.51,25c4-3,1.28-6.53,1.28-6.53s1.53.78,1.69,3.36-2.55,3.8-2.55,3.8a5.63,5.63,0,0,0,2,.28,4.53,4.53,0,0,1-2.46.12l-.45.53L21.59,26Z"/></g></g></g></g></g></svg>