<?xml version="1.0" encoding="iso-8859-1"?>
<!-- Generator: Adobe Illustrator 24.0.0, SVG Export Plug-In . SVG Version: 6.00 Build 0)  -->
<svg version="1.1" id="&#x56FE;&#x5C42;_1" xmlns="http://www.w3.org/2000/svg" xmlns:xlink="http://www.w3.org/1999/xlink" x="0px"
	 y="0px" viewBox="0 0 68 62.5" style="enable-background:new 0 0 68 62.5;" xml:space="preserve">
<g>
	<path style="fill:#2684BC;" d="M44.57,43.5c0-6.9,5.6-12.6,12.6-12.6c1.6,0,3.1,0.3,4.5,0.8c0-0.2,0-0.3,0-0.5
		c0-16.7-13.7-30.4-30.5-30.4S0.67,14.5,0.67,31.2s13.7,30.5,30.5,30.5c7.6,0,14.5-2.8,19.8-7.3C47.17,52.5,44.57,48.3,44.57,43.5z"
		/>
	<path style="fill:#FFFFFF;" d="M40.77,46l5.1-23.9c0.4-2.1-0.8-2.9-2.1-2.4l-29.8,11.5c-2,0.8-2,1.9-0.3,2.4l7.6,2.4l17.7-11
		c0.8-0.6,1.6-0.2,1,0.3l-14.4,12.9l-0.6,7.8c0.8,0,1.1-0.3,1.5-0.8l3.7-3.6l7.7,5.7C39.37,48.2,40.37,47.8,40.77,46L40.77,46z"/>
	<g id="Page-1_11_">
		<g id="flags_11_" transform="translate(-990.000000, -4230.000000)">
			<g id="nigeria" transform="translate(990.000000, 4230.000000)">
				<path id="green_2_" style="fill-rule:evenodd;clip-rule:evenodd;fill:#25A55A;" d="M60.533,53.541
					c3.96-1.4,6.798-5.177,6.798-9.617s-2.837-8.217-6.798-9.617V53.541L60.533,53.541L60.533,53.541z"/>
				<path id="white_11_" style="fill-rule:evenodd;clip-rule:evenodd;fill:#FFFFFF;" d="M53.735,34.307v19.234
					c1.063,0.376,2.207,0.58,3.399,0.58c1.192,0,2.336-0.205,3.399-0.58V34.307c-1.063-0.376-2.207-0.58-3.399-0.58
					C55.942,33.727,54.798,33.931,53.735,34.307L53.735,34.307L53.735,34.307z"/>
				<path id="green_1_" style="fill-rule:evenodd;clip-rule:evenodd;fill:#25A55A;" d="M46.937,43.844v0.161
					c0.034,4.405,2.861,8.145,6.798,9.536V34.307C49.798,35.698,46.971,39.438,46.937,43.844L46.937,43.844L46.937,43.844z"/>
			</g>
		</g>
	</g>
</g>
</svg>
