<svg xmlns="http://www.w3.org/2000/svg" viewBox="0 0 135.92 43.87"><defs><style>.cls-1{fill:#639;}.cls-2{fill:#f1ae4b;}</style></defs><title>资源 31</title><g id="图层_2" data-name="图层 2"><g id="图层_1-2" data-name="图层 1"><rect class="cls-1" width="135.92" height="43.87" rx="2"/><path class="cls-2" d="M12.15,22.21a14,14,0,0,1,.16-2.44,2.15,2.15,0,0,1,1.9-1.62h.13l9.24-.05c1.29,0,1.27,0,1.35-1.32a.09.09,0,0,1,.09-.08H27.3a.08.08,0,0,1,.09.08v1.35a.71.71,0,0,1,0,.14,2.47,2.47,0,0,1-2.69,2.34c-1.45,0-1.45,0-1.45,1.45,0,1.73,0,3.47,0,5.2,0,.23,0,2,0,2.11s0,0,0,0l-2.43.91s0,0,0,0V20.74a.09.09,0,0,0-.09-.09H18.93a.09.09,0,0,0-.09.09s0,8.49,0,8.62,0,0,0,0l-2.51.9s0,0,0,0,0-8,0-9.51a.09.09,0,0,0-.09-.09H14.71a.09.09,0,0,0-.09.09v1.46a.09.09,0,0,1-.09.09h-2.3A.08.08,0,0,1,12.15,22.21Z"/><path class="cls-2" d="M23.17,15l0,1.73a.13.13,0,0,1-.13.14H20.87a.14.14,0,0,1-.14-.14c0-.58,0-1.15,0-1.73a.13.13,0,0,1,.14-.13H23A.13.13,0,0,1,23.17,15Z"/><path class="cls-2" d="M18.74,15l0,1.73a.13.13,0,0,1-.13.14H16.44a.14.14,0,0,1-.14-.14c0-.58,0-1.15,0-1.73a.13.13,0,0,1,.14-.13h2.15A.13.13,0,0,1,18.74,15Z"/><path class="cls-2" d="M19.85,34.65A12.72,12.72,0,1,1,32.56,21.93,12.73,12.73,0,0,1,19.85,34.65Zm0-24.25A11.54,11.54,0,1,0,31.39,21.93,11.55,11.55,0,0,0,19.85,10.4Z"/><path class="cls-2" d="M42.87,23.63v5.15H41.22V16.57h5.49a3.6,3.6,0,0,1,2.65,1,3.31,3.31,0,0,1,1,2.47,3.75,3.75,0,0,1-.81,2.45,3.44,3.44,0,0,1-2.81,1.17Zm0-5.64v4.23h3.28a2.86,2.86,0,0,0,1.8-.48A2,2,0,0,0,48.63,20a1.85,1.85,0,0,0-.69-1.6A2.86,2.86,0,0,0,46.22,18Z"/><path class="cls-2" d="M54.42,18.27h-1.5v-1.7h1.5Zm0,1.62v8.89h-1.5V19.89Z"/><path class="cls-2" d="M71,16.57h1.6V28.78H70.77l-6.2-9.86,0,9.86h-1.6V16.57h2L71,26.42Z"/><path class="cls-2" d="M81.76,26h1.5a3.43,3.43,0,0,1-.38,1.08,3.58,3.58,0,0,1-1.21,1.35,3.09,3.09,0,0,1-.81.41,5.62,5.62,0,0,1-1.6.2,3.65,3.65,0,0,1-2.91-1.24,4.78,4.78,0,0,1-1.07-3.22,5.54,5.54,0,0,1,1-3.5,3.87,3.87,0,0,1,3.25-1.44A3.28,3.28,0,0,1,82.41,21a6.6,6.6,0,0,1,1,3.8H76.88A3.25,3.25,0,0,0,77.53,27a2.43,2.43,0,0,0,1.93.76,2.48,2.48,0,0,0,1.69-.63A1.54,1.54,0,0,0,81.76,26Zm-4.88-2.37h5a2.84,2.84,0,0,0-.55-1.84A2.32,2.32,0,0,0,79.34,21a2.26,2.26,0,0,0-1.74.79A2.68,2.68,0,0,0,76.88,23.63Z"/><path class="cls-2" d="M89.11,21.13H87.68v5.78a.62.62,0,0,0,.32.62,1.63,1.63,0,0,0,.58.08h.53v1.17L88,28.9a1.72,1.72,0,0,1-1.44-.54A2.18,2.18,0,0,1,86.18,27V21.13H85V19.89h1.21V17.41h1.5v2.48h1.43Z"/><path class="cls-2" d="M94.48,28.78H93l-2.57-8.89H92l1.7,7,1.75-7h1.67l1.73,7,1.83-7h1.51l-2.59,8.89H98.06l-1.8-6.9Z"/><path class="cls-2" d="M103.7,24.33a5.16,5.16,0,0,1,1-3.22,4.09,4.09,0,0,1,6.28,0,5.15,5.15,0,0,1,1,3.22,5.12,5.12,0,0,1-1,3.21,4.06,4.06,0,0,1-6.27,0A5.1,5.1,0,0,1,103.7,24.33Zm1.54,0a4.42,4.42,0,0,0,.48,2.14,2.39,2.39,0,0,0,4.2,0,4.42,4.42,0,0,0,.49-2.16,4.54,4.54,0,0,0-.47-2.14,2.25,2.25,0,0,0-2.11-1.26,2.22,2.22,0,0,0-2.09,1.24A4.42,4.42,0,0,0,105.24,24.33Z"/><path class="cls-2" d="M116,23.61v5.17h-1.49V19.89H116v1.48A4.06,4.06,0,0,1,117,20.11a2.38,2.38,0,0,1,1.46-.47,1.23,1.23,0,0,1,.39.05v1.54h-.56a2.16,2.16,0,0,0-1.65.68A2.42,2.42,0,0,0,116,23.61Z"/><path class="cls-2" d="M124.49,23.2l3.61,5.58h-1.91l-2.78-4.49-1.25,1.12v3.37h-1.44V16.57h1.44v7.08L126,19.89h1.9Z"/></g></g></svg>