<svg xmlns="http://www.w3.org/2000/svg" viewBox="0 0 136 44"><defs><style>.cls-1{fill:#fff;}.cls-2{fill:#dd471d;}.cls-3{fill:#16191c;}</style></defs><title>资源 47</title><g id="图层_2" data-name="图层 2"><g id="图层_1-2" data-name="图层 1"><rect class="cls-1" width="136" height="44" rx="2"/><path class="cls-2" d="M7.42,21.81c0-3-.07-6,0-9.08a7.17,7.17,0,0,1,6.39-6.5c1.9-.1,3.81-.08,5.71,0a1.63,1.63,0,0,1,1.1.55c1,1.29,2,2.63,3,4a2.8,2.8,0,0,1-.14,3.58c-1.35,2-2.7,4-4.07,6a2.73,2.73,0,0,0-.05,3.33c1.29,1.92,2.6,3.82,3.88,5.73s1.32,2.71-.15,4.67C22.38,35,21.62,36,20.92,37a1.79,1.79,0,0,1-1.7.88c-1.53-.06-3.06,0-4.59,0a7.31,7.31,0,0,1-7.23-7c-.06-3,0-6,0-9Z"/><path class="cls-2" d="M24.2,6.17h1.9a54.36,54.36,0,0,1,7.12.25A7.15,7.15,0,0,1,39,13.6q0,8.32,0,16.65a7.44,7.44,0,0,1-7.46,7.56c-2.34,0-4.68,0-7.28,0l2.28-3.27c.36-.51.71-1,1.07-1.5a3.85,3.85,0,0,0,.07-4.91c-1.26-1.82-2.55-3.62-3.88-5.38a1.07,1.07,0,0,1,0-1.51c1.27-1.68,2.48-3.41,3.71-5.13,1.34-1.87,1.36-3.24.05-5.15C26.51,9.45,25.45,8,24.2,6.17Zm5.7,23.52c1.51-2.23,3-4.38,4.41-6.63A2.44,2.44,0,0,0,34.37,21c-1.39-2.35-3-4.59-4.45-6.84-.7,1.32-1.36,2.49-1.93,3.7a1.1,1.1,0,0,0,.16.9c.59.87,1.23,1.71,1.87,2.54a.9.9,0,0,1,0,1.32c-.67.81-1.28,1.67-1.87,2.54A1.1,1.1,0,0,0,28,26C28.56,27.19,29.19,28.34,29.9,29.69Z"/><path class="cls-3" d="M58.16,32.64H48.43V12.31h9.34q6.61.19,7.11,4.86.09,3.7-4,4.77V22q4.28.78,4.77,4.77Q65.75,32.64,58.16,32.64ZM57,15.52H52.62v5.16H57q3.21-.11,3.3-2.73Q60.3,15.52,57,15.52Zm.48,8.37H52.62v5.74h4.86c2.47,0,3.7-1,3.7-2.92C61,24.89,59.75,24,57.48,23.89Z"/><path class="cls-3" d="M88.52,32.64H83.07l-6.13-8.85-3.31,3.4v5.45H69.35V12.31h4.28V22l9-9.63h5.26L79.57,21Z"/><path class="cls-3" d="M106.62,32.64h-16V12.31h15.57v3.5H94.94v4.77h10.61v3.5H94.94v5.25h11.68Z"/><path class="cls-3" d="M121.21,22.52l7.59,10.12h-5.25q-4.1-6.32-4.38-6.71a14.5,14.5,0,0,0-.78-1.27,2.25,2.25,0,0,0-.29.49,5.67,5.67,0,0,1-.49.78q-.28.48-4.38,6.71h-5.06l7.5-10.12-6.82-10.21h5l3.79,6.32a5.75,5.75,0,0,0,.88,1.66c.13-.2.45-.75,1-1.66l3.6-6.32h5Z"/></g></g></svg>