<svg xmlns="http://www.w3.org/2000/svg" viewBox="0 0 136 44"><defs><style>.cls-1{fill:#1e8bca;}.cls-2,.cls-3{fill:#fff;}.cls-2{opacity:0.4;}.cls-4{fill:#040000;}.cls-4,.cls-6{fill-rule:evenodd;}.cls-5{fill:#db4b35;}.cls-6{fill:#2479ae;}</style></defs><title>资源 12</title><g id="图层_2" data-name="图层 2"><g id="图层_1-2" data-name="图层 1"><rect class="cls-1" width="136" height="44" rx="2"/><path class="cls-2" d="M125.47,39,129,22.44c.31-1.45-.53-2-1.49-1.67l-20.63,8c-1.41.55-1.39,1.34-.24,1.7l5.28,1.65,12.25-7.72c.57-.38,1.1-.16.67.22l-9.91,9L114.54,39a1.37,1.37,0,0,0,1.07-.52L118.19,36l5.35,3.94c1,.55,1.67.27,1.94-.9Z"/><g id="Page-1"><g id="flags"><g id="south_korea" data-name="south korea"><circle id="white" class="cls-3" cx="22.14" cy="22.06" r="15.28"/><g id="emblem"><path id="line" class="cls-4" d="M11.56,18.09l.71.47,2.85-4.22-.71-.48-2.85,4.23Zm1,.66.7.48L16.1,15l-.7-.47-2.85,4.22Zm1,.66.71.48,2.85-4.22-.71-.48-2.85,4.22Z"/><path id="line-2" data-name="line" class="cls-4" d="M14.41,30.25l.71-.48-2.85-4.22-.71.47,2.85,4.23Zm1-.67.7-.47-1.33-2-.7.47,1.33,2Zm-1.52-2.25.7-.47-1.33-2-.7.47,1.33,2Zm2.5,1.59.71-.48-2.85-4.22-.71.48,2.85,4.22Z"/><path id="line-3" data-name="line" class="cls-4" d="M30,19.89l.71-.48-1.33-2-.7.48,1.32,2Zm-1.51-2.25.7-.48-1.33-2-.7.48,1.33,2ZM31,19.23l.7-.48-2.84-4.22-.71.47L31,19.23Zm1-.67.7-.47-1.33-2-.7.48,1.33,2Zm-1.52-2.25.7-.48-1.33-2-.7.48,1.33,2Z"/><path id="line-4" data-name="line" class="cls-4" d="M32.71,26l-.7-.47-1.33,2,.7.48,1.33-2Zm-1.52,2.26-.7-.48-1.33,2,.7.48,1.33-2Zm.53-2.92-.7-.47-1.33,2,.7.47,1.33-2ZM30.2,27.61l-.7-.47-1.33,2,.71.47,1.32-2Zm.54-2.91L30,24.22l-1.32,2,.7.48,1.33-2ZM29.22,27l-.7-.48-1.33,2,.7.48,1.33-2Z"/><circle id="Oval-2" class="cls-5" cx="22.14" cy="22.06" r="5.09"/><path id="Oval-2-2" data-name="Oval-2" class="cls-6" d="M26.43,24.79a5.09,5.09,0,0,1-8.64-5.4,2.55,2.55,0,0,0,4.32,2.7,2.55,2.55,0,0,1,4.32,2.7Z"/></g></g></g></g><path class="cls-3" d="M43.36,19.59v-.78h6.36v.78ZM46.54,24C45.1,24,44,23.22,44,22.07s1.1-1.89,2.55-1.89,2.55.73,2.55,1.89S48,24,46.54,24Zm0-3c-.87,0-1.65.43-1.65,1.15s.78,1.15,1.65,1.15,1.66-.44,1.66-1.15S47.42,20.92,46.54,20.92ZM44.91,18v-.83H48V18Zm0,9.29V24.5h.94v2h6.28v.8Zm6.8-6v3.54h-.94v-8h.94v3.68H53.4v.79Z"/><path class="cls-3" d="M59.24,20.2a2.94,2.94,0,0,1-5.85,0,2.93,2.93,0,0,1,5.85,0Zm-4.94,0a1.89,1.89,0,0,0,2,1.86,1.86,1.86,0,0,0,2-1.85,2,2,0,0,0-4.05,0ZM55,27.26V23.91h.94v2.57h6.4v.78Zm6.13-2.57V16.77H62v7.92Z"/><path class="cls-3" d="M65.76,25.6l-.6-.72a7.49,7.49,0,0,0,3.92-3.6l-3.68.32-.2-.85,4.18-.25a7.61,7.61,0,0,0,.31-1.83h-4v-.78h5A8,8,0,0,1,65.76,25.6Zm4.88-3.75V21H73.1V16.77H74V27.62H73.1V21.85Z"/><path class="cls-3" d="M77.47,27.64V23.87H74.93v-.79h9.79v.79H82.14v3.77H81.2V23.87H78.42v3.77Zm-1.31-6V17.43H83.5v4.25Zm6.38-3.47H77.11v2.68h5.43Z"/><path class="cls-3" d="M91.52,24.46a35.25,35.25,0,0,1-5.75.49h-.48v-7h.95v6.22a31.49,31.49,0,0,0,5.19-.48Zm2,3.16h-.93V16.77h.93Z"/><path class="cls-3" d="M101.27,24.62A36.07,36.07,0,0,1,96,25H95V17.8h5v.79H96v2.27h3.9v.77H96v2.55a28.81,28.81,0,0,0,5.18-.34Zm1.12,3V16.77h.94V27.62Z"/></g></g></svg>