<svg xmlns="http://www.w3.org/2000/svg" viewBox="0 0 136 44"><defs><style>.cls-1{fill:#1e8bca;}.cls-2,.cls-3,.cls-4{fill:#fff;}.cls-2{opacity:0.4;}.cls-4{fill-rule:evenodd;}.cls-5{fill:#1aaf5d;}</style></defs><title>资源 17</title><g id="图层_2" data-name="图层 2"><g id="图层_1-2" data-name="图层 1"><rect class="cls-1" width="136" height="44" rx="2"/><path class="cls-2" d="M125.47,39,129,22.44c.31-1.45-.53-2-1.49-1.67l-20.63,8c-1.41.55-1.39,1.34-.24,1.7l5.28,1.65,12.25-7.72c.57-.38,1.1-.16.67.22l-9.91,9L114.54,39a1.37,1.37,0,0,0,1.07-.52L118.19,36l5.35,3.94c1,.55,1.67.27,1.94-.9Z"/><path class="cls-3" d="M43.08,22.2c0-3.68,1.73-4.9,4.6-4.9a7.67,7.67,0,0,1,2.48.37v1.1a6.76,6.76,0,0,0-2.43-.39c-2.13,0-3.36.73-3.36,3.82S45.54,26,47.68,26a6.88,6.88,0,0,0,1.55-.17v-3H47.32v-1h3.09V26.7a9.61,9.61,0,0,1-2.87.39C44.77,27.09,43.08,26.17,43.08,22.2Z"/><path class="cls-3" d="M51.64,25.46V16.53h1.18v8.63c0,.74.2.89.68.89a1.87,1.87,0,0,0,.56-.07v1a3.28,3.28,0,0,1-.78.08C52.19,27,51.64,26.57,51.64,25.46Z"/><path class="cls-3" d="M54,23.25c0-2.95,1.25-3.84,3.43-3.84s3.42.89,3.42,3.84-1.22,3.84-3.42,3.84S54,26.2,54,23.25Zm5.6,0c0-2.16-.55-2.85-2.17-2.85s-2.17.69-2.17,2.85.57,2.84,2.17,2.84S59.62,25.42,59.62,23.25Z"/><path class="cls-3" d="M68.48,23.25c0,2.05-.58,3.84-3.06,3.84-1.44,0-2.1-.56-2.4-1.42L62.87,27h-1V16.53H63v4.35a2.21,2.21,0,0,1,2.4-1.47C67.9,19.41,68.48,21,68.48,23.25Zm-1.24,0c0-1.55-.26-2.85-2-2.85S63,21.48,63,23.25s.52,2.84,2.31,2.84S67.24,24.69,67.24,23.25Z"/><path class="cls-3" d="M75.33,21.7V27h-1l-.18-1.13a3,3,0,0,1-2.64,1.26c-1.77,0-2.56-.81-2.56-2.2,0-1.76,1.17-2.36,2.94-2.36h2.26v-.62c0-.89-.31-1.51-1.82-1.51a8.41,8.41,0,0,0-1.63.16v-1a13.67,13.67,0,0,1,1.68-.11C74.72,19.41,75.33,20.37,75.33,21.7Zm-1.18,3V23.47H72c-1.22,0-1.79.25-1.79,1.4,0,.81.39,1.24,1.44,1.24A2.58,2.58,0,0,0,74.15,24.69Z"/><path class="cls-3" d="M76.74,25.46V16.53h1.18v8.63c0,.74.21.89.69.89a1.91,1.91,0,0,0,.56-.07v1a3.34,3.34,0,0,1-.78.08C77.29,27,76.74,26.57,76.74,25.46Z"/><path class="cls-3" d="M81.73,22.2c0-3.68,1.73-4.9,4.48-4.9a6.79,6.79,0,0,1,2.05.27v1.14a5.78,5.78,0,0,0-2-.33c-2.16,0-3.21.95-3.21,3.79,0,3,1,3.81,3.09,3.81a6.42,6.42,0,0,0,2.26-.37v1.07a5.81,5.81,0,0,1-2.3.41C83.45,27.09,81.73,26.17,81.73,22.2Z"/><path class="cls-3" d="M95.15,21.83V27H94V22.27c0-1.14-.25-1.8-1.43-1.8A2,2,0,0,0,90.29,22v5H89.11V16.53h1.18v4.08a2.44,2.44,0,0,1,2.37-1.2C94.6,19.41,95.15,20.41,95.15,21.83Z"/><path class="cls-3" d="M102.37,21.7V27h-1l-.18-1.13a3,3,0,0,1-2.65,1.26c-1.76,0-2.55-.81-2.55-2.2,0-1.76,1.17-2.36,2.94-2.36h2.26v-.62c0-.89-.31-1.51-1.82-1.51a8.41,8.41,0,0,0-1.63.16v-1a13.67,13.67,0,0,1,1.68-.11C101.75,19.41,102.37,20.37,102.37,21.7Zm-1.18,3V23.47H99c-1.22,0-1.8.25-1.8,1.4,0,.81.4,1.24,1.45,1.24A2.58,2.58,0,0,0,101.19,24.69Z"/><path class="cls-3" d="M109.82,21.83V27h-1.2V22.27c0-1.14-.23-1.8-1.41-1.8A2,2,0,0,0,105,22v5h-1.18V19.55H105v1.06a2.44,2.44,0,0,1,2.37-1.2C109.27,19.41,109.82,20.41,109.82,21.83Z"/><path class="cls-3" d="M117.19,21.83V27H116V22.27c0-1.14-.23-1.8-1.41-1.8A2,2,0,0,0,112.34,22v5h-1.18V19.55h1.18v1.06a2.44,2.44,0,0,1,2.37-1.2C116.65,19.41,117.19,20.41,117.19,21.83Z"/><path class="cls-3" d="M124.35,23.38l-5,.31c0,1.62.58,2.36,2.37,2.36a5.8,5.8,0,0,0,2.32-.48v1.09a6.63,6.63,0,0,1-2.49.43c-2.19,0-3.43-.89-3.43-3.84s1.24-3.84,3.36-3.84c2.52,0,3,1.66,3,3.1C124.42,22.72,124.39,23,124.35,23.38Zm-1.1-.85c0-1.14-.19-2.14-1.79-2.14s-2.09.91-2.13,2.42Z"/><path class="cls-3" d="M125.36,25.46V16.53h1.18v8.63c0,.74.21.89.69.89a1.91,1.91,0,0,0,.56-.07v1A3.34,3.34,0,0,1,127,27C125.91,27,125.36,26.57,125.36,25.46Z"/><g id="Page-1"><g id="flags"><g id="turkey"><circle id="red" class="cls-3" cx="21.72" cy="21.66" r="14.85"/><path id="white" class="cls-4" d="M29.11,23.06,28,24.24l-.23-1.63-1.48-.73,1.48-.73L28,19.53l1.15,1.17,1.62-.27L30,21.88l.76,1.46-1.62-.28Zm-3.2,2.2a7.43,7.43,0,1,1,0-7.21,5.78,5.78,0,1,0,0,7.21Z"/></g></g></g><path class="cls-5" d="M22,6.58a15.24,15.24,0,0,0-1.9,30.36,7.63,7.63,0,0,0,1.56.14,4.07,4.07,0,0,0,.5,0A15.24,15.24,0,0,0,22,6.58Zm-2.41,29.1A14,14,0,0,1,8.05,21.93a14.35,14.35,0,0,1,.29-2.88,1.49,1.49,0,0,0,2.38-.34c.62.37,1.45.44,1.45,1.18,0,2.44.09,5.05,2.3,5.09a3.16,3.16,0,0,1,1.8,1.9c.19.5,1,0,1.79,0,.42,0,0,.7,0,2.23S21.34,33,21.34,33a16,16,0,0,0,.11,2.47,5.2,5.2,0,0,0-1.85.25Zm5.87-.32c-.08-.35-.39-.55-1-.4.46-2,.68-3.06,1.65-3.9a1.3,1.3,0,0,0-.9-2.39c-.83.13-.31-1-1-1.1S22.47,26,21.4,25.52c-.57-.27-1.13-1-2-1s-1.91.66-1.91.13c0-1.71-.18-2.93-.21-3.42s-.26-.13.79-.1c.57,0,.3-1.15.86-1.2s1.88.52,2.22.3,2.31,5.23,2.31.9c0-.52-.27-1.41,0-1.9,1.05-1.92,2-3.49,1.95-3.72a2.93,2.93,0,0,0-1.9,0c-.28.1.09.53-.31.62-1.49.35-2.81-.4-2.35-1.1s2.19-.32,2.34-1.76c.08-.83.15-1.78.2-2.49,2,.31,1.79-2.61-1.2-2.92a14,14,0,0,1,13,9.38.59.59,0,0,0-.33-.15c-.91-2.25-3.1-.62-2.35,1.37-4,3.06-3,5.19-1.66,6.41a11.57,11.57,0,0,1,1.77,2.31c-.46,1.35,1.72.81,2.79-1.49a14,14,0,0,1-10,9.66Zm9.32-16.28a13.33,13.33,0,0,1,.29,3,16.6,16.6,0,0,0-.3-2.23c0-.26,0-.5,0-.73Z"/></g></g></svg>