<svg xmlns="http://www.w3.org/2000/svg" xmlns:xlink="http://www.w3.org/1999/xlink" viewBox="0 0 136 44"><defs><style>.cls-1{fill:#fff;}.cls-2{fill:#585858;}.cls-3{fill:#555;}.cls-4{fill:#565656;}.cls-5{fill:url(#未命名的渐变_84);}.cls-6{fill:url(#未命名的渐变_84-2);}.cls-7{fill:url(#未命名的渐变_98);}.cls-8{fill:url(#未命名的渐变_86);}.cls-9{fill:url(#未命名的渐变_84-3);}.cls-10{fill:url(#未命名的渐变_99);}.cls-11{fill:url(#未命名的渐变_84-4);}.cls-12{fill:url(#未命名的渐变_84-5);}.cls-13{fill:url(#未命名的渐变_106);}</style><linearGradient id="未命名的渐变_84" x1="20.88" y1="11.67" x2="20.88" y2="6.34" gradientUnits="userSpaceOnUse"><stop offset="0" stop-color="#02bfda"/><stop offset="1" stop-color="#008aad"/></linearGradient><linearGradient id="未命名的渐变_84-2" x1="5.28" y1="21.44" x2="12.9" y2="13.81" xlink:href="#未命名的渐变_84"/><linearGradient id="未命名的渐变_98" x1="7.33" y1="22.28" x2="34.33" y2="22.28" gradientUnits="userSpaceOnUse"><stop offset="0" stop-color="#008aad"/><stop offset="0.51" stop-color="#02beda"/><stop offset="1" stop-color="#008aad"/></linearGradient><linearGradient id="未命名的渐变_86" x1="26.38" y1="25.66" x2="26.38" y2="33.17" gradientUnits="userSpaceOnUse"><stop offset="0" stop-color="#03c0dc"/><stop offset="1" stop-color="#0299ba"/></linearGradient><linearGradient id="未命名的渐变_84-3" x1="20.88" y1="37.66" x2="20.88" y2="32.33" xlink:href="#未命名的渐变_84"/><linearGradient id="未命名的渐变_99" x1="32.12" y1="33.17" x2="32.12" y2="20.51" gradientUnits="userSpaceOnUse"><stop offset="0" stop-color="#03c0dc"/><stop offset="1" stop-color="#029cbb"/></linearGradient><linearGradient id="未命名的渐变_84-4" x1="29.88" y1="17.53" x2="29.88" y2="10.87" xlink:href="#未命名的渐变_84"/><linearGradient id="未命名的渐变_84-5" x1="7.27" y1="29.73" x2="16.39" y2="29.73" xlink:href="#未命名的渐变_84"/><linearGradient id="未命名的渐变_106" x1="7.29" y1="14.62" x2="22.38" y2="14.62" gradientUnits="userSpaceOnUse"><stop offset="0" stop-color="#02bfda"/><stop offset="1" stop-color="#0095bb"/></linearGradient></defs><title>资源 41</title><g id="图层_2" data-name="图层 2"><g id="图层_1-2" data-name="图层 1"><rect class="cls-1" width="136" height="44" rx="2"/><path class="cls-2" d="M77.91,18.65H75.2V16.21l-.12,0c-.25.33-.5.66-.74,1-1.15,1.6-2.3,3.21-3.47,4.8a.55.55,0,0,0,0,.78c1.42,1.93,2.82,3.88,4.22,5.83a2.11,2.11,0,0,1,.11.22c-1.17,0-2.28,0-3.4,0-.13,0-.28-.18-.37-.31-.79-1.07-1.56-2.14-2.34-3.22l-.29-.39c-.24.33-.47.63-.68.93-.66.91-1.31,1.83-2,2.73a.65.65,0,0,1-.44.27c-3.48,0-6.95,0-10.43,0a.33.33,0,0,1-.12-.05V16l.45,0h10a.71.71,0,0,1,.66.34c.76,1.08,1.54,2.16,2.32,3.23l.27.35,1.26-1.74c.44-.61.89-1.22,1.32-1.85a.67.67,0,0,1,.62-.33c1.11,0,2.21,0,3.32,0V17.5c0,1,0,1,1,1,.53,0,1,.06,1.58.1ZM61.57,20.93v2.5H58.15v2.85h4.27v2.39a2.85,2.85,0,0,0,.22-.24q2.1-2.92,4.21-5.84c.17-.22.09-.35,0-.53l-4.1-5.69a2.91,2.91,0,0,1-.17-.3l-.15.09v2.29H58.15v2.48Z"/><path class="cls-2" d="M43.22,28.78V16s.06-.06.09-.06c1.83,0,3.67,0,5.49.09a5.9,5.9,0,0,1,5.31,5.06,6.31,6.31,0,0,1-3,6.78,6.12,6.12,0,0,1-2.93.86c-1.52,0-3,0-4.55.06Zm3-10.34v7.82c1.68,0,3.34,0,4.29-1.65a4.12,4.12,0,0,0,0-4.54C49.51,18.52,47.92,18.38,46.24,18.44Z"/><path class="cls-3" d="M77.91,18.65v-.06c.55,0,1.09.07,1.64.09s.92,0,1.39,0V28c0,.6,0,.6-.63.6h-1.7a2.47,2.47,0,0,0-.43.11c-.34.1-.27-.16-.27-.33V18.65Z"/><path class="cls-4" d="M80.94,18.68c-.47,0-.93,0-1.39,0s-1.09-.06-1.64-.09-1-.09-1.58-.1c-1,0-1,0-1-1V16c2.32,0,4.64,0,7,0a.48.48,0,0,1,.34.18c.5.78,1,1.57,1.49,2.36-.85,0-1.7,0-2.55,0a2,2,0,0,0-.47.12v0h-.17Z"/><path class="cls-2" d="M80.94,18.68h.14V28.74h-2.9a2.47,2.47,0,0,1,.43-.11h1.7c.62,0,.63,0,.63-.6Z"/><path class="cls-2" d="M81.11,18.62a2,2,0,0,1,.47-.12c.85,0,1.7,0,2.55,0a.94.94,0,0,1-.33.14Z"/><polygon class="cls-5" points="20.92 6.34 14.85 9.42 19.33 11.67 20.87 10.89 22.27 11.61 26.9 9.41 20.92 6.34"/><polygon class="cls-6" points="11.86 21.21 7.35 23.52 7.3 13.07 11.75 12.71 11.84 12.75 11.86 21.21"/><polygon class="cls-7" points="7.33 26.29 30.71 14.93 34.33 17.53 9.94 29.63 7.33 26.29"/><polygon class="cls-8" points="19.35 27.88 23.92 25.66 33.42 30.33 29.85 33.17 19.35 27.88"/><path class="cls-9" d="M14.82,34.57l4.54-2.24,1.43.76,1.57-.76,4.57,2.25-6.09,3.08Z"/><polygon class="cls-10" points="29.86 22.69 34.37 20.51 34.39 30.92 29.84 33.17 29.86 22.69"/><polygon class="cls-11" points="25.36 13.11 29.93 10.87 34.39 13.09 34.33 17.53 25.36 13.11"/><polygon class="cls-12" points="7.27 30.84 7.33 26.29 16.39 30.84 11.88 33.17 7.27 30.84"/><polygon class="cls-13" points="7.29 13.07 11.9 10.85 22.38 16.07 17.85 18.4 7.29 13.07"/><path class="cls-2" d="M89.74,29c-3.62,0-6.27-2.6-6.27-6.56,0-3.76,2.26-6.56,6.27-6.56s6.26,3,6.26,6.56C96,26.38,93.45,29,89.74,29Zm-.06-10.68c-1.9,0-3.22,1.59-3.22,4.12s1.42,4.06,3.21,4.06c2,0,3.19-1.51,3.19-4.06S91.66,18.32,89.68,18.32Z"/><path class="cls-2" d="M102.3,29C98.68,29,96,26.4,96,22.44c0-3.76,2.25-6.56,6.27-6.56s6.25,3,6.25,6.56C108.55,26.38,106,29,102.3,29Zm-.06-10.68c-1.91,0-3.23,1.59-3.23,4.12s1.43,4.06,3.21,4.06c2,0,3.2-1.51,3.2-4.06S104.22,18.32,102.24,18.32Z"/><path class="cls-2" d="M108.92,28.77V16.05h2.84V26.46h6.51v2.31Z"/><path class="cls-2" d="M120.9,24.14c.27,1.8,1.19,2.62,2.85,2.62,1.3,0,2-.66,2-1.51,0-.66-.28-1.18-1.32-1.59a16.68,16.68,0,0,0-2.49-.74c-2.47-.57-3.38-1.71-3.38-3.61s1.82-3.43,4.63-3.43c3.19,0,4.69,1.2,5.26,3.56l-2.8.52a2.05,2.05,0,0,0-2.33-1.84c-1.22,0-1.77.6-1.77,1.2s.48,1.17,2.2,1.57a11.93,11.93,0,0,1,3,1,3.63,3.63,0,0,1,2.07,3.23c0,2.15-1.54,3.86-5,3.86s-5.11-1.46-5.73-4.3Z"/></g></g></svg>