<svg xmlns="http://www.w3.org/2000/svg" viewBox="0 0 136 44"><defs><style>.cls-1{fill:#1e8bca;}.cls-2,.cls-4,.cls-5{fill:#fff;}.cls-2{opacity:0.4;}.cls-3{fill:#db4b35;}.cls-4{fill-rule:evenodd;}</style></defs><title>资源 10</title><g id="图层_2" data-name="图层 2"><g id="图层_1-2" data-name="图层 1"><rect class="cls-1" width="136" height="44" rx="2"/><path class="cls-2" d="M125.47,39,129,22.44c.31-1.45-.53-2-1.49-1.67l-20.63,8c-1.41.55-1.39,1.34-.24,1.7l5.28,1.65,12.25-7.72c.57-.38,1.1-.16.67.22l-9.91,9L114.54,39a1.37,1.37,0,0,0,1.07-.52L118.19,36l5.35,3.94c1,.55,1.67.27,1.94-.9Z"/><g id="Page-1"><g id="flags"><g id="turkey"><circle id="red" class="cls-3" cx="22.04" cy="22.06" r="15.19"/><path id="white" class="cls-4" d="M29.59,23.49l-1.17,1.2L28.18,23l-1.51-.74,1.51-.75.24-1.66,1.17,1.2,1.66-.28-.78,1.49.78,1.48-1.66-.28Zm-3.27,2.25a7.6,7.6,0,1,1,0-7.37,5.91,5.91,0,1,0,0,7.37Z"/></g></g></g><path class="cls-5" d="M46.69,24.3v.84a5.06,5.06,0,0,1-.69.06c-1.37,0-1.86-.34-1.86-2V19.78h-.91V19h.91V17.49h1V19h1.53v.83H45.13v3.4c0,1,.13,1.19.89,1.19A2.7,2.7,0,0,0,46.69,24.3Z"/><path class="cls-5" d="M52,19v6.18h-.83L51,24.24a2,2,0,0,1-1.94,1c-1.61,0-2.07-.82-2.07-2V19h1v3.91c0,.94.21,1.51,1.19,1.51A1.64,1.64,0,0,0,51,23.15V19Zm-4-1.71c0-.51.16-.57.59-.57s.57.06.57.57-.17.58-.57.58S47.93,17.74,47.93,17.24Zm2,0c0-.51.16-.57.58-.57s.58.06.58.57-.17.58-.58.58S49.92,17.74,49.92,17.24Z"/><path class="cls-5" d="M56.19,18.84l0,.89H56a1.79,1.79,0,0,0-1.91,1.36v4h-1V19h1v1.12a1.88,1.88,0,0,1,2-1.23Z"/><path class="cls-5" d="M61.38,25.13H60.11l-2.25-2.88h-.33v2.88h-1V16.44h1v5h.35L60,19h1.22l-2.59,2.87Z"/><path class="cls-5" d="M66.17,24.3v.84a5.21,5.21,0,0,1-.7.06c-1.36,0-1.85-.34-1.85-2V19.78H62.7V19h.92V17.49h1V19h1.53v.83H64.6v3.4c0,1,.14,1.19.89,1.19A2.79,2.79,0,0,0,66.17,24.3Z"/><path class="cls-5" d="M66.14,22c0-2.46,1-3.2,2.86-3.2s2.85.74,2.85,3.2-1,3.2-2.85,3.2S66.14,24.5,66.14,22Zm4.67,0c0-1.81-.46-2.38-1.81-2.38s-1.81.57-1.81,2.38.47,2.37,1.81,2.37S70.81,23.85,70.81,22Z"/><path class="cls-5" d="M78.19,22c0,1.7-.48,3.2-2.55,3.2-1.2,0-1.75-.47-2-1.19v3.36h-1V19h1v1.11a1.84,1.84,0,0,1,2-1.22C77.71,18.84,78.19,20.15,78.19,22Zm-1,0c0-1.3-.22-2.38-1.65-2.38s-1.92.91-1.92,2.38.44,2.37,1.92,2.37S77.16,23.24,77.16,22Z"/><path class="cls-5" d="M79,23.88V16.44h1v7.19c0,.62.17.74.57.74a2,2,0,0,0,.47-.05v.81a2.87,2.87,0,0,1-.65.07C79.45,25.2,79,24.81,79,23.88Z"/><path class="cls-5" d="M86.28,19v6.18h-.84l-.12-.89a2,2,0,0,1-1.95,1c-1.61,0-2.06-.82-2.06-2V19h1v3.91c0,.94.2,1.51,1.19,1.51a1.64,1.64,0,0,0,1.82-1.22V19Z"/><path class="cls-5" d="M87.44,23.88V16.44h1v7.19c0,.62.17.74.57.74a2,2,0,0,0,.47-.05v.81a3,3,0,0,1-.66.07C87.9,25.2,87.44,24.81,87.44,23.88Z"/><path class="cls-5" d="M94.72,19v6.18h-.83l-.13-.89a1.94,1.94,0,0,1-1.94,1c-1.61,0-2.07-.82-2.07-2V19h1v3.91c0,.94.21,1.51,1.19,1.51a1.63,1.63,0,0,0,1.82-1.22V19Z"/><path class="cls-5" d="M101.08,19v5.74c0,1.71-.93,2.72-3,2.72a8.15,8.15,0,0,1-1.5-.14v-.84a8.15,8.15,0,0,0,1.51.14c1.37,0,2-.56,2-2V24c-.26.72-.82,1.16-2,1.16-2.06,0-2.57-1.26-2.57-3.15,0-1.7.51-3.14,2.57-3.14a1.81,1.81,0,0,1,2,1.27V19Zm-4.79-2.22h.83a1,1,0,0,0,1,.83,1,1,0,0,0,1-.83h.85a1.84,1.84,0,0,1-3.65,0ZM100.13,22c0-1.41-.41-2.32-1.9-2.32S96.59,20.78,96.59,22s.19,2.32,1.64,2.32S100.13,23.46,100.13,22Z"/><path class="cls-5" d="M107.17,19v6.18h-.84l-.12-.89a2,2,0,0,1-1.95,1c-1.61,0-2.06-.82-2.06-2V19h1v3.91c0,.94.2,1.51,1.19,1.51a1.64,1.64,0,0,0,1.82-1.22V19Z"/></g></g></svg>