<svg xmlns="http://www.w3.org/2000/svg" viewBox="0 0 136 44"><defs><style>.cls-1{fill:#fff;}.cls-2{fill:#05e9d0;}.cls-3{fill:#04e9d0;}.cls-4{fill:#555656;}</style></defs><title>资源 48</title><g id="图层_2" data-name="图层 2"><g id="图层_1-2" data-name="图层 1"><rect class="cls-1" width="136" height="44" rx="2"/><path class="cls-2" d="M12.61,33.3H7.25V10.68h5.36v8.53h7.53V10.68h5.4V33.29H20.19V24.77H12.61Z"/><path class="cls-3" d="M36.89,33.32a9.71,9.71,0,1,1,9.82-9.74A9.74,9.74,0,0,1,36.89,33.32ZM37,19.37a4.25,4.25,0,1,0,0,8.5,4.25,4.25,0,1,0,0-8.5Z"/><path class="cls-3" d="M67.79,23.6a9.77,9.77,0,0,1-19.53,0,9.77,9.77,0,0,1,19.53,0Zm-5.49,0a4.27,4.27,0,1,0-8.53.06,4.27,4.27,0,0,0,8.53-.06Z"/><path class="cls-4" d="M82,19.35V29.69H80.62v-5H75.51v5H74.16V19.35h1.35v4.21h5.11V19.35Z"/><path class="cls-4" d="M83.34,25.67c0-3.21,1.35-4.18,3.72-4.18s3.71,1,3.71,4.18-1.32,4.17-3.71,4.17S83.34,28.87,83.34,25.67Zm6.08,0c0-2.36-.6-3.1-2.36-3.1s-2.35.74-2.35,3.1.61,3.08,2.35,3.08S89.42,28,89.42,25.67Z"/><path class="cls-4" d="M91.66,25.67c0-3.21,1.35-4.18,3.72-4.18s3.72,1,3.72,4.18-1.33,4.17-3.72,4.17S91.66,28.87,91.66,25.67Zm6.08,0c0-2.36-.6-3.1-2.36-3.1S93,23.31,93,25.67s.61,3.08,2.35,3.08S97.74,28,97.74,25.67Z"/><path class="cls-4" d="M99.8,28.83c0-.81.25-.93,1-.93s1,.12,1,.93-.27,1-1,1S99.8,29.66,99.8,28.83Z"/><path class="cls-4" d="M102.4,25.67c0-3.21,1.35-4.18,3.72-4.18a6.9,6.9,0,0,1,2.1.3V23a5.61,5.61,0,0,0-2.08-.36c-1.78,0-2.37.7-2.37,3.07s.59,3,2.38,3a5.71,5.71,0,0,0,2.1-.35v1.18a7.55,7.55,0,0,1-2.13.3C103.75,29.84,102.4,28.87,102.4,25.67Z"/><path class="cls-4" d="M108.91,25.67c0-3.21,1.36-4.18,3.73-4.18s3.71,1,3.71,4.18-1.33,4.17-3.71,4.17S108.91,28.87,108.91,25.67Zm6.08,0c0-2.36-.59-3.1-2.35-3.1s-2.36.74-2.36,3.1.61,3.08,2.36,3.08S115,28,115,25.67Z"/><path class="cls-4" d="M128.8,24.13v5.56h-1.28v-5.1c0-1.23-.35-1.95-1.55-1.95a1.89,1.89,0,0,0-2.09,1.42v5.63H122.6v-5.1c0-1.23-.3-1.95-1.48-1.95A1.88,1.88,0,0,0,119,24.1v5.59h-1.28v-8H119V22.7a2.36,2.36,0,0,1,2.33-1.21,2.29,2.29,0,0,1,2.34,1.31,2.51,2.51,0,0,1,2.5-1.31A2.37,2.37,0,0,1,128.8,24.13Z"/></g></g></svg>