<svg xmlns="http://www.w3.org/2000/svg" viewBox="0 0 136 44"><defs><style>.cls-1{fill:#fff;}.cls-2{fill:#3c57a5;}</style></defs><title>资源 5</title><g id="图层_2" data-name="图层 2"><g id="图层_1-2" data-name="图层 1"><rect class="cls-1" width="136" height="44" rx="2"/><rect class="cls-1" width="136" height="44" rx="2"/><path class="cls-2" d="M54.59,29.43V11.8h8.58a5.56,5.56,0,0,1,4.33,1.57,4.24,4.24,0,0,1,1.1,2.94,4,4,0,0,1-.78,2.6,4.24,4.24,0,0,1-1.38,1,3.94,3.94,0,0,1,2.16,1.77,5.21,5.21,0,0,1-.95,6.15A4.85,4.85,0,0,1,65.85,29a12.22,12.22,0,0,1-3.79.45Zm3.54-14.58v3.83h4.33a3.25,3.25,0,0,0,1.84-.44,1.69,1.69,0,0,0,.76-1.51,1.58,1.58,0,0,0-.69-1.46,3.88,3.88,0,0,0-2-.42Zm0,6.81v4.72h4.52a3.15,3.15,0,0,0,2.11-.63,2.46,2.46,0,0,0,.72-1.95,1.81,1.81,0,0,0-.76-1.61,3.19,3.19,0,0,0-1.89-.53Z"/><path class="cls-2" d="M75.35,12.51v3H72.08v-3ZM72.08,17h3.27V29.43H72.08Z"/><path class="cls-2" d="M82.14,13.65V17h2v2.34h-2v6.74a1.11,1.11,0,0,0,.21.8c.14.14.52.2,1.14.2h.68v2.43l-1.54.05h-.42a4,4,0,0,1-2.73-.73,2.62,2.62,0,0,1-.61-2V19.35H77.19V17h1.68V13.65Z"/><path class="cls-2" d="M89.3,17v1.8a5.36,5.36,0,0,1,1.28-1.42,4.22,4.22,0,0,1,2.48-.7,4.64,4.64,0,0,1,3.59,1.58,7,7,0,0,1,1.56,4.81A8.09,8.09,0,0,1,97,27.7a4.55,4.55,0,0,1-4,2.05,4,4,0,0,1-2.45-.7,3.84,3.84,0,0,1-1.05-1.21l0,6.42H86.17V17Zm0,6.49A4.32,4.32,0,0,0,90,26a2.52,2.52,0,0,0,2.22,1.1,2.29,2.29,0,0,0,2.12-1.33,4.9,4.9,0,0,0,.56-2.43,5.07,5.07,0,0,0-.6-2.63,2.35,2.35,0,0,0-2.17-1.17,2.33,2.33,0,0,0-2.22,1.24A5.7,5.7,0,0,0,89.3,23.5Z"/><path class="cls-2" d="M103.86,12.51v3h-3.27v-3ZM100.59,17h3.27V29.43h-3.27Z"/><path class="cls-2" d="M114.29,25.79h3.36a5.28,5.28,0,0,1-2.24,3.1,6,6,0,0,1-3.22.86,6.15,6.15,0,0,1-4.41-1.47C106.6,27.15,106,25.37,106,23a7.21,7.21,0,0,1,.93-3.68,5.34,5.34,0,0,1,5-2.59A5.62,5.62,0,0,1,115.78,18q2,1.73,2,5.55v.59h-8.52a3.76,3.76,0,0,0,.87,2.33,2.75,2.75,0,0,0,2,.7,2.61,2.61,0,0,0,1.32-.35A1.7,1.7,0,0,0,114.29,25.79ZM109.37,22h5.06a2.87,2.87,0,0,0-.93-2.05,2.39,2.39,0,0,0-1.59-.56,2.31,2.31,0,0,0-1.77.68A3.25,3.25,0,0,0,109.37,22Z"/><path class="cls-2" d="M34,8.83A13.15,13.15,0,1,0,47.14,22,13.15,13.15,0,0,0,34,8.83ZM34,32a10.06,10.06,0,1,1,10-10A10.05,10.05,0,0,1,34,32Z"/><rect class="cls-2" x="30.21" y="16.65" width="2.92" height="13.02" rx="1.46" transform="translate(-7.34 18.94) rotate(-30)"/><rect class="cls-2" x="33.83" y="17.57" width="2.92" height="13.02" rx="1.46" transform="translate(38.5 -18.51) rotate(60)"/><rect class="cls-2" x="31.14" y="12.99" width="2.92" height="13.02" rx="1.46" transform="translate(33.18 -18.48) rotate(60)"/><rect class="cls-2" x="34.77" y="13.93" width="2.92" height="13.02" rx="1.46" transform="translate(-5.37 20.86) rotate(-30)"/><path class="cls-2" d="M44.12,6.41H23.48a5.28,5.28,0,0,0-5.27,5.27V32.32a5.28,5.28,0,0,0,5.27,5.27H44.12a5.28,5.28,0,0,0,5.27-5.27V11.68A5.28,5.28,0,0,0,44.12,6.41ZM34.45,33.67A11.31,11.31,0,1,1,45.76,22.36,11.31,11.31,0,0,1,34.45,33.67Z"/></g></g></svg>