<svg xmlns="http://www.w3.org/2000/svg" xmlns:xlink="http://www.w3.org/1999/xlink" viewBox="0 0 136 44"><defs><style>.cls-1,.cls-3{fill:#fff;}.cls-2{fill:#173160;}.cls-3,.cls-4,.cls-5,.cls-6{fill-rule:evenodd;}.cls-4{fill:#17305e;}.cls-5{fill:url(#未命名的渐变_7);}.cls-6{fill:url(#未命名的渐变_6);}</style><linearGradient id="未命名的渐变_7" x1="22.2" y1="-1426.78" x2="22.2" y2="-1408.54" gradientTransform="matrix(1, 0, 0, -1, 0, -1395.69)" gradientUnits="userSpaceOnUse"><stop offset="0" stop-color="#17305e"/><stop offset="1" stop-color="#17305e" stop-opacity="0.01"/></linearGradient><linearGradient id="未命名的渐变_6" x1="12.05" y1="-1426.78" x2="12.05" y2="-1408.54" gradientTransform="matrix(1, 0, 0, -1, 0, -1395.69)" gradientUnits="userSpaceOnUse"><stop offset="0" stop-color="#17305e" stop-opacity="0.01"/><stop offset="1" stop-color="#17305e"/></linearGradient></defs><title>资源 22</title><g id="图层_2" data-name="图层 2"><g id="图层_1-2" data-name="图层 1"><rect class="cls-1" width="136" height="44" rx="2"/><path class="cls-2" d="M37.1,27.2a4.48,4.48,0,0,1-3.4-1.5,5.34,5.34,0,0,1,0-7.1,4.74,4.74,0,0,1,7.1.2l-1.3,1.5A3.09,3.09,0,0,0,37.1,19a2.42,2.42,0,0,0-1.9,1,2.7,2.7,0,0,0-.7,2.1,3.41,3.41,0,0,0,.7,2.2,2.52,2.52,0,0,0,2,.9A3.3,3.3,0,0,0,39.6,24l1.3,1.3A4.74,4.74,0,0,1,37.1,27.2Z"/><path class="cls-2" d="M44.9,27.2H42.8v-10h2.1v2.4a3.45,3.45,0,0,1,3.3-2.4v2.3h-.1c-1.8,0-3.1,1.3-3.1,3.8Z"/><path class="cls-2" d="M59.2,17.1,54.5,29.8H52.4l1-2.7-4-10h2.2l2.7,7.4,2.6-7.4Z"/><path class="cls-2" d="M65.9,27.2a3.56,3.56,0,0,1-3.1-1.7v4.4H60.7V17.1h2.1v1.8a3.53,3.53,0,0,1,3.1-1.8,4.49,4.49,0,0,1,4.3,4.7v.3C70.1,25.3,68,27.2,65.9,27.2Zm-.5-8.1a2.88,2.88,0,0,0-2,.9,2.83,2.83,0,0,0-.7,2.1,2.58,2.58,0,0,0,.7,2.1,2.43,2.43,0,0,0,3.5.4c.2-.1.3-.3.4-.4a2.74,2.74,0,0,0,.6-2.1,2.7,2.7,0,0,0-.7-2.1,2.43,2.43,0,0,0-1.8-.9Z"/><path class="cls-2" d="M74.8,19.2v4.7a1.4,1.4,0,0,0,.3.9.83.83,0,0,0,.8.3h.9v2H75.3c-1.5,0-2.6-.7-2.6-2.8v-5H71.5V17.4h1.2V14.8h2.1v2.6h2v1.9h-2Z"/><path class="cls-2" d="M83.4,27.2A4.33,4.33,0,0,1,80,25.7a5.25,5.25,0,0,1,.3-7.5l1.2-.9a4.92,4.92,0,0,1,5.4,1,5.26,5.26,0,0,1-3.5,8.9Zm0-8.1a2.52,2.52,0,0,0-2,.9,3.49,3.49,0,0,0-.8,2.2,3,3,0,0,0,.8,2.2,2.66,2.66,0,0,0,2,.9,2.52,2.52,0,0,0,2-.9,3.49,3.49,0,0,0,.8-2.2,3,3,0,0,0-.8-2.2A2.52,2.52,0,0,0,83.4,19.1Z"/><path class="cls-2" d="M108.5,27.2a4.69,4.69,0,0,1-3.5-1.5,4.75,4.75,0,0,1-1.5-3.6,5,5,0,0,1,8.4-3.8A5.21,5.21,0,0,1,113,24,5,5,0,0,1,108.5,27.2Zm0-8.1a2.52,2.52,0,0,0-2,.9,2.93,2.93,0,0,0-.7,2.2,3,3,0,0,0,.8,2.2,2.66,2.66,0,0,0,2,.9,2.52,2.52,0,0,0,2-.9,2.93,2.93,0,0,0,.7-2.2,3,3,0,0,0-.8-2.2,2.52,2.52,0,0,0-2-.9Z"/><path class="cls-2" d="M125.9,17.1c2,0,3.2,1.3,3.2,3.7v6.4H127V21.5c0-1.5-.7-2.3-1.9-2.3s-2,.8-2,2.4v5.7H121V21.6c0-1.5-.7-2.3-1.9-2.3s-2,.9-2,2.4v5.6H115v-10h2.1V19a3.29,3.29,0,0,1,2.8-1.7,2.62,2.62,0,0,1,2.7,1.7A4,4,0,0,1,125.9,17.1Z"/><path class="cls-2" d="M92.2,25.1v1.2l-.9.6h-.1l-.9-.5V25.1l.9-.6h.1l.9.6Z"/><path class="cls-2" d="M98.5,27.2a4.86,4.86,0,0,1-3.4-1.5,5.34,5.34,0,0,1,.1-7.1,4.85,4.85,0,0,1,7.1.3L101,20.4a3.23,3.23,0,0,0-2.4-1.3,2.88,2.88,0,0,0-2,.9,2.7,2.7,0,0,0-.7,2.1,2.93,2.93,0,0,0,.7,2.2,2.61,2.61,0,0,0,2,1,3.19,3.19,0,0,0,2.4-1.1l1.2,1.3A4.14,4.14,0,0,1,98.5,27.2Z"/><path class="cls-3" d="M17.1,10.4,6.9,16.2V27.8l10.2,5.8,10.2-5.8V16.2Z"/><path class="cls-4" d="M17.1,10.4,6.9,16.2V27.8l10.2,5.8,10.2-5.8V16.2Zm-4,5h8l1,4H12.2Zm2.3,6.9L14.5,20h5.2l-.8,2.3.2,2.5h-4Zm2.5,5.2v-.8L19.7,25V22.3L22,20.8l2.7,2-3.6,6.3H19.6ZM9.4,22.8l2.7-2,2.4,1.5V25l1.8,1.7v.8l-1.7,1.6H13.1Z"/><path class="cls-5" d="M21.1,29.1H19.6l-1.7-1.5v-.8l1.8-1.7V22.4L22,20.9l2.7,2Zm-4-18.7v5h4l1,4h-5V20h2.6l-.8,2.3.2,2.5h-2v8.8l10.2-5.8V16.2Z"/><path class="cls-6" d="M16.3,27.5l-1.7,1.6H13.1L9.4,22.8l2.7-2,2.4,1.5V25l1.8,1.7Zm-1.1-2.7.3-2.5L14.6,20h2.6v-.6h-5l.9-4h4v-5L6.9,16.2V27.8l10.2,5.8V24.8Z"/></g></g></svg>