<svg xmlns="http://www.w3.org/2000/svg" viewBox="0 0 136 44"><defs><style>.cls-1{fill:#1e8bca;}.cls-2,.cls-3,.cls-4{fill:#fff;}.cls-2{opacity:0.4;}.cls-4{fill-rule:evenodd;}.cls-5{fill:#1f64c9;}</style></defs><title>资源 14</title><g id="图层_2" data-name="图层 2"><g id="图层_1-2" data-name="图层 1"><rect class="cls-1" width="136" height="44" rx="2"/><path class="cls-2" d="M125.47,39,129,22.44c.31-1.45-.53-2-1.49-1.67l-20.63,8c-1.41.55-1.39,1.34-.24,1.7l5.28,1.65,12.25-7.72c.57-.38,1.1-.16.67.22l-9.91,9L114.54,39a1.37,1.37,0,0,0,1.07-.52L118.19,36l5.35,3.94c1,.55,1.67.27,1.94-.9Z"/><g id="Page-1"><g id="flags"><g id="turkey"><circle id="red" class="cls-3" cx="21.61" cy="21.89" r="14.85"/><path id="white" class="cls-4" d="M29,23.3l-1.15,1.17-.23-1.62-1.48-.73,1.48-.73.23-1.63L29,20.94l1.62-.28-.76,1.46.76,1.45L29,23.3Zm-3.2,2.2a7.43,7.43,0,1,1,0-7.21,5.78,5.78,0,1,0,0,7.21Z"/></g></g></g><path class="cls-5" d="M21.89,6.82A15.24,15.24,0,0,0,20,37.18a7.63,7.63,0,0,0,1.56.14,4.07,4.07,0,0,0,.5,0,15.24,15.24,0,0,0-.16-30.47Zm-2.4,29.1A14,14,0,0,1,7.94,22.16a14.25,14.25,0,0,1,.29-2.87A1.49,1.49,0,0,0,10.61,19c.62.37,1.45.44,1.45,1.18,0,2.44.09,5.05,2.3,5.09a3.16,3.16,0,0,1,1.8,1.9c.19.5,1,0,1.79,0,.42,0,0,.7,0,2.22s3.28,3.86,3.28,3.86a15.88,15.88,0,0,0,.11,2.46,5.42,5.42,0,0,0-1.85.26Zm5.86-.32c-.08-.36-.39-.55-1-.4.46-2,.68-3.06,1.65-3.9a1.3,1.3,0,0,0-.9-2.39c-.83.13-.3-1-1.05-1.1s-1.72-1.55-2.79-2.06c-.57-.27-1.13-1-2-1s-1.91.65-1.91.12c0-1.7-.18-2.92-.21-3.41s-.26-.13.79-.11c.58,0,.3-1.15.86-1.19s1.88.52,2.22.3,2.31,5.23,2.31.89c0-.51-.27-1.4,0-1.89,1.05-1.92,2-3.49,1.95-3.72a2.86,2.86,0,0,0-1.9,0c-.28.09.09.53-.31.62-1.49.34-2.81-.4-2.35-1.1s2.19-.32,2.34-1.76c.08-.83.15-1.78.2-2.5,2,.32,1.79-2.6-1.2-2.91a14,14,0,0,1,13,9.38.53.53,0,0,0-.33-.15c-.91-2.26-3.1-.63-2.35,1.36-4,3.06-3,5.2-1.66,6.42a11.29,11.29,0,0,1,1.77,2.31c-.46,1.35,1.72.81,2.79-1.49a14,14,0,0,1-10,9.66Zm9.32-16.28A13.3,13.3,0,0,1,35,22.27a16.45,16.45,0,0,0-.3-2.22c0-.26,0-.51,0-.73Z"/><path class="cls-3" d="M43.16,21.35c0-3.06,1.44-4.08,3.84-4.08a6.18,6.18,0,0,1,2.07.31v.91a5.88,5.88,0,0,0-2-.32c-1.77,0-2.8.61-2.8,3.18s1,3.2,2.76,3.2a5.74,5.74,0,0,0,1.29-.15V21.94H46.7v-.87h2.57v4a8,8,0,0,1-2.39.33C44.57,25.44,43.16,24.67,43.16,21.35Z"/><path class="cls-3" d="M50.3,24.08V16.63h1v7.2c0,.61.17.74.57.74a1.6,1.6,0,0,0,.47-.06v.82a2.93,2.93,0,0,1-.65.06C50.76,25.39,50.3,25,50.3,24.08Z"/><path class="cls-3" d="M52.29,22.24c0-2.46,1.05-3.21,2.87-3.21S58,19.78,58,22.24s-1,3.2-2.84,3.2S52.29,24.7,52.29,22.24Zm4.67,0c0-1.81-.45-2.38-1.8-2.38s-1.81.57-1.81,2.38.47,2.37,1.81,2.37S57,24,57,22.24Z"/><path class="cls-3" d="M64.36,22.24c0,1.7-.48,3.2-2.55,3.2-1.21,0-1.76-.47-2-1.19l-.12,1.08h-.86v-8.7h1v3.63a1.85,1.85,0,0,1,2-1.23C63.88,19,64.36,20.35,64.36,22.24Zm-1,0c0-1.3-.22-2.38-1.65-2.38s-1.92.9-1.92,2.38.43,2.37,1.92,2.37S63.33,23.44,63.33,22.24Z"/><path class="cls-3" d="M70.08,20.94v4.39h-.84l-.14-.94a2.51,2.51,0,0,1-2.21,1.05c-1.48,0-2.13-.67-2.13-1.84,0-1.47,1-2,2.45-2H69.1v-.52c0-.74-.27-1.25-1.53-1.25a7.26,7.26,0,0,0-1.36.13v-.87A13.52,13.52,0,0,1,67.62,19C69.56,19,70.08,19.83,70.08,20.94Zm-1,2.5v-1H67.28c-1,0-1.5.2-1.5,1.17,0,.67.33,1,1.2,1A2.18,2.18,0,0,0,69.1,23.44Z"/><path class="cls-3" d="M71.26,24.08V16.63h1v7.2c0,.61.17.74.57.74a1.6,1.6,0,0,0,.47-.06v.82a2.87,2.87,0,0,1-.65.06C71.72,25.39,71.26,25,71.26,24.08Z"/><path class="cls-3" d="M75.43,21.35c0-3.06,1.44-4.08,3.83-4.08a6.18,6.18,0,0,1,2.07.31v.91a5.84,5.84,0,0,0-2-.32c-1.77,0-2.8.61-2.8,3.18s1,3.2,2.76,3.2a5.61,5.61,0,0,0,1.29-.15V21.94H79v-.87h2.58v4a8.18,8.18,0,0,1-2.4.33C76.83,25.44,75.43,24.67,75.43,21.35Z"/><path class="cls-3" d="M85.63,19l0,.89h-.14a1.8,1.8,0,0,0-1.91,1.37v4h-1V19.15h1v1.12a1.89,1.89,0,0,1,2-1.24Z"/><path class="cls-3" d="M85.4,22.24c0-2.46,1-3.21,2.87-3.21s2.85.75,2.85,3.21-1,3.2-2.85,3.2S85.4,24.7,85.4,22.24Zm4.67,0c0-1.81-.45-2.38-1.8-2.38s-1.81.57-1.81,2.38.47,2.37,1.81,2.37S90.07,24,90.07,22.24Z"/><path class="cls-3" d="M96.86,19.15v6.18H96l-.13-.9a2,2,0,0,1-2,1c-1.61,0-2.07-.82-2.07-2V19.15h1v3.91c0,.94.2,1.51,1.19,1.51a1.64,1.64,0,0,0,1.82-1.22v-4.2Z"/><path class="cls-3" d="M103.57,22.24c0,1.7-.48,3.2-2.55,3.2-1.21,0-1.76-.47-2-1.19v3.36H98V19.15h1v1.11A1.85,1.85,0,0,1,101,19C103.09,19,103.57,20.35,103.57,22.24Zm-1,0c0-1.31-.22-2.38-1.65-2.38S99,20.76,99,22.24s.43,2.37,1.92,2.37S102.54,23.44,102.54,22.24Z"/></g></g></svg>