<svg xmlns="http://www.w3.org/2000/svg" viewBox="0 0 136 44"><defs><style>.cls-1{fill:#fff;}.cls-2{fill:#191919;}.cls-3{fill:#4a90b8;}.cls-4{fill:#4b8fb7;}</style></defs><title>资源 19</title><g id="图层_2" data-name="图层 2"><g id="图层_1-2" data-name="图层 1"><rect class="cls-1" width="136" height="44" rx="2"/><path class="cls-2" d="M30.2,22a11.14,11.14,0,0,1-7.9,10.4,11.12,11.12,0,0,1-11.6-2.8,9.93,9.93,0,0,1-3.2-8.9,11.14,11.14,0,0,1,7.7-9.1,10.45,10.45,0,0,1,4.3-.6c4.6.5,9,3.3,10.3,8.6A20,20,0,0,1,30.2,22Zm-2.2.6a9.13,9.13,0,0,0-5.8-8.8A9.29,9.29,0,0,0,10.7,18a8.39,8.39,0,0,0,1.8,10.4,9.21,9.21,0,0,0,10.8,1.2A8.41,8.41,0,0,0,28,22.6Z"/><path class="cls-2" d="M119.8,16.1h5a3.45,3.45,0,0,1,3.7,3.1v.4c.2,2.5.1,5,.1,7.5a.64.64,0,0,1-.5.5,10.82,10.82,0,0,1-1.8,0c-.6,0-.7-.2-.7-.7V20.5a2,2,0,0,0-2-2,2.92,2.92,0,0,0-.9.2c-.2.1-.3.5-.3.7v7.2c0,1,0,1-1,1-2,0-2,0-2-2V19.3c0-.6-.2-.8-.8-.8-2.2,0-2.2,0-2.2,2.1v6.1c0,.6-.2.8-.7.8-2.2,0-2.2.1-2.2-2.1V16.8c0-.7.2-.9.9-.9h5.3Z"/><path class="cls-2" d="M51.1,21.8V16.5c0-.6.2-.9.9-.9,1.2.1,2.3,0,3.5.1a5.53,5.53,0,0,1,5.4,5.1c.4,3.1-.7,5.5-3.2,6.7a4.55,4.55,0,0,1-2,.5c-1.3.1-2.5,0-3.8.1-.7,0-.8-.3-.8-.9C51.2,25.3,51.1,23.6,51.1,21.8Zm2.8,0h0v3.1c0,.2.2.5.3.5a7.41,7.41,0,0,0,2.1-.1c2.3-.8,2.6-3,1.9-5.3a3.11,3.11,0,0,0-3.8-1.9c-.3.1-.4.4-.5.6Z"/><path class="cls-2" d="M106.9,16.1a4.87,4.87,0,0,1,5.2,4.3c.5,2.4.2,4.7-1.9,6.3a5.54,5.54,0,0,1-5.8.6,4.58,4.58,0,0,1-2.9-4.5,8.22,8.22,0,0,1,.2-2.7A4.82,4.82,0,0,1,106.9,16.1Zm2.1,7.4a6.92,6.92,0,0,0,0-3.5h0a2.34,2.34,0,0,0-4.4,0,5.55,5.55,0,0,0,0,3.6,2.06,2.06,0,0,0,2.2,1.5,2,2,0,0,0,2.2-1.6Z"/><path class="cls-2" d="M62.4,22V16.8c0-.5.1-.8.7-.8H70v2.4H64.8v2.4h4.8V23H64.8v2.6H70V28H63.3c-.7,0-.9-.1-.9-.9C62.5,25.4,62.4,23.7,62.4,22Z"/><path class="cls-2" d="M96.8,16.1h2.1a.53.53,0,0,1,.6.6c-.1,2.1.3,1.9-1.8,1.9a14.77,14.77,0,0,0-2.1.1,2,2,0,0,0-2,1.7,9.31,9.31,0,0,0,.1,2.9A2.1,2.1,0,0,0,96,25h2.6c.6,0,.8.2.8.8-.1,2,.3,1.7-1.8,1.8H95.4a4.22,4.22,0,0,1-4.4-3,8.11,8.11,0,0,1,.2-6.3A3.69,3.69,0,0,1,94.6,16a15.48,15.48,0,0,1,2.2.1Z"/><path class="cls-2" d="M38.9,21.2v6c0,.6-.2.8-.8.8-2.2,0-1.9.2-1.9-1.9V17.5a3.59,3.59,0,0,1,.2-1.1,1.26,1.26,0,0,1,1.6-.7.82.82,0,0,1,.5.5c.9,1.1,1.7,2.2,2.5,3.3,1,1.3,1.8,2.6,2.8,3.9a.93.93,0,0,1,.1,1.3l-.2.2a1.26,1.26,0,0,1-1.7.2l-.6-.6-2.3-3.2Z"/><path class="cls-2" d="M46.4,21.2l-1.7,2.3c-.5-.8-1-1.4-1.4-2-.1-.1.1-.5.2-.6,1-1.5,2.1-2.9,3.1-4.3a1.43,1.43,0,0,1,1.7-.7,1.3,1.3,0,0,1,.9,1.4V27.5a.53.53,0,0,1-.6.6h-.1c-2.3,0-1.9.3-1.9-1.8V21.4Z"/><path class="cls-3" d="M71.9,16.1h2.6l4.6,5.7-4.2,6H72.1l3.6-5.4s.4-.8,0-1.2c-1.2-1.5-2.3-2.9-3.4-4.4A3.22,3.22,0,0,1,71.9,16.1Z"/><path class="cls-3" d="M83.3,16.1s-2.5,3.5-3.7,5.1c-.1-.1-1.5-1.8-1.5-1.8a10.61,10.61,0,0,0,1.1-1.3c.2-.3,1.5-2,1.5-2Z"/><path class="cls-3" d="M80.6,27.9l-2.4-3.4s.9-1.3,1.4-1.9c1.3,1.7,3.8,5.3,3.8,5.3Z"/><path class="cls-2" d="M86.6,26.5c0-1.1,0-1.1,1-1.1s1,0,1.1,1.4c0,.9-.4.9-1,.9C86.6,27.6,86.6,27.6,86.6,26.5Z"/><path class="cls-2" d="M14.9,22.8v3c0,.7-.2.8-.8.5a1.38,1.38,0,0,1-1-1.3c0-1.8-.1-3.7,0-5.5A2.81,2.81,0,0,1,16.2,17a3,3,0,0,1,1.3.5,30,30,0,0,1,3.8,3.3c1.1,1.1.4,3.4-1.3,4a2.94,2.94,0,0,1-3.9-1.6c0-.1-.1-.2-.1-.4a2.1,2.1,0,0,1,1-2.5c.7-.4.9.3,1.2.6.1,0,0,.5-.1.7-.3.4-.5.8-.2,1.2a1.61,1.61,0,0,0,1.1.5,1.45,1.45,0,0,0,1-.7,1.23,1.23,0,0,0-.2-1A38.76,38.76,0,0,0,16.7,19a1.67,1.67,0,0,0-1.2-.1,1.7,1.7,0,0,0-.6,1v2.9Z"/><path class="cls-4" d="M23.2,22.8a12.19,12.19,0,0,0,0-2.7,1.74,1.74,0,0,0-.6-1.2,1.69,1.69,0,0,0-1.4.1,1,1,0,0,1-1.4-.4h0a.75.75,0,0,1,.1-.5,2.92,2.92,0,0,1,3.3-.6A2.67,2.67,0,0,1,25,20v4.8a1.76,1.76,0,0,1-.8,1.5c-.6.3-.9.2-.9-.5a29.08,29.08,0,0,0-.1-3Z"/></g></g></svg>