<svg xmlns="http://www.w3.org/2000/svg" viewBox="0 0 136 44"><defs><style>.cls-1{fill:#fff;}.cls-2{fill:#df9916;}.cls-3{fill:#323333;}.cls-4{fill:#2f302f;}.cls-5{fill:#2d2e2e;}.cls-6{fill:#2b2b2b;}.cls-7{fill:#282828;}.cls-8{fill:#252525;}.cls-9{fill:#232423;}.cls-10{fill:#202020;}.cls-11{fill:#1d1e1e;}.cls-12{fill:#1b1b1b;}.cls-13{fill:#19191a;}.cls-14{fill:#151616;}.cls-15{fill:#131313;}.cls-16{fill:#111;}.cls-17{fill:#0e0f0f;}.cls-18{fill:#0d0d0d;}.cls-19{fill:#0a0909;}.cls-20{fill:#080707;}.cls-21{fill:#060404;}.cls-22{fill:#050202;}.cls-23{fill:#040000;}.cls-24{fill:#221e1f;}.cls-25,.cls-26{fill:#f4c420;}.cls-26{fill-rule:evenodd;}.cls-27{fill:#15161c;}</style></defs><title>资源 44</title><g id="图层_2" data-name="图层 2"><g id="图层_1-2" data-name="图层 1"><rect class="cls-1" width="136" height="44" rx="2"/><rect class="cls-2" x="7.95" y="9.99" width="36.35" height="12.47" rx="3.47"/><rect class="cls-2" x="7.93" y="9.97" width="36.35" height="12.47" rx="3.47"/><rect class="cls-2" x="7.9" y="9.94" width="36.35" height="12.47" rx="3.47"/><rect class="cls-2" x="7.88" y="9.91" width="36.35" height="12.47" rx="3.47"/><rect class="cls-2" x="7.86" y="9.89" width="36.35" height="12.47" rx="3.47"/><rect class="cls-2" x="7.84" y="9.86" width="36.35" height="12.47" rx="3.47"/><rect class="cls-2" x="7.82" y="9.84" width="36.35" height="12.47" rx="3.47"/><rect class="cls-2" x="7.79" y="9.81" width="36.35" height="12.47" rx="3.47"/><rect class="cls-2" x="7.77" y="9.78" width="36.35" height="12.47" rx="3.47"/><rect class="cls-2" x="7.75" y="9.76" width="36.35" height="12.47" rx="3.47"/><rect class="cls-2" x="7.73" y="9.73" width="36.35" height="12.47" rx="3.47"/><rect class="cls-2" x="7.71" y="9.7" width="36.35" height="12.47" rx="3.47"/><rect class="cls-2" x="7.68" y="9.68" width="36.35" height="12.47" rx="3.47"/><rect class="cls-2" x="7.66" y="9.65" width="36.35" height="12.47" rx="3.47"/><rect class="cls-2" x="7.64" y="9.62" width="36.35" height="12.47" rx="3.47"/><rect class="cls-2" x="7.62" y="9.6" width="36.35" height="12.47" rx="3.47"/><rect class="cls-2" x="7.6" y="9.57" width="36.35" height="12.47" rx="3.47"/><rect class="cls-2" x="7.57" y="9.55" width="36.35" height="12.47" rx="3.47"/><rect class="cls-2" x="7.55" y="9.52" width="36.35" height="12.47" rx="3.47"/><rect class="cls-2" x="7.53" y="9.49" width="36.35" height="12.47" rx="3.47"/><rect class="cls-2" x="7.51" y="9.47" width="36.35" height="12.47" rx="3.47"/><rect class="cls-2" x="7.49" y="9.44" width="36.35" height="12.47" rx="3.47"/><rect class="cls-2" x="7.46" y="9.41" width="36.35" height="12.47" rx="3.47"/><rect class="cls-2" x="7.44" y="9.39" width="36.35" height="12.47" rx="3.47"/><rect class="cls-2" x="7.42" y="9.36" width="36.35" height="12.47" rx="3.47"/><rect class="cls-2" x="7.4" y="9.34" width="36.35" height="12.47" rx="3.47"/><rect class="cls-2" x="7.38" y="9.31" width="36.35" height="12.47" rx="3.47"/><rect class="cls-2" x="7.36" y="9.28" width="36.35" height="12.47" rx="3.47"/><rect class="cls-2" x="7.33" y="9.26" width="36.35" height="12.47" rx="3.47"/><rect class="cls-2" x="7.31" y="9.23" width="36.35" height="12.47" rx="3.47"/><rect class="cls-2" x="7.29" y="9.2" width="36.35" height="12.47" rx="3.47"/><rect class="cls-2" x="7.27" y="9.18" width="36.35" height="12.47" rx="3.47"/><rect class="cls-2" x="7.25" y="9.15" width="36.35" height="12.47" rx="3.47"/><rect class="cls-2" x="7.22" y="9.12" width="36.35" height="12.47" rx="3.47"/><rect class="cls-2" x="7.2" y="9.1" width="36.35" height="12.47" rx="3.47"/><rect class="cls-2" x="7.18" y="9.07" width="36.35" height="12.47" rx="3.47"/><rect class="cls-3" x="19.04" y="22.46" width="36.35" height="12.47" rx="3.47"/><rect class="cls-4" x="19" y="22.41" width="36.35" height="12.47" rx="3.47"/><rect class="cls-5" x="18.96" y="22.37" width="36.35" height="12.47" rx="3.47"/><rect class="cls-6" x="18.92" y="22.32" width="36.35" height="12.47" rx="3.47"/><rect class="cls-7" x="18.88" y="22.28" width="36.35" height="12.47" rx="3.47"/><rect class="cls-8" x="18.85" y="22.23" width="36.35" height="12.47" rx="3.47"/><rect class="cls-9" x="18.81" y="22.18" width="36.35" height="12.47" rx="3.47"/><rect class="cls-10" x="18.77" y="22.14" width="36.35" height="12.47" rx="3.47"/><rect class="cls-11" x="18.73" y="22.09" width="36.35" height="12.47" rx="3.47"/><rect class="cls-12" x="18.69" y="22.05" width="36.35" height="12.47" rx="3.47"/><rect class="cls-13" x="18.65" y="22" width="36.35" height="12.47" rx="3.47"/><rect class="cls-14" x="18.62" y="21.95" width="36.35" height="12.47" rx="3.47"/><rect class="cls-15" x="18.58" y="21.91" width="36.35" height="12.47" rx="3.47"/><rect class="cls-16" x="18.54" y="21.86" width="36.35" height="12.47" rx="3.47"/><rect class="cls-17" x="18.5" y="21.82" width="36.35" height="12.47" rx="3.47"/><rect class="cls-18" x="18.46" y="21.77" width="36.35" height="12.47" rx="3.47"/><rect class="cls-19" x="18.42" y="21.72" width="36.35" height="12.47" rx="3.47"/><rect class="cls-20" x="18.39" y="21.68" width="36.35" height="12.47" rx="3.47"/><rect class="cls-21" x="18.35" y="21.63" width="36.35" height="12.47" rx="3.47"/><rect class="cls-22" x="18.31" y="21.59" width="36.35" height="12.47" rx="3.47"/><rect class="cls-23" x="18.27" y="21.54" width="36.35" height="12.47" rx="3.47"/><rect class="cls-24" x="18.27" y="21.54" width="36.35" height="12.47" rx="3.47"/><rect class="cls-25" x="7.18" y="9.07" width="36.35" height="12.47" rx="3.47"/><path class="cls-25" d="M20.31,31.49V23.62h1.54l3.23,5.26V23.62h1.47v7.87H25l-3.18-5.13v5.13Z"/><path class="cls-25" d="M28.24,31.49V23.62h5.84V25H29.83V26.7h4V28h-4v2.15h4.4v1.32Z"/><path class="cls-25" d="M46.18,28.93l1.54-.15a1.93,1.93,0,0,0,.57,1.15,1.77,1.77,0,0,0,1.15.36A1.8,1.8,0,0,0,50.6,30a1,1,0,0,0,.39-.76.68.68,0,0,0-.16-.48,1.34,1.34,0,0,0-.57-.34c-.19-.07-.61-.18-1.28-.34a4.51,4.51,0,0,1-1.79-.78,2.08,2.08,0,0,1-.39-2.72,2.2,2.2,0,0,1,1-.79,3.91,3.91,0,0,1,1.55-.28,3.35,3.35,0,0,1,2.23.65,2.31,2.31,0,0,1,.79,1.74l-1.59.07a1.34,1.34,0,0,0-.44-.87,1.6,1.6,0,0,0-1-.28,1.82,1.82,0,0,0-1.08.29.57.57,0,0,0-.26.49.59.59,0,0,0,.24.47,4.09,4.09,0,0,0,1.46.53,7.55,7.55,0,0,1,1.72.57,2.23,2.23,0,0,1,.87.8,2.47,2.47,0,0,1-.07,2.53,2.18,2.18,0,0,1-1.06.88,4.37,4.37,0,0,1-1.71.29,3.43,3.43,0,0,1-2.3-.69A3,3,0,0,1,46.18,28.93Z"/><path class="cls-26" d="M41.41,26.72a.07.07,0,0,0,0-.11l-1-1s-.06,0-.1,0l-1.05,1.05a.09.09,0,0,0,0,.05s0,0,0,0l1,1c0,.05.07.05.11,0Z"/><path class="cls-26" d="M38.47,29.66l1-1c.08-.08.08-.08,0-.16l-1.78-1.78c-.08-.08-.08-.08,0-.17l1.79-1.78c0-.05,0-.08,0-.14-.33-.32-.65-.65-1-1-.08-.07-.08-.07-.16,0L35.41,26.6c-.08.07-.08.07,0,.15l2.13,2.14.79.78a.15.15,0,0,0,.06,0S38.44,29.68,38.47,29.66Z"/><path class="cls-26" d="M41.21,24.64c-.09.09-.09.09,0,.17L43,26.59c.07.07.08.08,0,.15l-.71.71-1.09,1.09s-.08.08,0,.13l1,1a.09.09,0,0,0,.05,0s0,0,.07,0l2.92-2.93c.06,0,.06-.08,0-.14l-2.92-2.93c-.06-.05-.09-.05-.14,0C41.86,24,41.53,24.32,41.21,24.64Z"/><path class="cls-26" d="M40.37,31.6l1-1s0-.06,0-.09l-1-1s-.07,0-.11,0l-1,1a.09.09,0,0,0,0,.06l0,0,1,1S40.34,31.64,40.37,31.6Z"/><path class="cls-24" d="M13.3,10.79h3.4a9.37,9.37,0,0,1,1.5.09,2.21,2.21,0,0,1,.89.35,2.35,2.35,0,0,1,.66.71,2.07,2.07,0,0,1,.26,1,2,2,0,0,1-1.2,1.85,2.28,2.28,0,0,1,1.2.77,2,2,0,0,1,.42,1.28A2.62,2.62,0,0,1,20.15,18a2.18,2.18,0,0,1-.74.88,2.37,2.37,0,0,1-1.15.4c-.28,0-1,.05-2.07.06H13.3ZM15,12.21v2h1.13c.67,0,1.08,0,1.25,0a1.12,1.12,0,0,0,.69-.31.91.91,0,0,0,.25-.66.87.87,0,0,0-.22-.64.94.94,0,0,0-.64-.3q-.26,0-1.47,0Zm0,3.38v2.28h1.59a7.77,7.77,0,0,0,1.18-.05,1.06,1.06,0,0,0,.62-.34,1,1,0,0,0,.24-.72,1.12,1.12,0,0,0-.18-.65,1,1,0,0,0-.54-.39,5.4,5.4,0,0,0-1.53-.13Z"/><path class="cls-24" d="M21.44,16.53l1.68-.16a2,2,0,0,0,.61,1.24A1.79,1.79,0,0,0,25,18a1.91,1.91,0,0,0,1.26-.35,1,1,0,0,0,.42-.82.79.79,0,0,0-.18-.51,1.45,1.45,0,0,0-.62-.37c-.2-.07-.66-.19-1.38-.37a4.8,4.8,0,0,1-1.94-.84A2.23,2.23,0,0,1,21.75,13a2.18,2.18,0,0,1,.37-1.21,2.37,2.37,0,0,1,1.06-.87,4.38,4.38,0,0,1,1.68-.3,3.57,3.57,0,0,1,2.41.71,2.45,2.45,0,0,1,.85,1.87l-1.72.08a1.43,1.43,0,0,0-.47-.94,1.67,1.67,0,0,0-1.09-.29,2,2,0,0,0-1.18.31.62.62,0,0,0-.27.52.65.65,0,0,0,.26.52,4.52,4.52,0,0,0,1.58.57,8.59,8.59,0,0,1,1.85.61,2.39,2.39,0,0,1,.94.87A2.67,2.67,0,0,1,28,18.2a2.5,2.5,0,0,1-1.15,1,4.92,4.92,0,0,1-1.86.31,3.69,3.69,0,0,1-2.48-.75A3.27,3.27,0,0,1,21.44,16.53Z"/><path class="cls-24" d="M35.27,16.17l1.66.53a3.72,3.72,0,0,1-1.27,2.07,4,4,0,0,1-5-.47,4.43,4.43,0,0,1-1.1-3.17,4.65,4.65,0,0,1,1.1-3.3,3.73,3.73,0,0,1,2.88-1.18,3.52,3.52,0,0,1,2.54.93,3.26,3.26,0,0,1,.87,1.56l-1.7.41a1.74,1.74,0,0,0-1.79-1.42,1.93,1.93,0,0,0-1.54.68,3.35,3.35,0,0,0-.59,2.2,3.55,3.55,0,0,0,.58,2.3,1.87,1.87,0,0,0,1.51.68,1.72,1.72,0,0,0,1.19-.44A2.58,2.58,0,0,0,35.27,16.17Z"/><path class="cls-27" d="M70.66,24.25c0,2.81-.79,5.28-4.2,5.28-2,0-2.89-.77-3.3-2L63,29.35H61.54V15h1.62v6c.41-1.2,1.36-2,3.3-2C69.87,19,70.66,21.14,70.66,24.25Zm-1.69,0c0-2.13-.36-3.92-2.72-3.92s-3.17,1.49-3.17,3.92.72,3.91,3.17,3.91S69,26.23,69,24.25Z"/><path class="cls-27" d="M71,29.14v-1.4a12.51,12.51,0,0,0,2.94.4c1.55,0,2.36-.38,2.36-1.57S76,25.12,74,24.67c-2.24-.51-2.85-1.23-2.85-2.94S72.44,19,74.85,19a9.11,9.11,0,0,1,2.57.34l-.12,1.38a7.07,7.07,0,0,0-2.43-.4c-1.43,0-2.15.32-2.15,1.48s.36,1.26,1.94,1.62c2.34.53,3.19,1.17,3.19,3.13S76.47,29.46,74,29.46A13.77,13.77,0,0,1,71,29.14Z"/><path class="cls-27" d="M78.17,24.25c0-4.05,1.72-5.28,4.71-5.28a8.75,8.75,0,0,1,2.66.38v1.49a7.39,7.39,0,0,0-2.64-.45c-2.24,0-3,.89-3,3.88s.76,3.83,3,3.83a7.32,7.32,0,0,0,2.66-.43v1.49a9.34,9.34,0,0,1-2.7.37C79.89,29.53,78.17,28.31,78.17,24.25Z"/><path class="cls-27" d="M86.18,28.25c0-1,.32-1.17,1.21-1.17s1.21.15,1.21,1.17-.34,1.21-1.21,1.21S86.18,29.31,86.18,28.25Z"/><path class="cls-27" d="M98.37,22.29v7.06H96.72V22.9c0-1.57-.32-2.47-1.94-2.47-1.28,0-2.52.24-3.09,2v6.89H90.07V19.16h1.62v1.45A3.35,3.35,0,0,1,95,19C97.61,19,98.37,20.35,98.37,22.29Z"/><path class="cls-27" d="M107.83,24.42l-6.9.44c0,2.22.79,3.24,3.26,3.24a8.08,8.08,0,0,0,3.19-.66v1.49a8.93,8.93,0,0,1-3.43.6c-3,0-4.72-1.22-4.72-5.28S101,19,103.85,19c3.47,0,4.08,2.29,4.08,4.27A10.53,10.53,0,0,1,107.83,24.42Zm-1.51-1.16c0-1.57-.26-3-2.47-3s-2.86,1.27-2.92,3.34Z"/><path class="cls-27" d="M107.55,19.16h1.62l2.15,8.55h.11L114,19.16h1.92l2.61,8.55h.11l2.15-8.55h1.6l-2.83,10.19h-2L115,21h-.12l-2.54,8.36h-2Z"/><path class="cls-27" d="M122,29.14v-1.4a12.52,12.52,0,0,0,3,.4c1.54,0,2.35-.38,2.35-1.57s-.34-1.45-2.28-1.9c-2.24-.51-2.85-1.23-2.85-2.94S123.39,19,125.8,19a9.11,9.11,0,0,1,2.57.34l-.12,1.38a7.07,7.07,0,0,0-2.43-.4c-1.43,0-2.15.32-2.15,1.48s.36,1.26,1.94,1.62c2.34.53,3.19,1.17,3.19,3.13s-1.38,2.94-3.87,2.94A13.77,13.77,0,0,1,122,29.14Z"/></g></g></svg>