<svg xmlns="http://www.w3.org/2000/svg" viewBox="0 0 136.33 44"><defs><style>.cls-1{fill:#fff;}.cls-2{fill:none;}.cls-3{fill:#f5c134;}.cls-4{fill:#070001;}</style></defs><title>资源 4</title><g id="图层_2" data-name="图层 2"><g id="图层_1-2" data-name="图层 1"><rect class="cls-1" x="0.33" width="136" height="44" rx="2"/><rect class="cls-1" width="136" height="44" rx="2"/><polygon class="cls-2" points="12.23 14.29 12.23 24.52 14.2 24.52 14.2 27.41 12.23 27.41 12.23 29.71 27.65 29.71 27.65 19.73 26.51 19.73 26.51 16.83 27.65 16.83 27.65 14.29 12.23 14.29"/><polygon class="cls-3" points="12.23 14.29 27.65 14.29 27.65 16.83 32.71 16.83 32.71 9.23 7.17 9.23 7.17 24.52 12.23 24.52 12.23 14.29"/><polygon class="cls-3" points="27.65 29.71 12.23 29.71 12.23 27.41 7.17 27.41 7.17 34.77 32.71 34.77 32.71 19.73 27.65 19.73 27.65 29.71"/><path class="cls-3" d="M39.39,24.74l3-.68c.24,2.08,1.27,3.11,3.08,3.11,1.36,0,2.08-.65,2.16-1.82,0-.81-.43-1.44-1.42-1.9a15,15,0,0,0-2.71-.81q-3.77-.87-3.65-4.32.38-3.72,5-4c3.25-.09,5.15,1.31,5.68,4.19l-3,.61A2.28,2.28,0,0,0,45,17c-1.2,0-1.83.51-1.92,1.41s.72,1.42,2.41,1.83a11.34,11.34,0,0,1,3.21,1.22,4.37,4.37,0,0,1,2.22,3.78c-.12,2.89-1.91,4.37-5.37,4.46S40.05,28.07,39.39,24.74Z"/><path class="cls-3" d="M52.47,23.05V14.53h3.09v8.52q.06,3.72,3.09,3.79c1.93,0,2.9-1.27,2.9-3.79V14.53h3.14v8.38q0,6.77-6.23,6.76Q52.54,29.67,52.47,23.05Z"/><path class="cls-3" d="M72,24.2H69.69v5.2H66.61V14.53h5.67c3.3.09,5,1.65,5.13,4.67C77.45,22.58,75.64,24.24,72,24.2Zm-.25-7.1h-2v4.53h2c1.6,0,2.43-.81,2.47-2.3S73.33,17.15,71.73,17.1Z"/><path class="cls-3" d="M89.75,29.4H79.07V14.53H89.56V17.3h-7.4v3.18h6.91v2.77H82.16v3.52h7.59Z"/><path class="cls-3" d="M103.39,29.4H99.5l-3.33-5.81H94.38V29.4H91.29V14.53h6.24q5,.13,5.18,4.4.06,3.7-3.33,4.52ZM97,17.1H94.38v4H97c1.65,0,2.45-.65,2.41-2S98.68,17.06,97,17.1Z"/><path class="cls-4" d="M115.11,29.4H104.44V14.53h10.49V17.3h-7.41v3.18h6.92v2.77h-6.92v3.52h7.59Z"/><path class="cls-4" d="M129.49,29.4h-3.82L123,24.67c-.16-.27-.35-.61-.55-1a8.54,8.54,0,0,1-.5,1l-2.71,4.73h-3.58L120.42,22l-4.57-7.44h3.71L121.84,19a8.84,8.84,0,0,1,.49.88c.09.18.15.32.19.41.37-.81.58-1.24.62-1.29l2.22-4.46H129L124.49,22Z"/></g></g></svg>