<svg xmlns="http://www.w3.org/2000/svg" viewBox="0 0 121.62 25.85"><defs><style>.cls-1{fill:#df9916;}.cls-2{fill:#323333;}.cls-3{fill:#2f302f;}.cls-4{fill:#2d2e2e;}.cls-5{fill:#2b2b2b;}.cls-6{fill:#282828;}.cls-7{fill:#252525;}.cls-8{fill:#232423;}.cls-9{fill:#202020;}.cls-10{fill:#1d1e1e;}.cls-11{fill:#1b1b1b;}.cls-12{fill:#19191a;}.cls-13{fill:#151616;}.cls-14{fill:#131313;}.cls-15{fill:#111;}.cls-16{fill:#0e0f0f;}.cls-17{fill:#0d0d0d;}.cls-18{fill:#0a0909;}.cls-19{fill:#080707;}.cls-20{fill:#060404;}.cls-21{fill:#050202;}.cls-22{fill:#040000;}.cls-23{fill:#221e1f;}.cls-24,.cls-25{fill:#f4c420;}.cls-25{fill-rule:evenodd;}.cls-26{fill:#15161c;}</style></defs><title>资源 8</title><g id="图层_2" data-name="图层 2"><g id="图层_1-2" data-name="图层 1"><rect class="cls-1" x="0.77" y="0.92" width="36.35" height="12.47" rx="3.47"/><rect class="cls-1" x="0.74" y="0.89" width="36.35" height="12.47" rx="3.47"/><rect class="cls-1" x="0.72" y="0.87" width="36.35" height="12.47" rx="3.47"/><rect class="cls-1" x="0.7" y="0.84" width="36.35" height="12.47" rx="3.47"/><rect class="cls-1" x="0.68" y="0.81" width="36.35" height="12.47" rx="3.47"/><rect class="cls-1" x="0.66" y="0.79" width="36.35" height="12.47" rx="3.47"/><rect class="cls-1" x="0.64" y="0.76" width="36.35" height="12.47" rx="3.47"/><rect class="cls-1" x="0.61" y="0.74" width="36.35" height="12.47" rx="3.47"/><rect class="cls-1" x="0.59" y="0.71" width="36.35" height="12.47" rx="3.47"/><rect class="cls-1" x="0.57" y="0.68" width="36.35" height="12.47" rx="3.47"/><rect class="cls-1" x="0.55" y="0.66" width="36.35" height="12.47" rx="3.47"/><rect class="cls-1" x="0.53" y="0.63" width="36.35" height="12.47" rx="3.47"/><rect class="cls-1" x="0.5" y="0.6" width="36.35" height="12.47" rx="3.47"/><rect class="cls-1" x="0.48" y="0.58" width="36.35" height="12.47" rx="3.47"/><rect class="cls-1" x="0.46" y="0.55" width="36.35" height="12.47" rx="3.47"/><rect class="cls-1" x="0.44" y="0.53" width="36.35" height="12.47" rx="3.47"/><rect class="cls-1" x="0.42" y="0.5" width="36.35" height="12.47" rx="3.47"/><rect class="cls-1" x="0.39" y="0.47" width="36.35" height="12.47" rx="3.47"/><rect class="cls-1" x="0.37" y="0.45" width="36.35" height="12.47" rx="3.47"/><rect class="cls-1" x="0.35" y="0.42" width="36.35" height="12.47" rx="3.47"/><rect class="cls-1" x="0.33" y="0.39" width="36.35" height="12.47" rx="3.47"/><rect class="cls-1" x="0.31" y="0.37" width="36.35" height="12.47" rx="3.47"/><rect class="cls-1" x="0.28" y="0.34" width="36.35" height="12.47" rx="3.47"/><rect class="cls-1" x="0.26" y="0.32" width="36.35" height="12.47" rx="3.47"/><rect class="cls-1" x="0.24" y="0.29" width="36.35" height="12.47" rx="3.47"/><rect class="cls-1" x="0.22" y="0.26" width="36.35" height="12.47" rx="3.47"/><rect class="cls-1" x="0.2" y="0.24" width="36.35" height="12.47" rx="3.47"/><rect class="cls-1" x="0.17" y="0.21" width="36.35" height="12.47" rx="3.47"/><rect class="cls-1" x="0.15" y="0.18" width="36.35" height="12.47" rx="3.47"/><rect class="cls-1" x="0.13" y="0.16" width="36.35" height="12.47" rx="3.47"/><rect class="cls-1" x="0.11" y="0.13" width="36.35" height="12.47" rx="3.47"/><rect class="cls-1" x="0.09" y="0.11" width="36.35" height="12.47" rx="3.47"/><rect class="cls-1" x="0.07" y="0.08" width="36.35" height="12.47" rx="3.47"/><rect class="cls-1" x="0.04" y="0.05" width="36.35" height="12.47" rx="3.47"/><rect class="cls-1" x="0.02" y="0.03" width="36.35" height="12.47" rx="3.47"/><rect class="cls-1" width="36.35" height="12.47" rx="3.47"/><rect class="cls-2" x="11.86" y="13.39" width="36.35" height="12.47" rx="3.47"/><rect class="cls-3" x="11.82" y="13.34" width="36.35" height="12.47" rx="3.47"/><rect class="cls-4" x="11.78" y="13.3" width="36.35" height="12.47" rx="3.47"/><rect class="cls-5" x="11.74" y="13.25" width="36.35" height="12.47" rx="3.47"/><rect class="cls-6" x="11.7" y="13.2" width="36.35" height="12.47" rx="3.47"/><rect class="cls-7" x="11.67" y="13.16" width="36.35" height="12.47" rx="3.47"/><rect class="cls-8" x="11.63" y="13.11" width="36.35" height="12.47" rx="3.47"/><rect class="cls-9" x="11.59" y="13.07" width="36.35" height="12.47" rx="3.47"/><rect class="cls-10" x="11.55" y="13.02" width="36.35" height="12.47" rx="3.47"/><rect class="cls-11" x="11.51" y="12.97" width="36.35" height="12.47" rx="3.47"/><rect class="cls-12" x="11.47" y="12.93" width="36.35" height="12.47" rx="3.47"/><rect class="cls-13" x="11.44" y="12.88" width="36.35" height="12.47" rx="3.47"/><rect class="cls-14" x="11.4" y="12.83" width="36.35" height="12.47" rx="3.47"/><rect class="cls-15" x="11.36" y="12.79" width="36.35" height="12.47" rx="3.47"/><rect class="cls-16" x="11.32" y="12.74" width="36.35" height="12.47" rx="3.47"/><rect class="cls-17" x="11.28" y="12.7" width="36.35" height="12.47" rx="3.47"/><rect class="cls-18" x="11.24" y="12.65" width="36.35" height="12.47" rx="3.47"/><rect class="cls-19" x="11.2" y="12.61" width="36.35" height="12.47" rx="3.47"/><rect class="cls-20" x="11.17" y="12.56" width="36.35" height="12.47" rx="3.47"/><rect class="cls-21" x="11.13" y="12.51" width="36.35" height="12.47" rx="3.47"/><rect class="cls-22" x="11.09" y="12.47" width="36.35" height="12.47" rx="3.47"/><rect class="cls-23" x="11.09" y="12.47" width="36.35" height="12.47" rx="3.47"/><rect class="cls-24" width="36.35" height="12.47" rx="3.47"/><path class="cls-24" d="M13.13,22.42V14.54h1.54L17.9,19.8V14.54h1.47v7.88H17.78L14.6,17.28v5.14Z"/><path class="cls-24" d="M21.06,22.42V14.54H26.9v1.34H22.65v1.74h4V19h-4v2.14h4.4v1.33Z"/><path class="cls-24" d="M39,19.86l1.54-.15a1.82,1.82,0,0,0,.57,1.14,1.73,1.73,0,0,0,1.15.37,1.75,1.75,0,0,0,1.16-.33,1,1,0,0,0,.39-.76.67.67,0,0,0-.16-.47,1.31,1.31,0,0,0-.58-.34c-.18-.07-.6-.18-1.27-.35A4.24,4.24,0,0,1,40,18.19a2.06,2.06,0,0,1-.39-2.71,2.16,2.16,0,0,1,1-.8,4.09,4.09,0,0,1,1.55-.27,3.35,3.35,0,0,1,2.23.65,2.27,2.27,0,0,1,.78,1.74l-1.58.07a1.39,1.39,0,0,0-.44-.88,1.67,1.67,0,0,0-1-.27,1.88,1.88,0,0,0-1.09.29.57.57,0,0,0-.25.48A.6.6,0,0,0,41,17a4.09,4.09,0,0,0,1.46.53,8,8,0,0,1,1.72.56,2.33,2.33,0,0,1,.87.81A2.47,2.47,0,0,1,45,21.4a2.23,2.23,0,0,1-1.06.88,4.56,4.56,0,0,1-1.71.29,3.43,3.43,0,0,1-2.3-.69A3,3,0,0,1,39,19.86Z"/><path class="cls-25" d="M34.23,17.65a.07.07,0,0,0,0-.11l-1-1s-.07,0-.1,0L32,17.55a.06.06,0,0,0,0,.05s0,0,0,0l1,1s.07.05.11,0Z"/><path class="cls-25" d="M31.29,20.59l1-1c.08-.08.08-.08,0-.16l-1.78-1.78c-.08-.09-.08-.09,0-.17l1.79-1.78a.08.08,0,0,0,0-.14l-1-1c-.08-.08-.08-.08-.16,0l-2.91,2.91c-.08.08-.08.08,0,.16l2.13,2.13.79.79a.15.15,0,0,0,.06,0S31.26,20.61,31.29,20.59Z"/><path class="cls-25" d="M34,15.57c-.09.08-.09.08,0,.16l1.78,1.79c.07.07.07.07,0,.15l-.71.71L34,19.47s-.07.07,0,.13l1,1a.1.1,0,0,0,.05,0s0,0,.07,0l2.92-2.93c.06-.05.06-.09,0-.14L35.13,14.6c-.06-.06-.09,0-.14,0Z"/><path class="cls-25" d="M33.19,22.53l1-1s0-.06,0-.1l-1-1a.07.07,0,0,0-.11,0l-1,1a.06.06,0,0,0,0,.06l0,0,1,1A.07.07,0,0,0,33.19,22.53Z"/><path class="cls-23" d="M6.12,1.72h3.4a9.44,9.44,0,0,1,1.5.09,2.21,2.21,0,0,1,.89.35,2.24,2.24,0,0,1,.66.71,2,2,0,0,1,.26,1,2,2,0,0,1-1.2,1.84,2.24,2.24,0,0,1,1.2.78,2,2,0,0,1,.41,1.28A2.47,2.47,0,0,1,13,8.9a2.24,2.24,0,0,1-.74.88,2.37,2.37,0,0,1-1.15.4q-.44,0-2.07.06H6.12ZM7.84,3.13v2H9c.67,0,1.08,0,1.25,0a1.08,1.08,0,0,0,.69-.3.92.92,0,0,0,.25-.67.94.94,0,0,0-.22-.64,1,1,0,0,0-.64-.3q-.25,0-1.47,0Zm0,3.39V8.8H9.43a9.4,9.4,0,0,0,1.18-.05,1,1,0,0,0,.86-1.07A1.14,1.14,0,0,0,11.29,7a1.16,1.16,0,0,0-.54-.39,6,6,0,0,0-1.53-.12Z"/><path class="cls-23" d="M14.26,7.46l1.67-.16a2.12,2.12,0,0,0,.62,1.24,1.84,1.84,0,0,0,1.24.39A1.94,1.94,0,0,0,19,8.58a1.07,1.07,0,0,0,.43-.82.78.78,0,0,0-.18-.51,1.41,1.41,0,0,0-.62-.37c-.2-.07-.66-.2-1.38-.37a4.65,4.65,0,0,1-1.94-.85,2.24,2.24,0,0,1-.41-2.93A2.35,2.35,0,0,1,16,1.87a4.35,4.35,0,0,1,1.68-.3,3.57,3.57,0,0,1,2.41.71,2.43,2.43,0,0,1,.85,1.87l-1.72.08a1.46,1.46,0,0,0-.47-1A1.73,1.73,0,0,0,17.66,3a2.06,2.06,0,0,0-1.18.3.65.65,0,0,0-.27.53.66.66,0,0,0,.26.52,4.52,4.52,0,0,0,1.58.57,8.59,8.59,0,0,1,1.85.61,2.39,2.39,0,0,1,.94.87,2.67,2.67,0,0,1-.06,2.73,2.5,2.5,0,0,1-1.15,1,5,5,0,0,1-1.86.31,3.69,3.69,0,0,1-2.48-.75A3.25,3.25,0,0,1,14.26,7.46Z"/><path class="cls-23" d="M28.08,7.1l1.67.53A3.72,3.72,0,0,1,28.48,9.7a3.67,3.67,0,0,1-2.27.68,3.64,3.64,0,0,1-2.78-1.15,4.44,4.44,0,0,1-1.1-3.17,4.65,4.65,0,0,1,1.1-3.3,3.72,3.72,0,0,1,2.88-1.18,3.57,3.57,0,0,1,2.54.92,3.35,3.35,0,0,1,.87,1.57L28,4.48a1.76,1.76,0,0,0-1.79-1.43,1.94,1.94,0,0,0-1.54.69,3.35,3.35,0,0,0-.59,2.2,3.57,3.57,0,0,0,.58,2.3,1.87,1.87,0,0,0,1.51.68,1.69,1.69,0,0,0,1.19-.45A2.47,2.47,0,0,0,28.08,7.1Z"/><path class="cls-26" d="M63.48,15.18c0,2.81-.79,5.28-4.2,5.28-2,0-2.89-.77-3.3-2l-.21,1.77H54.36V5.94H56v6c.41-1.21,1.36-2,3.3-2C62.69,9.9,63.48,12.07,63.48,15.18Zm-1.69,0c0-2.13-.36-3.92-2.72-3.92s-3.17,1.49-3.17,3.92.72,3.91,3.17,3.91S61.79,17.16,61.79,15.18Z"/><path class="cls-26" d="M63.84,20.07v-1.4a12.51,12.51,0,0,0,2.94.4c1.55,0,2.36-.38,2.36-1.57s-.34-1.45-2.28-1.9C64.61,15.09,64,14.37,64,12.65S65.26,9.9,67.67,9.9a8.68,8.68,0,0,1,2.56.34l-.11,1.38a7.07,7.07,0,0,0-2.43-.4c-1.43,0-2.15.32-2.15,1.47s.36,1.27,1.94,1.62c2.34.53,3.19,1.17,3.19,3.13s-1.38,2.95-3.87,2.95A13.77,13.77,0,0,1,63.84,20.07Z"/><path class="cls-26" d="M71,15.18c0-4,1.71-5.28,4.71-5.28a8.81,8.81,0,0,1,2.66.38v1.49a7.39,7.39,0,0,0-2.64-.45c-2.24,0-3,.88-3,3.88s.76,3.83,3,3.83a7.35,7.35,0,0,0,2.66-.43v1.48a9.41,9.41,0,0,1-2.7.38C72.7,20.46,71,19.24,71,15.18Z"/><path class="cls-26" d="M79,19.18c0-1,.32-1.17,1.21-1.17s1.21.15,1.21,1.17-.34,1.21-1.21,1.21S79,20.24,79,19.18Z"/><path class="cls-26" d="M91.18,13.22v7H89.54V13.82c0-1.56-.32-2.47-1.94-2.47-1.28,0-2.53.25-3.09,2v6.88H82.89V10.09h1.62v1.45A3.35,3.35,0,0,1,87.77,9.9C90.43,9.9,91.18,11.28,91.18,13.22Z"/><path class="cls-26" d="M100.65,15.35l-6.9.43C93.77,18,94.54,19,97,19a8.11,8.11,0,0,0,3.19-.66v1.49a8.93,8.93,0,0,1-3.43.6c-3,0-4.72-1.22-4.72-5.28S93.77,9.9,96.67,9.9c3.47,0,4.08,2.28,4.08,4.26A10.5,10.5,0,0,1,100.65,15.35Zm-1.51-1.17c0-1.56-.26-2.94-2.47-2.94s-2.86,1.26-2.92,3.34Z"/><path class="cls-26" d="M100.37,10.09H102l2.15,8.54h.11l2.53-8.54h1.92l2.61,8.54h.11l2.15-8.54h1.6l-2.83,10.18h-2l-2.52-8.35h-.12l-2.54,8.35h-2Z"/><path class="cls-26" d="M114.79,20.07v-1.4a12.51,12.51,0,0,0,2.94.4c1.55,0,2.36-.38,2.36-1.57s-.34-1.45-2.28-1.9c-2.24-.51-2.85-1.23-2.85-2.95s1.25-2.75,3.66-2.75a8.76,8.76,0,0,1,2.57.34l-.12,1.38a7.07,7.07,0,0,0-2.43-.4c-1.43,0-2.15.32-2.15,1.47s.36,1.27,1.94,1.62c2.34.53,3.19,1.17,3.19,3.13s-1.38,2.95-3.87,2.95A13.77,13.77,0,0,1,114.79,20.07Z"/></g></g></svg>