<svg xmlns="http://www.w3.org/2000/svg" viewBox="0 0 136 44"><defs><style>.cls-1{fill:#1e8bca;}.cls-2,.cls-3,.cls-5{fill:#fff;}.cls-2{opacity:0.4;}.cls-3,.cls-4{fill-rule:evenodd;}.cls-4{fill:#db4b35;}</style></defs><title>资源 13</title><g id="图层_2" data-name="图层 2"><g id="图层_1-2" data-name="图层 1"><rect class="cls-1" width="136" height="44" rx="2"/><path class="cls-2" d="M125.47,39,129,22.44c.31-1.45-.53-2-1.49-1.67l-20.63,8c-1.41.55-1.39,1.34-.24,1.7l5.28,1.65,12.25-7.72c.57-.38,1.1-.16.67.22l-9.91,9L114.54,39a1.37,1.37,0,0,0,1.07-.52L118.19,36l5.35,3.94c1,.55,1.67.27,1.94-.9Z"/><path id="white" class="cls-3" d="M37.26,22v0A15.27,15.27,0,0,1,6.73,22v0Z"/><path id="red" class="cls-4" d="M37.23,22a15.25,15.25,0,1,0-30.5,0Z"/><path class="cls-5" d="M43.3,17.56h1.26v9.72H43.3Z"/><path class="cls-5" d="M52.16,22v5.24H50.94V22.49c0-1.16-.24-1.84-1.44-1.84a2.06,2.06,0,0,0-2.3,1.52v5.11H46V19.72h1.2v1.07a2.5,2.5,0,0,1,2.43-1.21C51.6,19.58,52.16,20.6,52.16,22Z"/><path class="cls-5" d="M59.89,16.63V27.28h-1L58.68,26a2.36,2.36,0,0,1-2.46,1.39c-2.51,0-3.13-1.61-3.13-3.92,0-2.08.62-3.92,3.13-3.92,1.48,0,2.16.57,2.46,1.45v-4.4ZM58.73,23.5c0-1.74-.51-2.92-2.33-2.92s-2,1.45-2,2.92.24,2.9,2,2.9S58.73,25.31,58.73,23.5Z"/><path class="cls-5" d="M60.85,23.5c0-3,1.28-3.92,3.5-3.92s3.49.91,3.49,3.92-1.25,3.92-3.49,3.92S60.85,26.51,60.85,23.5Zm5.72,0c0-2.22-.56-2.92-2.22-2.92s-2.21.7-2.21,2.92.57,2.9,2.21,2.9S66.57,25.71,66.57,23.5Z"/><path class="cls-5" d="M75,22v5.24H73.78V22.49c0-1.16-.24-1.84-1.45-1.84A2.05,2.05,0,0,0,70,22.17v5.11H68.83V19.72H70v1.07a2.48,2.48,0,0,1,2.42-1.21C74.43,19.58,75,20.6,75,22Z"/><path class="cls-5" d="M82.3,23.62,77.18,24c0,1.65.58,2.41,2.42,2.41A6.05,6.05,0,0,0,82,25.87V27a6.49,6.49,0,0,1-2.55.45c-2.23,0-3.51-.91-3.51-3.92s1.28-3.92,3.44-3.92c2.57,0,3,1.69,3,3.16C82.37,23,82.34,23.27,82.3,23.62Zm-1.12-.86c0-1.17-.19-2.19-1.83-2.19s-2.13.94-2.17,2.48Z"/><path class="cls-5" d="M82.89,27.13v-1a9.58,9.58,0,0,0,2.18.29c1.15,0,1.75-.28,1.75-1.16s-.25-1.08-1.69-1.41C83.46,23.43,83,22.9,83,21.62s.93-2,2.72-2a6.59,6.59,0,0,1,1.91.25l-.09,1a5.27,5.27,0,0,0-1.81-.29c-1.06,0-1.59.23-1.59,1.09s.26.94,1.44,1.2c1.74.4,2.37.87,2.37,2.33s-1,2.18-2.87,2.18A10.68,10.68,0,0,1,82.89,27.13Z"/><path class="cls-5" d="M88.81,17.61c0-.63.19-.71.73-.71s.71.08.71.71-.21.72-.71.72S88.81,18.23,88.81,17.61Zm.11,2.11h1.21v7.56H88.92Z"/><path class="cls-5" d="M97.56,21.92v5.36h-1l-.18-1.15a3,3,0,0,1-2.71,1.29c-1.8,0-2.6-.83-2.6-2.26,0-1.79,1.19-2.4,3-2.4h2.31v-.63c0-.92-.33-1.55-1.87-1.55a8.83,8.83,0,0,0-1.66.17V19.69a14.32,14.32,0,0,1,1.72-.11C96.93,19.58,97.56,20.56,97.56,21.92Zm-1.2,3V23.72H94.13c-1.25,0-1.83.25-1.83,1.43,0,.83.4,1.26,1.47,1.26A2.63,2.63,0,0,0,96.36,25Z"/></g></g></svg>