<svg xmlns="http://www.w3.org/2000/svg" xmlns:xlink="http://www.w3.org/1999/xlink" viewBox="0 0 136 44"><defs><style>.cls-1{fill:#fff;}.cls-2{fill:url(#未命名的渐变_11);}.cls-3{fill:url(#未命名的渐变_11-2);}.cls-4{fill:url(#未命名的渐变_11-3);}.cls-5{fill:url(#未命名的渐变_11-4);}.cls-6{fill:url(#未命名的渐变_11-5);}.cls-7{fill:url(#未命名的渐变_11-6);}.cls-8{fill:url(#未命名的渐变_11-7);}.cls-9{fill:url(#未命名的渐变_11-8);}.cls-10{fill:url(#未命名的渐变_11-9);}.cls-11{fill:url(#未命名的渐变_11-10);}.cls-12{fill:url(#未命名的渐变_11-11);}</style><linearGradient id="未命名的渐变_11" x1="23.49" y1="157.91" x2="23.49" y2="146.14" gradientTransform="matrix(1, 0, 0, -1, 0, 174)" gradientUnits="userSpaceOnUse"><stop offset="0" stop-color="#1b96cd"/><stop offset="0.5" stop-color="#3176b4"/></linearGradient><linearGradient id="未命名的渐变_11-2" x1="95.51" y1="157.91" x2="95.51" y2="146.15" xlink:href="#未命名的渐变_11"/><linearGradient id="未命名的渐变_11-3" x1="107.21" y1="158" x2="107.21" y2="146.17" xlink:href="#未命名的渐变_11"/><linearGradient id="未命名的渐变_11-4" x1="122.1" y1="157.82" x2="122.1" y2="146.15" xlink:href="#未命名的渐变_11"/><linearGradient id="未命名的渐变_11-5" x1="43.31" y1="157.91" x2="43.31" y2="146.18" xlink:href="#未命名的渐变_11"/><linearGradient id="未命名的渐变_11-6" x1="12.5" y1="158.06" x2="12.5" y2="145.92" xlink:href="#未命名的渐变_11"/><linearGradient id="未命名的渐变_11-7" x1="32.85" y1="157.91" x2="32.85" y2="146.17" xlink:href="#未命名的渐变_11"/><linearGradient id="未命名的渐变_11-8" x1="84.52" y1="157.91" x2="84.52" y2="146.14" xlink:href="#未命名的渐变_11"/><linearGradient id="未命名的渐变_11-9" x1="74.44" y1="157.89" x2="74.44" y2="146.15" xlink:href="#未命名的渐变_11"/><linearGradient id="未命名的渐变_11-10" x1="63.21" y1="158.08" x2="63.21" y2="145.97" xlink:href="#未命名的渐变_11"/><linearGradient id="未命名的渐变_11-11" x1="52.9" y1="157.89" x2="52.9" y2="146.18" xlink:href="#未命名的渐变_11"/></defs><title>资源 13</title><g id="图层_2" data-name="图层 2"><g id="图层_1-2" data-name="图层 1"><rect class="cls-1" width="136" height="44" rx="2"/><path class="cls-2" d="M25.08,22.62a3.41,3.41,0,0,0,1.8-4.47,3.22,3.22,0,0,0-.53-.87,3.71,3.71,0,0,0-2.75-1.17H19.33V27.82h1V23h2.9a.69.69,0,0,1,.71.42c.8,1.41,1.63,2.82,2.46,4.23.06.1.16.22.26.23h1l-3-5.08ZM23.94,22c-1.18.11-2.38,0-3.59,0V17h.75c.89,0,1.79,0,2.68.06a2.38,2.38,0,0,1,2.33,2.39A2.36,2.36,0,0,1,24,22Z"/><path class="cls-3" d="M98.88,26.06l-.2-.26-1.83-2.71c-1.52-2.26-3-4.52-4.55-6.77-.06-.09-.17-.21-.26-.21h-.91v5.74h0V27.6a.81.81,0,0,0,0,.22h1v-9.9a.78.78,0,0,1,.25.26l6.33,9.43c.07.09.18.21.28.22a6.76,6.76,0,0,0,.9,0V16.12h-1Z"/><path class="cls-4" d="M111.14,16.1l-1.23-.1-.65.69c-1.54,1.68-3.13,3.33-4.71,5-.21.22-.44.43-.7.69V16.12h-1v11.7h1V24.63a1.78,1.78,0,0,1,.71-1.68,12.12,12.12,0,0,0,1-.9l.31.36c1.41,1.73,2.82,3.46,4.25,5.17.08.11.2.24.31.25h1.14c-1.8-2.2-3.53-4.34-5.3-6.51Z"/><path class="cls-5" d="M120.12,16.18v1h6.08v.08l-9.92,9.94.63.67,10-10V24h1V16.18Z"/><path class="cls-6" d="M43.48,16.1H39.31V27.8h1V23.07h.4c1.17,0,2.34,0,3.5-.07A3,3,0,0,0,47,21.09a3.63,3.63,0,0,0-.47-3.73A3.76,3.76,0,0,0,43.48,16.1Zm2.05,5.4a2.11,2.11,0,0,1-1.43.64c-1.25.05-2.5,0-3.78,0V17h.07c1.18,0,2.37,0,3.56.06a2.26,2.26,0,0,1,2.15,1.63A2.67,2.67,0,0,1,45.53,21.5Z"/><path class="cls-7" d="M15.75,25a2.64,2.64,0,0,1-1.4,1.83,3.77,3.77,0,0,1-2.74.19,3.2,3.2,0,0,1-2.19-2.51,10.87,10.87,0,0,1,0-4.88,3.28,3.28,0,0,1,3.7-2.8h0a2.79,2.79,0,0,1,2.61,2c.1.31.16.62.24.94h1a4.51,4.51,0,0,0-.66-2.08A3.84,3.84,0,0,0,13,16a4.44,4.44,0,0,0-4.55,3.21,10.19,10.19,0,0,0,0,5.79,4.39,4.39,0,0,0,5.45,3,4.76,4.76,0,0,0,1.1-.5A4,4,0,0,0,17,24.19H16C15.87,24.47,15.83,24.73,15.75,25Z"/><path class="cls-8" d="M36.73,16.09a.39.39,0,0,0-.43.26c-.58,1-1.17,2.08-1.75,3.13s-1.11,2-1.68,3l-.33-.57c-1-1.87-2.06-3.74-3.1-5.59-.06-.09-.16-.21-.25-.21H28.12l.17.31c1.29,2.23,2.59,4.46,3.87,6.7a1.6,1.6,0,0,1,.18.67v4.05h1v-4a1.59,1.59,0,0,1,.23-.82q1.93-3.33,3.86-6.66c0-.08.08-.16.14-.28C37.27,16.1,37,16.11,36.73,16.09Z"/><path class="cls-9" d="M85.21,16.76c-.27-.69-.27-.7-1-.66a.4.4,0,0,0-.28.19q-1,2.7-2,5.42h0c-.71,1.86-1.42,3.71-2.12,5.57-.07.17-.13.35-.21.57h.73a.38.38,0,0,0,.45-.28v0c.31-.9.66-1.79,1-2.7.08-.23.2-.28.43-.28h4.67a.38.38,0,0,1,.45.3h0c.32.92.67,1.83,1,2.75a.4.4,0,0,0,.22.22h.9c-.06-.18-.1-.33-.15-.47Q87.22,22.08,85.21,16.76Zm-3.3,5,.17.1Zm3.25,2h-3l.52-1.49c.44-1.16.87-2.33,1.31-3.5l.51-1.37,2.33,6.33c-.61,0-1.14-.05-1.67,0Z"/><path class="cls-10" d="M76.82,22.16h0a3.16,3.16,0,0,0,.45-.37,3.36,3.36,0,0,0,.61-3.59,3,3,0,0,0-2.8-2c-1.36-.11-2.72-.06-4.08-.07h-.71V27.85h1V23l-.34-.4c-.11-.13-.23-.26-.35-.38.12.12.24.25.35.38l.34.4h3a.5.5,0,0,1,.51.3c.83,1.45,1.67,2.89,2.52,4.34a.31.31,0,0,0,.23.24h1l-3-5Zm-2.64-.06H71.33V17.26c0-.21,0-.33.28-.31h2.54a3.45,3.45,0,0,1,1.93.5,2.6,2.6,0,0,1,.53,3.65,1.71,1.71,0,0,1-.11.14l-.25.26.22.24-.22-.24A3.13,3.13,0,0,1,74.18,22.1Z"/><path class="cls-11" d="M67.83,21.23A6.53,6.53,0,0,0,67,18a4.45,4.45,0,0,0-6-1.53h0a.53.53,0,0,0-.17.08,4.92,4.92,0,0,0-2.17,3.9c0,.78-.08,1.56-.06,2.34a6.08,6.08,0,0,0,1,3.33,4.48,4.48,0,0,0,6,1.25,4,4,0,0,0,.43-.28,5.24,5.24,0,0,0,1.79-4h0C67.81,22.46,67.84,21.85,67.83,21.23Zm-2.72,5.43h0a3.65,3.65,0,0,1-3.06.27,3.44,3.44,0,0,1-2.23-2.83,14.12,14.12,0,0,1-.15-1.84V21.12a14.94,14.94,0,0,1,.26-1.63,3.62,3.62,0,0,1,1.66-2.29,3.73,3.73,0,0,1,2.48-.29,3.31,3.31,0,0,1,2.55,2.67,14.2,14.2,0,0,1,.21,1.84v.94h0c-.07.66-.09,1.32-.21,2A3.73,3.73,0,0,1,65.11,26.66Z"/><path class="cls-12" d="M48.45,16.11V17h4V27.82h.94V17.14c0-.23.16-.19.29-.19H57.4v-.84H48.45Z"/></g></g></svg>