<svg xmlns="http://www.w3.org/2000/svg" viewBox="0 0 136 44"><defs><style>.cls-1{fill:#fff;}.cls-2{fill:#705136;}.cls-3{fill:#060101;}.cls-4{fill:#585555;}.cls-5{fill:#585656;}.cls-6{fill:#8a6544;}.cls-7{fill:#745439;}.cls-8{fill:#9a704f;}.cls-9{fill:#966e4e;}.cls-10{fill:#050100;}.cls-11{fill:#050101;}.cls-12{fill:#866241;}.cls-13{fill:#040000;}</style></defs><title>资源 42</title><g id="图层_2" data-name="图层 2"><g id="图层_1-2" data-name="图层 1"><rect class="cls-1" width="136" height="44" rx="2"/><path class="cls-2" d="M35.09,30.44v0Z"/><path class="cls-3" d="M26.12,6.8h1.43a1.15,1.15,0,0,0,.17.06,5.58,5.58,0,0,1,.85.24.78.78,0,0,1,.35,1.19,2.18,2.18,0,0,1-.48.48,3.92,3.92,0,0,0-.76,5.77,10.11,10.11,0,0,0,2.6,2.14,18.82,18.82,0,0,1,2.44,1.72A4,4,0,0,1,34,22.61a11,11,0,0,1-.71,1.72,7.47,7.47,0,0,1,2,1.71,5.77,5.77,0,0,1-.51,8.19,9.43,9.43,0,0,1-4.21,2.08,35,35,0,0,1-6.91.83A39.14,39.14,0,0,1,14,36.48,12.36,12.36,0,0,1,10,35.09a5.59,5.59,0,0,1-2.85-3.92A.46.46,0,0,0,7.12,31V29.78a.61.61,0,0,0,.07-.14A5.63,5.63,0,0,1,9.48,25.9c.14-.09.27-.19.39-.28a5.22,5.22,0,0,1-.26-5.09,5.27,5.27,0,0,1,3.8-3.31,19.93,19.93,0,0,1,.46-2,5.76,5.76,0,0,1,1.33-2.12,24.06,24.06,0,0,1,6.05-4.76,12.2,12.2,0,0,1,4-1.37Zm-4.7,3.38h0a2.1,2.1,0,0,0-.26.13,23.06,23.06,0,0,0-4.49,3.75,8.65,8.65,0,0,0-1.14,1.65,2.53,2.53,0,0,0-.32,1.53l1.9.33a2.21,2.21,0,0,1,.27.12,4.54,4.54,0,0,1,.89.5.79.79,0,0,1,0,1.24.93.93,0,0,1-.92.16l-1.61-.49-.83-.19h-1a2,2,0,0,0-.26.05,4.12,4.12,0,0,0-2.82,3.18,2.75,2.75,0,0,0,.6,2.63.42.42,0,0,0,.35.11,5.3,5.3,0,0,1,2.13-.22,4.17,4.17,0,0,1,.49.08,7.15,7.15,0,0,1,1.23.43.85.85,0,0,1,.33,1.32.86.86,0,0,1-1,.22l-1-.31a3,3,0,0,0-.32-.06A4.77,4.77,0,0,0,9.8,28a3.32,3.32,0,0,0,.08,4.82,5.64,5.64,0,0,0,1.41,1A12.42,12.42,0,0,0,15,35a28.41,28.41,0,0,0,5,.54A39.85,39.85,0,0,0,28.36,35c.92-.16,1.83-.39,2.75-.59a5.57,5.57,0,0,0,3-1.73,3.86,3.86,0,0,0,1-2.24v-.9c0-.12,0-.25,0-.38a4.94,4.94,0,0,0-1.87-2.83,5.18,5.18,0,0,0-2.72-1.18l-.23-.06A11.62,11.62,0,0,1,29,24.75a.91.91,0,0,1-.63-1,1,1,0,0,1,1-.72,3.5,3.5,0,0,1,.65.07c.23.06.45.14.67.22s.59.16.88.26.24,0,.29-.14a9.26,9.26,0,0,0,.51-1.42,3.18,3.18,0,0,0,0-1.19,3,3,0,0,0-1.6-2c-.78-.49-1.6-.94-2.38-1.45a7.84,7.84,0,0,1-2.62-2.66,6.13,6.13,0,0,1-.68-4.07,3.41,3.41,0,0,1,.76-1.8,4,4,0,0,1,.36-.35l0-.06-1.47.28a10.57,10.57,0,0,0-3.22,1.34Z"/><path class="cls-4" d="M27.25,6.8h0Z"/><path class="cls-5" d="M7.12,30.14v0Z"/><path class="cls-6" d="M21.48,10.13A10.57,10.57,0,0,1,24.7,8.79a5.77,5.77,0,0,0-.83,2.57A6.86,6.86,0,0,0,24.58,15a9.19,9.19,0,0,0,2.32,2.76c.9.79,1.81,1.58,2.68,2.4a3.19,3.19,0,0,1,.88,1.42,4.67,4.67,0,0,1,.23,1.78c-.22-.08-.44-.16-.67-.22a3.5,3.5,0,0,0-.65-.07,1,1,0,0,0-1,.72.91.91,0,0,0,.63,1,11.62,11.62,0,0,0,1.19.34l.23.06c.19.23.4.45.59.69a15.49,15.49,0,0,1,1.17,1.62,5.64,5.64,0,0,1-.37,5.89l-.74,1.06c-.92.2-1.83.43-2.75.59a39.85,39.85,0,0,1-8.38.53A28.41,28.41,0,0,1,15,35a3.05,3.05,0,0,1-.5-.28c-.37-.29-.73-.6-1.08-.91A6.93,6.93,0,0,1,11.9,32a3.94,3.94,0,0,1-.5-2.73,3.7,3.7,0,0,1,.94-2,3.45,3.45,0,0,1,1.55-.91l1,.31a.86.86,0,0,0,1-.22.85.85,0,0,0-.33-1.32,7.15,7.15,0,0,0-1.23-.43,4.17,4.17,0,0,0-.49-.08,4.37,4.37,0,0,1-.63-.11.58.58,0,0,1-.35-.2,3.09,3.09,0,0,1-.15-2.54,4,4,0,0,1,2.15-2.4c.27-.12.55-.21.82-.31l1.61.49a.93.93,0,0,0,.92-.16.79.79,0,0,0,0-1.24,4.54,4.54,0,0,0-.89-.5,2.21,2.21,0,0,0-.27-.12c0-.09-.13-.19-.12-.27a2.82,2.82,0,0,1,.18-.72c.29-.6.58-1.2.92-1.78a22.06,22.06,0,0,1,3.21-4.4.94.94,0,0,0,.12-.22h.08Zm-.11,18.94c-.14-.05-.28-.08-.42-.14-.36-.16-.71-.34-1.08-.48a.79.79,0,0,0-.95.36.71.71,0,0,0,0,1,2.28,2.28,0,0,0,.62.49,5.13,5.13,0,0,0,4.7.2,5,5,0,0,0,1.12-.71.74.74,0,0,0,.15-.92.72.72,0,0,0-.81-.46,3.14,3.14,0,0,0-.78.27l-1,.44a.44.44,0,0,0-.15-.05l-1,.05ZM25,25.7a1.34,1.34,0,0,0,1.27-1.38A1.37,1.37,0,0,0,25,23a1.27,1.27,0,0,0-1.19,1.31A1.33,1.33,0,0,0,25,25.7Zm-6.86-1.42a1.29,1.29,0,0,0,1.23,1.42,1.37,1.37,0,0,0,0-2.73A1.24,1.24,0,0,0,18.15,24.28Z"/><path class="cls-7" d="M30.69,23.36a4.67,4.67,0,0,0-.23-1.78,3.19,3.19,0,0,0-.88-1.42c-.87-.82-1.78-1.61-2.68-2.4A9.19,9.19,0,0,1,24.58,15a6.86,6.86,0,0,1-.71-3.64,5.77,5.77,0,0,1,.83-2.57l1.47-.28,0,.06a4,4,0,0,0-.36.35,3.41,3.41,0,0,0-.76,1.8,6.13,6.13,0,0,0,.68,4.07,7.84,7.84,0,0,0,2.62,2.66c.78.51,1.6,1,2.38,1.45a3,3,0,0,1,1.6,2,3.18,3.18,0,0,1,0,1.19,9.26,9.26,0,0,1-.51,1.42c-.05.15-.13.2-.29.14S31,23.44,30.69,23.36Z"/><path class="cls-8" d="M13.89,26.4a3.45,3.45,0,0,0-1.55.91,3.7,3.7,0,0,0-.94,2A3.94,3.94,0,0,0,11.9,32a6.93,6.93,0,0,0,1.54,1.79c.35.31.71.62,1.08.91A3.05,3.05,0,0,0,15,35a12.42,12.42,0,0,1-3.73-1.14,5.64,5.64,0,0,1-1.41-1A3.32,3.32,0,0,1,9.8,28a4.77,4.77,0,0,1,3.77-1.67A3,3,0,0,1,13.89,26.4Z"/><path class="cls-7" d="M31.11,34.41l.74-1.06a5.64,5.64,0,0,0,.37-5.89,15.49,15.49,0,0,0-1.17-1.62c-.19-.24-.4-.46-.59-.69a5.18,5.18,0,0,1,2.72,1.18,4.94,4.94,0,0,1,1.87,2.83c0,.13,0,.26,0,.38v.9a3.86,3.86,0,0,1-1,2.24A5.57,5.57,0,0,1,31.11,34.41Z"/><path class="cls-8" d="M15.73,19.1c-.27.1-.55.19-.82.31a4,4,0,0,0-2.15,2.4,3.09,3.09,0,0,0,.15,2.54.58.58,0,0,0,.35.2,4.37,4.37,0,0,0,.63.11,5.3,5.3,0,0,0-2.13.22.42.42,0,0,1-.35-.11,2.75,2.75,0,0,1-.6-2.63A4.12,4.12,0,0,1,13.63,19a2,2,0,0,1,.26-.05h1Z"/><path class="cls-8" d="M21.42,10.18a.94.94,0,0,1-.12.22,22.06,22.06,0,0,0-3.21,4.4c-.34.58-.63,1.18-.92,1.78a2.82,2.82,0,0,0-.18.72c0,.08.08.18.12.27l-1.9-.33a2.53,2.53,0,0,1,.32-1.53,8.65,8.65,0,0,1,1.14-1.65,23.06,23.06,0,0,1,4.49-3.75A2.1,2.1,0,0,1,21.42,10.18Z"/><path class="cls-9" d="M14.9,18.91h0Z"/><path class="cls-8" d="M21.48,10.13l0,0h-.08Z"/><path class="cls-10" d="M23,29.07l1-.44a3.14,3.14,0,0,1,.78-.27.72.72,0,0,1,.81.46.74.74,0,0,1-.15.92,5,5,0,0,1-1.12.71,5.13,5.13,0,0,1-4.7-.2,2.28,2.28,0,0,1-.62-.49.71.71,0,0,1,0-1,.79.79,0,0,1,.95-.36c.37.14.72.32,1.08.48.14.06.28.09.42.14A2.57,2.57,0,0,0,23,29.07Z"/><path class="cls-3" d="M25,25.7a1.33,1.33,0,0,1-1.25-1.42A1.27,1.27,0,0,1,25,23a1.37,1.37,0,0,1,1.33,1.35A1.34,1.34,0,0,1,25,25.7Z"/><path class="cls-11" d="M18.15,24.28A1.24,1.24,0,0,1,19.35,23a1.37,1.37,0,0,1,0,2.73A1.29,1.29,0,0,1,18.15,24.28Z"/><path class="cls-12" d="M23,29.07a2.57,2.57,0,0,1-1.6,0h.42l1-.05A.44.44,0,0,1,23,29.07Z"/><path class="cls-13" d="M44.36,16.46h8A5.49,5.49,0,0,1,56.3,17.7a4.66,4.66,0,0,1,1.3,3.54,4.81,4.81,0,0,1-1.42,3.7,6.19,6.19,0,0,1-4.34,1.33H49.2v5.79H44.36Zm4.84,6.65h1.19a3,3,0,0,0,2-.49,1.54,1.54,0,0,0,.57-1.24,1.75,1.75,0,0,0-.49-1.24,2.55,2.55,0,0,0-1.84-.51H49.2Z"/><path class="cls-13" d="M57,26.44a5.64,5.64,0,0,1,1.74-4.26,6.52,6.52,0,0,1,4.72-1.68,6.46,6.46,0,0,1,5.12,2,5.71,5.71,0,0,1,1.4,3.9,5.7,5.7,0,0,1-1.73,4.28,6.6,6.6,0,0,1-4.78,1.66,6.73,6.73,0,0,1-4.41-1.38A5.54,5.54,0,0,1,57,26.44Zm4.34,0A3.39,3.39,0,0,0,62,28.66a2,2,0,0,0,3.08,0,3.53,3.53,0,0,0,.6-2.29A3.35,3.35,0,0,0,65,24.2a1.87,1.87,0,0,0-1.5-.72,1.94,1.94,0,0,0-1.56.73A3.31,3.31,0,0,0,61.34,26.43Z"/><path class="cls-13" d="M69.79,26.44a5.64,5.64,0,0,1,1.74-4.26,6.54,6.54,0,0,1,4.72-1.68,6.49,6.49,0,0,1,5.13,2,5.7,5.7,0,0,1,1.39,3.9A5.66,5.66,0,0,1,81,30.65a6.59,6.59,0,0,1-4.78,1.66,6.73,6.73,0,0,1-4.41-1.38A5.57,5.57,0,0,1,69.79,26.44Zm4.34,0a3.39,3.39,0,0,0,.61,2.23,2,2,0,0,0,1.54.73,1.92,1.92,0,0,0,1.54-.72,3.53,3.53,0,0,0,.6-2.29,3.3,3.3,0,0,0-.61-2.18,1.87,1.87,0,0,0-1.5-.72,1.94,1.94,0,0,0-1.56.73A3.36,3.36,0,0,0,74.13,26.43Z"/><path class="cls-13" d="M93.79,25.67,98,27a7.81,7.81,0,0,1-1.34,3,5.94,5.94,0,0,1-2.27,1.8,8.61,8.61,0,0,1-3.45.6,9.93,9.93,0,0,1-4.16-.74A6.59,6.59,0,0,1,84,29a8.81,8.81,0,0,1-1.17-4.76,8.08,8.08,0,0,1,2.06-5.95,7.8,7.8,0,0,1,5.82-2.08,8,8,0,0,1,4.64,1.19A7,7,0,0,1,97.86,21L93.61,22a3.67,3.67,0,0,0-.47-1,2.68,2.68,0,0,0-1-.85,3,3,0,0,0-3.82,1,5.58,5.58,0,0,0-.66,3.07,5.77,5.77,0,0,0,.79,3.55,3.11,3.11,0,0,0,4.3.19A4.9,4.9,0,0,0,93.79,25.67Z"/><path class="cls-13" d="M97.79,26.44a5.61,5.61,0,0,1,1.75-4.26,7.56,7.56,0,0,1,9.84.29,5.7,5.7,0,0,1,1.39,3.9A5.66,5.66,0,0,1,109,30.65a6.59,6.59,0,0,1-4.78,1.66,6.74,6.74,0,0,1-4.41-1.38A5.57,5.57,0,0,1,97.79,26.44Zm4.34,0a3.45,3.45,0,0,0,.61,2.23,2,2,0,0,0,1.54.73,1.91,1.91,0,0,0,1.54-.72,3.53,3.53,0,0,0,.6-2.29,3.3,3.3,0,0,0-.61-2.18,1.87,1.87,0,0,0-1.5-.72,1.94,1.94,0,0,0-1.56.73A3.36,3.36,0,0,0,102.13,26.43Z"/><path class="cls-13" d="M111.27,16.46h4.34V19.4h-4.34Zm0,4.3h4.34v11.3h-4.34Z"/><path class="cls-13" d="M116.63,20.76h4V22.6A6.2,6.2,0,0,1,122.49,21a4.87,4.87,0,0,1,2.26-.48,3.68,3.68,0,0,1,2.81,1.07,4.63,4.63,0,0,1,1,3.3v7.19h-4.35V25.84a2.19,2.19,0,0,0-.4-1.5,1.38,1.38,0,0,0-1.1-.45,1.57,1.57,0,0,0-1.28.6,3.45,3.45,0,0,0-.49,2.14v5.43h-4.33Z"/></g></g></svg>