<svg xmlns="http://www.w3.org/2000/svg" viewBox="0 0 136 44"><defs><style>.cls-1{fill:#1e8bca;}.cls-2,.cls-3{fill:#fff;}.cls-2{opacity:0.4;}.cls-4{fill:#db4b35;}</style></defs><title>资源 11</title><g id="图层_2" data-name="图层 2"><g id="图层_1-2" data-name="图层 1"><rect class="cls-1" width="136" height="44" rx="2"/><path class="cls-2" d="M125.47,39,129,22.44c.31-1.45-.53-2-1.49-1.67l-20.63,8c-1.41.55-1.39,1.34-.24,1.7l5.28,1.65,12.25-7.72c.57-.38,1.1-.16.67.22l-9.91,9L114.54,39a1.37,1.37,0,0,0,1.07-.52L118.19,36l5.35,3.94c1,.55,1.67.27,1.94-.9Z"/><circle class="cls-3" cx="22.2" cy="21.72" r="15.22"/><circle class="cls-4" cx="22.2" cy="21.72" r="7.49"/><path class="cls-3" d="M50.82,17.3v9.47H50V26H44.6v.77h-.86V17.3Zm-6.22.81v3H50v-3ZM50,25.16V21.91H44.6v3.25Z"/><path class="cls-3" d="M61.86,24.56l-.66.79A14.21,14.21,0,0,1,57,19.72V24H59.3v.85H57V27H56V24.88H53.72V24H56V19.67a15.57,15.57,0,0,1-4.23,5.69l-.7-.72a13.61,13.61,0,0,0,4.27-5.39H52v-.87H56V16.53l.91,0v1.81h4.11v.87H57.62A12.31,12.31,0,0,0,61.86,24.56Z"/><path class="cls-3" d="M65.92,18.82H61.6V18h1.95a13.55,13.55,0,0,0-.43-1.46l.72-.15A15.12,15.12,0,0,1,64.32,18h1.6Zm-3.75.9h3.25v.76H62.17Zm0,1.66h3.25v.76H62.17Zm.07,1.67h3.12v3.28H62.24ZM63,25.57h1.63V23.83H63Zm8.87-4.26v.76H65.75v-.76h1.3l.26-1.45H66.2v-.74h1.23l.22-1.27H66.06v-.76H71.5v.76h-3l-.22,1.27h2.47l-.07,2.19Zm-5.4,1.75H71v3.86h-.74v-.66H67.21v.66h-.75Zm.75.79v1.63h3.05V23.85Zm.66-2.54h2l0-1.45h-1.8Z"/><path class="cls-3" d="M79,26v-.92h-6.1v-1H79V19.35h-6.1v-1h7.16V26Z"/><path class="cls-3" d="M87.64,25.4l-.29.92a30.9,30.9,0,0,0-6.68-1.9l.3-.92A28.77,28.77,0,0,1,87.64,25.4Zm-1-3.69-.3.9a26.9,26.9,0,0,0-4.8-1.29l.27-.89A32.44,32.44,0,0,1,86.68,21.71Zm.82-2.83-.29.92a33,33,0,0,0-5.54-1.36l.28-.89A32,32,0,0,1,87.5,18.88Z"/><path class="cls-3" d="M96.31,25.71H88.75v-.89h4.57c.24-1.35.43-2.69.62-4.05H89.75v-.89H95v.71c-.2,1.41-.41,2.81-.65,4.23h2Z"/><path class="cls-3" d="M96.65,25.05v-1h8.44v1Zm1-5.27v-1h6.38v1Z"/><path class="cls-3" d="M110,21.49c0,.31,0,.64-.09.89a4.89,4.89,0,0,1-3,4l-.64-.83c1.59-.85,2.33-1.62,2.55-3.27,0-.21,0-.48.05-.75h-4v-.94h8.58v.94Zm-3.9-2.66v-.94h6.28v.94Z"/><path class="cls-3" d="M118.53,21.63v4.86h-1V22.34a19.08,19.08,0,0,1-3.36,1.94l-.51-.79a19,19,0,0,0,6.35-4.58l.71.61A15.34,15.34,0,0,1,118.53,21.63Z"/></g></g></svg>