<svg xmlns="http://www.w3.org/2000/svg" viewBox="0 0 136 44"><defs><style>.cls-1{fill:#1e8bca;}.cls-2,.cls-5{fill:#fff;}.cls-2{opacity:0.4;}.cls-3,.cls-4{fill:#03743c;}.cls-4{fill-rule:evenodd;}</style></defs><title>资源 8</title><g id="图层_2" data-name="图层 2"><g id="图层_1-2" data-name="图层 1"><rect class="cls-1" width="136" height="44" rx="2"/><path class="cls-2" d="M125.47,39,129,22.44c.31-1.45-.53-2-1.49-1.67l-20.63,8c-1.41.55-1.39,1.34-.24,1.7l5.28,1.65,12.25-7.72c.57-.38,1.1-.16.67.22l-9.91,9L114.54,39a1.37,1.37,0,0,0,1.07-.52L118.19,36l5.35,3.94c1,.55,1.67.27,1.94-.9Z"/><g id="Page-1"><g id="flags"><g id="turkey"><circle id="red" class="cls-3" cx="21.93" cy="21.77" r="15.32"/><path id="white" class="cls-4" d="M29.55,23.22l-1.19,1.21-.24-1.68L26.6,22l1.52-.75.24-1.67,1.19,1.21,1.67-.29L30.43,22l.79,1.5-1.67-.28Zm-3.31,2.27a7.67,7.67,0,1,1,0-7.43,6,6,0,1,0,0,7.43Z"/></g></g></g><path class="cls-5" d="M16.49,22.41c-.3.12-.6.25-.89.35s-.63.22-.94.32a2.1,2.1,0,0,1-.36,0l0-.06a1.62,1.62,0,0,1,.18-.19c.37-.27.75-.54,1.14-.8s.54-.35.82-.51a.49.49,0,0,0,.22-.31,4.07,4.07,0,0,1,.22-.58,1.37,1.37,0,0,1,.18-.24l.05,0-.05.63a1.58,1.58,0,0,0,.21-.16c.25-.22.51-.43.74-.66a.66.66,0,0,0,.1-.91,1.92,1.92,0,0,0-.26-.32.74.74,0,0,1-.18-.82.39.39,0,0,1,.64-.2,1.45,1.45,0,0,1,.48.87l-.24,0c.06.25.14.5.2.75a1.4,1.4,0,0,1-.14.94,3.22,3.22,0,0,1-1.25,1.31c-.1.07-.23.12-.17.29a.31.31,0,0,0,.33.23,1.51,1.51,0,0,0,.58-.16,8.67,8.67,0,0,0,1-.87,1.38,1.38,0,0,0,.34-1.42c-.15-.53-.34-1.05-.52-1.58a.55.55,0,0,1,.18-.69.23.23,0,0,1,.2,0,.6.6,0,0,1,.18.23A4.48,4.48,0,0,1,20,19.82a2.92,2.92,0,0,0,.07.29,2.61,2.61,0,0,1,1.87-1.05.2.2,0,0,0,.2-.23,2.24,2.24,0,0,1,0-.58.79.79,0,0,1,.76-.61.86.86,0,0,1,.8.8A1.06,1.06,0,0,1,23,19.58a7.11,7.11,0,0,1-.9.26l-.14,0v.05a1.38,1.38,0,0,0,.2,0h2.11a1.22,1.22,0,0,1,.25.05c-.11.32-.21.61-.32.9a.26.26,0,0,1-.15.12c-.53.12-1.07.23-1.61.33-.13,0-.27,0-.39,0a1,1,0,0,0-.36.23.25.25,0,0,0,.05.41,3.77,3.77,0,0,0,.48.28.28.28,0,0,1,.18.38c-.06.21-.15.26-.37.24a3.23,3.23,0,0,1-1.64-.59,4,4,0,0,1-.51-.57c-.12-.15-.16-.17-.29,0a7.28,7.28,0,0,1-.69.77,4,4,0,0,1-.9.61,1.09,1.09,0,0,1-1.49-.61Zm4-1.84c-.21,0-.32.1-.28.31a1.32,1.32,0,0,0,.72.92s.14.06.15,0a.24.24,0,0,0,.05-.18c0-.42,0-.52.42-.67a.78.78,0,0,0,.21-.16c-.08,0-.16-.14-.25-.15C21.13,20.63,20.79,20.6,20.45,20.57ZM23,18.74l0-.07-.29-.17s-.08.06-.12.08a2.78,2.78,0,0,0,.27.21S22.94,18.76,23,18.74Z"/><path class="cls-5" d="M28.29,30.22c-.23-.37-.16-.59.18-.71.11.22.55.3.24.69l1,.06c.4,0,.79,0,1.19,0a.53.53,0,0,1,.52.25,1.37,1.37,0,0,1,.19,1.11.5.5,0,0,1-.86.23.21.21,0,0,0-.13-.05H28.93a.34.34,0,0,0-.21.08c-.15.12-.27.11-.37-.06a1,1,0,0,1-.09-.8H28c-4.26,0-8.51,0-12.77,0a4,4,0,0,1-1.41-.19,1.9,1.9,0,0,1-1-.74Zm1.38.88v0c-.27,0-.54,0-.82,0,0,0-.13.08-.13.11s.07.17.11.17c.26,0,.53.11.79-.08a.34.34,0,0,1,.31,0c.17.15.36.1.54.1a.21.21,0,0,0,.15-.13c0-.1,0-.14-.14-.14Z"/><path class="cls-5" d="M34,21.69l-.8-1.34h-.06a1.48,1.48,0,0,1-.62,1.57v-.27l-.09-2.4a.27.27,0,0,0,0-.15l-.52-.77a1.72,1.72,0,0,0,0,.23c0,.82,0,1.65,0,2.47a1.17,1.17,0,0,1-.66,1.21.61.61,0,0,1-.64,0A3.78,3.78,0,0,1,30,21.8c-.19-.18-.35-.18-.45.06s-.1.4-.18.58a3.22,3.22,0,0,1-.31.68.37.37,0,0,1-.48.1A1.68,1.68,0,0,1,28,20.89s0,0,.08-.07v.35a1.72,1.72,0,0,0,.25,1,.46.46,0,0,0,.32.22c.09,0,.21-.14.27-.24.17-.33.3-.68.47-1a1.71,1.71,0,0,1,.3-.42.31.31,0,0,1,.53,0l.3.43c.09.12.18.25.37.21s.22-.18.25-.32a4.41,4.41,0,0,0,.11-.88c0-1-.1-1.92-.16-2.88a.48.48,0,0,0-.12-.26c-.34-.44-.68-.89-1-1.32s-.23-.9-.19-1.42a4,4,0,0,1,1,.89c0-.16,0-.27,0-.38a.7.7,0,0,1,0-.25,1.23,1.23,0,0,1,.22-.24,1.37,1.37,0,0,1,.2.22c.18.31.35.63.52.94l0,.06a.76.76,0,0,1,0,.26s-.14,0-.2,0a2.27,2.27,0,0,0,.75,2c-.15-.86-.3-1.69-.44-2.52,0-.29-.12-.58.14-.82s.28-.17.38.05c.18.41.34.83.5,1.25,0,.11,0,.22-.13.25s-.1.16-.08.24c0,.32.11.63.16.94.08.52.14,1.05.23,1.57a1.28,1.28,0,0,0,.17.46c.24.39.53.76.76,1.16a1.8,1.8,0,0,1,.09,1.25Zm-3.46-6.23.23.28,0,0-.05-.31Z"/><path class="cls-5" d="M14.14,15.86c0-.25-.07-.51-.11-.76a.43.43,0,0,1,.16-.44c.23-.17.41-.14.52.11s.3.75.44,1.13c.06.14,0,.17-.14.19a1.28,1.28,0,0,1-.19,0,.65.65,0,0,0,0,.14c.09.73.19,1.45.29,2.19l.14-.05c.21-.07.31,0,.32.23s0,.22.14.24a.28.28,0,0,0,.31-.16.72.72,0,0,1,.14-.24c.17-.22.37-.19.49.06a.75.75,0,0,0,.13.18,1,1,0,0,0,.11-.2c.05-.26.13-.32.5-.37-.06.38-.09.76-.18,1.12a.54.54,0,0,1-.77.25.32.32,0,0,0-.42.06c-.28.24-.52.24-.92,0,0,.21,0,.41.05.61a2.5,2.5,0,0,1-1.1,2.41,3.34,3.34,0,0,1-2,.65,1.32,1.32,0,0,1-1.39-1.35,7.89,7.89,0,0,1,.05-.84.31.31,0,0,1,0-.13c.07-.09.15-.17.22-.25a1.08,1.08,0,0,1,.15.28,6,6,0,0,1,.07.61c.05.64.54.84,1,.86a2.26,2.26,0,0,0,2.35-2,4.81,4.81,0,0,0,.07-.53.55.55,0,0,0,0-.18l-.08,0a1.36,1.36,0,0,0-.11.28,2.57,2.57,0,0,1-1.06,1.8,1.47,1.47,0,0,1-1.43.19,1.25,1.25,0,0,1-.76-1.3,5.12,5.12,0,0,1,.17-.85c0-.05.09-.1.14-.15s.13.11.14.17c0,.26.07.53.09.79a.58.58,0,0,0,.71.58,2,2,0,0,0,1.39-.85.66.66,0,0,0,.14-.54l-.24.15a.77.77,0,0,1-.59.11.44.44,0,0,1-.38-.46,2.51,2.51,0,0,1,0-.61.86.86,0,0,1,.63-.67.57.57,0,0,1,.6.17,1.55,1.55,0,0,0,.21.23c.06.05.16.1.2.08a.28.28,0,0,0,.13-.2,4.91,4.91,0,0,0-.08-.67c-.1-.68-.21-1.36-.32-2,0,0,0,0,0-.05Zm-.64,3.58c.07-.1.15-.17.14-.23s-.14-.17-.16-.16a1.45,1.45,0,0,0-.22.21Z"/><path class="cls-5" d="M14.13,15.86l-.19.19c.07.3.15.64.22,1a.9.9,0,0,1-1,1c-.12,0-.22-.12-.33-.17a3.38,3.38,0,0,0-.34-.11,1.46,1.46,0,0,0-.1.34c0,.34.08.68.07,1a8,8,0,0,1-.12,1.2.36.36,0,0,1-.42.35c0-.58-.05-1.16-.08-1.75,0-.09,0-.18,0-.27s-.11-.29-.32-.31a.56.56,0,0,1-.59-.62V16.63c0-.07,0-.14,0-.23-.22.15-.21.35-.23.54s0,.48-.05.72-.16.45-.38.49a.52.52,0,0,1-.53-.34,2.83,2.83,0,0,1-.19-1.25c0-.21,0-.42,0-.64a1,1,0,0,1,.07-.15s.12.08.13.13c.06.25.11.5.17.75a4.94,4.94,0,0,0,.15.55c0,.05.08.11.12.11s.1-.07.12-.11c.06-.25.08-.51.16-.76a7.19,7.19,0,0,1,.32-.76.32.32,0,0,1,.37-.18.31.31,0,0,1,.22.34c0,.36,0,.72,0,1.09a.93.93,0,0,0,.07.33s.1.07.15.11.09-.11.09-.16c0-.23,0-.45-.05-.67s-.14-.73-.19-1.1a2.22,2.22,0,0,1,0-.63.36.36,0,0,1,.18-.24.28.28,0,0,1,.24.12,1.17,1.17,0,0,1,.16.44c.06.41.08.83.13,1.24a4.54,4.54,0,0,0,.09.51.88.88,0,0,0,.12.21c.17-.08.11-.17.07-.26a2.13,2.13,0,0,1-.25-1.13,1,1,0,0,1,.06-.31c0-.07.1-.17.16-.17a.31.31,0,0,1,.23.11,1.56,1.56,0,0,1,.3,1.27.28.28,0,0,0,.1.3c.12.09.23.2.36.28a.29.29,0,0,0,.24,0s.07-.13.06-.2a1.7,1.7,0,0,0-.18-.49,2.17,2.17,0,0,1-.34-1,.41.41,0,0,1,.21-.39.3.3,0,0,1,.39.09,6.65,6.65,0,0,1,.41.62Z"/><path class="cls-5" d="M22.83,15.11a3.91,3.91,0,0,1,0-.48c0-.33.16-.43.44-.24A6.94,6.94,0,0,1,24,15s0,.06.06.07c.06-.26.07-.53.34-.7A3.76,3.76,0,0,1,25.24,16h-.1l-.08,0a.81.81,0,0,0,0,.15c0,.31.06.63.12.94a1.24,1.24,0,0,0,.15.42c.47.83,1,1.64,1.42,2.48a1.74,1.74,0,0,1,.09,1.15.36.36,0,0,1,0,.09l-.05,0-1.4-2.53,0,0v.71c0,.65,0,1.3,0,2a1.06,1.06,0,0,1-.4.79.82.82,0,0,1-.23.13c0-.17,0-.31,0-.45a26,26,0,0,0-.18-4.32.56.56,0,0,0-.1-.24l-1.37-1.92-.23-.33Zm1.38.82c-.05-.41-.06-.42-.25-.34Z"/><path class="cls-5" d="M22.82,15.1c0,.25,0,.25-.34.3,0,0,0,0,0,.07.09.32.16.64.26,1a.38.38,0,0,0,.54.16s0,0,.05,0l.3-.1a1.16,1.16,0,0,1,0,.33,1.92,1.92,0,0,1-.32.48c-.05.06-.18,0-.28.07a2.45,2.45,0,0,0,0-.27v-.12a1,1,0,0,0-.25.14.81.81,0,0,0-.16.27.63.63,0,0,1-.64.34.55.55,0,0,1-.54-.33c-.13-.24-.28-.26-.47-.07a2.72,2.72,0,0,0-.24.24.74.74,0,0,1-.8.24.76.76,0,0,1-.56-.68c0-.24,0-.49,0-.73a1,1,0,0,1,0-.17h-.07a2.15,2.15,0,0,0-.13.32c-.09.25-.15.5-.24.74a.44.44,0,0,1-.78.12,1.86,1.86,0,0,1-.42-.91,2.36,2.36,0,0,1,.05-1.18.53.53,0,0,1,.11-.15c0,.05.1.09.11.15.07.34.13.69.21,1a1.24,1.24,0,0,0,.14.38c.09.14.17.13.24,0a2.76,2.76,0,0,0,.08-.27c.16-.38.32-.76.5-1.14a.66.66,0,0,1,.2-.24.43.43,0,0,1,.31-.09.36.36,0,0,1,.19.27c0,.38,0,.77,0,1.15a.53.53,0,0,0,.56.58.71.71,0,0,0,.48-.57,2.51,2.51,0,0,0-.15-1.15.92.92,0,0,1,.23-.94c.09-.12.16,0,.21.07a2.32,2.32,0,0,1,.23,1.1l.09,1a.8.8,0,0,0,.09.26.3.3,0,0,0,.34.22.36.36,0,0,0,.31-.36,1.76,1.76,0,0,0-.34-1,.94.94,0,0,1-.07-.86.4.4,0,0,1,.66-.15,6.19,6.19,0,0,1,.41.59Z"/><path class="cls-5" d="M33.87,14.38c.27.42.53.79.76,1.19.13.24-.11.21-.26.26,0,.15,0,.31.05.46a19.88,19.88,0,0,1,.32,3.85c0,.47,0,.93,0,1.39a1.71,1.71,0,0,1-1.66,1.81,1.24,1.24,0,0,1-.33,0c-.08,0-.21-.05-.23-.11a.33.33,0,0,1,.08-.26,1.39,1.39,0,0,1,.41-.27,1.83,1.83,0,0,0,1-.81,1.36,1.36,0,0,0,.19-.65c-.06-1.08-.13-2.17-.24-3.25-.08-.9-.22-1.81-.33-2.71A1.16,1.16,0,0,1,33.87,14.38Z"/><path class="cls-5" d="M26.8,14.46a4,4,0,0,1,.58,1.33c0,.05-.06.16-.11.17s-.16.13-.14.24c.05.36.12.71.16,1.07.07.57.15,1.13.19,1.7s0,1.13.05,1.69a2.9,2.9,0,0,1-.83,2.09,1.66,1.66,0,0,1-1,.57.57.57,0,0,1-.61-.45l.32-.15a5.67,5.67,0,0,0,1.49-1.18c.2-.2.15-.47.13-.72-.07-.9-.15-1.81-.24-2.71s-.17-1.54-.26-2.31a1.87,1.87,0,0,1,.18-1.16Z"/><path class="cls-5" d="M27.84,14.41c.28.5.54.94.79,1.39.07.12,0,.2-.12.18s-.2.08-.18.22c.14.95.3,1.91.41,2.87.08.61.11,1.24.14,1.86a1.55,1.55,0,0,1-.31.9,1.11,1.11,0,0,1-.22.2.76.76,0,0,1,0-.19,23,23,0,0,0-.51-4.67,13.08,13.08,0,0,1-.26-1.5,4.47,4.47,0,0,1,.14-1A.9.9,0,0,1,27.84,14.41Z"/><path class="cls-5" d="M17.45,15.52c-.41.41-.8.82-1.22,1.21a.73.73,0,0,1-.41.1,5.07,5.07,0,0,1-.52,0,2.2,2.2,0,0,1,.19-.21c.4-.33.81-.65,1.21-1,.21-.18.2-.19,0-.36a.47.47,0,0,1,0-.66.58.58,0,0,1,.63,0,.44.44,0,0,1,0,.61C17.23,15.29,17.23,15.29,17.45,15.52Zm-.55-.61a.19.19,0,0,0,.12.27s.09,0,.09-.07S17.05,14.9,16.9,14.91Z"/><path class="cls-5" d="M30.09,18.38a.71.71,0,0,1-.21-.08,6.4,6.4,0,0,1-.71-.67.54.54,0,0,1,0-.42c0-.07.15-.14.24-.16s.14.06.21.1l.16.12a1.16,1.16,0,0,0,0-.18c0-.24.06-.38.24-.41s.31.06.38.29l0,.13,0,.25a.34.34,0,0,1-.14,0c-.12,0-.16,0-.17.15C30.13,17.79,30.11,18.07,30.09,18.38Z"/><path class="cls-5" d="M11.76,19.07l-2.1,1,0,0a1,1,0,0,1,.09-.24,2.35,2.35,0,0,1,1.41-1.08C11.48,18.63,11.64,18.73,11.76,19.07Z"/><path class="cls-5" d="M9.79,21a5,5,0,0,0,0,1.49A1.25,1.25,0,0,1,10,22.3s.11-.1.15-.09a.23.23,0,0,1,.13.14.88.88,0,0,1-.26.75.43.43,0,0,1-.59-.26,2,2,0,0,1,0-1.08A1.69,1.69,0,0,1,9.79,21Z"/><path class="cls-5" d="M29.45,19.8c-.12-.28-.09-.44.11-.59l1.1-.79.16-.09a.41.41,0,0,1,0,.52A4.87,4.87,0,0,1,29.45,19.8Z"/><path class="cls-5" d="M23.25,22.58c0-.14,0-.27-.2-.2a.17.17,0,0,1-.14,0s0-.13,0-.15a2.17,2.17,0,0,1,.44-.36c.13-.07.24.05.2.21a.9.9,0,0,0,0,.16.34.34,0,0,0,.07.19s.11,0,.17,0a2,2,0,0,1,.48-.12c.05,0,.15.07.17.13s-.07.15-.13.17c-.23.1-.47.18-.7.26S23.24,22.83,23.25,22.58Z"/><path class="cls-5" d="M32.31,22.64l.24,0c.05,0,.12,0,.13.07a.17.17,0,0,1,0,.16q-.37.18-.75.33a.17.17,0,0,1-.17-.09s0-.12.06-.18.08-.07.12-.11c.19-.17.18-.2,0-.36a.24.24,0,0,1-.08-.2c0-.05.09-.1.14-.13a.43.43,0,0,1,.16,0c.31,0,.37.09.24.37A.59.59,0,0,0,32.31,22.64Z"/><path class="cls-5" d="M30.62,20.49l-.15-.5a2.36,2.36,0,0,1-.11-.44.43.43,0,0,1,.16-.26.27.27,0,0,1,.23.09,1.47,1.47,0,0,1,.11,1.26.36.36,0,0,1-.1.15.29.29,0,0,1-.13.05.61.61,0,0,1-.05-.12,1.61,1.61,0,0,1,0-.22Z"/><path class="cls-5" d="M20.92,18.21c.15-.27.15-.27.36,0,0-.06,0-.12,0-.15a.22.22,0,0,1,.15-.09s.1.06.11.11c.08.28.05.44-.11.54a.84.84,0,0,1-.74,0,.5.5,0,0,1-.12-.53.2.2,0,0,1,.13-.1s.08.06.12.1S20.89,18.15,20.92,18.21Z"/><path class="cls-5" d="M25.7,16.75c.16-.25.16-.25.34,0l0,0c0-.1,0-.24.17-.21s.12.16.12.25a.44.44,0,0,1-.5.5c-.34,0-.53-.2-.49-.53,0-.08.09-.14.14-.22l.14.16Z"/><path class="cls-5" d="M12.72,14.75c.16-.31.16-.31.35,0,0-.06,0-.12,0-.15s.11-.1.15-.09.1.09.11.14,0,.39-.17.51a.67.67,0,0,1-.63,0,.48.48,0,0,1-.16-.58.18.18,0,0,1,.13-.08s.08.05.11.09A.89.89,0,0,1,12.72,14.75Z"/><path class="cls-5" d="M25.76,16a1.62,1.62,0,0,1,0-.22.73.73,0,0,0-.18-.63L25.44,15c-.1-.17-.09-.31,0-.39a.28.28,0,0,1,.4.11,1.58,1.58,0,0,1,.21.62,1.83,1.83,0,0,1-.15.59c0,.05-.08.09-.12.13Z"/><path class="cls-5" d="M33.17,16.92a1.81,1.81,0,0,1,0-.34.89.89,0,0,0-.18-.67,1.19,1.19,0,0,1-.14-.4.24.24,0,0,1,.12-.2.29.29,0,0,1,.24.06,1.38,1.38,0,0,1,.07,1.49Z"/><path class="cls-5" d="M17.27,17c0,.37-.24.59-.55.54a.44.44,0,0,1-.23-.15.57.57,0,0,1,.22-.78s.12,0,.14,0a.19.19,0,0,1,0,.15c0,.09,0,.19,0,.29s.09.17.2.09Z"/><path class="cls-5" d="M10.37,15.65a.72.72,0,0,1,0-.19.82.82,0,0,0-.2-.62c-.09-.12-.18-.26,0-.39s.31,0,.43.13A.86.86,0,0,1,10.37,15.65Z"/><path class="cls-5" d="M19.89,15.22c.06-.27.1-.53.18-.77,0-.08.14-.13.21-.19,0,.09.14.19.12.27a4.05,4.05,0,0,1-.17.75c0,.06-.14.11-.22.13S19.93,15.28,19.89,15.22Z"/><path class="cls-5" d="M16.22,21.1a.52.52,0,0,1,0-.11.77.77,0,0,0-.26-.75.29.29,0,0,1,0-.24.28.28,0,0,1,.25-.05.66.66,0,0,1,.32.56.7.7,0,0,1-.21.61Z"/><path class="cls-5" d="M18.73,14.19a1,1,0,0,1-.07.26c0,.05-.09.09-.12.15a.49.49,0,0,0,0,.24s.12,0,.19.06a.33.33,0,0,1-.31.35c-.12,0-.23-.15-.23-.32A.76.76,0,0,1,18.73,14.19Z"/><path class="cls-5" d="M45.35,21.62c-.75,0-1.12.31-1.12.5a22,22,0,0,0,.88,3.46,2.82,2.82,0,0,1,.08.61,3.67,3.67,0,0,1-.16,1l-.16,0a18.65,18.65,0,0,0-1-3.61,3.1,3.1,0,0,1-.13-.78,2.33,2.33,0,0,1,.18-.9,1.75,1.75,0,0,1,.61-.89,6.21,6.21,0,0,1-.1-.89,1.31,1.31,0,0,1,.38-.82,1,1,0,0,1,.64-.28,1.33,1.33,0,0,1,.86.3,4.22,4.22,0,0,1,1,1.33,1.28,1.28,0,0,1,.09.44,1.76,1.76,0,0,1-.24.72A12.86,12.86,0,0,0,45.35,21.62Zm1.37-.78c-.39-.52-.8-1-1.45-1a1.25,1.25,0,0,0-.42.08l0,.35a3.68,3.68,0,0,1-.17.66,3.11,3.11,0,0,1,.93-.13,5.51,5.51,0,0,1,1.06.14Z"/><path class="cls-5" d="M50.71,20.56a4.81,4.81,0,0,0-1.9-.39,1.1,1.1,0,0,0-.86.34l.13.58-.19.54-.07,0-.4-1.08a1.35,1.35,0,0,1,1.48-1.23,6.55,6.55,0,0,1,2.25.59,2.89,2.89,0,0,0,1.16.22h.61l-.41.69a11.26,11.26,0,0,0-1.82.45c-1.5.56-2.53,1.37-2.53,2.28,0,1.42,1.5,2.24,3.41,2.24a11.09,11.09,0,0,0,1.76-.15l0,.07a8.58,8.58,0,0,1-1.12.81,6.74,6.74,0,0,1-1.29.12c-1.8,0-3.29-.87-3.29-2.77a3.66,3.66,0,0,1,3.07-3.32Zm-.09,2.22a6.94,6.94,0,0,1,.82.74,3,3,0,0,1-.57.67c-.26-.26-.53-.48-.8-.71C50.25,23.24,50.43,23,50.62,22.78Z"/><path class="cls-5" d="M54.5,21.62c-.76,0-1.12.31-1.12.5a21.68,21.68,0,0,0,.87,3.46,2.82,2.82,0,0,1,.08.61,3.67,3.67,0,0,1-.16,1l-.16,0a18.65,18.65,0,0,0-1-3.61,3.1,3.1,0,0,1-.13-.78,2.33,2.33,0,0,1,.18-.9,1.71,1.71,0,0,1,.62-.89,5.13,5.13,0,0,1-.11-.89,1.27,1.27,0,0,1,.39-.82.92.92,0,0,1,.63-.28,1.31,1.31,0,0,1,.86.3,4.08,4.08,0,0,1,1,1.33,1.28,1.28,0,0,1,.09.44,1.9,1.9,0,0,1-.23.72A13.12,13.12,0,0,0,54.5,21.62Zm1.36-.78c-.39-.52-.8-1-1.45-1a1.25,1.25,0,0,0-.42.08l0,.35a3.68,3.68,0,0,1-.17.66,3.11,3.11,0,0,1,.93-.13,5.6,5.6,0,0,1,1.07.14Z"/><path class="cls-5" d="M58.89,22.07c-.8,0-1.49-.37-1.49-1.28a1.87,1.87,0,0,1,.44-1.18,1.47,1.47,0,0,1,1-.57,1.27,1.27,0,0,1,1,.78,3.92,3.92,0,0,1,.44,1.88,3.29,3.29,0,0,1-.52,1.8c-.61.92-1.19,1.29-1.76,1.29a3.4,3.4,0,0,1-2-.67l.1-.21a2.15,2.15,0,0,0,1,.23,2.75,2.75,0,0,0,2-1.05A2.23,2.23,0,0,0,59.8,22,3.44,3.44,0,0,1,58.89,22.07Zm-.3-2.16c-.32,0-.76.35-.76.6,0,.43.6.73,1.16.73a3.31,3.31,0,0,0,.77-.09C59.58,20.46,59.18,19.91,58.59,19.91Z"/><path class="cls-5" d="M64.21,20.65a16.28,16.28,0,0,0-2.32,1.08,2,2,0,0,0-1.15,1.51c0,1.15,1.26,1.94,3.12,1.94a7.6,7.6,0,0,0,1.75-.2l0,.12a10.28,10.28,0,0,1-1.14.77,2.67,2.67,0,0,1-1.17.2c-1.66,0-3.07-.79-3.07-2.55a2.93,2.93,0,0,1,1.14-2.21c-.74-.53-1-.9-1-1.49a2.27,2.27,0,0,1,.31-1.05A1.51,1.51,0,0,1,62,18a1.77,1.77,0,0,1,1.47.86l-.11.15a2.33,2.33,0,0,0-1.06-.23c-.76,0-1.36.38-1.36.66s.17.56.59.87a2,2,0,0,0,.73.37,1,1,0,0,0,.37-.12c.62-.3,1.23-.56,1.85-.79l0,0Z"/><path class="cls-5" d="M66.44,18.29l.1,0c.42.4,1.71,1.18,1.94,2a2.54,2.54,0,0,1-.27,2,1.84,1.84,0,0,1-1.41.63,1.51,1.51,0,0,1-.82-.2,1.71,1.71,0,0,1-.71-1.52,2.86,2.86,0,0,1,.42-1.31,4,4,0,0,1,.68-.87A5.05,5.05,0,0,1,66.44,18.29Zm-.32-.88c-.28-.27-.53-.48-.8-.71a6.42,6.42,0,0,1,.54-.65,7.52,7.52,0,0,1,.78.73A3.49,3.49,0,0,1,66.12,17.41ZM65.7,21a1.07,1.07,0,0,0,1.14.92,1.76,1.76,0,0,0,1.07-.37.58.58,0,0,0,.3-.45,1.44,1.44,0,0,0-.37-.74,4,4,0,0,0-1.1-.89A2.18,2.18,0,0,0,65.7,21Zm1.74-3.72c-.28-.26-.53-.48-.8-.71a7.76,7.76,0,0,1,.54-.65,7.52,7.52,0,0,1,.78.73A3.49,3.49,0,0,1,67.44,17.32Z"/><path class="cls-5" d="M71.24,22.91a8.86,8.86,0,0,0,.07-1.37v-.67c0-1.25-.13-3.07-.24-4.25a5.92,5.92,0,0,1,.67-.73l.06,0c.14,1.49.18,3.22.18,4.82,0,.41,0,.82,0,1.12a1.81,1.81,0,0,1-.6,1.11Z"/><path class="cls-5" d="M76.45,15.79A3,3,0,0,0,77,17.37a3.72,3.72,0,0,1-.46.38c0,.88.08,2,.08,2.85a5.33,5.33,0,0,1-.34,2,2.27,2.27,0,0,1-.77.77,2.7,2.7,0,0,1-1.43.43,1.85,1.85,0,0,1-1.43-.59,2.31,2.31,0,0,1-.48-1.54A4,4,0,0,1,72.65,20l.24.1a3,3,0,0,0-.28,1.19A1.67,1.67,0,0,0,73,22.3a1.41,1.41,0,0,0,1.18.55,2.24,2.24,0,0,0,1.18-.33,1.73,1.73,0,0,0,.75-.64c0-.14,0-.29,0-.42,0-1-.07-2.3-.18-3.82,0-.28-.06-.6-.06-.9A.85.85,0,0,1,76,16.2a2.32,2.32,0,0,1,.41-.43Z"/><path class="cls-5" d="M80.85,20.65a16.28,16.28,0,0,0-2.32,1.08,2,2,0,0,0-1.15,1.51c0,1.15,1.26,1.94,3.12,1.94a7.67,7.67,0,0,0,1.75-.2l0,.12a10.28,10.28,0,0,1-1.14.77,2.67,2.67,0,0,1-1.17.2c-1.66,0-3.07-.79-3.07-2.55a2.93,2.93,0,0,1,1.14-2.21c-.74-.53-1-.9-1-1.49a2.27,2.27,0,0,1,.31-1.05A1.51,1.51,0,0,1,78.6,18a1.77,1.77,0,0,1,1.47.86L80,19a2.33,2.33,0,0,0-1.06-.23c-.76,0-1.36.38-1.36.66s.17.56.59.87a2,2,0,0,0,.73.37,1,1,0,0,0,.37-.12c.62-.3,1.23-.56,1.85-.79l0,0Z"/><path class="cls-5" d="M84.15,19.26l.49.93a2.55,2.55,0,0,1,.34,1.3v.75a3.15,3.15,0,0,1-.86,1.9,1.62,1.62,0,0,1-1.13.62,3.91,3.91,0,0,1-1.75-.53l.07-.23a2.37,2.37,0,0,0,.76.12,2.94,2.94,0,0,0,2.4-1.84.84.84,0,0,0,.07-.3,1.12,1.12,0,0,0-.09-.36,11.34,11.34,0,0,0-.82-1.51c.16-.29.31-.57.48-.85Z"/><path class="cls-5" d="M88.46,23.06c-1.9,0-3.35-.69-3.35-2.37a3.47,3.47,0,0,1,.4-1.66l.27.12a3.38,3.38,0,0,0-.2,1c0,1.38,1.37,1.94,3.08,1.94A10.13,10.13,0,0,0,91,21.84a5.24,5.24,0,0,0,.9-.28c.06,0,.07,0,.07-.07a5.64,5.64,0,0,0-.68-1.69A4.79,4.79,0,0,1,91.8,19h0a4.79,4.79,0,0,1,.69,2.09,2,2,0,0,1-.37,1.14A9.18,9.18,0,0,1,88.46,23.06Zm.24,1.23a6.94,6.94,0,0,1,.82.74,3,3,0,0,1-.57.67c-.27-.26-.53-.48-.81-.71C88.33,24.75,88.51,24.51,88.7,24.29Z"/><path class="cls-5" d="M97.86,20.17c-.13-.58-.33-.85-.52-.85a2.06,2.06,0,0,0-1.09.48c-.38.3-.67.64-.67.89,0,.6,1.78.53,2.26.92a1,1,0,0,1,.3.76,2.12,2.12,0,0,1-.56,1.27,4.18,4.18,0,0,1-2.64,1.13,2.25,2.25,0,0,1-2.37-2.51,4.27,4.27,0,0,1,.36-1.68l.27.09A3.74,3.74,0,0,0,93,21.86a1.88,1.88,0,0,0,2,2,3.94,3.94,0,0,0,1.84-.57c.44-.26.85-.58.85-.68s-.5-.36-1.06-.44a2.31,2.31,0,0,1-1.25-.42.87.87,0,0,1-.26-.62,2.49,2.49,0,0,1,.76-1.75,3,3,0,0,1,1.7-1,.53.53,0,0,1,.5.36,1.71,1.71,0,0,1,.16.64,2.56,2.56,0,0,1-.28.76Zm-3.22,6.68c-.28-.27-.53-.48-.8-.71a5.32,5.32,0,0,1,.54-.65,7.52,7.52,0,0,1,.78.73A4,4,0,0,1,94.64,26.85ZM96,26.76c-.28-.26-.53-.48-.8-.71a6.21,6.21,0,0,1,.54-.65,7.52,7.52,0,0,1,.78.73A4,4,0,0,1,96,26.76Z"/></g></g></svg>