<svg xmlns="http://www.w3.org/2000/svg" viewBox="0 0 136 44"><defs><style>.cls-1{fill:#fff;}.cls-2{fill:#479bd5;}.cls-3{fill:#f4d546;}.cls-4{fill:#8b6cae;}.cls-5{fill:#e74583;}.cls-6{fill:#090505;}</style></defs><title>资源 43</title><g id="图层_2" data-name="图层 2"><g id="图层_1-2" data-name="图层 1"><rect class="cls-1" width="136" height="44" rx="2"/><path class="cls-2" d="M46.89,18.86,47,17.64H50.5c0,.26,0,.52,0,.79,0,2.87,0,5.75,0,8.62a3.77,3.77,0,0,1-3,3.88A11.41,11.41,0,0,1,42,30.87a2.83,2.83,0,0,1-2.17-3.37c1.15.12,2.31.24,3.47.38.09,0,.19.15.26.24a1.76,1.76,0,0,0,2.08.66c.82-.25,1-.88,1-1.61,0-.46,0-.91,0-1.43a1.26,1.26,0,0,0-.29.11,4,4,0,0,1-6.72-2.41,5.35,5.35,0,0,1,.81-4.66,4.16,4.16,0,0,1,6.06-.28ZM43.34,22.2c0,1.44.65,2.22,1.78,2.12s1.57-.89,1.53-2.25c0-1.2-.67-2-1.64-2S43.35,20.74,43.34,22.2Z"/><path class="cls-2" d="M37.77,19.94c-1.19.12-2.28.23-3.36.31-.13,0-.3-.14-.4-.27a1.7,1.7,0,0,0-2-.57,1,1,0,0,0-.61.62c0,.21.34.57.58.63.89.2,1.81.29,2.72.46a8.16,8.16,0,0,1,1.54.42,2.67,2.67,0,0,1,1.86,2.32,2.8,2.8,0,0,1-1.38,2.71,7.35,7.35,0,0,1-4.66.88,10.22,10.22,0,0,1-2.34-.39,3.22,3.22,0,0,1-2.27-2.49c1.24-.11,2.4-.23,3.56-.31.13,0,.31.2.42.35a2,2,0,0,0,2.44.68,1.22,1.22,0,0,0,.66-.8c0-.18-.41-.57-.69-.64-1-.26-2-.35-3-.64a5.64,5.64,0,0,1-2.23-1.07,2.47,2.47,0,0,1,.66-4.05,7.43,7.43,0,0,1,2.63-.7,12.92,12.92,0,0,1,3,.12A3.44,3.44,0,0,1,37.77,19.94Z"/><path class="cls-3" d="M11.68,15.44v9.49c0,1.56-.68,2.31-2.09,2.31a2.19,2.19,0,0,1-2.47-2.37q0-4.28,0-8.55v-.66A2.55,2.55,0,0,0,9.5,17.19,2.48,2.48,0,0,0,11.68,15.44Z"/><path class="cls-4" d="M20.32,15.58c1.2,2.1,3.09,2.16,4.48.19v.76c0,2.82,0,5.65,0,8.47a2.34,2.34,0,0,1-3.52,2,2,2,0,0,1-.92-1.45C20.28,22.3,20.32,19.05,20.32,15.58Z"/><path class="cls-5" d="M13.72,19.91c1.32,2,3,2.05,4.45.18,0,2,.07,3.9,0,5.81-.06,1-1.1,1.46-2.41,1.33a2.17,2.17,0,0,1-2-2.13C13.7,23.42,13.72,21.74,13.72,19.91Z"/><path class="cls-6" d="M60.77,27.76a10.86,10.86,0,0,1-3.87-.59,4.57,4.57,0,0,1-2.77-3.83c-.05-.25,0-.38.32-.39,1.14-.06,2.28-.11,3.41-.19.31,0,.36.13.42.37A2.4,2.4,0,0,0,61.47,25a1.44,1.44,0,0,0,1.12-1.15,1.2,1.2,0,0,0-.88-1.3c-.91-.31-1.86-.49-2.77-.8a16.49,16.49,0,0,1-2.57-1.05,3.11,3.11,0,0,1-1.75-3.15,3.53,3.53,0,0,1,2.07-3.06,8.8,8.8,0,0,1,4.67-.71,6.1,6.1,0,0,1,3.32.95,4.06,4.06,0,0,1,1.64,2.67c.06.29,0,.43-.36.44L62.74,18c-.32,0-.48,0-.57-.38-.38-1.39-1.8-1.54-2.86-1.18a.9.9,0,0,0-.65.89.81.81,0,0,0,.7.79c.88.25,1.78.42,2.66.67a19.75,19.75,0,0,1,2.58.91A3.87,3.87,0,0,1,66,25.58a5.1,5.1,0,0,1-3.52,2C61.86,27.69,61.19,27.72,60.77,27.76Z"/><path class="cls-6" d="M101.68,18.54V14a1.36,1.36,0,0,1,.27-.06l3.27,0c.31,0,.41.1.41.41V27.08c0,.31-.11.41-.42.4-.93,0-1.86,0-2.79,0-.38,0-.47-.14-.45-.47s0-.46,0-.83c-.24.19-.36.27-.46.37a3.94,3.94,0,0,1-6.4-1,6.26,6.26,0,0,1,.08-6.2,4.2,4.2,0,0,1,6.14-1Zm.09,3.95a8.38,8.38,0,0,0-.35-1.32,1.49,1.49,0,0,0-1.62-.9,1.38,1.38,0,0,0-1.28,1.08,4.28,4.28,0,0,0,0,2.43A1.53,1.53,0,0,0,100,25a1.58,1.58,0,0,0,1.53-1.24C101.65,23.34,101.69,23,101.77,22.49Z"/><path class="cls-6" d="M85.64,19.08a3.3,3.3,0,0,1,.22-.3,4.44,4.44,0,0,1,4.44-1.22,2.81,2.81,0,0,1,2.2,2.54,14.51,14.51,0,0,1,.09,2c0,1.62,0,3.25,0,4.87,0,.38-.09.53-.5.52-1,0-2,0-2.94,0-.38,0-.49-.13-.49-.49,0-1.48,0-3,0-4.44,0-.3,0-.6,0-.9a1.19,1.19,0,0,0-1.13-1.23,1.37,1.37,0,0,0-1.54.92,5.75,5.75,0,0,0-.19,1.44c0,1.4,0,2.8,0,4.2,0,.42-.13.55-.55.54-1,0-2,0-2.94,0-.33,0-.44-.11-.44-.44q0-4.52,0-9c0-.26.07-.4.37-.4,1,0,1.93,0,2.9,0,.29,0,.39.11.37.39s0,.66,0,1Z"/><path class="cls-6" d="M79.81,24.92a4.71,4.71,0,0,1-2.63,2.34,9.45,9.45,0,0,1-5.57.11A4.91,4.91,0,0,1,68.28,22a5,5,0,0,1,4.49-4.55,9.11,9.11,0,0,1,3.89.25A4.64,4.64,0,0,1,80,22.15c.08,1.34.08,1.34-1.25,1.34h-6c-.54,0-.57.05-.41.57a2,2,0,0,0,3.23.89,1.14,1.14,0,0,1,1-.33C77.62,24.74,78.66,24.82,79.81,24.92ZM76,21.66a1.92,1.92,0,0,0-1-1.78A1.87,1.87,0,0,0,73,20a1.91,1.91,0,0,0-.76,1.63Z"/><path class="cls-6" d="M119,25a4.86,4.86,0,0,1-2.67,2.31,10.07,10.07,0,0,1-5.47.12A5,5,0,0,1,107.51,22c.31-2.81,2.33-4.47,5.26-4.61a8.47,8.47,0,0,1,3.5.44,4.4,4.4,0,0,1,2.87,3.49c.1.52.11,1.06.17,1.59s-.12.58-.56.57c-2.21,0-4.42,0-6.63,0-.67,0-.71.09-.5.72a2,2,0,0,0,3.27.71.9.9,0,0,1,.84-.3c.86.09,1.73.14,2.6.22C118.54,24.86,118.75,24.92,119,25Zm-3.75-3.31a1.88,1.88,0,0,0-.88-1.75,1.92,1.92,0,0,0-2.87,1.75Z"/><path class="cls-6" d="M124.79,17.65v1.29l.09,0,.37-.51a2.77,2.77,0,0,1,3.66-.61.37.37,0,0,1,.1.31c-.32.77-.65,1.53-1,2.29,0,.06-.24.09-.35.08a4.86,4.86,0,0,0-1.12-.12c-.91.14-1.19.89-1.29,1.66a24.68,24.68,0,0,0-.18,2.72c0,.76,0,1.52,0,2.27,0,.3-.09.42-.41.42-1,0-2.08,0-3.13,0-.3,0-.42-.1-.42-.41,0-3,0-6,0-9,0-.13.17-.37.26-.37C122.5,17.64,123.6,17.65,124.79,17.65Z"/><circle class="cls-1" cx="22.58" cy="15.07" r="2.3"/><path class="cls-6" d="M22.58,17.38a2.31,2.31,0,1,1,2.31-2.31A2.32,2.32,0,0,1,22.58,17.38Zm0-4.6a2.29,2.29,0,1,0,2.29,2.29A2.3,2.3,0,0,0,22.58,12.78Z"/><circle class="cls-1" cx="15.98" cy="19.38" r="2.3"/><path class="cls-6" d="M16,21.69a2.31,2.31,0,1,1,2.3-2.31A2.31,2.31,0,0,1,16,21.69Zm0-4.6a2.29,2.29,0,1,0,2.28,2.29A2.29,2.29,0,0,0,16,17.09Z"/><circle class="cls-1" cx="9.35" cy="15.15" r="2.3"/><path class="cls-6" d="M9.35,17.46a2.31,2.31,0,1,1,2.3-2.31A2.3,2.3,0,0,1,9.35,17.46Zm0-4.59a2.29,2.29,0,1,0,2.28,2.28A2.29,2.29,0,0,0,9.35,12.87Z"/></g></g></svg>