<svg xmlns="http://www.w3.org/2000/svg" viewBox="0 0 136 44"><defs><style>.cls-1{fill:#fff;}.cls-2{fill:#2a3141;}.cls-3{fill:#4aafac;}</style></defs><title>资源 14</title><g id="图层_2" data-name="图层 2"><g id="图层_1-2" data-name="图层 1"><rect class="cls-1" width="136" height="44" rx="2"/><path class="cls-2" d="M7.42,17.87H8.66V25.8H13.5v.84H7.42Z"/><path class="cls-2" d="M15.45,17.87H16.7v8.77H15.45Z"/><path class="cls-2" d="M18.25,17.87h1.31l1.84,4.84c.39,1.05.64,1.87,1.08,2.9h.06c.42-1,.69-1.85,1.09-2.9l1.82-4.84H26.7l-3.5,8.77H21.78Z"/><path class="cls-2" d="M28.25,17.87H34.5v.84h-5V21.6h4.2v.84H29.49V25.8h5.17v.84H28.25Z"/><path class="cls-2" d="M39.7,22.26c0-2.82,2-4.54,4.81-4.54a4.49,4.49,0,0,1,3,1.07l-.69.64A3.54,3.54,0,0,0,41,22.23a3.36,3.36,0,0,0,3,3.68,4.51,4.51,0,0,0,.52,0,3.67,3.67,0,0,0,2.59-1l.69.62a4.64,4.64,0,0,1-3.34,1.26,4.37,4.37,0,0,1-4.74-4A5.42,5.42,0,0,1,39.7,22.26Z"/><path class="cls-2" d="M63.21,17.87h1.24v8.77H63.21Z"/><path class="cls-2" d="M67.51,17.87h1.27l4.15,5.68,1.18,1.8h.08c-.08-.88-.17-1.83-.17-2.73V17.87h1.19v8.77H73.92L69.8,21l-1.2-1.8h-.08c.06.87.15,1.76.15,2.67v4.8H67.51Z"/><path class="cls-2" d="M80.48,17.87h1.28L83,22.75c.22.93.45,1.88.67,2.84h.06c.26-1,.53-1.91.8-2.84l1.56-4.88h1.15l1.57,4.88c.27.92.54,1.88.81,2.84h.08c.21-1,.42-1.91.64-2.84l1.2-4.88h1.2L90.4,26.64H88.93l-1.75-5.46c-.18-.68-.36-1.3-.54-2h-.08c-.16.69-.37,1.31-.55,2L84.3,26.64H82.85Z"/><path class="cls-2" d="M99.68,23.88H95.59l-1.13,2.76H93.22L97,17.87h1.37l3.76,8.77h-1.32Zm-.32-.78-.57-1.43c-.42-1-.76-1.94-1.14-3h-.06c-.36,1-.72,2-1.12,3L95.9,23.1Z"/><path class="cls-2" d="M105.1,18.71h-3.34v-.84h7.95v.84h-3.35v7.93H105.1Z"/><path class="cls-2" d="M110.67,22.26c0-2.82,2-4.54,4.81-4.54a4.51,4.51,0,0,1,3,1.07l-.69.64a3.54,3.54,0,0,0-5,.41,3.48,3.48,0,0,0-.84,2.39,3.36,3.36,0,0,0,3,3.68,4.34,4.34,0,0,0,.51,0,3.69,3.69,0,0,0,2.6-1l.69.62a4.66,4.66,0,0,1-3.35,1.26,4.38,4.38,0,0,1-4.72-4A4.69,4.69,0,0,1,110.67,22.26Z"/><path class="cls-2" d="M120.82,17.87h1.24v3.72h5.29V17.87h1.23v8.77h-1.23V22.45h-5.29v4.19h-1.24Z"/><path class="cls-3" d="M55.18,16.94a5.36,5.36,0,0,0-3.83,9.12l1.25-2.8,1.47,2.08,1.87-3.68-.41-.19,1-.64L56.7,22l-.34-.16-2.23,4.38-1.44-2-1,2.2a5.31,5.31,0,0,0,3.47,1.28,5.37,5.37,0,0,0,0-10.73Z"/></g></g></svg>