<svg xmlns="http://www.w3.org/2000/svg" viewBox="0 0 136 44"><defs><style>.cls-1{fill:#fff;}.cls-2{fill:#e4d88d;}.cls-3{fill:#87b34d;}.cls-4{fill:#1f8948;}.cls-5{fill:#616465;}.cls-6{fill:none;}.cls-7{fill:#cbcbcb;}</style></defs><title>资源 6</title><g id="图层_2" data-name="图层 2"><g id="图层_1-2" data-name="图层 1"><rect class="cls-1" width="136" height="44" rx="2"/><circle class="cls-2" cx="20.18" cy="22" r="13.1"/><path class="cls-3" d="M20.18,35.66A13.66,13.66,0,1,1,33.84,22h0A13.68,13.68,0,0,1,20.18,35.66Zm0-26.21A12.55,12.55,0,1,0,32.73,22h0A12.56,12.56,0,0,0,20.18,9.45Z"/><path class="cls-4" d="M24,17.29a2.11,2.11,0,0,1-2.26,1.92,2.08,2.08,0,0,1-2.08-2.08c0-1.14-.11-1.95,2.08-2.08A2.07,2.07,0,0,1,24,16.91,2.41,2.41,0,0,1,24,17.29Z"/><path class="cls-3" d="M9.7,29.87a17.63,17.63,0,0,0,1.65-5.73c.11-2.59-.08-5.22,1.68-6.86A7.39,7.39,0,0,1,18.9,15a24.28,24.28,0,0,1,5.76,1.82c.95.51,3.69,1.2,4.09,1.46s3.1,1.68,1.1,4.09-5,5.16-5.7,6.35-1.38,1.93-1.67,5.58l-.19.58H18.1l-2.92-.77s-2.56-1.35-2.67-1.38S9.7,29.87,9.7,29.87Z"/><circle class="cls-1" cx="18.53" cy="18.93" r="2.49"/><circle class="cls-5" cx="18.52" cy="18.95" r="1.65"/><circle class="cls-1" cx="27.25" cy="21.41" r="0.53"/><path class="cls-5" d="M20.43,23.89s2.9,2.25,9.1-1.33C29.53,22.56,23.61,27.05,20.43,23.89Z"/><polygon class="cls-6" points="24.8 11.24 24.86 11.33 24.87 11.33 24.8 11.24"/><path class="cls-6" d="M24.87,11.33,31.67,21a17.72,17.72,0,0,0-3-7.16C28,12.84,25.63,11.73,24.87,11.33Z"/><path class="cls-1" d="M24.8,11.3l.07,0-.07-.09S24.75,11.24,24.8,11.3Z"/><path class="cls-1" d="M29.39,14.25c-2.26-2.25-3.07-2.73-4.59-3l.07.09c.76.4,3.08,1.51,3.83,2.51a17.72,17.72,0,0,1,3,7.16l.09.13A9,9,0,0,0,29.39,14.25Z"/><path class="cls-7" d="M43.74,21H48.3v3.64a5,5,0,0,1-4.24,1.7q-4.74-.18-4.93-4.88c.13-3.2,1.71-4.85,4.75-5a4.31,4.31,0,0,1,4.33,2.81l-1.66.46a2.68,2.68,0,0,0-2.72-1.84c-1.9.15-2.92,1.34-3,3.55Q41,24.77,44,25a3.42,3.42,0,0,0,2.71-1V22.37h-3Z"/><path class="cls-7" d="M54.75,23.84l1.56.42c-.43,1.44-1.52,2.15-3.27,2.12-2.24-.1-3.41-1.29-3.5-3.6.09-2.39,1.25-3.65,3.46-3.77q3.27.09,3.36,3.82v.41H51.15A1.87,1.87,0,0,0,53,25.13h0A1.56,1.56,0,0,0,54.75,23.84ZM53,20.39A1.73,1.73,0,0,0,51.25,22H54.7a1.59,1.59,0,0,0-1.57-1.61Z"/><path class="cls-7" d="M63.68,21.17l-1.52.37a1.45,1.45,0,0,0-1.43-1.2c-1.16,0-1.75.8-1.75,2.4s.59,2.35,1.75,2.35c.89,0,1.42-.46,1.57-1.48l1.52.32a2.79,2.79,0,0,1-3.11,2.45h0c-2.15-.07-3.25-1.29-3.32-3.64q.14-3.55,3.27-3.73A2.91,2.91,0,0,1,63.68,21.17Z"/><path class="cls-7" d="M69.3,26.19l-2.16-3.31-.83.78v2.53H64.79V16.66h1.52v5.06l2.62-2.62H71.1l-2.95,2.81,3,4.28Z"/><path class="cls-7" d="M75.2,19q3.18.13,3.31,3.68c0,2.4-1.18,3.62-3.45,3.69q-3.23-.2-3.41-3.55Q71.74,19.1,75.2,19Zm-.1,6.17c1.17,0,1.77-.85,1.8-2.44s-.63-2.41-1.8-2.44-1.85.86-1.88,2.48.66,2.35,1.88,2.41Z"/><path class="cls-7" d="M82.8,25.09l.27,1a4.38,4.38,0,0,1-1.29.28,1.44,1.44,0,0,1-1.65-1.7V20.39h-1V19.14h1V17.39l1.47-.73.05,2.48h1.24v1.25H81.65v4.19c0,.46.1.66.41.6A3.06,3.06,0,0,0,82.8,25.09Z"/><path class="cls-7" d="M88.78,23.84l1.57.42c-.43,1.44-1.52,2.15-3.27,2.12-2.24-.1-3.41-1.29-3.5-3.6Q83.72,19.2,87,19q3.27.09,3.37,3.82v.41H85.19A1.87,1.87,0,0,0,87,25.13a1.56,1.56,0,0,0,1.78-1.28ZM87,20.39A1.75,1.75,0,0,0,85.28,22h3.46a1.6,1.6,0,0,0-1.58-1.62Z"/><path class="cls-7" d="M96.06,19.47l-.64,1.33a1.45,1.45,0,0,0-1-.32c-.83,0-1.23.61-1.2,1.93v3.78H91.73v-7h1.52v1A1.53,1.53,0,0,1,94.63,19,2,2,0,0,1,96.06,19.47Z"/><path class="cls-7" d="M106.65,21.72v4.47h-1.52V21.86c0-1.07-.33-1.58-1.1-1.52a1.45,1.45,0,0,0-1.47,1.45v4.4H101V21.86c0-1.07-.34-1.58-1.11-1.52a1.51,1.51,0,0,0-1.47,1.52v4.33H96.94v-7h1.52V20a2,2,0,0,1,1.61-1,2.31,2.31,0,0,1,2.21,1.15A2.13,2.13,0,0,1,104.12,19C105.81,19,106.65,19.88,106.65,21.72Z"/><path class="cls-7" d="M108.36,16.66h1.52v1.7h-1.52Zm0,2.48h1.52v7.05h-1.52Z"/><path class="cls-7" d="M117.57,21.72v4.47h-1.52V21.86c0-1-.41-1.56-1.24-1.56a1.7,1.7,0,0,0-1.8,1.59v4.3h-1.47v-7H113V20a2.17,2.17,0,0,1,2-1C116.77,19,117.63,19.85,117.57,21.72Z"/><path class="cls-7" d="M125.91,26.19h-1.52a1.12,1.12,0,0,1-.42-.87,3,3,0,0,1-2.48,1c-1.63,0-2.48-.69-2.54-2s.94-2.17,2.72-2.35a4.71,4.71,0,0,0,2.12-.46c.09-.89-.37-1.31-1.38-1.24s-1.68.33-1.8,1.19l-1.47-.41c.33-1.48,1.44-2.18,3.31-2.12s2.89.89,2.86,2.76v2.67A2.44,2.44,0,0,0,125.91,26.19Zm-2.12-2.81v-.64a3.21,3.21,0,0,1-1.8.55c-1,.09-1.53.43-1.47,1s.37.74,1.2.74C123,25,123.7,24.39,123.79,23.38Z"/><path class="cls-7" d="M127.06,16.66h1.52v9.53h-1.52Z"/></g></g></svg>