<svg xmlns="http://www.w3.org/2000/svg" viewBox="0 0 136 44"><defs><style>.cls-1{fill:#fff;}.cls-2{fill:#f2c106;}</style></defs><title>资源 32</title><g id="图层_2" data-name="图层 2"><g id="图层_1-2" data-name="图层 1"><rect class="cls-1" width="136" height="44" rx="2"/><path class="cls-2" d="M46.13,21.77c.1.05.22.14.36.2a3.17,3.17,0,0,1,1.91,3.39,3.15,3.15,0,0,1-2.2,2.88,5.56,5.56,0,0,1-1.73.43c-2.48,0-5,0-7.48,0V15.33c1.68,0,3.34,0,5,0a15.77,15.77,0,0,1,2.84.18,3.3,3.3,0,0,1,2.5,4.75A9,9,0,0,1,46.13,21.77ZM39.9,26.09c1.41,0,2.74,0,4.07,0a1.41,1.41,0,0,0,1.49-1.32,1.29,1.29,0,0,0-1.32-1.45c-1.4-.11-2.81,0-4.24,0Zm0-5.26c1.27-.07,2.47-.07,3.65-.21a1.2,1.2,0,0,0,1.14-1.31A1.2,1.2,0,0,0,43.54,18c-1.2-.09-2.41,0-3.64,0Z"/><path class="cls-2" d="M101,15.37V28.73c-.78,0-1.51,0-2.23,0a1.18,1.18,0,0,1-.65-.47c-1.88-2.44-3.74-4.88-5.61-7.32-.12-.16-.25-.31-.5-.62v8.4H89.1V15.33c.85,0,1.67,0,2.48,0,.21,0,.45.25.59.45q2.72,3.52,5.41,7.06l.51.63V15.37Z"/><path class="cls-2" d="M70.48,28.73c-.78,0-1.53,0-2.27,0-.22,0-.46-.31-.62-.52-1.88-2.44-3.74-4.89-5.61-7.33-.12-.15-.25-.29-.48-.55v8.37H58.57V15.33c.87,0,1.73,0,2.58,0,.22,0,.44.33.61.55L67.16,23c.1.13.21.25.43.51V15.37h2.89Z"/><path class="cls-2" d="M121.7,20.67H128V23.3h-6.27v2.77h7.22v2.61H118.74V15.39H128.8V18h-7.1Z"/><path class="cls-2" d="M72.67,28.73c.24-.59.43-1.08.64-1.56,1.61-3.77,3.23-7.54,4.82-11.32a.84.84,0,0,1,1-.63c.67.06,1.5-.16,2,.15s.6,1.14.86,1.74c1.59,3.69,3.16,7.39,4.74,11.08.06.14.1.28.19.54-1,0-1.94,0-2.88,0-.12,0-.29-.24-.36-.4-.31-.7-.61-1.41-.88-2.14a.64.64,0,0,0-.7-.46q-2.33,0-4.65,0a.64.64,0,0,0-.7.46,22.4,22.4,0,0,1-.89,2.14.88.88,0,0,1-.62.4C74.41,28.76,73.6,28.73,72.67,28.73Zm8.86-5.63-1.78-4.31L78,23.1Z"/><path class="cls-2" d="M116.2,17.2l-1.86,2.14a4.73,4.73,0,0,0-4.24-1.43,3.56,3.56,0,0,0-2.24,1.44,4.55,4.55,0,0,0,.33,5.74c1.56,1.61,3.53,1.5,6.15-.31l1.86,1.79c-1.1,1.83-4.3,2.84-7.08,2.2a6.77,6.77,0,0,1-5.2-5.93,6.9,6.9,0,0,1,4.12-7.2A7.45,7.45,0,0,1,116.2,17.2Z"/><path class="cls-2" d="M19.17,28.78l4.62-4.68,2.65,2.7-7.3,7.26-7.33-7.3,2.71-2.7Z"/><path class="cls-2" d="M14.6,20.07l-2.87-2.76,7.41-7.37,7.32,7.33L23.79,19.9l-4.55-4.61Z"/><path class="cls-2" d="M51.69,15.35h2.89V28.69H51.69Z"/><path class="cls-2" d="M16.52,22l2.67-2.63L21.79,22l-2.62,2.62Z"/><path class="cls-2" d="M28.65,24.7,26,22.05l2.64-2.52,2.65,2.53Z"/><path class="cls-2" d="M7,22l2.59-2.55,2.73,2.62L9.7,24.64Z"/></g></g></svg>