<svg xmlns="http://www.w3.org/2000/svg" viewBox="0 0 138.7 44.77"><defs><style>.cls-1{fill:#fff;}.cls-2{fill:#05e9d0;}.cls-3{fill:#04e9d0;}.cls-4{fill:#555656;}</style></defs><title>资源 7</title><g id="图层_2" data-name="图层 2"><g id="图层_1-2" data-name="图层 1"><rect class="cls-1" width="138.7" height="44.77"/><path class="cls-2" d="M14.36,33.69H9V11.06h5.36v8.53h7.53V11.06h5.4V33.68H21.94V25.15H14.36Z"/><path class="cls-3" d="M38.64,33.71A9.72,9.72,0,1,1,48.46,24,9.75,9.75,0,0,1,38.64,33.71Zm.07-14A4.26,4.26,0,1,0,43,24.05,4.33,4.33,0,0,0,38.71,19.75Z"/><path class="cls-3" d="M69.54,24A9.77,9.77,0,0,1,50,24,9.77,9.77,0,0,1,69.54,24Zm-5.49,0a4.27,4.27,0,1,0-4.27,4.27A4.25,4.25,0,0,0,64.05,24Z"/><path class="cls-4" d="M83.72,19.73V30.07H82.37v-5H77.26v5H75.92V19.73h1.34V24h5.11V19.73Z"/><path class="cls-4" d="M85.09,26.05c0-3.2,1.35-4.17,3.72-4.17s3.71,1,3.71,4.17-1.32,4.17-3.71,4.17S85.09,29.25,85.09,26.05Zm6.08,0c0-2.36-.6-3.1-2.36-3.1s-2.35.74-2.35,3.1.61,3.08,2.35,3.08S91.17,28.4,91.17,26.05Z"/><path class="cls-4" d="M93.41,26.05c0-3.2,1.35-4.17,3.72-4.17s3.72,1,3.72,4.17-1.33,4.17-3.72,4.17S93.41,29.25,93.41,26.05Zm6.08,0c0-2.36-.6-3.1-2.36-3.1s-2.35.74-2.35,3.1.61,3.08,2.35,3.08S99.49,28.4,99.49,26.05Z"/><path class="cls-4" d="M101.55,29.21c0-.81.25-.93,1-.93s1,.12,1,.93-.27.95-1,.95S101.55,30,101.55,29.21Z"/><path class="cls-4" d="M104.15,26.05c0-3.2,1.35-4.17,3.72-4.17a7,7,0,0,1,2.1.29v1.18a5.82,5.82,0,0,0-2.08-.36c-1.78,0-2.37.7-2.37,3.07s.59,3,2.38,3a5.93,5.93,0,0,0,2.1-.34v1.17a7.21,7.21,0,0,1-2.13.3C105.5,30.22,104.15,29.25,104.15,26.05Z"/><path class="cls-4" d="M110.66,26.05c0-3.2,1.36-4.17,3.73-4.17s3.71,1,3.71,4.17-1.33,4.17-3.71,4.17S110.66,29.25,110.66,26.05Zm6.08,0c0-2.36-.59-3.1-2.35-3.1s-2.36.74-2.36,3.1.61,3.08,2.36,3.08S116.74,28.4,116.74,26.05Z"/><path class="cls-4" d="M130.55,24.51v5.56h-1.28V25c0-1.24-.34-2-1.55-2a1.89,1.89,0,0,0-2.09,1.42v5.63h-1.28V25c0-1.24-.3-2-1.48-2a1.9,1.9,0,0,0-2.13,1.46v5.59h-1.28V22h1.28v1.06a2.35,2.35,0,0,1,2.33-1.2,2.27,2.27,0,0,1,2.34,1.31,2.5,2.5,0,0,1,2.5-1.31A2.36,2.36,0,0,1,130.55,24.51Z"/></g></g></svg>