<svg xmlns="http://www.w3.org/2000/svg" viewBox="0 0 136 44"><defs><style>.cls-1{fill:#fff;}.cls-2{fill:#0a0707;}.cls-3{fill:#080505;}.cls-4{fill:#0a0706;}.cls-5{fill:#090405;}.cls-6{fill:#090606;}.cls-7{fill:#0b0908;}.cls-8{fill:#d9382e;}.cls-9{fill:#f4f4f5;}</style></defs><title>资源 11</title><g id="图层_2" data-name="图层 2"><g id="图层_1-2" data-name="图层 1"><rect class="cls-1" width="136" height="44" rx="2"/><path class="cls-2" d="M95.47,28.48h-3V21.21a5.88,5.88,0,0,0-.1-1.32,2,2,0,0,0-1.45-1.95,2.49,2.49,0,0,0-2.69.73,4.67,4.67,0,0,0-1.07,3.06c-.06,2,0,4,0,6v.7h-3V20.9a6.07,6.07,0,0,0-.09-1.2A2.06,2.06,0,0,0,82.65,18a2.38,2.38,0,0,0-2.43.47,4.15,4.15,0,0,0-1.29,3c-.08,2.11-.07,4.23-.09,6.34v.69h-3v-13h3v1.72a4.68,4.68,0,0,1,5-1.87,4,4,0,0,1,2.77,2.32c.2-.24.38-.46.58-.67A5.12,5.12,0,0,1,92,15.22a3.93,3.93,0,0,1,3.4,3.62c.11,1.07.1,2.16.11,3.25C95.48,24.2,95.47,26.31,95.47,28.48Z"/><path class="cls-3" d="M60.74,22.11c.09-2.86,1-5.11,3.57-6.32,3.74-1.75,9.27-.18,9.52,5.81a6.64,6.64,0,0,1-2,5.43A6.57,6.57,0,0,1,65,28.39a5.81,5.81,0,0,1-4.11-4.95C60.81,23,60.78,22.44,60.74,22.11Zm10-.14c-.07-.48-.09-1-.2-1.43a3.4,3.4,0,0,0-3.06-2.72A3.27,3.27,0,0,0,64.22,20a5.15,5.15,0,0,0,0,3.93,3.27,3.27,0,0,0,4.14,2,3.32,3.32,0,0,0,1.55-1.13A4.62,4.62,0,0,0,70.77,22Z"/><path class="cls-4" d="M46.65,15.41h2.93v1.83a6,6,0,0,1,3.05-1.93,4.87,4.87,0,0,1,5.49,1.88A5.25,5.25,0,0,1,58.87,20v8.48h-3V20.91c0-1.66-.63-2.69-1.81-3a3.28,3.28,0,0,0-3.65,1.6,6.54,6.54,0,0,0-.77,3.36v5.59h-3Z"/><path class="cls-5" d="M125.63,19.72a3,3,0,0,0-3.82-1.84,2.54,2.54,0,0,0-.38.16c-.31.16-.7.56-.7.86a1.23,1.23,0,0,0,.67.88c.88.37,1.82.59,2.72.91a15.68,15.68,0,0,1,2.72,1.11,3.43,3.43,0,0,1,1.3,4.67,3.49,3.49,0,0,1-1,1.13,6.7,6.7,0,0,1-4.82,1.13A5.88,5.88,0,0,1,118.18,27a9.77,9.77,0,0,1-.94-1.51c-.18-.32-.09-.5.25-.64.77-.32,1.53-.68,2.34-1.05a2.88,2.88,0,0,0,1.59,2,3.75,3.75,0,0,0,2.63.32,2.87,2.87,0,0,0,.62-.22,1.18,1.18,0,0,0,.83-1.08,1.07,1.07,0,0,0-.84-1c-1.11-.4-2.25-.71-3.36-1.1a10.73,10.73,0,0,1-1.88-.8,3.32,3.32,0,0,1-1.38-4.5,3.28,3.28,0,0,1,1.28-1.33,7,7,0,0,1,4.78-.78,5.36,5.36,0,0,1,3.54,1.74,12.69,12.69,0,0,1,.9,1.39Z"/><path class="cls-6" d="M115.55,24.59a5.91,5.91,0,0,1-6.68,4.13c-4.32-.49-6.19-4.25-5.65-7.85.45-3.07,2.08-4.89,4.82-5.55a6.12,6.12,0,0,1,7.53,4l-2.75,1.15c-.09-.27-.17-.54-.28-.79a2.8,2.8,0,0,0-2.7-1.84,3.09,3.09,0,0,0-3.12,1.84,5.21,5.21,0,0,0,0,4.65A3.22,3.22,0,0,0,110,26.08a2.89,2.89,0,0,0,2.69-2.28,1.2,1.2,0,0,1,.12-.35Z"/><path class="cls-7" d="M98.19,15.42h2.93v13H98.19Z"/><path class="cls-8" d="M33.53,14.79a6.16,6.16,0,0,0-.43-2.16,5.94,5.94,0,0,0-7.74-3.27,5.79,5.79,0,0,0-1.93,1.27c-1.32,1.29-2.62,2.61-4,4,0-.15,0-.19-.05-.23a5.94,5.94,0,0,0-11.86.48V29a5.94,5.94,0,0,0,10.14,4.26c1.18-1.15,2.34-2.33,3.51-3.5l.48-.45v.3A6,6,0,1,0,33.55,29C33.55,24.29,33.57,19.54,33.53,14.79Z"/><path class="cls-9" d="M19.28,29.14a5.93,5.93,0,1,1,0-.15Z"/></g></g></svg>