<svg xmlns="http://www.w3.org/2000/svg" viewBox="0 0 136 44"><defs><style>.cls-1{fill:#1e8bca;}.cls-2,.cls-4,.cls-5{fill:#fff;}.cls-2{opacity:0.4;}.cls-3{fill:#25a55a;}.cls-3,.cls-4{fill-rule:evenodd;}</style></defs><title>资源 2</title><g id="图层_2" data-name="图层 2"><g id="图层_1-2" data-name="图层 1"><rect class="cls-1" width="136" height="44" rx="2"/><path class="cls-2" d="M125.47,39,129,22.44c.31-1.45-.53-2-1.49-1.67l-20.63,8c-1.41.55-1.39,1.34-.24,1.7l5.28,1.65,12.25-7.72c.57-.38,1.1-.16.67.22l-9.91,9L114.54,39a1.37,1.37,0,0,0,1.07-.52L118.19,36l5.35,3.94c1,.55,1.67.27,1.94-.9Z"/><g id="Page-1"><g id="flags"><g id="nigeria"><path id="green" class="cls-3" d="M27,36.31A15.32,15.32,0,0,0,27,7.43V36.31Z"/><path id="white" class="cls-4" d="M16.75,7.43V36.31a15.41,15.41,0,0,0,10.21,0V7.43a15.25,15.25,0,0,0-10.21,0Z"/><path id="green-2" data-name="green" class="cls-3" d="M6.54,21.75V22A15.32,15.32,0,0,0,16.75,36.31V7.43A15.32,15.32,0,0,0,6.54,21.75Z"/></g></g></g><path class="cls-5" d="M43.9,17.81h2.38l2.24,5.09h.06V17.81H50.1v7.12H48L45.5,19.51h-.06v5.42H43.9Z"/><path class="cls-5" d="M51.53,17.83c0-.69.16-.77.83-.77s.83.08.83.77-.16.79-.83.79S51.53,18.53,51.53,17.83Zm.08,1.56h1.48v5.54H51.61Z"/><path class="cls-5" d="M59.68,19.39V24.5c0,1.52-.77,2.48-3.07,2.48A10,10,0,0,1,55,26.85V25.67a6.43,6.43,0,0,0,1.47.16c1.2,0,1.7-.34,1.7-1.39v-.3c-.24.49-.68.79-1.67.79-1.8,0-2.25-1.14-2.25-2.82,0-1.52.45-2.82,2.25-2.82,1,0,1.45.29,1.67.81v-.71Zm-1.41,2.72c0-1.06-.19-1.71-1.3-1.71s-1.16.82-1.16,1.71.13,1.73,1.16,1.73S58.27,23.21,58.27,22.11Z"/><path class="cls-5" d="M65.94,22.49l-3.57.22c.05.79.51,1.15,1.5,1.15a4.49,4.49,0,0,0,1.83-.39v1.17a4.84,4.84,0,0,1-2.12.39c-1.69,0-2.7-.62-2.7-2.87s1-2.87,2.74-2.87c1.93,0,2.37,1,2.37,2.43A4.82,4.82,0,0,1,65.94,22.49Zm-1.3-1c0-.6-.15-1.09-1-1.09s-1.22.4-1.25,1.27Z"/><path class="cls-5" d="M70.38,19.29l0,1.32H70.2a1.4,1.4,0,0,0-1.54,1.17v3.15H67.17V19.39h1.49v1a1.51,1.51,0,0,1,1.61-1.1Z"/><path class="cls-5" d="M71.17,17.83c0-.69.17-.77.83-.77s.83.08.83.77-.15.79-.83.79S71.17,18.53,71.17,17.83Zm.08,1.56h1.49v5.54H71.25Z"/><path class="cls-5" d="M79,21.09v3.84H77.69l-.14-.65a2,2,0,0,1-1.77.75c-1.24,0-1.89-.54-1.89-1.69s.79-1.74,2.27-1.74h1.38v-.15c0-.65-.21-.91-1.18-.91a6.56,6.56,0,0,0-1.18.1V19.38a12.52,12.52,0,0,1,1.35-.08C78.39,19.3,79,19.92,79,21.09Zm-1.48,2.16V22.6H76.39c-.74,0-1,.12-1,.69s.24.6.81.6A1.48,1.48,0,0,0,77.54,23.25Z"/></g></g></svg>