<svg xmlns="http://www.w3.org/2000/svg" viewBox="0 0 136 44"><defs><style>.cls-1{fill:#fff;}.cls-2{fill:#6f4122;}.cls-3{fill:#0a0607;}.cls-4{fill:#090505;}.cls-5{fill:#070303;}.cls-6{fill:#080505;}.cls-7{fill:#070404;}.cls-8{fill:#ce9058;}.cls-9{fill:#f3d596;}.cls-10{fill:#713b1d;}.cls-11{fill:#713a1c;}.cls-12{fill:none;}</style></defs><title>资源 35</title><g id="图层_2" data-name="图层 2"><g id="图层_1-2" data-name="图层 1"><rect class="cls-1" width="136" height="44" rx="2"/><path class="cls-2" d="M15.48,17.46h2c0-1,0-2.06,0-3.08a2.38,2.38,0,0,1,1.67-2.27,2.46,2.46,0,0,1,2.68.68,2.54,2.54,0,0,1,.57,2.29C22.25,16,22,17,21.91,18a1.05,1.05,0,0,0,.35.74,5.62,5.62,0,0,0,1,.58A5.73,5.73,0,0,1,23,29.14a13,13,0,0,1-12.66.12,5.33,5.33,0,0,1-3.15-4.7A5.58,5.58,0,0,1,10.25,19l.93-.52C11,17.2,10.7,16,10.53,14.69a2.39,2.39,0,0,1,1.34-2.48,2.34,2.34,0,0,1,2.79.44,4.8,4.8,0,0,1,.79,1.8,5.91,5.91,0,0,1,0,1.46Zm9.58,6.81c.2-3-1.79-4.26-4.14-5.3.06-.36.11-.7.18-1,.19-1.06.44-2.12.56-3.2a1.59,1.59,0,0,0-1.57-1.94c-1.09,0-1.72.62-1.74,1.8s0,2.47,0,3.7H14.66c0-1.29,0-2.51,0-3.73a1.64,1.64,0,0,0-1.77-1.77,1.57,1.57,0,0,0-1.54,1.89c.09.92.3,1.82.47,2.73.29,1.51.29,1.5-1.06,2.23C9,20.6,7.82,22,8,24.11A4,4,0,0,0,9.75,28c3.41,2.61,9.7,2.71,13.22.25A4.4,4.4,0,0,0,25.06,24.27Z"/><path class="cls-3" d="M32.88,23.48c0,.7,0,1.4,0,2.1s-.24.93-.91,1c-2.07.06-2.07.08-2.07-2,0-2.28,0-4.57,0-6.86,0-1,.13-1.14,1.13-1.12a44.87,44.87,0,0,1,4.64.16c1.76.23,2.58,1.4,2.57,3.29s-.86,3-2.62,3.26C34.74,23.41,33.84,23.41,32.88,23.48Zm0-2.22c.79,0,1.7.35,2.15-.54a1.81,1.81,0,0,0,0-1.51c-.48-.83-1.37-.47-2.12-.48Z"/><path class="cls-4" d="M123.63,26.4c0,.79,0,1.52,0,2.25s-.26.8-.83.83c-2.07.08-2.07.1-2.07-2s0-4.35,0-6.52a.93.93,0,0,1,.61-1,7.23,7.23,0,0,1,4.84-.53c2.18.5,3.19,2.37,2.61,4.72a3.44,3.44,0,0,1-4.46,2.42Zm2.3-3.63a3.29,3.29,0,0,0-.19-.81,1.35,1.35,0,0,0-1.74-.61c-.23.1-.32.62-.36,1a7.91,7.91,0,0,0,0,1.46.94.94,0,0,0,1.07,1C125.5,24.73,125.93,24.12,125.93,22.77Z"/><path class="cls-4" d="M98.4,18.92c-1.09-.16-2-.36-2.88-.4a1.09,1.09,0,0,0-.83.65,1.16,1.16,0,0,0,.5,1c.75.43,1.6.68,2.38,1.06a2.79,2.79,0,0,1-.73,5.43A8.49,8.49,0,0,1,92,26c-.64-.28-.85-.57-.42-1.28s.77-1,1.63-.56a6.09,6.09,0,0,0,2.38.36,1.1,1.1,0,0,0,.85-.64,1.18,1.18,0,0,0-.55-.94c-.94-.53-2-.88-2.91-1.43a2.44,2.44,0,0,1-1.23-2.92,2.48,2.48,0,0,1,1.77-1.95,6.94,6.94,0,0,1,5,.25c.64.27.92.64.38,1.28A6.76,6.76,0,0,0,98.4,18.92Z"/><path class="cls-5" d="M77.23,22c.52-.66,1-1.35,1.55-1.95a2,2,0,0,1,1.06-.53,5.31,5.31,0,0,1,1.38,0,5.79,5.79,0,0,1,.83.16,3.77,3.77,0,0,1-.38.75c-.7.83-1.42,1.64-2.15,2.48.85,1.19,2,2.18,2.73,3.4l-.18.23c-.86,0-1.72,0-2.58,0a.93.93,0,0,1-.55-.4,19.68,19.68,0,0,0-1.87-2.2c0,.5,0,1,0,1.51,0,.21.06.48,0,.64-.53.9-1.42.33-2.14.45-.47.08-.77-.21-.77-.72,0-2.82,0-5.65,0-8.48a.67.67,0,0,1,.76-.75c2.48,0,2.19-.21,2.2,2,0,1.09,0,2.18,0,3.26C77.09,21.85,77.14,21.89,77.23,22Z"/><path class="cls-6" d="M103.53,23c.33-.9.6-1.55.82-2.22.16-.49.37-.77,1-.73s1,0,1.16.7a7.93,7.93,0,0,0,.88,2c.21-.87.44-1.72.62-2.59.11-.55.34-.79.93-.73s1.18,0,1.88,0c-.39,1.31-.73,2.5-1.09,3.69-.26.88-.54,1.76-.79,2.64a.79.79,0,0,1-.9.71c-1.82-.05-1.37.2-2-1.37-.19-.47-.35-.95-.59-1.62a19.09,19.09,0,0,0-.75,2,1.09,1.09,0,0,1-1.4,1c-.21,0-.46,0-.64,0A1.09,1.09,0,0,1,102,26c-.67-2.11-1.3-4.24-2-6.52.84,0,1.58,0,2.32,0,.18,0,.4.39.47.63C103.07,21,103.26,21.92,103.53,23Z"/><path class="cls-4" d="M44.18,26.06a10.59,10.59,0,0,1-1.85.62,2.86,2.86,0,0,1-3.42-1.8A4,4,0,0,1,40.36,20a6.1,6.1,0,0,1,6.06,0,.85.85,0,0,1,.33.65c0,1.71,0,3.42,0,5.13,0,.52-.18.71-.72.72C44.58,26.56,44.58,26.58,44.18,26.06ZM44,21.38a1.72,1.72,0,0,0-2,.43A2.32,2.32,0,0,0,41.71,24c.2.69.73.82,1.34.74a1,1,0,0,0,1-1C44,22.94,44,22.19,44,21.38Z"/><path class="cls-5" d="M70.3,26.06a10.53,10.53,0,0,1-1.79.61A3,3,0,0,1,65,24.85,4,4,0,0,1,66.59,20a6.12,6.12,0,0,1,5.94,0,.86.86,0,0,1,.31.65c0,1.71,0,3.43,0,5.14,0,.53-.17.78-.7.71S70.68,26.87,70.3,26.06Zm-.16-4.68a1.68,1.68,0,0,0-2,.49,2.27,2.27,0,0,0-.27,2.24c.22.6.74.66,1.28.61a1,1,0,0,0,1-1C70.17,23,70.14,22.2,70.14,21.38Z"/><path class="cls-6" d="M116.94,26.1a11.22,11.22,0,0,1-1.93.58c-1.74.2-2.85-.44-3.36-1.79A4.12,4.12,0,0,1,113,20.13a6.36,6.36,0,0,1,6.21-.1.93.93,0,0,1,.32.65c0,1.72,0,3.43,0,5.14,0,.54-.21.7-.73.71C117.34,26.56,117.34,26.58,116.94,26.1Zm-.2-4.73a1.71,1.71,0,0,0-1.93.45,2.27,2.27,0,0,0-.34,2.23,1.08,1.08,0,0,0,1.33.66,1,1,0,0,0,.94-1Z"/><path class="cls-7" d="M50.6,20a4.07,4.07,0,0,1,3-.69,2.24,2.24,0,0,1,2.09,2.22c0,1.41,0,2.83,0,4.24a.66.66,0,0,1,0,.32c-.62.84-1.5.32-2.26.4-.5.06-.68-.35-.67-.82,0-1.12,0-2.23,0-3.35,0-.57-.05-1.05-.8-1s-.95.43-.95,1.06c0,1.09,0,2.17,0,3.26,0,.68-.28.91-.93.92-2,0-2,.06-2-2,0-1.38,0-2.77,0-4.16,0-.29,0-.58.09-1C48.94,19.7,49.88,19,50.6,20Z"/><path class="cls-6" d="M85.43,23.61c.06,1.38,1.48,1.67,4,.77l.74,1.35c-2.22,2-6.75,1.05-7.41-1.54s.65-4.77,3.32-4.88a7.58,7.58,0,0,1,2.18.19,3.2,3.2,0,0,1,2.37,3.3c0,.57-.27.82-.86.81C88.3,23.59,86.87,23.61,85.43,23.61Zm2.51-1.5A1.14,1.14,0,0,0,86.59,21c-.68,0-1.19.3-1.21,1.12Z"/><path class="cls-6" d="M63.24,24.09l.91,1.57c-1.61,1.52-5.3,1.41-6.72-.14a3.81,3.81,0,0,1,.85-5.62,5.68,5.68,0,0,1,5.11-.13c.55.22.79.56.34,1.1a1.82,1.82,0,0,0-.24.43c-.22.5-.51.67-1,.31a1.86,1.86,0,0,0-.59-.27,1.82,1.82,0,0,0-2.06.57,2.21,2.21,0,0,0,0,2.17,1.86,1.86,0,0,0,2.07.57C62.31,24.52,62.72,24.3,63.24,24.09Z"/><path class="cls-8" d="M8,24.11C7.82,22,9,20.6,10.76,19.63c1.35-.73,1.35-.72,1.06-2.23-.17-.91-.38-1.81-.47-2.73a1.57,1.57,0,0,1,1.54-1.89,1.64,1.64,0,0,1,1.77,1.77c0,1.22,0,2.44,0,3.73h3.69c0-1.23,0-2.47,0-3.7s.65-1.83,1.74-1.8a1.59,1.59,0,0,1,1.57,1.94c-.12,1.08-.37,2.14-.56,3.2-.07.35-.12.69-.18,1,2.35,1,4.34,2.33,4.14,5.3a7.12,7.12,0,0,1-5.88,4.07,17.57,17.57,0,0,1-4.91.1C11.54,28,9.07,27,8,24.11Zm12.7-1.06c0-.88-.38-1.44-1-1.41s-1,.77-.94,1.5.2,1.28,1,1.38C20.27,24.59,20.68,23.91,20.69,23.05Zm-6.54,0c0-.75-.44-1.4-1-1.41s-1,.68-1,1.46.46,1.41,1,1.42S14.16,23.85,14.15,23.05Z"/><path class="cls-9" d="M8,24.11C9.07,27,11.54,28,14.27,28.44a17.57,17.57,0,0,0,4.91-.1,7.12,7.12,0,0,0,5.88-4.07,4.4,4.4,0,0,1-2.09,4c-3.52,2.46-9.81,2.36-13.22-.25A4,4,0,0,1,8,24.11Z"/><path class="cls-10" d="M20.69,23.05c0,.86-.42,1.54-.94,1.47-.79-.1-.91-.76-1-1.38s.42-1.47.94-1.5S20.69,22.17,20.69,23.05Z"/><path class="cls-11" d="M14.15,23.05c0,.8-.45,1.48-1,1.47s-1-.69-1-1.42.46-1.48,1-1.46S14.14,22.3,14.15,23.05Z"/><rect class="cls-12" x="4.23" y="9.05" width="127.98" height="25.9"/></g></g></svg>