<svg xmlns="http://www.w3.org/2000/svg" viewBox="0 0 136 44"><defs><style>.cls-1{fill:#1e8bca;}.cls-2,.cls-4{fill:#fff;}.cls-2{opacity:0.4;}.cls-3{fill:#db4b35;}</style></defs><title>资源 9</title><g id="图层_2" data-name="图层 2"><g id="图层_1-2" data-name="图层 1"><rect class="cls-1" width="136" height="44" rx="2"/><path class="cls-2" d="M125.47,39,129,22.44c.31-1.45-.53-2-1.49-1.67l-20.63,8c-1.41.55-1.39,1.34-.24,1.7l5.28,1.65,12.25-7.72c.57-.38,1.1-.16.67.22l-9.91,9L114.54,39a1.37,1.37,0,0,0,1.07-.52L118.19,36l5.35,3.94c1,.55,1.67.27,1.94-.9Z"/><circle class="cls-3" cx="22.14" cy="21.97" r="15.16"/><path class="cls-4" d="M19.19,20.18a2.32,2.32,0,0,0-2.3-1.8c-1.8,0-2.69,1.67-2.69,3.55,0,2.36,1.24,3.63,2.72,3.63,1.31,0,2.18-.83,2.39-2.42l2.36.74A4.44,4.44,0,0,1,16.9,27.7c-3.36,0-5.33-2.4-5.33-5.79s2.16-5.66,5.31-5.66a4.64,4.64,0,0,1,4.69,3.39Z"/><path class="cls-4" d="M30.19,27.5l-4.36-7c-.17-.27-.43-.74-.59-1h0c.05.48.06,1.12.06,1.89V27.5H22.94V16.4h2.69l4.22,6.77a10.16,10.16,0,0,1,.56,1.09v0c0-.55-.06-1.23-.06-1.68V16.4h2.35V27.5Z"/><path class="cls-4" d="M52.55,23.83h-4v3.53h-1V23.83h-4V18.74h4V16.41l1,.05v2.28h4Zm-5-.89V19.63H44.48v3.31Zm4.08-3.31H48.51v3.31h3.11Z"/><path class="cls-4" d="M64,27.27a16.4,16.4,0,0,1-5-2.72,16.79,16.79,0,0,1-5,2.77l-.51-.93a15.69,15.69,0,0,0,4.85-2.46,10.51,10.51,0,0,1-2.62-4.79H53.86v-.87h4.66c-.17-.56-.39-1.27-.54-1.64l.94-.21c.16.4.43,1.3.61,1.85H64v.87H62.06a10.08,10.08,0,0,1-2.42,4.79,15,15,0,0,0,4.75,2.38Zm-7.29-8.13A9,9,0,0,0,59,23.32a8.51,8.51,0,0,0,2.11-4.18Z"/><path class="cls-4" d="M67.27,22.3v5h-.88V22.62a14.09,14.09,0,0,1-1.76,1.69l-.51-.77a14.36,14.36,0,0,0,3.33-4H64.78v-.89h1.8c-.13-.71-.37-1.6-.48-2l.83-.12a21.3,21.3,0,0,1,.5,2.12h1v.89a12.24,12.24,0,0,1-1.09,1.88A20.31,20.31,0,0,1,69.5,23.2L69,24A12.27,12.27,0,0,0,67.27,22.3Zm7.91,3.55v.86H68.34v-.86h3V21H69.05v-.9h2.26V16.46l1,.05v3.56h2.42V21H72.26v4.88Z"/><path class="cls-4" d="M85.92,25.92v.89h-9.6V17.17h9.31v.9H77.29v7.85Zm-8.4-1.27a21.52,21.52,0,0,0,3.42-2.71c-1.11-1.07-2.17-2-2.89-2.62l.64-.66c.74.62,1.82,1.59,2.91,2.62a20.26,20.26,0,0,0,2.21-2.74l.78.56a24.48,24.48,0,0,1-2.33,2.82c1,1,2,2,2.72,2.73l-.62.8c-.73-.82-1.74-1.86-2.76-2.87a24.67,24.67,0,0,1-3.46,2.85Z"/></g></g></svg>