<svg xmlns="http://www.w3.org/2000/svg" viewBox="0 0 136 44"><defs><style>.cls-1{fill:#1e8bca;}.cls-2,.cls-4{fill:#fff;}.cls-2{opacity:0.4;}.cls-3{fill:#1aaf5d;}</style></defs><title>资源 15</title><g id="图层_2" data-name="图层 2"><g id="图层_1-2" data-name="图层 1"><rect class="cls-1" width="136" height="44" rx="2"/><path class="cls-2" d="M125.47,39,129,22.44c.31-1.45-.53-2-1.49-1.67l-20.63,8c-1.41.55-1.39,1.34-.24,1.7l5.28,1.65,12.25-7.72c.57-.38,1.1-.16.67.22l-9.91,9L114.54,39a1.37,1.37,0,0,0,1.07-.52L118.19,36l5.35,3.94c1,.55,1.67.27,1.94-.9Z"/><circle class="cls-3" cx="21.57" cy="21.95" r="15.16"/><path class="cls-4" d="M11.75,27.48V16.42h8.47v2h-6v2.38h5.6v2h-5.6v2.61h6.13v2Z"/><path class="cls-4" d="M28.87,27.48l-4.34-6.94c-.17-.27-.44-.74-.59-1h0c.05.48.06,1.12.06,1.88v6.09H21.65V16.42h2.67l4.21,6.74a9.35,9.35,0,0,1,.56,1.09v0c0-.55-.06-1.22-.06-1.67V16.42h2.34V27.48Z"/><path class="cls-4" d="M47.49,24.24v.93H42.81V17.26H47.2v.91H43.83v2.45H47v.86H43.83v2.76Z"/><path class="cls-4" d="M53.23,20.9v4.27h-1v-3.9c0-.95-.19-1.5-1.17-1.5A1.67,1.67,0,0,0,49.2,21v4.16h-1V19h1v.88a2,2,0,0,1,2-1C52.78,18.9,53.23,19.73,53.23,20.9Z"/><path class="cls-4" d="M59.53,19v5.72c0,1.7-.93,2.71-3,2.71A8.15,8.15,0,0,1,55,27.3v-.83a8.09,8.09,0,0,0,1.51.13c1.37,0,2-.56,2-2V24c-.26.72-.81,1.16-2,1.16-2,0-2.55-1.26-2.55-3.14,0-1.7.5-3.13,2.55-3.13a1.81,1.81,0,0,1,2,1.26V19Zm-1,3c0-1.41-.41-2.31-1.89-2.31S55.05,20.83,55.05,22s.19,2.31,1.64,2.31S58.58,23.5,58.58,22Z"/><path class="cls-4" d="M60.69,23.92V16.5h1v7.17c0,.62.17.74.57.74a2,2,0,0,0,.47-.05v.81a3,3,0,0,1-.65.06C61.14,25.23,60.69,24.85,60.69,23.92Z"/><path class="cls-4" d="M62.94,17.3c0-.51.16-.58.6-.58s.58.07.58.58-.17.58-.58.58S62.94,17.8,62.94,17.3ZM63,19h1v6.16H63Z"/><path class="cls-4" d="M64.81,25V24.2a8,8,0,0,0,1.78.24c.94,0,1.43-.23,1.43-1s-.21-.88-1.38-1.15c-1.36-.31-1.72-.74-1.72-1.78s.75-1.66,2.21-1.66a5.5,5.5,0,0,1,1.55.2l-.07.83a4.5,4.5,0,0,0-1.47-.24c-.87,0-1.3.2-1.3.89s.22.77,1.17,1c1.42.32,1.93.71,1.93,1.9s-.83,1.77-2.34,1.77A8.6,8.6,0,0,1,64.81,25Z"/><path class="cls-4" d="M74.74,20.9v4.27h-1v-3.9c0-.95-.2-1.5-1.18-1.5A1.67,1.67,0,0,0,70.71,21v4.16h-1V16.5h1v3.39a2,2,0,0,1,2-1C74.29,18.9,74.74,19.73,74.74,20.9Z"/><path class="cls-4" d="M77.66,21.21c0-3.05,1.44-4.07,3.82-4.07a6.38,6.38,0,0,1,2.06.31v.91a5.78,5.78,0,0,0-2-.32c-1.76,0-2.79.61-2.79,3.17s1,3.18,2.75,3.18a5.74,5.74,0,0,0,1.29-.15V21.79H81.18v-.86h2.57v4a8,8,0,0,1-2.39.33C79.06,25.28,77.66,24.52,77.66,21.21Z"/><path class="cls-4" d="M87.83,18.9l0,.89h-.14a1.79,1.79,0,0,0-1.9,1.35v4h-1V19h1v1.12a1.88,1.88,0,0,1,2-1.23Z"/><path class="cls-4" d="M87.6,22.09c0-2.45,1-3.19,2.85-3.19s2.84.74,2.84,3.19-1,3.19-2.84,3.19S87.6,24.54,87.6,22.09Zm4.65,0c0-1.8-.46-2.37-1.8-2.37s-1.8.57-1.8,2.37.46,2.36,1.8,2.36S92.25,23.89,92.25,22.09Z"/><path class="cls-4" d="M99,19v6.16h-.83l-.13-.89a2,2,0,0,1-1.94,1c-1.61,0-2.06-.82-2.06-2V19h1v3.9c0,.93.2,1.5,1.18,1.5A1.64,1.64,0,0,0,98,23.19V19Z"/><path class="cls-4" d="M105.69,22.09c0,1.7-.48,3.19-2.54,3.19-1.2,0-1.75-.47-2-1.19v3.35h-1V19h1v1.11a1.84,1.84,0,0,1,2-1.22C105.21,18.9,105.69,20.21,105.69,22.09Zm-1,0c0-1.3-.22-2.37-1.64-2.37s-1.92.9-1.92,2.37.44,2.36,1.92,2.36S104.66,23.28,104.66,22.09Z"/></g></g></svg>