<?xml version="1.0" encoding="iso-8859-1"?>
<!-- Generator: Adobe Illustrator 24.0.0, SVG Export Plug-In . SVG Version: 6.00 Build 0)  -->
<svg version="1.1" id="&#x56FE;&#x5C42;_1" xmlns="http://www.w3.org/2000/svg" xmlns:xlink="http://www.w3.org/1999/xlink" x="0px"
	 y="0px" viewBox="0 0 68 62.5" style="enable-background:new 0 0 68 62.5;" xml:space="preserve">
<g>
	<path style="fill:#1E8BCA;" d="M44.371,43.489c0-6.941,5.627-12.569,12.569-12.569c1.602,0,3.132,0.303,4.541,0.849
		c0.003-0.174,0.013-0.345,0.013-0.52c0-16.847-13.657-30.504-30.504-30.504c-16.847,0-30.504,13.657-30.504,30.504
		s13.657,30.504,30.504,30.504c7.558,0,14.469-2.755,19.797-7.307C46.959,52.293,44.371,48.195,44.371,43.489z"/>
	<path style="fill:#FFFFFF;" d="M40.576,45.923l5.06-23.853c0.447-2.099-0.758-2.925-2.134-2.41L13.763,31.122
		c-2.031,0.791-1.996,1.928-0.344,2.443l7.607,2.375l17.658-11.118c0.826-0.551,1.584-0.24,0.965,0.311L25.366,38.039l-0.551,7.849
		c0.791,0,1.137-0.344,1.549-0.758l3.716-3.58l7.71,5.679c1.412,0.791,2.41,0.379,2.789-1.309L40.576,45.923z"/>
	<g>
		<g>
			<path style="fill:#129B7F;" d="M57.215,33.651c-5.641,0-10.214,4.57-10.214,10.206c0,5.207,3.902,9.503,8.943,10.128
				c0.284,0.06,0.63,0.095,1.043,0.095c0.116,0,0.227-0.006,0.335-0.017c5.591-0.057,10.107-4.604,10.107-10.206
				C67.428,38.22,62.856,33.651,57.215,33.651L57.215,33.651z M55.604,53.14c-4.395-0.768-7.737-4.6-7.737-9.212
				c0-0.661,0.069-1.307,0.2-1.929c0.404,0.432,1.357,0.422,1.589-0.224c0.416,0.248,0.974,0.292,0.974,0.788
				c0,1.634,0.058,3.386,1.543,3.413c0.042,0,0.828,0.298,1.202,1.268c0.13,0.336,0.641,0,1.202,0c0.28,0,0,0.473,0,1.493
				c0,1.017,2.192,2.582,2.192,2.582c-0.01,0.673,0.017,1.217,0.073,1.652C56.349,52.963,55.932,53.029,55.604,53.14L55.604,53.14z
				 M59.531,52.928c-0.049-0.238-0.261-0.368-0.648-0.266c0.309-1.316,0.459-2.053,1.105-2.613c0.932-0.809,0.11-1.709-0.6-1.603
				c-0.56,0.085-0.206-0.693-0.706-0.736c-0.5-0.042-1.152-1.035-1.871-1.377c-0.381-0.181-0.756-0.666-1.344-0.688
				c-0.521-0.02-1.282,0.441-1.282,0.085c0-1.144-0.116-1.96-0.14-2.286c-0.019-0.262-0.171-0.088,0.533-0.072
				c0.383,0.01,0.196-0.77,0.576-0.8c0.372-0.029,1.261,0.349,1.487,0.198c0.211-0.141,1.545,3.504,1.545,0.602
				c0-0.344-0.179-0.943,0-1.269c0.705-1.288,1.365-2.338,1.306-2.492c-0.034-0.086-0.722-0.158-1.272,0.027
				c-0.185,0.063,0.059,0.353-0.208,0.415c-0.999,0.231-1.882-0.269-1.573-0.739c0.317-0.481,1.464-0.21,1.565-1.177
				c0.057-0.554,0.106-1.195,0.138-1.671c1.346,0.21,1.197-1.746-0.803-1.955c4.046,0.047,7.474,2.66,8.732,6.287
				c-0.061-0.058-0.14-0.094-0.224-0.102c-0.604-1.51-2.072-0.417-1.574,0.915c-2.667,2.051-1.985,3.481-1.109,4.3
				c0.462,0.43,0.901,1.078,1.188,1.543c-0.312,0.909,1.148,0.545,1.868-0.997C65.295,49.646,62.75,52.108,59.531,52.928
				L59.531,52.928z M65.776,42.02c0.139,0.651,0.203,1.316,0.192,1.981c-0.029-0.502-0.095-1-0.199-1.492
				C65.778,42.337,65.78,42.172,65.776,42.02L65.776,42.02z M65.776,42.02"/>
		</g>
	</g>
	<g id="Page-1_12_">
		<g id="flags_13_" transform="translate(-2340.000000, -2610.000000)">
			<g id="iran" transform="translate(2340.000000, 2610.000000)">
				<path id="red_11_" style="fill-rule:evenodd;clip-rule:evenodd;fill:#DB4B35;" d="M66.932,47.267H47.618
					c1.406,3.977,5.199,6.827,9.657,6.827S65.527,51.244,66.932,47.267L66.932,47.267L66.932,47.267z"/>
				<path id="white_14_" style="fill-rule:evenodd;clip-rule:evenodd;fill:#FFFFFF;" d="M47.618,47.267h19.314
					c0.377-1.068,0.583-2.217,0.583-3.413s-0.205-2.346-0.583-3.413H47.618c-0.377,1.068-0.583,2.217-0.583,3.413
					S47.241,46.2,47.618,47.267L47.618,47.267L47.618,47.267z"/>
				<path id="green_3_" style="fill-rule:evenodd;clip-rule:evenodd;fill:#25A55A;" d="M66.932,40.44
					c-1.406-3.977-5.199-6.827-9.657-6.827s-8.251,2.849-9.657,6.827H66.932L66.932,40.44z"/>
				<g id="bottom" transform="translate(5.000000, 120.000000)">
					<path id="Rectangle" style="fill-rule:evenodd;clip-rule:evenodd;fill:#FFFFFF;" d="M43.856-72.505v0.228h-0.569v0.341h0.341
						v-0.114h-0.228v-0.114h0.455v0.228h0.569v-0.569h-0.114v0.455h-0.114v-0.455h-0.114v0.455H43.97v-0.455H43.856L43.856-72.505z
						 M42.764-72.517l0.049,0.114h0.929v-0.114H42.764L42.764-72.517z M44.539-72.278v0.341h0.114v-0.228h0.341v0.228h0.569v-0.341
						h-0.339v0.114h0.225v0.114h-0.341v-0.228H44.539L44.539-72.278z M46.245-72.505v0.228h-0.569v0.341h0.341v-0.114H45.79v-0.114
						h0.455v0.228h0.569v-0.569H46.7v0.455h-0.114v-0.455h-0.114v0.455h-0.114v-0.455H46.245L46.245-72.505z M44.539-72.517v0.114
						h1.593v-0.114H44.539L44.539-72.517z M46.928-72.278v0.341h0.114v-0.228h0.341v0.228h0.569v-0.341h-0.339v0.114h0.225v0.114
						h-0.341v-0.228H46.928L46.928-72.278z M48.635-72.505v0.228h-0.569v0.341h0.341v-0.114H48.18v-0.114h0.455v0.228h0.569v-0.569
						H49.09v0.455h-0.114v-0.455h-0.114v0.455h-0.114v-0.455H48.635L48.635-72.505z M46.928-72.517v0.114h1.593v-0.114H46.928
						L46.928-72.517z M49.317-72.278v0.341h0.114v-0.228h0.341v0.228h0.569v-0.341h-0.339v0.114h0.225v0.114h-0.341v-0.228H49.317
						L49.317-72.278z M51.024-72.505v0.228h-0.569v0.341h0.341v-0.114h-0.228v-0.114h0.455v0.228h0.569v-0.569h-0.114v0.455h-0.114
						v-0.455h-0.114v0.455h-0.114v-0.455H51.024L51.024-72.505z M49.317-72.517v0.114h1.593v-0.114H49.317L49.317-72.517z
						 M51.707-72.278v0.341h0.114v-0.228h0.341v0.228h0.569v-0.341h-0.339v0.114h0.225v0.114h-0.341v-0.228H51.707L51.707-72.278z
						 M53.413-72.505v0.228h-0.569v0.341h0.341v-0.114h-0.228v-0.114h0.455v0.228h0.569v-0.569h-0.114v0.455h-0.114v-0.455h-0.114
						v0.455h-0.114v-0.455H53.413L53.413-72.505z M51.707-72.517v0.114H53.3v-0.114H51.707L51.707-72.517z M54.096-72.278v0.341
						h0.114v-0.228h0.341v0.228h0.569v-0.341h-0.339v0.114h0.225v0.114h-0.341v-0.228H54.096L54.096-72.278z M55.803-72.505v0.228
						h-0.569v0.341h0.341v-0.114h-0.228v-0.114h0.455v0.228h0.569v-0.569h-0.114v0.455h-0.114v-0.455H56.03v0.455h-0.114v-0.455
						H55.803L55.803-72.505z M54.096-72.517v0.114h1.593v-0.114H54.096L54.096-72.517z M56.485-72.278v0.341h0.114v-0.228h0.341
						v0.228h0.569v-0.341H57.17v0.114h0.225v0.114h-0.341v-0.228H56.485L56.485-72.278z M58.192-72.505v0.228h-0.569v0.341h0.341
						v-0.114h-0.228v-0.114h0.455v0.228h0.569v-0.569h-0.114v0.455h-0.114v-0.455H58.42v0.455h-0.114v-0.455H58.192L58.192-72.505z
						 M56.485-72.517v0.114h1.593v-0.114H56.485L56.485-72.517z M58.875-72.278v0.341h0.114v-0.228h0.341v0.228h0.569v-0.341H59.56
						v0.114h0.225v0.114h-0.341v-0.228H58.875L58.875-72.278z M60.581-72.505v0.228h-0.569v0.341h0.341v-0.114h-0.228v-0.114h0.455
						v0.228h0.569v-0.569h-0.114v0.455h-0.114v-0.455h-0.114v0.455h-0.114v-0.455H60.581L60.581-72.505z M58.875-72.517v0.114h1.593
						v-0.114H58.875L58.875-72.517z M61.264-72.278v0.341h0.114v-0.228h0.259l0.053-0.114H61.264L61.264-72.278z M61.264-72.517
						v0.114h0.453l0.05-0.114H61.264L61.264-72.517z"/>
					<g id="Group" transform="translate(19.000000, 6.000000)">
						
							<rect id="Rectangle-460" x="25.766" y="-78.05" style="fill-rule:evenodd;clip-rule:evenodd;fill:#FFFFFF;" width="0.114" height="0.114"/>
						
							<rect id="Rectangle-461" x="28.156" y="-78.05" style="fill-rule:evenodd;clip-rule:evenodd;fill:#FFFFFF;" width="0.114" height="0.114"/>
						
							<rect id="Rectangle-462" x="30.545" y="-78.05" style="fill-rule:evenodd;clip-rule:evenodd;fill:#FFFFFF;" width="0.114" height="0.114"/>
						
							<rect id="Rectangle-463" x="32.934" y="-78.05" style="fill-rule:evenodd;clip-rule:evenodd;fill:#FFFFFF;" width="0.114" height="0.114"/>
						
							<rect id="Rectangle-464" x="35.324" y="-78.05" style="fill-rule:evenodd;clip-rule:evenodd;fill:#FFFFFF;" width="0.114" height="0.114"/>
						
							<rect id="Rectangle-465" x="37.713" y="-78.05" style="fill-rule:evenodd;clip-rule:evenodd;fill:#FFFFFF;" width="0.114" height="0.114"/>
						
							<rect id="Rectangle-466" x="40.102" y="-78.05" style="fill-rule:evenodd;clip-rule:evenodd;fill:#FFFFFF;" width="0.114" height="0.114"/>
					</g>
					<path id="Rectangle-19" style="fill-rule:evenodd;clip-rule:evenodd;fill:#FFFFFF;" d="M42.697-72.619l-0.038-0.114h0.514
						v0.114H42.697L42.697-72.619z M43.287-72.619v-0.114h1.138v0.114H43.287L43.287-72.619z M44.539-72.619v-0.114h1.024v0.114
						H44.539L44.539-72.619z M45.676-72.619v-0.114h1.138v0.114H45.676L45.676-72.619z M46.928-72.619v-0.114h1.024v0.114H46.928
						L46.928-72.619z M48.066-72.619v-0.114h1.138v0.114H48.066L48.066-72.619z M49.317-72.619v-0.114h1.024v0.114H49.317
						L49.317-72.619z M50.455-72.619v-0.114h1.138v0.114H50.455L50.455-72.619z M51.707-72.619v-0.114h1.024v0.114H51.707
						L51.707-72.619z M52.845-72.619v-0.114h1.138v0.114H52.845L52.845-72.619z M54.096-72.619v-0.114h1.024v0.114H54.096
						L54.096-72.619z M55.234-72.619v-0.114h1.138v0.114H55.234L55.234-72.619z M56.485-72.619v-0.114h1.024v0.114H56.485
						L56.485-72.619z M57.623-72.619v-0.114h1.138v0.114H57.623L57.623-72.619z M58.875-72.619v-0.114h1.024v0.114H58.875
						L58.875-72.619z M60.013-72.619v-0.114h1.138v0.114H60.013L60.013-72.619z M61.264-72.619v-0.114h0.54l-0.06,0.114H61.264
						L61.264-72.619z"/>
				</g>
				<g id="top" transform="translate(6.000000, 52.000000)">
					<g id="Group-3" transform="translate(18.000000, 5.000000)">
						
							<rect id="Rectangle-460_1_" x="25.766" y="-16.901" style="fill-rule:evenodd;clip-rule:evenodd;fill:#FFFFFF;" width="0.114" height="0.114"/>
						
							<rect id="Rectangle-461_1_" x="28.156" y="-16.901" style="fill-rule:evenodd;clip-rule:evenodd;fill:#FFFFFF;" width="0.114" height="0.114"/>
						
							<rect id="Rectangle-462_1_" x="30.545" y="-16.901" style="fill-rule:evenodd;clip-rule:evenodd;fill:#FFFFFF;" width="0.114" height="0.114"/>
						
							<rect id="Rectangle-463_1_" x="32.934" y="-16.901" style="fill-rule:evenodd;clip-rule:evenodd;fill:#FFFFFF;" width="0.114" height="0.114"/>
						
							<rect id="Rectangle-464_1_" x="35.324" y="-16.901" style="fill-rule:evenodd;clip-rule:evenodd;fill:#FFFFFF;" width="0.114" height="0.114"/>
						
							<rect id="Rectangle-465_1_" x="37.713" y="-16.901" style="fill-rule:evenodd;clip-rule:evenodd;fill:#FFFFFF;" width="0.114" height="0.114"/>
						
							<rect id="Rectangle-466_1_" x="40.102" y="-16.901" style="fill-rule:evenodd;clip-rule:evenodd;fill:#FFFFFF;" width="0.114" height="0.114"/>
					</g>
					<path id="Rectangle_1_" style="fill-rule:evenodd;clip-rule:evenodd;fill:#FFFFFF;" d="M41.813-11.787h0.36v-0.341h-0.222
						l-0.054,0.114h0.163v0.114H41.85L41.813-11.787L41.813-11.787z M42.856-12.356v0.228h-0.569v0.341h0.341v-0.114h-0.228v-0.114
						h0.455v0.228h0.569v-0.569h-0.114v0.455h-0.114v-0.455h-0.114v0.455H42.97v-0.455H42.856L42.856-12.356z M42.055-12.367
						l-0.058,0.114h0.745v-0.114H42.055L42.055-12.367z M41.799-11.673l-0.05,0.114h0.424v-0.114H41.799L41.799-11.673z
						 M42.287-11.673v0.114h1.138v-0.114H42.287L42.287-11.673z M43.539-12.128v0.341h0.114v-0.228h0.341v0.228h0.569v-0.341h-0.339
						v0.114h0.225v0.114h-0.341v-0.228H43.539L43.539-12.128z M45.245-12.356v0.228h-0.569v0.341h0.341v-0.114H44.79v-0.114h0.455
						v0.228h0.569v-0.569H45.7v0.455h-0.114v-0.455h-0.114v0.455h-0.114v-0.455H45.245L45.245-12.356z M43.539-12.367v0.114h1.593
						v-0.114H43.539L43.539-12.367z M43.539-11.673v0.114h1.024v-0.114H43.539L43.539-11.673z M44.676-11.673v0.114h1.138v-0.114
						H44.676L44.676-11.673z M45.928-12.128v0.341h0.114v-0.228h0.341v0.228h0.569v-0.341h-0.339v0.114h0.225v0.114h-0.341v-0.228
						H45.928L45.928-12.128z M47.635-12.356v0.228h-0.569v0.341h0.341v-0.114H47.18v-0.114h0.455v0.228h0.569v-0.569H48.09v0.455
						h-0.114v-0.455h-0.114v0.455h-0.114v-0.455H47.635L47.635-12.356z M45.928-12.367v0.114h1.593v-0.114H45.928L45.928-12.367z
						 M45.928-11.673v0.114h1.024v-0.114H45.928L45.928-11.673z M47.066-11.673v0.114h1.138v-0.114H47.066L47.066-11.673z
						 M48.317-12.128v0.341h0.114v-0.228h0.341v0.228h0.569v-0.341h-0.339v0.114h0.225v0.114h-0.341v-0.228H48.317L48.317-12.128z
						 M50.024-12.356v0.228h-0.569v0.341h0.341v-0.114h-0.228v-0.114h0.455v0.228h0.569v-0.569h-0.114v0.455h-0.114v-0.455h-0.114
						v0.455h-0.114v-0.455H50.024L50.024-12.356z M48.317-12.367v0.114h1.593v-0.114H48.317L48.317-12.367z M48.317-11.673v0.114
						h1.024v-0.114H48.317L48.317-11.673z M49.455-11.673v0.114h1.138v-0.114H49.455L49.455-11.673z M50.707-12.128v0.341h0.114
						v-0.228h0.341v0.228h0.569v-0.341h-0.339v0.114h0.225v0.114h-0.341v-0.228H50.707L50.707-12.128z M52.413-12.356v0.228h-0.569
						v0.341h0.341v-0.114h-0.228v-0.114h0.455v0.228h0.569v-0.569h-0.114v0.455h-0.114v-0.455h-0.114v0.455h-0.114v-0.455H52.413
						L52.413-12.356z M50.707-12.367v0.114H52.3v-0.114H50.707L50.707-12.367z M50.707-11.673v0.114h1.024v-0.114H50.707
						L50.707-11.673z M51.845-11.673v0.114h1.138v-0.114H51.845L51.845-11.673z M53.096-12.128v0.341h0.114v-0.228h0.341v0.228
						h0.569v-0.341h-0.339v0.114h0.225v0.114h-0.341v-0.228H53.096L53.096-12.128z M54.803-12.356v0.228h-0.569v0.341h0.341v-0.114
						h-0.228v-0.114h0.455v0.228h0.569v-0.569h-0.114v0.455h-0.114v-0.455H55.03v0.455h-0.114v-0.455H54.803L54.803-12.356z
						 M53.096-12.367v0.114h1.593v-0.114H53.096L53.096-12.367z M53.096-11.673v0.114h1.024v-0.114H53.096L53.096-11.673z
						 M54.234-11.673v0.114h1.138v-0.114H54.234L54.234-11.673z M55.485-12.128v0.341h0.114v-0.228h0.341v0.228h0.569v-0.341H56.17
						v0.114h0.225v0.114h-0.341v-0.228H55.485L55.485-12.128z M57.192-12.356v0.228h-0.569v0.341h0.341v-0.114h-0.228v-0.114h0.455
						v0.228h0.569v-0.569h-0.114v0.455h-0.114v-0.455H57.42v0.455h-0.114v-0.455H57.192L57.192-12.356z M55.485-12.367v0.114h1.593
						v-0.114H55.485L55.485-12.367z M55.485-11.673v0.114h1.024v-0.114H55.485L55.485-11.673z M56.623-11.673v0.114h1.138v-0.114
						H56.623L56.623-11.673z M57.875-12.128v0.341h0.114v-0.228h0.341v0.228h0.569v-0.341H58.56v0.114h0.225v0.114h-0.341v-0.228
						H57.875L57.875-12.128z M59.581-12.356v0.228h-0.569v0.341h0.341v-0.114h-0.228v-0.114h0.455v0.228h0.569v-0.569h-0.114v0.455
						h-0.114v-0.455h-0.114v0.455h-0.114v-0.455H59.581L59.581-12.356z M57.875-12.367v0.114h1.593v-0.114H57.875L57.875-12.367z
						 M57.875-11.673v0.114h1.024v-0.114H57.875L57.875-11.673z M59.013-11.673v0.114h1.138v-0.114H59.013L59.013-11.673z
						 M60.264-12.128v0.341h0.114v-0.228h0.248l-0.041-0.114H60.264L60.264-12.128z M60.264-12.367v0.114h0.266l-0.055-0.114H60.264
						L60.264-12.367z M60.264-11.673v0.114h0.53l-0.051-0.114H60.264L60.264-11.673z"/>
				</g>
				<path id="Shape" style="fill-rule:evenodd;clip-rule:evenodd;fill:#DB4B35;" d="M54.769,46.19
					c-1.995-1.192-1.366-4.388,1.022-4.593C53.813,42.761,53.81,44.68,54.769,46.19C54.769,46.19,53.81,44.68,54.769,46.19
					L54.769,46.19L54.769,46.19L54.769,46.19z M59.782,46.19c1.995-1.192,1.366-4.388-1.022-4.593
					C60.738,42.761,60.741,44.68,59.782,46.19C59.782,46.19,60.741,44.68,59.782,46.19L59.782,46.19L59.782,46.19L59.782,46.19z
					 M57.282,41.132c-0.425,0.428-1.155,0.003-0.904-0.464c0.439,0.703,0.904,0.135,0.904,0.135s0.465,0.568,0.904-0.135
					C58.437,41.134,57.707,41.56,57.282,41.132C57.282,41.132,57.707,41.56,57.282,41.132C57.282,41.132,57.707,41.56,57.282,41.132
					L57.282,41.132L57.282,41.132L57.282,41.132z M56.977,46.683c0,0-0.701,0.199-1.598-0.093c0.718,0.054,1.271-0.169,1.301-0.182
					c0,0-1.757-0.846-1.722-2.568c0.103-1.742,1.141-2.272,1.141-2.272s-1.848,2.405,0.867,4.415l-0.12-2.486V41.67
					c0.154-0.033,0.436-0.324,0.436-0.324s0.282,0.29,0.436,0.324v1.827l-0.12,2.486c2.714-2.01,0.867-4.415,0.867-4.415
					s1.038,0.53,1.141,2.272c0.034,1.722-1.722,2.568-1.722,2.568c0.16,0.071,0.593,0.194,1.369,0.194
					c-0.947,0.296-1.665,0.082-1.665,0.082l-0.305,0.357L56.977,46.683L56.977,46.683L56.977,46.683L56.977,46.683L56.977,46.683z"
					/>
			</g>
		</g>
	</g>
</g>
</svg>
