<svg xmlns="http://www.w3.org/2000/svg" viewBox="0 0 136 44"><defs><style>.cls-1{fill:#fff;}.cls-2{fill:#231815;}.cls-3{fill:#38aa7d;}.cls-4{fill:#040000;}.cls-5{fill:#97ba48;}.cls-6{fill:#238c66;}.cls-7{fill:#4ba042;}.cls-8{fill:#df7a2c;}.cls-9{fill:#dd552c;}.cls-10{fill:#ab7d4f;}.cls-11{fill:#e5c22f;}.cls-12{fill:#8e5b31;}.cls-13{fill:#252628;}.cls-14{fill:#e1a730;}.cls-15{fill:#3b7aab;}.cls-16{fill:#a63139;}.cls-17{fill:#e6d242;}.cls-18{fill:#e1822a;}.cls-19{fill:#3f5c79;}</style></defs><title>资源 20</title><g id="图层_2" data-name="图层 2"><g id="图层_1-2" data-name="图层 1"><rect class="cls-1" width="136" height="44" rx="2"/><path class="cls-2" d="M25.2,16h2.7V26.4H25.2Z"/><path class="cls-2" d="M29.8,16h2.5l3.3,5.7V16h2.5V26.4H35.6l-3.3-5.7v5.7H29.8Z"/><path class="cls-2" d="M49.3,16h7.2v2.2H52v1.7h4.2V22H52v2h4.6v2.4H49.3Z"/><path class="cls-2" d="M57.6,23l2.6-.2a5.31,5.31,0,0,0,.3,1.1,1.43,1.43,0,0,0,1.2.6,1.22,1.22,0,0,0,.9-.3,1.08,1.08,0,0,0,.3-.7.91.91,0,0,0-.3-.7,3.77,3.77,0,0,0-1.4-.6,4.53,4.53,0,0,1-2.5-1.3,2.79,2.79,0,0,1-.8-2,2.82,2.82,0,0,1,.4-1.5,2.58,2.58,0,0,1,1.2-1.1,4.14,4.14,0,0,1,2.1-.4,3.56,3.56,0,0,1,2.5.7,3.35,3.35,0,0,1,1,2.4l-2.5.2a1.88,1.88,0,0,0-.4-1,1.22,1.22,0,0,0-.9-.3,1.45,1.45,0,0,0-.7.2.73.73,0,0,0-.2.6.52.52,0,0,0,.2.4,1.87,1.87,0,0,0,.9.4,9.63,9.63,0,0,1,2.5.9,2.54,2.54,0,0,1,1.1,1.2,4,4,0,0,1,.3,1.5,3.45,3.45,0,0,1-.5,1.8,2.74,2.74,0,0,1-1.3,1.3,4.38,4.38,0,0,1-2.1.4,3.85,3.85,0,0,1-3.1-1A6.63,6.63,0,0,1,57.6,23Z"/><path class="cls-2" d="M66.2,16h8.2v2.6H71.7v7.8H69V18.6H66.3V16Z"/><path class="cls-2" d="M75.6,16h3.5l1.4,3.5L81.9,16h3.5V26.4H83.2V18.5l-2.7,4.8-2.6-4.8v7.9H75.7V16Z"/><path class="cls-2" d="M87,16h7.2v2.2H89.7v1.7h4.2V22H89.7v2h4.6v2.4H87Z"/><path class="cls-2" d="M95.8,16h2.5l3.3,5.7V16h2.5V26.4h-2.5l-3.3-5.7v5.7H95.8Z"/><path class="cls-2" d="M105.3,16h8.2v2.6h-2.7v7.8H108V18.6h-2.7Z"/><polygon class="cls-3" points="66 33 64.8 30.1 61.8 30.1 61.8 38.8 63.7 38.8 63.7 32.2 65.9 36.2 68.2 32.2 68.2 38.8 70.1 38.8 70.1 30.1 67.1 30.1 66 33"/><rect class="cls-3" x="71.9" y="30.1" width="2.3" height="8.8"/><polygon class="cls-3" points="80.7 34.9 77.9 30.1 75.8 30.1 75.8 38.8 78 38.8 78 34 80.7 38.8 82.8 38.8 82.8 30.1 80.7 30.1 80.7 34.9"/><path class="cls-3" d="M90.4,31.3a2.84,2.84,0,0,0-1-.9,3.51,3.51,0,0,0-1.6-.3H84.4v8.8h3.4a5.85,5.85,0,0,0,1.3-.2,1.69,1.69,0,0,0,1-.7,2.73,2.73,0,0,0,.7-1.3,6.08,6.08,0,0,0,.3-2.2,8.81,8.81,0,0,0-.2-1.7A5.27,5.27,0,0,0,90.4,31.3ZM88.7,36a1.79,1.79,0,0,1-.5.7,2.15,2.15,0,0,1-1,.2h-.6V32.1h.6a1.73,1.73,0,0,1,1.3.5,3,3,0,0,1,.4,1.9A13.89,13.89,0,0,1,88.7,36Z"/><path class="cls-3" d="M97.3,33.6a7.65,7.65,0,0,0-2.1-.8,2.19,2.19,0,0,1-.8-.3.52.52,0,0,1-.2-.4.76.76,0,0,1,.2-.5.85.85,0,0,1,.6-.2,1.14,1.14,0,0,1,.8.3,1.88,1.88,0,0,1,.4.9l2.1-.1a2.89,2.89,0,0,0-.9-2,3.28,3.28,0,0,0-2.1-.6,4.18,4.18,0,0,0-1.8.3,2.19,2.19,0,0,0-1,.9,2.77,2.77,0,0,0-.3,1.3,2.52,2.52,0,0,0,.6,1.7,5.06,5.06,0,0,0,2.1,1.1,3.53,3.53,0,0,1,1.2.5.73.73,0,0,1,.2.6.86.86,0,0,1-.3.6.91.91,0,0,1-.7.3,1.23,1.23,0,0,1-1-.5,4.05,4.05,0,0,1-.3-1l-2.2.2a3.9,3.9,0,0,0,.8,2.2,3.14,3.14,0,0,0,2.6.9,3.42,3.42,0,0,0,1.8-.4,2.35,2.35,0,0,0,1.1-1.1,2.93,2.93,0,0,0,.4-1.6,2.77,2.77,0,0,0-.3-1.3A1.3,1.3,0,0,0,97.3,33.6Z"/><polygon class="cls-3" points="105.8 30.1 105.7 30.1 99.7 30.1 99.7 38.8 105.9 38.8 105.9 36.8 102 36.8 102 35.1 105.5 35.1 105.5 33.3 102 33.3 102 31.9 105.7 31.9 105.8 31.9 108.9 31.9 108.9 38.8 111.1 38.8 111.1 31.9 113.5 31.9 113.5 30.1 105.8 30.1"/><path class="cls-3" d="M25.2,9.5h2l.8,1.9.7-1.9h2v5.8H29.5V10.9L28,13.6l-1.5-2.7v4.4H25.3V9.5Z"/><path class="cls-3" d="M31,9.5h1.7l1,1.9,1-1.9h1.6l-1.9,3.3v2.4H32.9V12.8Z"/><polygon class="cls-4" points="41.8 16 39 16 42.3 26.4 42.6 26.4 43.7 22.8 41.8 16"/><path class="cls-3" d="M51.8,10.4,50.2,5.3,46,9.3a15.4,15.4,0,0,1,1.6.3L43.8,22.9l-1.1,3.6h2.6l4.9-16.3Z"/><rect class="cls-5" x="24.9" y="32.8" width="6.7" height="6"/><rect class="cls-6" x="37.9" y="31.6" width="6.7" height="7.2"/><rect class="cls-7" x="31.3" y="28.7" width="6.7" height="10.1"/><rect class="cls-8" x="44.5" y="30.2" width="6.7" height="8.6"/><rect class="cls-9" x="51.1" y="28.3" width="6.7" height="10.5"/><path class="cls-1" d="M33.7,36.7h0l-5.4-1.2c-.2,0-.3-.2-.3-.4s.2-.3.4-.3L33.8,36c.2,0,.3.2.3.4S33.9,36.7,33.7,36.7Z"/><path class="cls-1" d="M40.5,34.5h0l-5.1,2.3a.38.38,0,1,1-.3-.7l5-2.2a.37.37,0,0,1,.5.2C40.7,34.2,40.6,34.4,40.5,34.5Z"/><path class="cls-1" d="M46.9,36h0l-5.3-1.8c-.2-.1-.3-.3-.2-.4s.3-.3.4-.2L47,35.4c.2.1.3.3.2.4S47,36.1,46.9,36Z"/><path class="cls-1" d="M54.5,32.8h0l-5.6,3.4c-.2.1-.4.1-.5-.1a.37.37,0,0,1,.2-.5l5.6-3.4c.2-.1.4-.1.5.1S54.7,32.7,54.5,32.8Z"/><circle class="cls-10" cx="27.8" cy="35.2" r="0.9"/><path class="cls-11" d="M27.8,36.4A1.2,1.2,0,1,1,29,35.2,1.16,1.16,0,0,1,27.8,36.4Zm0-1.8a.5.5,0,1,0,.5.5A.54.54,0,0,0,27.8,34.6Z"/><circle class="cls-10" cx="34.6" cy="36.5" r="1.3"/><path class="cls-12" d="M34.6,38a1.5,1.5,0,1,1,1.5-1.5A1.47,1.47,0,0,1,34.6,38Zm0-2.5a1,1,0,1,0,1,1C35.7,35.9,35.2,35.5,34.6,35.5Z"/><circle class="cls-13" cx="41.3" cy="34.1" r="1.5"/><circle class="cls-14" cx="42.2" cy="34.9" r="0.9"/><circle class="cls-15" cx="48.4" cy="35.9" r="0.6"/><circle class="cls-16" cx="47.3" cy="35.7" r="0.6"/><circle class="cls-6" cx="47.8" cy="36.8" r="0.9"/><path class="cls-17" d="M56.1,33.3H53.5a.79.79,0,0,1-.8-.8h0a.79.79,0,0,1,.8-.8h2.6a.79.79,0,0,1,.8.8h0A.79.79,0,0,1,56.1,33.3Z"/><path class="cls-18" d="M56.4,33.5H53.8a.79.79,0,0,1-.8-.8h0a.79.79,0,0,1,.8-.8h2.6a.79.79,0,0,1,.8.8h0A.86.86,0,0,1,56.4,33.5Z"/><rect class="cls-19" x="24.9" y="38.8" width="32.9" height="0.5"/></g></g></svg>