<svg xmlns="http://www.w3.org/2000/svg" viewBox="0 0 136 44"><defs><style>.cls-1{fill:#1e8bca;}.cls-2,.cls-5{fill:#fff;}.cls-2{opacity:0.4;}.cls-3,.cls-4{fill:#03743c;}.cls-4{fill-rule:evenodd;}</style></defs><title>资源 3</title><g id="图层_2" data-name="图层 2"><g id="图层_1-2" data-name="图层 1"><rect class="cls-1" width="136" height="44" rx="2"/><path class="cls-2" d="M125.47,39,129,22.44c.31-1.45-.53-2-1.49-1.67l-20.63,8c-1.41.55-1.39,1.34-.24,1.7l5.28,1.65,12.25-7.72c.57-.38,1.1-.16.67.22l-9.91,9L114.54,39a1.37,1.37,0,0,0,1.07-.52L118.19,36l5.35,3.94c1,.55,1.67.27,1.94-.9Z"/><g id="Page-1"><g id="flags"><g id="turkey"><circle id="red" class="cls-3" cx="22.14" cy="21.77" r="15.32"/><path id="white" class="cls-4" d="M29.76,23.21l-1.18,1.22-.25-1.68L26.81,22l1.52-.75.25-1.68,1.18,1.21,1.67-.28L30.64,22l.79,1.5-1.67-.29Zm-3.3,2.27a7.66,7.66,0,1,1,0-7.43,6,6,0,1,0,0,7.43Z"/></g></g></g><path class="cls-5" d="M16.7,22.41l-.89.35c-.31.11-.62.22-.94.31a1.39,1.39,0,0,1-.35,0l0-.06a1.16,1.16,0,0,1,.18-.2c.38-.27.75-.54,1.14-.8s.55-.35.83-.51a.44.44,0,0,0,.22-.31,3.9,3.9,0,0,1,.21-.57,1.37,1.37,0,0,1,.18-.24l.06,0,0,.63.21-.16c.25-.22.5-.43.74-.66a.67.67,0,0,0,.1-.9,1.35,1.35,0,0,0-.26-.32.74.74,0,0,1-.18-.83.39.39,0,0,1,.63-.2,1.54,1.54,0,0,1,.49.88l-.25,0c.07.25.14.5.2.75a1.31,1.31,0,0,1-.14.95,3.32,3.32,0,0,1-1.24,1.31c-.11.06-.24.12-.17.28a.29.29,0,0,0,.33.23,1.27,1.27,0,0,0,.57-.16,9.81,9.81,0,0,0,1-.86,1.41,1.41,0,0,0,.33-1.42c-.15-.54-.34-1.06-.52-1.58a.58.58,0,0,1,.18-.7.23.23,0,0,1,.2,0,.71.71,0,0,1,.19.23,4.66,4.66,0,0,1,.55,1.93,1.33,1.33,0,0,0,.07.29,2.52,2.52,0,0,1,1.86-1,.21.21,0,0,0,.2-.24,2.16,2.16,0,0,1,0-.57.77.77,0,0,1,.76-.61.85.85,0,0,1,.81.79,1.1,1.1,0,0,1-.68,1.15,6.49,6.49,0,0,1-.89.25.8.8,0,0,1-.15,0v.06l.19,0H24.5a1.18,1.18,0,0,1,.25,0c-.11.32-.21.61-.32.9a.25.25,0,0,1-.14.13l-1.62.33a1.67,1.67,0,0,0-.39,0,1,1,0,0,0-.36.22A.25.25,0,0,0,22,22a2.87,2.87,0,0,0,.48.28.3.3,0,0,1,.19.39.28.28,0,0,1-.37.23,3.11,3.11,0,0,1-1.64-.59,3.52,3.52,0,0,1-.52-.57c-.11-.15-.16-.16-.29,0a8.32,8.32,0,0,1-.68.77,4.22,4.22,0,0,1-.91.6,1.08,1.08,0,0,1-1.48-.61Zm4-1.85c-.21,0-.32.1-.28.31a1.39,1.39,0,0,0,.72.93s.14.05.16,0a.35.35,0,0,0,0-.18c0-.41,0-.51.42-.67a1.3,1.3,0,0,0,.2-.15.76.76,0,0,0-.25-.16C21.34,20.62,21,20.6,20.66,20.56Zm2.53-1.82,0-.07a1.61,1.61,0,0,0-.28-.17s-.08.05-.13.08l.27.2S23.15,18.75,23.19,18.74Z"/><path class="cls-5" d="M28.5,30.22c-.22-.38-.16-.59.18-.71.11.22.56.3.24.69.36,0,.67.05,1,.05s.8,0,1.19,0a.55.55,0,0,1,.53.26,1.38,1.38,0,0,1,.18,1.1.5.5,0,0,1-.86.23.18.18,0,0,0-.13,0H29.14a.36.36,0,0,0-.2.08c-.16.13-.28.12-.38-.06a1.07,1.07,0,0,1-.09-.79h-.26L15.45,31a4,4,0,0,1-1.41-.2,1.81,1.81,0,0,1-1-.73Zm1.38.88v0h-.81a.18.18,0,0,0-.13.12c0,.06.07.17.1.17.26,0,.54.1.79-.08a.33.33,0,0,1,.32,0c.17.14.36.09.54.1a.2.2,0,0,0,.14-.13c0-.1,0-.14-.13-.14Z"/><path class="cls-5" d="M34.19,21.68l-.8-1.33h0a1.5,1.5,0,0,1-.63,1.57v-.28c0-.8-.05-1.6-.09-2.4a.37.37,0,0,0,0-.15l-.53-.76v.23c0,.82,0,1.64,0,2.46a1.22,1.22,0,0,1-.66,1.22.63.63,0,0,1-.65,0,3.57,3.57,0,0,1-.54-.42c-.19-.18-.35-.18-.45.05s-.1.4-.17.59a3.18,3.18,0,0,1-.32.67.36.36,0,0,1-.48.1,1.68,1.68,0,0,1-.63-2.33l.07-.07c0,.14,0,.25,0,.35a1.77,1.77,0,0,0,.26,1.05.49.49,0,0,0,.32.22c.08,0,.21-.14.26-.25.17-.33.3-.68.47-1a1.73,1.73,0,0,1,.3-.41.31.31,0,0,1,.54,0l.29.43c.09.12.18.25.37.22s.22-.18.25-.32a4.54,4.54,0,0,0,.12-.88c0-1-.1-1.92-.17-2.88a.5.5,0,0,0-.12-.27c-.33-.44-.67-.88-1-1.31s-.23-.9-.18-1.43a4.47,4.47,0,0,1,1,.89,2.76,2.76,0,0,1,0-.38.47.47,0,0,1,0-.24,1.79,1.79,0,0,1,.22-.25,1.51,1.51,0,0,1,.21.23l.51.94s0,0,0,0a.58.58,0,0,1,0,.26s-.14,0-.19,0a2.26,2.26,0,0,0,.74,1.95c-.15-.85-.29-1.68-.43-2.51,0-.29-.12-.58.14-.82s.28-.18.37,0c.19.41.34.83.5,1.25,0,.12,0,.23-.13.26s-.09.16-.08.24c0,.31.11.62.16.94.08.52.15,1,.23,1.57a1.54,1.54,0,0,0,.17.45c.25.39.53.76.77,1.16a1.83,1.83,0,0,1,.09,1.26Zm-3.46-6.22.23.28,0,0-.06-.31Z"/><path class="cls-5" d="M14.35,15.86c0-.26-.07-.51-.11-.77a.42.42,0,0,1,.17-.44c.22-.16.4-.14.52.12s.29.75.44,1.12c.05.14,0,.18-.15.19a.62.62,0,0,1-.19,0v.14c.1.73.19,1.46.29,2.19l.15,0c.2-.07.31,0,.32.23s0,.23.13.24a.27.27,0,0,0,.31-.16,1.16,1.16,0,0,1,.14-.24c.18-.21.38-.18.49.07a1.09,1.09,0,0,0,.13.17.78.78,0,0,0,.11-.2c.06-.26.13-.32.5-.36a9.88,9.88,0,0,1-.18,1.11.54.54,0,0,1-.77.26.31.31,0,0,0-.42.05c-.28.25-.52.25-.92,0,0,.22,0,.42,0,.61a2.5,2.5,0,0,1-1.09,2.41,3.29,3.29,0,0,1-2,.65,1.32,1.32,0,0,1-1.39-1.35,7.7,7.7,0,0,1,.05-.83.18.18,0,0,1,0-.13c.06-.09.14-.17.21-.26a1.28,1.28,0,0,1,.15.28,4.22,4.22,0,0,1,.07.61.93.93,0,0,0,1,.87,2.29,2.29,0,0,0,2.36-2,4.52,4.52,0,0,0,.06-.53.55.55,0,0,0,0-.18l-.08,0a1.9,1.9,0,0,0-.1.28,2.6,2.6,0,0,1-1.06,1.8,1.52,1.52,0,0,1-1.44.2,1.26,1.26,0,0,1-.76-1.3,4.92,4.92,0,0,1,.17-.85c0-.06.09-.1.14-.15s.13.1.14.16a7.35,7.35,0,0,1,.09.79.6.6,0,0,0,.72.59A2,2,0,0,0,14,20.35a.65.65,0,0,0,.15-.54l-.25.15a.71.71,0,0,1-.58.11.43.43,0,0,1-.39-.45A2.56,2.56,0,0,1,13,19a.88.88,0,0,1,.64-.67.55.55,0,0,1,.59.17c.08.08.14.17.22.24s.15.09.2.07a.28.28,0,0,0,.13-.2c0-.22,0-.45-.08-.67-.11-.68-.22-1.36-.32-2l0-.05Zm-.64,3.58c.07-.1.15-.18.14-.23a.29.29,0,0,0-.15-.16,1,1,0,0,0-.22.2Z"/><path class="cls-5" d="M14.35,15.85l-.2.19c.07.3.16.65.22,1a.9.9,0,0,1-1,1c-.11,0-.21-.13-.32-.18l-.34-.11a1.15,1.15,0,0,0-.1.35c0,.33.07.67.06,1a7,7,0,0,1-.12,1.2c0,.27-.19.36-.41.34L12,19a2.62,2.62,0,0,0,0-.28c0-.21-.1-.29-.32-.3a.58.58,0,0,1-.58-.63c0-.37,0-.74,0-1.11a1.2,1.2,0,0,0,0-.24.66.66,0,0,0-.23.55c0,.24,0,.47,0,.71a.48.48,0,0,1-.39.49.5.5,0,0,1-.52-.34,2.94,2.94,0,0,1-.2-1.25q0-.32,0-.63a.47.47,0,0,1,.06-.15c.05,0,.12.07.13.12.07.25.11.5.17.75s.1.38.16.56a.17.17,0,0,0,.12.1s.1-.06.11-.11c.06-.25.09-.51.17-.75a4.22,4.22,0,0,1,.32-.76.3.3,0,0,1,.36-.19.33.33,0,0,1,.23.34c0,.36,0,.73,0,1.09a1,1,0,0,0,.06.34s.1.07.15.1.1-.11.1-.16c0-.22,0-.45-.06-.67s-.14-.73-.19-1.09a2.74,2.74,0,0,1,0-.64.35.35,0,0,1,.19-.24s.19.06.23.12a1.26,1.26,0,0,1,.17.44c.05.42.08.83.12,1.25a4,4,0,0,0,.09.5.92.92,0,0,0,.13.21c.16-.08.11-.17.06-.26a2.21,2.21,0,0,1-.25-1.13,1.13,1.13,0,0,1,.06-.31c0-.07.1-.16.16-.17a.34.34,0,0,1,.23.11,1.59,1.59,0,0,1,.3,1.28.27.27,0,0,0,.1.29c.13.09.23.21.36.29a.34.34,0,0,0,.24,0,.22.22,0,0,0,.06-.2,2.11,2.11,0,0,0-.17-.5,1.93,1.93,0,0,1-.34-1,.37.37,0,0,1,.2-.38.31.31,0,0,1,.4.09,6.57,6.57,0,0,1,.4.62Z"/><path class="cls-5" d="M23,15.1a3.75,3.75,0,0,1-.05-.47c0-.33.17-.44.44-.25a8.42,8.42,0,0,1,.73.61s0,.06.07.08c.06-.27.06-.53.34-.71A4,4,0,0,1,25.46,16h-.11l-.08,0c0,.06,0,.11,0,.15,0,.32.07.63.12.95a1.1,1.1,0,0,0,.16.41c.47.83,1,1.65,1.42,2.48A1.74,1.74,0,0,1,27,21.15a.15.15,0,0,1,0,.09s0,0-.05,0l-1.4-2.52,0,0c0,.23,0,.47,0,.7,0,.65,0,1.3,0,1.95a1.08,1.08,0,0,1-.39.8,1.29,1.29,0,0,1-.24.13c0-.18,0-.32,0-.45a25.07,25.07,0,0,0-.18-4.33.52.52,0,0,0-.1-.23c-.45-.65-.91-1.29-1.37-1.93-.08-.11-.15-.22-.23-.32Zm1.38.82c-.05-.41-.05-.42-.25-.33Z"/><path class="cls-5" d="M23,15.1c0,.25,0,.25-.33.29a.19.19,0,0,0,0,.07c.09.32.17.64.27,1a.36.36,0,0,0,.53.15l.05,0,.3-.09a.91.91,0,0,1,0,.33,2.13,2.13,0,0,1-.31.47c-.06.06-.19.05-.28.07l0-.26v-.13c-.1.06-.19.08-.24.14a1.11,1.11,0,0,0-.17.27c-.12.28-.37.33-.64.35a.55.55,0,0,1-.54-.34c-.12-.24-.27-.26-.47-.07l-.23.24a.78.78,0,0,1-.81.25.76.76,0,0,1-.55-.69,5.84,5.84,0,0,1-.05-.73.88.88,0,0,0,0-.16l-.07,0-.13.33c-.08.24-.15.49-.24.73a.44.44,0,0,1-.78.12,2,2,0,0,1-.42-.91,2.25,2.25,0,0,1,.06-1.18,1.3,1.3,0,0,1,.1-.15c0,.05.1.1.11.15.08.34.13.69.21,1a1.43,1.43,0,0,0,.15.39c.08.14.16.13.23,0s.05-.18.09-.26c.16-.39.32-.77.49-1.15a.52.52,0,0,1,.21-.23c.09-.06.23-.13.31-.1a.39.39,0,0,1,.18.28c0,.38,0,.76,0,1.15a.54.54,0,0,0,.56.58.74.74,0,0,0,.48-.58,2.53,2.53,0,0,0-.15-1.15.89.89,0,0,1,.23-.93c.1-.13.16,0,.22.07a2.57,2.57,0,0,1,.23,1.09c0,.33.05.65.09,1a.92.92,0,0,0,.08.27.3.3,0,0,0,.34.21.36.36,0,0,0,.32-.35,1.71,1.71,0,0,0-.35-1,1,1,0,0,1-.07-.86.4.4,0,0,1,.67-.14,5,5,0,0,1,.4.58Z"/><path class="cls-5" d="M34.08,14.37c.27.42.53.8.76,1.2.14.23-.1.2-.25.26a3.64,3.64,0,0,0,0,.45A20.74,20.74,0,0,1,35,20.14c0,.46,0,.93,0,1.39a1.71,1.71,0,0,1-1.66,1.81,2,2,0,0,1-.34,0c-.08,0-.21-.05-.23-.1a.31.31,0,0,1,.09-.26,1.38,1.38,0,0,1,.4-.28,1.83,1.83,0,0,0,1-.81,1.25,1.25,0,0,0,.19-.64c-.06-1.09-.13-2.17-.23-3.25-.09-.91-.23-1.81-.33-2.72A1.17,1.17,0,0,1,34.08,14.37Z"/><path class="cls-5" d="M27,14.46a3.89,3.89,0,0,1,.59,1.32.22.22,0,0,1-.11.18c-.15,0-.16.12-.15.23.05.36.12.72.17,1.08.07.56.14,1.13.18,1.7s0,1.12,0,1.69a2.88,2.88,0,0,1-.83,2.08,1.58,1.58,0,0,1-1,.57.55.55,0,0,1-.6-.44l.31-.16a5.63,5.63,0,0,0,1.49-1.17.85.85,0,0,0,.13-.72c-.07-.91-.15-1.81-.23-2.72s-.17-1.54-.26-2.3a1.79,1.79,0,0,1,.18-1.16C26.92,14.58,27,14.54,27,14.46Z"/><path class="cls-5" d="M28.05,14.41c.29.49.55.94.8,1.39.06.12,0,.19-.12.17s-.21.08-.19.22c.14,1,.3,1.91.42,2.87.07.62.1,1.24.13,1.86a1.49,1.49,0,0,1-.31.91,2.15,2.15,0,0,1-.21.2,1.12,1.12,0,0,1,0-.19A22.19,22.19,0,0,0,28,17.17a12.85,12.85,0,0,1-.25-1.51,3.94,3.94,0,0,1,.13-1A1,1,0,0,1,28.05,14.41Z"/><path class="cls-5" d="M17.66,15.52c-.41.41-.8.82-1.21,1.2-.09.09-.27.09-.41.11a5.16,5.16,0,0,1-.53,0,2.31,2.31,0,0,1,.19-.21c.41-.34.82-.66,1.22-1,.2-.17.19-.19,0-.36a.45.45,0,0,1,0-.65.56.56,0,0,1,.63,0,.43.43,0,0,1,0,.6C17.44,15.28,17.44,15.28,17.66,15.52Zm-.55-.62c0,.13,0,.23.12.27s.09,0,.1-.07S17.27,14.89,17.11,14.9Z"/><path class="cls-5" d="M30.3,18.38c-.08,0-.16,0-.2-.08a6.64,6.64,0,0,1-.72-.68.54.54,0,0,1,0-.42c0-.07.15-.14.24-.16s.14.06.21.11a.91.91,0,0,1,.16.11.38.38,0,0,0,0-.17c0-.25.06-.38.24-.42s.31.06.38.29a.74.74,0,0,1,0,.14c0,.07,0,.15,0,.25h-.14c-.13,0-.17,0-.18.15C30.35,17.78,30.33,18.06,30.3,18.38Z"/><path class="cls-5" d="M12,19.07l-2.1,1,0,0a1.7,1.7,0,0,1,.09-.24,2.33,2.33,0,0,1,1.41-1.09C11.69,18.62,11.86,18.72,12,19.07Z"/><path class="cls-5" d="M10,21a4.93,4.93,0,0,0,0,1.48l.15-.18c.05-.05.11-.11.16-.1s.1.08.12.14a.84.84,0,0,1-.26.75.42.42,0,0,1-.59-.26,2,2,0,0,1,0-1.08A1.58,1.58,0,0,1,10,21Z"/><path class="cls-5" d="M29.66,19.8c-.12-.29-.09-.45.11-.59l1.1-.79.16-.1a.42.42,0,0,1,0,.53A5.14,5.14,0,0,1,29.66,19.8Z"/><path class="cls-5" d="M23.46,22.57c0-.13,0-.27-.2-.2a.15.15,0,0,1-.13,0,.14.14,0,0,1,0-.14,2.11,2.11,0,0,1,.44-.36c.14-.08.24,0,.21.21a.27.27,0,0,0,0,.15.29.29,0,0,0,.06.19s.12,0,.17,0a4.21,4.21,0,0,1,.48-.12c.05,0,.15.08.17.14s-.06.14-.12.17c-.23.1-.47.17-.71.26S23.45,22.83,23.46,22.57Z"/><path class="cls-5" d="M32.52,22.63l.25,0s.12,0,.13.07a.2.2,0,0,1,0,.16,6.31,6.31,0,0,1-.75.33s-.15,0-.17-.08,0-.13.06-.19a1.31,1.31,0,0,1,.12-.11c.19-.17.18-.19,0-.36a.24.24,0,0,1-.08-.19c0-.05.09-.11.15-.14a.4.4,0,0,1,.16,0c.31,0,.37.09.23.37Z"/><path class="cls-5" d="M30.83,20.49c0-.17-.09-.34-.14-.51a1.77,1.77,0,0,1-.11-.44.32.32,0,0,1,.16-.25s.19,0,.22.09a1.42,1.42,0,0,1,.12,1.25.56.56,0,0,1-.1.15.59.59,0,0,1-.14.06.56.56,0,0,1,0-.12,1.7,1.7,0,0,1,0-.22Z"/><path class="cls-5" d="M21.13,18.2c.15-.27.15-.27.36,0,0-.06,0-.12,0-.15a.27.27,0,0,1,.15-.09s.1.07.11.12c.09.28.05.43-.11.53a.78.78,0,0,1-.73,0,.5.5,0,0,1-.12-.53s.08-.1.12-.1.09.06.12.11S21.11,18.14,21.13,18.2Z"/><path class="cls-5" d="M25.92,16.75c.16-.25.16-.25.33,0h0c0-.11,0-.25.18-.21s.11.16.12.24a.44.44,0,0,1-.5.5c-.35,0-.54-.2-.49-.52a.56.56,0,0,1,.13-.22l.15.16Z"/><path class="cls-5" d="M12.93,14.74c.17-.31.17-.31.35,0a.53.53,0,0,1,.05-.15c.05,0,.11-.09.16-.08s.1.08.1.13,0,.4-.16.52a.67.67,0,0,1-.63,0,.45.45,0,0,1-.16-.58.16.16,0,0,1,.12-.08s.08.05.11.09S12.9,14.67,12.93,14.74Z"/><path class="cls-5" d="M26,16a1.77,1.77,0,0,1,0-.23.74.74,0,0,0-.18-.62,1.43,1.43,0,0,1-.14-.2c-.11-.16-.09-.3,0-.38a.27.27,0,0,1,.39.1,1.62,1.62,0,0,1,.21.63,1.56,1.56,0,0,1-.15.58c0,.06-.07.09-.11.14Z"/><path class="cls-5" d="M33.39,16.92a2,2,0,0,1,0-.35.94.94,0,0,0-.17-.67,1,1,0,0,1-.15-.4.22.22,0,0,1,.12-.19.28.28,0,0,1,.25,0,1.38,1.38,0,0,1,.07,1.49Z"/><path class="cls-5" d="M17.49,17c0,.38-.25.6-.56.54a.46.46,0,0,1-.22-.14.56.56,0,0,1,.21-.78.2.2,0,0,1,.15,0s0,.09,0,.14a1.5,1.5,0,0,0,0,.29c0,.14.08.17.2.1Z"/><path class="cls-5" d="M10.59,15.64a.49.49,0,0,1,0-.19.75.75,0,0,0-.2-.62c-.09-.11-.18-.25,0-.38s.31,0,.42.13A.86.86,0,0,1,10.59,15.64Z"/><path class="cls-5" d="M20.1,15.22c.06-.28.1-.53.18-.78,0-.07.14-.12.22-.18,0,.09.13.18.12.26a4.56,4.56,0,0,1-.18.75c0,.06-.14.12-.22.13S20.14,15.28,20.1,15.22Z"/><path class="cls-5" d="M16.43,21.09s0-.07,0-.11a.77.77,0,0,0-.25-.75c-.05,0-.06-.19,0-.24a.26.26,0,0,1,.24,0,.65.65,0,0,1,.32.56.69.69,0,0,1-.21.61Z"/><path class="cls-5" d="M19,14.19c0,.09,0,.18-.07.25s-.1.1-.12.15a.42.42,0,0,0,0,.24s.12,0,.19.06a.33.33,0,0,1-.31.35.28.28,0,0,1-.23-.31A.75.75,0,0,1,19,14.19Z"/><path class="cls-5" d="M44.37,24.13a6.41,6.41,0,0,0,0-.88v-.43c0-.81-.08-2-.15-2.74a3.16,3.16,0,0,1,.43-.46h0c.09,1,.11,2.07.11,3.09,0,.27,0,.54,0,.73a1.11,1.11,0,0,1-.39.71Z"/><path class="cls-5" d="M48.44,19.55a1.91,1.91,0,0,0,.37,1,2.62,2.62,0,0,1-.3.24c0,.57.05,1.27.05,1.83a3.46,3.46,0,0,1-.22,1.3,1.38,1.38,0,0,1-.5.49,1.76,1.76,0,0,1-.92.28,1.2,1.2,0,0,1-.91-.38,1.51,1.51,0,0,1-.31-1,2.69,2.69,0,0,1,.29-1.1l.16.06a1.92,1.92,0,0,0-.18.76,1.07,1.07,0,0,0,.22.68.92.92,0,0,0,.76.36,1.41,1.41,0,0,0,.76-.21,1.17,1.17,0,0,0,.48-.41,2.72,2.72,0,0,0,0-.28c0-.66,0-1.47-.11-2.45,0-.18,0-.39,0-.58a.54.54,0,0,1,.09-.35,1.37,1.37,0,0,1,.27-.27Z"/><path class="cls-5" d="M50.51,23.3c-.48,0-.72.2-.72.32a14.16,14.16,0,0,0,.56,2.22,1.6,1.6,0,0,1,.06.4,2.76,2.76,0,0,1-.1.64H50.2a12.32,12.32,0,0,0-.64-2.32,1.86,1.86,0,0,1-.08-.51,1.46,1.46,0,0,1,.11-.58,1.21,1.21,0,0,1,.39-.57,4.1,4.1,0,0,1-.06-.57.9.9,0,0,1,.24-.53.66.66,0,0,1,.41-.18.88.88,0,0,1,.56.19,2.88,2.88,0,0,1,.67.86.94.94,0,0,1,.06.28,1.13,1.13,0,0,1-.15.47A8.11,8.11,0,0,0,50.51,23.3Zm.88-.51c-.25-.33-.52-.65-.93-.65a.8.8,0,0,0-.27,0v.23a2.51,2.51,0,0,1-.11.42,2,2,0,0,1,.6-.08,4.25,4.25,0,0,1,.68.09Z"/><path class="cls-5" d="M53.65,23.3c-.49,0-.73.2-.73.32a14.45,14.45,0,0,0,.57,2.22,2.3,2.3,0,0,1,0,.4,2.76,2.76,0,0,1-.1.64h-.11a12.32,12.32,0,0,0-.64-2.32,2.35,2.35,0,0,1-.08-.51,1.66,1.66,0,0,1,.11-.58,1.16,1.16,0,0,1,.4-.57,3.05,3.05,0,0,1-.07-.57.85.85,0,0,1,.25-.53.64.64,0,0,1,.41-.18.88.88,0,0,1,.55.19,2.73,2.73,0,0,1,.67.86.71.71,0,0,1,.06.28,1.13,1.13,0,0,1-.15.47A8,8,0,0,0,53.65,23.3Zm.87-.51c-.25-.33-.51-.65-.93-.65a.84.84,0,0,0-.27,0v.23a1.81,1.81,0,0,1-.11.42,2.13,2.13,0,0,1,.6-.08,4.35,4.35,0,0,1,.69.09Z"/><path class="cls-5" d="M58.51,19.55a2,2,0,0,0,.37,1,2,2,0,0,1-.3.24c0,.57.05,1.27.05,1.83a3.61,3.61,0,0,1-.21,1.3,1.55,1.55,0,0,1-.5.49,1.79,1.79,0,0,1-.92.28,1.22,1.22,0,0,1-.92-.38,1.51,1.51,0,0,1-.31-1,2.56,2.56,0,0,1,.3-1.1l.16.06a1.94,1.94,0,0,0-.19.76,1,1,0,0,0,.23.68.9.9,0,0,0,.76.36,1.47,1.47,0,0,0,.76-.21,1.08,1.08,0,0,0,.47-.41c0-.1,0-.19,0-.28,0-.66-.05-1.47-.12-2.45,0-.18,0-.39,0-.58a.55.55,0,0,1,.1-.35,1.3,1.3,0,0,1,.26-.27Z"/><path class="cls-5" d="M63,19.57a1.75,1.75,0,0,0,.36,1l-.3.24c0,.63,0,1.24,0,1.84a2.08,2.08,0,0,1-.35,1,3.39,3.39,0,0,1-1.68.46,1.41,1.41,0,0,1-1.16-.44,1.17,1.17,0,0,1-.27-.81,2,2,0,0,1,.23-1L60,22a1.69,1.69,0,0,0-.11.56.88.88,0,0,0,.42.84,1.44,1.44,0,0,0,.81.2,3.14,3.14,0,0,0,1.46-.35c.13-.06.14-.15.14-.62s0-1.15-.09-1.82c0-.25,0-.46,0-.6a.54.54,0,0,1,.13-.39,1.58,1.58,0,0,1,.23-.22ZM61.66,21l0,0a.78.78,0,0,0-.47.43h.35c.31,0,.44.13.44.34,0,.43-.42.63-.8.63a1.17,1.17,0,0,1-.29,0l-.29-.17v0c.56,0,1.13-.16,1.13-.33s-.1-.05-.39-.05-.4,0-.4-.05v-.17a1,1,0,0,1,.29-.61.9.9,0,0,1,.49-.35c.07,0,.1,0,.1.1a1.62,1.62,0,0,1-.09.32Z"/><path class="cls-5" d="M64.8,21.15l.06,0c.27.26,1.1.76,1.25,1.26a1.77,1.77,0,0,1,.06.49,1.52,1.52,0,0,1-.23.82,1.22,1.22,0,0,1-.91.4A.93.93,0,0,1,64.5,24a1.09,1.09,0,0,1-.45-1,1.85,1.85,0,0,1,.26-.85,3.65,3.65,0,0,1,.44-.56A3.49,3.49,0,0,1,64.8,21.15Zm-.21-.56c-.18-.17-.34-.31-.51-.45a3.09,3.09,0,0,1,.34-.42,3.69,3.69,0,0,1,.51.47A2.36,2.36,0,0,1,64.59,20.59Zm-.27,2.34a.7.7,0,0,0,.73.59,1.15,1.15,0,0,0,.69-.24.37.37,0,0,0,.19-.29.91.91,0,0,0-.24-.48,2.61,2.61,0,0,0-.7-.57A1.41,1.41,0,0,0,64.32,22.93Zm1.12-2.39a6.83,6.83,0,0,0-.51-.46,3.09,3.09,0,0,1,.34-.42,4.37,4.37,0,0,1,.5.47A2.45,2.45,0,0,1,65.44,20.54Z"/><path class="cls-5" d="M68.88,24.13a6.4,6.4,0,0,0,.05-.88v-.43c0-.81-.09-2-.16-2.74a3.16,3.16,0,0,1,.43-.46h0c.09,1,.11,2.07.11,3.09,0,.27,0,.54,0,.73a1.14,1.14,0,0,1-.38.71Z"/><path class="cls-5" d="M73,19.55a2,2,0,0,0,.37,1,2,2,0,0,1-.3.24c0,.57,0,1.27,0,1.83a3.61,3.61,0,0,1-.21,1.3,1.55,1.55,0,0,1-.5.49,1.79,1.79,0,0,1-.92.28,1.22,1.22,0,0,1-.92-.38,1.51,1.51,0,0,1-.31-1,2.56,2.56,0,0,1,.3-1.1l.15.06a2.11,2.11,0,0,0-.18.76,1.07,1.07,0,0,0,.22.68.93.93,0,0,0,.77.36,1.47,1.47,0,0,0,.76-.21,1.14,1.14,0,0,0,.47-.41c0-.1,0-.19,0-.28,0-.66,0-1.47-.12-2.45,0-.18,0-.39,0-.58a.55.55,0,0,1,.1-.35,1.3,1.3,0,0,1,.26-.27Z"/><path class="cls-5" d="M76.51,22.68a9.57,9.57,0,0,0-1.5.69,1.32,1.32,0,0,0-.74,1c0,.74.81,1.25,2,1.25a4.85,4.85,0,0,0,1.12-.13l0,.08c-.22.16-.46.33-.73.49a1.67,1.67,0,0,1-.76.13c-1.06,0-2-.51-2-1.64a1.87,1.87,0,0,1,.73-1.42c-.48-.34-.66-.58-.66-1a1.4,1.4,0,0,1,.19-.67,1,1,0,0,1,.82-.52,1.16,1.16,0,0,1,1,.56l-.07.09a1.54,1.54,0,0,0-.69-.15c-.48,0-.87.25-.87.43s.11.36.38.56a1.45,1.45,0,0,0,.46.24.73.73,0,0,0,.25-.08c.39-.19.79-.36,1.18-.51h0Z"/><path class="cls-5" d="M79.36,21.78l.31.6a1.68,1.68,0,0,1,.22.83v.48a2,2,0,0,1-.56,1.23,1,1,0,0,1-.72.4A2.56,2.56,0,0,1,77.48,25l0-.15a1.61,1.61,0,0,0,.49.08,1.91,1.91,0,0,0,1.54-1.19.54.54,0,0,0,0-.19.86.86,0,0,0-.06-.23,6.8,6.8,0,0,0-.53-1c.1-.19.2-.37.31-.55Z"/><path class="cls-5" d="M82.84,24.23c-1.21,0-2.15-.45-2.15-1.53A2.22,2.22,0,0,1,81,21.63l.18.08a2,2,0,0,0-.13.67c0,.88.87,1.25,2,1.25a6.85,6.85,0,0,0,1.5-.19,3.56,3.56,0,0,0,.58-.18.06.06,0,0,0,0-.05,3.58,3.58,0,0,0-.44-1.08,4.34,4.34,0,0,1,.33-.5h0A3.12,3.12,0,0,1,85.46,23a1.22,1.22,0,0,1-.24.73A5.74,5.74,0,0,1,82.84,24.23ZM83,25a4.47,4.47,0,0,1,.53.47,1.88,1.88,0,0,1-.37.43c-.17-.16-.34-.3-.52-.45C82.76,25.31,82.88,25.15,83,25Z"/><path class="cls-5" d="M89.62,22.37c-.09-.38-.21-.55-.34-.55a1.36,1.36,0,0,0-.7.31c-.24.19-.43.41-.43.57,0,.39,1.15.34,1.45.59a.61.61,0,0,1,.2.49,1.38,1.38,0,0,1-.36.82,2.73,2.73,0,0,1-1.7.73,1.45,1.45,0,0,1-1.52-1.62,2.64,2.64,0,0,1,.23-1.08l.17.05a2.69,2.69,0,0,0-.13.77,1.21,1.21,0,0,0,1.29,1.28A2.6,2.6,0,0,0,89,24.37a1.62,1.62,0,0,0,.54-.44c0-.13-.32-.24-.68-.29a1.48,1.48,0,0,1-.81-.27.56.56,0,0,1-.16-.39,1.59,1.59,0,0,1,.49-1.13,1.91,1.91,0,0,1,1.09-.63.35.35,0,0,1,.32.24,1,1,0,0,1,.1.41,1.48,1.48,0,0,1-.18.49Zm-2.07,4.29c-.18-.17-.34-.31-.52-.46a5.26,5.26,0,0,1,.35-.41,3.63,3.63,0,0,1,.5.47A2.34,2.34,0,0,1,87.55,26.66Zm.85-.06c-.18-.17-.34-.31-.52-.45a3.11,3.11,0,0,1,.35-.42,3.63,3.63,0,0,1,.5.47A2,2,0,0,1,88.4,26.6Z"/><path class="cls-5" d="M91.43,21.15l.06,0c.28.26,1.1.76,1.25,1.26a1.49,1.49,0,0,1,.07.49,1.52,1.52,0,0,1-.24.82,1.2,1.2,0,0,1-.91.4.89.89,0,0,1-.52-.13,1.09,1.09,0,0,1-.46-1,1.85,1.85,0,0,1,.27-.85,2.72,2.72,0,0,1,.44-.56A3.42,3.42,0,0,1,91.43,21.15Zm-.2-.56c-.18-.17-.34-.31-.52-.45a4.08,4.08,0,0,1,.35-.42,3.63,3.63,0,0,1,.5.47A2.34,2.34,0,0,1,91.23,20.59ZM91,22.93a.7.7,0,0,0,.74.59,1.13,1.13,0,0,0,.68-.24.39.39,0,0,0,.2-.29.91.91,0,0,0-.24-.48,2.66,2.66,0,0,0-.71-.57A1.44,1.44,0,0,0,91,22.93Zm1.12-2.39a4.32,4.32,0,0,0-.51-.46,3.11,3.11,0,0,1,.35-.42,4.37,4.37,0,0,1,.5.47A2.06,2.06,0,0,1,92.07,20.54Z"/><path class="cls-5" d="M95.51,24.13a5.14,5.14,0,0,0,0-.88v-.43c0-.81-.08-2-.16-2.74a4.84,4.84,0,0,1,.43-.46h0c.1,1,.12,2.07.12,3.09,0,.27,0,.54,0,.73a1.16,1.16,0,0,1-.39.71Z"/><path class="cls-5" d="M99.58,19.55a2,2,0,0,0,.37,1,2,2,0,0,1-.3.24c0,.57.06,1.27.06,1.83a3.46,3.46,0,0,1-.22,1.3,1.38,1.38,0,0,1-.5.49,1.79,1.79,0,0,1-.92.28,1.2,1.2,0,0,1-.91-.38,1.51,1.51,0,0,1-.31-1,2.69,2.69,0,0,1,.29-1.1l.16.06a1.92,1.92,0,0,0-.18.76,1.07,1.07,0,0,0,.22.68.92.92,0,0,0,.76.36,1.41,1.41,0,0,0,.76-.21,1.17,1.17,0,0,0,.48-.41,2.72,2.72,0,0,0,0-.28c0-.66,0-1.47-.11-2.45,0-.18,0-.39,0-.58a.54.54,0,0,1,.09-.35,1.15,1.15,0,0,1,.27-.27Z"/><path class="cls-5" d="M103.16,22.32a3.31,3.31,0,0,1,.29.67c0,.13.08.39.36.39a.61.61,0,0,0,.54-.44l.11-.43.26-.15,0,0a1.85,1.85,0,0,0,0,.44.47.47,0,0,0,.48.5.21.21,0,0,0,.23-.21,2.9,2.9,0,0,0-.14-.72,3,3,0,0,1,.39-.4h0a4.77,4.77,0,0,1,.1.81,1.54,1.54,0,0,1-.14.56.74.74,0,0,1-.62.51.76.76,0,0,1-.6-.35h0a.86.86,0,0,1-.74.42h-.12a1.89,1.89,0,0,1-.15.66,1.65,1.65,0,0,1-1.48.86,1.22,1.22,0,0,1-1.28-1.34,2.29,2.29,0,0,1,.34-1.24l.16.08a2.21,2.21,0,0,0-.21.83A1,1,0,0,0,102,24.86a1.46,1.46,0,0,0,1.32-.86,2.81,2.81,0,0,0-.46-1.21,4.31,4.31,0,0,1,.29-.47Z"/><path class="cls-5" d="M109,22.68a9.44,9.44,0,0,0-1.49.69,1.3,1.3,0,0,0-.74,1c0,.74.81,1.25,2,1.25a5,5,0,0,0,1.13-.13l0,.08c-.23.16-.47.33-.74.49a1.65,1.65,0,0,1-.75.13c-1.07,0-2-.51-2-1.64a1.9,1.9,0,0,1,.73-1.42c-.48-.34-.66-.58-.66-1a1.42,1.42,0,0,1,.2-.67,1,1,0,0,1,.81-.52,1.16,1.16,0,0,1,1,.56l-.07.09a1.52,1.52,0,0,0-.68-.15c-.49,0-.88.25-.88.43s.11.36.38.56a1.38,1.38,0,0,0,.47.24.75.75,0,0,0,.24-.08c.39-.19.79-.36,1.18-.51h0Z"/><path class="cls-5" d="M111.85,23.59c-.52,0-1-.24-1-.83a1.2,1.2,0,0,1,.28-.75,1,1,0,0,1,.63-.37.81.81,0,0,1,.67.5,2.6,2.6,0,0,1,.28,1.21,2,2,0,0,1-.34,1.15c-.39.6-.76.84-1.13.84a2.22,2.22,0,0,1-1.26-.43l.07-.14a1.34,1.34,0,0,0,.64.15,1.77,1.77,0,0,0,1.29-.68,1.38,1.38,0,0,0,.41-.73A2.25,2.25,0,0,1,111.85,23.59Zm-.19-1.39c-.21,0-.5.23-.5.39s.39.46.75.46a2.07,2.07,0,0,0,.5-.05C112.29,22.55,112,22.2,111.66,22.2Z"/><path class="cls-5" d="M113.7,22.86c0,.37.17.67.72.67a1.87,1.87,0,0,0,1-.28c.06,0,.09-.07.09-.11a1.35,1.35,0,0,0-.41-.83,3.41,3.41,0,0,0-.9-.67c-.1-.05-.14-.11-.14-.16a1.39,1.39,0,0,1,.22-.5h0a4.27,4.27,0,0,1,1,.91,1.7,1.7,0,0,1,.44,1.05,1.65,1.65,0,0,1-.19.76,2.4,2.4,0,0,1-1.22.41c-.5,0-.84-.27-.84-.92a2.14,2.14,0,0,1,0-.32Z"/><path class="cls-5" d="M119.91,22.37c-.08-.38-.21-.55-.33-.55a1.33,1.33,0,0,0-.7.31c-.25.19-.43.41-.43.57,0,.39,1.14.34,1.45.59a.64.64,0,0,1,.19.49,1.38,1.38,0,0,1-.36.82,2.7,2.7,0,0,1-1.69.73,1.45,1.45,0,0,1-1.52-1.62,2.64,2.64,0,0,1,.23-1.08l.17.05a2.42,2.42,0,0,0-.14.77,1.21,1.21,0,0,0,1.3,1.28,2.53,2.53,0,0,0,1.18-.36,1.7,1.7,0,0,0,.55-.44c0-.13-.32-.24-.69-.29a1.41,1.41,0,0,1-.8-.27.57.57,0,0,1-.17-.39,1.59,1.59,0,0,1,.49-1.13,2,2,0,0,1,1.09-.63.34.34,0,0,1,.32.24,1,1,0,0,1,.11.41,1.75,1.75,0,0,1-.18.49Zm-2.07,4.29-.51-.46a3.73,3.73,0,0,1,.35-.41,3.63,3.63,0,0,1,.5.47A2.36,2.36,0,0,1,117.84,26.66Zm.85-.06c-.18-.17-.34-.31-.51-.45a3.09,3.09,0,0,1,.34-.42,4.36,4.36,0,0,1,.51.47A2.43,2.43,0,0,1,118.69,26.6Z"/><path class="cls-5" d="M121.73,21.15l.06,0c.27.26,1.1.76,1.25,1.26a1.49,1.49,0,0,1,.07.49,1.52,1.52,0,0,1-.24.82,1.2,1.2,0,0,1-.91.4.93.93,0,0,1-.53-.13,1.09,1.09,0,0,1-.45-1,1.85,1.85,0,0,1,.27-.85,3,3,0,0,1,.43-.56A3.49,3.49,0,0,1,121.73,21.15Zm-.21-.56c-.18-.17-.33-.31-.51-.45a3.11,3.11,0,0,1,.35-.42,3.63,3.63,0,0,1,.5.47A2.36,2.36,0,0,1,121.52,20.59Zm-.27,2.34a.7.7,0,0,0,.73.59,1.15,1.15,0,0,0,.69-.24.37.37,0,0,0,.19-.29,1,1,0,0,0-.23-.48,2.66,2.66,0,0,0-.71-.57A1.44,1.44,0,0,0,121.25,22.93Zm1.12-2.39a6.83,6.83,0,0,0-.51-.46,2.51,2.51,0,0,1,.35-.42,5.39,5.39,0,0,1,.5.47A3.08,3.08,0,0,1,122.37,20.54Z"/></g></g></svg>