<svg xmlns="http://www.w3.org/2000/svg" viewBox="0 0 136 44"><defs><style>.cls-1{fill:#fff;}.cls-2{fill:#040000;}.cls-3{fill:#5ab5ac;}</style></defs><title>资源 7</title><g id="图层_2" data-name="图层 2"><g id="图层_1-2" data-name="图层 1"><rect class="cls-1" width="136" height="44" rx="2"/><path class="cls-2" d="M128.58,28.93h-1.81V15.62h1.81Z"/><path class="cls-2" d="M58,28.79H56.23V23.64H48.46c-.42,0-.55.12-.55.55v4.64H46.13v-9a2.9,2.9,0,0,1,2.64-3.16,2.35,2.35,0,0,1,.53,0h5.78A2.86,2.86,0,0,1,58,19.45v9.34Zm-1.76-7V19.57a1.1,1.1,0,0,0-1-1.19H49.11a1.1,1.1,0,0,0-1.1,1.1v1.8c0,.57.12.56.54.55h7.24Z"/><path class="cls-2" d="M94.26,31.32H101c.68,0,1-.27,1-.95V22.15c0-.35-.12-.47-.47-.47H96.85c-.62,0-.92.28-.93.88v3.68c0,.63.29.88.91.89h2.6a.9.9,0,0,1,.6.32c.34.43.62.91,1,1.43-.2,0-.31.05-.43.05H96.76a2.56,2.56,0,0,1-2.63-2.49V22.56a2.57,2.57,0,0,1,2.43-2.7h7.23V30.35a2.57,2.57,0,0,1-2.35,2.77,3.23,3.23,0,0,1-.44,0H95.64a.72.72,0,0,1-.77-.49A9.9,9.9,0,0,0,94.26,31.32Z"/><path class="cls-2" d="M79,28.93V17.19c0-.53.13-.7.69-.69h6.76a3,3,0,0,1,3.27,2.71,4.34,4.34,0,0,1,0,.51v6.11a3,3,0,0,1-2.91,3.09h-.19C84.08,28.94,81.58,28.93,79,28.93Zm1.78-1.84h5.74a1.2,1.2,0,0,0,1.35-1,1,1,0,0,0,0-.34V19.66a1.22,1.22,0,0,0-1.06-1.36,1.61,1.61,0,0,0-.31,0H81.31c-.44,0-.54.15-.53.56v8.23Z"/><path class="cls-2" d="M125.42,28.93H117a2.58,2.58,0,0,1-2.8-2.32,3.69,3.69,0,0,1,0-.47,5.57,5.57,0,0,1,0-1A2.53,2.53,0,0,1,116.72,23h4.33a.6.6,0,0,1,.39.11c.39.51.74,1.05,1.17,1.68H117.1c-.9,0-1.12.24-1.11,1.25s.21,1.15,1.08,1.15H123c.49,0,.61-.17.6-.63V22.79c0-.86-.24-1.09-1.09-1.09h-6.87a.77.77,0,0,1-.78-.42c-.26-.45-.56-.87-.91-1.39h8.76a2.58,2.58,0,0,1,2.71,2.46,2.43,2.43,0,0,1,0,.27V29Z"/><path class="cls-2" d="M75.43,21.66H69a.74.74,0,0,1-.74-.41c-.26-.44-.56-.87-.88-1.37h9.74c.77,0,1,.28,1.09,1a1.57,1.57,0,0,1-.91,1.71c-2.36,1.3-4.68,2.68-7,4a.91.91,0,0,0-.41.39h7.7c.47,0,.66.09.65.62,0,1.19,0,1.19-1.2,1.19H68.21c-.82,0-1-.27-1.12-1.1A1.57,1.57,0,0,1,68,26.08c2.38-1.32,4.73-2.7,7.08-4.06l.35-.23Z"/><path class="cls-2" d="M109.51,17.76v1.52c0,.52.1.61.57.59h2.48a.85.85,0,0,1,.56.29c.36.45.67.93,1.07,1.51h-3.33c-1.34,0-1.34,0-1.34,1.37v3.13c0,.69.26.94,1,.95h2.7a.68.68,0,0,1,.49.26c.31.48.57,1,.86,1.5a1.82,1.82,0,0,1-.33,0h-3.78a2.54,2.54,0,0,1-2.71-2.38,1.82,1.82,0,0,1,0-.33V18.28c0-.46.15-.61.59-.57A12.19,12.19,0,0,0,109.51,17.76Z"/><path class="cls-2" d="M61,28.79H59.26V22.6a2.55,2.55,0,0,1,2.34-2.74h4.3a1,1,0,0,1,.6.31,13.61,13.61,0,0,1,1,1.48H62c-.72,0-1,.25-1,1v6.14Z"/><path class="cls-2" d="M91,19.87h1.75v9.06H91.24c-.1,0-.25-.3-.25-.46v-8C91,20.31,91,20.11,91,19.87Z"/><path class="cls-2" d="M104.93,19.89h1.73v9h-1.73Z"/><path class="cls-2" d="M93.05,18a1.17,1.17,0,1,1-1.16-1.18A1.2,1.2,0,0,1,93.05,18Z"/><path class="cls-2" d="M105.64,16.84a1.16,1.16,0,0,1,0,2.32h0a1.16,1.16,0,1,1,0-2.32Z"/><path class="cls-3" d="M40.47,22a16.2,16.2,0,0,1-5,11.92,15.93,15.93,0,0,1-9.55,4.53,15,15,0,0,1-2.32.09A1.7,1.7,0,0,1,21.73,37a1.68,1.68,0,0,1,.11-.8A14.47,14.47,0,0,1,23.67,32c.22-.37.47-.72.67-1.1a3.17,3.17,0,0,1,3-1.68,12.07,12.07,0,0,0,2.4-.17,4.9,4.9,0,0,0,3.62-5.91,5.07,5.07,0,0,0-.28-.83c-.22-.52-.42-1-.59-1.58a1,1,0,0,1,.33-1.17c.39-.32.8-.62,1.22-.9a4.43,4.43,0,0,0-3.74-8c-.69.23-1.4.42-2.1.6a2.53,2.53,0,0,1-2.11-.46c-1-.65-2-1.25-3-1.9a11.28,11.28,0,0,1-1.28-1,1.36,1.36,0,0,1-.47-1.57,1.45,1.45,0,0,1,1.41-.93,16.37,16.37,0,0,1,13.71,5.75,16.18,16.18,0,0,1,3.9,8.76c0,.35.07.71.09,1.07S40.47,21.7,40.47,22ZM29.92,33.68a2,2,0,0,0-2-2,2.06,2.06,0,0,0-2,2,2.09,2.09,0,0,0,2,2A2,2,0,0,0,29.92,33.68Zm-5.69,1.7a.84.84,0,0,0,.84-.8.89.89,0,0,0-.84-.83.84.84,0,0,0-.79.8.78.78,0,0,0,.71.83Z"/><path class="cls-3" d="M23.59,18.78A2.26,2.26,0,0,0,26.64,21a15.92,15.92,0,0,1,1.53-.47,2.28,2.28,0,0,0,1.51-2.84,2.58,2.58,0,0,0-.35-.68,3.13,3.13,0,1,1,4.42.16,3.06,3.06,0,0,1-1.34.74,2.25,2.25,0,0,0-2,2.07,2,2,0,0,0,.53,1.65,3.5,3.5,0,1,1-6,2.29,2.68,2.68,0,0,0-.56-2.09,2.18,2.18,0,0,0-2.56-.57,3.73,3.73,0,0,1-3.15.11,2.07,2.07,0,0,0-2.24.46A2.17,2.17,0,0,0,15.78,24,3.49,3.49,0,0,1,9,25.65a3.3,3.3,0,0,1,1-3.58,3.32,3.32,0,0,1,3.57-.72,2.23,2.23,0,0,0,2.87-.8,1.92,1.92,0,0,0,.32-1.61,3.47,3.47,0,0,1,2.46-4.18,3.51,3.51,0,0,1,4.31,2.47A3.69,3.69,0,0,1,23.59,18.78Z"/><path class="cls-3" d="M14.64,10.29A2.7,2.7,0,1,1,17.33,13h-.06A2.72,2.72,0,0,1,14.64,10.29Z"/><path class="cls-3" d="M17.77,31.49A2.57,2.57,0,0,1,20.41,34v.13a2.63,2.63,0,0,1-2.59,2.67h-.06a2.7,2.7,0,0,1-2.63-2.68A2.66,2.66,0,0,1,17.77,31.49Z"/><path class="cls-3" d="M11.18,14.19a2.26,2.26,0,0,1,2.32,2.2h0a2.31,2.31,0,0,1-2.21,2.41h-.08a2.35,2.35,0,0,1-2.34-2.33,2.3,2.3,0,0,1,2.31-2.29Z"/><path class="cls-3" d="M20.12,24a2.25,2.25,0,0,1,2.25,2.25v0a2.27,2.27,0,1,1-4.53,0A2.25,2.25,0,0,1,20.09,24Z"/><path class="cls-3" d="M12.35,33a1.5,1.5,0,0,1-1.53-1.47v-.05A1.58,1.58,0,0,1,12.34,30a1.55,1.55,0,0,1,1.51,1.5A1.46,1.46,0,0,1,12.43,33Z"/><path class="cls-3" d="M24.8,16.16A1.29,1.29,0,0,1,26,14.82h.06a1.32,1.32,0,0,1,1.38,1.24v.08a1.4,1.4,0,0,1-1.36,1.36A1.34,1.34,0,0,1,24.8,16.16Z"/><path class="cls-3" d="M9.5,20.66a1,1,0,0,1-2.08-.05,1.1,1.1,0,0,1,1.05-1A1.05,1.05,0,0,1,9.5,20.66Z"/><path class="cls-3" d="M22,13a1,1,0,1,1,1-1A1,1,0,0,1,22,13Z"/><path class="cls-3" d="M12.14,11.14a1,1,0,0,1,.92.95.92.92,0,0,1-.92.94h-.08a1,1,0,0,1,0-1.89Z"/><path class="cls-3" d="M21.79,31.68A.71.71,0,0,1,21,31v-.08a.79.79,0,0,1,.73-.76.8.8,0,0,1,.78.76.72.72,0,0,1-.69.75Z"/><path class="cls-3" d="M13.78,19.76a.7.7,0,0,1,.7-.65.73.73,0,0,1,.62.7.7.7,0,0,1-.66.65.67.67,0,0,1-.66-.7Z"/><path class="cls-3" d="M22.47,23.61a.61.61,0,0,1-.59-.61.65.65,0,0,1,.63-.62.66.66,0,0,1,.58.62.58.58,0,0,1-.55.61Z"/><circle class="cls-3" cx="25.81" cy="12.88" r="0.62"/></g></g></svg>