<svg xmlns="http://www.w3.org/2000/svg" viewBox="0 0 136 44"><defs><style>.cls-1{fill:#fff;}.cls-2{fill:#010101;}.cls-3{fill:#020202;}</style></defs><title>资源 33</title><g id="图层_2" data-name="图层 2"><g id="图层_1-2" data-name="图层 1"><rect class="cls-1" width="136" height="44" rx="2"/><path class="cls-2" d="M18.17,11.31l1,.15a10.2,10.2,0,0,1,5.46,2.59,10.43,10.43,0,0,1,3.42,6.47,8.27,8.27,0,0,1,0,2.85,3.44,3.44,0,0,1-3.64,2.85,3,3,0,0,1-2.57-2.32A6.83,6.83,0,0,1,21.69,22V20.58l-1,1.53c-.62,1-1.23,2-1.88,3A3.19,3.19,0,0,1,18,26a1.34,1.34,0,0,1-2.15-.72,4.23,4.23,0,0,1-.18-1.12c0-1,0-2.08,0-3.12v-.27l0,0L11.2,27.82a7,7,0,0,0,1.6,1.42,8.16,8.16,0,0,0,4.79,1.49,8.32,8.32,0,0,0,5.83-2.28,1,1,0,0,1,1.42,0,1,1,0,0,1-.07,1.41,10.56,10.56,0,0,1-17.69-7,10.47,10.47,0,0,1,2.74-8,10.21,10.21,0,0,1,6.62-3.41c.17,0,.33-.06.5-.09ZM10,26.1c.16-.27.29-.49.43-.7,1.3-2.08,2.59-4.16,3.9-6.23a11.85,11.85,0,0,1,1.13-1.6,1.19,1.19,0,0,1,1.92.32,3.13,3.13,0,0,1,.25,1.38c0,1.35,0,2.71,0,4.11a1.35,1.35,0,0,0,.13-.15c.54-.87,1.07-1.74,1.62-2.61a9.53,9.53,0,0,1,1.47-2,1.48,1.48,0,0,1,2.47.32,3.09,3.09,0,0,1,.28,1.16c0,.82,0,1.64,0,2.46a3.18,3.18,0,0,0,.1.82,1.09,1.09,0,0,0,1.87.62,1.58,1.58,0,0,0,.57-1,9,9,0,0,0,.05-1.72,8.71,8.71,0,0,0-8.48-8,8,8,0,0,0-3.41.67,8.74,8.74,0,0,0-5.26,9.22A8.88,8.88,0,0,0,10,26.1Z"/><path class="cls-2" d="M128.91,23.26c-.11.31-.2.63-.32.93a3,3,0,0,1-4.48,1.54l-.14-.05c0,.75,0,1.49,0,2.23a1.48,1.48,0,0,1-.31.78.79.79,0,0,1-1,.21.88.88,0,0,1-.6-.79c0-.1,0-.2,0-.3V20.28c0-.49.24-.84.61-.88s.73.19.86.74a3.15,3.15,0,0,1,5.17,1.48c.05.21.12.42.18.62Zm-1.84-.44,0,0c0-.19,0-.38-.08-.57a1.45,1.45,0,0,0-2.37-.82,1.84,1.84,0,0,0-.06,2.67,1.35,1.35,0,0,0,2.13-.21A6,6,0,0,0,127.07,22.82Z"/><path class="cls-2" d="M69.65,21,68,22.7c-.2.21-.4.43-.61.63a.55.55,0,0,1-.9,0l-1.72-1.86c-.12-.13-.23-.28-.34-.42l-.1.06v4a1,1,0,0,1-.77,1,.89.89,0,0,1-1.1-.86c0-.7,0-1.41,0-2.11v-6c0-.2,0-.45.2-.48a.71.71,0,0,1,.53.2c.75.81,1.48,1.64,2.21,2.46.42.46.82.93,1.24,1.39.28.3.38.31.66,0Q68.8,19,70.25,17.4a6.52,6.52,0,0,1,.62-.66.5.5,0,0,1,.45-.1.49.49,0,0,1,.22.39q0,4,0,8A1,1,0,0,1,71,26a.94.94,0,0,1-1.34-.9Z"/><path class="cls-2" d="M104.72,21.32a4.81,4.81,0,0,1,5.22-4.84,4.56,4.56,0,0,1,2.23.77,1,1,0,0,1,.5,1,.79.79,0,0,1-.66.68,1.18,1.18,0,0,1-.71-.15,3.29,3.29,0,0,0-2.32-.49,2.88,2.88,0,0,0-2.33,2.49,3.15,3.15,0,0,0,1.06,3.08,3,3,0,0,0,3.88-.16.86.86,0,0,1,1.08-.12.81.81,0,0,1,.13,1.28,4.66,4.66,0,0,1-4.17,1.24A4.79,4.79,0,0,1,104.72,21.32Z"/><path class="cls-2" d="M34.29,21.34a4.93,4.93,0,0,1,5.31-4.86,4.75,4.75,0,0,1,2.32.83.93.93,0,0,1,.28,1.25.83.83,0,0,1-1.26.22,3,3,0,0,0-3.4,0,2.93,2.93,0,0,0-1.22,2,3.14,3.14,0,0,0,1,3.13,2.88,2.88,0,0,0,3.26.27c.27-.15.5-.35.75-.52a.85.85,0,0,1,.93-.05.75.75,0,0,1,.38.83,1,1,0,0,1-.29.55,4.76,4.76,0,0,1-7.75-2C34.48,22.4,34.41,21.86,34.29,21.34Z"/><path class="cls-2" d="M118.83,20.31c.17-.79.7-1.13,1.22-.8a.81.81,0,0,1,.35.76q0,2.48,0,4.95a1.13,1.13,0,0,1-.12.51.67.67,0,0,1-.7.37.7.7,0,0,1-.63-.58,2.19,2.19,0,0,1,0-.27,3,3,0,0,1-3.09.8,2.85,2.85,0,0,1-1.9-1.77,3.62,3.62,0,0,1,.35-3.72,2.93,2.93,0,0,1,4.48-.4A.36.36,0,0,1,118.83,20.31Zm-.34,2.43v-.17a1.67,1.67,0,0,0-1-1.42,1.39,1.39,0,0,0-1.56.32A2,2,0,0,0,116,24a1.36,1.36,0,0,0,1.89.14A1.74,1.74,0,0,0,118.49,22.74Z"/><path class="cls-2" d="M77.91,20.27a4.11,4.11,0,0,1,.28-.63.59.59,0,0,1,.72-.21.69.69,0,0,1,.53.59,2.45,2.45,0,0,1,0,.27c0,1.64,0,3.28,0,4.92a1.13,1.13,0,0,1-.15.57.65.65,0,0,1-.73.31.67.67,0,0,1-.56-.63l0-.24a2.66,2.66,0,0,1-2.06,1A2.86,2.86,0,0,1,73,24.38,3.66,3.66,0,0,1,74,19.92a2.9,2.9,0,0,1,3.82.22A1.59,1.59,0,0,0,77.91,20.27Zm-3.37,2.55s0,.13,0,.24a1.46,1.46,0,0,0,2.36,1.1,1.88,1.88,0,0,0,.5-2.14,1.48,1.48,0,0,0-1.93-.87A1.67,1.67,0,0,0,74.54,22.82Z"/><path class="cls-2" d="M88.07,22.26l2.17-2.42a1,1,0,0,1,1-.43,1,1,0,0,1,.7.71.82.82,0,0,1-.24.8c-.52.55-1,1.11-1.55,1.7.49.59,1,1.19,1.48,1.77a1,1,0,0,1,.27,1.2.88.88,0,0,1-1.52.14c-.58-.64-1.13-1.3-1.7-2l-.58-.66c0,.68,0,1.29,0,1.89a1,1,0,1,1-1.9,0V17.63a1,1,0,0,1,1-1,.94.94,0,0,1,.88,1v4.7Z"/><path class="cls-2" d="M94.18,23.33a1.07,1.07,0,0,0,.61,1,2.39,2.39,0,0,0,2.18,0,.85.85,0,0,1,1.14.29.81.81,0,0,1-.42,1.1,4,4,0,0,1-2.91.36,3.07,3.07,0,0,1-2.52-3.43,3.87,3.87,0,0,1,.56-2,2.92,2.92,0,0,1,2.79-1.32,3,3,0,0,1,3.08,3.15.76.76,0,0,1-.84.87H94.18Zm2.63-1.19c0-.69-.53-1.19-1.34-1.17-.64,0-1.34.42-1.26,1.19h2.41Z"/><path class="cls-2" d="M50,22.74a3.42,3.42,0,0,1-3.33,3.44,3.51,3.51,0,0,1-3.45-3.6A3.47,3.47,0,0,1,46.7,19.3,3.37,3.37,0,0,1,50,22.74Zm-4.89,0v.17a1.55,1.55,0,0,0,2.17,1.45,1.9,1.9,0,0,0,.45-2.74,1.48,1.48,0,0,0-1.63-.42A1.56,1.56,0,0,0,45.14,22.71Z"/><path class="cls-2" d="M56.23,20.09a2.84,2.84,0,0,1,2.48-.75,2.39,2.39,0,0,1,2.15,2.18c.12,1.24.08,2.5.08,3.75a.94.94,0,0,1-1.88-.13c0-.71,0-1.42,0-2.13,0-.25,0-.5,0-.75,0-.81-.37-1.19-1.13-1.22a1.13,1.13,0,0,0-1.25,1.14c-.05,1,0,2-.05,2.94a.93.93,0,0,1-1.39.86.9.9,0,0,1-.48-.83c0-1.66,0-3.33,0-5a.73.73,0,0,1,.62-.76C55.76,19.33,56,19.54,56.23,20.09Z"/><path class="cls-2" d="M100.37,19.28c0-.57,0-1.12,0-1.68a1,1,0,0,1,1-1,1,1,0,0,1,.85.93c0,.58,0,1.17,0,1.78.27,0,.5,0,.74,0a.86.86,0,0,1,.88.87A.87.87,0,0,1,103,21c-.22,0-.43,0-.65,0a.26.26,0,0,0,0,.1c0,.88,0,1.76,0,2.64,0,.59.16.7.74.7a.86.86,0,0,1,.95.87.85.85,0,0,1-.95.83,6.36,6.36,0,0,1-1.24-.1,1.85,1.85,0,0,1-1.36-1.85c-.06-.82,0-1.65-.07-2.47v-.71c-.4,0-.85.08-1.11-.34a1.24,1.24,0,0,1-.19-.58C99.07,19.59,99.44,19.35,100.37,19.28Z"/><path class="cls-3" d="M82.61,20.08a2.7,2.7,0,0,1,2.06-.76.86.86,0,0,1,.8.7.89.89,0,0,1-.43.92,1.51,1.51,0,0,1-.42.1l-.44,0A1.2,1.2,0,0,0,83,22.42c0,.87,0,1.74,0,2.61a1,1,0,1,1-1.9,0V20.23a.78.78,0,0,1,.66-.84C82.19,19.35,82.49,19.59,82.61,20.08Z"/><path class="cls-3" d="M51.17,22.71c0-.75,0-1.5,0-2.24A1,1,0,0,1,52,19.39a1,1,0,0,1,1,1c0,1.58,0,3.16,0,4.75a.94.94,0,1,1-1.88-.08C51.16,24.27,51.17,23.49,51.17,22.71Z"/><path class="cls-3" d="M53.2,17.59a1.11,1.11,0,0,1-1.1,1.12A1.13,1.13,0,0,1,51,17.6a1.1,1.1,0,1,1,2.19,0Z"/></g></g></svg>