<?xml version="1.0" encoding="utf-8"?>
<!-- Generator: Adobe Illustrator 24.0.0, SVG Export Plug-In . SVG Version: 6.00 Build 0)  -->
<svg version="1.1" id="图层_1" xmlns="http://www.w3.org/2000/svg" xmlns:xlink="http://www.w3.org/1999/xlink" x="0px" y="0px"
	 viewBox="0 0 68 62.5" style="enable-background:new 0 0 68 62.5;" xml:space="preserve">
<style type="text/css">
	.st0{fill-rule:evenodd;clip-rule:evenodd;fill:#FFFFFF;}
	.st1{fill-rule:evenodd;clip-rule:evenodd;fill:#040000;}
	.st2{fill-rule:evenodd;clip-rule:evenodd;fill:#DC4C36;}
	.st3{fill-rule:evenodd;clip-rule:evenodd;fill:#2679B0;}
	.st4{fill:#218DCB;}
	.st5{fill:#FFFFFF;}
	.st6{fill-rule:evenodd;clip-rule:evenodd;fill:#169C7F;}
	.st7{fill-rule:evenodd;clip-rule:evenodd;fill:#28A65B;}
	.st8{fill-rule:evenodd;clip-rule:evenodd;fill:#DE7B12;}
	.st9{fill-rule:evenodd;clip-rule:evenodd;fill:#E94B35;}
</style>
<g>
	<g id="Page-1_3_">
		<g id="flags_3_" transform="translate(-2070.000000, -5310.000000)">
			<g id="south_korea" transform="translate(2070.000000, 5310.000000)">
				<circle id="white_1_" class="st0" cx="239.2" cy="9.1" r="9.9"/>
				<g id="emblem" transform="translate(27.000000, 41.000000)">
					<path id="line" class="st1" d="M205.4-34.5l0.5,0.3l1.8-2.7l-0.5-0.3L205.4-34.5L205.4-34.5z M206-34l0.5,0.3l1.8-2.7l-0.5-0.3
						L206-34L206-34z M206.6-33.6l0.5,0.3l1.8-2.7l-0.5-0.3L206.6-33.6L206.6-33.6z"/>
					<path id="line_1_" class="st1" d="M207.2-26.6l0.5-0.3l-1.8-2.7l-0.5,0.3L207.2-26.6L207.2-26.6z M207.8-27l0.5-0.3l-0.9-1.3
						l-0.5,0.3L207.8-27L207.8-27z M206.8-28.5l0.5-0.3l-0.9-1.3l-0.5,0.3L206.8-28.5L206.8-28.5z M208.5-27.5l0.5-0.3l-1.8-2.7
						l-0.5,0.3L208.5-27.5L208.5-27.5z"/>
					<path id="line_2_" class="st1" d="M217.3-33.3l0.5-0.3l-0.9-1.3l-0.5,0.3L217.3-33.3L217.3-33.3z M216.3-34.8l0.5-0.3l-0.9-1.3
						l-0.5,0.3L216.3-34.8L216.3-34.8z M217.9-33.7l0.5-0.3l-1.8-2.7l-0.5,0.3L217.9-33.7L217.9-33.7z M218.6-34.2l0.5-0.3l-0.9-1.3
						l-0.5,0.3L218.6-34.2L218.6-34.2z M217.6-35.6l0.5-0.3l-0.9-1.3l-0.5,0.3L217.6-35.6L217.6-35.6z"/>
					<path id="line_3_" class="st1" d="M219-29.3l-0.5-0.3l-0.9,1.3l0.5,0.3L219-29.3L219-29.3z M218-27.9l-0.5-0.3l-0.9,1.3
						l0.5,0.3L218-27.9L218-27.9z M218.4-29.8l-0.5-0.3l-0.9,1.3l0.5,0.3L218.4-29.8L218.4-29.8z M217.4-28.3l-0.5-0.3l-0.9,1.3
						l0.5,0.3L217.4-28.3L217.4-28.3z M217.8-30.2l-0.5-0.3l-0.9,1.3l0.5,0.3L217.8-30.2L217.8-30.2z M216.8-28.7l-0.5-0.3l-0.9,1.3
						l0.5,0.3L216.8-28.7L216.8-28.7z"/>
					<circle id="Oval-2" class="st2" cx="212.2" cy="-31.9" r="3.3"/>
					<path id="Oval-2_1_" class="st3" d="M215-30.1c-1,1.5-3,2-4.5,1s-2-3-1.1-4.5c-0.5,0.8-0.2,1.8,0.5,2.3
						c0.8,0.5,1.8,0.3,2.3-0.5s1.5-1,2.3-0.5C215.2-31.9,215.4-30.9,215-30.1C215-30.1,215.4-30.9,215-30.1L215-30.1L215-30.1
						L215-30.1z"/>
				</g>
			</g>
		</g>
	</g>
	<path class="st4" d="M226.6,8.8c0-6.9,5.6-12.6,12.6-12.6c1.6,0,3.1,0.3,4.5,0.8c0-0.2,0-0.3,0-0.5c0-16.8-13.7-30.5-30.5-30.5
		s-30.5,13.7-30.5,30.5S196.4,27,213.2,27c7.6,0,14.5-2.8,19.8-7.3C229.2,17.7,226.6,13.6,226.6,8.8z"/>
	<path class="st5" d="M222.8,11.3l5.1-23.9c0.4-2.1-0.8-2.9-2.1-2.4L196-3.5c-2,0.8-2,1.9-0.3,2.4l7.6,2.4L221-9.8
		c0.8-0.6,1.6-0.2,1,0.3L207.6,3.4l-0.6,7.8c0.8,0,1.1-0.3,1.5-0.8l3.7-3.6l7.7,5.7C221.4,13.4,222.4,13,222.8,11.3L222.8,11.3z"/>
</g>
<g>
	<path class="st4" d="M137.8,160.5c0-6.9,5.6-12.6,12.6-12.6c1.6,0,3.1,0.3,4.5,0.8c0-0.2,0-0.3,0-0.5c0-16.8-13.7-30.5-30.5-30.5
		s-30.5,13.7-30.5,30.5s13.7,30.5,30.5,30.5c7.6,0,14.5-2.8,19.8-7.3C140.4,169.3,137.8,165.2,137.8,160.5z"/>
	<path class="st5" d="M134,162.9l5.1-23.9c0.4-2.1-0.8-2.9-2.1-2.4l-29.7,11.5c-2,0.8-2,1.9-0.3,2.4l7.6,2.4l17.7-11.1
		c0.8-0.6,1.6-0.2,1,0.3L118.8,155l-0.6,7.8c0.8,0,1.1-0.3,1.5-0.8l3.7-3.6l7.7,5.7C132.6,165,133.6,164.6,134,162.9L134,162.9z"/>
	<g id="Page-1_4_">
		<g id="flags_4_" transform="translate(-180.000000, -6120.000000)">
			<g id="turkey_1_" transform="translate(180.000000, 6120.000000)">
				<circle id="red_3_" class="st2" cx="150.4" cy="160.7" r="10"/>
				<path id="white_2_" class="st0" d="M155.4,161.7l-0.8,0.8l-0.2-1.1l-1-0.5l1-0.5l0.2-1.1l0.8,0.8l1.1-0.2l-0.5,1l0.5,1
					L155.4,161.7L155.4,161.7z M153.2,163.1c-0.8,1.5-2.5,2.6-4.4,2.6c-2.7,0-5-2.2-5-5s2.2-5,5-5c1.9,0,3.5,1,4.4,2.6
					c-0.7-0.9-1.8-1.5-3-1.5c-2.1,0-3.9,1.7-3.9,3.9c0,2.1,1.7,3.9,3.9,3.9C151.4,164.6,152.5,164,153.2,163.1
					C153.2,163.1,152.5,164,153.2,163.1L153.2,163.1z"/>
			</g>
		</g>
	</g>
</g>
<g>
	<path class="st4" d="M-2.4,249.5c0-6.9,5.6-12.6,12.6-12.6c1.6,0,3.1,0.3,4.5,0.8c0-0.2,0-0.3,0-0.5c0-16.8-13.7-30.5-30.5-30.5
		s-30.5,13.7-30.5,30.5s13.7,30.5,30.5,30.5c7.6,0,14.5-2.8,19.8-7.3C0.2,258.3-2.4,254.2-2.4,249.5z"/>
	<path class="st5" d="M-6.2,252l5.1-23.9c0.4-2.1-0.8-2.9-2.1-2.4L-33,237.2c-2,0.8-2,1.9-0.3,2.4l7.6,2.4L-8,230.9
		c0.8-0.6,1.6-0.2,1,0.3l-14.3,12.9l-0.6,7.8c0.8,0,1.1-0.3,1.5-0.8l3.7-3.6l7.7,5.7C-7.6,254.1-6.6,253.6-6.2,252L-6.2,252z"/>
	<g id="Page-1_6_">
		<g id="flags_6_" transform="translate(-2070.000000, -2610.000000)">
			<g id="indonesia" transform="translate(2070.000000, 2610.000000)">
				<path id="white_4_" class="st0" d="M20.4,249.4L20.4,249.4c0,5.5-4.5,10-10.1,10s-10.1-4.5-10.1-10l0,0H20.4L20.4,249.4
					L20.4,249.4L20.4,249.4L20.4,249.4z"/>
				<path id="red_4_" class="st2" d="M20.2,249.4c0-5.5-4.5-9.9-9.9-9.9s-9.9,4.5-9.9,9.9H20.2L20.2,249.4L20.2,249.4L20.2,249.4
					L20.2,249.4z"/>
			</g>
		</g>
	</g>
</g>
<g>
	<path class="st4" d="M-200.8,88.1c0-6.9,5.6-12.6,12.6-12.6c1.6,0,3.1,0.3,4.5,0.8c0-0.2,0-0.3,0-0.5c0-16.8-13.7-30.5-30.5-30.5
		s-30.5,13.7-30.5,30.5s13.7,30.5,30.5,30.5c7.6,0,14.5-2.8,19.8-7.3C-198.2,96.9-200.8,92.8-200.8,88.1z"/>
	<path class="st5" d="M-204.6,90.5l5.1-23.9c0.4-2.1-0.8-2.9-2.1-2.4l-29.7,11.5c-2,0.8-2,1.9-0.3,2.4l7.6,2.4l17.7-11.1
		c0.8-0.6,1.6-0.2,1,0.3l-14.3,12.9l-0.6,7.8c0.8,0,1.1-0.3,1.5-0.8l3.7-3.6l7.7,5.7C-206,92.6-205,92.2-204.6,90.5L-204.6,90.5z"/>
	<g id="Page-1_7_">
		<g id="flags_7_" transform="translate(-180.000000, -6120.000000)">
			<g id="turkey_2_" transform="translate(180.000000, 6120.000000)">
				<circle id="red_5_" class="st0" cx="-188.2" cy="88.4" r="10"/>
				<path id="white_5_" class="st0" d="M-183.2,89.3l-0.8,0.8l-0.2-1.1l-1-0.5l1-0.5l0.2-1.1l0.8,0.8l1.1-0.2l-0.5,1l0.5,1
					L-183.2,89.3L-183.2,89.3z M-185.4,90.8c-0.8,1.5-2.5,2.6-4.4,2.6c-2.7,0-5-2.2-5-5s2.2-5,5-5c1.9,0,3.5,1,4.4,2.6
					c-0.7-0.9-1.8-1.5-3-1.5c-2.1,0-3.9,1.7-3.9,3.9c0,2.1,1.7,3.9,3.9,3.9C-187.2,92.2-186.1,91.7-185.4,90.8
					C-185.4,90.8-186.1,91.7-185.4,90.8L-185.4,90.8z"/>
			</g>
		</g>
	</g>
	<g>
		<g>
			<path class="st4" d="M-188,78.3c-5.6,0-10.2,4.6-10.2,10.2c0,5.2,3.9,9.5,8.9,10.1c0.3,0.1,0.6,0.1,1,0.1c0.1,0,0.2,0,0.3,0
				c5.6-0.1,10.1-4.6,10.1-10.2C-177.8,82.8-182.3,78.3-188,78.3L-188,78.3z M-189.6,97.8c-4.4-0.8-7.7-4.6-7.7-9.2
				c0-0.7,0.1-1.3,0.2-1.9c0.4,0.4,1.4,0.4,1.6-0.2c0.4,0.2,1,0.3,1,0.8c0,1.6,0.1,3.4,1.5,3.4c0,0,0.8,0.3,1.2,1.3
				c0.1,0.3,0.6,0,1.2,0c0.3,0,0,0.5,0,1.5s2.2,2.6,2.2,2.6c0,0.7,0,1.2,0.1,1.7C-188.8,97.6-189.3,97.6-189.6,97.8L-189.6,97.8z
				 M-185.7,97.5c0-0.2-0.3-0.4-0.6-0.3c0.3-1.3,0.5-2.1,1.1-2.6c0.9-0.8,0.1-1.7-0.6-1.6c-0.6,0.1-0.2-0.7-0.7-0.7s-1.2-1-1.9-1.4
				c-0.4-0.2-0.8-0.7-1.3-0.7s-1.3,0.4-1.3,0.1c0-1.1-0.1-2-0.1-2.3s-0.2-0.1,0.5-0.1c0.4,0,0.2-0.8,0.6-0.8c0.4,0,1.3,0.3,1.5,0.2
				c0.2-0.1,1.5,3.5,1.5,0.6c0-0.3-0.2-0.9,0-1.3c0.7-1.3,1.4-2.3,1.3-2.5c0-0.1-0.7-0.2-1.3,0c-0.2,0.1,0.1,0.4-0.2,0.4
				c-1,0.2-1.9-0.3-1.6-0.7c0.3-0.5,1.5-0.2,1.6-1.2c0.1-0.6,0.1-1.2,0.1-1.7c1.3,0.2,1.2-1.7-0.8-2c4,0,7.5,2.7,8.7,6.3
				c-0.1-0.1-0.1-0.1-0.2-0.1c-0.6-1.5-2.1-0.4-1.6,0.9c-2.7,2.1-2,3.5-1.1,4.3c0.5,0.4,0.9,1.1,1.2,1.5c-0.3,0.9,1.1,0.5,1.9-1
				C-179.9,94.3-182.4,96.7-185.7,97.5L-185.7,97.5z M-179.4,86.6c0.1,0.7,0.2,1.3,0.2,2c0-0.5-0.1-1-0.2-1.5
				C-179.4,86.9-179.4,86.8-179.4,86.6L-179.4,86.6z"/>
		</g>
	</g>
</g>
<g>
	<path class="st4" d="M176.8,79.9c0-6.9,5.6-12.6,12.6-12.6c1.6,0,3.1,0.3,4.5,0.8c0-0.2,0-0.3,0-0.5c0-16.8-13.7-30.5-30.5-30.5
		s-30.5,13.7-30.5,30.5s13.7,30.5,30.5,30.5c7.6,0,14.5-2.8,19.8-7.3C179.4,88.7,176.8,84.6,176.8,79.9z"/>
	<path class="st5" d="M173,82.3l5.1-23.9c0.4-2.1-0.8-2.9-2.1-2.4l-29.7,11.5c-2,0.8-2,1.9-0.3,2.4l7.6,2.4l17.7-11.1
		c0.8-0.6,1.6-0.2,1,0.3L158,74.4l-0.6,7.8c0.8,0,1.1-0.3,1.5-0.8l3.7-3.6l7.7,5.7C171.6,84.4,172.6,84,173,82.3L173,82.3z"/>
	<g id="Page-1_9_">
		<g id="flags_9_" transform="translate(-180.000000, -6120.000000)">
			<g id="turkey_4_" transform="translate(180.000000, 6120.000000)">
				<circle id="red_7_" class="st2" cx="189.4" cy="80.1" r="10"/>
				<path id="white_7_" class="st2" d="M194.4,81.1l-0.8,0.8l-0.2-1.1l-1-0.5l1-0.5l0.2-1.1l0.8,0.8l1.1-0.2l-0.5,1l0.5,1
					L194.4,81.1L194.4,81.1z M192.2,82.5c-0.8,1.5-2.5,2.6-4.4,2.6c-2.7,0-5-2.2-5-5c0-2.7,2.2-5,5-5c1.9,0,3.5,1,4.4,2.6
					c-0.7-0.9-1.8-1.5-3-1.5c-2.1,0-3.9,1.7-3.9,3.9c0,2.1,1.7,3.9,3.9,3.9C190.4,84,191.5,83.4,192.2,82.5
					C192.2,82.5,191.5,83.4,192.2,82.5L192.2,82.5z"/>
			</g>
		</g>
	</g>
	
		<text transform="matrix(1 0 0 1 181.3583 83.0271)" class="st5" style="font-family:'FZLTHH_TC--GB1-4-GBpc-EUC-H'; font-size:9.005px;">CN</text>
</g>
<g>
	<path class="st4" d="M34.5,146.2c0-6.9,5.6-12.6,12.6-12.6c1.6,0,3.1,0.3,4.5,0.8c0-0.2,0-0.3,0-0.5c0-16.8-13.7-30.5-30.5-30.5
		s-30.5,13.7-30.5,30.5s13.7,30.5,30.5,30.5c7.6,0,14.5-2.8,19.8-7.3C37,155,34.5,150.9,34.5,146.2z"/>
	<path class="st5" d="M30.7,148.6l5.1-23.9c0.4-2.1-0.8-2.9-2.1-2.4L3.8,133.8c-2,0.8-2,1.9-0.3,2.4l7.6,2.4l17.7-11.1
		c0.8-0.6,1.6-0.2,1,0.3l-14.3,12.9l-0.6,7.8c0.8,0,1.1-0.3,1.5-0.8l3.7-3.6l7.7,5.7C29.3,150.7,30.3,150.3,30.7,148.6L30.7,148.6z"
		/>
	<g id="Page-1_10_">
		<g id="flags_10_" transform="translate(-180.000000, -6120.000000)">
			<g id="turkey_5_" transform="translate(180.000000, 6120.000000)">
				<circle id="red_8_" class="st6" cx="47.1" cy="146.5" r="10"/>
				<path id="white_8_" class="st6" d="M52.1,147.4l-0.8,0.8l-0.2-1.1l-1-0.5l1-0.5l0.2-1.1l0.8,0.8l1.1-0.2l-0.5,1l0.5,1
					L52.1,147.4L52.1,147.4z M49.9,148.9c-0.8,1.5-2.5,2.6-4.4,2.6c-2.7,0-5-2.2-5-5s2.2-5,5-5c1.9,0,3.5,1,4.4,2.6
					c-0.7-0.9-1.8-1.5-3-1.5c-2.1,0-3.9,1.7-3.9,3.9c0,2.1,1.7,3.9,3.9,3.9C48.1,150.3,49.2,149.8,49.9,148.9
					C49.9,148.9,49.2,149.8,49.9,148.9L49.9,148.9z"/>
			</g>
		</g>
	</g>
	
		<text transform="matrix(1 0 0 1 39.0483 149.3803)" class="st5" style="font-family:'FZLTHH_TC--GB1-4-GBpc-EUC-H'; font-size:9.005px;">EN</text>
</g>
<g>
	<g>
		<path class="st4" d="M229.1,150.9c0-6.9,5.6-12.6,12.6-12.6c1.6,0,3.1,0.3,4.5,0.8c0-0.2,0-0.3,0-0.5c0-16.8-13.7-30.5-30.5-30.5
			s-30.5,13.7-30.5,30.5s13.7,30.5,30.5,30.5c7.6,0,14.5-2.8,19.8-7.3C231.7,159.7,229.1,155.6,229.1,150.9z"/>
		<path class="st5" d="M225.3,153.3l5.1-23.9c0.4-2.1-0.8-2.9-2.1-2.4l-29.8,11.5c-2,0.8-2,1.9-0.3,2.4l7.6,2.4l17.7-11.1
			c0.8-0.6,1.6-0.2,1,0.3l-14.4,12.9l-0.6,7.8c0.8,0,1.1-0.3,1.5-0.8l3.7-3.6l7.7,5.7C223.9,155.4,224.9,155,225.3,153.3
			L225.3,153.3z"/>
		<g id="Page-1_1_">
			<g id="flags_1_" transform="translate(-180.000000, -6120.000000)">
				<g id="turkey_3_" transform="translate(180.000000, 6120.000000)">
					<circle id="red_1_" class="st6" cx="241.8" cy="151.1" r="10"/>
					<path id="white_3_" class="st6" d="M246.7,152.1l-0.8,0.8l-0.2-1.1l-1-0.5l1-0.5l0.2-1.1l0.8,0.8l1.1-0.2l-0.5,1l0.5,1
						L246.7,152.1L246.7,152.1z M244.6,153.6c-0.8,1.5-2.5,2.6-4.4,2.6c-2.7,0-5-2.2-5-5c0-2.8,2.2-5,5-5c1.9,0,3.5,1,4.4,2.6
						c-0.7-0.9-1.8-1.5-3-1.5c-2.1,0-3.9,1.7-3.9,3.9c0,2.2,1.7,3.9,3.9,3.9C242.8,155,243.9,154.4,244.6,153.6
						C244.6,153.6,243.9,154.4,244.6,153.6L244.6,153.6z"/>
				</g>
			</g>
		</g>
		
			<text transform="matrix(1 0 0 1 233.7217 154.0986)" class="st5" style="font-family:'FZLTHH_TC--GB1-4-GBpc-EUC-H'; font-size:9.005px;">EN</text>
	</g>
	<g id="Page-1">
		<g id="flags" transform="translate(-1800.000000, -2610.000000)">
			<g id="india" transform="translate(1800.000000, 2610.000000)">
				<path id="green" class="st7" d="M251.2,154.4h-18.9c1.4,3.9,5.1,6.7,9.5,6.7C246.2,161.1,249.8,158.3,251.2,154.4L251.2,154.4
					L251.2,154.4z"/>
				<path id="white" class="st0" d="M232.3,154.4h18.9c0.4-1,0.6-2.2,0.6-3.3c0-1.2-0.2-2.3-0.6-3.3h-18.9c-0.4,1-0.6,2.2-0.6,3.3
					C231.7,152.3,231.9,153.4,232.3,154.4L232.3,154.4L232.3,154.4z"/>
				<path id="orange" class="st8" d="M232.3,147.7h18.9c-1.4-3.9-5.1-6.7-9.5-6.7C237.3,141,233.6,143.8,232.3,147.7L232.3,147.7
					L232.3,147.7z"/>
				<path id="emblem_1_" class="st3" d="M242.2,153.6c0.1,0,0.3-0.1,0.4-0.1l0,0l0,0c0-0.1,0-0.1,0.1-0.1c0.1,0,0.1,0,0.1,0.1l0,0
					c0.1-0.1,0.3-0.1,0.4-0.2l0,0c0,0,0-0.1,0-0.2c0,0,0.1,0,0.2,0c0,0,0,0,0,0.1l0,0c0.1-0.1,0.2-0.2,0.3-0.3l0,0c0,0,0,0-0.1,0
					c-0.1,0-0.1-0.1,0-0.2c0-0.1,0.1-0.1,0.2,0c0,0,0,0,0,0.1c0.1-0.1,0.2-0.3,0.2-0.4h-0.1c-0.1,0-0.1-0.1-0.1-0.1
					c0-0.1,0.1-0.1,0.1-0.1s0,0,0.1,0.1l0,0c0.1-0.2,0.1-0.3,0.1-0.5l0,0H244c-0.1,0-0.1-0.1-0.1-0.1l0.1-0.1h0.1c0-0.1,0-0.2,0-0.2
					c0-0.1,0-0.2,0-0.3c0,0,0,0-0.1,0.1c-0.1,0-0.1,0-0.1-0.1c0-0.1,0-0.1,0.1-0.1h0.1l0,0c0-0.2-0.1-0.3-0.1-0.5l0,0
					c0,0,0,0.1-0.1,0.1c-0.1,0-0.1,0-0.1-0.1c0-0.1,0-0.1,0.1-0.1h0.1c-0.1-0.2-0.2-0.3-0.3-0.4v0.1c0,0-0.1,0-0.2,0
					c0,0,0-0.1,0-0.2h0.1l0,0c-0.1-0.1-0.2-0.3-0.4-0.4l0,0v0.1c0,0.1-0.1,0.1-0.2,0c-0.1,0-0.1-0.1,0-0.2c0,0,0,0,0.1,0
					c-0.1-0.1-0.3-0.2-0.4-0.2v0.1c0,0.1-0.1,0.1-0.1,0.1c-0.1,0-0.1-0.1-0.1-0.1s0,0,0.1-0.1l0,0c-0.2-0.1-0.3-0.1-0.5-0.1l0,0
					c0,0,0,0,0,0.1c0,0.1-0.1,0.1-0.1,0.1c-0.1,0-0.1-0.1-0.1-0.1s0,0,0-0.1c-0.1,0-0.1,0-0.2,0s-0.2,0-0.3,0c0,0,0,0,0,0.1
					c0,0.1,0,0.1-0.1,0.1c-0.1,0-0.1,0-0.1-0.1c0,0,0,0,0-0.1l0,0c-0.2,0-0.3,0.1-0.4,0.1l0,0l0,0c0,0.1,0,0.1-0.1,0.1
					c-0.1,0-0.1,0-0.1-0.1l0,0c-0.1,0.1-0.3,0.1-0.4,0.2l0,0c0,0,0,0.1,0,0.2c0,0-0.1,0-0.2,0l0,0l0,0c-0.1,0.1-0.2,0.2-0.3,0.3l0,0
					l0,0c0.1,0,0.1,0.1,0,0.2c0,0.1-0.1,0.1-0.2,0l0,0c-0.1,0.1-0.1,0.2-0.2,0.4l0,0c0.1,0,0.1,0.1,0.1,0.1c0.2-0.2,0.1-0.2,0.1-0.2
					l0,0l0,0c0,0.1-0.1,0.3-0.1,0.4l0,0l0,0c0.1,0,0.1,0.1,0.1,0.1c0,0.1-0.1,0.1-0.1,0.1l0,0c0,0.1,0,0.1,0,0.2c0,0.1,0,0.2,0,0.3
					l0,0c0.1,0,0.1,0,0.1,0.1c0,0.1,0,0.1-0.1,0.1l0,0l0,0c0,0.1,0.1,0.3,0.1,0.4l0,0l0,0c0.1,0,0.1,0,0.1,0.1c0,0.1,0,0.1-0.1,0.1
					l0,0c0.1,0.1,0.1,0.2,0.2,0.4l0,0c0,0,0.1,0,0.2,0c0,0,0,0.1,0,0.2l0,0l0,0c0.1,0.1,0.2,0.2,0.3,0.3l0,0l0,0
					c0-0.1,0.1-0.1,0.2,0c0.1,0,0.1,0.1,0,0.2l0,0c0.1,0.1,0.2,0.2,0.4,0.2l0,0c0-0.1,0.1-0.1,0.1-0.1l0.1,0.1l0,0l0,0
					c0.1,0,0.3,0.1,0.4,0.1l0,0l0,0c0-0.1,0.1-0.1,0.1-0.1c0.1,0,0.1,0.1,0.1,0.1l0,0c0.1,0,0.2,0,0.2,0s-1.4,0,0,0
					c0.1,0,0.1,0,0.2,0l0,0c0-0.1,0-0.1,0.1-0.1C242.2,153.5,242.2,153.6,242.2,153.6L242.2,153.6L242.2,153.6z M241.9,151.6h0.1
					l0,0l0.3,0.6l0.7,1.1l-0.6-1.2l-0.4-0.5c0,0,0.1,0,0.1-0.1l0.4,0.5l1,0.9l-0.9-1l-0.5-0.4l0,0l0.1-0.1l0,0l0.5,0.4l1.2,0.6
					l-1.1-0.7l-0.6-0.3v-0.1l0.6,0.2l1.3,0.3l-1.2-0.4l-0.6-0.1l0,0v-0.1l0,0l0,0l0.6,0.1l1.4-0.1l-1.4-0.1l-0.6,0.1v-0.1l0.6-0.1
					l1.3-0.4l-1.3,0.3l-0.6,0.2V151l0,0l0.6-0.3l1.1-0.7l-1.2,0.6l-0.5,0.4c0,0,0-0.1-0.1-0.1l0.5-0.4l0.9-1l-1.1,0.9l-0.4,0.5l0,0
					l-0.1-0.1l0,0l0.4-0.5l0.6-1.2l-0.7,1.1l-0.3,0.6c-0.1,0-0.1-0.1-0.2-0.1c-0.1,0-0.2,0-0.2,0.1l-0.4-0.5l-0.6-1.2l0.7,1.1
					l0.3,0.6l0,0c0,0-0.1,0-0.1,0.1l0,0l-0.4-0.5l-1-0.9l0.9,1l0.5,0.4l-0.1,0.1l-0.5-0.4l-1.2-0.6l1.1,0.7l0.6,0.3l0,0v0.1l0,0
					l-0.6-0.2l-1.3-0.3l1.3,0.4l0.6,0.1v0.1l-0.6-0.1l-1.4,0.1l1.4,0.1l0.6-0.1l0,0l0,0v0.1l0,0l-0.7,0.1l-1.3,0.4l1.3-0.3l0.6-0.2
					v0.1l-0.6,0.3l-1,0.7l1.2-0.6l0.5-0.4l0,0c0,0,0,0.1,0.1,0.1l0,0l-0.5,0.4l-0.9,1l1-0.9l0.4-0.5l0.1,0.1l-0.4,0.5l-0.6,1.2
					l0.7-1.1l0.3-0.6l0,0h0.1l0,0l-0.2,0.6l-0.3,1.3l0.4-1.3l0.1-0.6h0.1l0,0c0,0-0.2,0,0,0l0,0l0.1,0.6l-0.1,1.4l-0.1-1.4l0.1-0.6
					l0,0C241.8,151.7,241.9,151.6,241.9,151.6l0.1,0.6l0.4,1.3l-0.3-1.3L241.9,151.6L241.9,151.6z M241.8,153.9
					c1.5,0,2.8-1.2,2.8-2.8c0-1.6-1.2-2.7-2.8-2.7c-1.6,0-2.8,1.2-2.8,2.8C239,152.8,240.3,153.9,241.8,153.9
					C241.8,153.9,240.3,153.9,241.8,153.9L241.8,153.9z M241.1,148.8l0.3,1.3l0.2,0.6l-0.1-0.6L241.1,148.8L241.1,148.8z
					 M241.8,148.7l-0.1,1.4l0.1,0.6l0.1-0.6L241.8,148.7L241.8,148.7z M242.4,148.8l-0.4,1.3l-0.1,0.6l0.2-0.6L242.4,148.8
					L242.4,148.8z"/>
			</g>
		</g>
	</g>
</g>
<g id="Page-1_2_">
	<g id="flags_2_" transform="translate(-1530.000000, -2880.000000)">
		<g id="japan" transform="translate(1530.000000, 2880.000000)">
			<circle id="white_6_" class="st0" cx="239.2" cy="9.2" r="10.1"/>
			<circle id="red" class="st9" cx="239.2" cy="9.2" r="5"/>
		</g>
	</g>
</g>
<g>
	<path class="st4" d="M44.6,43.5c0-6.9,5.6-12.6,12.6-12.6c1.6,0,3.1,0.3,4.5,0.8c0-0.2,0-0.3,0-0.5C61.7,14.5,48,0.8,31.2,0.8
		S0.7,14.5,0.7,31.2s13.7,30.5,30.5,30.5c7.6,0,14.5-2.8,19.8-7.3C47.2,52.5,44.6,48.3,44.6,43.5z"/>
	<path class="st5" d="M40.8,46l5.1-23.9c0.4-2.1-0.8-2.9-2.1-2.4L14,31.2c-2,0.8-2,1.9-0.3,2.4l7.6,2.4L39,25c0.8-0.6,1.6-0.2,1,0.3
		L25.6,38.2L25,46c0.8,0,1.1-0.3,1.5-0.8l3.7-3.6l7.7,5.7C39.4,48.2,40.4,47.8,40.8,46L40.8,46z"/>
	<g id="Page-1_5_">
		<g id="flags_5_" transform="translate(-1530.000000, -2880.000000)">
			<g id="japan_1_" transform="translate(1530.000000, 2880.000000)">
				<circle id="white_9_" class="st0" cx="57.2" cy="43.9" r="10.1"/>
				<circle id="red_2_" class="st9" cx="57.2" cy="43.9" r="5"/>
			</g>
		</g>
	</g>
</g>
</svg>
