<?xml version="1.0" encoding="utf-8"?>
<!-- Generator: Adobe Illustrator 24.0.0, SVG Export Plug-In . SVG Version: 6.00 Build 0)  -->
<svg version="1.1" id="图层_1" xmlns="http://www.w3.org/2000/svg" xmlns:xlink="http://www.w3.org/1999/xlink" x="0px" y="0px"
	 viewBox="0 0 136 44" style="enable-background:new 0 0 136 44;" xml:space="preserve">
<style type="text/css">
	.st0{fill:#1E8BCA;}
	.st1{opacity:0.4;fill:#FFFFFF;}
	.st2{fill:#FFFFFF;}
	.st3{fill-rule:evenodd;clip-rule:evenodd;fill:#DB4B35;}
	.st4{fill-rule:evenodd;clip-rule:evenodd;fill:#129B7F;}
	.st5{fill-rule:evenodd;clip-rule:evenodd;fill:#FFFFFF;}
	.st6{fill-rule:evenodd;clip-rule:evenodd;fill:#040000;}
	.st7{fill-rule:evenodd;clip-rule:evenodd;fill:#2479AE;}
	.st8{fill-rule:evenodd;clip-rule:evenodd;fill:#1AAF5D;}
	.st9{fill:#1AAF5D;}
	.st10{fill:#1F64C9;}
	.st11{fill-rule:evenodd;clip-rule:evenodd;fill:#E87E04;}
	.st12{fill-rule:evenodd;clip-rule:evenodd;fill:#227FBB;}
	.st13{fill:#DB4B35;}
</style>
<rect class="st0" width="136" height="44"/>
<path class="st1" d="M125.5,39l3.5-16.6c0.3-1.5-0.5-2-1.5-1.7l-20.6,8c-1.4,0.5-1.4,1.3-0.2,1.7l5.3,1.6l12.3-7.7
	c0.6-0.4,1.1-0.2,0.7,0.2l-9.9,9l-0.4,5.4c0.5,0,0.8-0.2,1.1-0.5l2.6-2.5l5.4,3.9C124.5,40.5,125.2,40.2,125.5,39L125.5,39z"/>
<g>
	<g id="Page-1_2_">
		<g id="flags_2_" transform="translate(-180.000000, -6120.000000)">
			<g id="turkey_6_" transform="translate(180.000000, 6120.000000)">
				<circle id="red_2_" class="st3" cx="22.1" cy="22" r="15.2"/>
				<path id="white_6_" class="st5" d="M29.7,23.4l-1.2,1.2L28.3,23l-1.5-0.7l1.5-0.7l0.2-1.7l1.2,1.2l1.7-0.3l-0.8,1.5l0.8,1.5
					L29.7,23.4L29.7,23.4z M26.4,25.7c-1.3,2.3-3.8,3.9-6.6,3.9c-4.2,0-7.6-3.4-7.6-7.6s3.4-7.6,7.6-7.6c2.9,0,5.3,1.6,6.6,3.9
					c-1.1-1.4-2.7-2.2-4.6-2.2c-3.3,0-5.9,2.6-5.9,5.9s2.6,5.9,5.9,5.9C23.7,27.9,25.3,27,26.4,25.7C26.4,25.7,25.3,27,26.4,25.7
					L26.4,25.7z"/>
			</g>
		</g>
	</g>
	<g>
		<path class="st2" d="M46.8,24.2v0.8c-0.2,0-0.4,0.1-0.7,0.1c-1.4,0-1.9-0.3-1.9-2v-3.5h-0.9v-0.8h0.9v-1.5h1v1.5h1.5v0.8h-1.5v3.4
			c0,1,0.1,1.2,0.9,1.2C46.4,24.3,46.6,24.3,46.8,24.2z"/>
		<path class="st2" d="M52.1,18.9v6.2h-0.8l-0.1-0.9c-0.4,0.8-1.2,1-1.9,1c-1.6,0-2.1-0.8-2.1-2v-4.3h1v3.9c0,0.9,0.2,1.5,1.2,1.5
			c0.8,0,1.5-0.2,1.8-1.2v-4.2H52.1z M48,17.2c0-0.5,0.2-0.6,0.6-0.6c0.4,0,0.6,0.1,0.6,0.6c0,0.5-0.2,0.6-0.6,0.6
			C48.2,17.8,48,17.7,48,17.2z M50,17.2c0-0.5,0.2-0.6,0.6-0.6c0.4,0,0.6,0.1,0.6,0.6c0,0.5-0.2,0.6-0.6,0.6
			C50.2,17.8,50,17.7,50,17.2z"/>
		<path class="st2" d="M56.3,18.8l0,0.9h-0.1c-0.8,0-1.6,0.3-1.9,1.4v4h-1v-6.2h1V20c0.4-1,1.2-1.2,2-1.2H56.3z"/>
		<path class="st2" d="M61.5,25.1h-1.3L58,22.2h-0.3v2.9h-1v-8.7h1v5H58l2.1-2.5h1.2l-2.6,2.9L61.5,25.1z"/>
		<path class="st2" d="M66.3,24.2v0.8c-0.2,0-0.4,0.1-0.7,0.1c-1.4,0-1.9-0.3-1.9-2v-3.5h-0.9v-0.8h0.9v-1.5h1v1.5h1.5v0.8h-1.5v3.4
			c0,1,0.1,1.2,0.9,1.2C65.9,24.3,66.1,24.3,66.3,24.2z"/>
		<path class="st2" d="M66.3,22c0-2.5,1-3.2,2.9-3.2c1.8,0,2.8,0.7,2.8,3.2s-1,3.2-2.8,3.2C67.3,25.2,66.3,24.4,66.3,22z M70.9,22
			c0-1.8-0.5-2.4-1.8-2.4c-1.4,0-1.8,0.6-1.8,2.4c0,1.8,0.5,2.4,1.8,2.4C70.5,24.4,70.9,23.8,70.9,22z"/>
		<path class="st2" d="M78.3,22c0,1.7-0.5,3.2-2.6,3.2c-1.2,0-1.7-0.5-2-1.2v3.4h-1v-8.5h1V20c0.3-0.7,0.8-1.2,2-1.2
			C77.8,18.8,78.3,20.1,78.3,22z M77.3,22c0-1.3-0.2-2.4-1.6-2.4c-1.5,0-1.9,0.9-1.9,2.4c0,1.4,0.4,2.4,1.9,2.4
			C77.1,24.4,77.3,23.2,77.3,22z"/>
		<path class="st2" d="M79.1,23.8v-7.4h1v7.2c0,0.6,0.2,0.7,0.6,0.7c0.1,0,0.3,0,0.5-0.1v0.8c-0.2,0-0.4,0.1-0.7,0.1
			C79.6,25.1,79.1,24.8,79.1,23.8z"/>
		<path class="st2" d="M86.4,18.9v6.2h-0.8l-0.1-0.9c-0.4,0.8-1.2,1-1.9,1c-1.6,0-2.1-0.8-2.1-2v-4.3h1v3.9c0,0.9,0.2,1.5,1.2,1.5
			c0.8,0,1.5-0.2,1.8-1.2v-4.2H86.4z"/>
		<path class="st2" d="M87.6,23.8v-7.4h1v7.2c0,0.6,0.2,0.7,0.6,0.7c0.1,0,0.3,0,0.5-0.1v0.8c-0.2,0-0.4,0.1-0.7,0.1
			C88,25.1,87.6,24.8,87.6,23.8z"/>
		<path class="st2" d="M94.8,18.9v6.2H94l-0.1-0.9c-0.4,0.8-1.2,1-1.9,1c-1.6,0-2.1-0.8-2.1-2v-4.3h1v3.9c0,0.9,0.2,1.5,1.2,1.5
			c0.8,0,1.5-0.2,1.8-1.2v-4.2H94.8z"/>
		<path class="st2" d="M101.2,18.9v5.7c0,1.7-0.9,2.7-3,2.7c-0.5,0-1.1-0.1-1.5-0.1v-0.8c0.5,0.1,1,0.1,1.5,0.1c1.4,0,2-0.6,2-2
			v-0.6c-0.3,0.7-0.8,1.2-2,1.2c-2.1,0-2.6-1.3-2.6-3.1c0-1.7,0.5-3.1,2.6-3.1c1.2,0,1.8,0.5,2,1.3v-1.2H101.2z M96.4,16.7h0.8
			c0.1,0.5,0.5,0.8,1,0.8c0.5,0,0.9-0.3,1-0.8h0.8c-0.2,1-0.8,1.6-1.8,1.6S96.6,17.7,96.4,16.7z M100.2,21.9c0-1.4-0.4-2.3-1.9-2.3
			c-1.5,0-1.6,1.1-1.6,2.3c0,1.3,0.2,2.3,1.6,2.3C99.8,24.2,100.2,23.4,100.2,21.9z"/>
		<path class="st2" d="M107.3,18.9v6.2h-0.8l-0.1-0.9c-0.4,0.8-1.2,1-1.9,1c-1.6,0-2.1-0.8-2.1-2v-4.3h1v3.9c0,0.9,0.2,1.5,1.2,1.5
			c0.8,0,1.5-0.2,1.8-1.2v-4.2H107.3z"/>
	</g>
</g>
</svg>
