<?xml version="1.0" encoding="utf-8"?>
<!-- Generator: Adobe Illustrator 24.0.0, SVG Export Plug-In . SVG Version: 6.00 Build 0)  -->
<svg version="1.1" id="图层_1" xmlns="http://www.w3.org/2000/svg" xmlns:xlink="http://www.w3.org/1999/xlink" x="0px" y="0px"
	 viewBox="0 0 136 44" style="enable-background:new 0 0 136 44;" xml:space="preserve">
<style type="text/css">
	.st0{fill:#1E8BCA;}
	.st1{opacity:0.4;fill:#FFFFFF;}
	.st2{fill:#FFFFFF;}
	.st3{fill-rule:evenodd;clip-rule:evenodd;fill:#DB4B35;}
	.st4{fill-rule:evenodd;clip-rule:evenodd;fill:#129B7F;}
	.st5{fill-rule:evenodd;clip-rule:evenodd;fill:#FFFFFF;}
	.st6{fill-rule:evenodd;clip-rule:evenodd;fill:#040000;}
	.st7{fill-rule:evenodd;clip-rule:evenodd;fill:#2479AE;}
	.st8{fill-rule:evenodd;clip-rule:evenodd;fill:#1AAF5D;}
	.st9{fill:#1AAF5D;}
	.st10{fill:#1F64C9;}
	.st11{fill-rule:evenodd;clip-rule:evenodd;fill:#E87E04;}
	.st12{fill-rule:evenodd;clip-rule:evenodd;fill:#227FBB;}
	.st13{fill:#DB4B35;}
</style>
<rect class="st0" width="136" height="44"/>
<path class="st1" d="M125.5,39l3.5-16.6c0.3-1.5-0.5-2-1.5-1.7l-20.6,8c-1.4,0.5-1.4,1.3-0.2,1.7l5.3,1.6l12.3-7.7
	c0.6-0.4,1.1-0.2,0.7,0.2l-9.9,9l-0.4,5.4c0.5,0,0.8-0.2,1.1-0.5l2.6-2.5l5.4,3.9C124.5,40.5,125.2,40.2,125.5,39L125.5,39z"/>
<g>
	<g>
		<path class="st2" d="M43.2,22.3c0-3.7,1.7-4.9,4.6-4.9c0.9,0,1.9,0.1,2.5,0.4v1.1c-0.6-0.2-1.5-0.4-2.4-0.4
			c-2.1,0-3.4,0.7-3.4,3.8c0,3.2,1.2,3.8,3.3,3.8c0.4,0,1.1-0.1,1.6-0.2V23h-1.9v-1h3.1v4.8c-0.7,0.2-1.7,0.4-2.9,0.4
			C44.9,27.2,43.2,26.3,43.2,22.3z"/>
		<path class="st2" d="M51.8,25.6v-8.9h1.2v8.6c0,0.7,0.2,0.9,0.7,0.9c0.2,0,0.4,0,0.6-0.1v1c-0.2,0.1-0.5,0.1-0.8,0.1
			C52.3,27.2,51.8,26.7,51.8,25.6z"/>
		<path class="st2" d="M54.2,23.4c0-2.9,1.2-3.8,3.4-3.8c2.2,0,3.4,0.9,3.4,3.8c0,2.9-1.2,3.8-3.4,3.8
			C55.4,27.2,54.2,26.3,54.2,23.4z M59.8,23.4c0-2.2-0.5-2.9-2.2-2.9c-1.7,0-2.2,0.7-2.2,2.9c0,2.2,0.6,2.8,2.2,2.8
			C59.3,26.2,59.8,25.5,59.8,23.4z"/>
		<path class="st2" d="M68.6,23.4c0,2-0.6,3.8-3.1,3.8c-1.4,0-2.1-0.6-2.4-1.4L63,27.1h-1V16.6h1.2V21c0.3-0.9,1-1.5,2.4-1.5
			C68,19.5,68.6,21.1,68.6,23.4z M67.4,23.4c0-1.5-0.3-2.9-2-2.9c-1.8,0-2.3,1.1-2.3,2.9c0,1.7,0.5,2.8,2.3,2.8
			C67.2,26.2,67.4,24.8,67.4,23.4z"/>
		<path class="st2" d="M75.5,21.8v5.3h-1l-0.2-1.1c-0.4,0.8-1.5,1.3-2.6,1.3c-1.8,0-2.6-0.8-2.6-2.2c0-1.8,1.2-2.4,2.9-2.4h2.3V22
			c0-0.9-0.3-1.5-1.8-1.5c-0.5,0-1.1,0.1-1.6,0.2v-1c0.5-0.1,1.2-0.1,1.7-0.1C74.8,19.5,75.5,20.5,75.5,21.8z M74.3,24.8v-1.2h-2.2
			c-1.2,0-1.8,0.2-1.8,1.4c0,0.8,0.4,1.2,1.4,1.2C73,26.2,73.9,25.7,74.3,24.8z"/>
		<path class="st2" d="M76.9,25.6v-8.9h1.2v8.6c0,0.7,0.2,0.9,0.7,0.9c0.2,0,0.4,0,0.6-0.1v1c-0.2,0.1-0.5,0.1-0.8,0.1
			C77.4,27.2,76.9,26.7,76.9,25.6z"/>
		<path class="st2" d="M81.9,22.3c0-3.7,1.7-4.9,4.5-4.9c0.9,0,1.5,0.1,2.1,0.3v1.1c-0.5-0.2-1.2-0.3-2-0.3c-2.2,0-3.2,0.9-3.2,3.8
			c0,3,1,3.8,3.1,3.8c0.9,0,1.5-0.1,2.3-0.4v1.1c-0.5,0.2-1.3,0.4-2.3,0.4C83.6,27.2,81.9,26.3,81.9,22.3z"/>
		<path class="st2" d="M95.3,21.9v5.1h-1.2v-4.7c0-1.1-0.2-1.8-1.4-1.8c-0.9,0-1.8,0.2-2.2,1.5v5h-1.2V16.6h1.2v4.1
			c0.5-0.9,1.5-1.2,2.4-1.2C94.7,19.5,95.3,20.5,95.3,21.9z"/>
		<path class="st2" d="M102.5,21.8v5.3h-1l-0.2-1.1c-0.4,0.8-1.5,1.3-2.6,1.3c-1.8,0-2.6-0.8-2.6-2.2c0-1.8,1.2-2.4,2.9-2.4h2.3V22
			c0-0.9-0.3-1.5-1.8-1.5c-0.5,0-1.1,0.1-1.6,0.2v-1c0.5-0.1,1.2-0.1,1.7-0.1C101.9,19.5,102.5,20.5,102.5,21.8z M101.3,24.8v-1.2
			h-2.2c-1.2,0-1.8,0.2-1.8,1.4c0,0.8,0.4,1.2,1.4,1.2C100,26.2,100.9,25.7,101.3,24.8z"/>
		<path class="st2" d="M109.9,21.9v5.1h-1.2v-4.7c0-1.1-0.2-1.8-1.4-1.8c-0.9,0-1.8,0.2-2.2,1.5v5h-1.2v-7.4h1.2v1.1
			c0.5-0.9,1.5-1.2,2.4-1.2C109.4,19.5,109.9,20.5,109.9,21.9z"/>
		<path class="st2" d="M117.3,21.9v5.1h-1.2v-4.7c0-1.1-0.2-1.8-1.4-1.8c-0.9,0-1.8,0.2-2.2,1.5v5h-1.2v-7.4h1.2v1.1
			c0.5-0.9,1.5-1.2,2.4-1.2C116.8,19.5,117.3,20.5,117.3,21.9z"/>
		<path class="st2" d="M124.5,23.5l-5,0.3c0,1.6,0.6,2.4,2.4,2.4c0.8,0,1.8-0.2,2.3-0.5v1.1c-0.4,0.2-1.4,0.4-2.5,0.4
			c-2.2,0-3.4-0.9-3.4-3.8c0-2.9,1.2-3.8,3.4-3.8c2.5,0,3,1.7,3,3.1C124.6,22.8,124.5,23.1,124.5,23.5z M123.4,22.6
			c0-1.1-0.2-2.1-1.8-2.1c-1.7,0-2.1,0.9-2.1,2.4L123.4,22.6z"/>
		<path class="st2" d="M125.5,25.6v-8.9h1.2v8.6c0,0.7,0.2,0.9,0.7,0.9c0.2,0,0.4,0,0.6-0.1v1c-0.2,0.1-0.5,0.1-0.8,0.1
			C126,27.2,125.5,26.7,125.5,25.6z"/>
	</g>
	<g>
		<g id="Page-1_7_">
			<g id="flags_7_" transform="translate(-180.000000, -6120.000000)">
				<g id="turkey_2_" transform="translate(180.000000, 6120.000000)">
					<circle id="red_5_" class="st5" cx="21.9" cy="21.8" r="14.9"/>
					<path id="white_5_" class="st5" d="M29.2,23.2l-1.1,1.2l-0.2-1.6L26.4,22l1.5-0.7l0.2-1.6l1.1,1.2l1.6-0.3L30.1,22l0.8,1.5
						L29.2,23.2L29.2,23.2z M26,25.4c-1.3,2.3-3.7,3.8-6.5,3.8c-4.1,0-7.4-3.3-7.4-7.4s3.3-7.4,7.4-7.4c2.8,0,5.2,1.5,6.5,3.8
						C25,16.8,23.4,16,21.5,16c-3.2,0-5.8,2.6-5.8,5.8s2.6,5.8,5.8,5.8C23.4,27.5,25,26.7,26,25.4C26,25.4,25,26.7,26,25.4L26,25.4z
						"/>
				</g>
			</g>
		</g>
		<g>
			<g>
				<path class="st9" d="M22.1,6.7c-8.4,0-15.2,6.8-15.2,15.2c0,7.8,5.8,14.2,13.3,15.1c0.4,0.1,0.9,0.1,1.6,0.1c0.2,0,0.3,0,0.5,0
					c8.3-0.1,15.1-6.9,15.1-15.2C37.4,13.5,30.6,6.7,22.1,6.7L22.1,6.7z M19.7,35.8C13.2,34.6,8.2,28.9,8.2,22c0-1,0.1-2,0.3-2.9
					c0.6,0.6,2,0.6,2.4-0.3c0.6,0.4,1.5,0.4,1.5,1.2c0,2.4,0.1,5.1,2.3,5.1c0.1,0,1.2,0.4,1.8,1.9c0.2,0.5,1,0,1.8,0
					c0.4,0,0,0.7,0,2.2c0,1.5,3.3,3.9,3.3,3.9c0,1,0,1.8,0.1,2.5C20.8,35.5,20.2,35.6,19.7,35.8L19.7,35.8z M25.6,35.5
					c-0.1-0.4-0.4-0.5-1-0.4c0.5-2,0.7-3.1,1.6-3.9c1.4-1.2,0.2-2.6-0.9-2.4c-0.8,0.1-0.3-1-1.1-1.1c-0.7-0.1-1.7-1.5-2.8-2.1
					c-0.6-0.3-1.1-1-2-1c-0.8,0-1.9,0.7-1.9,0.1c0-1.7-0.2-2.9-0.2-3.4c0-0.4-0.3-0.1,0.8-0.1c0.6,0,0.3-1.1,0.9-1.2
					c0.6,0,1.9,0.5,2.2,0.3c0.3-0.2,2.3,5.2,2.3,0.9c0-0.5-0.3-1.4,0-1.9c1.1-1.9,2-3.5,1.9-3.7c-0.1-0.1-1.1-0.2-1.9,0
					c-0.3,0.1,0.1,0.5-0.3,0.6c-1.5,0.3-2.8-0.4-2.3-1.1c0.5-0.7,2.2-0.3,2.3-1.8c0.1-0.8,0.2-1.8,0.2-2.5c2,0.3,1.8-2.6-1.2-2.9
					c6,0.1,11.2,4,13,9.4c-0.1-0.1-0.2-0.1-0.3-0.2c-0.9-2.3-3.1-0.6-2.3,1.4c-4,3.1-3,5.2-1.7,6.4c0.7,0.6,1.3,1.6,1.8,2.3
					c-0.5,1.4,1.7,0.8,2.8-1.5C34.2,30.6,30.4,34.2,25.6,35.5L25.6,35.5z M34.9,19.2c0.2,1,0.3,2,0.3,3c0-0.7-0.1-1.5-0.3-2.2
					C34.9,19.7,34.9,19.4,34.9,19.2L34.9,19.2z M34.9,19.2"/>
			</g>
		</g>
	</g>
</g>
</svg>
