<?xml version="1.0" encoding="utf-8"?>
<!-- Generator: Adobe Illustrator 24.0.0, SVG Export Plug-In . SVG Version: 6.00 Build 0)  -->
<svg version="1.1" id="图层_1" xmlns="http://www.w3.org/2000/svg" xmlns:xlink="http://www.w3.org/1999/xlink" x="0px" y="0px"
	 viewBox="0 0 136 44" style="enable-background:new 0 0 136 44;" xml:space="preserve">
<style type="text/css">
	.st0{fill:#1E8BCA;}
	.st1{opacity:0.4;fill:#FFFFFF;}
	.st2{fill:#FFFFFF;}
	.st3{fill-rule:evenodd;clip-rule:evenodd;fill:#DB4B35;}
	.st4{fill-rule:evenodd;clip-rule:evenodd;fill:#129B7F;}
	.st5{fill-rule:evenodd;clip-rule:evenodd;fill:#FFFFFF;}
	.st6{fill-rule:evenodd;clip-rule:evenodd;fill:#040000;}
	.st7{fill-rule:evenodd;clip-rule:evenodd;fill:#2479AE;}
	.st8{fill-rule:evenodd;clip-rule:evenodd;fill:#1AAF5D;}
	.st9{fill:#1F64C9;}
	.st10{fill-rule:evenodd;clip-rule:evenodd;fill:#E87E04;}
	.st11{fill-rule:evenodd;clip-rule:evenodd;fill:#227FBB;}
	.st12{fill:#DB4B35;}
</style>
<rect class="st0" width="136" height="44"/>
<path class="st1" d="M125.5,39l3.5-16.6c0.3-1.5-0.5-2-1.5-1.7l-20.6,8c-1.4,0.5-1.4,1.3-0.2,1.7l5.3,1.6l12.3-7.7
	c0.6-0.4,1.1-0.2,0.7,0.2l-9.9,9l-0.4,5.4c0.5,0,0.8-0.2,1.1-0.5l2.6-2.5l5.4,3.9C124.5,40.5,125.2,40.2,125.5,39L125.5,39z"/>
<g>
	<g>
		<g id="Page-1_7_">
			<g id="flags_7_" transform="translate(-180.000000, -6120.000000)">
				<g id="turkey_2_" transform="translate(180.000000, 6120.000000)">
					<circle id="red_5_" class="st5" cx="21.9" cy="21.8" r="14.9"/>
					<path id="white_5_" class="st5" d="M29.2,23.2l-1.1,1.2l-0.2-1.6L26.4,22l1.5-0.7l0.2-1.6l1.1,1.2l1.6-0.3L30.1,22l0.8,1.5
						L29.2,23.2L29.2,23.2z M26,25.4c-1.3,2.3-3.7,3.8-6.5,3.8c-4.1,0-7.4-3.3-7.4-7.4s3.3-7.4,7.4-7.4c2.8,0,5.2,1.5,6.5,3.8
						C25,16.8,23.4,16,21.5,16c-3.2,0-5.8,2.6-5.8,5.8s2.6,5.8,5.8,5.8C23.4,27.5,25,26.7,26,25.4C26,25.4,25,26.7,26,25.4L26,25.4z
						"/>
				</g>
			</g>
		</g>
		<g>
			<g>
				<path class="st9" d="M22.1,6.7c-8.4,0-15.2,6.8-15.2,15.2c0,7.8,5.8,14.2,13.3,15.1c0.4,0.1,0.9,0.1,1.6,0.1c0.2,0,0.3,0,0.5,0
					c8.3-0.1,15.1-6.9,15.1-15.2C37.4,13.5,30.6,6.7,22.1,6.7L22.1,6.7z M19.7,35.8C13.2,34.6,8.2,28.9,8.2,22c0-1,0.1-2,0.3-2.9
					c0.6,0.6,2,0.6,2.4-0.3c0.6,0.4,1.5,0.4,1.5,1.2c0,2.4,0.1,5.1,2.3,5.1c0.1,0,1.2,0.4,1.8,1.9c0.2,0.5,1,0,1.8,0
					c0.4,0,0,0.7,0,2.2c0,1.5,3.3,3.9,3.3,3.9c0,1,0,1.8,0.1,2.5C20.8,35.5,20.2,35.6,19.7,35.8L19.7,35.8z M25.6,35.5
					c-0.1-0.4-0.4-0.5-1-0.4c0.5-2,0.7-3.1,1.6-3.9c1.4-1.2,0.2-2.6-0.9-2.4c-0.8,0.1-0.3-1-1.1-1.1c-0.7-0.1-1.7-1.5-2.8-2.1
					c-0.6-0.3-1.1-1-2-1c-0.8,0-1.9,0.7-1.9,0.1c0-1.7-0.2-2.9-0.2-3.4c0-0.4-0.3-0.1,0.8-0.1c0.6,0,0.3-1.1,0.9-1.2
					c0.6,0,1.9,0.5,2.2,0.3c0.3-0.2,2.3,5.2,2.3,0.9c0-0.5-0.3-1.4,0-1.9c1.1-1.9,2-3.5,1.9-3.7c-0.1-0.1-1.1-0.2-1.9,0
					c-0.3,0.1,0.1,0.5-0.3,0.6c-1.5,0.3-2.8-0.4-2.3-1.1c0.5-0.7,2.2-0.3,2.3-1.8c0.1-0.8,0.2-1.8,0.2-2.5c2,0.3,1.8-2.6-1.2-2.9
					c6,0.1,11.2,4,13,9.4c-0.1-0.1-0.2-0.1-0.3-0.2c-0.9-2.3-3.1-0.6-2.3,1.4c-4,3.1-3,5.2-1.7,6.4c0.7,0.6,1.3,1.6,1.8,2.3
					c-0.5,1.4,1.7,0.8,2.8-1.5C34.2,30.6,30.4,34.2,25.6,35.5L25.6,35.5z M34.9,19.2c0.2,1,0.3,2,0.3,3c0-0.7-0.1-1.5-0.3-2.2
					C34.9,19.7,34.9,19.4,34.9,19.2L34.9,19.2z M34.9,19.2"/>
			</g>
		</g>
	</g>
	<g>
		<path class="st2" d="M43.4,21.2c0-3.1,1.4-4.1,3.8-4.1c0.7,0,1.6,0.1,2.1,0.3v0.9c-0.5-0.2-1.2-0.3-2-0.3c-1.8,0-2.8,0.6-2.8,3.2
			c0,2.7,1,3.2,2.8,3.2c0.4,0,0.9,0,1.3-0.1v-2.5h-1.6v-0.9h2.6v4c-0.6,0.2-1.4,0.3-2.4,0.3C44.8,25.3,43.4,24.5,43.4,21.2z"/>
		<path class="st2" d="M50.5,24v-7.5h1v7.2c0,0.6,0.2,0.7,0.6,0.7c0.1,0,0.3,0,0.5-0.1v0.8c-0.2,0-0.4,0.1-0.7,0.1
			C51,25.3,50.5,24.9,50.5,24z"/>
		<path class="st2" d="M52.5,22.1c0-2.5,1-3.2,2.9-3.2c1.8,0,2.8,0.7,2.8,3.2c0,2.5-1,3.2-2.8,3.2C53.6,25.3,52.5,24.6,52.5,22.1z
			 M57.2,22.1c0-1.8-0.5-2.4-1.8-2.4c-1.4,0-1.8,0.6-1.8,2.4c0,1.8,0.5,2.4,1.8,2.4C56.8,24.5,57.2,23.9,57.2,22.1z"/>
		<path class="st2" d="M64.6,22.1c0,1.7-0.5,3.2-2.6,3.2c-1.2,0-1.8-0.5-2-1.2l-0.1,1.1h-0.9v-8.7h1v3.6c0.3-0.7,0.8-1.2,2-1.2
			C64.1,18.9,64.6,20.2,64.6,22.1z M63.6,22.1c0-1.3-0.2-2.4-1.6-2.4c-1.5,0-1.9,0.9-1.9,2.4c0,1.4,0.4,2.4,1.9,2.4
			C63.4,24.5,63.6,23.3,63.6,22.1z"/>
		<path class="st2" d="M70.3,20.8v4.4h-0.8l-0.1-0.9c-0.4,0.7-1.3,1.1-2.2,1.1c-1.5,0-2.1-0.7-2.1-1.8c0-1.5,1-2,2.4-2h1.9V21
			c0-0.7-0.3-1.3-1.5-1.3c-0.4,0-0.9,0-1.4,0.1V19c0.5-0.1,1-0.1,1.4-0.1C69.8,18.9,70.3,19.7,70.3,20.8z M69.3,23.3v-1h-1.8
			c-1,0-1.5,0.2-1.5,1.2c0,0.7,0.3,1,1.2,1C68.2,24.5,69,24,69.3,23.3z"/>
		<path class="st2" d="M71.5,24v-7.5h1v7.2c0,0.6,0.2,0.7,0.6,0.7c0.1,0,0.3,0,0.5-0.1v0.8c-0.2,0-0.4,0.1-0.7,0.1
			C72,25.3,71.5,24.9,71.5,24z"/>
		<path class="st2" d="M75.7,21.2c0-3.1,1.4-4.1,3.8-4.1c0.7,0,1.6,0.1,2.1,0.3v0.9c-0.5-0.2-1.2-0.3-2-0.3c-1.8,0-2.8,0.6-2.8,3.2
			c0,2.7,1,3.2,2.8,3.2c0.4,0,0.9,0,1.3-0.1v-2.5h-1.6v-0.9h2.6v4c-0.6,0.2-1.4,0.3-2.4,0.3C77.1,25.3,75.7,24.5,75.7,21.2z"/>
		<path class="st2" d="M85.9,18.9l0,0.9h-0.1c-0.8,0-1.6,0.3-1.9,1.4v4h-1V19h1v1.1c0.4-1,1.2-1.2,2-1.2H85.9z"/>
		<path class="st2" d="M85.6,22.1c0-2.5,1-3.2,2.9-3.2c1.8,0,2.8,0.7,2.8,3.2c0,2.5-1,3.2-2.8,3.2C86.7,25.3,85.6,24.6,85.6,22.1z
			 M90.3,22.1c0-1.8-0.5-2.4-1.8-2.4c-1.4,0-1.8,0.6-1.8,2.4c0,1.8,0.5,2.4,1.8,2.4C89.9,24.5,90.3,23.9,90.3,22.1z"/>
		<path class="st2" d="M97.1,19v6.2h-0.8l-0.1-0.9c-0.4,0.8-1.2,1-1.9,1c-1.6,0-2.1-0.8-2.1-2V19h1v3.9c0,0.9,0.2,1.5,1.2,1.5
			c0.8,0,1.5-0.2,1.8-1.2V19H97.1z"/>
		<path class="st2" d="M103.8,22.1c0,1.7-0.5,3.2-2.6,3.2c-1.2,0-1.8-0.5-2-1.2v3.4h-1V19h1v1.1c0.3-0.7,0.8-1.2,2-1.2
			C103.3,18.9,103.8,20.2,103.8,22.1z M102.8,22.1c0-1.3-0.2-2.4-1.6-2.4c-1.5,0-1.9,0.9-1.9,2.4c0,1.4,0.4,2.4,1.9,2.4
			C102.6,24.5,102.8,23.3,102.8,22.1z"/>
	</g>
</g>
</svg>
