<svg id="图层_1" data-name="图层 1" xmlns="http://www.w3.org/2000/svg" xmlns:xlink="http://www.w3.org/1999/xlink" viewBox="0 0 136 44"><defs><style>.cls-1{fill:#fff;}.cls-2{fill:#0c1b37;}.cls-3{fill:url(#未命名的渐变_31);}.cls-4{fill:url(#未命名的渐变_34);}.cls-5{fill:#004d7f;}</style><linearGradient id="未命名的渐变_31" x1="39.58" y1="27.07" x2="22" y2="16.93" gradientTransform="translate(22.23 -14.86) rotate(41.38)" gradientUnits="userSpaceOnUse"><stop offset="0" stop-color="#015e94"/><stop offset="1" stop-color="#0c1b37"/></linearGradient><linearGradient id="未命名的渐变_34" x1="34.63" y1="18.53" x2="47.09" y2="18.53" gradientTransform="translate(22.45 -22.38) rotate(41.38)" gradientUnits="userSpaceOnUse"><stop offset="0" stop-color="#025388"/><stop offset="1" stop-color="#02619a"/></linearGradient></defs><title>1</title><rect class="cls-1" width="136" height="44"/><rect class="cls-2" x="13.56" y="12.73" width="8.5" height="18.55" transform="translate(-10.1 17.27) rotate(-41.38)"/><rect class="cls-3" x="26.54" y="12.73" width="8.5" height="18.55" transform="translate(-6.86 25.85) rotate(-41.38)"/><rect class="cls-4" x="36.61" y="13.93" width="8.5" height="9.2" transform="translate(-2.05 31.64) rotate(-41.38)"/><path class="cls-2" d="M62.4,25.17c1.66.07,2.52,1,2.59,2.88s-.92,2.83-2.69,2.88a2.59,2.59,0,0,1-2.67-2.77C59.68,26.22,60.6,25.22,62.4,25.17ZM62.33,30c.91,0,1.38-.65,1.4-1.9s-.49-1.89-1.4-1.91-1.45.67-1.47,1.94S61.37,30,62.33,30Z"/><path class="cls-2" d="M69.42,25.53l-.5,1a1.11,1.11,0,0,0-.76-.26c-.65,0-1,.48-.93,1.52v2.95H66V25.28h1.19v.79a1.21,1.21,0,0,1,1.08-.9A1.58,1.58,0,0,1,69.42,25.53Z"/><path class="cls-2" d="M70.1,23.34h1.19v7.45H70.1Z"/><path class="cls-2" d="M76.12,23.34H77.3v7.48H76.12v-.61a1.75,1.75,0,0,1-1.55.72c-1.51,0-2.27-1-2.27-2.81s.8-2.95,2.41-2.95a1.83,1.83,0,0,1,1.41.72Zm0,5v-.72c0-.94-.46-1.42-1.3-1.44s-1.33.61-1.33,1.9S73.91,30,74.82,30,76.12,29.45,76.12,28.38Z"/><path class="cls-5" d="M85.22,25.39l-1.3.36A2,2,0,0,0,82,24.31c-1.42.07-2.16,1-2.23,2.77s.74,2.72,2.16,2.77A1.93,1.93,0,0,0,84,28.09l1.33.32A3.07,3.07,0,0,1,82,30.89q-3.42-.06-3.49-3.81t3.6-3.89A3.24,3.24,0,0,1,85.22,25.39Z"/><path class="cls-5" d="M88.86,25.17c1.65.07,2.51,1,2.59,2.88s-.93,2.83-2.7,2.88a2.59,2.59,0,0,1-2.67-2.77C86.13,26.22,87.06,25.22,88.86,25.17ZM88.78,30c.92,0,1.38-.65,1.41-1.9s-.49-1.89-1.41-1.91-1.45.67-1.47,1.94S87.82,30,88.78,30Z"/><path class="cls-5" d="M92.53,23.34h1.18v1.33H92.53Zm0,1.94h1.18v5.51H92.53Z"/><path class="cls-5" d="M99.72,27.3v3.49H98.54V27.4c0-.81-.33-1.22-1-1.22a1.32,1.32,0,0,0-1.4,1.26v3.35H95V25.28h1.15V26a1.73,1.73,0,0,1,1.55-.79Q99.79,25.1,99.72,27.3Z"/><path class="cls-2" d="M101.34,23.34h1.23v7.45h-1.23Z"/><path class="cls-2" d="M108.87,27.3v3.49h-1.19V27.4c0-.81-.33-1.22-1-1.22a1.33,1.33,0,0,0-1.41,1.26v3.35h-1.15V25.28h1.15V26a1.73,1.73,0,0,1,1.55-.79C108.24,25.12,108.91,25.83,108.87,27.3Z"/><path class="cls-2" d="M113.69,23.34h1.19v7.48h-1.19v-.61a1.75,1.75,0,0,1-1.55.72c-1.51,0-2.27-1-2.27-2.81s.81-2.95,2.41-2.95a1.81,1.81,0,0,1,1.41.72Zm0,5v-.72c0-.94-.46-1.42-1.3-1.44s-1.33.61-1.33,1.9.42,1.9,1.33,1.87S113.69,29.45,113.69,28.38Z"/><path class="cls-2" d="M120,29l1.22.33a2.32,2.32,0,0,1-2.56,1.65,2.57,2.57,0,0,1-2.73-2.81c.07-1.87,1-2.85,2.7-2.95s2.58,1,2.63,3v.32h-4.07A1.46,1.46,0,0,0,118.62,30,1.22,1.22,0,0,0,120,29Zm-1.37-2.7a1.36,1.36,0,0,0-1.37,1.23H120A1.25,1.25,0,0,0,118.62,26.25Z"/><path class="cls-2" d="M121.93,25.28h1.44L124.49,27l.1.15a.34.34,0,0,0,.08.14,1.45,1.45,0,0,1,.14-.29c.07-.09.44-.65,1.11-1.65h1.44l-2,2.73,2.2,2.74H126l-1.19-1.69a.35.35,0,0,1-.07-.15l-.11-.14a1,1,0,0,1-.18.29l-1.26,1.69h-1.48L124,28Z"/><path class="cls-2" d="M57.9,23.34l-1.51,6h0L54.8,25.77,56,23.34H55l-.7,1.36-.6-1.36h-1l1,2.45L52,29.19l-.14.12s-.66-2.83-1.48-6H49.09l2.16,7.45h1.11l0-.07,1.85-3.8,1.35,3.23.23.64h1.11l2.27-7.45Z"/></svg>