<?xml version="1.0" encoding="utf-8"?>
<!-- Generator: Adobe Illustrator 24.0.0, SVG Export Plug-In . SVG Version: 6.00 Build 0)  -->
<svg version="1.1" id="图层_1" xmlns="http://www.w3.org/2000/svg" xmlns:xlink="http://www.w3.org/1999/xlink" x="0px" y="0px"
	 viewBox="0 0 136 44" style="enable-background:new 0 0 136 44;" xml:space="preserve">
<style type="text/css">
	.st0{fill:#663399;}
	.st1{fill:#F1AE4B;}
</style>
<title>合作商logo</title>
<rect x="0" y="0.1" class="st0" width="135.9" height="43.9"/>
<path class="st1" d="M12.2,22.3c0-0.8,0-1.6,0.2-2.4c0.2-0.9,1-1.5,1.9-1.6h0.1h9.2c1.3,0,1.3,0,1.4-1.3c0,0,0-0.1,0.1-0.1l0,0h2.3
	c0,0,0.1,0,0.1,0.1l0,0v1.4c0,0,0,0.1,0,0.1c-0.1,1.4-1.2,2.4-2.6,2.3c0,0-0.1,0-0.1,0c-1.5,0-1.5,0-1.5,1.5c0,1.7,0,3.5,0,5.2
	c0,0.2,0,2,0,2.1l0,0l-2.4,0.9l0,0v-9.6c0,0,0-0.1-0.1-0.1l0,0H19c0,0-0.1,0-0.1,0.1l0,0c0,0,0,8.5,0,8.6l0,0l-2.5,0.9l0,0
	c0,0,0-7.9,0-9.5c0,0,0-0.1-0.1-0.1l0,0h-1.5c0,0-0.1,0-0.1,0.1l0,0v1.5c0,0,0,0.1-0.1,0.1l0,0L12.2,22.3
	C12.2,22.4,12.2,22.3,12.2,22.3C12.2,22.3,12.2,22.3,12.2,22.3z"/>
<path class="st1" d="M23.2,15v1.7c0,0.1,0,0.1-0.1,0.1c0,0,0,0,0,0h-2.2c-0.1,0-0.1-0.1-0.1-0.1c0-0.6,0-1.2,0-1.7
	c0-0.1,0.1-0.1,0.1-0.1h2.1C23.1,14.9,23.2,14.9,23.2,15z"/>
<path class="st1" d="M18.8,15v1.7c0,0.1,0,0.1-0.1,0.1c0,0,0,0,0,0h-2.2c-0.1,0-0.1-0.1-0.1-0.1c0-0.6,0-1.2,0-1.7
	c0-0.1,0.1-0.1,0.1-0.1h2.1C18.7,14.9,18.8,14.9,18.8,15z"/>
<path class="st1" d="M19.9,34.7c-7,0-12.7-5.7-12.7-12.7S12.9,9.3,19.9,9.3S32.6,15,32.6,22l0,0C32.6,29,26.9,34.7,19.9,34.7z
	 M19.9,10.5c-6.4,0-11.5,5.2-11.5,11.5s5.2,11.5,11.5,11.5S31.4,28.4,31.4,22C31.4,15.6,26.3,10.5,19.9,10.5z"/>
<path class="st1" d="M42.9,23.7v5.1h-1.7V16.6h5.5c1,0,1.9,0.3,2.7,1c0.7,0.6,1,1.5,1,2.5c0,0.9-0.3,1.8-0.8,2.5
	c-0.7,0.8-1.7,1.2-2.8,1.2L42.9,23.7z M42.9,18.1v4.2h3.3c0.6,0,1.3-0.1,1.8-0.5c0.5-0.4,0.7-1.1,0.7-1.7c0-0.6-0.2-1.2-0.7-1.6
	c-0.5-0.3-1.1-0.5-1.7-0.4H42.9z"/>
<path class="st1" d="M54.5,18.3H53v-1.7h1.5L54.5,18.3z M54.5,20v8.9H53V20L54.5,20z"/>
<path class="st1" d="M71.1,16.6h1.6v12.2h-1.9L64.6,19v9.9H63V16.6h2l6,9.9L71.1,16.6z"/>
<path class="st1" d="M81.8,26.1h1.5c-0.1,0.4-0.2,0.8-0.4,1.1c-0.3,0.5-0.7,1-1.2,1.3c-0.3,0.2-0.5,0.3-0.8,0.4
	c-0.5,0.1-1.1,0.2-1.6,0.2c-1.1,0.1-2.2-0.4-2.9-1.2c-0.7-0.9-1.1-2-1.1-3.2c-0.1-1.2,0.3-2.5,1-3.5c0.8-1,2-1.5,3.2-1.5
	c1.1-0.1,2.2,0.5,2.9,1.4c0.7,1.1,1.1,2.5,1,3.8h-6.5c0,0.8,0.2,1.5,0.7,2.2c0.5,0.5,1.2,0.8,1.9,0.8c0.6,0,1.2-0.2,1.7-0.6
	C81.6,26.9,81.8,26.5,81.8,26.1z M76.9,23.7h5c0-0.7-0.2-1.3-0.6-1.8c-0.9-1-2.5-1.1-3.5-0.1c-0.1,0-0.1,0.1-0.1,0.1
	C77.2,22.4,76.9,23,76.9,23.7z"/>
<path class="st1" d="M89.2,21.2h-1.4V27c0,0.2,0.1,0.5,0.3,0.6c0.2,0.1,0.4,0.1,0.6,0.1h0.5v1.2L88,29c-0.5,0.1-1.1-0.1-1.4-0.5
	c-0.3-0.4-0.4-0.9-0.4-1.4v-5.9H85V20h1.2v-2.5h1.5V20h1.4L89.2,21.2z"/>
<path class="st1" d="M94.5,28.9H93L90.4,20H92l1.7,7l1.8-7h1.7l1.7,7l1.8-7h1.5l-2.6,8.9h-1.6L96.3,22L94.5,28.9z"/>
<path class="st1" d="M103.7,24.4c0-1.2,0.3-2.3,1-3.2c1.4-1.7,4-2,5.7-0.6c0.2,0.2,0.4,0.3,0.6,0.6c0.7,0.9,1,2.1,1,3.2
	c0,1.2-0.3,2.3-1,3.2c-1.4,1.7-4,2-5.7,0.6c-0.2-0.2-0.4-0.4-0.6-0.6C104.1,26.7,103.7,25.5,103.7,24.4z M105.3,24.4
	c0,0.7,0.1,1.5,0.5,2.1c0.6,1.2,2.1,1.6,3.2,1c0.4-0.2,0.7-0.6,1-1c0.3-0.7,0.5-1.4,0.5-2.2c0-0.7-0.1-1.5-0.5-2.1
	c-0.6-1.2-2.1-1.6-3.2-1c-0.4,0.2-0.7,0.6-1,1C105.4,22.9,105.3,23.6,105.3,24.4z"/>
<path class="st1" d="M116.1,23.7v5.2h-1.5V20h1.4v1.5c0.3-0.5,0.6-0.9,1.1-1.2c0.4-0.3,0.9-0.5,1.5-0.5c0.1,0,0.3,0,0.4,0v1.5h-0.6
	c-0.6,0-1.2,0.2-1.7,0.7C116.3,22.4,116.1,23.1,116.1,23.7z"/>
<path class="st1" d="M124.5,23.3l3.6,5.6h-1.9l-2.8-4.5l-1.2,1.1v3.4h-1.4V16.6h1.4v7.1L126,20h1.9L124.5,23.3z"/>
</svg>
