<svg id="图层_1" data-name="图层 1" xmlns="http://www.w3.org/2000/svg" viewBox="0 0 136 44"><defs><style>.cls-1{fill:#fff;}.cls-2{fill:#1d9bf0;}</style></defs><title>合作商logo</title><rect class="cls-1" x="-1.75" y="-0.38" width="138.7" height="44.77"/><path class="cls-2" d="M15.58,28.78a6.24,6.24,0,0,1-5.42-4l2.42-.14.08-.19A6.09,6.09,0,0,1,8,18.67l2.43.65.13-.18a6.16,6.16,0,0,1-1.85-7.69l.22-.13c.5.54,1,1.1,1.49,1.59a16.91,16.91,0,0,0,10.33,4.58c.57.05.51-.26.47-.63a5.8,5.8,0,0,1,2.68-5.78,6,6,0,0,1,7.15.51,1.07,1.07,0,0,0,1.23.26l2.86-1a6.1,6.1,0,0,1-2.3,2.92l.06.16,2.9-.71a1.34,1.34,0,0,1-.16.34c-.63.66-1.23,1.36-1.92,2a1.58,1.58,0,0,0-.59,1.26c-.22,6.18-2.75,11.13-7.94,14.58a16,16,0,0,1-8.4,2.54,17.4,17.4,0,0,1-8.81-2c-.17-.09-.34-.2-.51-.3a1.57,1.57,0,0,1-.19-.19A12.1,12.1,0,0,0,15.58,28.78Z"/><path class="cls-2" d="M63.09,30.17a6.15,6.15,0,0,1-9.3-1.38,6,6,0,0,1-.91-3.21c0-1.52,0-3,.08-4.56A2,2,0,0,1,55,19.27a2,2,0,0,1,2,2c0,1.44,0,2.89,0,4.33a2,2,0,0,0,1.47,1.94,2,2,0,0,0,2.24-.94A2.5,2.5,0,0,0,61,25.51c0-1.46,0-2.93.09-4.39a2,2,0,0,1,2-1.85A2,2,0,0,1,65.11,21c.12,1.12.07,2.25.09,3.38,0,.41,0,.83,0,1.24a1.93,1.93,0,0,0,1.93,2,2,2,0,0,0,2-2c0-1.4,0-2.81,0-4.21a2.06,2.06,0,0,1,1.9-2.13,2,2,0,0,1,2.16,1.77,28,28,0,0,1-.11,5.79,6.07,6.07,0,0,1-9.78,3.53Z"/><path class="cls-2" d="M43.51,19.59h1.72c1.46,0,2.91,0,4.36,0a2.06,2.06,0,0,1,2.13,2,2.1,2.1,0,0,1-2.18,2c-1.77-.07-3.54,0-5.31,0h-.68a14.61,14.61,0,0,0,0,2,2.09,2.09,0,0,0,2,1.68c1.47,0,2.94,0,4.41,0a2.2,2.2,0,0,1,2.18,2,2.24,2.24,0,0,1-1.69,2.3.86.86,0,0,1-.17,0,55,55,0,0,1-5.89-.13,6.3,6.3,0,0,1-5.33-6.22V16.48a2.14,2.14,0,0,1,2.2-2.22,2.21,2.21,0,0,1,2.2,2.2C43.52,17.47,43.51,18.48,43.51,19.59Z"/><path class="cls-2" d="M107.85,26.7a1.2,1.2,0,0,0,.92,1.17,6,6,0,0,0,1.63.27c1.25,0,2.5,0,3.76,0a1.83,1.83,0,0,1,2,1.8,1.77,1.77,0,0,1-2,1.74c-1.51,0-3,0-4.53,0A6.11,6.11,0,0,1,103.88,28a6.05,6.05,0,0,1,1-6.81,5.29,5.29,0,0,1,3.3-1.73,8.26,8.26,0,0,1,5.65.81,5.4,5.4,0,0,1,2.82,4.23c.18,1.44-.53,2.21-2,2.22-2,0-4,0-6.07,0Zm4.32-2.86c-.15-.9-1-1.4-2.14-1.39s-2,.54-2.11,1.39Z"/><path class="cls-2" d="M96.61,23.64c0,.72,0,1.36,0,2a2.08,2.08,0,0,0,2,1.68c.7,0,1.39,0,2.09,0a2.2,2.2,0,1,1,0,4.39,12.2,12.2,0,0,1-4.08-.33,6.58,6.58,0,0,1-4.46-6.3c0-2.79,0-5.58,0-8.37a2.26,2.26,0,0,1,1.5-2.32,2.06,2.06,0,0,1,2.44.73,3.42,3.42,0,0,1,.5,1.53c.08.95,0,1.9,0,2.92l.66,0c1.07,0,2.15,0,3.22,0a2,2,0,0,1-.1,4Z"/><path class="cls-2" d="M85.13,19.59c1.27,0,2.48,0,3.68,0a2,2,0,0,1,2.12,1.77,2,2,0,0,1-1.87,2.28c-1.07,0-2.15,0-3.22,0h-.7c0,1.11-.33,2.25.66,3.05a3,3,0,0,0,1.43.59,14.2,14.2,0,0,0,2,0,2.24,2.24,0,0,1,2.26,2.21,2.21,2.21,0,0,1-2.27,2.18,12.44,12.44,0,0,1-4.07-.34,6.47,6.47,0,0,1-4.38-6V16.54a2.15,2.15,0,0,1,2.13-2.28,2.21,2.21,0,0,1,2.26,2.25C85.14,17.51,85.13,18.52,85.13,19.59Z"/><path class="cls-2" d="M117.84,27.47a23.77,23.77,0,0,1,0-2.67,6,6,0,0,1,5.57-5.19c1.15-.05,2.3,0,3.45,0a2.05,2.05,0,0,1,2,2.06,2,2,0,0,1-2.09,2c-.93,0-1.87,0-2.8,0a2,2,0,0,0-2.13,2.17c0,1.27,0,2.53,0,3.8a2.09,2.09,0,0,1-1.66,2.05,2,2,0,0,1-2.23-1.1,2.87,2.87,0,0,1-.22-1.09c0-.67,0-1.34,0-2Z"/><path class="cls-2" d="M79.2,25.52v3.92a2.21,2.21,0,1,1-4.41,0c0-2.65,0-5.31,0-8A2.21,2.21,0,0,1,77,19.28,2.23,2.23,0,0,1,79.2,21.6Z"/><path class="cls-2" d="M76.94,18.16a2.16,2.16,0,0,1-2.15-2.22A2.22,2.22,0,0,1,77,13.78a2.19,2.19,0,0,1,2.17,2.27A2.15,2.15,0,0,1,76.94,18.16Z"/></svg>