<svg id="图层_1" data-name="图层 1" xmlns="http://www.w3.org/2000/svg" xmlns:xlink="http://www.w3.org/1999/xlink" viewBox="0 0 136 44"><defs><style>.cls-1,.cls-5{fill:#fff;}.cls-2{fill:#788096;}.cls-3{fill:none;stroke:#040000;stroke-opacity:0.1;stroke-width:0.5px;}.cls-4{fill:#183264;}.cls-5,.cls-6,.cls-7,.cls-8{fill-rule:evenodd;}.cls-6{fill:#183162;}.cls-7{fill:url(#未命名的渐变_4);}.cls-8{fill:url(#未命名的渐变_3);}</style><linearGradient id="未命名的渐变_4" x1="16.86" y1="-520.29" x2="16.86" y2="-508.21" gradientTransform="matrix(1, 0, 0, -1, 0, -491.69)" gradientUnits="userSpaceOnUse"><stop offset="0" stop-color="#183162"/><stop offset="1" stop-color="#183162" stop-opacity="0.01"/></linearGradient><linearGradient id="未命名的渐变_3" x1="10.13" y1="-520.29" x2="10.13" y2="-508.21" gradientTransform="matrix(1, 0, 0, -1, 0, -491.69)" gradientUnits="userSpaceOnUse"><stop offset="0" stop-color="#183162" stop-opacity="0.01"/><stop offset="1" stop-color="#183162"/></linearGradient></defs><title>1</title><rect class="cls-1" width="136" height="44"/><path class="cls-2" d="M99.21,26.1h1.43V24.16h1.08c1.45,0,2.62-.78,2.62-2.27v0a2.22,2.22,0,0,0-2.48-2.24H99.21Zm1.43-3.21v-2h1.1c.71,0,1.15.34,1.15,1h0a1,1,0,0,1-1.12,1Z"/><path class="cls-2" d="M106,26.1h1.42V24h1.12l1.39,2.07h1.66L110,23.79a2,2,0,0,0,1.39-2h0a2,2,0,0,0-.56-1.48,2.54,2.54,0,0,0-1.88-.66h-3Zm1.42-3.33V20.92h1.42c.69,0,1.11.31,1.11.92v0c0,.54-.39.91-1.09.91Z"/><path class="cls-2" d="M113.29,26.1h1.42V19.63h-1.42Z"/><path class="cls-2" d="M119.94,26.21a3.33,3.33,0,0,0,2.66-1.15l-.91-.92a2.35,2.35,0,0,1-1.7.76,1.92,1.92,0,0,1-1.88-2v0a1.92,1.92,0,0,1,1.88-2,2.39,2.39,0,0,1,1.65.73l.91-1a3.34,3.34,0,0,0-2.55-1,3.29,3.29,0,0,0-3.38,3.35v0A3.27,3.27,0,0,0,119.94,26.21Z"/><path class="cls-2" d="M124.31,26.1h4.93V24.84h-3.51V23.48h3V22.21h-3V20.9h3.46V19.63h-4.88Z"/><path class="cls-3" d="M92.81,13.33V30.67"/><path class="cls-4" d="M26.76,26A3,3,0,0,1,24.52,25a3.52,3.52,0,0,1,0-4.71,3.06,3.06,0,0,1,2.24-1,3,3,0,0,1,2.43,1.1l-.86,1a2,2,0,0,0-1.58-.79,1.76,1.76,0,0,0-1.28.63,2,2,0,0,0-.47,1.4,2,2,0,0,0,.49,1.44,1.8,1.8,0,0,0,1.33.62,2.13,2.13,0,0,0,1.58-.8l.84.87A3,3,0,0,1,26.76,26Z"/><path class="cls-4" d="M31.89,26H30.5V19.36h1.39v1.56a2.17,2.17,0,0,1,2.16-1.56V20.9H34c-1.22,0-2.08.83-2.08,2.52Z"/><path class="cls-4" d="M41.35,19.35l-3.09,8.41H36.85L37.52,26l-2.63-6.64h1.48l1.8,4.9,1.73-4.9Z"/><path class="cls-4" d="M45.8,26a2.47,2.47,0,0,1-2.08-1.1v2.91H42.33V19.35h1.39v1.19a2.41,2.41,0,0,1,2.06-1.19,3,3,0,0,1,2.84,3.31C48.62,24.78,47.23,26,45.8,26Zm-.32-5.35a1.79,1.79,0,0,0-1.3.62,1.93,1.93,0,0,0-.47,1.42,1.92,1.92,0,0,0,.47,1.42,1.63,1.63,0,0,0,2.58,0,1.91,1.91,0,0,0,.43-1.41,1.9,1.9,0,0,0-.44-1.41,1.77,1.77,0,0,0-1.29-.64Z"/><path class="cls-4" d="M51.67,20.71v3.12a.72.72,0,0,0,.19.59.62.62,0,0,0,.56.2H53v1.3H52c-1,0-1.71-.48-1.71-1.87V20.71h-.8V19.48h.77V17.74h1.39v1.74H53v1.23Z"/><path class="cls-4" d="M57.38,26A3.1,3.1,0,0,1,55.1,25a3.53,3.53,0,0,1,1-5.56,3.14,3.14,0,0,1,3.58.68,3.52,3.52,0,0,1,.73,3.71A3.25,3.25,0,0,1,57.38,26Zm0-5.35a1.82,1.82,0,0,0-1.34.6,2,2,0,0,0-.5,1.43,2,2,0,0,0,.51,1.45,1.86,1.86,0,0,0,1.35.62,1.84,1.84,0,0,0,1.35-.6,2,2,0,0,0,.5-1.44,2,2,0,0,0-.52-1.45,1.82,1.82,0,0,0-1.35-.61Z"/><path class="cls-4" d="M74,26A3.1,3.1,0,0,1,71.69,25a3.36,3.36,0,0,1-1-2.36,3.4,3.4,0,0,1,2-3.19,3.14,3.14,0,0,1,3.56.68A3.47,3.47,0,0,1,77,23.88,3.23,3.23,0,0,1,74,26Zm0-5.35a1.82,1.82,0,0,0-1.34.6,1.93,1.93,0,0,0-.49,1.43,2,2,0,0,0,.5,1.45,1.86,1.86,0,0,0,1.35.62,1.84,1.84,0,0,0,1.35-.6,1.94,1.94,0,0,0,.49-1.44,2,2,0,0,0-.51-1.45A1.82,1.82,0,0,0,74,20.63Z"/><path class="cls-4" d="M85.51,19.35c1.33,0,2.13.88,2.13,2.43V26H86.25V22.22c0-1-.45-1.55-1.23-1.55s-1.3.56-1.3,1.58V26h-1.4V22.21c0-1-.46-1.54-1.23-1.54s-1.3.6-1.3,1.6V26h-1.4V19.35h1.4v1.1a2.14,2.14,0,0,1,1.85-1.1,1.88,1.88,0,0,1,1.81,1.12A2.44,2.44,0,0,1,85.51,19.35Z"/><path class="cls-4" d="M63.19,24.65v.73a.07.07,0,0,1,0,.07l-.61.37a.06.06,0,0,1-.08,0l-.61-.36a.08.08,0,0,1,0-.07v-.74a.12.12,0,0,1,0-.08l.61-.37h.08l.61.37A.12.12,0,0,1,63.19,24.65Z"/><path class="cls-4" d="M67.42,26a3,3,0,0,1-2.22-1,3.52,3.52,0,0,1,.09-4.71,3.09,3.09,0,0,1,2.27-.93A3,3,0,0,1,70,20.49l-.84,1a2,2,0,0,0-1.57-.83,1.83,1.83,0,0,0-1.3.6,2,2,0,0,0-.49,1.4,2,2,0,0,0,.47,1.44,1.8,1.8,0,0,0,1.32.65A2.08,2.08,0,0,0,69.15,24l.82.88A3,3,0,0,1,67.42,26Z"/><path class="cls-5" d="M13.49,14.9,6.76,18.74v7.68l6.73,3.84,6.73-3.84V18.74Z"/><path class="cls-6" d="M13.49,14.9,6.76,18.74v7.68l6.73,3.84,6.73-3.84V18.74Zm-2.66,3.32h5.3l.64,2.67H10.22Zm1.53,4.56-.58-1.49h3.43l-.56,1.49.16,1.67H12.18Zm1.69,3.44v-.53l1.18-1.13V22.79l1.55-1,1.77,1.32-2.41,4.15h-1ZM8.43,23.11l1.78-1.31,1.57,1v1.77L13,25.69v.53l-1.14,1.05h-1Z"/><path class="cls-7" d="M16.14,27.26h-1l-1.14-1v-.53l1.18-1.13V22.79l1.55-1,1.77,1.32ZM13.49,14.9v3.32h2.64l.64,2.67H13.49v.4h1.72l-.56,1.49.16,1.67H13.49v5.81l6.73-3.84V18.74Z"/><path class="cls-8" d="M13,26.22l-1.14,1.05h-1L8.43,23.11l1.78-1.31,1.57,1v1.77L13,25.69Zm-.78-1.77.18-1.67-.58-1.49h1.71v-.4H10.22l.61-2.67h2.66V14.9L6.76,18.74v7.68l6.73,3.84V24.45Z"/></svg>