<?xml version="1.0" encoding="utf-8"?>
<!-- Generator: Adobe Illustrator 24.0.0, SVG Export Plug-In . SVG Version: 6.00 Build 0)  -->
<svg version="1.1" id="图层_1" xmlns="http://www.w3.org/2000/svg" xmlns:xlink="http://www.w3.org/1999/xlink" x="0px" y="0px"
	 viewBox="0 0 136 44" style="enable-background:new 0 0 136 44;" xml:space="preserve">
<style type="text/css">
	.st0{fill:#1E8BCA;}
	.st1{opacity:0.4;fill:#FFFFFF;}
	.st2{fill:#FFFFFF;}
	.st3{fill-rule:evenodd;clip-rule:evenodd;fill:#DB4B35;}
	.st4{fill-rule:evenodd;clip-rule:evenodd;fill:#129B7F;}
	.st5{fill-rule:evenodd;clip-rule:evenodd;fill:#FFFFFF;}
	.st6{fill-rule:evenodd;clip-rule:evenodd;fill:#040000;}
	.st7{fill-rule:evenodd;clip-rule:evenodd;fill:#2479AE;}
	.st8{fill-rule:evenodd;clip-rule:evenodd;fill:#1AAF5D;}
	.st9{fill:#1AAF5D;}
	.st10{fill:#1F64C9;}
	.st11{fill-rule:evenodd;clip-rule:evenodd;fill:#E87E04;}
	.st12{fill-rule:evenodd;clip-rule:evenodd;fill:#227FBB;}
	.st13{fill:#DB4B35;}
</style>
<rect class="st0" width="136" height="44"/>
<path class="st1" d="M125.5,39l3.5-16.6c0.3-1.5-0.5-2-1.5-1.7l-20.6,8c-1.4,0.5-1.4,1.3-0.2,1.7l5.3,1.6l12.3-7.7
	c0.6-0.4,1.1-0.2,0.7,0.2l-9.9,9l-0.4,5.4c0.5,0,0.8-0.2,1.1-0.5l2.6-2.5l5.4,3.9C124.5,40.5,125.2,40.2,125.5,39L125.5,39z"/>
<path class="st0" d="M-104.3-385.6c0-6.9,5.6-12.6,12.6-12.6c1.6,0,3.1,0.3,4.5,0.8c0-0.2,0-0.3,0-0.5c0-16.8-13.7-30.5-30.5-30.5
	c-16.8,0-30.5,13.7-30.5,30.5s13.7,30.5,30.5,30.5c7.6,0,14.5-2.8,19.8-7.3C-101.8-376.8-104.3-380.9-104.3-385.6z"/>
<path class="st2" d="M-108.1-383.2l5.1-23.9c0.4-2.1-0.8-2.9-2.1-2.4l-29.7,11.5c-2,0.8-2,1.9-0.3,2.4l7.6,2.4l17.7-11.1
	c0.8-0.6,1.6-0.2,1,0.3l-14.3,12.9l-0.6,7.8c0.8,0,1.1-0.3,1.5-0.8l3.7-3.6l7.7,5.7C-109.5-381.1-108.5-381.5-108.1-383.2
	L-108.1-383.2z"/>
<path class="st0" d="M-286.4-351c0-6.9,5.6-12.6,12.6-12.6c1.6,0,3.1,0.3,4.5,0.8c0-0.2,0-0.3,0-0.5c0-16.8-13.7-30.5-30.5-30.5
	c-16.8,0-30.5,13.7-30.5,30.5s13.7,30.5,30.5,30.5c7.6,0,14.5-2.8,19.8-7.3C-283.8-342.2-286.4-346.3-286.4-351z"/>
<path class="st2" d="M-290.2-348.5l5.1-23.9c0.4-2.1-0.8-2.9-2.1-2.4l-29.7,11.5c-2,0.8-2,1.9-0.3,2.4l7.6,2.4l17.7-11.1
	c0.8-0.6,1.6-0.2,1,0.3l-14.3,12.9l-0.6,7.8c0.8,0,1.1-0.3,1.5-0.8l3.7-3.6l7.7,5.7C-291.5-346.4-290.5-346.8-290.2-348.5
	L-290.2-348.5z"/>
<path class="st0" d="M-180.7-189.4c0-6.9,5.6-12.6,12.6-12.6c1.6,0,3.1,0.3,4.5,0.8c0-0.2,0-0.3,0-0.5c0-16.8-13.7-30.5-30.5-30.5
	c-16.8,0-30.5,13.7-30.5,30.5s13.7,30.5,30.5,30.5c7.6,0,14.5-2.8,19.8-7.3C-178.1-180.6-180.7-184.7-180.7-189.4z"/>
<path class="st2" d="M-184.5-187l5.1-23.9c0.4-2.1-0.8-2.9-2.1-2.4l-29.7,11.5c-2,0.8-2,1.9-0.3,2.4l7.6,2.4l17.7-11.1
	c0.8-0.6,1.6-0.2,1,0.3l-14.3,12.9l-0.6,7.8c0.8,0,1.1-0.3,1.5-0.8l3.7-3.6l7.7,5.7C-185.8-184.9-184.8-185.3-184.5-187L-184.5-187z
	"/>
<path class="st0" d="M-154.2-314.6c0-6.9,5.6-12.6,12.6-12.6c1.6,0,3.1,0.3,4.5,0.8c0-0.2,0-0.3,0-0.5c0-16.8-13.7-30.5-30.5-30.5
	c-16.8,0-30.5,13.7-30.5,30.5s13.7,30.5,30.5,30.5c7.6,0,14.5-2.8,19.8-7.3C-151.6-305.8-154.2-309.9-154.2-314.6z"/>
<path class="st2" d="M-158-312.2l5.1-23.9c0.4-2.1-0.8-2.9-2.1-2.4l-29.7,11.5c-2,0.8-2,1.9-0.3,2.4l7.6,2.4l17.7-11.1
	c0.8-0.6,1.6-0.2,1,0.3l-14.3,12.9l-0.6,7.8c0.8,0,1.1-0.3,1.5-0.8l3.7-3.6l7.7,5.7C-159.3-310.1-158.3-310.5-158-312.2L-158-312.2z
	"/>
<g id="Page-1_9_">
	<g id="flags_9_" transform="translate(-180.000000, -6120.000000)">
		<g id="turkey_4_" transform="translate(180.000000, 6120.000000)">
			<circle id="red_7_" class="st3" cx="-141.5" cy="-314.3" r="10"/>
			<path id="white_7_" class="st3" d="M-136.6-313.4l-0.8,0.8l-0.2-1.1l-1-0.5l1-0.5l0.2-1.1l0.8,0.8l1.1-0.2l-0.5,1l0.5,1
				L-136.6-313.4L-136.6-313.4z M-138.7-311.9c-0.8,1.5-2.5,2.6-4.4,2.6c-2.7,0-5-2.2-5-5c0-2.7,2.2-5,5-5c1.9,0,3.5,1,4.4,2.6
				c-0.7-0.9-1.8-1.5-3-1.5c-2.1,0-3.9,1.7-3.9,3.9c0,2.1,1.7,3.9,3.9,3.9C-140.5-310.5-139.4-311-138.7-311.9
				C-138.7-311.9-139.4-311-138.7-311.9L-138.7-311.9z"/>
		</g>
	</g>
</g>
<g>
	<path class="st0" d="M-296.5-248.2c0-6.9,5.6-12.6,12.6-12.6c1.6,0,3.1,0.3,4.5,0.8c0-0.2,0-0.3,0-0.5c0-16.8-13.7-30.5-30.5-30.5
		c-16.8,0-30.5,13.7-30.5,30.5s13.7,30.5,30.5,30.5c7.6,0,14.5-2.8,19.8-7.3C-293.9-239.4-296.5-243.5-296.5-248.2z"/>
	<path class="st2" d="M-300.3-245.8l5.1-23.9c0.4-2.1-0.8-2.9-2.1-2.4l-29.7,11.5c-2,0.8-2,1.9-0.3,2.4l7.6,2.4l17.7-11.1
		c0.8-0.6,1.6-0.2,1,0.3l-14.3,12.9l-0.6,7.8c0.8,0,1.1-0.3,1.5-0.8l3.7-3.6l7.7,5.7C-301.6-243.7-300.7-244.1-300.3-245.8
		L-300.3-245.8z"/>
	<g id="Page-1_10_">
		<g id="flags_10_" transform="translate(-180.000000, -6120.000000)">
			<g id="turkey_5_" transform="translate(180.000000, 6120.000000)">
				<circle id="red_8_" class="st4" cx="-283.8" cy="-248" r="10"/>
				<path id="white_8_" class="st4" d="M-278.9-247l-0.8,0.8l-0.2-1.1l-1-0.5l1-0.5l0.2-1.1l0.8,0.8l1.1-0.2l-0.5,1l0.5,1
					L-278.9-247L-278.9-247z M-281-245.6c-0.8,1.5-2.5,2.6-4.4,2.6c-2.7,0-5-2.2-5-5c0-2.7,2.2-5,5-5c1.9,0,3.5,1,4.4,2.6
					c-0.7-0.9-1.8-1.5-3-1.5c-2.1,0-3.9,1.7-3.9,3.9c0,2.1,1.7,3.9,3.9,3.9C-282.8-244.1-281.7-244.7-281-245.6
					C-281-245.6-281.7-244.7-281-245.6L-281-245.6z"/>
			</g>
		</g>
	</g>
	
		<text transform="matrix(1 0 0 1 -291.8835 -245.0645)" class="st2" style="font-family:'FZLTHH_TC--GB1-4-GBpc-EUC-H'; font-size:9.005px;">EN</text>
</g>
<path class="st0" d="M-357.8-153.6c0-6.9,5.6-12.6,12.6-12.6c1.6,0,3.1,0.3,4.5,0.8c0-0.2,0-0.3,0-0.5c0-16.8-13.7-30.5-30.5-30.5
	c-16.8,0-30.5,13.7-30.5,30.5s13.7,30.5,30.5,30.5c7.6,0,14.5-2.8,19.8-7.3C-355.2-144.8-357.8-148.8-357.8-153.6z"/>
<path class="st2" d="M-361.6-151.1l5.1-23.9c0.4-2.1-0.8-2.9-2.1-2.4l-29.7,11.5c-2,0.8-2,1.9-0.3,2.4l7.6,2.4l17.7-11.1
	c0.8-0.6,1.6-0.2,1,0.3l-14.3,12.9l-0.6,7.8c0.8,0,1.1-0.3,1.5-0.8l3.7-3.6l7.7,5.7C-363-149-362-149.4-361.6-151.1L-361.6-151.1z"
	/>
<g id="Page-1_1_">
	<g id="flags_1_" transform="translate(-180.000000, -6120.000000)">
		<g id="turkey_3_" transform="translate(180.000000, 6120.000000)">
			<circle id="red_1_" class="st4" cx="-345.1" cy="-153.3" r="10"/>
			<path id="white_3_" class="st4" d="M-340.2-152.4l-0.8,0.8l-0.2-1.1l-1-0.5l1-0.5l0.2-1.1l0.8,0.8l1.1-0.2l-0.5,1l0.5,1
				L-340.2-152.4L-340.2-152.4z M-342.3-150.9c-0.8,1.5-2.5,2.6-4.4,2.6c-2.7,0-5-2.2-5-5s2.2-5,5-5c1.9,0,3.5,1,4.4,2.6
				c-0.7-0.9-1.8-1.5-3-1.5c-2.1,0-3.9,1.7-3.9,3.9s1.7,3.9,3.9,3.9C-344.1-149.4-343-150-342.3-150.9
				C-342.3-150.9-343-150-342.3-150.9L-342.3-150.9z"/>
		</g>
	</g>
</g>
<g>
	<g>
		<path id="white_4_" class="st5" d="M-165.2,115.4C-165.2,115.4-165.2,115.4-165.2,115.4c0,8.4-6.8,15.1-15.3,15.1
			s-15.3-6.8-15.3-15.1c0,0,0,0,0,0H-165.2L-165.2,115.4L-165.2,115.4L-165.2,115.4L-165.2,115.4z"/>
		<path id="red_4_" class="st3" d="M-165.2,115.4c0-8.4-6.8-15.3-15.3-15.3s-15.2,6.8-15.3,15.3H-165.2L-165.2,115.4L-165.2,115.4
			L-165.2,115.4L-165.2,115.4z"/>
	</g>
	<g>
		<path class="st2" d="M-159.2,111h1.3v9.7h-1.3V111z"/>
		<path class="st2" d="M-150.3,115.5v5.2h-1.2V116c0-1.2-0.2-1.8-1.4-1.8c-1,0-1.9,0.2-2.3,1.5v5.1h-1.2v-7.6h1.2v1.1
			c0.5-1,1.5-1.2,2.4-1.2C-150.9,113-150.3,114.1-150.3,115.5z"/>
		<path class="st2" d="M-142.6,110.1v10.6h-1l-0.2-1.2c-0.3,0.8-1.1,1.4-2.5,1.4c-2.5,0-3.1-1.6-3.1-3.9c0-2.1,0.6-3.9,3.1-3.9
			c1.5,0,2.2,0.6,2.5,1.5v-4.4H-142.6z M-143.7,117c0-1.7-0.5-2.9-2.3-2.9c-1.8,0-2,1.4-2,2.9c0,1.6,0.2,2.9,2,2.9
			C-144.2,119.9-143.7,118.8-143.7,117z"/>
		<path class="st2" d="M-141.6,117c0-3,1.3-3.9,3.5-3.9c2.2,0,3.5,0.9,3.5,3.9c0,3-1.2,3.9-3.5,3.9
			C-140.3,120.9-141.6,120-141.6,117z M-135.9,117c0-2.2-0.6-2.9-2.2-2.9c-1.7,0-2.2,0.7-2.2,2.9c0,2.2,0.6,2.9,2.2,2.9
			C-136.4,119.9-135.9,119.2-135.9,117z"/>
		<path class="st2" d="M-127.5,115.5v5.2h-1.2V116c0-1.2-0.2-1.8-1.4-1.8c-1,0-1.9,0.2-2.3,1.5v5.1h-1.2v-7.6h1.2v1.1
			c0.5-1,1.5-1.2,2.4-1.2C-128,113-127.5,114.1-127.5,115.5z"/>
		<path class="st2" d="M-120.2,117.1l-5.1,0.3c0,1.7,0.6,2.4,2.4,2.4c0.8,0,1.8-0.2,2.4-0.5v1.1c-0.4,0.2-1.5,0.4-2.5,0.4
			c-2.2,0-3.5-0.9-3.5-3.9c0-3,1.3-3.9,3.4-3.9c2.6,0,3,1.7,3,3.2C-120.1,116.4-120.1,116.7-120.2,117.1z M-121.3,116.2
			c0-1.2-0.2-2.2-1.8-2.2c-1.7,0-2.1,0.9-2.2,2.5L-121.3,116.2z"/>
		<path class="st2" d="M-119.6,120.6v-1c0.5,0.2,1.5,0.3,2.2,0.3c1.1,0,1.8-0.3,1.8-1.2c0-0.9-0.3-1.1-1.7-1.4
			c-1.7-0.4-2.1-0.9-2.1-2.2c0-1.2,0.9-2,2.7-2c0.7,0,1.5,0.1,1.9,0.3l-0.1,1c-0.4-0.2-1.1-0.3-1.8-0.3c-1.1,0-1.6,0.2-1.6,1.1
			c0,0.8,0.3,0.9,1.4,1.2c1.7,0.4,2.4,0.9,2.4,2.3c0,1.5-1,2.2-2.9,2.2C-118.1,120.8-119.2,120.7-119.6,120.6z"/>
		<path class="st2" d="M-113.6,111.1c0-0.6,0.2-0.7,0.7-0.7c0.5,0,0.7,0.1,0.7,0.7c0,0.6-0.2,0.7-0.7,0.7
			C-113.5,111.8-113.6,111.7-113.6,111.1z M-113.5,113.2h1.2v7.6h-1.2V113.2z"/>
		<path class="st2" d="M-104.9,115.4v5.4h-1l-0.2-1.1c-0.4,0.8-1.6,1.3-2.7,1.3c-1.8,0-2.6-0.8-2.6-2.3c0-1.8,1.2-2.4,3-2.4h2.3
			v-0.6c0-0.9-0.3-1.5-1.9-1.5c-0.5,0-1.1,0.1-1.7,0.2v-1.1c0.6-0.1,1.2-0.1,1.7-0.1C-105.5,113-104.9,114-104.9,115.4z
			 M-106.1,118.4v-1.2h-2.2c-1.2,0-1.8,0.3-1.8,1.4c0,0.8,0.4,1.3,1.5,1.3C-107.4,119.9-106.5,119.3-106.1,118.4z"/>
	</g>
</g>
<g>
	<g id="Page-1_5_">
		<g id="flags_5_" transform="translate(-2070.000000, -5310.000000)">
			<g id="south_korea" transform="translate(2070.000000, 5310.000000)">
				<circle id="white_9_" class="st5" cx="22.2" cy="22" r="15.3"/>
				<g id="emblem" transform="translate(27.000000, 41.000000)">
					<path id="line" class="st6" d="M-15.4-23l0.7,0.5l2.8-4.2l-0.7-0.5L-15.4-23L-15.4-23z M-14.4-22.3l0.7,0.5l2.8-4.2l-0.7-0.5
						L-14.4-22.3L-14.4-22.3z M-13.4-21.6l0.7,0.5l2.8-4.2l-0.7-0.5L-13.4-21.6L-13.4-21.6z"/>
					<path id="line_1_" class="st6" d="M-12.6-10.8l0.7-0.5l-2.8-4.2l-0.7,0.5L-12.6-10.8L-12.6-10.8z M-11.6-11.5l0.7-0.5l-1.3-2
						l-0.7,0.5L-11.6-11.5L-11.6-11.5z M-13.1-13.7l0.7-0.5l-1.3-2l-0.7,0.5L-13.1-13.7L-13.1-13.7z M-10.6-12.1l0.7-0.5l-2.8-4.2
						l-0.7,0.5L-10.6-12.1L-10.6-12.1z"/>
					<path id="line_2_" class="st6" d="M3.1-21.2l0.7-0.5l-1.3-2l-0.7,0.5L3.1-21.2L3.1-21.2z M1.5-23.4l0.7-0.5l-1.3-2l-0.7,0.5
						L1.5-23.4L1.5-23.4z M4-21.8l0.7-0.5l-2.8-4.2l-0.7,0.5L4-21.8L4-21.8z M5-22.5L5.7-23l-1.3-2l-0.7,0.5L5-22.5L5-22.5z
						 M3.5-24.7l0.7-0.5l-1.3-2l-0.7,0.5L3.5-24.7L3.5-24.7z"/>
					<path id="line_3_" class="st6" d="M5.7-15L5-15.5l-1.3,2l0.7,0.5L5.7-15L5.7-15z M4.2-12.8l-0.7-0.5l-1.3,2l0.7,0.5L4.2-12.8
						L4.2-12.8z M4.8-15.7L4-16.2l-1.3,2l0.7,0.5L4.8-15.7L4.8-15.7z M3.2-13.4l-0.7-0.5l-1.3,2l0.7,0.5L3.2-13.4L3.2-13.4z
						 M3.8-16.4l-0.7-0.5l-1.3,2l0.7,0.5L3.8-16.4L3.8-16.4z M2.2-14.1l-0.7-0.5l-1.3,2l0.7,0.5L2.2-14.1L2.2-14.1z"/>
					<circle id="Oval-2" class="st3" cx="-4.8" cy="-19" r="5.1"/>
					<path id="Oval-2_1_" class="st7" d="M-0.5-16.3c-1.5,2.4-4.6,3.1-7,1.6s-3.1-4.6-1.6-7c-0.7,1.2-0.4,2.7,0.8,3.5
						s2.8,0.4,3.5-0.8c0.7-1.2,2.3-1.5,3.5-0.8C-0.2-19,0.2-17.4-0.5-16.3C-0.5-16.3,0.2-17.4-0.5-16.3L-0.5-16.3L-0.5-16.3
						L-0.5-16.3z"/>
				</g>
			</g>
		</g>
	</g>
	<g>
		<path class="st2" d="M43.4,19.5v-0.8h6.4v0.8H43.4z M46.6,23.9c-1.4,0-2.5-0.8-2.5-1.9c0-1.2,1.1-1.9,2.5-1.9
			c1.5,0,2.6,0.7,2.6,1.9C49.1,23.2,48,23.9,46.6,23.9z M46.6,20.9c-0.9,0-1.7,0.4-1.7,1.2c0,0.7,0.8,1.1,1.7,1.1
			c0.9,0,1.7-0.4,1.7-1.1C48.2,21.3,47.4,20.9,46.6,20.9z M44.9,17.9v-0.8h3.1v0.8H44.9z M45,27.2v-2.8h0.9v2h6.3v0.8H45z
			 M51.8,21.2v3.5h-0.9v-8h0.9v3.7h1.7v0.8H51.8z"/>
		<path class="st2" d="M59.3,20.1c0,1.6-1.3,2.7-2.9,2.7c-1.7,0-2.9-1.1-2.9-2.7c0-1.6,1.3-2.7,2.9-2.7C58,17.4,59.3,18.5,59.3,20.1
			z M54.3,20.1c0,1.1,0.9,1.9,2,1.9c1.2,0,2-0.8,2-1.8c0-1.1-0.8-1.9-2-1.9C55.2,18.3,54.3,19,54.3,20.1z M55,27.2v-3.4h0.9v2.6h6.4
			v0.8H55z M61.1,24.6v-7.9H62v7.9H61.1z"/>
		<path class="st2" d="M65.8,25.5l-0.6-0.7c1.8-0.8,3.2-2,3.9-3.6l-3.7,0.3l-0.2-0.9l4.2-0.2c0.2-0.6,0.3-1.2,0.3-1.8h-4v-0.8h5
			C70.7,21.8,68.8,24.1,65.8,25.5z M70.7,21.8V21h2.5v-4.3h0.9v10.8h-0.9v-5.8H70.7z"/>
		<path class="st2" d="M77.5,27.6v-3.8H75V23h9.8v0.8h-2.6v3.8h-0.9v-3.8h-2.8v3.8H77.5z M76.2,21.6v-4.2h7.3v4.2H76.2z M82.6,18.2
			h-5.4v2.7h5.4V18.2z"/>
		<path class="st2" d="M91.5,24.4c-1.3,0.3-4.1,0.5-5.7,0.5h-0.5v-7.1h1v6.2c1.4,0,3.9-0.2,5.2-0.5L91.5,24.4z M93.5,27.6h-0.9V16.7
			h0.9V27.6z"/>
		<path class="st2" d="M101.3,24.6c-1.2,0.2-3.6,0.4-5.3,0.4h-0.9v-7.2h5.1v0.8H96v2.3h3.9v0.8H96v2.6c1.7,0,4.1-0.1,5.2-0.3
			L101.3,24.6z M102.4,27.6V16.7h0.9v10.8H102.4z"/>
	</g>
</g>
<text transform="matrix(1 0 0 1 164.6457 -76.1683)" class="st2" style="font-family:'AlibabaPuHuiTiR-GBpc-EUC-H'; font-size:14px; letter-spacing:-1;">Indonesia</text>
<g>
	<g>
		<circle class="st8" cx="-177.8" cy="-102.2" r="15.2"/>
		<g>
			<path class="st2" d="M-187.6-96.7v-11.1h8.5v2h-6v2.4h5.6v2h-5.6v2.6h6.1v2H-187.6z"/>
			<path class="st2" d="M-170.5-96.7l-4.3-6.9c-0.2-0.3-0.4-0.7-0.6-1h0c0.1,0.5,0.1,1.1,0.1,1.9v6.1h-2.3v-11.1h2.7l4.2,6.7
				c0.2,0.3,0.4,0.7,0.6,1.1l0,0c0-0.5-0.1-1.2-0.1-1.7v-6.1h2.3v11.1H-170.5z"/>
		</g>
	</g>
	<g>
		<path class="st2" d="M-151.9-99.9v0.9h-4.7v-7.9h4.4v0.9h-3.4v2.5h3.1v0.9h-3.1v2.8H-151.9z"/>
		<path class="st2" d="M-146.2-103.2v4.3h-1v-3.9c0-0.9-0.2-1.5-1.2-1.5c-0.8,0-1.5,0.1-1.9,1.2v4.2h-1v-6.2h1v0.9
			c0.4-0.8,1.2-1,2-1C-146.6-105.2-146.2-104.4-146.2-103.2z"/>
		<path class="st2" d="M-139.9-105.1v5.7c0,1.7-0.9,2.7-3,2.7c-0.5,0-1.1-0.1-1.5-0.1v-0.8c0.5,0.1,1,0.1,1.5,0.1c1.4,0,2-0.6,2-2
			v-0.6c-0.3,0.7-0.8,1.2-2,1.2c-2.1,0-2.6-1.3-2.6-3.1c0-1.7,0.5-3.1,2.6-3.1c1.2,0,1.8,0.5,2,1.3v-1.2H-139.9z M-140.8-102.1
			c0-1.4-0.4-2.3-1.9-2.3c-1.5,0-1.6,1.1-1.6,2.3c0,1.3,0.2,2.3,1.6,2.3C-141.2-99.8-140.8-100.6-140.8-102.1z"/>
		<path class="st2" d="M-138.7-100.2v-7.4h1v7.2c0,0.6,0.2,0.7,0.6,0.7c0.1,0,0.3,0,0.5-0.1v0.8c-0.2,0-0.4,0.1-0.6,0.1
			C-138.3-98.9-138.7-99.3-138.7-100.2z"/>
		<path class="st2" d="M-136.5-106.8c0-0.5,0.2-0.6,0.6-0.6c0.4,0,0.6,0.1,0.6,0.6c0,0.5-0.2,0.6-0.6,0.6
			C-136.3-106.3-136.5-106.3-136.5-106.8z M-136.4-105.1h1v6.2h-1V-105.1z"/>
		<path class="st2" d="M-134.6-99.1v-0.8c0.4,0.1,1.2,0.2,1.8,0.2c0.9,0,1.4-0.2,1.4-0.9c0-0.7-0.2-0.9-1.4-1.2
			c-1.4-0.3-1.7-0.7-1.7-1.8c0-1,0.8-1.7,2.2-1.7c0.6,0,1.3,0.1,1.5,0.2l-0.1,0.8c-0.4-0.1-0.9-0.2-1.5-0.2c-0.9,0-1.3,0.2-1.3,0.9
			c0,0.6,0.2,0.8,1.2,1c1.4,0.3,1.9,0.7,1.9,1.9c0,1.2-0.8,1.8-2.3,1.8C-133.4-98.9-134.2-99-134.6-99.1z"/>
		<path class="st2" d="M-124.7-103.2v4.3h-1v-3.9c0-0.9-0.2-1.5-1.2-1.5c-0.8,0-1.5,0.1-1.9,1.2v4.2h-1v-8.7h1v3.4
			c0.4-0.8,1.2-1,2-1C-125.1-105.2-124.7-104.4-124.7-103.2z"/>
		<path class="st2" d="M-121.7-102.9c0-3.1,1.4-4.1,3.8-4.1c0.7,0,1.6,0.1,2.1,0.3v0.9c-0.5-0.2-1.2-0.3-2-0.3
			c-1.8,0-2.8,0.6-2.8,3.2c0,2.7,1,3.2,2.7,3.2c0.4,0,0.9,0,1.3-0.1v-2.5h-1.6v-0.9h2.6v4c-0.6,0.2-1.4,0.3-2.4,0.3
			C-120.3-98.9-121.7-99.6-121.7-102.9z"/>
		<path class="st2" d="M-111.6-105.2l0,0.9h-0.1c-0.8,0-1.6,0.3-1.9,1.4v4h-1v-6.2h1v1.1c0.4-1,1.2-1.2,2-1.2H-111.6z"/>
		<path class="st2" d="M-111.8-102c0-2.5,1-3.2,2.8-3.2c1.8,0,2.8,0.7,2.8,3.2c0,2.5-1,3.2-2.8,3.2
			C-110.8-98.9-111.8-99.6-111.8-102z M-107.2-102c0-1.8-0.5-2.4-1.8-2.4c-1.4,0-1.8,0.6-1.8,2.4s0.5,2.4,1.8,2.4
			C-107.6-99.7-107.2-100.2-107.2-102z"/>
		<path class="st2" d="M-100.4-105.1v6.2h-0.8l-0.1-0.9c-0.4,0.8-1.2,1-1.9,1c-1.6,0-2.1-0.8-2.1-2v-4.3h1v3.9
			c0,0.9,0.2,1.5,1.2,1.5c0.8,0,1.5-0.2,1.8-1.2v-4.2H-100.4z"/>
		<path class="st2" d="M-93.7-102c0,1.7-0.5,3.2-2.5,3.2c-1.2,0-1.7-0.5-2-1.2v3.4h-1v-8.4h1v1.1c0.3-0.7,0.8-1.2,2-1.2
			C-94.2-105.2-93.7-103.9-93.7-102z M-94.7-102c0-1.3-0.2-2.4-1.6-2.4c-1.5,0-1.9,0.9-1.9,2.4c0,1.4,0.4,2.4,1.9,2.4
			C-94.9-99.7-94.7-100.9-94.7-102z"/>
	</g>
</g>
<g>
	<g>
		<circle class="st3" cx="-178" cy="-68.6" r="15.2"/>
		<g>
			<path class="st2" d="M-181-70.4c-0.3-1-1.1-1.8-2.3-1.8c-1.8,0-2.7,1.7-2.7,3.5c0,2.4,1.2,3.6,2.7,3.6c1.3,0,2.2-0.8,2.4-2.4
				l2.4,0.7c-0.5,2.4-2.1,3.8-4.8,3.8c-3.4,0-5.3-2.4-5.3-5.8c0-3.4,2.2-5.7,5.3-5.7c2.6,0,4.2,1.6,4.7,3.4L-181-70.4z"/>
			<path class="st2" d="M-170-63l-4.4-7c-0.2-0.3-0.4-0.7-0.6-1h0c0.1,0.5,0.1,1.1,0.1,1.9v6.1h-2.4v-11.1h2.7l4.2,6.8
				c0.2,0.3,0.4,0.7,0.6,1.1l0,0c0-0.5-0.1-1.2-0.1-1.7v-6.2h2.4V-63H-170z"/>
		</g>
	</g>
	<g>
		<path class="st2" d="M-147.6-66.7h-4v3.5h-1v-3.5h-4v-5.1h4v-2.3l1,0v2.3h4V-66.7z M-152.6-67.6v-3.3h-3.1v3.3H-152.6z
			 M-148.6-70.9h-3.1v3.3h3.1V-70.9z"/>
		<path class="st2" d="M-136.2-63.3c-2-0.8-3.7-1.6-5-2.7c-1.2,1.1-2.9,1.9-5,2.8l-0.5-0.9c2.1-0.7,3.7-1.5,4.8-2.5
			c-1.2-1.3-2.1-2.8-2.6-4.8h-1.8v-0.9h4.7c-0.2-0.6-0.4-1.3-0.5-1.6l0.9-0.2c0.2,0.4,0.4,1.3,0.6,1.9h4.4v0.9h-1.9
			c-0.5,2-1.2,3.5-2.4,4.8c1.2,1,2.7,1.7,4.7,2.4L-136.2-63.3z M-143.5-71.4c0.5,1.8,1.2,3.1,2.3,4.2c1.1-1.1,1.7-2.4,2.1-4.2
			H-143.5z"/>
		<path class="st2" d="M-132.9-68.2v5h-0.9v-4.7c-0.5,0.6-1.1,1.2-1.8,1.7l-0.5-0.8c1.5-1.3,2.6-2.5,3.3-4h-2.7v-0.9h1.8
			c-0.1-0.7-0.4-1.6-0.5-2l0.8-0.1c0.1,0.4,0.4,1.4,0.5,2.1h1v0.9c-0.3,0.6-0.7,1.3-1.1,1.9c0.6,0.4,1.7,1.3,2.2,1.8l-0.5,0.7
			C-131.6-67.1-132.3-67.8-132.9-68.2z M-125-64.7v0.9h-6.8v-0.9h3v-4.9h-2.3v-0.9h2.3v-3.6l0.9,0v3.6h2.4v0.9h-2.4v4.9H-125z"/>
		<path class="st2" d="M-114.3-64.6v0.9h-9.6v-9.6h9.3v0.9h-8.3v7.9H-114.3z M-122.7-65.9c1.2-0.7,2.3-1.7,3.4-2.7
			c-1.1-1.1-2.2-2-2.9-2.6l0.6-0.7c0.7,0.6,1.8,1.6,2.9,2.6c0.8-0.9,1.6-1.8,2.2-2.7l0.8,0.6c-0.7,0.9-1.5,1.9-2.3,2.8
			c1,1,2,2,2.7,2.7l-0.6,0.8c-0.7-0.8-1.7-1.9-2.8-2.9c-1.1,1.1-2.3,2.1-3.5,2.8L-122.7-65.9z"/>
	</g>
</g>
<g>
	<g>
		<path class="st2" d="M-159.3,191.8c0-3.7,1.7-4.9,4.6-4.9c0.9,0,1.9,0.1,2.5,0.4v1.1c-0.6-0.2-1.5-0.4-2.4-0.4
			c-2.1,0-3.4,0.7-3.4,3.8c0,3.2,1.2,3.8,3.3,3.8c0.4,0,1.1-0.1,1.6-0.2v-2.9h-1.9v-1h3.1v4.8c-0.7,0.2-1.7,0.4-2.9,0.4
			C-157.6,196.7-159.3,195.8-159.3,191.8z"/>
		<path class="st2" d="M-150.7,195v-8.9h1.2v8.6c0,0.7,0.2,0.9,0.7,0.9c0.2,0,0.4,0,0.6-0.1v1c-0.2,0.1-0.5,0.1-0.8,0.1
			C-150.2,196.6-150.7,196.2-150.7,195z"/>
		<path class="st2" d="M-148.3,192.8c0-2.9,1.2-3.8,3.4-3.8c2.2,0,3.4,0.9,3.4,3.8c0,2.9-1.2,3.8-3.4,3.8
			C-147.1,196.7-148.3,195.8-148.3,192.8z M-142.7,192.8c0-2.2-0.5-2.9-2.2-2.9c-1.7,0-2.2,0.7-2.2,2.9c0,2.2,0.6,2.8,2.2,2.8
			C-143.2,195.7-142.7,195-142.7,192.8z"/>
		<path class="st2" d="M-133.9,192.8c0,2-0.6,3.8-3.1,3.8c-1.4,0-2.1-0.6-2.4-1.4l-0.2,1.3h-1v-10.4h1.2v4.3c0.3-0.9,1-1.5,2.4-1.5
			C-134.4,189-133.9,190.6-133.9,192.8z M-135.1,192.8c0-1.5-0.3-2.9-2-2.9c-1.8,0-2.3,1.1-2.3,2.9c0,1.7,0.5,2.8,2.3,2.8
			C-135.3,195.7-135.1,194.3-135.1,192.8z"/>
		<path class="st2" d="M-127,191.3v5.3h-1l-0.2-1.1c-0.4,0.8-1.5,1.3-2.6,1.3c-1.8,0-2.6-0.8-2.6-2.2c0-1.8,1.2-2.4,2.9-2.4h2.3
			v-0.6c0-0.9-0.3-1.5-1.8-1.5c-0.5,0-1.1,0.1-1.6,0.2v-1c0.5-0.1,1.2-0.1,1.7-0.1C-127.6,189-127,190-127,191.3z M-128.2,194.3
			v-1.2h-2.2c-1.2,0-1.8,0.2-1.8,1.4c0,0.8,0.4,1.2,1.4,1.2C-129.5,195.7-128.6,195.2-128.2,194.3z"/>
		<path class="st2" d="M-125.6,195v-8.9h1.2v8.6c0,0.7,0.2,0.9,0.7,0.9c0.2,0,0.4,0,0.6-0.1v1c-0.2,0.1-0.5,0.1-0.8,0.1
			C-125.1,196.6-125.6,196.2-125.6,195z"/>
		<path class="st2" d="M-120.6,191.8c0-3.7,1.7-4.9,4.5-4.9c0.9,0,1.5,0.1,2.1,0.3v1.1c-0.5-0.2-1.2-0.3-2-0.3
			c-2.2,0-3.2,0.9-3.2,3.8c0,3,1,3.8,3.1,3.8c0.9,0,1.5-0.1,2.3-0.4v1.1c-0.5,0.2-1.3,0.4-2.3,0.4
			C-118.9,196.7-120.6,195.8-120.6,191.8z"/>
		<path class="st2" d="M-107.2,191.4v5.1h-1.2v-4.7c0-1.1-0.2-1.8-1.4-1.8c-0.9,0-1.8,0.2-2.2,1.5v5h-1.2v-10.4h1.2v4.1
			c0.5-0.9,1.5-1.2,2.4-1.2C-107.7,189-107.2,190-107.2,191.4z"/>
		<path class="st2" d="M-100,191.3v5.3h-1l-0.2-1.1c-0.4,0.8-1.5,1.3-2.6,1.3c-1.8,0-2.6-0.8-2.6-2.2c0-1.8,1.2-2.4,2.9-2.4h2.3
			v-0.6c0-0.9-0.3-1.5-1.8-1.5c-0.5,0-1.1,0.1-1.6,0.2v-1c0.5-0.1,1.2-0.1,1.7-0.1C-100.6,189-100,190-100,191.3z M-101.2,194.3
			v-1.2h-2.2c-1.2,0-1.8,0.2-1.8,1.4c0,0.8,0.4,1.2,1.4,1.2C-102.5,195.7-101.5,195.2-101.2,194.3z"/>
		<path class="st2" d="M-92.5,191.4v5.1h-1.2v-4.7c0-1.1-0.2-1.8-1.4-1.8c-0.9,0-1.8,0.2-2.2,1.5v5h-1.2v-7.4h1.2v1.1
			c0.5-0.9,1.5-1.2,2.4-1.2C-93.1,189-92.5,190-92.5,191.4z"/>
		<path class="st2" d="M-85.2,191.4v5.1h-1.2v-4.7c0-1.1-0.2-1.8-1.4-1.8c-0.9,0-1.8,0.2-2.2,1.5v5h-1.2v-7.4h1.2v1.1
			c0.5-0.9,1.5-1.2,2.4-1.2C-85.7,189-85.2,190-85.2,191.4z"/>
		<path class="st2" d="M-78,193l-5,0.3c0,1.6,0.6,2.4,2.4,2.4c0.8,0,1.8-0.2,2.3-0.5v1.1c-0.4,0.2-1.4,0.4-2.5,0.4
			c-2.2,0-3.4-0.9-3.4-3.8c0-2.9,1.2-3.8,3.4-3.8c2.5,0,3,1.7,3,3.1C-77.9,192.3-78,192.6-78,193z M-79.1,192.1
			c0-1.1-0.2-2.1-1.8-2.1c-1.7,0-2.1,0.9-2.1,2.4L-79.1,192.1z"/>
		<path class="st2" d="M-77,195v-8.9h1.2v8.6c0,0.7,0.2,0.9,0.7,0.9c0.2,0,0.4,0,0.6-0.1v1c-0.2,0.1-0.5,0.1-0.8,0.1
			C-76.4,196.6-77,196.2-77,195z"/>
	</g>
	<g>
		<g id="Page-1_7_">
			<g id="flags_7_" transform="translate(-180.000000, -6120.000000)">
				<g id="turkey_2_" transform="translate(180.000000, 6120.000000)">
					<circle id="red_5_" class="st5" cx="-180.6" cy="191.2" r="14.9"/>
					<path id="white_5_" class="st5" d="M-173.2,192.6l-1.1,1.2l-0.2-1.6l-1.5-0.7l1.5-0.7l0.2-1.6l1.1,1.2l1.6-0.3l-0.8,1.5
						l0.8,1.5L-173.2,192.6L-173.2,192.6z M-176.4,194.8c-1.3,2.3-3.7,3.8-6.5,3.8c-4.1,0-7.4-3.3-7.4-7.4c0-4.1,3.3-7.4,7.4-7.4
						c2.8,0,5.2,1.5,6.5,3.8c-1.1-1.3-2.7-2.2-4.5-2.2c-3.2,0-5.8,2.6-5.8,5.8c0,3.2,2.6,5.8,5.8,5.8
						C-179.1,197-177.5,196.2-176.4,194.8C-176.4,194.8-177.5,196.2-176.4,194.8L-176.4,194.8z"/>
				</g>
			</g>
		</g>
		<g>
			<g>
				<path class="st9" d="M-180.3,176.2c-8.4,0-15.2,6.8-15.2,15.2c0,7.8,5.8,14.2,13.3,15.1c0.4,0.1,0.9,0.1,1.6,0.1
					c0.2,0,0.3,0,0.5,0c8.3-0.1,15.1-6.9,15.1-15.2C-165.1,183-171.9,176.2-180.3,176.2L-180.3,176.2z M-182.8,205.3
					c-6.6-1.1-11.5-6.9-11.5-13.8c0-1,0.1-2,0.3-2.9c0.6,0.6,2,0.6,2.4-0.3c0.6,0.4,1.5,0.4,1.5,1.2c0,2.4,0.1,5.1,2.3,5.1
					c0.1,0,1.2,0.4,1.8,1.9c0.2,0.5,1,0,1.8,0c0.4,0,0,0.7,0,2.2c0,1.5,3.3,3.9,3.3,3.9c0,1,0,1.8,0.1,2.5
					C-181.6,205-182.3,205.1-182.8,205.3L-182.8,205.3z M-176.9,204.9c-0.1-0.4-0.4-0.5-1-0.4c0.5-2,0.7-3.1,1.6-3.9
					c1.4-1.2,0.2-2.6-0.9-2.4c-0.8,0.1-0.3-1-1.1-1.1c-0.7-0.1-1.7-1.5-2.8-2.1c-0.6-0.3-1.1-1-2-1c-0.8,0-1.9,0.7-1.9,0.1
					c0-1.7-0.2-2.9-0.2-3.4c0-0.4-0.3-0.1,0.8-0.1c0.6,0,0.3-1.1,0.9-1.2c0.6,0,1.9,0.5,2.2,0.3c0.3-0.2,2.3,5.2,2.3,0.9
					c0-0.5-0.3-1.4,0-1.9c1.1-1.9,2-3.5,1.9-3.7c-0.1-0.1-1.1-0.2-1.9,0c-0.3,0.1,0.1,0.5-0.3,0.6c-1.5,0.3-2.8-0.4-2.3-1.1
					c0.5-0.7,2.2-0.3,2.3-1.8c0.1-0.8,0.2-1.8,0.2-2.5c2,0.3,1.8-2.6-1.2-2.9c6,0.1,11.2,4,13,9.4c-0.1-0.1-0.2-0.1-0.3-0.2
					c-0.9-2.3-3.1-0.6-2.3,1.4c-4,3.1-3,5.2-1.7,6.4c0.7,0.6,1.3,1.6,1.8,2.3c-0.5,1.4,1.7,0.8,2.8-1.5
					C-168.3,200-172.1,203.7-176.9,204.9L-176.9,204.9z M-167.6,188.7c0.2,1,0.3,2,0.3,3c0-0.7-0.1-1.5-0.3-2.2
					C-167.6,189.1-167.6,188.9-167.6,188.7L-167.6,188.7z M-167.6,188.7"/>
			</g>
		</g>
	</g>
</g>
<g>
	<g>
		<g id="Page-1_3_">
			<g id="flags_3_" transform="translate(-180.000000, -6120.000000)">
				<g id="turkey_1_" transform="translate(180.000000, 6120.000000)">
					<circle id="red_3_" class="st5" cx="-181.5" cy="151.4" r="14.9"/>
					<path id="white_1_" class="st5" d="M-174.1,152.8l-1.1,1.2l-0.2-1.6l-1.5-0.7l1.5-0.7l0.2-1.6l1.1,1.2l1.6-0.3l-0.8,1.5
						l0.8,1.5L-174.1,152.8L-174.1,152.8z M-177.3,155c-1.3,2.3-3.7,3.8-6.5,3.8c-4.1,0-7.4-3.3-7.4-7.4s3.3-7.4,7.4-7.4
						c2.8,0,5.2,1.5,6.5,3.8c-1.1-1.3-2.7-2.2-4.5-2.2c-3.2,0-5.8,2.6-5.8,5.8s2.6,5.8,5.8,5.8C-180,157.2-178.4,156.3-177.3,155
						C-177.3,155-178.4,156.3-177.3,155L-177.3,155z"/>
				</g>
			</g>
		</g>
		<g>
			<g>
				<path class="st10" d="M-181.2,136.3c-8.4,0-15.2,6.8-15.2,15.2c0,7.8,5.8,14.2,13.3,15.1c0.4,0.1,0.9,0.1,1.6,0.1
					c0.2,0,0.3,0,0.5,0c8.3-0.1,15.1-6.9,15.1-15.2C-166,143.2-172.8,136.3-181.2,136.3L-181.2,136.3z M-183.6,165.4
					c-6.6-1.1-11.5-6.9-11.5-13.8c0-1,0.1-2,0.3-2.9c0.6,0.6,2,0.6,2.4-0.3c0.6,0.4,1.5,0.4,1.5,1.2c0,2.4,0.1,5.1,2.3,5.1
					c0.1,0,1.2,0.4,1.8,1.9c0.2,0.5,1,0,1.8,0c0.4,0,0,0.7,0,2.2c0,1.5,3.3,3.9,3.3,3.9c0,1,0,1.8,0.1,2.5
					C-182.5,165.2-183.2,165.3-183.6,165.4L-183.6,165.4z M-177.8,165.1c-0.1-0.4-0.4-0.5-1-0.4c0.5-2,0.7-3.1,1.6-3.9
					c1.4-1.2,0.2-2.6-0.9-2.4c-0.8,0.1-0.3-1-1.1-1.1c-0.7-0.1-1.7-1.5-2.8-2.1c-0.6-0.3-1.1-1-2-1c-0.8,0-1.9,0.7-1.9,0.1
					c0-1.7-0.2-2.9-0.2-3.4c0-0.4-0.3-0.1,0.8-0.1c0.6,0,0.3-1.1,0.9-1.2c0.6,0,1.9,0.5,2.2,0.3c0.3-0.2,2.3,5.2,2.3,0.9
					c0-0.5-0.3-1.4,0-1.9c1.1-1.9,2-3.5,1.9-3.7c-0.1-0.1-1.1-0.2-1.9,0c-0.3,0.1,0.1,0.5-0.3,0.6c-1.5,0.3-2.8-0.4-2.3-1.1
					c0.5-0.7,2.2-0.3,2.3-1.8c0.1-0.8,0.2-1.8,0.2-2.5c2,0.3,1.8-2.6-1.2-2.9c6,0.1,11.2,4,13,9.4c-0.1-0.1-0.2-0.1-0.3-0.2
					c-0.9-2.3-3.1-0.6-2.3,1.4c-4,3.1-3,5.2-1.7,6.4c0.7,0.6,1.3,1.6,1.8,2.3c-0.5,1.4,1.7,0.8,2.8-1.5
					C-169.2,160.2-173,163.9-177.8,165.1L-177.8,165.1z M-168.5,148.8c0.2,1,0.3,2,0.3,3c0-0.7-0.1-1.5-0.3-2.2
					C-168.5,149.3-168.5,149.1-168.5,148.8L-168.5,148.8z M-168.5,148.8"/>
			</g>
		</g>
	</g>
	<g>
		<path class="st2" d="M-160,150.9c0-3.1,1.4-4.1,3.8-4.1c0.7,0,1.6,0.1,2.1,0.3v0.9c-0.5-0.2-1.2-0.3-2-0.3c-1.8,0-2.8,0.6-2.8,3.2
			c0,2.7,1,3.2,2.8,3.2c0.4,0,0.9,0,1.3-0.1v-2.5h-1.6v-0.9h2.6v4c-0.6,0.2-1.4,0.3-2.4,0.3C-158.6,155-160,154.2-160,150.9z"/>
		<path class="st2" d="M-152.8,153.6v-7.5h1v7.2c0,0.6,0.2,0.7,0.6,0.7c0.1,0,0.3,0,0.5-0.1v0.8c-0.2,0-0.4,0.1-0.7,0.1
			C-152.4,154.9-152.8,154.5-152.8,153.6z"/>
		<path class="st2" d="M-150.8,151.8c0-2.5,1-3.2,2.9-3.2c1.8,0,2.8,0.7,2.8,3.2c0,2.5-1,3.2-2.8,3.2
			C-149.8,155-150.8,154.2-150.8,151.8z M-146.2,151.8c0-1.8-0.5-2.4-1.8-2.4c-1.4,0-1.8,0.6-1.8,2.4c0,1.8,0.5,2.4,1.8,2.4
			C-146.6,154.1-146.2,153.6-146.2,151.8z"/>
		<path class="st2" d="M-138.8,151.8c0,1.7-0.5,3.2-2.6,3.2c-1.2,0-1.8-0.5-2-1.2l-0.1,1.1h-0.9v-8.7h1v3.6c0.3-0.7,0.8-1.2,2-1.2
			C-139.3,148.5-138.8,149.9-138.8,151.8z M-139.8,151.8c0-1.3-0.2-2.4-1.6-2.4c-1.5,0-1.9,0.9-1.9,2.4c0,1.4,0.4,2.4,1.9,2.4
			C-140,154.1-139.8,153-139.8,151.8z"/>
		<path class="st2" d="M-133.1,150.5v4.4h-0.8l-0.1-0.9c-0.4,0.7-1.3,1.1-2.2,1.1c-1.5,0-2.1-0.7-2.1-1.8c0-1.5,1-2,2.4-2h1.9v-0.5
			c0-0.7-0.3-1.3-1.5-1.3c-0.4,0-0.9,0-1.4,0.1v-0.9c0.5-0.1,1-0.1,1.4-0.1C-133.6,148.5-133.1,149.3-133.1,150.5z M-134,153v-1
			h-1.8c-1,0-1.5,0.2-1.5,1.2c0,0.7,0.3,1,1.2,1C-135.1,154.1-134.4,153.7-134,153z"/>
		<path class="st2" d="M-131.9,153.6v-7.5h1v7.2c0,0.6,0.2,0.7,0.6,0.7c0.1,0,0.3,0,0.5-0.1v0.8c-0.2,0-0.4,0.1-0.7,0.1
			C-131.4,154.9-131.9,154.5-131.9,153.6z"/>
		<path class="st2" d="M-127.7,150.9c0-3.1,1.4-4.1,3.8-4.1c0.7,0,1.6,0.1,2.1,0.3v0.9c-0.5-0.2-1.2-0.3-2-0.3
			c-1.8,0-2.8,0.6-2.8,3.2c0,2.7,1,3.2,2.8,3.2c0.4,0,0.9,0,1.3-0.1v-2.5h-1.6v-0.9h2.6v4c-0.6,0.2-1.4,0.3-2.4,0.3
			C-126.3,155-127.7,154.2-127.7,150.9z"/>
		<path class="st2" d="M-117.5,148.5l0,0.9h-0.1c-0.8,0-1.6,0.3-1.9,1.4v4h-1v-6.2h1v1.1c0.4-1,1.2-1.2,2-1.2H-117.5z"/>
		<path class="st2" d="M-117.7,151.8c0-2.5,1-3.2,2.9-3.2c1.8,0,2.8,0.7,2.8,3.2c0,2.5-1,3.2-2.8,3.2
			C-116.7,155-117.7,154.2-117.7,151.8z M-113.1,151.8c0-1.8-0.5-2.4-1.8-2.4c-1.4,0-1.8,0.6-1.8,2.4c0,1.8,0.5,2.4,1.8,2.4
			C-113.5,154.1-113.1,153.6-113.1,151.8z"/>
		<path class="st2" d="M-106.3,148.7v6.2h-0.8l-0.1-0.9c-0.4,0.8-1.2,1-1.9,1c-1.6,0-2.1-0.8-2.1-2v-4.3h1v3.9
			c0,0.9,0.2,1.5,1.2,1.5c0.8,0,1.5-0.2,1.8-1.2v-4.2H-106.3z"/>
		<path class="st2" d="M-99.6,151.8c0,1.7-0.5,3.2-2.6,3.2c-1.2,0-1.8-0.5-2-1.2v3.4h-1v-8.5h1v1.1c0.3-0.7,0.8-1.2,2-1.2
			C-100,148.5-99.6,149.9-99.6,151.8z M-100.6,151.8c0-1.3-0.2-2.4-1.6-2.4c-1.5,0-1.9,0.9-1.9,2.4c0,1.4,0.4,2.4,1.9,2.4
			C-100.8,154.1-100.6,153-100.6,151.8z"/>
	</g>
</g>
<g>
	<g id="Page-1_2_">
		<g id="flags_2_" transform="translate(-180.000000, -6120.000000)">
			<g id="turkey_6_" transform="translate(180.000000, 6120.000000)">
				<circle id="red_2_" class="st3" cx="-179.8" cy="-30.5" r="15.2"/>
				<path id="white_6_" class="st5" d="M-172.3-29.1l-1.2,1.2l-0.2-1.7l-1.5-0.7l1.5-0.7l0.2-1.7l1.2,1.2l1.7-0.3l-0.8,1.5l0.8,1.5
					L-172.3-29.1L-172.3-29.1z M-175.6-26.8c-1.3,2.3-3.8,3.9-6.6,3.9c-4.2,0-7.6-3.4-7.6-7.6s3.4-7.6,7.6-7.6
					c2.9,0,5.3,1.6,6.6,3.9c-1.1-1.4-2.7-2.2-4.6-2.2c-3.3,0-5.9,2.6-5.9,5.9s2.6,5.9,5.9,5.9C-178.3-24.6-176.6-25.5-175.6-26.8
					C-175.6-26.8-176.6-25.5-175.6-26.8L-175.6-26.8z"/>
			</g>
		</g>
	</g>
	<g>
		<path class="st2" d="M-154.1-27.5v1c-0.3,0-0.5,0.1-0.9,0.1c-1.7,0-2.3-0.4-2.3-2.4V-33h-1.1v-1h1.1v-1.8h1.2v1.8h1.9v1h-1.9v4.2
			c0,1.2,0.2,1.5,1.1,1.5C-154.6-27.4-154.4-27.4-154.1-27.5z"/>
		<path class="st2" d="M-147.7-34v7.6h-1l-0.2-1.1c-0.5,1-1.5,1.2-2.4,1.2c-2,0-2.5-1-2.5-2.5V-34h1.2v4.8c0,1.1,0.3,1.8,1.5,1.8
			c1,0,1.8-0.2,2.2-1.5V-34H-147.7z M-152.6-36.1c0-0.6,0.2-0.7,0.7-0.7c0.5,0,0.7,0.1,0.7,0.7c0,0.6-0.2,0.7-0.7,0.7
			C-152.4-35.4-152.6-35.5-152.6-36.1z M-150.2-36.1c0-0.6,0.2-0.7,0.7-0.7c0.5,0,0.7,0.1,0.7,0.7c0,0.6-0.2,0.7-0.7,0.7
			C-150-35.4-150.2-35.5-150.2-36.1z"/>
		<path class="st2" d="M-142.5-34.2l0,1.1h-0.2c-1,0-1.9,0.3-2.3,1.7v4.9h-1.2V-34h1.2v1.4c0.5-1.3,1.5-1.5,2.4-1.5H-142.5z"/>
		<path class="st2" d="M-136.1-26.4h-1.6l-2.8-3.5h-0.4v3.5h-1.2v-10.6h1.2v6.2h0.4l2.6-3.1h1.5l-3.2,3.5L-136.1-26.4z"/>
		<path class="st2" d="M-130.3-27.5v1c-0.3,0-0.5,0.1-0.9,0.1c-1.7,0-2.3-0.4-2.3-2.4V-33h-1.1v-1h1.1v-1.8h1.2v1.8h1.9v1h-1.9v4.2
			c0,1.2,0.2,1.5,1.1,1.5C-130.8-27.4-130.5-27.4-130.3-27.5z"/>
		<path class="st2" d="M-130.3-30.2c0-3,1.3-3.9,3.5-3.9c2.2,0,3.5,0.9,3.5,3.9s-1.2,3.9-3.5,3.9C-129-26.3-130.3-27.2-130.3-30.2z
			 M-124.6-30.2c0-2.2-0.6-2.9-2.2-2.9c-1.7,0-2.2,0.7-2.2,2.9c0,2.2,0.6,2.9,2.2,2.9C-125.1-27.3-124.6-28-124.6-30.2z"/>
		<path class="st2" d="M-115.5-30.2c0,2.1-0.6,3.9-3.1,3.9c-1.5,0-2.1-0.6-2.5-1.5v4.1h-1.2V-34h1.2v1.4c0.3-0.9,1-1.5,2.5-1.5
			C-116.1-34.2-115.5-32.5-115.5-30.2z M-116.8-30.2c0-1.6-0.3-2.9-2-2.9c-1.8,0-2.4,1.1-2.4,2.9c0,1.7,0.5,2.9,2.4,2.9
			C-117-27.3-116.8-28.8-116.8-30.2z"/>
		<path class="st2" d="M-114.6-28v-9.1h1.2v8.8c0,0.8,0.2,0.9,0.7,0.9c0.2,0,0.4,0,0.6-0.1v1c-0.2,0.1-0.5,0.1-0.8,0.1
			C-114-26.4-114.6-26.8-114.6-28z"/>
		<path class="st2" d="M-105.6-34v7.6h-1l-0.2-1.1c-0.5,1-1.5,1.2-2.4,1.2c-2,0-2.5-1-2.5-2.5V-34h1.2v4.8c0,1.1,0.3,1.8,1.5,1.8
			c1,0,1.8-0.2,2.2-1.5V-34H-105.6z"/>
		<path class="st2" d="M-104.2-28v-9.1h1.2v8.8c0,0.8,0.2,0.9,0.7,0.9c0.2,0,0.4,0,0.6-0.1v1c-0.2,0.1-0.5,0.1-0.8,0.1
			C-103.6-26.4-104.2-26.8-104.2-28z"/>
		<path class="st2" d="M-95.3-34v7.6h-1l-0.2-1.1c-0.5,1-1.5,1.2-2.4,1.2c-2,0-2.5-1-2.5-2.5V-34h1.2v4.8c0,1.1,0.3,1.8,1.5,1.8
			c1,0,1.8-0.2,2.2-1.5V-34H-95.3z"/>
		<path class="st2" d="M-87.5-34v7c0,2.1-1.1,3.3-3.7,3.3c-0.6,0-1.4-0.1-1.8-0.2v-1c0.6,0.1,1.2,0.2,1.8,0.2c1.7,0,2.5-0.7,2.5-2.4
			v-0.8c-0.3,0.9-1,1.4-2.5,1.4c-2.5,0-3.1-1.5-3.1-3.9c0-2.1,0.6-3.9,3.1-3.9c1.5,0,2.2,0.7,2.5,1.6V-34H-87.5z M-93.4-36.7h1
			c0.2,0.6,0.6,1,1.2,1c0.6,0,1.1-0.4,1.2-1h1c-0.3,1.2-0.9,2-2.2,2S-93.1-35.5-93.4-36.7z M-88.7-30.3c0-1.7-0.5-2.8-2.3-2.8
			c-1.8,0-2,1.4-2,2.8c0,1.6,0.2,2.8,2,2.8C-89.2-27.5-88.7-28.5-88.7-30.3z"/>
		<path class="st2" d="M-80-34v7.6h-1l-0.2-1.1c-0.5,1-1.5,1.2-2.4,1.2c-2,0-2.5-1-2.5-2.5V-34h1.2v4.8c0,1.1,0.3,1.8,1.5,1.8
			c1,0,1.8-0.2,2.2-1.5V-34H-80z"/>
	</g>
</g>
<g>
	<g>
		<title>india</title>
		<desc>Created with Sketch.</desc>
		<g id="Page-1">
			<g id="flags" transform="translate(-1800.000000, -2610.000000)">
				<g id="india" transform="translate(1800.000000, 2610.000000)">
					<path id="green" class="st8" d="M-165.4,7.4h-28.8c2.1,5.9,7.8,10.2,14.4,10.2S-167.5,13.3-165.4,7.4L-165.4,7.4L-165.4,7.4z"
						/>
					<path id="white" class="st5" d="M-194.2,7.4h28.8c0.6-1.6,0.9-3.3,0.9-5.1s-0.3-3.5-0.9-5.1h-28.8c-0.6,1.6-0.9,3.3-0.9,5.1
						S-194.7,5.8-194.2,7.4L-194.2,7.4L-194.2,7.4z"/>
					<path id="orange" class="st11" d="M-194.2-2.8h28.8c-2.1-5.9-7.8-10.2-14.4-10.2S-192.1-8.7-194.2-2.8L-194.2-2.8L-194.2-2.8z"
						/>
					<path id="emblem_1_" class="st12" d="M-179,6.2c0.2,0,0.4-0.1,0.7-0.2l0,0c0,0,0,0,0-0.1c0-0.1,0-0.2,0.1-0.2
						c0.1,0,0.2,0,0.2,0.1c0,0,0,0,0,0.1c0.2-0.1,0.4-0.2,0.6-0.3c0,0,0,0-0.1-0.1c-0.1-0.1,0-0.2,0-0.2c0.1-0.1,0.2,0,0.2,0
						c0,0,0,0.1,0,0.1l0,0c0.2-0.2,0.4-0.3,0.5-0.5l0,0c0,0-0.1,0-0.1,0c-0.1-0.1-0.1-0.2,0-0.2c0.1-0.1,0.2-0.1,0.2,0
						c0,0,0.1,0.1,0.1,0.1c0.1-0.2,0.3-0.4,0.4-0.6c0,0-0.1,0-0.1,0c-0.1,0-0.1-0.1-0.1-0.2c0-0.1,0.1-0.1,0.2-0.1
						c0,0,0.1,0,0.1,0.1l0,0c0.1-0.2,0.2-0.5,0.2-0.7l0,0c0,0-0.1,0-0.1,0c-0.1,0-0.2-0.1-0.2-0.2c0-0.1,0.1-0.2,0.2-0.2
						c0,0,0.1,0,0.1,0.1c0-0.1,0-0.2,0-0.4c0-0.1,0-0.3,0-0.4c0,0-0.1,0.1-0.1,0.1c-0.1,0-0.2-0.1-0.2-0.1s0.1-0.2,0.1-0.2
						c0.1,0,0.1,0,0.1,0l0,0c0-0.3-0.1-0.5-0.2-0.8l0,0c0,0,0,0.1-0.1,0.1c-0.1,0-0.2,0-0.2-0.1c0-0.1,0-0.2,0.1-0.2
						c0,0,0.1,0,0.1,0c-0.1-0.2-0.2-0.5-0.4-0.7c0,0,0,0.1-0.1,0.1c-0.1,0.1-0.2,0-0.2,0c-0.1-0.1,0-0.2,0-0.2c0,0,0.1,0,0.1,0l0,0
						c-0.2-0.2-0.4-0.4-0.6-0.5l0,0c0,0,0,0.1,0,0.1c-0.1,0.1-0.2,0.1-0.2,0s-0.1-0.2,0-0.2c0,0,0.1-0.1,0.1-0.1
						c-0.2-0.1-0.4-0.3-0.7-0.4c0,0,0,0.1,0,0.1c0,0.1-0.1,0.1-0.2,0.1c-0.1,0-0.1-0.1-0.1-0.2c0,0,0-0.1,0.1-0.1l0,0
						c-0.2-0.1-0.5-0.1-0.7-0.2l0,0c0,0,0,0.1,0,0.1c0,0.1-0.1,0.2-0.2,0.2c-0.1,0-0.2-0.1-0.2-0.2c0,0,0-0.1,0-0.1
						c-0.1,0-0.2,0-0.3,0c-0.2,0-0.3,0-0.5,0c0,0,0,0.1,0,0.1c0,0.1-0.1,0.2-0.1,0.2c-0.1,0-0.2-0.1-0.2-0.1c0,0,0-0.1,0-0.1l0,0
						c-0.2,0-0.5,0.1-0.7,0.2l0,0c0,0,0,0,0,0.1c0,0.1,0,0.2-0.1,0.2s-0.2,0-0.2-0.1c0,0,0,0,0-0.1c-0.2,0.1-0.4,0.2-0.6,0.4
						c0,0,0,0,0,0c0.1,0.1,0,0.2,0,0.2s-0.2,0-0.2,0c0,0,0,0,0,0l0,0c-0.2,0.1-0.3,0.3-0.5,0.5l0,0c0,0,0,0,0,0
						c0.1,0.1,0.1,0.2,0,0.2c-0.1,0.1-0.2,0.1-0.2,0c0,0,0,0,0,0c-0.1,0.2-0.2,0.4-0.3,0.6c0,0,0,0,0,0c0.1,0,0.1,0.1,0.1,0.2
						c0,0.1-0.1,0.1-0.2,0.1c0,0,0,0,0,0l0,0c-0.1,0.2-0.1,0.4-0.2,0.6l0,0c0,0,0,0,0,0c0.1,0,0.2,0.1,0.2,0.2
						c0,0.1-0.1,0.2-0.2,0.2c0,0,0,0,0,0c0,0.1,0,0.2,0,0.3c0,0.1,0,0.3,0,0.4c0,0,0,0,0,0c0.1,0,0.2,0.1,0.2,0.1
						c0,0.1-0.1,0.2-0.1,0.2c0,0,0,0,0,0l0,0c0,0.2,0.1,0.4,0.2,0.6l0,0c0,0,0,0,0,0c0.1,0,0.2,0,0.2,0.1c0,0.1,0,0.2-0.1,0.2
						c0,0,0,0,0,0c0.1,0.2,0.2,0.4,0.3,0.5c0,0,0,0,0,0c0.1-0.1,0.2,0,0.2,0c0.1,0.1,0,0.2,0,0.2c0,0,0,0,0,0l0,0
						c0.1,0.2,0.3,0.3,0.5,0.4l0,0c0,0,0,0,0,0c0.1-0.1,0.2-0.1,0.2,0c0.1,0.1,0.1,0.2,0,0.2c0,0,0,0,0,0c0.2,0.1,0.4,0.2,0.6,0.3
						c0,0,0,0,0,0c0-0.1,0.1-0.1,0.2-0.1c0.1,0,0.1,0.1,0.1,0.2c0,0,0,0,0,0l0,0c0.2,0.1,0.4,0.1,0.6,0.2l0,0c0,0,0,0,0,0
						c0-0.1,0.1-0.2,0.2-0.1s0.2,0.1,0.1,0.2c0,0,0,0,0,0c0.1,0,0.2,0,0.3,0c0,0-2.1,0,0,0c0.1,0,0.2,0,0.3,0c0,0,0,0,0,0
						c0-0.1,0.1-0.2,0.1-0.2C-179.1,6-179,6.1-179,6.2C-179,6.2-179,6.2-179,6.2L-179,6.2z M-179.5,3.2c0.1,0,0.1,0,0.2-0.1l0,0
						L-179,4l1.1,1.7l-0.9-1.9l-0.6-0.8c0.1,0,0.1-0.1,0.1-0.1l0.6,0.8l1.6,1.4l-1.4-1.6l-0.8-0.6l0,0c0,0,0.1-0.1,0.1-0.1l0,0
						l0.8,0.6l1.9,0.9l-1.7-1.1l-0.9-0.4c0-0.1,0.1-0.1,0.1-0.2l0.9,0.4l2,0.4l-2-0.7l-1-0.1l0,0c0-0.1,0-0.1,0-0.2c0,0,0,0,0,0h0
						l1,0.1l2.1-0.1l-2.1-0.1l-1,0.1c0-0.1,0-0.1,0-0.2l1-0.1l2-0.7l-2,0.4l-0.9,0.4c0-0.1,0-0.1-0.1-0.2l0,0l0.9-0.4l1.7-1.1
						l-1.9,0.9l-0.8,0.6c0-0.1-0.1-0.1-0.1-0.1l0.8-0.6l1.4-1.6l-1.6,1.4l-0.6,0.8l0,0c0,0-0.1-0.1-0.1-0.1l0,0l0.6-0.8l0.9-1.9
						L-179,1l-0.4,0.9c-0.1-0.1-0.2-0.1-0.3-0.1c-0.1,0-0.2,0-0.3,0.1l-0.6-0.8l-0.9-1.9l1.1,1.7l0.4,0.9l0,0
						c-0.1,0-0.1,0.1-0.1,0.1l0,0l-0.6-0.8l-1.6-1.4l1.4,1.6l0.8,0.6c0,0-0.1,0.1-0.1,0.1l-0.8-0.6l-1.9-0.9l1.7,1.1l0.9,0.4l0,0
						c0,0.1-0.1,0.1-0.1,0.2l0,0l-0.9-0.4l-2-0.4l2,0.7l1,0.1c0,0.1,0,0.1,0,0.2l-1-0.1l-2.1,0.1l2.1,0.1l1-0.1l0,0c0,0,0,0,0,0
						c0,0.1,0,0.1,0,0.2l0,0l-1,0.1l-2,0.7l2-0.4l0.9-0.4c0,0.1,0,0.1,0.1,0.2l-0.9,0.4l-1.7,1.1l1.9-0.9l0.8-0.6l0,0
						c0,0.1,0.1,0.1,0.1,0.1l0,0l-0.8,0.6l-1.4,1.6l1.6-1.4l0.6-0.8c0,0,0.1,0.1,0.1,0.1l-0.6,0.8l-0.9,1.9l1.1-1.7l0.4-0.9l0,0
						c0.1,0,0.1,0.1,0.2,0.1l0,0l-0.4,0.9l-0.4,2l0.7-2l0.1-1c0.1,0,0.1,0,0.2,0v0c0,0-0.4,0,0,0c0,0,0,0,0,0l0.1,1l-0.1,2.1
						l-0.1-2.1l0.1-1l0,0C-179.6,3.2-179.6,3.2-179.5,3.2l0.1,1l0.7,2l-0.4-2L-179.5,3.2L-179.5,3.2z M-179.6,6.7
						c2.3,0,4.2-1.9,4.2-4.2s-1.9-4.2-4.2-4.2s-4.2,1.9-4.2,4.2S-182,6.7-179.6,6.7C-179.6,6.7-182,6.7-179.6,6.7L-179.6,6.7z
						 M-180.7-1.1l0.4,2l0.4,0.9l-0.1-1L-180.7-1.1L-180.7-1.1z M-179.7-1.3l-0.1,2.1l0.1,1l0.1-1L-179.7-1.3L-179.7-1.3z
						 M-178.7-1.1l-0.7,2l-0.1,1l0.4-0.9L-178.7-1.1L-178.7-1.1z"/>
				</g>
			</g>
		</g>
	</g>
	<g>
		<path class="st2" d="M-158.3-3.4h1.3v9.7h-1.3V-3.4z"/>
		<path class="st2" d="M-149.4,1.1v5.2h-1.2V1.5c0-1.2-0.2-1.8-1.4-1.8c-1,0-1.9,0.2-2.3,1.5v5.1h-1.2v-7.6h1.2v1.1
			c0.5-1,1.5-1.2,2.4-1.2C-150-1.4-149.4-0.4-149.4,1.1z"/>
		<path class="st2" d="M-141.7-4.3V6.3h-1l-0.2-1.2c-0.3,0.8-1.1,1.4-2.5,1.4c-2.5,0-3.1-1.6-3.1-3.9c0-2.1,0.6-3.9,3.1-3.9
			c1.5,0,2.2,0.6,2.5,1.5v-4.4H-141.7z M-142.9,2.5c0-1.7-0.5-2.9-2.3-2.9c-1.8,0-2,1.4-2,2.9c0,1.6,0.2,2.9,2,2.9
			C-143.4,5.4-142.9,4.3-142.9,2.5z"/>
		<path class="st2" d="M-140.4-3.4c0-0.6,0.2-0.7,0.7-0.7c0.5,0,0.7,0.1,0.7,0.7c0,0.6-0.2,0.7-0.7,0.7
			C-140.2-2.6-140.4-2.7-140.4-3.4z M-140.3-1.3h1.2v7.6h-1.2V-1.3z"/>
		<path class="st2" d="M-131.7,0.9v5.4h-1l-0.2-1.1c-0.4,0.8-1.6,1.3-2.7,1.3c-1.8,0-2.6-0.8-2.6-2.3c0-1.8,1.2-2.4,3-2.4h2.3V1.1
			c0-0.9-0.3-1.5-1.9-1.5c-0.5,0-1.1,0.1-1.7,0.2v-1.1c0.6-0.1,1.2-0.1,1.7-0.1C-132.3-1.4-131.7-0.4-131.7,0.9z M-132.9,4V2.7h-2.2
			c-1.2,0-1.8,0.3-1.8,1.4c0,0.8,0.4,1.3,1.5,1.3C-134.2,5.4-133.3,4.9-132.9,4z"/>
		<path class="st2" d="M-128,1.4c0-3.8,1.8-5,4.7-5c0.9,0,2,0.1,2.5,0.4v1.1c-0.6-0.3-1.5-0.4-2.5-0.4c-2.2,0-3.4,0.7-3.4,3.9
			c0,3.3,1.2,3.9,3.4,3.9c0.4,0,1.1-0.1,1.6-0.2v-3h-1.9V1.1h3.2V6c-0.7,0.2-1.7,0.4-2.9,0.4C-126.3,6.4-128,5.5-128,1.4z"/>
		<path class="st2" d="M-115.5-1.4l0,1.1h-0.2c-1,0-1.9,0.3-2.3,1.7v4.9h-1.2v-7.6h1.2v1.4c0.5-1.3,1.5-1.5,2.4-1.5H-115.5z"/>
		<path class="st2" d="M-115.8,2.5c0-3,1.3-3.9,3.5-3.9c2.2,0,3.5,0.9,3.5,3.9c0,3-1.2,3.9-3.5,3.9C-114.5,6.4-115.8,5.5-115.8,2.5z
			 M-110.1,2.5c0-2.2-0.6-2.9-2.2-2.9c-1.7,0-2.2,0.7-2.2,2.9s0.6,2.9,2.2,2.9C-110.6,5.4-110.1,4.7-110.1,2.5z"/>
		<path class="st2" d="M-101.8-1.3v7.6h-1l-0.2-1.1c-0.5,1-1.5,1.2-2.4,1.2c-2,0-2.5-1-2.5-2.5v-5.2h1.2v4.8c0,1.1,0.3,1.8,1.5,1.8
			c1,0,1.8-0.2,2.2-1.5v-5.1H-101.8z"/>
		<path class="st2" d="M-93.6,2.5c0,2.1-0.6,3.9-3.1,3.9c-1.5,0-2.1-0.6-2.5-1.5v4.1h-1.2V-1.3h1.2v1.4c0.3-0.9,1-1.5,2.5-1.5
			C-94.2-1.4-93.6,0.2-93.6,2.5z M-94.8,2.5c0-1.6-0.3-2.9-2-2.9c-1.8,0-2.4,1.1-2.4,2.9c0,1.7,0.5,2.9,2.4,2.9
			C-95.1,5.4-94.8,4-94.8,2.5z"/>
	</g>
</g>
<g>
	<g>
		<circle class="st2" cx="-181.4" cy="36.5" r="15.2"/>
		<circle class="st13" cx="-181.4" cy="36.5" r="7.5"/>
	</g>
	<g>
		<path class="st2" d="M-152.7,32.1v9.5h-0.9v-0.8h-5.4v0.8h-0.9v-9.5H-152.7z M-159,32.9v3h5.4v-3H-159z M-153.6,40v-3.2h-5.4V40
			H-153.6z"/>
		<path class="st2" d="M-141.7,39.4l-0.7,0.8c-2.1-1.8-3.4-3.5-4.3-5.6v4.3h2.4v0.9h-2.4v2.1h-0.9v-2.1h-2.3v-0.9h2.3v-4.4
			c-0.9,2.1-2.1,3.7-4.2,5.7l-0.7-0.7c2.2-1.8,3.4-3.3,4.3-5.4h-3.4v-0.9h4.1v-1.9l0.9,0v1.8h4.1V34h-3.4
			C-145.1,36.2-143.8,37.8-141.7,39.4z"/>
		<path class="st2" d="M-137.6,33.6h-4.3v-0.8h1.9c-0.1-0.5-0.3-1.2-0.4-1.5l0.7-0.1c0.1,0.3,0.4,1.2,0.5,1.6h1.6V33.6z
			 M-141.4,34.5h3.2v0.8h-3.2V34.5z M-141.4,36.2h3.2v0.8h-3.2V36.2z M-141.3,37.8h3.1v3.3h-3.1V37.8z M-140.6,40.4h1.6v-1.7h-1.6
			V40.4z M-131.7,36.1v0.8h-6.1v-0.8h1.3l0.3-1.5h-1.1v-0.7h1.2l0.2-1.3h-1.6v-0.8h5.4v0.8h-3l-0.2,1.3h2.5l-0.1,2.2H-131.7z
			 M-137.1,37.9h4.5v3.9h-0.7v-0.7h-3v0.7h-0.7V37.9z M-136.4,38.7v1.6h3v-1.6H-136.4z M-135.7,36.1h2l0-1.5h-1.8L-135.7,36.1z"/>
		<path class="st2" d="M-124.6,40.8v-0.9h-6.1v-1h6.1v-4.8h-6.1v-1h7.2v7.6H-124.6z"/>
		<path class="st2" d="M-115.9,40.2l-0.3,0.9c-2.1-0.9-4.4-1.5-6.7-1.9l0.3-0.9C-120.3,38.7-117.8,39.3-115.9,40.2z M-116.9,36.5
			l-0.3,0.9c-1.5-0.6-3.2-1-4.8-1.3l0.3-0.9C-120.2,35.5-118.2,36-116.9,36.5z M-116.1,33.7l-0.3,0.9c-1.5-0.5-3.6-1-5.5-1.4
			l0.3-0.9C-119.7,32.6-117.7,33.1-116.1,33.7z"/>
		<path class="st2" d="M-107.3,40.5h-7.6v-0.9h4.6c0.2-1.3,0.4-2.7,0.6-4.1h-4.2v-0.9h5.2v0.7c-0.2,1.4-0.4,2.8-0.7,4.2h2V40.5z"/>
		<path class="st2" d="M-106.9,39.8l0-1h8.4v1H-106.9z M-105.9,34.6v-1h6.4v1H-105.9z"/>
		<path class="st2" d="M-93.6,36.3c0,0.3,0,0.6-0.1,0.9c-0.3,2-1.2,3.1-3,4l-0.6-0.8c1.6-0.9,2.3-1.6,2.5-3.3c0-0.2,0-0.5,0.1-0.7
			h-4v-0.9h8.6v0.9H-93.6z M-97.5,33.6v-0.9h6.3v0.9H-97.5z"/>
		<path class="st2" d="M-85,36.4v4.9h-1v-4.1c-1.1,0.8-2.3,1.5-3.4,1.9l-0.5-0.8c2.6-1.2,4.9-2.8,6.4-4.6l0.7,0.6
			C-83.4,35-84.2,35.7-85,36.4z"/>
	</g>
</g>
</svg>
