<svg xmlns="http://www.w3.org/2000/svg" xmlns:xlink="http://www.w3.org/1999/xlink" viewBox="0 0 138.7 44.77"><defs><style>.cls-1{fill:#fff;}.cls-2{fill:url(#未命名的渐变_20);}.cls-3{fill:none;}.cls-4{fill:url(#未命名的渐变_20-2);}.cls-5{fill:url(#未命名的渐变_20-3);}.cls-6{fill:#5b86c4;}.cls-7{fill:url(#未命名的渐变_20-5);}.cls-8{fill:url(#未命名的渐变_20-6);}.cls-9{fill:#09112d;}</style><linearGradient id="未命名的渐变_20" x1="18.85" y1="7.91" x2="14.73" y2="31.28" gradientUnits="userSpaceOnUse"><stop offset="0" stop-color="#639dd4"/><stop offset="0.24" stop-color="#689dd3"/><stop offset="0.54" stop-color="#789cd0"/><stop offset="0.87" stop-color="#919acc"/><stop offset="1" stop-color="#9d99ca"/></linearGradient><linearGradient id="未命名的渐变_20-2" x1="36.83" y1="28.81" x2="25.59" y2="9.35" xlink:href="#未命名的渐变_20"/><linearGradient id="未命名的渐变_20-3" x1="23.24" y1="24.65" x2="23.24" y2="35.61" xlink:href="#未命名的渐变_20"/><linearGradient id="未命名的渐变_20-5" x1="36.83" y1="28.81" x2="25.6" y2="9.35" xlink:href="#未命名的渐变_20"/><linearGradient id="未命名的渐变_20-6" x1="1318.06" y1="711.85" x2="1299.41" y2="679.55" gradientTransform="translate(-923.98 -1112.57) rotate(21.9)" xlink:href="#未命名的渐变_20"/></defs><title>资源 5</title><g id="图层_2" data-name="图层 2"><g id="图层_1-2" data-name="图层 1"><rect class="cls-1" width="138.7" height="44.77"/><path class="cls-2" d="M23.21,13.92l2.71-4.76H18A3.56,3.56,0,0,0,14.87,11L9.51,20.66a3.58,3.58,0,0,0,0,3.45L13.35,31l.58-1Z"/><path class="cls-3" d="M32.5,30,23.21,13.92,13.93,30s7.4-5.35,9.22-5.35S32.5,30,32.5,30Z"/><path class="cls-4" d="M36.91,20.66,31.56,11a3.57,3.57,0,0,0-3.12-1.83H25.92l-2.71,4.76L32.5,30l.62.95,3.79-6.84A3.53,3.53,0,0,0,36.91,20.66Z"/><path class="cls-5" d="M23.15,24.65c-1.82,0-9.22,5.35-9.22,5.35l-.58,1,1.52,2.74A3.55,3.55,0,0,0,18,35.61H28.44a3.56,3.56,0,0,0,3.12-1.84L33.12,31,32.5,30S25,24.65,23.15,24.65Z"/><path class="cls-6" d="M27.75,26.85c-1.89-1.16-3.8-2.2-4.6-2.2S19.91,26,17.83,27.34c2.2-1.28,4.41-2.4,5.36-2.4S25.82,25.79,27.75,26.85Z"/><path class="cls-5" d="M13.35,31l1.52,2.74A3.55,3.55,0,0,0,18,35.61H28.44a3.56,3.56,0,0,0,3.12-1.84L33.12,31,32.5,30s-2.36-1.67-4.75-3.15c-1.93-1.06-3.73-1.91-4.56-1.91s-3.16,1.12-5.36,2.4S13.93,30,13.93,30Z"/><polygon class="cls-6" points="25.92 9.16 23.21 13.92 23.69 14.74 25.93 9.16 25.92 9.16"/><path class="cls-7" d="M33.12,31l3.79-6.84a3.53,3.53,0,0,0,0-3.45L31.56,11a3.57,3.57,0,0,0-3.12-1.83h-2.5l-2.25,5.58L32.5,30Z"/><path class="cls-8" d="M33.12,31l3.79-6.84a3.53,3.53,0,0,0,0-3.45L31.56,11a3.57,3.57,0,0,0-3.12-1.83h-2.5l-2.25,5.58L32.5,30Z"/><path class="cls-9" d="M55.69,30.47l-1.21-3.65H48.23l-1.15,3.65h-4l6.09-16.42h4.43l6.12,16.42ZM51.75,18.38a8.84,8.84,0,0,1-.39-1.4h0a12.1,12.1,0,0,1-.4,1.46L49.07,24h4.71Z"/><path class="cls-9" d="M68.21,30.38h-4L59.79,18.69h3.82L65.79,26a14.19,14.19,0,0,1,.45,2h0a15.34,15.34,0,0,1,.47-2l2.16-7.26h3.82Z"/><path class="cls-9" d="M86.14,25.59h-9A2.68,2.68,0,0,0,80,28.16a2.43,2.43,0,0,0,2.54-1.44l3.78.44c-.95,2.38-2.95,3.56-6.26,3.56-4.2,0-6.62-2.43-6.62-5.94,0-3.84,2.25-6.36,6.22-6.36,4.77,0,6.45,2.67,6.45,6.28Zm-3.48-2.25a2.84,2.84,0,0,0-5.64,0Z"/><path class="cls-9" d="M88.24,30.47V14.05h5.07c6.22,0,9,3.18,9,8,0,5.9-2.48,8.42-8.72,8.42ZM92,17.08V27.46h1.28c3.6,0,5.13-1.93,5.13-5.35,0-2.95-1.63-5-5.15-5Z"/><path class="cls-9" d="M116.33,25.59h-9a2.68,2.68,0,0,0,2.93,2.57,2.43,2.43,0,0,0,2.54-1.44l3.78.44c-1,2.38-3,3.56-6.26,3.56-4.2,0-6.62-2.43-6.62-5.94,0-3.84,2.25-6.36,6.22-6.36,4.77,0,6.45,2.67,6.45,6.28Zm-3.48-2.25a2.84,2.84,0,0,0-5.64,0Z"/><path class="cls-9" d="M126.9,30.39l-2.78-4.54-2.93,4.54h-4l4.47-6-4.13-5.71h3.88l2.74,4.4,2.69-4.4h3.9l-4.18,5.73,4.46,6Z"/></g></g></svg>