<svg id="图层_1" data-name="图层 1" xmlns="http://www.w3.org/2000/svg" viewBox="0 0 136 44"><defs><style>.cls-1{fill:#fff;}.cls-2{fill:#f2e591;}.cls-3{fill:#91c34b;}.cls-4{fill:#15954c;}.cls-5{fill:#626466;}.cls-6{fill:#555656;}</style></defs><title>合作商logo</title><rect class="cls-1" x="-1.35" y="-0.38" width="138.7" height="44.77"/><circle class="cls-2" cx="23.54" cy="22" r="15.7"/><path class="cls-3" d="M23.54,38.36A16.36,16.36,0,1,1,39.91,22,16.38,16.38,0,0,1,23.54,38.36Zm0-31.4a15,15,0,1,0,15,15A15.06,15.06,0,0,0,23.54,7Z"/><path class="cls-4" d="M28.17,16.36a2.54,2.54,0,0,1-2.71,2.3A2.49,2.49,0,0,1,23,16.17c0-1.38-.14-2.35,2.49-2.49A2.48,2.48,0,0,1,28.17,16.36Z"/><path class="cls-3" d="M11,31.43a21.35,21.35,0,0,0,2-6.87c.13-3.1-.09-6.25,2-8.22s4.76-3.06,7-2.71a29.27,29.27,0,0,1,6.9,2.19c1.14.61,4.42,1.44,4.9,1.75s3.72,2,1.31,4.89-6,6.19-6.82,7.61-1.66,2.32-2,6.69l-.22.7-5,0-3.49-.91s-3.06-1.62-3.2-1.67S11,31.43,11,31.43Z"/><circle class="cls-1" cx="21.56" cy="18.32" r="2.98"/><circle class="cls-5" cx="21.56" cy="18.34" r="1.98"/><circle class="cls-1" cx="32.01" cy="21.29" r="0.63"/><path class="cls-5" d="M23.84,24.26s3.48,2.7,10.9-1.59C34.74,22.67,27.65,28.05,23.84,24.26Z"/><path class="cls-1" d="M29.08,9.11a0,0,0,0,0,0,.07c.85.45,3.76,1.81,4.67,3A21.28,21.28,0,0,1,37.27,21s.07.05.08,0a10.9,10.9,0,0,0-2.84-8.25C31.87,10.05,30.9,9.44,29.08,9.11Z"/><path class="cls-6" d="M59.87,18.92H58.34a2.83,2.83,0,0,0-1.37-2,3.88,3.88,0,0,0-1.91-.44,3.45,3.45,0,0,0-2.7,1.15,5,5,0,0,0-1.12,3.49,6,6,0,0,0,.85,3.46,3.41,3.41,0,0,0,3,1.4A3,3,0,0,0,57,25.43a4.07,4.07,0,0,0,1.5-2.63H60A5.62,5.62,0,0,1,58.56,26a4.58,4.58,0,0,1-2.11,1.24,5.85,5.85,0,0,1-1.58.21A4.88,4.88,0,0,1,51.24,26a6.54,6.54,0,0,1-1.63-4.8,6.42,6.42,0,0,1,1.47-4.41,5.59,5.59,0,0,1,7.42-.51A4.07,4.07,0,0,1,59.87,18.92Z"/><path class="cls-6" d="M61.22,22.83a4.93,4.93,0,0,1,.94-3.08,3.91,3.91,0,0,1,6,0,4.92,4.92,0,0,1,1,3.08,4.94,4.94,0,0,1-.95,3.08,3.9,3.9,0,0,1-6,0A4.92,4.92,0,0,1,61.22,22.83Zm1.48,0a4.31,4.31,0,0,0,.45,2.05,2.16,2.16,0,0,0,2,1.2,2.13,2.13,0,0,0,2-1.18,4.22,4.22,0,0,0,.47-2.07,4.31,4.31,0,0,0-.45-2,2.17,2.17,0,0,0-2-1.21,2.14,2.14,0,0,0-2,1.19A4.22,4.22,0,0,0,62.7,22.83Z"/><path class="cls-6" d="M72.22,17H70.79V15.41h1.43Zm0,1.54v8.51H70.79V18.58Z"/><path class="cls-6" d="M81.3,21.3v5.79H79.87V21.85a2.92,2.92,0,0,0-.39-1.7A1.69,1.69,0,0,0,78,19.62a2,2,0,0,0-1.41.54,2.93,2.93,0,0,0-.83,2.3v4.63H74.37V18.58h1.35v1.21a4,4,0,0,1,.88-.9,2.85,2.85,0,0,1,1.72-.55,3.26,3.26,0,0,1,2,.57A2.8,2.8,0,0,1,81.3,21.3Z"/><path class="cls-6" d="M88.69,22.2V20.84h5.12v6.25h-1l-.37-1.51a4.3,4.3,0,0,1-1.65,1.33,5.06,5.06,0,0,1-2.21.49A5.47,5.47,0,0,1,86.25,27,4.27,4.27,0,0,1,85,26.08a5.51,5.51,0,0,1-1.6-2.63,9.11,9.11,0,0,1-.24-2.3,6.47,6.47,0,0,1,1.33-4.1,5,5,0,0,1,4.2-2,5.4,5.4,0,0,1,3.16.94A4.07,4.07,0,0,1,93.62,19H92.09a3,3,0,0,0-1.45-2,4.2,4.2,0,0,0-2-.47,3.41,3.41,0,0,0-2.7,1.22,5.2,5.2,0,0,0-1.12,3.52,6.06,6.06,0,0,0,.76,3.3,3.44,3.44,0,0,0,3.13,1.51,5.08,5.08,0,0,0,1.09-.11,3.44,3.44,0,0,0,1.3-.64,3,3,0,0,0,1-1.32,5.33,5.33,0,0,0,.27-1.78Z"/><path class="cls-6" d="M101.87,24.42h1.43a3.12,3.12,0,0,1-.36,1,3.38,3.38,0,0,1-1.15,1.28,2.59,2.59,0,0,1-.78.39,5.12,5.12,0,0,1-1.53.2,3.49,3.49,0,0,1-2.78-1.19,4.52,4.52,0,0,1-1-3.08,5.32,5.32,0,0,1,1-3.35,3.69,3.69,0,0,1,3.11-1.38,3.13,3.13,0,0,1,2.73,1.32,6.27,6.27,0,0,1,.93,3.64H97.2a3.1,3.1,0,0,0,.63,2.08,2.3,2.3,0,0,0,1.84.72,2.35,2.35,0,0,0,1.61-.6A1.45,1.45,0,0,0,101.87,24.42ZM97.2,22.16h4.74a2.81,2.81,0,0,0-.52-1.76,2.25,2.25,0,0,0-1.86-.78,2.2,2.2,0,0,0-1.67.76A2.57,2.57,0,0,0,97.2,22.16Z"/><path class="cls-6" d="M111.83,21.45h-1.38a2.21,2.21,0,0,0-.64-1.35,1.9,1.9,0,0,0-1.38-.48,2,2,0,0,0-1.84,1,4.16,4.16,0,0,0-.5,2.18,4.72,4.72,0,0,0,.42,2.18,2,2,0,0,0,1.9,1.09,1.82,1.82,0,0,0,1.3-.53,2.67,2.67,0,0,0,.74-1.49h1.38a4,4,0,0,1-.85,2.14,3.22,3.22,0,0,1-2.62,1.12,3.49,3.49,0,0,1-2.78-1.19,4.56,4.56,0,0,1-1-3.08,5.31,5.31,0,0,1,1-3.35,3.71,3.71,0,0,1,3.11-1.38,3.06,3.06,0,0,1,2.43,1A3.12,3.12,0,0,1,111.83,21.45Z"/><path class="cls-6" d="M116.9,21.75l3.46,5.34h-1.83l-2.66-4.3-1.19,1.08v3.22H113.3V15.41h1.38v6.77l3.66-3.6h1.82Z"/><path class="cls-6" d="M120.91,22.83a4.94,4.94,0,0,1,1-3.08,3.9,3.9,0,0,1,6,0,4.92,4.92,0,0,1,1,3.08,4.93,4.93,0,0,1-.94,3.08,3.91,3.91,0,0,1-6,0A4.92,4.92,0,0,1,120.91,22.83Zm1.48,0a4.31,4.31,0,0,0,.46,2.05,2.29,2.29,0,0,0,4,0,4.33,4.33,0,0,0,.47-2.07,4.31,4.31,0,0,0-.45-2,2.17,2.17,0,0,0-2-1.21,2.14,2.14,0,0,0-2,1.19A4.22,4.22,0,0,0,122.39,22.83Z"/></svg>