<svg id="图层_1" data-name="图层 1" xmlns="http://www.w3.org/2000/svg" viewBox="0 0 136 44"><defs><style>.cls-1{fill:#fff;}.cls-2{fill:#090707;}.cls-3{fill:#070504;}.cls-4{fill:#090706;}.cls-5{fill:#080505;}.cls-6{fill:#080606;}.cls-7{fill:#0b0908;}.cls-8{fill:#e7352b;}.cls-9{fill:#f4f4f4;}</style></defs><title>1</title><rect class="cls-1" width="136" height="44"/><path class="cls-2" d="M95.47,28.48h-3v-.63c0-2.21,0-4.42,0-6.64,0-.44,0-.88-.1-1.32a2.05,2.05,0,0,0-1.45-1.95,2.48,2.48,0,0,0-2.69.73,4.65,4.65,0,0,0-1.07,3.06c-.06,2,0,4,0,6v.7h-3v-.65c0-2.3,0-4.59,0-6.88a6.85,6.85,0,0,0-.09-1.2A2.07,2.07,0,0,0,82.65,18a2.36,2.36,0,0,0-2.43.47,4.17,4.17,0,0,0-1.29,3c-.08,2.11-.07,4.23-.09,6.34v.69h-3v-13h3v1.72a4.67,4.67,0,0,1,5-1.87,4,4,0,0,1,2.77,2.32c.2-.24.38-.46.58-.67A5.12,5.12,0,0,1,92,15.22a3.94,3.94,0,0,1,3.4,3.62c.11,1.07.1,2.16.11,3.25C95.48,24.2,95.47,26.31,95.47,28.48Z"/><path class="cls-3" d="M60.74,22.11c.09-2.86,1-5.11,3.57-6.32,3.74-1.75,9.27-.18,9.52,5.81a6.66,6.66,0,0,1-2,5.43A6.57,6.57,0,0,1,65,28.39a5.82,5.82,0,0,1-4.11-4.95C60.81,23,60.78,22.44,60.74,22.11Zm10-.14c-.07-.48-.09-1-.2-1.43a3.4,3.4,0,0,0-3.06-2.72A3.25,3.25,0,0,0,64.22,20a5.15,5.15,0,0,0,0,3.93,3.26,3.26,0,0,0,5.69.9A4.6,4.6,0,0,0,70.77,22Z"/><path class="cls-4" d="M46.65,15.41h2.93v1.83a6,6,0,0,1,3.05-1.93,4.87,4.87,0,0,1,5.49,1.88A5.25,5.25,0,0,1,58.87,20c0,2.72,0,5.43,0,8.15,0,.1,0,.2,0,.33h-3V20.91c0-1.66-.63-2.69-1.81-3a3.28,3.28,0,0,0-3.65,1.6,6.54,6.54,0,0,0-.77,3.36c0,1.65,0,3.3,0,4.95v.64h-3Z"/><path class="cls-5" d="M125.63,19.72a3,3,0,0,0-4.2-1.68c-.31.16-.7.56-.7.86a1.21,1.21,0,0,0,.67.88c.88.37,1.82.59,2.72.91a15.83,15.83,0,0,1,2.72,1.11,3.43,3.43,0,0,1,.27,5.8,6.7,6.7,0,0,1-4.82,1.13A5.88,5.88,0,0,1,118.18,27a9.59,9.59,0,0,1-.94-1.51c-.18-.32-.09-.5.25-.64.77-.32,1.53-.68,2.34-1.05a2.9,2.9,0,0,0,1.59,2,3.75,3.75,0,0,0,2.63.32,2.69,2.69,0,0,0,.62-.22,1.19,1.19,0,0,0,.83-1.08,1.07,1.07,0,0,0-.84-1c-1.11-.4-2.25-.71-3.36-1.1a10.73,10.73,0,0,1-1.88-.8,3.33,3.33,0,0,1-.1-5.83,7,7,0,0,1,4.78-.78,5.36,5.36,0,0,1,3.54,1.74,11.93,11.93,0,0,1,.9,1.39Z"/><path class="cls-6" d="M115.55,24.59a5.91,5.91,0,0,1-6.68,4.13c-4.32-.49-6.19-4.25-5.65-7.85.45-3.07,2.08-4.89,4.82-5.55a6.13,6.13,0,0,1,7.53,4l-2.75,1.15c-.09-.27-.17-.54-.28-.79a2.8,2.8,0,0,0-2.7-1.84,3.09,3.09,0,0,0-3.12,1.84,5.21,5.21,0,0,0,0,4.65A3.23,3.23,0,0,0,110,26.08a2.88,2.88,0,0,0,2.69-2.28c0-.1.06-.19.12-.35Z"/><path class="cls-7" d="M98.19,15.42h2.93v13H98.19Z"/><path class="cls-8" d="M33.53,14.79a6.16,6.16,0,0,0-.43-2.16,5.94,5.94,0,0,0-9.67-2c-1.32,1.29-2.62,2.61-4,4,0-.15,0-.19-.05-.23a5.94,5.94,0,0,0-11.86.48V29a5.87,5.87,0,0,0,3.6,5.52,5.94,5.94,0,0,0,6.54-1.26c1.18-1.15,2.34-2.33,3.51-3.5l.48-.45c0,.16,0,.23,0,.3A5.94,5.94,0,0,0,33.55,29C33.55,24.29,33.57,19.54,33.53,14.79Z"/><path class="cls-9" d="M19.28,29.14a5.93,5.93,0,1,1-5.91-6A5.88,5.88,0,0,1,19.28,29.14Z"/></svg>