<svg xmlns="http://www.w3.org/2000/svg" viewBox="0 0 138.7 44.77"><defs><style>.cls-1{fill:#fff;}.cls-2{fill:#479bd5;}.cls-3{fill:#f4d546;}.cls-4{fill:#8b6cae;}.cls-5{fill:#e74583;}.cls-6{fill:#090505;}</style></defs><title>资源 6</title><g id="图层_2" data-name="图层 2"><g id="图层_1-2" data-name="图层 1"><rect class="cls-1" width="138.7" height="44.77"/><path class="cls-2" d="M48.64,19.24,48.71,18h3.54c0,.25,0,.51,0,.78,0,2.87,0,5.75,0,8.62a3.77,3.77,0,0,1-3,3.88,11.41,11.41,0,0,1-5.54-.06,2.83,2.83,0,0,1-2.17-3.37l3.47.39c.09,0,.19.14.26.24a1.78,1.78,0,0,0,2.08.66c.82-.26,1-.89,1-1.62,0-.45,0-.91,0-1.43a1.26,1.26,0,0,0-.29.11,4,4,0,0,1-6.72-2.41,5.36,5.36,0,0,1,.81-4.66,4.17,4.17,0,0,1,6.06-.28Zm-3.55,3.35c0,1.43.65,2.22,1.78,2.12s1.57-.89,1.53-2.25-.67-2-1.64-2S45.1,21.12,45.09,22.59Z"/><path class="cls-2" d="M39.52,20.33c-1.19.11-2.28.23-3.36.31-.13,0-.3-.15-.4-.27a1.69,1.69,0,0,0-2-.58,1,1,0,0,0-.61.62c0,.21.34.57.58.63.89.21,1.81.29,2.72.46a8.16,8.16,0,0,1,1.54.42,2.71,2.71,0,0,1,1.87,2.32A2.82,2.82,0,0,1,38.48,27a7.35,7.35,0,0,1-4.66.88,9.71,9.71,0,0,1-2.34-.39A3.21,3.21,0,0,1,29.21,25c1.24-.12,2.4-.24,3.56-.32.13,0,.31.21.42.35a2,2,0,0,0,2.44.69,1.24,1.24,0,0,0,.66-.8c0-.19-.41-.57-.69-.65-1-.26-2-.34-3-.64a5.64,5.64,0,0,1-2.23-1.07A2.47,2.47,0,0,1,31,18.47a7.22,7.22,0,0,1,2.63-.69,12.39,12.39,0,0,1,3,.11A3.43,3.43,0,0,1,39.52,20.33Z"/><path class="cls-3" d="M13.43,15.83v9.48c0,1.57-.68,2.31-2.09,2.32a2.19,2.19,0,0,1-2.47-2.37c0-2.85,0-5.71,0-8.56v-.65a2.54,2.54,0,0,0,2.38,1.52C12.3,17.53,12.92,16.91,13.43,15.83Z"/><path class="cls-4" d="M22.08,16c1.19,2.1,3.08,2.15,4.47.18v.76c0,2.83,0,5.65,0,8.47a2.34,2.34,0,0,1-3.52,2,2,2,0,0,1-.92-1.44C22,22.68,22.08,19.43,22.08,16Z"/><path class="cls-5" d="M15.47,20.29c1.32,2,3,2.05,4.45.19,0,2,.07,3.9,0,5.8-.06,1-1.1,1.46-2.41,1.34a2.19,2.19,0,0,1-2-2.14C15.45,23.8,15.47,22.12,15.47,20.29Z"/><path class="cls-6" d="M62.52,28.15a11.08,11.08,0,0,1-3.87-.6,4.57,4.57,0,0,1-2.77-3.82c-.05-.26,0-.38.32-.4,1.14,0,2.28-.11,3.41-.19.31,0,.36.13.42.37a2.41,2.41,0,0,0,3.19,1.83,1.46,1.46,0,0,0,1.12-1.15,1.19,1.19,0,0,0-.88-1.3c-.91-.32-1.86-.5-2.77-.81a16.45,16.45,0,0,1-2.57-1,3.15,3.15,0,0,1-1.75-3.16,3.53,3.53,0,0,1,2.07-3.06,8.81,8.81,0,0,1,4.67-.71,6.34,6.34,0,0,1,3.33,1,4.11,4.11,0,0,1,1.63,2.67c.06.29,0,.43-.36.45-1.07,0-2.14.1-3.22.18a.46.46,0,0,1-.57-.39c-.38-1.38-1.8-1.54-2.86-1.18a.91.91,0,0,0-.65.9.82.82,0,0,0,.7.79c.88.24,1.78.41,2.66.67a21.29,21.29,0,0,1,2.58.9A3.87,3.87,0,0,1,67.78,26a5.1,5.1,0,0,1-3.52,2C63.61,28.08,62.94,28.11,62.52,28.15Z"/><path class="cls-6" d="M103.43,18.92V14.37a1.36,1.36,0,0,1,.27-.06c1.09,0,2.18,0,3.27,0,.31,0,.42.1.41.41q0,6.38,0,12.76c0,.31-.12.41-.42.4-.94,0-1.87,0-2.8,0-.38,0-.47-.15-.45-.48s0-.46,0-.83c-.24.19-.36.27-.46.37a3.93,3.93,0,0,1-6.4-1A6.26,6.26,0,0,1,97,19.7a4.22,4.22,0,0,1,6.14-1A3.15,3.15,0,0,0,103.43,18.92Zm.09,3.95a8.38,8.38,0,0,0-.35-1.32,1.5,1.5,0,0,0-1.62-.9,1.39,1.39,0,0,0-1.28,1.09,4.16,4.16,0,0,0,0,2.42,1.53,1.53,0,0,0,1.53,1.18,1.6,1.6,0,0,0,1.53-1.25C103.4,23.73,103.44,23.35,103.52,22.87Z"/><path class="cls-6" d="M87.39,19.46a2.21,2.21,0,0,1,.22-.29,4.44,4.44,0,0,1,4.44-1.23,2.82,2.82,0,0,1,2.2,2.55,14.36,14.36,0,0,1,.09,2c0,1.63,0,3.25,0,4.87,0,.38-.09.53-.5.52q-1.47,0-2.94,0c-.38,0-.49-.12-.49-.49,0-1.48,0-3,0-4.44,0-.3,0-.6,0-.9a1.18,1.18,0,0,0-1.13-1.22,1.37,1.37,0,0,0-1.54.91,5.81,5.81,0,0,0-.19,1.44c0,1.4,0,2.8,0,4.2,0,.42-.13.55-.55.54q-1.47,0-2.94,0c-.32,0-.44-.11-.44-.44,0-3,0-6,0-9,0-.27.07-.41.37-.4h2.9c.29,0,.39.11.37.39s0,.65,0,1Z"/><path class="cls-6" d="M81.56,25.3a4.73,4.73,0,0,1-2.63,2.35,9.53,9.53,0,0,1-5.57.1A4.91,4.91,0,0,1,70,22.4a5,5,0,0,1,4.49-4.55,9.32,9.32,0,0,1,3.9.25,4.64,4.64,0,0,1,3.37,4.43c.08,1.35.08,1.35-1.25,1.35h-6c-.54,0-.57.05-.41.58a2,2,0,0,0,3.23.88,1.2,1.2,0,0,1,1-.33C79.37,25.12,80.41,25.2,81.56,25.3ZM77.8,22.05a1.94,1.94,0,0,0-1-1.78,1.85,1.85,0,0,0-2,.14A1.92,1.92,0,0,0,74,22.05Z"/><path class="cls-6" d="M120.78,25.36a4.84,4.84,0,0,1-2.67,2.3,9.88,9.88,0,0,1-5.47.12,5,5,0,0,1-3.38-5.38c.31-2.81,2.33-4.47,5.26-4.61a8.32,8.32,0,0,1,3.5.45,4.39,4.39,0,0,1,2.87,3.48c.1.52.11,1.06.17,1.59s-.12.58-.56.58c-2.21,0-4.42,0-6.63,0-.67,0-.71.08-.5.71a2,2,0,0,0,3.27.71.92.92,0,0,1,.84-.3c.86.09,1.73.14,2.6.22A6.62,6.62,0,0,1,120.78,25.36ZM117,22.05a1.87,1.87,0,0,0-.88-1.75,1.83,1.83,0,0,0-2.05.08,1.85,1.85,0,0,0-.82,1.67Z"/><path class="cls-6" d="M126.54,18v1.29l.09,0c.13-.18.25-.34.37-.52a2.75,2.75,0,0,1,3.66-.6.34.34,0,0,1,.1.3c-.32.77-.65,1.53-1,2.29,0,.07-.24.09-.35.08a5.48,5.48,0,0,0-1.12-.12c-.91.14-1.19.9-1.29,1.66a24.86,24.86,0,0,0-.18,2.73c0,.75,0,1.51,0,2.27,0,.3-.09.42-.41.41h-3.13c-.3,0-.42-.1-.42-.41,0-3,0-6,0-9,0-.14.17-.38.26-.38C124.25,18,125.35,18,126.54,18Z"/><circle class="cls-1" cx="24.33" cy="15.45" r="2.3"/><path class="cls-6" d="M24.33,17.76a2.31,2.31,0,1,1,2.31-2.31A2.32,2.32,0,0,1,24.33,17.76Zm0-4.6a2.29,2.29,0,1,0,2.29,2.29A2.3,2.3,0,0,0,24.33,13.16Z"/><circle class="cls-1" cx="17.73" cy="19.76" r="2.3"/><path class="cls-6" d="M17.73,22.07A2.31,2.31,0,1,1,20,19.76,2.31,2.31,0,0,1,17.73,22.07Zm0-4.6A2.29,2.29,0,1,0,20,19.76,2.29,2.29,0,0,0,17.73,17.47Z"/><circle class="cls-1" cx="11.1" cy="15.54" r="2.3"/><path class="cls-6" d="M11.1,17.84a2.31,2.31,0,1,1,2.3-2.3A2.3,2.3,0,0,1,11.1,17.84Zm0-4.59a2.29,2.29,0,1,0,2.28,2.29A2.3,2.3,0,0,0,11.1,13.25Z"/></g></g></svg>