<?xml version="1.0" encoding="utf-8"?>
<!-- Generator: Adobe Illustrator 24.0.0, SVG Export Plug-In . SVG Version: 6.00 Build 0)  -->
<svg version="1.1" id="图层_1" xmlns="http://www.w3.org/2000/svg" xmlns:xlink="http://www.w3.org/1999/xlink" x="0px" y="0px"
	 viewBox="0 0 136 44" style="enable-background:new 0 0 136 44;" xml:space="preserve">
<style type="text/css">
	.st0{fill:#1E8BCA;}
	.st1{opacity:0.4;fill:#FFFFFF;}
	.st2{fill:#FFFFFF;}
	.st3{fill-rule:evenodd;clip-rule:evenodd;fill:#DB4B35;}
	.st4{fill-rule:evenodd;clip-rule:evenodd;fill:#129B7F;}
	.st5{fill-rule:evenodd;clip-rule:evenodd;fill:#FFFFFF;}
	.st6{fill-rule:evenodd;clip-rule:evenodd;fill:#040000;}
	.st7{fill-rule:evenodd;clip-rule:evenodd;fill:#2479AE;}
	.st8{fill-rule:evenodd;clip-rule:evenodd;fill:#1AAF5D;}
	.st9{fill:#1AAF5D;}
	.st10{fill:#1F64C9;}
	.st11{fill-rule:evenodd;clip-rule:evenodd;fill:#E87E04;}
	.st12{fill-rule:evenodd;clip-rule:evenodd;fill:#227FBB;}
	.st13{fill:#DB4B35;}
</style>
<rect class="st0" width="136" height="44"/>
<path class="st1" d="M125.5,39l3.5-16.6c0.3-1.5-0.5-2-1.5-1.7l-20.6,8c-1.4,0.5-1.4,1.3-0.2,1.7l5.3,1.6l12.3-7.7
	c0.6-0.4,1.1-0.2,0.7,0.2l-9.9,9l-0.4,5.4c0.5,0,0.8-0.2,1.1-0.5l2.6-2.5l5.4,3.9C124.5,40.5,125.2,40.2,125.5,39L125.5,39z"/>
<g>
	<g>
		<circle class="st2" cx="21.7" cy="22" r="15.2"/>
		<circle class="st13" cx="21.7" cy="22" r="7.5"/>
	</g>
	<g>
		<path class="st2" d="M50.3,17.6V27h-0.9v-0.8h-5.4V27h-0.9v-9.5H50.3z M44.1,18.4v3h5.4v-3H44.1z M49.5,25.4v-3.2h-5.4v3.2H49.5z"
			/>
		<path class="st2" d="M61.4,24.8l-0.7,0.8c-2.1-1.8-3.4-3.5-4.3-5.6v4.3h2.4v0.9h-2.4v2.1h-0.9v-2.1h-2.3v-0.9h2.3v-4.4
			c-0.9,2.1-2.1,3.7-4.2,5.7l-0.7-0.7c2.2-1.8,3.4-3.3,4.3-5.4h-3.4v-0.9h4.1v-1.9l0.9,0v1.8h4.1v0.9h-3.4
			C58,21.6,59.3,23.2,61.4,24.8z"/>
		<path class="st2" d="M65.4,19.1h-4.3v-0.8h1.9c-0.1-0.5-0.3-1.2-0.4-1.5l0.7-0.1c0.1,0.3,0.4,1.2,0.5,1.6h1.6V19.1z M61.7,20h3.2
			v0.8h-3.2V20z M61.7,21.7h3.2v0.8h-3.2V21.7z M61.7,23.3h3.1v3.3h-3.1V23.3z M62.5,25.8h1.6v-1.7h-1.6V25.8z M71.4,21.6v0.8h-6.1
			v-0.8h1.3l0.3-1.5h-1.1v-0.7h1.2l0.2-1.3h-1.6v-0.8H71v0.8h-3l-0.2,1.3h2.5l-0.1,2.2H71.4z M66,23.3h4.5v3.9h-0.7v-0.7h-3v0.7H66
			V23.3z M66.7,24.1v1.6h3v-1.6H66.7z M67.4,21.6h2l0-1.5h-1.8L67.4,21.6z"/>
		<path class="st2" d="M78.5,26.3v-0.9h-6.1v-1h6.1v-4.8h-6.1v-1h7.2v7.6H78.5z"/>
		<path class="st2" d="M87.1,25.7l-0.3,0.9c-2.1-0.9-4.4-1.5-6.7-1.9l0.3-0.9C82.7,24.2,85.3,24.8,87.1,25.7z M86.2,22l-0.3,0.9
			c-1.5-0.6-3.2-1-4.8-1.3l0.3-0.9C82.9,21,84.8,21.5,86.2,22z M87,19.2l-0.3,0.9c-1.5-0.5-3.6-1-5.5-1.4l0.3-0.9
			C83.3,18.1,85.4,18.6,87,19.2z"/>
		<path class="st2" d="M95.8,26h-7.6v-0.9h4.6c0.2-1.3,0.4-2.7,0.6-4.1h-4.2v-0.9h5.2v0.7c-0.2,1.4-0.4,2.8-0.7,4.2h2V26z"/>
		<path class="st2" d="M96.2,25.3l0-1h8.4v1H96.2z M97.2,20.1v-1h6.4v1H97.2z"/>
		<path class="st2" d="M109.5,21.8c0,0.3,0,0.6-0.1,0.9c-0.3,2-1.2,3.1-3,4l-0.6-0.8c1.6-0.9,2.3-1.6,2.5-3.3c0-0.2,0-0.5,0.1-0.7
			h-4v-0.9h8.6v0.9H109.5z M105.6,19.1v-0.9h6.3v0.9H105.6z"/>
		<path class="st2" d="M118,21.9v4.9h-1v-4.1c-1.1,0.8-2.3,1.5-3.4,1.9l-0.5-0.8c2.6-1.2,4.9-2.8,6.4-4.6l0.7,0.6
			C119.7,20.5,118.9,21.2,118,21.9z"/>
	</g>
</g>
</svg>
