<?xml version="1.0" encoding="utf-8"?>
<!-- Generator: Adobe Illustrator 24.0.0, SVG Export Plug-In . SVG Version: 6.00 Build 0)  -->
<svg version="1.1" id="图层_1" xmlns="http://www.w3.org/2000/svg" xmlns:xlink="http://www.w3.org/1999/xlink" x="0px" y="0px"
	 viewBox="0 0 68 62.5" style="enable-background:new 0 0 68 62.5;" xml:space="preserve">
<style type="text/css">
	.st0{fill-rule:evenodd;clip-rule:evenodd;fill:#FFFFFF;}
	.st1{fill-rule:evenodd;clip-rule:evenodd;fill:#040000;}
	.st2{fill-rule:evenodd;clip-rule:evenodd;fill:#DC4C36;}
	.st3{fill-rule:evenodd;clip-rule:evenodd;fill:#2679B0;}
	.st4{fill:#218DCB;}
	.st5{fill:#FFFFFF;}
	.st6{fill-rule:evenodd;clip-rule:evenodd;fill:#169C7F;}
	.st7{font-family:'FZLTHH_TC--GB1-4-GBpc-EUC-H';}
	.st8{font-size:9.005px;}
</style>
<g>
	<g id="Page-1_3_">
		<g id="flags_3_" transform="translate(-2070.000000, -5310.000000)">
			<g id="south_korea" transform="translate(2070.000000, 5310.000000)">
				<circle id="white_1_" class="st0" cx="239.2" cy="9.1" r="9.9"/>
				<g id="emblem" transform="translate(27.000000, 41.000000)">
					<path id="line" class="st1" d="M205.4-34.5l0.5,0.3l1.8-2.7l-0.5-0.3L205.4-34.5L205.4-34.5z M206-34l0.5,0.3l1.8-2.7l-0.5-0.3
						L206-34L206-34z M206.6-33.6l0.5,0.3l1.8-2.7l-0.5-0.3L206.6-33.6L206.6-33.6z"/>
					<path id="line_1_" class="st1" d="M207.2-26.6l0.5-0.3l-1.8-2.7l-0.5,0.3L207.2-26.6L207.2-26.6z M207.8-27l0.5-0.3l-0.9-1.3
						l-0.5,0.3L207.8-27L207.8-27z M206.8-28.5l0.5-0.3l-0.9-1.3l-0.5,0.3L206.8-28.5L206.8-28.5z M208.5-27.5l0.5-0.3l-1.8-2.7
						l-0.5,0.3L208.5-27.5L208.5-27.5z"/>
					<path id="line_2_" class="st1" d="M217.3-33.3l0.5-0.3l-0.9-1.3l-0.5,0.3L217.3-33.3L217.3-33.3z M216.3-34.8l0.5-0.3l-0.9-1.3
						l-0.5,0.3L216.3-34.8L216.3-34.8z M217.9-33.7l0.5-0.3l-1.8-2.7l-0.5,0.3L217.9-33.7L217.9-33.7z M218.6-34.2l0.5-0.3l-0.9-1.3
						l-0.5,0.3L218.6-34.2L218.6-34.2z M217.6-35.6l0.5-0.3l-0.9-1.3l-0.5,0.3L217.6-35.6L217.6-35.6z"/>
					<path id="line_3_" class="st1" d="M219-29.3l-0.5-0.3l-0.9,1.3l0.5,0.3L219-29.3L219-29.3z M218-27.9l-0.5-0.3l-0.9,1.3
						l0.5,0.3L218-27.9L218-27.9z M218.4-29.8l-0.5-0.3l-0.9,1.3l0.5,0.3L218.4-29.8L218.4-29.8z M217.4-28.3l-0.5-0.3l-0.9,1.3
						l0.5,0.3L217.4-28.3L217.4-28.3z M217.8-30.2l-0.5-0.3l-0.9,1.3l0.5,0.3L217.8-30.2L217.8-30.2z M216.8-28.7l-0.5-0.3l-0.9,1.3
						l0.5,0.3L216.8-28.7L216.8-28.7z"/>
					<circle id="Oval-2" class="st2" cx="212.2" cy="-31.9" r="3.3"/>
					<path id="Oval-2_1_" class="st3" d="M215-30.1c-1,1.5-3,2-4.5,1s-2-3-1.1-4.5c-0.5,0.8-0.2,1.8,0.5,2.3
						c0.8,0.5,1.8,0.3,2.3-0.5c0.5-0.8,1.5-1,2.3-0.5C215.2-31.9,215.4-30.9,215-30.1C215-30.1,215.4-30.9,215-30.1L215-30.1
						L215-30.1L215-30.1z"/>
				</g>
			</g>
		</g>
	</g>
	<path class="st4" d="M226.6,8.8c0-6.9,5.6-12.6,12.6-12.6c1.6,0,3.1,0.3,4.5,0.8c0-0.2,0-0.3,0-0.5c0-16.8-13.7-30.5-30.5-30.5
		c-16.8,0-30.5,13.7-30.5,30.5s13.7,30.5,30.5,30.5c7.6,0,14.5-2.8,19.8-7.3C229.2,17.7,226.6,13.6,226.6,8.8z"/>
	<path class="st5" d="M222.8,11.3l5.1-23.9c0.4-2.1-0.8-2.9-2.1-2.4L196-3.5c-2,0.8-2,1.9-0.3,2.4l7.6,2.4l17.7-11.1
		c0.8-0.6,1.6-0.2,1,0.3L207.6,3.4l-0.6,7.8c0.8,0,1.1-0.3,1.5-0.8l3.7-3.6l7.7,5.7C221.4,13.4,222.4,13,222.8,11.3L222.8,11.3z"/>
</g>
<g>
	<path class="st4" d="M137.8,160.5c0-6.9,5.6-12.6,12.6-12.6c1.6,0,3.1,0.3,4.5,0.8c0-0.2,0-0.3,0-0.5c0-16.8-13.7-30.5-30.5-30.5
		c-16.8,0-30.5,13.7-30.5,30.5s13.7,30.5,30.5,30.5c7.6,0,14.5-2.8,19.8-7.3C140.4,169.3,137.8,165.2,137.8,160.5z"/>
	<path class="st5" d="M134,162.9l5.1-23.9c0.4-2.1-0.8-2.9-2.1-2.4l-29.7,11.5c-2,0.8-2,1.9-0.3,2.4l7.6,2.4l17.7-11.1
		c0.8-0.6,1.6-0.2,1,0.3L118.8,155l-0.6,7.8c0.8,0,1.1-0.3,1.5-0.8l3.7-3.6l7.7,5.7C132.6,165,133.6,164.6,134,162.9L134,162.9z"/>
	<g id="Page-1_4_">
		<g id="flags_4_" transform="translate(-180.000000, -6120.000000)">
			<g id="turkey_1_" transform="translate(180.000000, 6120.000000)">
				<circle id="red_3_" class="st2" cx="150.4" cy="160.7" r="10"/>
				<path id="white_2_" class="st0" d="M155.4,161.7l-0.8,0.8l-0.2-1.1l-1-0.5l1-0.5l0.2-1.1l0.8,0.8l1.1-0.2l-0.5,1l0.5,1
					L155.4,161.7L155.4,161.7z M153.2,163.1c-0.8,1.5-2.5,2.6-4.4,2.6c-2.7,0-5-2.2-5-5s2.2-5,5-5c1.9,0,3.5,1,4.4,2.6
					c-0.7-0.9-1.8-1.5-3-1.5c-2.1,0-3.9,1.7-3.9,3.9c0,2.1,1.7,3.9,3.9,3.9C151.4,164.6,152.5,164,153.2,163.1
					C153.2,163.1,152.5,164,153.2,163.1L153.2,163.1z"/>
			</g>
		</g>
	</g>
</g>
<g>
	<path class="st4" d="M143.3,7.6c0-6.9,5.6-12.6,12.6-12.6c1.6,0,3.1,0.3,4.5,0.8c0-0.2,0-0.3,0-0.5c0-16.8-13.7-30.5-30.5-30.5
		c-16.8,0-30.5,13.7-30.5,30.5s13.7,30.5,30.5,30.5c7.6,0,14.5-2.8,19.8-7.3C145.9,16.4,143.3,12.3,143.3,7.6z"/>
	<path class="st5" d="M139.5,10l5.1-23.9c0.4-2.1-0.8-2.9-2.1-2.4L112.7-4.8c-2,0.8-2,1.9-0.3,2.4L120,0l17.7-11.1
		c0.8-0.6,1.6-0.2,1,0.3L124.3,2.1l-0.6,7.8c0.8,0,1.1-0.3,1.5-0.8l3.7-3.6l7.7,5.7C138.2,12.1,139.2,11.7,139.5,10L139.5,10z"/>
	<g id="Page-1_6_">
		<g id="flags_6_" transform="translate(-2070.000000, -2610.000000)">
			<g id="indonesia" transform="translate(2070.000000, 2610.000000)">
				<path id="white_4_" class="st0" d="M166.1,7.5C166.1,7.5,166.1,7.5,166.1,7.5c0,5.5-4.5,10-10.1,10S146,13,146,7.5c0,0,0,0,0,0
					H166.1L166.1,7.5L166.1,7.5L166.1,7.5L166.1,7.5z"/>
				<path id="red_4_" class="st2" d="M165.9,7.5c0-5.5-4.5-9.9-9.9-9.9c-5.5,0-9.9,4.5-9.9,9.9H165.9L165.9,7.5L165.9,7.5L165.9,7.5
					L165.9,7.5z"/>
			</g>
		</g>
	</g>
</g>
<g>
	<path class="st4" d="M-146.8-21.8c0-6.9,5.6-12.6,12.6-12.6c1.6,0,3.1,0.3,4.5,0.8c0-0.2,0-0.3,0-0.5c0-16.8-13.7-30.5-30.5-30.5
		c-16.8,0-30.5,13.7-30.5,30.5S-177-3.6-160.2-3.6c7.6,0,14.5-2.8,19.8-7.3C-144.2-13-146.8-17.1-146.8-21.8z"/>
	<path class="st5" d="M-150.6-19.4l5.1-23.9c0.4-2.1-0.8-2.9-2.1-2.4l-29.7,11.5c-2,0.8-2,1.9-0.3,2.4l7.6,2.4l17.7-11.1
		c0.8-0.6,1.6-0.2,1,0.3l-14.3,12.9l-0.6,7.8c0.8,0,1.1-0.3,1.5-0.8l3.7-3.6l7.7,5.7C-152-17.3-151-17.7-150.6-19.4L-150.6-19.4z"/>
	<g id="Page-1_7_">
		<g id="flags_7_" transform="translate(-180.000000, -6120.000000)">
			<g id="turkey_2_" transform="translate(180.000000, 6120.000000)">
				<circle id="red_5_" class="st0" cx="-134.2" cy="-21.6" r="10"/>
				<path id="white_5_" class="st0" d="M-129.2-20.6l-0.8,0.8l-0.2-1.1l-1-0.5l1-0.5l0.2-1.1l0.8,0.8l1.1-0.2l-0.5,1l0.5,1
					L-129.2-20.6L-129.2-20.6z M-131.4-19.2c-0.8,1.5-2.5,2.6-4.4,2.6c-2.7,0-5-2.2-5-5s2.2-5,5-5c1.9,0,3.5,1,4.4,2.6
					c-0.7-0.9-1.8-1.5-3-1.5c-2.1,0-3.9,1.7-3.9,3.9s1.7,3.9,3.9,3.9C-133.2-17.7-132.1-18.3-131.4-19.2
					C-131.4-19.2-132.1-18.3-131.4-19.2L-131.4-19.2z"/>
			</g>
		</g>
	</g>
	<g>
		<g>
			<path class="st4" d="M-134-31.7c-5.6,0-10.2,4.6-10.2,10.2c0,5.2,3.9,9.5,8.9,10.1c0.3,0.1,0.6,0.1,1,0.1c0.1,0,0.2,0,0.3,0
				c5.6-0.1,10.1-4.6,10.1-10.2C-123.8-27.1-128.3-31.7-134-31.7L-134-31.7z M-135.6-12.2c-4.4-0.8-7.7-4.6-7.7-9.2
				c0-0.7,0.1-1.3,0.2-1.9c0.4,0.4,1.4,0.4,1.6-0.2c0.4,0.2,1,0.3,1,0.8c0,1.6,0.1,3.4,1.5,3.4c0,0,0.8,0.3,1.2,1.3
				c0.1,0.3,0.6,0,1.2,0c0.3,0,0,0.5,0,1.5c0,1,2.2,2.6,2.2,2.6c0,0.7,0,1.2,0.1,1.7C-134.8-12.4-135.3-12.3-135.6-12.2L-135.6-12.2
				z M-131.7-12.4c0-0.2-0.3-0.4-0.6-0.3c0.3-1.3,0.5-2.1,1.1-2.6c0.9-0.8,0.1-1.7-0.6-1.6c-0.6,0.1-0.2-0.7-0.7-0.7
				c-0.5,0-1.2-1-1.9-1.4c-0.4-0.2-0.8-0.7-1.3-0.7c-0.5,0-1.3,0.4-1.3,0.1c0-1.1-0.1-2-0.1-2.3c0-0.3-0.2-0.1,0.5-0.1
				c0.4,0,0.2-0.8,0.6-0.8c0.4,0,1.3,0.3,1.5,0.2c0.2-0.1,1.5,3.5,1.5,0.6c0-0.3-0.2-0.9,0-1.3c0.7-1.3,1.4-2.3,1.3-2.5
				c0-0.1-0.7-0.2-1.3,0c-0.2,0.1,0.1,0.4-0.2,0.4c-1,0.2-1.9-0.3-1.6-0.7c0.3-0.5,1.5-0.2,1.6-1.2c0.1-0.6,0.1-1.2,0.1-1.7
				c1.3,0.2,1.2-1.7-0.8-2c4,0,7.5,2.7,8.7,6.3c-0.1-0.1-0.1-0.1-0.2-0.1c-0.6-1.5-2.1-0.4-1.6,0.9c-2.7,2.1-2,3.5-1.1,4.3
				c0.5,0.4,0.9,1.1,1.2,1.5c-0.3,0.9,1.1,0.5,1.9-1C-125.9-15.7-128.4-13.2-131.7-12.4L-131.7-12.4z M-125.4-23.3
				c0.1,0.7,0.2,1.3,0.2,2c0-0.5-0.1-1-0.2-1.5C-125.4-23-125.4-23.1-125.4-23.3L-125.4-23.3z M-125.4-23.3"/>
		</g>
	</g>
</g>
<g>
	<path class="st4" d="M176.8,79.9c0-6.9,5.6-12.6,12.6-12.6c1.6,0,3.1,0.3,4.5,0.8c0-0.2,0-0.3,0-0.5c0-16.8-13.7-30.5-30.5-30.5
		c-16.8,0-30.5,13.7-30.5,30.5s13.7,30.5,30.5,30.5c7.6,0,14.5-2.8,19.8-7.3C179.4,88.7,176.8,84.6,176.8,79.9z"/>
	<path class="st5" d="M173,82.3l5.1-23.9c0.4-2.1-0.8-2.9-2.1-2.4l-29.7,11.5c-2,0.8-2,1.9-0.3,2.4l7.6,2.4l17.7-11.1
		c0.8-0.6,1.6-0.2,1,0.3l-14.3,12.9l-0.6,7.8c0.8,0,1.1-0.3,1.5-0.8l3.7-3.6l7.7,5.7C171.6,84.4,172.6,84,173,82.3L173,82.3z"/>
	<g id="Page-1_9_">
		<g id="flags_9_" transform="translate(-180.000000, -6120.000000)">
			<g id="turkey_4_" transform="translate(180.000000, 6120.000000)">
				<circle id="red_7_" class="st2" cx="189.4" cy="80.1" r="10"/>
				<path id="white_7_" class="st2" d="M194.4,81.1l-0.8,0.8l-0.2-1.1l-1-0.5l1-0.5l0.2-1.1l0.8,0.8l1.1-0.2l-0.5,1l0.5,1
					L194.4,81.1L194.4,81.1z M192.2,82.5c-0.8,1.5-2.5,2.6-4.4,2.6c-2.7,0-5-2.2-5-5c0-2.7,2.2-5,5-5c1.9,0,3.5,1,4.4,2.6
					c-0.7-0.9-1.8-1.5-3-1.5c-2.1,0-3.9,1.7-3.9,3.9c0,2.1,1.7,3.9,3.9,3.9C190.4,84,191.5,83.4,192.2,82.5
					C192.2,82.5,191.5,83.4,192.2,82.5L192.2,82.5z"/>
			</g>
		</g>
	</g>
	<text transform="matrix(1 0 0 1 181.3583 83.0271)" class="st5 st7 st8">CN</text>
</g>
<g>
	<path class="st4" d="M44.6,43.5c0-6.9,5.6-12.6,12.6-12.6c1.6,0,3.1,0.3,4.5,0.8c0-0.2,0-0.3,0-0.5c0-16.8-13.7-30.5-30.5-30.5
		C14.4,0.7,0.8,14.4,0.8,31.2s13.7,30.5,30.5,30.5c7.6,0,14.5-2.8,19.8-7.3C47.2,52.3,44.6,48.2,44.6,43.5z"/>
	<path class="st5" d="M40.8,45.9l5.1-23.9c0.4-2.1-0.8-2.9-2.1-2.4L14,31.1c-2,0.8-2,1.9-0.3,2.4l7.6,2.4L39,24.8
		c0.8-0.6,1.6-0.2,1,0.3L25.6,38l-0.6,7.8c0.8,0,1.1-0.3,1.5-0.8l3.7-3.6l7.7,5.7C39.5,48,40.5,47.6,40.8,45.9L40.8,45.9z"/>
	<g id="Page-1_10_">
		<g id="flags_10_" transform="translate(-180.000000, -6120.000000)">
			<g id="turkey_5_" transform="translate(180.000000, 6120.000000)">
				<circle id="red_8_" class="st6" cx="57.3" cy="43.7" r="10"/>
				<path id="white_8_" class="st6" d="M62.2,44.7l-0.8,0.8l-0.2-1.1l-1-0.5l1-0.5l0.2-1.1l0.8,0.8l1.1-0.2l-0.5,1l0.5,1L62.2,44.7
					L62.2,44.7z M60.1,46.2c-0.8,1.5-2.5,2.6-4.4,2.6c-2.7,0-5-2.2-5-5s2.2-5,5-5c1.9,0,3.5,1,4.4,2.6c-0.7-0.9-1.8-1.5-3-1.5
					c-2.1,0-3.9,1.7-3.9,3.9s1.7,3.9,3.9,3.9C58.3,47.6,59.4,47,60.1,46.2C60.1,46.2,59.4,47,60.1,46.2L60.1,46.2z"/>
			</g>
		</g>
	</g>
	<text transform="matrix(1 0 0 1 49.2341 46.6493)" class="st5 st7 st8">EN</text>
</g>
</svg>
