<svg id="图层_1" data-name="图层 1" xmlns="http://www.w3.org/2000/svg" xmlns:xlink="http://www.w3.org/1999/xlink" viewBox="0 0 136 44"><defs><style>.cls-1{fill:#fff;}.cls-2{fill:url(#未命名的渐变_23);}.cls-3{fill:url(#未命名的渐变_23-2);}.cls-4{fill:url(#未命名的渐变_23-3);}.cls-5{fill:url(#未命名的渐变_23-4);}.cls-6{fill:url(#未命名的渐变_23-5);}.cls-7{fill:url(#未命名的渐变_23-6);}.cls-8{fill:url(#未命名的渐变_23-7);}.cls-9{fill:url(#未命名的渐变_23-8);}.cls-10{fill:url(#未命名的渐变_23-9);}.cls-11{fill:url(#未命名的渐变_23-10);}.cls-12{fill:url(#未命名的渐变_23-11);}</style><linearGradient id="未命名的渐变_23" x1="23.51" y1="16.09" x2="23.51" y2="27.85" gradientUnits="userSpaceOnUse"><stop offset="0" stop-color="#00a0dd"/><stop offset="0.5" stop-color="#2f7cc0"/></linearGradient><linearGradient id="未命名的渐变_23-2" x1="95.5" y1="16.09" x2="95.5" y2="27.85" xlink:href="#未命名的渐变_23"/><linearGradient id="未命名的渐变_23-3" x1="107.18" y1="16.01" x2="107.18" y2="27.85" xlink:href="#未命名的渐变_23"/><linearGradient id="未命名的渐变_23-4" x1="122.11" y1="16.18" x2="122.11" y2="27.85" xlink:href="#未命名的渐变_23"/><linearGradient id="未命名的渐变_23-5" x1="43.3" y1="16.09" x2="43.3" y2="27.82" xlink:href="#未命名的渐变_23"/><linearGradient id="未命名的渐变_23-6" x1="12.51" y1="15.94" x2="12.51" y2="28.08" xlink:href="#未命名的渐变_23"/><linearGradient id="未命名的渐变_23-7" x1="32.86" y1="16.09" x2="32.86" y2="27.83" xlink:href="#未命名的渐变_23"/><linearGradient id="未命名的渐变_23-8" x1="84.47" y1="16.09" x2="84.47" y2="27.86" xlink:href="#未命名的渐变_23"/><linearGradient id="未命名的渐变_23-9" x1="74.49" y1="16.11" x2="74.49" y2="27.85" xlink:href="#未命名的渐变_23"/><linearGradient id="未命名的渐变_23-10" x1="63.24" y1="15.92" x2="63.24" y2="28.03" xlink:href="#未命名的渐变_23"/><linearGradient id="未命名的渐变_23-11" x1="52.95" y1="16.11" x2="52.95" y2="27.82" xlink:href="#未命名的渐变_23"/></defs><title>1</title><rect class="cls-1" width="136" height="44"/><path class="cls-2" d="M25.08,22.62a3.41,3.41,0,0,0,1.27-5.34,3.74,3.74,0,0,0-2.75-1.17c-1.4,0-2.79,0-4.19,0,0,0-.05,0-.08,0V27.82h1V23c1,0,1.95,0,2.9,0a.68.68,0,0,1,.71.42c.8,1.41,1.63,2.82,2.46,4.23.06.1.16.22.26.23.31,0,.63,0,1,0l-3-5.08ZM23.94,22c-1.18.11-2.38,0-3.59,0V17h.75c.89,0,1.79,0,2.68.06a2.38,2.38,0,0,1,2.33,2.39A2.35,2.35,0,0,1,23.94,22Z"/><path class="cls-3" d="M98.88,26.06l-.2-.26-1.83-2.71c-1.52-2.26-3-4.52-4.55-6.77-.06-.09-.17-.21-.26-.21-.3,0-.6,0-.91,0,0,.1,0,.17,0,.23v5.29a1.66,1.66,0,0,0,0,.22h0a1.66,1.66,0,0,0,0,.22V27.6a1.46,1.46,0,0,0,0,.22h1v-9.9a.76.76,0,0,1,.25.26l6.33,9.43c.07.09.18.21.28.22a6.69,6.69,0,0,0,.9,0V16.12h-1Z"/><path class="cls-4" d="M111.14,16.1,109.91,16l-.65.69c-1.54,1.68-3.13,3.33-4.71,5-.21.22-.44.43-.7.69V16.12h-1v11.7h1c0-1.08,0-2.14,0-3.19a1.78,1.78,0,0,1,.71-1.68,11.41,11.41,0,0,0,1-.9l.31.36q2.11,2.6,4.25,5.17c.08.11.2.24.31.25.35,0,.71,0,1.14,0-1.8-2.2-3.53-4.34-5.3-6.51Z"/><path class="cls-5" d="M120.12,16.18v1h6.08l0,.08-9.92,9.94.63.67,10-10V24h1V16.18Z"/><path class="cls-6" d="M43.48,16.1c-1.31,0-2.62,0-3.92,0l-.25,0v11.7h1V23.07h.4c1.17,0,2.34,0,3.5-.07A3,3,0,0,0,47,21.09a3.61,3.61,0,0,0-.47-3.73A3.76,3.76,0,0,0,43.48,16.1Zm2.05,5.4a2.12,2.12,0,0,1-1.43.64c-1.25.05-2.5,0-3.78,0V17s0,0,.07,0c1.18,0,2.37,0,3.56.06a2.27,2.27,0,0,1,2.15,1.63A2.67,2.67,0,0,1,45.53,21.5Z"/><path class="cls-7" d="M15.75,25a2.64,2.64,0,0,1-1.4,1.83,3.76,3.76,0,0,1-2.74.19,3.18,3.18,0,0,1-2.19-2.51,11,11,0,0,1,0-4.88,3.28,3.28,0,0,1,3.7-2.8,2.78,2.78,0,0,1,2.61,2c.1.31.16.62.24.94h1a4.55,4.55,0,0,0-.66-2.08A3.84,3.84,0,0,0,13,16a4.44,4.44,0,0,0-4.55,3.21,10.19,10.19,0,0,0,0,5.79A4.39,4.39,0,0,0,15,27.47a4,4,0,0,0,1.95-3.28h-1C15.87,24.47,15.83,24.73,15.75,25Z"/><path class="cls-8" d="M36.73,16.09a.39.39,0,0,0-.43.26c-.58,1-1.17,2.08-1.75,3.13s-1.11,2-1.68,3l-.33-.57Q31,19.1,29.44,16.32c-.06-.09-.16-.21-.25-.21-.34,0-.68,0-1.07,0l.17.31c1.29,2.23,2.59,4.46,3.87,6.7a1.52,1.52,0,0,1,.18.67c0,1.23,0,2.46,0,3.69v.36h1v-.38c0-1.19,0-2.39,0-3.59a1.59,1.59,0,0,1,.23-.82q1.94-3.33,3.86-6.66c0-.08.08-.16.14-.28C37.27,16.1,37,16.11,36.73,16.09Z"/><path class="cls-9" d="M85.21,16.76c-.27-.69-.27-.7-1-.66a.4.4,0,0,0-.28.19c-.69,1.8-1.36,3.61-2,5.42h0c-.71,1.86-1.42,3.71-2.12,5.57-.07.17-.13.35-.21.57.28,0,.51,0,.73,0a.37.37,0,0,0,.45-.3c.31-.9.66-1.79,1-2.7.08-.23.2-.28.43-.28.87,0,1.74,0,2.61,0,.69,0,1.38,0,2.06,0a.38.38,0,0,1,.45.3c.32.92.67,1.83,1,2.75a.37.37,0,0,0,.22.22c.29,0,.58,0,.9,0-.06-.18-.1-.33-.15-.47Q87.22,22.07,85.21,16.76Zm-3.3,5,.17.1Zm3.25,2c-.34,0-.67,0-1,0h-2l.52-1.49c.44-1.16.87-2.33,1.31-3.5l.51-1.37,2.33,6.33C86.22,23.69,85.69,23.68,85.16,23.69Z"/><path class="cls-10" d="M76.82,22.16h0a3.28,3.28,0,0,0,.45-.37,3.37,3.37,0,0,0,.61-3.59,3,3,0,0,0-2.8-2c-1.36-.11-2.72-.06-4.08-.07h-.71v1c0,1.62,0,3.25,0,4.87v5.79s0,0,0,.06h1v-.4c0-1.49,0-3,0-4.46l-.34-.4c-.11-.13-.23-.26-.35-.38.12.12.24.25.35.38l.34.4c1,0,2,0,3,0a.52.52,0,0,1,.51.3q1.25,2.17,2.52,4.34c0,.1.14.23.23.24.32,0,.65,0,1.05,0l-3-5Zm-2.64-.06c-.84,0-1.67,0-2.51,0h-.34c0-.11,0-.19,0-.28,0-1.52,0-3,0-4.56,0-.21,0-.33.28-.31.85,0,1.7,0,2.54,0a3.45,3.45,0,0,1,1.93.5,2.61,2.61,0,0,1,.42,3.79l-.25.26.22.24-.22-.24A3.13,3.13,0,0,1,74.18,22.1Z"/><path class="cls-11" d="M67.83,21.23A6.54,6.54,0,0,0,67,18a4.45,4.45,0,0,0-6-1.53h0a.53.53,0,0,0-.17.08,4.92,4.92,0,0,0-2.17,3.9c0,.78-.08,1.56-.06,2.34a6.05,6.05,0,0,0,1,3.33,4.48,4.48,0,0,0,6,1.25,4,4,0,0,0,.43-.28,5.23,5.23,0,0,0,1.79-4h0C67.81,22.46,67.84,21.85,67.83,21.23Zm-2.72,5.43h0a3.65,3.65,0,0,1-3.06.27,3.44,3.44,0,0,1-2.23-2.83,14,14,0,0,1-.15-1.84c0-.38,0-.76,0-1.14a14.94,14.94,0,0,1,.26-1.63,3.65,3.65,0,0,1,1.66-2.29,3.74,3.74,0,0,1,2.48-.29,3.31,3.31,0,0,1,2.55,2.67,14.2,14.2,0,0,1,.21,1.84c0,.31,0,.63,0,.94h0c-.07.66-.09,1.32-.21,2A3.72,3.72,0,0,1,65.11,26.66Z"/><path class="cls-12" d="M48.45,16.11V17h4V27.77a.09.09,0,0,0,0,.05h.94V17.14c0-.23.16-.19.29-.19h3.72v-.84h-9Z"/></svg>