<svg id="图层_1" data-name="图层 1" xmlns="http://www.w3.org/2000/svg" viewBox="0 0 86.2 86.2"><defs><style>.cls-1{fill:#fcb44b;}</style></defs><title>1123214</title><path class="cls-1" d="M50.3,47v.29c19.25,1,14.92,6.16-6.5,6-21.36-.55-20.16-5.16-3.93-6V47c-22.5,0-21.41,7.36-1.86,8.36C69.63,57.12,78.11,46.9,50.3,47Z" transform="translate(-2.04 -1.52)"/><path class="cls-1" d="M52.94,29.07l1,0-4.42-5v5Z" transform="translate(-2.04 -1.52)"/><polygon class="cls-1" points="39.66 17.58 35.22 17.58 35.22 11.77 39.66 17.58"/><rect class="cls-1" x="37.25" y="19.09" width="4.45" height="10" transform="translate(76.91 46.66) rotate(180)"/><path class="cls-1" d="M29.46,46S24.75,35.44,41.09,35.44H52.44a14.7,14.7,0,0,0,5.83-1.22c2.49-1.35,5.25-4.19,5.25-10.13,0,0,.28,6.92-11.91,6.92H35.55C34.44,31,23.92,31.56,29.46,46Z" transform="translate(-2.04 -1.52)"/><path class="cls-1" d="M49.23,35V55.55c.17,5.54.34,11.13.51,16.72a1.91,1.91,0,0,0,.14-.77c.08-2.08.15-4.15.24-6.22a13.7,13.7,0,0,1,.15-1.93s0,0,0,0a.41.41,0,0,1,.8.08h0c.15,3.1.28,6.2.41,9.3,0,1.27.12,2.55.18,3.82.19-3.58.3-7.16.43-10.74a2.56,2.56,0,0,1,.2-1c.17-.38.53-.39.71,0a2.44,2.44,0,0,1,.21,1c.09,3,.16,6.1.24,9.16l.12,5h.08q.26-12.18.52-24.39V35Z" transform="translate(-2.04 -1.52)"/><path class="cls-1" d="M37,37.37V56.16q.18,6,.35,11.92c.35-2.91.59-5.82.85-8.73,0-.32-.07-.83.4-.8s.34.53.35.85q.16,4.88.31,9.75c0,.63.06,1.27.1,2,0-.11.08-.14.08-.17.22-2.74.43-5.48.65-8.21q.07-.93.21-1.86l0-.07a.31.31,0,0,1,.51,0,.2.2,0,0,1,0,.08,3.31,3.31,0,0,1,.09.77l.15,5.39c.07,2.18.15,4.35.22,6.53h.07L42,56.16V37.37Z" transform="translate(-2.04 -1.52)"/><path class="cls-1" d="M45.14,87.72a43.1,43.1,0,1,1,43.1-43.1A43.16,43.16,0,0,1,45.14,87.72Zm0-81.09a38,38,0,1,0,38,38A38,38,0,0,0,45.14,6.63Z" transform="translate(-2.04 -1.52)"/></svg>