<svg id="图层_1" data-name="图层 1" xmlns="http://www.w3.org/2000/svg" viewBox="0 0 136 44"><defs><style>.cls-1{fill:#fff;}.cls-2,.cls-3{fill:#7124f0;}.cls-3{fill-rule:evenodd;}</style></defs><title>合作商logo</title><rect class="cls-1" x="-1.75" y="-0.38" width="138.7" height="44.77"/><path class="cls-2" d="M60.76,16.53a1.89,1.89,0,0,0,.67.45A2.21,2.21,0,0,0,63,17a1.89,1.89,0,0,0,.67-.45,2.19,2.19,0,0,0,.45-.67,2.33,2.33,0,0,0,0-1.59,2.07,2.07,0,0,0-.45-.68,1.83,1.83,0,0,0-.67-.46,2,2,0,0,0-.8-.16,2,2,0,0,0-.8.16,1.91,1.91,0,0,0-.67.46,2.07,2.07,0,0,0-.45.68,1.94,1.94,0,0,0-.14.79,1.81,1.81,0,0,0,.15.8A2,2,0,0,0,60.76,16.53Z"/><path class="cls-2" d="M60.4,18.54a.26.26,0,0,0-.08.13.26.26,0,0,0,0,.15V30.69a.26.26,0,0,0,0,.15.26.26,0,0,0,.08.13.29.29,0,0,0,.13.08.26.26,0,0,0,.15,0h3.1a.26.26,0,0,0,.15,0,.33.33,0,0,0,.21-.21.26.26,0,0,0,0-.15V18.82a.26.26,0,0,0,0-.15.57.57,0,0,0-.08-.13.35.35,0,0,0-.13-.08.26.26,0,0,0-.15,0h-3.1a.26.26,0,0,0-.15,0,.35.35,0,0,0-.13.08"/><path class="cls-3" d="M93.21,22a2.67,2.67,0,0,1,1.73-.57,2.57,2.57,0,0,1,1.68.57,2.46,2.46,0,0,1,.88,1.6H92.29A2.46,2.46,0,0,1,93.21,22Zm7.54,3.69a3.17,3.17,0,0,0,.18-1.24,6.81,6.81,0,0,0-.75-3.16,5.77,5.77,0,0,0-5.26-3.14,6.28,6.28,0,0,0-3.28.88,6.2,6.2,0,0,0-2.32,2.34,6.79,6.79,0,0,0-.83,3.3A6.61,6.61,0,0,0,89.34,28a6.23,6.23,0,0,0,2.38,2.37,6.93,6.93,0,0,0,3.48.88,6.58,6.58,0,0,0,2.55-.49,6.78,6.78,0,0,0,2.14-1.44.76.76,0,0,0,.11-.14.53.53,0,0,0,0-.17.22.22,0,0,0,0-.14.36.36,0,0,0-.08-.12l-1.33-1.29a.41.41,0,0,0-.29-.15.42.42,0,0,0-.28.1A5.23,5.23,0,0,1,96.8,28a4.52,4.52,0,0,1-1.21.16,4,4,0,0,1-2.14-.52,2.64,2.64,0,0,1-1.11-1.58H100a.76.76,0,0,0,.75-.36"/><path class="cls-3" d="M108.34,21.47a2.63,2.63,0,0,0-1.72.57,2.43,2.43,0,0,0-.93,1.59h5.21A2.42,2.42,0,0,0,110,22,2.56,2.56,0,0,0,108.34,21.47Zm6,3a3.17,3.17,0,0,1-.18,1.24.76.76,0,0,1-.75.36h-7.66a2.64,2.64,0,0,0,1.11,1.58,4.11,4.11,0,0,0,2.14.51A4.89,4.89,0,0,0,110.2,28a4.74,4.74,0,0,0,1.24-.6.48.48,0,0,1,.29-.1.4.4,0,0,1,.28.16l1.33,1.28a.42.42,0,0,1,.08.12.35.35,0,0,1,0,.14.48.48,0,0,1,0,.17.38.38,0,0,1-.11.14,6.85,6.85,0,0,1-2.13,1.44,6.76,6.76,0,0,1-2.55.49,7,7,0,0,1-3.48-.88A6.37,6.37,0,0,1,102.75,28a6.59,6.59,0,0,1-.84-3.3,6.71,6.71,0,0,1,.82-3.31,6.38,6.38,0,0,1,5.59-3.22,5.76,5.76,0,0,1,5.26,3.15,6.77,6.77,0,0,1,.75,3.15"/><path class="cls-3" d="M124,26.91a2.71,2.71,0,0,1-2,.83,2.74,2.74,0,0,1-2.06-.83,3,3,0,0,1-.77-2.14,3.11,3.11,0,0,1,.77-2.16,2.67,2.67,0,0,1,.93-.67,2.77,2.77,0,0,1,1.13-.21,2.8,2.8,0,0,1,1.11.2,2.74,2.74,0,0,1,.93.65,3,3,0,0,1,.83,2.19,2.89,2.89,0,0,1-.83,2.14Zm1.55-7.84a5.76,5.76,0,0,0-3.12-.88A4.41,4.41,0,0,0,118.83,20l-.13-1.16q-.06-.39-.39-.39h-2.63l-.15,0a.57.57,0,0,0-.13.08.39.39,0,0,0-.08.14.25.25,0,0,0,0,.15V35.6a.3.3,0,0,0,0,.16.46.46,0,0,0,.08.13.57.57,0,0,0,.13.08.39.39,0,0,0,.15,0h3.1a.39.39,0,0,0,.15,0,.57.57,0,0,0,.13-.08.46.46,0,0,0,.08-.13.3.3,0,0,0,0-.16V30a4.42,4.42,0,0,0,3.31,1.31,5.91,5.91,0,0,0,3.12-.85,6,6,0,0,0,2.19-2.35,6.8,6.8,0,0,0,.8-3.28,7,7,0,0,0-.8-3.32A5.89,5.89,0,0,0,125.59,19.07Z"/><path class="cls-2" d="M73.52,18.44a.26.26,0,0,1,.15,0,.35.35,0,0,1,.13.08.26.26,0,0,1,.08.13.4.4,0,0,1,0,.15v2.35a.4.4,0,0,1,0,.15.33.33,0,0,1-.21.21.4.4,0,0,1-.15,0H71.46v9.13a.4.4,0,0,1,0,.15.26.26,0,0,1-.08.13.35.35,0,0,1-.13.08.26.26,0,0,1-.15,0H68a.26.26,0,0,1-.15,0,.33.33,0,0,1-.21-.21.26.26,0,0,1,0-.15V21.56H65.52a.39.39,0,0,1-.15,0,.57.57,0,0,1-.13-.08.35.35,0,0,1-.08-.13.29.29,0,0,1,0-.16V18.83a.3.3,0,0,1,0-.16.46.46,0,0,1,.08-.13.57.57,0,0,1,.13-.08l.15,0h2.07V15a.25.25,0,0,1,0-.15.39.39,0,0,1,.08-.14.57.57,0,0,1,.13-.08l.15,0h3.1l.16,0,.13.08a.64.64,0,0,1,.08.14.36.36,0,0,1,0,.15v3.48Z"/><path class="cls-3" d="M52.73,27.54A3,3,0,0,0,54.62,27a1.94,1.94,0,0,0,.69-1.63,1.75,1.75,0,0,0-.69-1.54,3.09,3.09,0,0,0-1.89-.52H49.84v4.23Zm1.5-9.34q0-1.65-2-1.65H49.84V20h2.35a2.26,2.26,0,0,0,1.49-.44,1.67,1.67,0,0,0,.55-1.36Zm1.54,3.22A4.9,4.9,0,0,1,58.25,23a4.18,4.18,0,0,1,1.06,2.86,4.66,4.66,0,0,1-1.68,3.92,8.14,8.14,0,0,1-5.05,1.29H46.23a.26.26,0,0,1-.15,0,.33.33,0,0,1-.21-.21.26.26,0,0,1,0-.15V13.41a.29.29,0,0,1,0-.16.35.35,0,0,1,.08-.13.57.57,0,0,1,.13-.08.39.39,0,0,1,.15,0h6.32a6.32,6.32,0,0,1,2.91.62,4.24,4.24,0,0,1,1.86,1.67A4.44,4.44,0,0,1,58,17.69,4.19,4.19,0,0,1,57.33,20a3.39,3.39,0,0,1-1.55,1.4"/><path class="cls-2" d="M89.91,30.94a.4.4,0,0,0-.08-.23L82.65,21l6.93-7.46a.36.36,0,0,0,.13-.23.17.17,0,0,0,0-.1.13.13,0,0,0-.07-.06.24.24,0,0,0-.11-.06.27.27,0,0,0-.13,0h-3.5a.53.53,0,0,0-.24.06.48.48,0,0,0-.2.15l-6.64,7.2v-7a.77.77,0,0,0,0-.15.3.3,0,0,0-.09-.13.22.22,0,0,0-.13-.08.37.37,0,0,0-.15,0H75.3a.4.4,0,0,0-.15,0,.26.26,0,0,0-.13.08.29.29,0,0,0-.08.13.26.26,0,0,0,0,.15V30.78a.25.25,0,0,0,0,.15.39.39,0,0,0,.08.14.57.57,0,0,0,.13.08l.15,0h3.1l.15,0a.57.57,0,0,0,.13-.08.39.39,0,0,0,.08-.14.25.25,0,0,0,0-.15V25.2l1.53-1.65,5.5,7.39a.55.55,0,0,0,.2.17.58.58,0,0,0,.26.06H89.6c.21,0,.31-.08.31-.23"/><path class="cls-3" d="M38.11,14.31v1.76a1.05,1.05,0,0,1-.13.49,1,1,0,0,1-.36.35l-5.68,3.28L37,23.12a2.27,2.27,0,0,1,.8.8A2.2,2.2,0,0,1,38.11,25v4.7a2.23,2.23,0,0,1-.29,1.1,2.27,2.27,0,0,1-.8.8L23.65,39.27a2.08,2.08,0,0,1-1.09.3,2.11,2.11,0,0,1-1.09-.3L17.1,36.75a.53.53,0,0,1-.24-.42.4.4,0,0,1,.07-.24.42.42,0,0,1,.17-.18L31.54,27.6a.2.2,0,0,0,.09-.09.27.27,0,0,0,0-.12.24.24,0,0,0,0-.12.2.2,0,0,0-.09-.09l-5.36-3.1a1.05,1.05,0,0,0-.49-.13,1,1,0,0,0-.48.13L10.54,32.53a.72.72,0,0,1-.73,0l-1.66-1a2.19,2.19,0,0,1-.8-.8,2.14,2.14,0,0,1-.3-1.1V27.76a.69.69,0,0,1,.1-.37.62.62,0,0,1,.27-.26l21-12.08.09-.09a.22.22,0,0,0,0-.25.24.24,0,0,0-.09-.08l-5.36-3.11a1,1,0,0,0-1,0L7.79,19.76a.5.5,0,0,1-.24.06.54.54,0,0,1-.25-.06.58.58,0,0,1-.17-.18.44.44,0,0,1-.07-.24V14.28a2.11,2.11,0,0,1,.3-1.09,2.19,2.19,0,0,1,.8-.8L21.52,4.72a2.17,2.17,0,0,1,2.17,0L37,12.41a2.19,2.19,0,0,1,.8.8A2.23,2.23,0,0,1,38.11,14.31Z"/></svg>