<svg id="图层_1" data-name="图层 1" xmlns="http://www.w3.org/2000/svg" viewBox="0 0 136 44"><defs><style>.cls-1{fill:#fff;}.cls-2{fill:#231815;}</style></defs><title>1</title><rect class="cls-1" width="136" height="44"/><path class="cls-2" d="M32.43,27.36l-.39,0-3-.39c-.15,0-.56-.18-.71-.23-.55-.19-.84.22-1.15.53q-2,2-4,4c-2.53,2.53-5,5.06-7.57,7.58a1.43,1.43,0,0,1-2.38-.63,1.27,1.27,0,0,1,.46-1.25l7-7c1.39-1.39,2.76-2.79,4.17-4.16.39-.38.31-.58-.07-.91-.6-.53-1.15-1.12-1.71-1.7-.27-.27-.39-.63-.85-.05a26.86,26.86,0,0,1-2.16,2.1c-1,1-2,2.11-3,3.15-.74.74-1.53,1.41-2.27,2.15-1.21,1.21-2.38,2.45-3.58,3.66a1.41,1.41,0,0,1-1.53.34,1.27,1.27,0,0,1-.85-1.33,2,2,0,0,1,.48-1q5.78-5.82,11.6-11.59c.36-.36.3-.62.19-1.07a11.21,11.21,0,0,1-.5-3.73c0-.16,0-.32,0-.48l-.14-.06c-1.19,1.2-2.36,2.42-3.55,3.62q-3,3-5.93,5.93a8,8,0,0,1-.94.8,1.14,1.14,0,0,1-1.61-.33,1.15,1.15,0,0,1,.09-1.73c.73-.8,1.49-1.58,2.25-2.35,2.15-2.15,4.32-4.29,6.48-6.44s4.3-4.17,6.36-6.34a11.91,11.91,0,0,1,4.53-3,13,13,0,0,1,2.14-.58A8,8,0,0,1,32,4.79a11,11,0,0,1,3,.59,12.31,12.31,0,0,1,3.14,1.44A11.14,11.14,0,0,1,41.19,10a12.36,12.36,0,0,1,1.58,4,10.89,10.89,0,0,1-.1,4.72,13.31,13.31,0,0,1-4.08,6.41Q31.88,31.7,25.29,38.4a1.34,1.34,0,0,1-2.41-.63,1.49,1.49,0,0,1,.4-1.19C25.11,34.7,27,32.87,28.84,31l3.64-3.53Zm-.67-2.85c4.68.26,8.54-4,8.54-8.34a8.52,8.52,0,0,0-17-.28A8.41,8.41,0,0,0,31.76,24.51Z"/><path class="cls-2" d="M37.5,16.59a5.21,5.21,0,0,1-1.26,3.26c-.77.81-1.29,1-2.19.23a1.42,1.42,0,0,1,0-1.9,2.11,2.11,0,0,0,0-3.14,1.47,1.47,0,0,1-.27-1.51,1.31,1.31,0,0,1,1.35-.82,2,2,0,0,1,1.06.63A5.56,5.56,0,0,1,37.5,16.59Z"/><path class="cls-2" d="M49.93,21.65c.13-3.3,1.68-5.09,4.64-5.34,2.22.18,3.47,1.14,3.77,2.86A1.35,1.35,0,0,1,57,20.61c-.46.07-.83-.22-1.13-.89a1.54,1.54,0,0,0-1.41-.88c-1,.11-1.58,1.05-1.62,2.81s.59,2.72,1.76,2.76c.46.07.92-.28,1.37-1.05A1.2,1.2,0,0,1,57,22.7a1.33,1.33,0,0,1,1.32,1.38c-.2,1.65-1.45,2.57-3.77,2.76C51.54,26.72,50,25,49.93,21.65Z"/><path class="cls-2" d="M59.12,23q.09-3.69,3.66-3.86,3.52.16,3.67,3.86-.11,3.69-3.67,3.75T59.12,23Zm4.79.06c0-1.29-.41-1.95-1.13-2s-1.07.7-1.07,2S62.07,25,62.78,25,63.87,24.34,63.91,23.09Z"/><path class="cls-2" d="M67.62,25.46V20.61c0-.92.42-1.4,1.27-1.44s1.29.52,1.32,1.44v4.85a1.23,1.23,0,0,1-1.32,1.32A1.18,1.18,0,0,1,67.62,25.46Zm0-8.22a1.23,1.23,0,1,1,2.44,0,1.23,1.23,0,1,1-2.44,0Z"/><path class="cls-2" d="M76,25.46V22.7c0-.81-.36-1.23-1-1.27s-.93.52-.93,1.44v2.59a1.23,1.23,0,0,1-1.32,1.32,1.18,1.18,0,0,1-1.27-1.32V20.55c0-.92.37-1.38,1.22-1.38.69,0,1.08.46,1.18,1.38A2.31,2.31,0,0,1,76,19.17c1.62,0,2.45,1,2.49,2.81v3.48a1.22,1.22,0,0,1-1.27,1.32A1.18,1.18,0,0,1,76,25.46Z"/><path class="cls-2" d="M84.33,20.27V17.85c0-1,.43-1.49,1.27-1.49s1.19.5,1.22,1.49v7.66c0,.85-.37,1.27-1.12,1.27a1.06,1.06,0,0,1-1.12-1.21h0c-.23.77-.88,1.17-2,1.21-1.89,0-2.86-1.29-2.93-3.75.16-2.46,1.13-3.75,2.88-3.86A2.23,2.23,0,0,1,84.33,20.27Zm0,2.76c0-1-.36-1.52-1-1.6-.78,0-1.17.59-1.17,1.66s.38,1.71,1.12,1.71S84.35,24.21,84.38,23Z"/><path class="cls-2" d="M95.13,21.32v3.25c0,.19,0,.45.05.78s0,.44,0,.55c0,.55-.44.84-1.22.88s-1.21-.35-1.27-1.05a2.73,2.73,0,0,1-2.3,1.05C88.81,26.74,88,26,88,24.63s1.07-2.17,3.32-2.32c.94,0,1.38-.27,1.32-.71s-.34-.72-1-.72a2.19,2.19,0,0,0-1.32.55,1.53,1.53,0,0,1-.92.44q-.84,0-.84-.93.19-1.61,3.18-1.77C94,19.25,95.1,20,95.13,21.32Zm-2.49,2.92v-.82a2,2,0,0,1-1,.44A1.58,1.58,0,0,0,91,24a.6.6,0,0,0-.34.6.72.72,0,0,0,.78.72A1.14,1.14,0,0,0,92.64,24.24Z"/><path class="cls-2" d="M96.4,25.46V20.61c0-.89.39-1.36,1.17-1.44s1.1.54,1.13,1.49v.55h0c.42-1.36,1-2,1.66-2s1,.48,1.07,1.33a1.32,1.32,0,0,1-.73,1.32l-.68.16A1.27,1.27,0,0,0,99,23.47v2a1.23,1.23,0,0,1-1.32,1.32A1.18,1.18,0,0,1,96.4,25.46Z"/><path class="cls-2" d="M102.46,25.24a1.52,1.52,0,0,1,1.42-1.6,1.55,1.55,0,0,1,1.37,1.6c-.07,1-.53,1.45-1.37,1.48S102.53,26.19,102.46,25.24Z"/><path class="cls-2" d="M106.42,23c.06-2.46,1.29-3.75,3.66-3.86q3.53.16,3.67,3.86-.1,3.69-3.67,3.75T106.42,23Zm4.79.06c0-1.29-.41-1.95-1.13-2s-1.07.7-1.07,2,.36,1.91,1.07,1.87S111.17,24.34,111.21,23.09Z"/><path class="cls-2" d="M114.87,25.46V20.61c0-.89.39-1.36,1.18-1.44s1.09.54,1.12,1.49v.55h0c.42-1.36,1-2,1.66-2s1,.48,1.07,1.33a1.32,1.32,0,0,1-.73,1.32l-.68.16a1.28,1.28,0,0,0-1.08,1.49v2a1.23,1.23,0,0,1-1.32,1.32A1.18,1.18,0,0,1,114.87,25.46Z"/><path class="cls-2" d="M125.43,26.23v-1a1.78,1.78,0,0,1-1.81,1c-1.83-.15-2.75-1.32-2.79-3.53s1-3.38,2.84-3.53a2,2,0,0,1,2,1.33h0c0-.85.38-1.29,1.13-1.33s1.12.46,1.12,1.38V26.5c0,2-1.22,3-3.67,3-1.89,0-2.91-.61-3.07-1.71,0-.66.34-1,.92-1a1.66,1.66,0,0,1,.79.39,2.09,2.09,0,0,0,1.17.49A1.22,1.22,0,0,0,125.43,26.23Zm.09-3.47c0-1-.39-1.51-1.07-1.55s-1.11.52-1.08,1.55.33,1.58,1.08,1.54S125.49,23.78,125.52,22.76Z"/></svg>