<?xml version="1.0" encoding="utf-8"?>
<!-- Generator: Adobe Illustrator 24.0.0, SVG Export Plug-In . SVG Version: 6.00 Build 0)  -->
<svg version="1.1" id="图层_1" xmlns="http://www.w3.org/2000/svg" xmlns:xlink="http://www.w3.org/1999/xlink" x="0px" y="0px"
	 viewBox="0 0 136 44" style="enable-background:new 0 0 136 44;" xml:space="preserve">
<style type="text/css">
	.st0{fill:#1E8BCA;}
	.st1{opacity:0.4;fill:#FFFFFF;}
	.st2{fill:#FFFFFF;}
	.st3{fill-rule:evenodd;clip-rule:evenodd;fill:#DB4B35;}
	.st4{fill-rule:evenodd;clip-rule:evenodd;fill:#129B7F;}
	.st5{fill-rule:evenodd;clip-rule:evenodd;fill:#FFFFFF;}
	.st6{fill-rule:evenodd;clip-rule:evenodd;fill:#040000;}
	.st7{fill-rule:evenodd;clip-rule:evenodd;fill:#2479AE;}
	.st8{fill-rule:evenodd;clip-rule:evenodd;fill:#1AAF5D;}
	.st9{fill:#1AAF5D;}
	.st10{fill:#1F64C9;}
	.st11{fill-rule:evenodd;clip-rule:evenodd;fill:#E87E04;}
	.st12{fill-rule:evenodd;clip-rule:evenodd;fill:#227FBB;}
	.st13{fill:#DB4B35;}
</style>
<rect class="st0" width="136" height="44"/>
<path class="st1" d="M125.5,39l3.5-16.6c0.3-1.5-0.5-2-1.5-1.7l-20.6,8c-1.4,0.5-1.4,1.3-0.2,1.7l5.3,1.6l12.3-7.7
	c0.6-0.4,1.1-0.2,0.7,0.2l-9.9,9l-0.4,5.4c0.5,0,0.8-0.2,1.1-0.5l2.6-2.5l5.4,3.9C124.5,40.5,125.2,40.2,125.5,39L125.5,39z"/>
<g>
	<g>
		<circle class="st8" cx="22.1" cy="22" r="15.2"/>
		<g>
			<path class="st2" d="M12.3,27.5V16.5h8.5v2h-6v2.4h5.6v2h-5.6v2.6h6.1v2H12.3z"/>
			<path class="st2" d="M29.4,27.5l-4.3-6.9c-0.2-0.3-0.4-0.7-0.6-1h0c0.1,0.5,0.1,1.1,0.1,1.9v6.1h-2.3V16.5h2.7l4.2,6.7
				c0.2,0.3,0.4,0.7,0.6,1.1l0,0c0-0.5-0.1-1.2-0.1-1.7v-6.1h2.3v11.1H29.4z"/>
		</g>
	</g>
	<g>
		<path class="st2" d="M48,24.3v0.9h-4.7v-7.9h4.4v0.9h-3.4v2.5h3.1v0.9h-3.1v2.8H48z"/>
		<path class="st2" d="M53.8,20.9v4.3h-1v-3.9c0-0.9-0.2-1.5-1.2-1.5c-0.8,0-1.5,0.1-1.9,1.2v4.2h-1v-6.2h1v0.9c0.4-0.8,1.2-1,2-1
			C53.3,18.9,53.8,19.8,53.8,20.9z"/>
		<path class="st2" d="M60.1,19.1v5.7c0,1.7-0.9,2.7-3,2.7c-0.5,0-1.1-0.1-1.5-0.1v-0.8c0.5,0.1,1,0.1,1.5,0.1c1.4,0,2-0.6,2-2v-0.6
			c-0.3,0.7-0.8,1.2-2,1.2c-2.1,0-2.6-1.3-2.6-3.1c0-1.7,0.5-3.1,2.6-3.1c1.2,0,1.8,0.5,2,1.3v-1.2H60.1z M59.1,22.1
			c0-1.4-0.4-2.3-1.9-2.3c-1.5,0-1.6,1.1-1.6,2.3c0,1.3,0.2,2.3,1.6,2.3C58.7,24.4,59.1,23.5,59.1,22.1z"/>
		<path class="st2" d="M61.2,24v-7.4h1v7.2c0,0.6,0.2,0.7,0.6,0.7c0.1,0,0.3,0,0.5-0.1v0.8c-0.2,0-0.4,0.1-0.6,0.1
			C61.7,25.3,61.2,24.9,61.2,24z"/>
		<path class="st2" d="M63.5,17.3c0-0.5,0.2-0.6,0.6-0.6c0.4,0,0.6,0.1,0.6,0.6c0,0.5-0.2,0.6-0.6,0.6
			C63.7,17.9,63.5,17.8,63.5,17.3z M63.6,19.1h1v6.2h-1V19.1z"/>
		<path class="st2" d="M65.4,25.1v-0.8c0.4,0.1,1.2,0.2,1.8,0.2c0.9,0,1.4-0.2,1.4-0.9c0-0.7-0.2-0.9-1.4-1.2
			c-1.4-0.3-1.7-0.7-1.7-1.8c0-1,0.8-1.7,2.2-1.7c0.6,0,1.3,0.1,1.5,0.2L69.2,20c-0.4-0.1-0.9-0.2-1.5-0.2c-0.9,0-1.3,0.2-1.3,0.9
			c0,0.6,0.2,0.8,1.2,1c1.4,0.3,1.9,0.7,1.9,1.9c0,1.2-0.8,1.8-2.3,1.8C66.6,25.3,65.7,25.2,65.4,25.1z"/>
		<path class="st2" d="M75.3,20.9v4.3h-1v-3.9c0-0.9-0.2-1.5-1.2-1.5c-0.8,0-1.5,0.1-1.9,1.2v4.2h-1v-8.7h1v3.4c0.4-0.8,1.2-1,2-1
			C74.8,18.9,75.3,19.8,75.3,20.9z"/>
		<path class="st2" d="M78.2,21.3c0-3.1,1.4-4.1,3.8-4.1c0.7,0,1.6,0.1,2.1,0.3v0.9c-0.5-0.2-1.2-0.3-2-0.3c-1.8,0-2.8,0.6-2.8,3.2
			c0,2.7,1,3.2,2.7,3.2c0.4,0,0.9,0,1.3-0.1v-2.5h-1.6V21h2.6v4c-0.6,0.2-1.4,0.3-2.4,0.3C79.6,25.3,78.2,24.6,78.2,21.3z"/>
		<path class="st2" d="M88.4,18.9l0,0.9h-0.1c-0.8,0-1.6,0.3-1.9,1.4v4h-1v-6.2h1v1.1c0.4-1,1.2-1.2,2-1.2H88.4z"/>
		<path class="st2" d="M88.2,22.1c0-2.5,1-3.2,2.8-3.2c1.8,0,2.8,0.7,2.8,3.2c0,2.5-1,3.2-2.8,3.2C89.2,25.3,88.2,24.6,88.2,22.1z
			 M92.8,22.1c0-1.8-0.5-2.4-1.8-2.4c-1.4,0-1.8,0.6-1.8,2.4s0.5,2.4,1.8,2.4C92.4,24.5,92.8,23.9,92.8,22.1z"/>
		<path class="st2" d="M99.6,19.1v6.2h-0.8l-0.1-0.9c-0.4,0.8-1.2,1-1.9,1c-1.6,0-2.1-0.8-2.1-2v-4.3h1V23c0,0.9,0.2,1.5,1.2,1.5
			c0.8,0,1.5-0.2,1.8-1.2v-4.2H99.6z"/>
		<path class="st2" d="M106.2,22.1c0,1.7-0.5,3.2-2.5,3.2c-1.2,0-1.7-0.5-2-1.2v3.4h-1v-8.4h1v1.1c0.3-0.7,0.8-1.2,2-1.2
			C105.8,18.9,106.2,20.3,106.2,22.1z M105.2,22.1c0-1.3-0.2-2.4-1.6-2.4c-1.5,0-1.9,0.9-1.9,2.4c0,1.4,0.4,2.4,1.9,2.4
			C105,24.5,105.2,23.3,105.2,22.1z"/>
	</g>
</g>
</svg>
