<svg xmlns="http://www.w3.org/2000/svg" viewBox="0 0 138.7 44.77"><defs><style>.cls-1{fill:#fff;}.cls-2{fill:#010101;}.cls-3{fill:#020202;}</style></defs><title>资源 4</title><g id="图层_2" data-name="图层 2"><g id="图层_1-2" data-name="图层 1"><rect class="cls-1" width="138.7" height="44.77"/><path class="cls-2" d="M19.92,11.69l1,.15a10.2,10.2,0,0,1,5.46,2.59,10.46,10.46,0,0,1,3.42,6.48,8.21,8.21,0,0,1,0,2.84,3.44,3.44,0,0,1-3.64,2.85,3,3,0,0,1-2.57-2.32,6.76,6.76,0,0,1-.16-1.9V21l-1,1.53c-.62,1-1.23,2-1.88,3a3.19,3.19,0,0,1-.82.86,1.33,1.33,0,0,1-2.15-.72,4.16,4.16,0,0,1-.18-1.11c0-1,0-2.09,0-3.13v-.26l-.05,0L13,28.2a7,7,0,0,0,1.6,1.43,8.3,8.3,0,0,0,4.79,1.49,8.41,8.41,0,0,0,5.83-2.28,1,1,0,0,1,1.42,0,1,1,0,0,1-.07,1.42A10.37,10.37,0,0,1,20.78,33a10.25,10.25,0,0,1-5.47-.71,10.42,10.42,0,0,1-4.41-3.47,10.76,10.76,0,0,1,.67-13.59,10.23,10.23,0,0,1,6.62-3.42c.17,0,.33-.06.5-.09ZM11.74,26.48l.43-.7c1.3-2.08,2.59-4.16,3.9-6.23A11.16,11.16,0,0,1,17.2,18a1.18,1.18,0,0,1,1.92.31,3,3,0,0,1,.25,1.38c0,1.36,0,2.71,0,4.11l.13-.14c.54-.88,1.07-1.75,1.62-2.62a10.17,10.17,0,0,1,1.47-2,1.48,1.48,0,0,1,2.47.32,3.09,3.09,0,0,1,.28,1.17c0,.81,0,1.63,0,2.45a3.31,3.31,0,0,0,.1.83,1.09,1.09,0,0,0,1.87.61,1.51,1.51,0,0,0,.57-1A8.92,8.92,0,0,0,28,21.64a8.71,8.71,0,0,0-8.48-8,8.14,8.14,0,0,0-3.41.66,8.72,8.72,0,0,0-5.25,9.22A8.71,8.71,0,0,0,11.74,26.48Z"/><path class="cls-2" d="M130.66,23.65c-.11.31-.2.62-.32.92a3,3,0,0,1-4.48,1.54l-.14-.05c0,.76,0,1.5,0,2.23a1.48,1.48,0,0,1-.31.78.79.79,0,0,1-1,.21.88.88,0,0,1-.6-.78c0-.1,0-.21,0-.31V20.66c0-.49.24-.83.61-.88s.73.19.86.74A3.15,3.15,0,0,1,130.48,22c.05.21.12.42.18.63Zm-1.84-.45,0,0c0-.19,0-.38-.08-.56a1.46,1.46,0,0,0-2.37-.83,1.84,1.84,0,0,0-.06,2.67,1.34,1.34,0,0,0,2.13-.21A6,6,0,0,0,128.82,23.2Z"/><path class="cls-2" d="M71.4,21.35l-1.61,1.73c-.2.21-.4.43-.61.64a.55.55,0,0,1-.9,0l-1.72-1.86c-.12-.13-.23-.28-.34-.41l-.1.05v3.95a1,1,0,0,1-.77,1,.89.89,0,0,1-1.1-.86c0-.7,0-1.4,0-2.1v-6c0-.19,0-.44.2-.47a.74.74,0,0,1,.53.19c.75.81,1.48,1.64,2.21,2.46.42.47.82.93,1.24,1.39.29.31.38.31.66,0L72,17.78a7.79,7.79,0,0,1,.62-.66.54.54,0,0,1,.45-.1.5.5,0,0,1,.22.39q0,4,0,8a1,1,0,0,1-.55,1,.88.88,0,0,1-1-.13.9.9,0,0,1-.34-.76Z"/><path class="cls-2" d="M106.47,21.71a4.82,4.82,0,0,1,5.22-4.85,4.77,4.77,0,0,1,2.23.77.94.94,0,0,1,.5,1,.78.78,0,0,1-.65.68,1.26,1.26,0,0,1-.72-.14,3.24,3.24,0,0,0-2.32-.49,2.87,2.87,0,0,0-2.33,2.49,3.14,3.14,0,0,0,1.06,3.07,3,3,0,0,0,3.88-.16.86.86,0,0,1,1.08-.12.81.81,0,0,1,.13,1.28,4.61,4.61,0,0,1-4.17,1.24A4.79,4.79,0,0,1,106.47,21.71Z"/><path class="cls-2" d="M36,21.72a4.94,4.94,0,0,1,5.31-4.86,4.82,4.82,0,0,1,2.32.83A.93.93,0,0,1,44,18.94a.83.83,0,0,1-1.26.23,3,3,0,0,0-3.4,0,2.91,2.91,0,0,0-1.22,2,3.14,3.14,0,0,0,1,3.13,2.88,2.88,0,0,0,3.26.26c.27-.15.5-.35.75-.51a.85.85,0,0,1,.93-.06.76.76,0,0,1,.38.84,1,1,0,0,1-.29.54,4.76,4.76,0,0,1-7.75-2C36.23,22.78,36.16,22.25,36,21.72Z"/><path class="cls-2" d="M120.58,20.69c.17-.79.7-1.12,1.23-.8a.83.83,0,0,1,.34.76q0,2.48,0,5a1.07,1.07,0,0,1-.12.51.66.66,0,0,1-.7.37.7.7,0,0,1-.63-.57c0-.09,0-.18,0-.27a3,3,0,0,1-3.09.8,2.86,2.86,0,0,1-1.9-1.78A3.6,3.6,0,0,1,116,21a2.93,2.93,0,0,1,4.49-.41A.52.52,0,0,1,120.58,20.69Zm-.34,2.44V23a1.64,1.64,0,0,0-1-1.42,1.39,1.39,0,0,0-1.56.32,1.94,1.94,0,0,0,0,2.55,1.36,1.36,0,0,0,1.89.14A1.72,1.72,0,0,0,120.24,23.13Z"/><path class="cls-2" d="M79.66,20.65a4.11,4.11,0,0,1,.28-.63.6.6,0,0,1,.72-.21.69.69,0,0,1,.53.59,2.45,2.45,0,0,1,0,.27c0,1.64,0,3.28,0,4.92a1.13,1.13,0,0,1-.15.57.63.63,0,0,1-.72.31.66.66,0,0,1-.57-.62l0-.25a2.63,2.63,0,0,1-2.06.95,2.86,2.86,0,0,1-2.89-1.79,3.67,3.67,0,0,1,.94-4.46,2.9,2.9,0,0,1,3.82.23ZM76.29,23.2s0,.14,0,.25a1.45,1.45,0,0,0,2.36,1.09,1.86,1.86,0,0,0,.5-2.14,1.47,1.47,0,0,0-1.93-.86A1.65,1.65,0,0,0,76.29,23.2Z"/><path class="cls-2" d="M89.82,22.64,92,20.22a1,1,0,0,1,1-.43,1,1,0,0,1,.7.72.81.81,0,0,1-.24.79c-.52.56-1,1.12-1.55,1.7.49.59,1,1.19,1.48,1.78A1,1,0,0,1,93.62,26a.88.88,0,0,1-1.52.15c-.58-.64-1.13-1.31-1.7-2l-.58-.66c0,.69,0,1.29,0,1.9a1,1,0,0,1-1,1.1,1,1,0,0,1-.93-1.11V18a1,1,0,0,1,1-1.05.94.94,0,0,1,.88,1v4.7Z"/><path class="cls-2" d="M95.93,23.71a1.07,1.07,0,0,0,.61,1,2.39,2.39,0,0,0,2.18,0,.85.85,0,0,1,1.14.3.81.81,0,0,1-.42,1.1,4,4,0,0,1-2.91.35A3.07,3.07,0,0,1,94,23a3.89,3.89,0,0,1,.56-2,2.91,2.91,0,0,1,2.79-1.31,3,3,0,0,1,3.08,3.15.76.76,0,0,1-.84.86H95.93Zm2.63-1.18a1.31,1.31,0,0,0-2.6,0h2.6Z"/><path class="cls-2" d="M51.78,23.12a3.43,3.43,0,0,1-3.33,3.45A3.53,3.53,0,0,1,45,23a3.46,3.46,0,0,1,3.45-3.27A3.36,3.36,0,0,1,51.78,23.12Zm-4.89,0v.17a1.56,1.56,0,0,0,2.17,1.46A1.91,1.91,0,0,0,49.51,22a1.48,1.48,0,0,0-1.63-.42A1.58,1.58,0,0,0,46.89,23.09Z"/><path class="cls-2" d="M58,20.47a2.87,2.87,0,0,1,2.48-.75,2.4,2.4,0,0,1,2.15,2.18c.12,1.24.08,2.5.08,3.75a.94.94,0,0,1-1.88-.12c0-.72,0-1.43,0-2.14,0-.25,0-.5,0-.75,0-.81-.37-1.18-1.13-1.21a1.12,1.12,0,0,0-1.25,1.13c-.05,1,0,2-.05,2.94a.93.93,0,0,1-1.39.86.89.89,0,0,1-.48-.83q0-2.49,0-5a.74.74,0,0,1,.62-.77C57.51,19.72,57.77,19.92,58,20.47Z"/><path class="cls-2" d="M102.12,19.66c0-.57,0-1.12,0-1.67A.95.95,0,1,1,104,17.9c0,.59,0,1.17,0,1.79.27,0,.5,0,.74,0a.87.87,0,1,1,0,1.74h-.65a.18.18,0,0,0,0,.09c0,.88,0,1.77,0,2.65,0,.58.16.69.74.7a.86.86,0,0,1,.95.87.84.84,0,0,1-.95.82,5.72,5.72,0,0,1-1.24-.1,1.85,1.85,0,0,1-1.36-1.85c-.06-.82,0-1.65-.07-2.47v-.71c-.4,0-.85.08-1.11-.33a1.28,1.28,0,0,1-.19-.59C100.82,20,101.19,19.74,102.12,19.66Z"/><path class="cls-3" d="M84.36,20.47a2.71,2.71,0,0,1,2.06-.77.87.87,0,0,1,.37,1.62,1.18,1.18,0,0,1-.42.1c-.14,0-.29,0-.44,0a1.19,1.19,0,0,0-1.14,1.33c0,.87,0,1.74,0,2.61a1,1,0,1,1-1.9,0V20.62a.79.79,0,0,1,.66-.85C83.94,19.74,84.24,20,84.36,20.47Z"/><path class="cls-3" d="M52.92,23.09V20.85a.95.95,0,1,1,1.88-.09c0,1.58,0,3.17,0,4.75a1,1,0,0,1-1,1,1,1,0,0,1-.93-1.06C52.91,24.65,52.92,23.87,52.92,23.09Z"/><path class="cls-3" d="M55,18a1.09,1.09,0,0,1-1.1,1.12A1.12,1.12,0,0,1,52.76,18,1.1,1.1,0,1,1,55,18Z"/></g></g></svg>