<svg id="图层_1" data-name="图层 1" xmlns="http://www.w3.org/2000/svg" viewBox="0 0 136 44"><defs><style>.cls-1{fill:#fff;}.cls-2{fill:#cbcbcb;}.cls-3{fill:#4a97c2;}.cls-4{fill:#4a96c1;}</style></defs><title>1</title><rect class="cls-1" width="136" height="44"/><path class="cls-2" d="M30.21,22a11.15,11.15,0,0,1-7.93,10.41A11.09,11.09,0,0,1,10.69,29.6a10,10,0,0,1-3.16-8.89,10.9,10.9,0,0,1,7.73-9.06A10.55,10.55,0,0,1,19.57,11c4.63.52,9,3.31,10.26,8.59C30,20.41,30.09,21.21,30.21,22ZM28,22.6a9.2,9.2,0,0,0-5.82-8.78A9.38,9.38,0,0,0,10.66,18,8.35,8.35,0,0,0,12.5,28.42a9.41,9.41,0,0,0,10.82,1.24A8.67,8.67,0,0,0,28,22.6Z"/><path class="cls-2" d="M119.77,16.07c1.69,0,3.37,0,5,0a3.39,3.39,0,0,1,3.66,3.47c.17,2.5.08,5,.06,7.54,0,.17-.32.48-.51.5-.6.07-1.22,0-1.83,0s-.67-.2-.66-.71c0-2.14,0-4.29,0-6.43a2,2,0,0,0-2.82-1.86c-.17.07-.28.48-.28.73,0,2.42,0,4.83,0,7.24,0,1,0,1-1,1-2,0-2,0-2-2s0-4.19,0-6.29c0-.6-.2-.8-.81-.8-2.17,0-2.17,0-2.17,2.14s0,4.09,0,6.14c0,.56-.17.77-.74.79-2.17.05-2.17.07-2.16-2.07,0-2.88,0-5.75,0-8.63,0-.67.18-.9.86-.89,1.78,0,3.56,0,5.34,0Z"/><path class="cls-2" d="M51.13,21.78c0-1.78,0-3.56,0-5.34,0-.64.19-.94.88-.91,1.17.05,2.34,0,3.5.05a5.58,5.58,0,0,1,5.44,5.13c.4,3.12-.72,5.51-3.24,6.72a5.35,5.35,0,0,1-2,.5c-1.26.08-2.53,0-3.8.06-.66,0-.83-.26-.82-.87C51.15,25.34,51.13,23.56,51.13,21.78Zm2.77,0h0c0,1,0,2.1,0,3.15,0,.19.19.53.3.53a6.6,6.6,0,0,0,2.09-.13c2.33-.76,2.58-3,1.86-5.33a3.11,3.11,0,0,0-3.76-1.92.84.84,0,0,0-.47.64C53.87,19.74,53.9,20.76,53.9,21.78Z"/><path class="cls-2" d="M106.91,16.06a4.93,4.93,0,0,1,5.2,4.26c.5,2.41.2,4.68-1.89,6.26a5.57,5.57,0,0,1-5.77.56,4.73,4.73,0,0,1-2.93-4.51,10.4,10.4,0,0,1,.15-2.68A5,5,0,0,1,106.91,16.06ZM109,23.51a6.5,6.5,0,0,0,0-3.5v0a2.34,2.34,0,0,0-4.38,0,6,6,0,0,0,0,3.6,2.22,2.22,0,0,0,2.25,1.53A2.06,2.06,0,0,0,109,23.57Z"/><path class="cls-2" d="M62.44,22c0-1.74,0-3.47,0-5.2,0-.55.13-.79.73-.78,2,0,6.87,0,6.87,0v2.37H64.84v2.36l4.75,0V23H64.84v2.64H70V28S65,28,63.31,28c-.65,0-.91-.15-.89-.85C62.47,25.43,62.44,23.72,62.44,22Z"/><path class="cls-2" d="M96.76,16.06h2.12c.41,0,.62.16.61.61-.06,2.1.31,1.9-1.84,1.91-.69,0-1.37,0-2.05.08a2,2,0,0,0-2,1.74,9.38,9.38,0,0,0,.12,2.94,2.19,2.19,0,0,0,2.34,1.72c.87,0,1.75,0,2.63,0,.57,0,.85.16.83.79-.06,2,.28,1.74-1.75,1.75-.73,0-1.46,0-2.19,0a4.25,4.25,0,0,1-4.41-3,8,8,0,0,1,.15-6.26,3.7,3.7,0,0,1,3.37-2.31c.68-.05,1.36,0,2.05,0Z"/><path class="cls-2" d="M38.92,21.19c0,.22,0,.45,0,.68,0,1.75,0,3.51,0,5.27,0,.6-.2.81-.8.8-2.22-.05-1.86.2-1.87-1.87q0-4.32,0-8.64a2.71,2.71,0,0,1,.21-1.13,1.19,1.19,0,0,1,2.1-.2c.88,1.07,1.68,2.21,2.49,3.33.95,1.3,1.85,2.64,2.83,3.91a.94.94,0,0,1-.13,1.49A1.31,1.31,0,0,1,42,25a3.29,3.29,0,0,1-.58-.65l-2.33-3.22Z"/><path class="cls-2" d="M46.39,21.2,44.7,23.48c-.53-.75-1-1.38-1.42-2.05-.08-.13.07-.47.2-.65,1-1.45,2.09-2.88,3.12-4.33a1.45,1.45,0,0,1,1.68-.72,1.31,1.31,0,0,1,.88,1.45c0,3.39,0,6.78,0,10.17,0,.42-.17.64-.61.63h-.07c-2.32-.05-1.91.33-1.93-1.84,0-1.62,0-3.25,0-4.87Z"/><path class="cls-3" d="M71.88,16.12H74.5l4.58,5.72-4.15,6h-2.8l3.6-5.35s.37-.75,0-1.21c-1.16-1.45-2.27-2.93-3.39-4.41C72.22,16.72,72.12,16.48,71.88,16.12Z"/><path class="cls-3" d="M83.32,16.12s-2.47,3.45-3.69,5.05c-.11-.07-1.54-1.84-1.54-1.84s.66-.71,1.09-1.27c.19-.26,1.54-1.95,1.54-1.95Z"/><path class="cls-3" d="M80.58,27.86l-2.41-3.44s.94-1.34,1.38-1.9c1.3,1.67,3.78,5.34,3.78,5.34Z"/><path class="cls-2" d="M86.62,26.49c0-1.12,0-1.12,1-1.12s1,0,1.08,1.4c0,.89-.43.86-1,.85C86.62,27.6,86.62,27.61,86.62,26.49Z"/><path class="cls-2" d="M14.92,22.83c0,1,0,2,0,3,0,.68-.18.78-.8.53a1.38,1.38,0,0,1-1-1.32c0-1.83-.08-3.67,0-5.49a2.81,2.81,0,0,1,4.41-2,29.12,29.12,0,0,1,3.82,3.28c1.15,1.14.4,3.36-1.26,4a3,3,0,0,1-4.08-2A2.33,2.33,0,0,1,17,20.29c.68-.44.85.34,1.23.57.09.05.05.51-.07.68-.28.4-.51.82-.17,1.19a1.56,1.56,0,0,0,1.09.53,1.43,1.43,0,0,0,.95-.71,1,1,0,0,0-.25-.95A38.11,38.11,0,0,0,16.69,19a1.42,1.42,0,0,0-1.21-.1,1.35,1.35,0,0,0-.55,1c-.07,1,0,1.95,0,2.92Z"/><path class="cls-4" d="M23.24,22.84a24.3,24.3,0,0,0,0-2.7,1.78,1.78,0,0,0-.65-1.25,1.85,1.85,0,0,0-1.41.11,1.05,1.05,0,0,1-1.46-.43.68.68,0,0,1,.14-.55,3.07,3.07,0,0,1,3.32-.64,2.6,2.6,0,0,1,1.78,2.52c0,1.59,0,3.17,0,4.76a1.62,1.62,0,0,1-.82,1.53c-.59.32-.86.18-.88-.5,0-1,0-1.9,0-2.85Z"/></svg>