<svg id="图层_1" data-name="图层 1" xmlns="http://www.w3.org/2000/svg" viewBox="0 0 136 44"><defs><style>.cls-1{fill:#fff;}.cls-2,.cls-3{fill:#040000;}.cls-2{fill-rule:evenodd;}</style></defs><title>1</title><rect class="cls-1" width="136" height="44"/><path class="cls-2" d="M20.17,18.46a16.06,16.06,0,0,0,2.69-1.7A1.45,1.45,0,0,1,23,17.85a1.32,1.32,0,0,1-.4.54,1.9,1.9,0,0,1-.72.33,2.39,2.39,0,0,1-1.69-.26"/><path class="cls-2" d="M20.3,22.33l1,.58c-2,1.14-2.61,3.27-3.27,5.35-.66-2.08-1.22-4.21-3.26-5.35l1-.58a.51.51,0,0,0,.32-.49c-.1-1.94.43-2.8,1.14-3.34a1.33,1.33,0,0,1,.8-.29,1.39,1.39,0,0,1,.81.29c.7.54,1.23,1.4,1.14,3.34A.51.51,0,0,0,20.3,22.33Z"/><path class="cls-2" d="M18,9.64a9,9,0,0,1,3.33.69,8.19,8.19,0,0,1,1.94,1.18,9.35,9.35,0,0,1,.73.67,3,3,0,0,0,2-1.38c-.76,2.5-4.23,5.44-6.63,6.57h0a2.21,2.21,0,0,0-2.8,0h0C14.23,16.24,10.76,13.3,10,10.8a3,3,0,0,0,2,1.38c.25-.24.47-.45.73-.67a8.19,8.19,0,0,1,1.94-1.18A9,9,0,0,1,18,9.64"/><path class="cls-2" d="M15.91,18.46a16.06,16.06,0,0,1-2.69-1.7,1.45,1.45,0,0,0-.12,1.09,1.32,1.32,0,0,0,.4.54,1.9,1.9,0,0,0,.72.33,2.39,2.39,0,0,0,1.69-.26"/><path class="cls-2" d="M23.91,15.83a13.32,13.32,0,0,0,1.38-1.66l.19.36a8.29,8.29,0,0,1,.94,3.84c0,.73,0,1.46,0,2.19,0,.45,0,.67,0,1.13a17.92,17.92,0,0,0,2,8.19l-2.86-2.31-2,3.29-2.12-2L18,34.36l-3.39-5.5-2.13,2-2-3.29L7.64,29.88a17.92,17.92,0,0,0,2-8.19c0-.46,0-.68,0-1.13,0-.73,0-1.46,0-2.19a8.29,8.29,0,0,1,.94-3.84l.19-.36a14.26,14.26,0,0,0,1.38,1.66l-.17.34a2.77,2.77,0,0,0-.18,2.13,2.54,2.54,0,0,0,.84,1.15,3.15,3.15,0,0,0,1.27.59,3.4,3.4,0,0,0,.9.09,7.16,7.16,0,0,0-.1,1.24L12,22.92l2.08,1.17a3.08,3.08,0,0,1,.48.32C16.3,26,17.33,30.5,18,32.73c.71-2.23,1.74-6.78,3.46-8.32a2.59,2.59,0,0,1,.47-.32l2.08-1.17-2.7-1.55a7.16,7.16,0,0,0-.1-1.24,3.4,3.4,0,0,0,.9-.09,3.15,3.15,0,0,0,1.27-.59,2.54,2.54,0,0,0,.84-1.15,2.77,2.77,0,0,0-.18-2.13Z"/><path class="cls-3" d="M37,25.83c2.9,0,4.66-1.79,4.66-4.77S39.85,16.31,37,16.31h-3.4v9.52ZM35.59,24.1V18h1.28c1.79,0,2.73.91,2.73,3s-.94,3-2.73,3Zm7.51,1.73h6.44V24.17H45.11V21.9h4.08V20.24H45.11V18h4.41V16.31H43.1ZM53,16.31H50.72l2.93,4.76-3,4.76H53l2-3.25H55l2,3.25h2.32l-3-4.76,2.9-4.76H56.93L55,19.55h-.07Z"/><path class="cls-3" d="M67.16,18.69h1.12c0-1.44-1.38-2.51-3.22-2.51s-3.25,1.06-3.25,2.66c0,1.28.93,2,2.42,2.47l1.17.34c1,.27,1.89.63,1.89,1.58S66.29,25,65,25c-1.14,0-2.14-.51-2.23-1.59H61.55C61.66,24.94,62.92,26,65,26s3.44-1.21,3.44-2.76c0-1.78-1.69-2.36-2.68-2.62l-1-.26c-.7-.18-1.84-.56-1.84-1.58s.84-1.58,2.1-1.58S67.05,17.75,67.16,18.69ZM78,19.28a3.72,3.72,0,0,0-3.83-3.1c-2.44,0-4.21,1.88-4.21,4.89S71.7,26,74.14,26A3.72,3.72,0,0,0,78,22.85H76.81a2.59,2.59,0,0,1-2.67,2c-1.73,0-3.09-1.34-3.09-3.81s1.36-3.81,3.09-3.81a2.58,2.58,0,0,1,2.67,2Zm1.86,6.55H81V22.11h2.33l2,3.72h1.33L84.5,21.9a2.6,2.6,0,0,0,1.78-2.67c0-1.69-1-2.92-3.23-2.92H79.83ZM81,21.07V17.33h2c1.54,0,2.14.75,2.14,1.9s-.6,1.84-2.12,1.84Zm7.22,4.76H94v-1H89.36V21.57h4.29v-1H89.36V17.33H94v-1H88.2Zm7.83,0h5.82v-1H97.18V21.57h4.3v-1h-4.3V17.33h4.59v-1H96Zm15.37-9.52h-1.13V23.8h-.09L105,16.31h-1.12v9.52H105V18.35h.09l5.19,7.48h1.11Zm2.31,9.52h5.82v-1h-4.67V21.57h4.3v-1h-4.3V17.33h4.6v-1h-5.75Zm7.82,0h1.16V22.11H125l2,3.72h1.34l-2.15-3.93A2.61,2.61,0,0,0,128,19.23c0-1.69-1-2.92-3.24-2.92h-3.22Zm1.16-4.76V17.33h2c1.55,0,2.14.75,2.14,1.9s-.59,1.84-2.12,1.84Z"/></svg>