<?xml version="1.0" encoding="utf-8"?>
<!-- Generator: Adobe Illustrator 24.0.0, SVG Export Plug-In . SVG Version: 6.00 Build 0)  -->
<svg version="1.1" id="图层_1" xmlns="http://www.w3.org/2000/svg" xmlns:xlink="http://www.w3.org/1999/xlink" x="0px" y="0px"
	 viewBox="0 0 68 62.5" style="enable-background:new 0 0 68 62.5;" xml:space="preserve">
<style type="text/css">
	.st0{fill-rule:evenodd;clip-rule:evenodd;fill:#FFFFFF;}
	.st1{fill-rule:evenodd;clip-rule:evenodd;fill:#040000;}
	.st2{fill-rule:evenodd;clip-rule:evenodd;fill:#DC4C36;}
	.st3{fill-rule:evenodd;clip-rule:evenodd;fill:#2679B0;}
	.st4{fill:#218DCB;}
	.st5{fill:#FFFFFF;}
	.st6{fill-rule:evenodd;clip-rule:evenodd;fill:#169C7F;}
</style>
<g>
	<g id="Page-1_3_">
		<g id="flags_3_" transform="translate(-2070.000000, -5310.000000)">
			<g id="south_korea" transform="translate(2070.000000, 5310.000000)">
				<circle id="white_1_" class="st0" cx="57.3" cy="43.7" r="9.9"/>
				<g id="emblem" transform="translate(27.000000, 41.000000)">
					<path id="line" class="st1" d="M23.5,0.2l0.5,0.3l1.8-2.7l-0.5-0.3L23.5,0.2L23.5,0.2z M24.1,0.6l0.5,0.3l1.8-2.7l-0.5-0.3
						L24.1,0.6L24.1,0.6z M24.7,1l0.5,0.3L27-1.4l-0.5-0.3L24.7,1L24.7,1z"/>
					<path id="line_1_" class="st1" d="M25.3,8l0.5-0.3L23.9,5l-0.5,0.3L25.3,8L25.3,8z M25.9,7.6l0.5-0.3L25.5,6l-0.5,0.3L25.9,7.6
						L25.9,7.6z M25,6.1l0.5-0.3l-0.9-1.3l-0.5,0.3L25,6.1L25,6.1z M26.6,7.2L27,6.9l-1.8-2.7l-0.5,0.3L26.6,7.2L26.6,7.2z"/>
					<path id="line_2_" class="st1" d="M35.4,1.3L35.9,1L35-0.3L34.5,0L35.4,1.3L35.4,1.3z M34.4-0.1l0.5-0.3L34-1.7l-0.5,0.3
						L34.4-0.1L34.4-0.1z M36,0.9l0.5-0.3l-1.8-2.7l-0.5,0.3L36,0.9L36,0.9z M36.7,0.5l0.5-0.3l-0.9-1.3l-0.5,0.3L36.7,0.5L36.7,0.5
						z M35.7-1l0.5-0.3l-0.9-1.3l-0.5,0.3L35.7-1L35.7-1z"/>
					<path id="line_3_" class="st1" d="M37.1,5.3L36.7,5l-0.9,1.3l0.5,0.3L37.1,5.3L37.1,5.3z M36.2,6.7l-0.5-0.3l-0.9,1.3L35.3,8
						L36.2,6.7L36.2,6.7z M36.5,4.9L36,4.6l-0.9,1.3l0.5,0.3L36.5,4.9L36.5,4.9z M35.5,6.3L35.1,6l-0.9,1.3l0.5,0.3L35.5,6.3
						L35.5,6.3z M35.9,4.4l-0.5-0.3l-0.9,1.3L35,5.7L35.9,4.4L35.9,4.4z M34.9,5.9l-0.5-0.3l-0.9,1.3L34,7.2L34.9,5.9L34.9,5.9z"/>
					<circle id="Oval-2" class="st2" cx="30.3" cy="2.7" r="3.3"/>
					<path id="Oval-2_1_" class="st3" d="M33.1,4.5c-1,1.5-3,2-4.5,1s-2-3-1.1-4.5C27,1.8,27.3,2.8,28,3.3s1.8,0.3,2.3-0.5
						c0.5-0.8,1.5-1,2.3-0.5C33.3,2.7,33.6,3.7,33.1,4.5C33.1,4.5,33.6,3.7,33.1,4.5L33.1,4.5L33.1,4.5L33.1,4.5z"/>
				</g>
			</g>
		</g>
	</g>
	<path class="st4" d="M44.7,43.5c0-6.9,5.6-12.6,12.6-12.6c1.6,0,3.1,0.3,4.5,0.8c0-0.2,0-0.3,0-0.5c0-16.8-13.7-30.5-30.5-30.5
		C14.5,0.7,0.8,14.4,0.8,31.2s13.7,30.5,30.5,30.5c7.6,0,14.5-2.8,19.8-7.3C47.3,52.3,44.7,48.2,44.7,43.5z"/>
	<path class="st5" d="M40.9,45.9L46,22.1c0.4-2.1-0.8-2.9-2.1-2.4L14.1,31.1c-2,0.8-2,1.9-0.3,2.4l7.6,2.4L39,24.8
		c0.8-0.6,1.6-0.2,1,0.3L25.7,38l-0.6,7.8c0.8,0,1.1-0.3,1.5-0.8l3.7-3.6l7.7,5.7C39.5,48,40.5,47.6,40.9,45.9L40.9,45.9z"/>
</g>
<g>
	<path class="st4" d="M21.9-46.6c0-6.9,5.6-12.6,12.6-12.6c1.6,0,3.1,0.3,4.5,0.8c0-0.2,0-0.3,0-0.5c0-16.8-13.7-30.5-30.5-30.5
		C-8.3-89.3-22-75.6-22-58.8S-8.3-28.3,8.5-28.3c7.6,0,14.5-2.8,19.8-7.3C24.5-37.8,21.9-41.9,21.9-46.6z"/>
	<path class="st5" d="M18.1-44.1L23.2-68c0.4-2.1-0.8-2.9-2.1-2.4L-8.7-58.9c-2,0.8-2,1.9-0.3,2.4l7.6,2.4l17.7-11.1
		c0.8-0.6,1.6-0.2,1,0.3L2.9-52l-0.6,7.8c0.8,0,1.1-0.3,1.5-0.8l3.7-3.6l7.7,5.7C16.7-42,17.7-42.4,18.1-44.1L18.1-44.1z"/>
	<g id="Page-1_4_">
		<g id="flags_4_" transform="translate(-180.000000, -6120.000000)">
			<g id="turkey_1_" transform="translate(180.000000, 6120.000000)">
				<circle id="red_3_" class="st2" cx="34.6" cy="-46.3" r="10"/>
				<path id="white_2_" class="st0" d="M39.5-45.4l-0.8,0.8l-0.2-1.1l-1-0.5l1-0.5l0.2-1.1l0.8,0.8l1.1-0.2l-0.5,1l0.5,1L39.5-45.4
					L39.5-45.4z M37.4-43.9c-0.8,1.5-2.5,2.6-4.4,2.6c-2.7,0-5-2.2-5-5s2.2-5,5-5c1.9,0,3.5,1,4.4,2.6c-0.7-0.9-1.8-1.5-3-1.5
					c-2.1,0-3.9,1.7-3.9,3.9s1.7,3.9,3.9,3.9C35.6-42.4,36.7-43,37.4-43.9C37.4-43.9,36.7-43,37.4-43.9L37.4-43.9z"/>
			</g>
		</g>
	</g>
</g>
<g>
	<path class="st4" d="M143.3,7.6c0-6.9,5.6-12.6,12.6-12.6c1.6,0,3.1,0.3,4.5,0.8c0-0.2,0-0.3,0-0.5c0-16.8-13.7-30.5-30.5-30.5
		c-16.8,0-30.5,13.7-30.5,30.5s13.7,30.5,30.5,30.5c7.6,0,14.5-2.8,19.8-7.3C145.9,16.4,143.3,12.3,143.3,7.6z"/>
	<path class="st5" d="M139.5,10l5.1-23.9c0.4-2.1-0.8-2.9-2.1-2.4L112.7-4.8c-2,0.8-2,1.9-0.3,2.4L120,0l17.7-11.1
		c0.8-0.6,1.6-0.2,1,0.3L124.3,2.1l-0.6,7.8c0.8,0,1.1-0.3,1.5-0.8l3.7-3.6l7.7,5.7C138.2,12.1,139.2,11.7,139.5,10L139.5,10z"/>
	<g id="Page-1_6_">
		<g id="flags_6_" transform="translate(-2070.000000, -2610.000000)">
			<g id="indonesia" transform="translate(2070.000000, 2610.000000)">
				<path id="white_4_" class="st0" d="M166.1,7.5C166.1,7.5,166.1,7.5,166.1,7.5c0,5.5-4.5,10-10.1,10S146,13,146,7.5c0,0,0,0,0,0
					H166.1L166.1,7.5L166.1,7.5L166.1,7.5L166.1,7.5z"/>
				<path id="red_4_" class="st2" d="M165.9,7.5c0-5.5-4.5-9.9-9.9-9.9c-5.5,0-9.9,4.5-9.9,9.9H165.9L165.9,7.5L165.9,7.5L165.9,7.5
					L165.9,7.5z"/>
			</g>
		</g>
	</g>
</g>
<g>
	<path class="st4" d="M-146.8-21.8c0-6.9,5.6-12.6,12.6-12.6c1.6,0,3.1,0.3,4.5,0.8c0-0.2,0-0.3,0-0.5c0-16.8-13.7-30.5-30.5-30.5
		c-16.8,0-30.5,13.7-30.5,30.5S-177-3.6-160.2-3.6c7.6,0,14.5-2.8,19.8-7.3C-144.2-13-146.8-17.1-146.8-21.8z"/>
	<path class="st5" d="M-150.6-19.4l5.1-23.9c0.4-2.1-0.8-2.9-2.1-2.4l-29.7,11.5c-2,0.8-2,1.9-0.3,2.4l7.6,2.4l17.7-11.1
		c0.8-0.6,1.6-0.2,1,0.3l-14.3,12.9l-0.6,7.8c0.8,0,1.1-0.3,1.5-0.8l3.7-3.6l7.7,5.7C-152-17.3-151-17.7-150.6-19.4L-150.6-19.4z"/>
	<g id="Page-1_7_">
		<g id="flags_7_" transform="translate(-180.000000, -6120.000000)">
			<g id="turkey_2_" transform="translate(180.000000, 6120.000000)">
				<circle id="red_5_" class="st0" cx="-134.2" cy="-21.6" r="10"/>
				<path id="white_5_" class="st0" d="M-129.2-20.6l-0.8,0.8l-0.2-1.1l-1-0.5l1-0.5l0.2-1.1l0.8,0.8l1.1-0.2l-0.5,1l0.5,1
					L-129.2-20.6L-129.2-20.6z M-131.4-19.2c-0.8,1.5-2.5,2.6-4.4,2.6c-2.7,0-5-2.2-5-5s2.2-5,5-5c1.9,0,3.5,1,4.4,2.6
					c-0.7-0.9-1.8-1.5-3-1.5c-2.1,0-3.9,1.7-3.9,3.9s1.7,3.9,3.9,3.9C-133.2-17.7-132.1-18.3-131.4-19.2
					C-131.4-19.2-132.1-18.3-131.4-19.2L-131.4-19.2z"/>
			</g>
		</g>
	</g>
	<g>
		<g>
			<path class="st4" d="M-134-31.7c-5.6,0-10.2,4.6-10.2,10.2c0,5.2,3.9,9.5,8.9,10.1c0.3,0.1,0.6,0.1,1,0.1c0.1,0,0.2,0,0.3,0
				c5.6-0.1,10.1-4.6,10.1-10.2C-123.8-27.1-128.3-31.7-134-31.7L-134-31.7z M-135.6-12.2c-4.4-0.8-7.7-4.6-7.7-9.2
				c0-0.7,0.1-1.3,0.2-1.9c0.4,0.4,1.4,0.4,1.6-0.2c0.4,0.2,1,0.3,1,0.8c0,1.6,0.1,3.4,1.5,3.4c0,0,0.8,0.3,1.2,1.3
				c0.1,0.3,0.6,0,1.2,0c0.3,0,0,0.5,0,1.5c0,1,2.2,2.6,2.2,2.6c0,0.7,0,1.2,0.1,1.7C-134.8-12.4-135.3-12.3-135.6-12.2L-135.6-12.2
				z M-131.7-12.4c0-0.2-0.3-0.4-0.6-0.3c0.3-1.3,0.5-2.1,1.1-2.6c0.9-0.8,0.1-1.7-0.6-1.6c-0.6,0.1-0.2-0.7-0.7-0.7
				c-0.5,0-1.2-1-1.9-1.4c-0.4-0.2-0.8-0.7-1.3-0.7c-0.5,0-1.3,0.4-1.3,0.1c0-1.1-0.1-2-0.1-2.3c0-0.3-0.2-0.1,0.5-0.1
				c0.4,0,0.2-0.8,0.6-0.8c0.4,0,1.3,0.3,1.5,0.2c0.2-0.1,1.5,3.5,1.5,0.6c0-0.3-0.2-0.9,0-1.3c0.7-1.3,1.4-2.3,1.3-2.5
				c0-0.1-0.7-0.2-1.3,0c-0.2,0.1,0.1,0.4-0.2,0.4c-1,0.2-1.9-0.3-1.6-0.7c0.3-0.5,1.5-0.2,1.6-1.2c0.1-0.6,0.1-1.2,0.1-1.7
				c1.3,0.2,1.2-1.7-0.8-2c4,0,7.5,2.7,8.7,6.3c-0.1-0.1-0.1-0.1-0.2-0.1c-0.6-1.5-2.1-0.4-1.6,0.9c-2.7,2.1-2,3.5-1.1,4.3
				c0.5,0.4,0.9,1.1,1.2,1.5c-0.3,0.9,1.1,0.5,1.9-1C-125.9-15.7-128.4-13.2-131.7-12.4L-131.7-12.4z M-125.4-23.3
				c0.1,0.7,0.2,1.3,0.2,2c0-0.5-0.1-1-0.2-1.5C-125.4-23-125.4-23.1-125.4-23.3L-125.4-23.3z M-125.4-23.3"/>
		</g>
	</g>
</g>
<g>
	<path class="st4" d="M185.9,94.2c0-6.9,5.6-12.6,12.6-12.6c1.6,0,3.1,0.3,4.5,0.8c0-0.2,0-0.3,0-0.5c0-16.8-13.7-30.5-30.5-30.5
		C155.6,51.5,142,65.1,142,82s13.7,30.5,30.5,30.5c7.6,0,14.5-2.8,19.8-7.3C188.4,103,185.9,98.9,185.9,94.2z"/>
	<path class="st5" d="M182.1,96.6l5.1-23.9c0.4-2.1-0.8-2.9-2.1-2.4l-29.7,11.5c-2,0.8-2,1.9-0.3,2.4l7.6,2.4l17.7-11.1
		c0.8-0.6,1.6-0.2,1,0.3l-14.3,12.9l-0.6,7.8c0.8,0,1.1-0.3,1.5-0.8l3.7-3.6l7.7,5.7C180.7,98.7,181.7,98.3,182.1,96.6L182.1,96.6z"
		/>
	<g id="Page-1_9_">
		<g id="flags_9_" transform="translate(-180.000000, -6120.000000)">
			<g id="turkey_4_" transform="translate(180.000000, 6120.000000)">
				<circle id="red_7_" class="st2" cx="198.5" cy="94.5" r="10"/>
				<path id="white_7_" class="st2" d="M203.5,95.4l-0.8,0.8l-0.2-1.1l-1-0.5l1-0.5l0.2-1.1l0.8,0.8l1.1-0.2l-0.5,1l0.5,1
					L203.5,95.4L203.5,95.4z M201.3,96.9c-0.8,1.5-2.5,2.6-4.4,2.6c-2.7,0-5-2.2-5-5c0-2.7,2.2-5,5-5c1.9,0,3.5,1,4.4,2.6
					c-0.7-0.9-1.8-1.5-3-1.5c-2.1,0-3.9,1.7-3.9,3.9c0,2.1,1.7,3.9,3.9,3.9C199.5,98.3,200.6,97.8,201.3,96.9
					C201.3,96.9,200.6,97.8,201.3,96.9L201.3,96.9z"/>
			</g>
		</g>
	</g>
	
		<text transform="matrix(1 0 0 1 190.45 97.3659)" class="st5" style="font-family:'FZLTHH_TC--GB1-4-GBpc-EUC-H'; font-size:9.005px;">CN</text>
</g>
<g>
	<path class="st4" d="M-85,74c0-6.9,5.6-12.6,12.6-12.6c1.6,0,3.1,0.3,4.5,0.8c0-0.2,0-0.3,0-0.5c0-16.8-13.7-30.5-30.5-30.5
		c-16.8,0-30.5,13.7-30.5,30.5s13.7,30.5,30.5,30.5c7.6,0,14.5-2.8,19.8-7.3C-82.4,82.8-85,78.7-85,74z"/>
	<path class="st5" d="M-88.8,76.5l5.1-23.9c0.4-2.1-0.8-2.9-2.1-2.4l-29.7,11.5c-2,0.8-2,1.9-0.3,2.4l7.6,2.4l17.7-11.1
		c0.8-0.6,1.6-0.2,1,0.3L-104,68.6l-0.6,7.8c0.8,0,1.1-0.3,1.5-0.8l3.7-3.6l7.7,5.7C-90.2,78.5-89.2,78.1-88.8,76.5L-88.8,76.5z"/>
	<g id="Page-1_10_">
		<g id="flags_10_" transform="translate(-180.000000, -6120.000000)">
			<g id="turkey_5_" transform="translate(180.000000, 6120.000000)">
				<circle id="red_8_" class="st6" cx="-72.3" cy="74.3" r="10"/>
				<path id="white_8_" class="st6" d="M-67.4,75.2l-0.8,0.8l-0.2-1.1l-1-0.5l1-0.5l0.2-1.1l0.8,0.8l1.1-0.2l-0.5,1l0.5,1
					L-67.4,75.2L-67.4,75.2z M-69.5,76.7c-0.8,1.5-2.5,2.6-4.4,2.6c-2.7,0-5-2.2-5-5c0-2.7,2.2-5,5-5c1.9,0,3.5,1,4.4,2.6
					c-0.7-0.9-1.8-1.5-3-1.5c-2.1,0-3.9,1.7-3.9,3.9c0,2.1,1.7,3.9,3.9,3.9C-71.3,78.1-70.2,77.6-69.5,76.7
					C-69.5,76.7-70.2,77.6-69.5,76.7L-69.5,76.7z"/>
			</g>
		</g>
	</g>
	
		<text transform="matrix(1 0 0 1 -80.395 77.1883)" class="st5" style="font-family:'FZLTHH_TC--GB1-4-GBpc-EUC-H'; font-size:9.005px;">EN</text>
</g>
</svg>
