<svg id="图层_1" data-name="图层 1" xmlns="http://www.w3.org/2000/svg" viewBox="0 0 136 44"><defs><style>.cls-1{fill:#fff;}.cls-2{fill:#46a849;}.cls-3{fill:#507ebf;}.cls-4{fill:#edba17;}.cls-5{fill:#e33c3a;}.cls-6{fill:#231815;}</style></defs><title>1</title><rect class="cls-1" width="136" height="44"/><path class="cls-2" d="M9.93,22H7.42a14.6,14.6,0,0,0,4.3,10.38l1.78-1.77A12.11,12.11,0,0,1,9.93,22Z"/><path class="cls-2" d="M13.5,13.39l-1.78-1.77A14.6,14.6,0,0,0,7.42,22H9.93A12.11,12.11,0,0,1,13.5,13.39Z"/><path class="cls-3" d="M22.11,9.83V7.31a14.65,14.65,0,0,0-10.39,4.31l1.78,1.77A12.13,12.13,0,0,1,22.11,9.83Z"/><path class="cls-3" d="M30.72,13.39l1.77-1.77A14.65,14.65,0,0,0,22.11,7.31V9.83A12.16,12.16,0,0,1,30.72,13.39Z"/><path class="cls-4" d="M13.5,30.61l-1.78,1.77a14.65,14.65,0,0,0,10.39,4.31V34.17A12.13,12.13,0,0,1,13.5,30.61Z"/><path class="cls-4" d="M22.11,34.17v2.52a14.65,14.65,0,0,0,10.38-4.31l-1.77-1.77A12.16,12.16,0,0,1,22.11,34.17Z"/><path class="cls-5" d="M30.72,13.39A12.15,12.15,0,0,1,34.28,22h2.51a14.6,14.6,0,0,0-4.3-10.38Z"/><path class="cls-5" d="M30.72,30.61l1.77,1.77A14.6,14.6,0,0,0,36.79,22H34.28A12.15,12.15,0,0,1,30.72,30.61Z"/><path class="cls-6" d="M57.09,18.32l-2.89.88C53.45,17,52,15.79,50,15.68q-4.74.25-5,6.78.08,6.62,4.82,6.78,3.76.09,4.65-4.31l3,.79Q56,31.89,49.87,31.8q-7.63-.18-7.79-9.34.16-9.26,8-9.51C53.42,13,55.75,14.8,57.09,18.32Z"/><path class="cls-6" d="M63.45,19.85q4.85.22,5,6-.07,5.87-5.26,6-4.92-.3-5.2-5.78Q58.19,20,63.45,19.85Zm-.14,10.07q2.67-.08,2.74-4t-2.74-4c-1.87.05-2.83,1.41-2.88,4.06S61.44,29.82,63.31,29.92Z"/><rect x="70.61" y="20.07" width="2.32" height="11.5"/><path class="cls-6" d="M84.64,24.28v7.29H82.33V24.51c0-1.71-.63-2.56-1.9-2.56a2.66,2.66,0,0,0-2.73,2.63v7H75.45V20.07H77.7V21.5a3.26,3.26,0,0,1,3-1.65Q84.79,19.7,84.64,24.28Z"/><path class="cls-6" d="M89.56,35.41H87.24V20.07h2.32V21.5a3.35,3.35,0,0,1,3-1.65q4.28.22,4.42,6c0,4.06-1.5,6.06-4.64,6a3.44,3.44,0,0,1-2.8-1.42Zm0-10.15v1.58c0,1.95.91,3,2.59,3s2.58-1.27,2.53-4S93.81,22,92.08,22,89.56,23.05,89.56,25.26Z"/><path class="cls-6" d="M109.07,31.57h-2.32a1.92,1.92,0,0,1-.63-1.42,4.37,4.37,0,0,1-3.79,1.65q-3.72-.07-3.86-3.23.07-3.39,4.14-3.84c1.92-.2,3-.45,3.23-.75.14-1.45-.56-2.13-2.11-2-1.63-.1-2.55.55-2.73,2l-2.25-.68q.78-3.61,5-3.46c3-.05,4.4,1.46,4.36,4.51v4.36A4.13,4.13,0,0,0,109.07,31.57ZM105.84,27v-1a4.56,4.56,0,0,1-2.74.9c-1.59.15-2.34.7-2.24,1.65s.56,1.2,1.82,1.2C104.65,29.54,105.7,28.64,105.84,27Z"/><path class="cls-6" d="M117.42,20.6l-1,2.18a2.1,2.1,0,0,0-1.48-.53c-1.26-.05-1.87,1-1.82,3.16v6.16h-2.32V20.07h2.32v1.66a2.39,2.39,0,0,1,2.1-1.88A3,3,0,0,1,117.42,20.6Z"/><path class="cls-6" d="M126.12,27.74l2.39.68q-1,3.52-5,3.45-5.13-.23-5.34-5.86.21-5.86,5.27-6.16,5,.15,5.12,6.24v.67h-7.93c.23,2,1.17,3,2.81,3.08A2.38,2.38,0,0,0,126.12,27.74Zm-2.66-5.64a2.72,2.72,0,0,0-2.67,2.56h5.26A2.5,2.5,0,0,0,123.46,22.1Z"/><circle cx="71.78" cy="17.42" r="1.43"/></svg>