<svg id="图层_1" data-name="图层 1" xmlns="http://www.w3.org/2000/svg" viewBox="0 0 66.94 61.01"><defs><style>.cls-1{fill:#1e8bca;}.cls-2,.cls-3{fill:#fff;}.cls-3{fill-rule:evenodd;}</style></defs><title>8</title><path class="cls-1" d="M44.41,43.49A12.57,12.57,0,0,1,57,30.92a12.42,12.42,0,0,1,4.54.85c0-.17,0-.35,0-.52a30.51,30.51,0,1,0-10.71,23.2A12.58,12.58,0,0,1,44.41,43.49Z" transform="translate(-0.53 -0.75)"/><path class="cls-2" d="M40.62,45.92l5.06-23.85c.45-2.1-.76-2.92-2.13-2.41L13.81,31.12c-2,.79-2,1.93-.35,2.45l7.61,2.37L38.73,24.82c.82-.55,1.58-.24,1,.31L25.41,38l-.55,7.85a2,2,0,0,0,1.55-.76l3.71-3.58,7.71,5.68c1.41.79,2.41.38,2.79-1.31Z" transform="translate(-0.53 -0.75)"/><g id="Page-1"><g id="flags"><g id="turkey"><circle id="red" class="cls-2" cx="56.54" cy="43" r="9.95"/><path id="white" class="cls-3" d="M62,44.69l-.77.78-.16-1.08-1-.49,1-.49.16-1.09.77.79,1.09-.19-.52,1,.52,1L62,44.69Zm-2.14,1.47a5,5,0,1,1,0-4.83,3.88,3.88,0,1,0,0,4.83Z" transform="translate(-0.53 -0.75)"/></g></g></g><path class="cls-1" d="M57.26,33.65A10.2,10.2,0,0,0,56,54a5,5,0,0,0,1,.1l.34,0a10.21,10.21,0,0,0-.11-20.41ZM55.65,53.14A9.36,9.36,0,0,1,48.11,42a1,1,0,0,0,1.59-.22c.41.24,1,.29,1,.78,0,1.64.06,3.39,1.55,3.42a2.14,2.14,0,0,1,1.2,1.27c.13.33.64,0,1.2,0,.28,0,0,.47,0,1.49s2.19,2.58,2.19,2.58A11,11,0,0,0,56.89,53a3.64,3.64,0,0,0-1.24.17Zm3.92-.21c0-.24-.26-.37-.64-.27.3-1.31.45-2,1.1-2.61a.87.87,0,0,0-.6-1.6c-.56.08-.21-.7-.7-.74s-1.16-1-1.88-1.38c-.38-.18-.75-.66-1.34-.69s-1.28.45-1.28.09c0-1.14-.12-2-.14-2.29s-.17-.08.53-.07c.38,0,.2-.77.58-.8s1.26.35,1.48.2,1.55,3.5,1.55.6c0-.34-.18-.94,0-1.27a14.78,14.78,0,0,0,1.3-2.49,1.88,1.88,0,0,0-1.27,0c-.18.06.06.35-.2.41-1,.23-1.89-.27-1.58-.74s1.47-.21,1.57-1.17c.05-.56.1-1.2.13-1.67,1.35.21,1.2-1.75-.8-2a9.35,9.35,0,0,1,8.73,6.29.39.39,0,0,0-.22-.11c-.6-1.51-2.07-.41-1.57.92-2.67,2-2,3.48-1.11,4.3a8.28,8.28,0,0,1,1.19,1.54c-.32.91,1.14.55,1.86-1a9.36,9.36,0,0,1-6.69,6.47ZM65.82,42A8.8,8.8,0,0,1,66,44a9.36,9.36,0,0,0-.2-1.49c0-.17,0-.34,0-.49Zm0,0" transform="translate(-0.53 -0.75)"/></svg>