<svg id="图层_1" data-name="图层 1" xmlns="http://www.w3.org/2000/svg" xmlns:xlink="http://www.w3.org/1999/xlink" viewBox="0 0 136 44"><defs><style>.cls-1{fill:#fff;}.cls-2{fill:url(#未命名的渐变_14);}.cls-3{fill:#2980fe;}.cls-4{fill:#222323;}</style><linearGradient id="未命名的渐变_14" x1="23.12" y1="23.71" x2="28.15" y2="23.71" gradientUnits="userSpaceOnUse"><stop offset="0" stop-color="#2948fe"/><stop offset="0.06" stop-color="#294ffe"/><stop offset="0.32" stop-color="#296afe"/><stop offset="0.55" stop-color="#297afe"/><stop offset="0.73" stop-color="#2980fe"/></linearGradient></defs><title>合作商logo</title><rect class="cls-1" x="-1.75" y="-0.38" width="138.7" height="44.77"/><path class="cls-2" d="M28.15,26.63c-1.68.53-4.35.25-4.94-.34s1.71-5.78,1.71-5.78a1.51,1.51,0,0,0,1.78,1.24C28.28,21.57,28.15,26.63,28.15,26.63Z"/><path class="cls-3" d="M24.84,29.76a.82.82,0,0,1-.82.5c-1.11,0-2.23,0-3.34,0-.65,0-.88-.3-.88-1.07,0-2.61,0-5.22,0-7.84a13.6,13.6,0,0,1,.14-2.3,6.53,6.53,0,0,1,6.81-5.31,6.58,6.58,0,0,1-.05,13.14,4.2,4.2,0,0,1-.61-.06c0-1.39,0-2.79,0-4.19,0-.52.13-.81.66-.87l.29-.12a1.46,1.46,0,1,0-2.07-1.31c0,.15,0,.29,0,.44Z"/><path class="cls-3" d="M16,24.1v5c0,.9-.24,1.13-1.14,1.14H12.15c-.85,0-1.09-.24-1.09-1.09q0-5,0-10c0-.67,0-.67-.69-.67H8.27c-.71,0-1-.28-1-1q0-1.42,0-2.85c0-.64.28-.92.93-.92,3.06,0,6.11,0,9.17,0a2.37,2.37,0,0,1,.17,4.73,6.25,6.25,0,0,1-1.06,0c-.39,0-.52.12-.52.51C16,20.69,16,22.4,16,24.1Z"/><path class="cls-4" d="M38.77,17.54H46v1.9H43.58v5.8H41.2v-5.8H38.77Z"/><path class="cls-4" d="M46,21.39A4,4,0,0,1,47,18.46,4,4,0,0,1,50,17.41a4,4,0,0,1,3,1,3.86,3.86,0,0,1,1,2.89,4.82,4.82,0,0,1-.45,2.22,3.28,3.28,0,0,1-1.32,1.34,4.32,4.32,0,0,1-2.14.48A5,5,0,0,1,47.9,25a3.32,3.32,0,0,1-1.39-1.32A4.41,4.41,0,0,1,46,21.39Zm2.38,0a2.65,2.65,0,0,0,.43,1.68,1.64,1.64,0,0,0,2.37,0,2.84,2.84,0,0,0,.42-1.79,2.34,2.34,0,0,0-.44-1.59,1.51,1.51,0,0,0-1.19-.5,1.43,1.43,0,0,0-1.15.51A2.58,2.58,0,0,0,48.36,21.4Z"/><path class="cls-4" d="M54.82,17.54H57.2v2.91l2.5-2.91h3.16l-2.81,2.91L63,25.24H60.06l-1.63-3.17L57.2,23.36v1.88H54.82Z"/><path class="cls-4" d="M63.34,17.54h6.38v1.64h-4v1.23h3.7V22h-3.7V23.5h4.1v1.74H63.34Z"/><path class="cls-4" d="M70.7,17.54h2.22l2.9,4.26V17.54h2.25v7.7H75.82L72.94,21v4.23H70.7Z"/><path class="cls-4" d="M82.36,17.54h4a2.72,2.72,0,0,1,1.94.61,2.31,2.31,0,0,1,.64,1.75,2.38,2.38,0,0,1-.7,1.83,3.08,3.08,0,0,1-2.14.65H84.75v2.86H82.36Zm2.39,3.28h.59a1.46,1.46,0,0,0,1-.24.75.75,0,0,0,.28-.61.84.84,0,0,0-.24-.61,1.24,1.24,0,0,0-.91-.26h-.68Z"/><path class="cls-4" d="M89.42,21.39a3.64,3.64,0,0,1,4-4,4,4,0,0,1,3,1,3.9,3.9,0,0,1,1,2.89,4.81,4.81,0,0,1-.46,2.22,3.25,3.25,0,0,1-1.31,1.34,4.34,4.34,0,0,1-2.14.48A5,5,0,0,1,91.33,25,3.24,3.24,0,0,1,90,23.64,4.31,4.31,0,0,1,89.42,21.39Zm2.38,0a2.59,2.59,0,0,0,.43,1.68,1.47,1.47,0,0,0,1.18.51,1.48,1.48,0,0,0,1.19-.5A2.84,2.84,0,0,0,95,21.3a2.4,2.4,0,0,0-.44-1.59,1.53,1.53,0,0,0-1.19-.5,1.45,1.45,0,0,0-1.16.51A2.59,2.59,0,0,0,91.8,21.4Z"/><path class="cls-4" d="M103.37,22.09l2.09.63a3.85,3.85,0,0,1-.66,1.46,2.84,2.84,0,0,1-1.12.89,4.23,4.23,0,0,1-1.71.3,5,5,0,0,1-2-.36,3.23,3.23,0,0,1-1.37-1.29A4.29,4.29,0,0,1,98,21.37a4,4,0,0,1,1-2.94,4.63,4.63,0,0,1,5.16-.43,3.47,3.47,0,0,1,1.24,1.8l-2.1.47a1.88,1.88,0,0,0-.24-.51,1.2,1.2,0,0,0-.48-.42,1.41,1.41,0,0,0-.65-.15,1.39,1.39,0,0,0-1.24.65,2.74,2.74,0,0,0-.33,1.52,2.87,2.87,0,0,0,.39,1.75,1.34,1.34,0,0,0,1.1.48,1.33,1.33,0,0,0,1-.39A2.34,2.34,0,0,0,103.37,22.09Z"/><path class="cls-4" d="M106.2,17.54h2.38v2.91l2.49-2.91h3.16l-2.81,2.91,2.94,4.79h-2.93l-1.62-3.17-1.23,1.29v1.88H106.2Z"/><path class="cls-4" d="M114.71,17.54h6.38v1.64h-4v1.23h3.7V22h-3.7V23.5h4.11v1.74h-6.5Z"/><path class="cls-4" d="M121.52,17.54h7.23v1.9h-2.43v5.8h-2.38v-5.8h-2.42Z"/></svg>