<svg id="图层_1" data-name="图层 1" xmlns="http://www.w3.org/2000/svg" viewBox="0 0 136 44"><defs><style>.cls-1{fill:#fff;}.cls-2{fill:#3e81c3;}.cls-3{fill:#3e82c3;}.cls-4{fill:#3f82c3;}.cls-5{fill:#3d81c3;}.cls-6{fill:#3f82c4;}.cls-7{fill:#3b80c3;}</style></defs><title>合作商logo</title><rect class="cls-1" x="-1.75" y="-0.38" width="138.7" height="44.77"/><path class="cls-2" d="M95.57,24.07l1.17-3.55c.33-1,.67-2,1-3,.1-.33.24-.51.63-.48.56,0,1.13,0,1.79,0-.23.71-.43,1.36-.64,2-.84,2.56-1.69,5.12-2.52,7.68-.12.4-.28.62-.75.58-.64-.06-1.46.18-1.9-.13s-.49-1.14-.69-1.75c-.45-1.34-.88-2.69-1.32-4-.08-.26-.18-.51-.34-.94-.16.45-.27.73-.36,1-.6,1.79-1.21,3.57-1.79,5.37a.59.59,0,0,1-.69.49,12.85,12.85,0,0,0-1.52,0,.55.55,0,0,1-.66-.45c-1-3.18-2.08-6.35-3.12-9.52,0-.06,0-.12,0-.28.77,0,1.5,0,2.24,0,.12,0,.26.27.32.44.66,2,1.31,4,2,6.07l.21.59c.12-.3.2-.5.27-.7.66-1.95,1.32-3.91,2-5.87a.69.69,0,0,1,.77-.57c1.63,0,1.62,0,2.12,1.54.58,1.83,1.18,3.66,1.77,5.49Z"/><path class="cls-3" d="M78.32,17.73v1.84h1.89v1.79H78.32c0,1.2,0,2.33,0,3.45,0,.57.45.82,1.11.76a5.25,5.25,0,0,0,.78-.18,12.7,12.7,0,0,1,.5,1.31c0,.1-.1.33-.22.4A3,3,0,0,1,76,24.57c0-1,0-2.07,0-3.16l-1.19-.06-.07-.86-.51,1c-.84-.14-1.63-.3-2.42-.41a1.34,1.34,0,0,0-.77.12,1.12,1.12,0,0,0-.54.62c0,.15.3.47.52.53.62.18,1.27.27,1.91.4l.59.14a2,2,0,0,1,1.68,1.78A2.22,2.22,0,0,1,74,26.86a5.74,5.74,0,0,1-3.8.44A20.39,20.39,0,0,1,68,26.68l.73-1.6c.91.21,1.77.42,2.63.58a2.34,2.34,0,0,0,.79,0c.39-.06.81-.16.82-.65s-.39-.52-.73-.59c-.75-.16-1.52-.26-2.27-.45a2,2,0,0,1-1.7-1.67,2.21,2.21,0,0,1,1.27-2.46,5.22,5.22,0,0,1,3.45-.4,5.22,5.22,0,0,0,3,0V17.73Z"/><path class="cls-4" d="M104.5,22.66a1.41,1.41,0,0,0-1.4-1.51,4.17,4.17,0,0,0-2.65.68l-.81-1.54a4.71,4.71,0,0,1,2.37-.9,5.26,5.26,0,0,1,3.27.41,2.83,2.83,0,0,1,1.53,2.6c0,1.59,0,3.19,0,4.85h-2.1l-.08-.76a3.29,3.29,0,0,1-3,.88,2.41,2.41,0,0,1-2.33-2.29,2.28,2.28,0,0,1,2.26-2.32c.75-.09,1.5-.07,2.25-.1C104.06,22.65,104.28,22.66,104.5,22.66Zm0,1.29c-.73.05-1.48,0-2.2.16a1,1,0,0,0-.63.61,1.13,1.13,0,0,0,.3.89,1.83,1.83,0,0,0,2,0A1.36,1.36,0,0,0,104.47,24Z"/><path class="cls-3" d="M59.67,19.46h2.25v1.75c0,.84,0,1.67,0,2.5,0,1.12.51,1.68,1.46,1.71a1.63,1.63,0,0,0,1.87-1.63c.06-1.2,0-2.4,0-3.59v-.71h2.25v7.77H65.46l-.07-.59a10.78,10.78,0,0,1-2,.7,3.09,3.09,0,0,1-3.71-3.23c0-1.48,0-3,0-4.44A1.93,1.93,0,0,1,59.67,19.46Z"/><path class="cls-5" d="M122.69,24h-5.85a1.5,1.5,0,0,0,.92,1.29,3,3,0,0,0,3.27-.42l1.21,1.29a9.59,9.59,0,0,1-.75.61,5.22,5.22,0,0,1-5.67-.39,4,4,0,0,1,2.36-7c2.82-.23,4.8,1.66,4.57,4.36A1.86,1.86,0,0,1,122.69,24Zm-2.09-1.33a1.86,1.86,0,0,0-2-1.62,1.75,1.75,0,0,0-1.74,1.62Z"/><path class="cls-5" d="M45.26,19V17.08h8.87V19H50.9v8.25H48.54V19Z"/><path class="cls-6" d="M126,19.59h1.91v1.77H126c0,1.22,0,2.37,0,3.52,0,.51.46.75,1.1.69a6.76,6.76,0,0,0,.78-.19l.6,1.56a3.78,3.78,0,0,1-3.49.13,2.38,2.38,0,0,1-1.32-2.4c0-1.07,0-2.14,0-3.27h-1.17V19.63l1.15-.08V17.73H126Z"/><path class="cls-6" d="M110.26,27.27H108V16.47h2.22Z"/><path class="cls-3" d="M113.8,27.26h-2.24V16.49h2.24Z"/><path class="cls-3" d="M54.29,19.46h2.09l.08.77a10.08,10.08,0,0,1,1.24-.68,9,9,0,0,1,1.39-.29v2.1a1.41,1.41,0,0,1-.25,0c-1.71.05-2.3.65-2.3,2.34v3.51H54.29Z"/><path class="cls-5" d="M23.07,11.76c.47.31.93.63,1.41.93a10.11,10.11,0,0,0,5.46,1.54c.26,0,.51,0,.76,0a.94.94,0,0,1,.95.95,53.85,53.85,0,0,1-.67,9.4,8.45,8.45,0,0,1-1.11,3,7.08,7.08,0,0,1-2.61,2.25c-1.25.73-2.49,1.47-3.73,2.22a1,1,0,0,1-1.15,0c-1.3-.78-2.57-1.59-3.9-2.3a6.59,6.59,0,0,1-3.51-5c-.28-1.68-.42-3.39-.6-5.09-.07-.66-.06-1.32-.09-2a1,1,0,0,0-.06-.23V15a1.3,1.3,0,0,1,1.36-.72A10.61,10.61,0,0,0,20,13.44a13.84,13.84,0,0,0,2.72-1.68Zm-6.85,4.49s0,.07,0,.11c0,1.12,0,2.25.14,3.36.15,1.61.32,3.22.58,4.81A4.49,4.49,0,0,0,19.33,28c1.17.63,2.3,1.33,3.45,2a.4.4,0,0,0,.32,0l3.67-2.11a4,4,0,0,0,2-2.52,19.86,19.86,0,0,0,.55-2.72c.17-1.68.25-3.37.36-5.05,0-.45,0-.9,0-1.35l-.11,0a11.87,11.87,0,0,1-6.39-2,.36.36,0,0,0-.46,0,10.79,10.79,0,0,1-4.1,1.73C17.82,16.05,17,16.13,16.22,16.25Z"/><path class="cls-7" d="M28.49,37.69H17.37A10.14,10.14,0,0,1,7.25,27.56V16.44A10.14,10.14,0,0,1,17.37,6.31H28.49A10.14,10.14,0,0,1,38.62,16.44V27.56A10.14,10.14,0,0,1,28.49,37.69ZM17.37,6.41a10,10,0,0,0-10,10V27.56a10,10,0,0,0,10,10H28.49a10,10,0,0,0,10-10V16.44a10,10,0,0,0-10-10Z"/></svg>