<?xml version="1.0" encoding="utf-8"?>
<!-- Generator: Adobe Illustrator 24.0.0, SVG Export Plug-In . SVG Version: 6.00 Build 0)  -->
<svg version="1.1" id="图层_1" xmlns="http://www.w3.org/2000/svg" xmlns:xlink="http://www.w3.org/1999/xlink" x="0px" y="0px"
	 viewBox="0 0 136 44" style="enable-background:new 0 0 136 44;" xml:space="preserve">
<style type="text/css">
	.st0{fill:#1E8BCA;}
	.st1{opacity:0.4;fill:#FFFFFF;}
	.st2{fill:#FFFFFF;}
	.st3{fill-rule:evenodd;clip-rule:evenodd;fill:#DB4B35;}
	.st4{fill-rule:evenodd;clip-rule:evenodd;fill:#129B7F;}
	.st5{fill-rule:evenodd;clip-rule:evenodd;fill:#FFFFFF;}
	.st6{fill-rule:evenodd;clip-rule:evenodd;fill:#040000;}
	.st7{fill-rule:evenodd;clip-rule:evenodd;fill:#2479AE;}
	.st8{fill-rule:evenodd;clip-rule:evenodd;fill:#1AAF5D;}
	.st9{fill:#1AAF5D;}
	.st10{fill:#1F64C9;}
	.st11{fill-rule:evenodd;clip-rule:evenodd;fill:#E87E04;}
	.st12{fill-rule:evenodd;clip-rule:evenodd;fill:#227FBB;}
	.st13{fill:#DB4B35;}
</style>
<rect class="st0" width="136" height="44"/>
<path class="st1" d="M125.5,39l3.5-16.6c0.3-1.5-0.5-2-1.5-1.7l-20.6,8c-1.4,0.5-1.4,1.3-0.2,1.7l5.3,1.6l12.3-7.7
	c0.6-0.4,1.1-0.2,0.7,0.2l-9.9,9l-0.4,5.4c0.5,0,0.8-0.2,1.1-0.5l2.6-2.5l5.4,3.9C124.5,40.5,125.2,40.2,125.5,39L125.5,39z"/>
<g>
	<g>
		<g id="Page-1">
			<g id="flags" transform="translate(-1800.000000, -2610.000000)">
				<g id="india" transform="translate(1800.000000, 2610.000000)">
					<path id="green" class="st8" d="M36.3,27H7.5c2.1,5.9,7.8,10.2,14.4,10.2S34.2,32.9,36.3,27L36.3,27L36.3,27z"/>
					<path id="white" class="st5" d="M7.5,27h28.8c0.6-1.6,0.9-3.3,0.9-5.1c0-1.8-0.3-3.5-0.9-5.1H7.5c-0.6,1.6-0.9,3.3-0.9,5.1
						C6.6,23.7,6.9,25.4,7.5,27L7.5,27L7.5,27z"/>
					<path id="orange" class="st11" d="M7.5,16.8h28.8c-2.1-5.9-7.8-10.2-14.4-10.2S9.6,10.8,7.5,16.8L7.5,16.8L7.5,16.8z"/>
					<path id="emblem_1_" class="st12" d="M22.7,25.8c0.2,0,0.4-0.1,0.7-0.2l0,0c0,0,0,0,0-0.1c0-0.1,0-0.2,0.1-0.2
						c0.1,0,0.2,0,0.2,0.1c0,0,0,0,0,0.1c0.2-0.1,0.4-0.2,0.6-0.3c0,0,0,0-0.1-0.1c-0.1-0.1,0-0.2,0-0.2c0.1-0.1,0.2,0,0.2,0
						c0,0,0,0.1,0,0.1l0,0c0.2-0.2,0.4-0.3,0.5-0.5l0,0c0,0-0.1,0-0.1,0c-0.1-0.1-0.1-0.2,0-0.2c0.1-0.1,0.2-0.1,0.2,0
						c0,0,0.1,0.1,0.1,0.1c0.1-0.2,0.3-0.4,0.4-0.6c0,0-0.1,0-0.1,0c-0.1,0-0.1-0.1-0.1-0.2c0-0.1,0.1-0.1,0.2-0.1
						c0,0,0.1,0,0.1,0.1l0,0c0.1-0.2,0.2-0.5,0.2-0.7l0,0c0,0-0.1,0-0.1,0c-0.1,0-0.2-0.1-0.2-0.2c0-0.1,0.1-0.2,0.2-0.2
						c0,0,0.1,0,0.1,0.1c0-0.1,0-0.2,0-0.4c0-0.1,0-0.3,0-0.4c0,0-0.1,0.1-0.1,0.1c-0.1,0-0.2-0.1-0.2-0.1c0-0.1,0.1-0.2,0.1-0.2
						c0.1,0,0.1,0,0.1,0l0,0c0-0.3-0.1-0.5-0.2-0.8l0,0c0,0,0,0.1-0.1,0.1c-0.1,0-0.2,0-0.2-0.1c0-0.1,0-0.2,0.1-0.2
						c0,0,0.1,0,0.1,0c-0.1-0.2-0.2-0.5-0.4-0.7c0,0,0,0.1-0.1,0.1c-0.1,0.1-0.2,0-0.2,0c-0.1-0.1,0-0.2,0-0.2c0,0,0.1,0,0.1,0l0,0
						c-0.2-0.2-0.4-0.4-0.6-0.5l0,0c0,0,0,0.1,0,0.1c-0.1,0.1-0.2,0.1-0.2,0c-0.1-0.1-0.1-0.2,0-0.2c0,0,0.1-0.1,0.1-0.1
						c-0.2-0.1-0.4-0.3-0.7-0.4c0,0,0,0.1,0,0.1c0,0.1-0.1,0.1-0.2,0.1c-0.1,0-0.1-0.1-0.1-0.2c0,0,0-0.1,0.1-0.1l0,0
						c-0.2-0.1-0.5-0.1-0.7-0.2l0,0c0,0,0,0.1,0,0.1c0,0.1-0.1,0.2-0.2,0.2c-0.1,0-0.2-0.1-0.2-0.2c0,0,0-0.1,0-0.1
						c-0.1,0-0.2,0-0.3,0c-0.2,0-0.3,0-0.5,0c0,0,0,0.1,0,0.1c0,0.1-0.1,0.2-0.1,0.2c-0.1,0-0.2-0.1-0.2-0.1c0,0,0-0.1,0-0.1l0,0
						c-0.2,0-0.5,0.1-0.7,0.2l0,0c0,0,0,0,0,0.1c0,0.1,0,0.2-0.1,0.2c-0.1,0-0.2,0-0.2-0.1c0,0,0,0,0-0.1c-0.2,0.1-0.4,0.2-0.6,0.4
						c0,0,0,0,0,0c0.1,0.1,0,0.2,0,0.2c-0.1,0.1-0.2,0-0.2,0c0,0,0,0,0,0l0,0c-0.2,0.1-0.3,0.3-0.5,0.5l0,0c0,0,0,0,0,0
						c0.1,0.1,0.1,0.2,0,0.2c-0.1,0.1-0.2,0.1-0.2,0c0,0,0,0,0,0c-0.1,0.2-0.2,0.4-0.3,0.6c0,0,0,0,0,0c0.1,0,0.1,0.1,0.1,0.2
						s-0.1,0.1-0.2,0.1c0,0,0,0,0,0l0,0c-0.1,0.2-0.1,0.4-0.2,0.6l0,0c0,0,0,0,0,0c0.1,0,0.2,0.1,0.2,0.2c0,0.1-0.1,0.2-0.2,0.2
						c0,0,0,0,0,0c0,0.1,0,0.2,0,0.3c0,0.1,0,0.3,0,0.4c0,0,0,0,0,0c0.1,0,0.2,0.1,0.2,0.1c0,0.1-0.1,0.2-0.1,0.2c0,0,0,0,0,0l0,0
						c0,0.2,0.1,0.4,0.2,0.6l0,0c0,0,0,0,0,0c0.1,0,0.2,0,0.2,0.1c0,0.1,0,0.2-0.1,0.2c0,0,0,0,0,0c0.1,0.2,0.2,0.4,0.3,0.5
						c0,0,0,0,0,0c0.1-0.1,0.2,0,0.2,0c0.1,0.1,0,0.2,0,0.2c0,0,0,0,0,0l0,0c0.1,0.2,0.3,0.3,0.5,0.4l0,0c0,0,0,0,0,0
						c0.1-0.1,0.2-0.1,0.2,0c0.1,0.1,0.1,0.2,0,0.2c0,0,0,0,0,0c0.2,0.1,0.4,0.2,0.6,0.3c0,0,0,0,0,0c0-0.1,0.1-0.1,0.2-0.1
						c0.1,0,0.1,0.1,0.1,0.2c0,0,0,0,0,0l0,0c0.2,0.1,0.4,0.1,0.6,0.2l0,0c0,0,0,0,0,0c0-0.1,0.1-0.2,0.2-0.1s0.2,0.1,0.1,0.2
						c0,0,0,0,0,0c0.1,0,0.2,0,0.3,0c0,0-2.1,0,0,0c0.1,0,0.2,0,0.3,0c0,0,0,0,0,0c0-0.1,0.1-0.2,0.1-0.2S22.7,25.6,22.7,25.8
						C22.7,25.7,22.7,25.8,22.7,25.8L22.7,25.8z M22.2,22.7c0.1,0,0.1,0,0.2-0.1l0,0l0.4,0.9l1.1,1.7l-0.9-1.9l-0.6-0.8
						c0.1,0,0.1-0.1,0.1-0.1l0.6,0.8l1.6,1.4l-1.4-1.6l-0.8-0.6l0,0c0,0,0.1-0.1,0.1-0.1l0,0l0.8,0.6l1.9,0.9l-1.7-1.1l-0.9-0.4
						c0-0.1,0.1-0.1,0.1-0.2l0.9,0.4l2,0.4l-2-0.7l-1-0.1l0,0c0-0.1,0-0.1,0-0.2c0,0,0,0,0,0l0,0l1,0.1l2.1-0.1l-2.1-0.1l-1,0.1
						c0-0.1,0-0.1,0-0.2l1-0.1l2-0.7l-2,0.4l-0.9,0.4c0-0.1,0-0.1-0.1-0.2l0,0l0.9-0.4l1.7-1.1l-1.9,0.9l-0.8,0.6
						c0-0.1-0.1-0.1-0.1-0.1l0.8-0.6l1.4-1.6l-1.6,1.4l-0.6,0.8l0,0c0,0-0.1-0.1-0.1-0.1l0,0l0.6-0.8l0.9-1.9l-1.1,1.7l-0.4,0.9
						c-0.1-0.1-0.2-0.1-0.3-0.1c-0.1,0-0.2,0-0.3,0.1L21,20.6l-0.9-1.9l1.1,1.7l0.4,0.9l0,0c-0.1,0-0.1,0.1-0.1,0.1l0,0l-0.6-0.8
						l-1.6-1.4l1.4,1.6l0.8,0.6c0,0-0.1,0.1-0.1,0.1l-0.8-0.6l-1.9-0.9l1.7,1.1l0.9,0.4l0,0c0,0.1-0.1,0.1-0.1,0.2l0,0l-0.9-0.4
						l-2-0.4l2,0.7l1,0.1c0,0.1,0,0.1,0,0.2l-1-0.1L18.2,22l2.1,0.1l1-0.1l0,0c0,0,0,0,0,0c0,0.1,0,0.1,0,0.2l0,0l-1,0.1l-2,0.7
						l2-0.4l0.9-0.4c0,0.1,0,0.1,0.1,0.2l-0.9,0.4l-1.7,1.1l1.9-0.9l0.8-0.6l0,0c0,0.1,0.1,0.1,0.1,0.1l0,0l-0.8,0.6l-1.4,1.6
						l1.6-1.4l0.6-0.8c0,0,0.1,0.1,0.1,0.1L21,23.4l-0.9,1.9l1.1-1.7l0.4-0.9l0,0c0.1,0,0.1,0.1,0.2,0.1l0,0l-0.4,0.9l-0.4,2l0.7-2
						l0.1-1c0.1,0,0.1,0,0.2,0l0,0c0,0-0.4,0,0,0c0,0,0,0,0,0l0.1,1L22,25.8l-0.1-2.1l0.1-1l0,0C22,22.7,22.1,22.7,22.2,22.7l0.1,1
						l0.7,2l-0.4-2L22.2,22.7L22.2,22.7z M22,26.2c2.3,0,4.2-1.9,4.2-4.2c0-2.3-1.9-4.2-4.2-4.2s-4.2,1.9-4.2,4.2
						C17.8,24.3,19.7,26.2,22,26.2C22,26.2,19.7,26.2,22,26.2L22,26.2z M21,18.4l0.4,2l0.4,0.9l-0.1-1L21,18.4L21,18.4z M22,18.3
						l-0.1,2.1l0.1,1l0.1-1L22,18.3L22,18.3z M22.9,18.4l-0.7,2l-0.1,1l0.4-0.9L22.9,18.4L22.9,18.4z"/>
				</g>
			</g>
		</g>
	</g>
	<g>
		<path class="st2" d="M43.3,17.3h1v7.9h-1V17.3z"/>
		<path class="st2" d="M50.6,20.9v4.3h-1v-3.9c0-0.9-0.2-1.5-1.2-1.5c-0.8,0-1.5,0.1-1.9,1.2v4.2h-1V19h1v0.9c0.4-0.8,1.2-1,2-1
			C50.1,18.9,50.6,19.8,50.6,20.9z"/>
		<path class="st2" d="M56.9,16.5v8.7H56l-0.1-1c-0.2,0.7-0.9,1.1-2,1.1c-2,0-2.5-1.3-2.5-3.2c0-1.7,0.5-3.2,2.5-3.2
			c1.2,0,1.8,0.5,2,1.2v-3.6H56.9z M55.9,22.1c0-1.4-0.4-2.4-1.9-2.4c-1.5,0-1.6,1.2-1.6,2.4c0,1.3,0.2,2.4,1.6,2.4
			C55.5,24.5,55.9,23.6,55.9,22.1z"/>
		<path class="st2" d="M57.9,17.3c0-0.5,0.2-0.6,0.6-0.6c0.4,0,0.6,0.1,0.6,0.6c0,0.5-0.2,0.6-0.6,0.6
			C58.1,17.9,57.9,17.8,57.9,17.3z M58,19h1v6.2h-1V19z"/>
		<path class="st2" d="M65.1,20.8v4.4h-0.8l-0.1-0.9c-0.4,0.7-1.3,1-2.2,1c-1.5,0-2.1-0.7-2.1-1.8c0-1.5,1-2,2.4-2h1.9V21
			c0-0.7-0.3-1.3-1.5-1.3c-0.4,0-0.9,0-1.4,0.1V19c0.5-0.1,1-0.1,1.4-0.1C64.5,18.9,65.1,19.7,65.1,20.8z M64.1,23.3v-1h-1.8
			c-1,0-1.5,0.2-1.5,1.2c0,0.7,0.3,1,1.2,1C63,24.5,63.7,24.1,64.1,23.3z"/>
		<path class="st2" d="M68,21.3c0-3.1,1.4-4.1,3.8-4.1c0.7,0,1.6,0.1,2.1,0.3v0.9c-0.5-0.2-1.2-0.3-2-0.3c-1.8,0-2.8,0.6-2.8,3.2
			c0,2.7,1,3.2,2.8,3.2c0.4,0,0.9,0,1.3-0.1v-2.5h-1.6V21h2.6v4c-0.6,0.2-1.4,0.3-2.4,0.3C69.4,25.3,68,24.6,68,21.3z"/>
		<path class="st2" d="M78.2,18.9l0,0.9H78c-0.8,0-1.6,0.3-1.9,1.4v4h-1V19h1v1.1c0.4-1,1.2-1.2,2-1.2H78.2z"/>
		<path class="st2" d="M78,22.1c0-2.5,1-3.2,2.9-3.2c1.8,0,2.8,0.7,2.8,3.2c0,2.5-1,3.2-2.8,3.2C79,25.3,78,24.6,78,22.1z
			 M82.6,22.1c0-1.8-0.5-2.4-1.8-2.4c-1.4,0-1.8,0.6-1.8,2.4c0,1.8,0.5,2.4,1.8,2.4C82.2,24.5,82.6,23.9,82.6,22.1z"/>
		<path class="st2" d="M89.4,19v6.2h-0.8l-0.1-0.9c-0.4,0.8-1.2,1-1.9,1c-1.6,0-2.1-0.8-2.1-2V19h1V23c0,0.9,0.2,1.5,1.2,1.5
			c0.8,0,1.5-0.2,1.8-1.2V19H89.4z"/>
		<path class="st2" d="M96.1,22.1c0,1.7-0.5,3.2-2.5,3.2c-1.2,0-1.7-0.5-2-1.2v3.4h-1V19h1v1.1c0.3-0.7,0.8-1.2,2-1.2
			C95.6,18.9,96.1,20.2,96.1,22.1z M95.1,22.1c0-1.3-0.2-2.4-1.6-2.4c-1.5,0-1.9,0.9-1.9,2.4c0,1.4,0.4,2.4,1.9,2.4
			C94.9,24.5,95.1,23.3,95.1,22.1z"/>
	</g>
</g>
</svg>
