<svg id="图层_1" data-name="图层 1" xmlns="http://www.w3.org/2000/svg" viewBox="0 0 136 44"><defs><style>.cls-1{fill:#fff;}.cls-2{fill:#0a0807;}.cls-3{fill:#0b0a09;}.cls-4{fill:#0c0a09;}.cls-5{fill:#0e0c0b;}.cls-6{fill:#0f0c0b;}.cls-7{fill:#12100e;}.cls-8{fill:#13110f;}.cls-9{fill:#120f0e;}.cls-10{fill:#100e0c;}</style></defs><title>合作商logo</title><rect class="cls-1" x="-1.75" y="-0.38" width="138.7" height="44.77"/><path class="cls-2" d="M31.38,23.05c.54-.09,1.06-.16,1.56-.26.76-.16.92,0,.93.76v.77c0,1.28,0,1.28-1.23,1.51a3.57,3.57,0,0,1-.91.13c-.86-.09-1.23.31-1.57,1.09a12.1,12.1,0,1,1,.46-9c.2.59.47.79,1.05.68l1.45-.25c.48-.1.74.07.75.57v1.13c0,1.14,0,1.14-1.13,1.36l-.56.1C31.18,21.85,31.16,21.89,31.38,23.05Zm-4,2.55c-.35-.11-.65-.23-1-.31a10.7,10.7,0,0,0-5,0c-.89.19-1,.09-1-.79a9.61,9.61,0,0,0,0-1.2c-.08-.66.23-.93.83-1.07a11.61,11.61,0,0,1,4.91.06c.64.13,1.27.29,1.89.44.3-1,.25-1-.53-1.29a10.89,10.89,0,0,0-6.34-.32c-.54.13-.75-.07-.75-.59a13.53,13.53,0,0,0,0-1.56.73.73,0,0,1,.73-.91c1.31-.08,2.62-.16,3.93-.15a14.11,14.11,0,0,1,2.16.36c-.71-2.94-5-5.51-8.71-5.24A9,9,0,1,0,27.39,25.6Z"/><path class="cls-3" d="M43,21.86a21,21,0,0,1,.29-2.09c.61-2.44,2.58-3.75,5.42-3.64a4.82,4.82,0,0,1,5,4.84,8.23,8.23,0,0,1-.42,3.68,4.08,4.08,0,0,1-3.17,2.74,10,10,0,0,1-3.08.1,4.57,4.57,0,0,1-4-4.42c0-.4,0-.8-.08-1.2Zm8.33,0a17.75,17.75,0,0,0-.44-2.17,2.68,2.68,0,0,0-5,0,6.35,6.35,0,0,0,0,4.15,2.65,2.65,0,0,0,5,0A17.5,17.5,0,0,0,51.33,21.9Z"/><path class="cls-4" d="M94.15,21.9c-.06.56-.1,1.13-.19,1.68a4.54,4.54,0,0,1-4.39,4,9.37,9.37,0,0,1-2,0,4.34,4.34,0,0,1-3.8-3.22,8.23,8.23,0,0,1,0-4.74c.69-2.4,2.84-3.68,5.66-3.41C92.53,16.45,94.11,18.35,94.15,21.9Zm-2.49,0a17.39,17.39,0,0,0-.43-2.1,2.4,2.4,0,0,0-2.51-1.68,2.44,2.44,0,0,0-2.49,1.71,6.31,6.31,0,0,0,0,4.16,2.66,2.66,0,0,0,5,0A16.89,16.89,0,0,0,91.66,21.86Z"/><path class="cls-5" d="M55.5,19.27c1.65-.24,1.75-.2,2.17.76a1.28,1.28,0,0,0,.28-.16,3.42,3.42,0,0,1,5.61,2,6.84,6.84,0,0,1,0,2.59c-.39,2-2,3.15-4.25,3.16-.44,0-.89-.05-1.43-.08V31H55.5Zm2.39,4.56c0,.52,0,1,0,1.55a.61.61,0,0,0,.3.45,2.14,2.14,0,0,0,3-1.7,6.53,6.53,0,0,0-.1-2.16,1.43,1.43,0,0,0-1.7-1.14,1.59,1.59,0,0,0-1.49,1.59C57.88,22.89,57.89,23.36,57.89,23.83Z"/><path class="cls-6" d="M120.78,19.22h2l.27,1a3.87,3.87,0,0,1,3-1.18,2.36,2.36,0,0,1,2.53,2.32c.1,2,0,4,0,6h-2.36V24.54c0-.92,0-1.84,0-2.75,0-.7-.43-1-1.12-1a1.62,1.62,0,0,0-1.81,1.79v4.84h-2.43Z"/><path class="cls-7" d="M116.55,26.6a3.6,3.6,0,0,1-3,1,2.35,2.35,0,0,1-2.23-1.92A2.24,2.24,0,0,1,112.68,23a14.37,14.37,0,0,1,2.8-.6,4.6,4.6,0,0,1,.83,0c.12-1.07-.49-1.65-1.65-1.53-.77.09-1.52.29-2.39.46l-.51-1.55a7.7,7.7,0,0,1,5-.48,2.52,2.52,0,0,1,2,2.34c.09,1.92,0,3.85,0,5.82h-1.94Zm-.2-3a16.51,16.51,0,0,0-2.16.43,1,1,0,0,0-.59,1.21c.13.56.54.72,1.05.74C116,26,116.51,25.36,116.35,23.62Z"/><path class="cls-2" d="M74.14,19.22h2l.25,1c.15-.11.28-.19.39-.28a3.71,3.71,0,0,1,2.91-.82,2.44,2.44,0,0,1,2.25,2.56c0,1.9,0,3.81,0,5.77H79.5V24c0-.66,0-1.32,0-2,0-1-.59-1.39-1.56-1.19a1.48,1.48,0,0,0-1.41,1.73v4.85H74.14Z"/><path class="cls-8" d="M72.68,23.84H67.09a1.8,1.8,0,0,0,1.94,2,26,26,0,0,0,2.8-.44l.54,1.38c-1.87.83-3.73,1.31-5.66.41a4.21,4.21,0,0,1-2-4.6,4.14,4.14,0,0,1,6.09-3.13,2.71,2.71,0,0,1,1.46,1.74C72.45,22,72.53,22.88,72.68,23.84Zm-2.41-1.51c-.07-1.14-.55-1.62-1.55-1.58a1.45,1.45,0,0,0-1.52,1.58Z"/><path class="cls-9" d="M110.64,23.84h-5.57a1.8,1.8,0,0,0,1.9,2,6.69,6.69,0,0,0,1.41-.15c.43-.09.85-.26,1.36-.42l.55,1.4c-1.56,1.09-4.5,1.32-5.93.34a4.26,4.26,0,0,1-1.69-4.49,4.11,4.11,0,0,1,6-3.11,2.77,2.77,0,0,1,1.55,1.84C110.42,22.05,110.49,22.89,110.64,23.84Zm-5.55-1.47h2.8c.11,0,.22,0,.33,0,0-1-.47-1.54-1.32-1.58C105.86,20.7,105.28,21.19,105.09,22.37Z"/><path class="cls-10" d="M101.51,25.44l.36,1.54a5,5,0,0,1-5.77-.6A5.12,5.12,0,0,1,96,20.45a4.76,4.76,0,0,1,5.82-.73l-.51,1.51c-1.22-.4-2.41-.79-3.32.43A3.29,3.29,0,0,0,98,25C98.64,25.83,99.61,26,101.51,25.44Z"/></svg>