<?xml version="1.0" encoding="utf-8"?>
<!-- Generator: Adobe Illustrator 24.0.0, SVG Export Plug-In . SVG Version: 6.00 Build 0)  -->
<svg version="1.1" id="图层_1" xmlns="http://www.w3.org/2000/svg" xmlns:xlink="http://www.w3.org/1999/xlink" x="0px" y="0px"
	 viewBox="0 0 136 44" style="enable-background:new 0 0 136 44;" xml:space="preserve">
<style type="text/css">
	.st0{fill:#FFFFFF;}
	.st1{fill:#866241;}
	.st2{fill:#705136;}
	.st3{fill:#9A704F;}
	.st4{fill:#745439;}
	.st5{fill:#060101;}
	.st6{fill:#966E4E;}
	.st7{fill:#050100;}
	.st8{fill:#050101;}
	.st9{fill:#040000;}
</style>
<title>合作商logo</title>
<rect x="-1.8" y="-0.4" class="st0" width="138.7" height="44.8"/>
<ellipse class="st1" cx="28.6" cy="23.6" rx="1" ry="1.1"/>
<path class="st2" d="M35.1,30.4L35.1,30.4z"/>
<polygon class="st3" points="21.7,9.2 14.5,14.8 14,17.3 13.5,18.1 11.5,19.3 10,21.9 10.3,24 10.8,25.8 8.4,28.6 8,31.5 10.7,35 
	14.1,35.9 17.2,36.4 19.1,36.5 19,31.8 "/>
<path class="st4" d="M24.1,8.6l-2,5.2l2.4,4.2l4.5,5l0.8,6.6c0,0-0.5,2.5-0.6,2.7c-0.1,0.2-0.7,3.2-0.7,3.2h2.5l3.7-2.4l0.9-2.6
	l-0.3-3.1l-2.6-2.4l-1.1-0.6c0,0,1-1.7,1.1-1.9C33,22.4,33,21,33,21l-0.6-1.8l-1.8-1.5L28.9,17l-1.3-1.6c0,0-0.6-0.2-0.8-0.8
	c-0.2-0.6-1.1-3.5-1.1-3.5l1.5-2.8l0.4-1L24.1,8.6z"/>
<path class="st1" d="M32.1,27.6c-0.4-0.6-0.7-1.1-1.2-1.6c-0.2-0.2-0.4-0.5-0.6-0.7l-0.2-0.1c-0.4-0.1-0.8-0.2-1.2-0.3
	c-0.4-0.1-0.7-0.6-0.6-1c0.1-0.4,0.5-0.7,1-0.7c0.2,0,0.4,0,0.6,0.1c0.2,0.1,0.5,0.1,0.7,0.2c0-0.6,0-1.2-0.2-1.8
	c-0.2-0.5-0.5-1-0.9-1.4c-0.9-0.8-1.8-1.6-2.7-2.4c-0.9-0.8-1.7-1.7-2.3-2.8c-0.6-1.1-0.8-2.4-0.7-3.7c0.1-0.9,0.4-1.8,0.8-2.6
	c-1.1,0.3-2.2,0.7-3.2,1.3l0,0h-0.1c0,0.1-0.1,0.2-0.1,0.2c-1.2,1.3-2.3,2.8-3.2,4.4c-0.3,0.6-0.6,1.2-0.9,1.8
	c-0.1,0.2-0.2,0.5-0.2,0.7c0,0.1,0.1,0.2,0.1,0.3c0.1,0,0.2,0.1,0.3,0.1c0.3,0.1,0.6,0.3,0.9,0.5c0,0,0.1,0.1,0.1,0.1
	c0.3,0.3,0.2,0.8-0.1,1.1c-0.3,0.2-0.6,0.3-0.9,0.2l-1.6-0.5c-0.3,0.1-0.6,0.2-0.8,0.3c-1,0.5-1.8,1.3-2.2,2.4
	c-0.3,0.8-0.3,1.8,0.2,2.6c0.1,0.1,0.2,0.2,0.3,0.2c0.2,0.1,0.4,0.1,0.6,0.1c0.2,0,0.3,0,0.5,0.1c0.4,0.1,0.8,0.3,1.2,0.4
	c0.1,0,0.1,0.1,0.2,0.1c0.4,0.3,0.4,0.8,0.1,1.2c-0.2,0.3-0.7,0.4-1,0.2l-1-0.3c-0.6,0.2-1.1,0.5-1.5,0.9c-0.5,0.6-0.8,1.3-0.9,2
	c-0.2,0.9,0,1.9,0.5,2.7c0.4,0.7,0.9,1.3,1.5,1.8c0.3,0.3,0.7,0.6,1.1,0.9c0.2,0.1,0.3,0.2,0.5,0.3c1.6,0.3,3.3,0.5,4.9,0.6
	c2.8,0.1,5.6-0.1,8.4-0.5c0.9-0.2,1.8-0.4,2.8-0.6l0.7-1.1C32.9,31.8,33.1,29.5,32.1,27.6z"/>
<path class="st2" d="M35,30.6L35,30.6z"/>
<path class="st5" d="M26,7h1.4c0.1,0,0.1,0,0.2,0.1c0.3,0.1,0.6,0.1,0.9,0.2c0.4,0.2,0.6,0.6,0.4,1c0,0.1-0.1,0.1-0.1,0.2
	c-0.1,0.2-0.3,0.3-0.5,0.5c-1.8,1.2-2.2,3.7-1,5.5c0.1,0.1,0.2,0.2,0.2,0.3c0.7,0.9,1.6,1.6,2.6,2.1c0.9,0.5,1.7,1.1,2.4,1.7
	c1.2,1,1.7,2.7,1.3,4.2c-0.2,0.6-0.4,1.2-0.7,1.7c0.8,0.4,1.4,1,2,1.7c2.1,2.4,1.9,6-0.5,8.1c0,0,0,0,0,0c-1.2,1-2.7,1.8-4.2,2.1
	c-2.3,0.5-4.6,0.8-6.9,0.8c-3.2,0.2-6.5,0-9.7-0.7c-1.4-0.2-2.8-0.7-4-1.4C8.4,34.4,7.3,33,7,31.3c0-0.1,0-0.1,0-0.2v-1.2
	c0,0,0.1-0.1,0.1-0.1c0.2-1.5,1.1-2.9,2.3-3.7c0.1-0.1,0.3-0.2,0.4-0.3c-1-1.5-1.1-3.5-0.3-5.1c0.6-1.7,2.1-2.9,3.8-3.3
	c0.1-0.7,0.3-1.3,0.5-2c0.3-0.8,0.7-1.5,1.3-2.1c1.7-1.9,3.8-3.5,6-4.8c1.2-0.7,2.6-1.1,4-1.4L26,7z M21,10.5
	c-1.6,1.1-3.2,2.3-4.5,3.8c-0.4,0.5-0.8,1.1-1.1,1.6c-0.3,0.5-0.4,1-0.3,1.5l1.9,0.3c0.1,0,0.2,0.1,0.3,0.1c0.3,0.1,0.6,0.3,0.9,0.5
	c0.3,0.3,0.4,0.8,0.1,1.1c0,0-0.1,0.1-0.1,0.1c-0.3,0.2-0.6,0.3-0.9,0.2l-1.6-0.5l-0.8-0.2h-1c-0.1,0-0.2,0-0.3,0
	c-1.5,0.5-2.5,1.7-2.8,3.2c-0.3,0.9,0,1.9,0.6,2.6c0.1,0.1,0.2,0.1,0.4,0.1c0.7-0.2,1.4-0.3,2.1-0.2c0.2,0,0.3,0,0.5,0.1
	c0.4,0.1,0.8,0.2,1.2,0.4c0.4,0.2,0.6,0.7,0.5,1.1c0,0.1-0.1,0.1-0.1,0.2c-0.2,0.3-0.7,0.4-1,0.2l-1-0.3c-0.1,0-0.2,0-0.3-0.1
	c-1.5-0.1-2.9,0.5-3.8,1.7c-1.3,1.3-1.3,3.4,0,4.7c0,0,0.1,0.1,0.1,0.1c0.4,0.4,0.9,0.7,1.4,1c1.2,0.6,2.4,1,3.7,1.2
	c1.6,0.3,3.3,0.5,5,0.5c2.8,0.1,5.6-0.1,8.4-0.5c0.9-0.2,1.8-0.4,2.8-0.6c1.2-0.2,2.2-0.8,3-1.7c0.6-0.6,0.9-1.4,1-2.2v-0.9
	c0-0.1,0-0.2,0-0.4c-0.3-1.1-0.9-2.1-1.9-2.8c-0.8-0.6-1.7-1.1-2.7-1.2l-0.2-0.1c-0.4-0.1-0.9-0.2-1.3-0.3c-0.4-0.1-0.7-0.6-0.6-1
	c0.1-0.4,0.5-0.7,1-0.7c0.2,0,0.4,0,0.6,0.1c0.2,0.1,0.5,0.1,0.7,0.2s0.6,0.2,0.9,0.3s0.2,0,0.3-0.1c0.2-0.5,0.4-0.9,0.5-1.4
	c0.1-0.4,0.1-0.8,0-1.2c-0.2-0.9-0.8-1.6-1.6-2c-0.8-0.5-1.6-0.9-2.4-1.5c-1.1-0.7-2-1.6-2.6-2.7c-0.7-1.2-0.9-2.7-0.7-4.1
	c0.1-0.7,0.3-1.3,0.8-1.8c0.1-0.1,0.2-0.2,0.4-0.4V8.6l-1.5,0.3c-1.1,0.3-2.2,0.7-3.2,1.3C21.4,10.2,21.1,10.4,21,10.5z"/>
<path class="st6" d="M14.8,19.1L14.8,19.1z"/>
<path class="st7" d="M22.9,29.2l1-0.4c0.2-0.1,0.5-0.2,0.8-0.3c0.3-0.1,0.7,0.1,0.8,0.5c0.2,0.3,0.1,0.7-0.1,0.9
	c-0.3,0.3-0.7,0.5-1.1,0.7c-1.5,0.7-3.3,0.6-4.7-0.2c-0.2-0.1-0.4-0.3-0.6-0.5c-0.3-0.3-0.3-0.7,0-1c0.2-0.3,0.6-0.5,1-0.4
	c0.4,0.1,0.7,0.3,1.1,0.5c0.1,0.1,0.3,0.1,0.4,0.1C21.8,29.4,22.4,29.4,22.9,29.2z"/>
<path class="st5" d="M24.9,25.9c-0.7,0-1.3-0.7-1.3-1.4c0,0,0,0,0,0c0-0.7,0.6-1.3,1.2-1.3c0.7,0,1.3,0.6,1.3,1.4
	C26.2,25.3,25.6,25.9,24.9,25.9C24.9,25.9,24.9,25.9,24.9,25.9z"/>
<path class="st8" d="M18,24.4c0-0.7,0.5-1.3,1.2-1.3c0,0,0,0,0,0c0.8,0.1,1.3,0.7,1.2,1.5c-0.1,0.7-0.6,1.2-1.2,1.2
	C18.5,25.9,18,25.2,18,24.4C18,24.5,18,24.5,18,24.4z"/>
<path class="st9" d="M44.4,16.5h8c1.4-0.1,2.8,0.3,3.9,1.2c0.9,0.9,1.4,2.2,1.3,3.5c0.1,1.4-0.4,2.7-1.4,3.7c-1.2,1-2.8,1.5-4.3,1.3
	h-2.6v5.8h-4.8V16.5z M49.2,23.1h1.2c0.7,0.1,1.4-0.1,2-0.5c0.4-0.3,0.6-0.8,0.6-1.2c0-0.5-0.2-0.9-0.5-1.2
	c-0.5-0.4-1.2-0.6-1.8-0.5h-1.4V23.1z"/>
<path class="st9" d="M57,26.4c-0.1-1.6,0.6-3.2,1.7-4.3c1.3-1.2,3-1.8,4.7-1.7c1.9-0.1,3.8,0.6,5.1,2c0.9,1.1,1.4,2.5,1.4,3.9
	c0.1,1.6-0.6,3.2-1.7,4.3c-1.3,1.2-3,1.8-4.8,1.7c-1.6,0.1-3.1-0.4-4.4-1.4C57.7,29.9,56.9,28.2,57,26.4z M61.3,26.4
	c0,0.8,0.2,1.6,0.7,2.2c0.7,0.9,2,1,2.8,0.3c0.1-0.1,0.2-0.2,0.3-0.3c0.5-0.7,0.7-1.5,0.6-2.3c0-0.8-0.2-1.5-0.7-2.2
	c-0.4-0.5-0.9-0.7-1.5-0.7c-0.6,0-1.2,0.3-1.6,0.7C61.5,24.9,61.3,25.6,61.3,26.4L61.3,26.4z"/>
<path class="st9" d="M69.8,26.4c-0.1-1.6,0.6-3.2,1.7-4.3c1.3-1.2,3-1.8,4.7-1.7c1.9-0.1,3.8,0.6,5.1,2c0.9,1.1,1.4,2.5,1.4,3.9
	c0,1.6-0.6,3.1-1.8,4.2c-1.3,1.2-3,1.8-4.8,1.7c-1.6,0.1-3.1-0.4-4.4-1.4C70.5,29.8,69.7,28.2,69.8,26.4z M74.1,26.4
	c-0.1,0.8,0.2,1.6,0.6,2.2c0.4,0.5,0.9,0.7,1.5,0.7c0.6,0,1.2-0.3,1.5-0.7c0.5-0.7,0.7-1.5,0.6-2.3c0.1-0.8-0.2-1.5-0.6-2.2
	c-0.4-0.5-0.9-0.7-1.5-0.7c-0.6,0-1.2,0.3-1.6,0.7C74.3,24.9,74.1,25.6,74.1,26.4L74.1,26.4z"/>
<path class="st9" d="M93.8,25.7L98,27c-0.2,1.1-0.7,2.1-1.3,3c-0.6,0.8-1.4,1.4-2.3,1.8c-1.1,0.4-2.3,0.6-3.4,0.6
	c-1.4,0.1-2.8-0.2-4.2-0.7c-1.2-0.6-2.1-1.5-2.8-2.7c-0.8-1.4-1.2-3.1-1.2-4.8c-0.1-2.2,0.6-4.3,2.1-5.9c1.6-1.5,3.7-2.2,5.8-2.1
	c1.6-0.1,3.3,0.3,4.6,1.2c1.2,0.9,2.1,2.2,2.5,3.6l-4.2,1c-0.1-0.4-0.3-0.7-0.5-1c-0.3-0.4-0.6-0.7-1-0.9c-1.3-0.7-3-0.2-3.8,1
	c-0.5,0.9-0.7,2-0.7,3.1c-0.1,1.2,0.2,2.5,0.8,3.5c1.2,1.2,3,1.3,4.3,0.2C93.3,27.3,93.6,26.5,93.8,25.7z"/>
<path class="st9" d="M97.8,26.4c-0.1-1.6,0.6-3.2,1.8-4.3c2.9-2.3,7.1-2.2,9.8,0.3c0.9,1.1,1.4,2.5,1.4,3.9c0,1.6-0.6,3.2-1.8,4.3
	c-1.3,1.2-3,1.8-4.8,1.7c-1.6,0.1-3.1-0.4-4.4-1.4C98.5,29.8,97.7,28.2,97.8,26.4z M102.1,26.4c-0.1,0.8,0.2,1.6,0.6,2.2
	c0.4,0.5,0.9,0.7,1.5,0.7c0.6,0,1.2-0.3,1.5-0.7c0.5-0.7,0.7-1.5,0.6-2.3c0.1-0.8-0.2-1.5-0.6-2.2c-0.4-0.5-0.9-0.7-1.5-0.7
	c-0.6,0-1.2,0.3-1.6,0.7C102.3,24.9,102.1,25.6,102.1,26.4L102.1,26.4z"/>
<path class="st9" d="M111.3,16.5h4.3v2.9h-4.3L111.3,16.5z M111.3,20.8h4.3v11.3h-4.3L111.3,20.8z"/>
<path class="st9" d="M116.6,20.8h4v1.8c0.5-0.7,1.1-1.2,1.9-1.6c0.7-0.3,1.5-0.5,2.3-0.5c1-0.1,2.1,0.3,2.8,1.1
	c0.7,0.9,1.1,2.1,1,3.3v7.2h-4.3v-6.2c0.1-0.5-0.1-1.1-0.4-1.5c-0.3-0.3-0.7-0.5-1.1-0.5c-0.5,0-1,0.2-1.3,0.6
	c-0.4,0.6-0.6,1.4-0.5,2.1v5.4h-4.3L116.6,20.8z"/>
</svg>
