<svg xmlns="http://www.w3.org/2000/svg" xmlns:xlink="http://www.w3.org/1999/xlink" viewBox="0 0 136 44"><defs><style>.cls-1{fill:#fff;}.cls-2{fill:url(#未命名的渐变_24);}.cls-3{fill:#3258a6;}.cls-4{fill:#231815;}.cls-5{fill:#040000;}</style><linearGradient id="未命名的渐变_24" x1="19.82" y1="36.14" x2="48.89" y2="7.07" gradientUnits="userSpaceOnUse"><stop offset="0" stop-color="#3258a6"/><stop offset="0.23" stop-color="#3353a3"/><stop offset="0.48" stop-color="#36469a"/><stop offset="0.48" stop-color="#36469a"/><stop offset="0.75" stop-color="#3353a3"/><stop offset="1" stop-color="#3258a6"/></linearGradient></defs><title>资源 10</title><g id="图层_2" data-name="图层 2"><g id="图层_1-2" data-name="图层 1"><rect class="cls-1" width="136" height="44"/><path class="cls-2" d="M18.36,34.61a27.32,27.32,0,0,0,13.7-4.7,26.19,26.19,0,0,0,5.75-6.54,18.14,18.14,0,0,1,3.6-4.31,16.23,16.23,0,0,1,9.05-3.27s.09,0,0,0V8.64A16.22,16.22,0,0,0,46.14,9a22.19,22.19,0,0,0-9,4.1A23.85,23.85,0,0,0,31.8,19.2,19.89,19.89,0,0,1,27.73,24a20.1,20.1,0,0,1-9.37,3.28h0v7.29C18.53,34.6,18.15,34.61,18.36,34.61Z"/><path class="cls-3" d="M50.46,34.61a27.35,27.35,0,0,1-13.71-4.7A26.19,26.19,0,0,1,31,23.37a18.37,18.37,0,0,0-3.59-4.31,14.43,14.43,0,0,0-9-2.92s-.1,0,0,0V9a10.92,10.92,0,0,1,4.31,0,22.19,22.19,0,0,1,9,4.1A23.89,23.89,0,0,1,37,19.2,20.09,20.09,0,0,0,41.08,24a20.09,20.09,0,0,0,9.38,3.28h0v7.29C50.28,34.6,50.66,34.61,50.46,34.61Z"/><path class="cls-4" d="M58.05,29.08V13.8h7.44a4.86,4.86,0,0,1,3.75,1.36,3.68,3.68,0,0,1,1,2.55A3.4,3.4,0,0,1,69.51,20a3.44,3.44,0,0,1-1.19.88,3.38,3.38,0,0,1,1.88,1.53,4.83,4.83,0,0,1,.15,3.9,4.27,4.27,0,0,1-1,1.43,4.11,4.11,0,0,1-1.55,1,10.63,10.63,0,0,1-3.28.38Zm3.07-12.64v3.33h3.75a2.93,2.93,0,0,0,1.6-.38,1.49,1.49,0,0,0,.66-1.31,1.35,1.35,0,0,0-.6-1.26,3.32,3.32,0,0,0-1.75-.38Zm0,5.91v4.09H65a2.73,2.73,0,0,0,1.82-.54,2.13,2.13,0,0,0,.63-1.7,1.57,1.57,0,0,0-.66-1.39,2.78,2.78,0,0,0-1.64-.46Z"/><path class="cls-4" d="M76.27,13.63V16.4h-3V13.63Zm-3,4.11h3V29.08h-3Z"/><path class="cls-4" d="M89.38,21.24v7.84h-3V22.2a3.08,3.08,0,0,0-.26-1.43A1.73,1.73,0,0,0,84.46,20a2.26,2.26,0,0,0-1.69.68,2.68,2.68,0,0,0-.66,1.94v6.5h-3V17.74H82v1.67a4.48,4.48,0,0,1,1.55-1.53,4,4,0,0,1,1.91-.43,4.09,4.09,0,0,1,2.83,1A3.55,3.55,0,0,1,89.38,21.24Z"/><path class="cls-4" d="M112.72,21.14l5,7.94h-3.9l-2.9-5.22-3.09,5.22h-3.73L109,21.27l-4.67-7.47h3.82l2.73,4.95,2.79-4.95h3.69Z"/><path class="cls-5" d="M102.86,16.84H96v0a5.66,5.66,0,0,0,.62,11.29,5.58,5.58,0,0,0,2.2-.44,3,3,0,1,1-5.2,2,3.42,3.42,0,0,1,0-.45L91,28.88a6.07,6.07,0,0,0-.06.85,5.66,5.66,0,1,0,10-3.62,5.61,5.61,0,0,0,1.31-3.62,5.71,5.71,0,0,0-.88-3h1.5Zm-9.28,5.65a3,3,0,1,1,3,3A3,3,0,0,1,93.58,22.49Z"/></g></g></svg>