<?xml version="1.0" encoding="utf-8"?>
<!-- Generator: Adobe Illustrator 24.0.0, SVG Export Plug-In . SVG Version: 6.00 Build 0)  -->
<svg version="1.1" id="图层_1" xmlns="http://www.w3.org/2000/svg" xmlns:xlink="http://www.w3.org/1999/xlink" x="0px" y="0px"
	 viewBox="0 0 136 44" style="enable-background:new 0 0 136 44;" xml:space="preserve">
<style type="text/css">
	.st0{fill:#FFFFFF;}
	.st1{fill:#231815;}
	.st2{fill:#34B281;}
	.st3{fill:#9DC145;}
	.st4{fill:#219169;}
	.st5{fill:#4AA741;}
	.st6{fill:#E97D27;}
	.st7{fill:#E9552A;}
	.st8{fill:#AF7F4F;}
	.st9{fill:#EEC825;}
	.st10{fill:#925C31;}
	.st11{fill:#262628;}
	.st12{fill:#EAAB29;}
	.st13{fill:#3C80B5;}
	.st14{fill:#AE303B;}
	.st15{fill:#F0D93B;}
	.st16{fill:#EA8526;}
	.st17{fill:#405E7C;}
</style>
<rect class="st0" width="136" height="44"/>
<g>
	<path class="st1" d="M25.2,16h2.7v10.4h-2.7V16z"/>
	<path class="st1" d="M29.8,16h2.5l3.3,5.7V16h2.5v10.4h-2.5l-3.3-5.7v5.7h-2.5V16z"/>
	<path class="st1" d="M49.3,16h7.2v2.2H52v1.7h4.2V22H52v2h4.6v2.4h-7.3V16z"/>
	<path class="st1" d="M57.6,23l2.6-0.2c0.1,0.5,0.2,0.9,0.3,1.1c0.3,0.4,0.7,0.6,1.2,0.6c0.4,0,0.7-0.1,0.9-0.3
		c0.2-0.2,0.3-0.5,0.3-0.7c0-0.3-0.1-0.5-0.3-0.7c-0.2-0.2-0.7-0.4-1.4-0.6c-1.2-0.3-2-0.7-2.5-1.3c-0.5-0.5-0.8-1.2-0.8-2
		c0-0.5,0.1-1,0.4-1.5c0.3-0.5,0.6-0.8,1.2-1.1c0.5-0.3,1.2-0.4,2.1-0.4c1.1,0,2,0.2,2.5,0.7c0.6,0.5,0.9,1.3,1,2.4l-2.5,0.2
		c-0.1-0.5-0.2-0.8-0.4-1c-0.2-0.2-0.5-0.3-0.9-0.3c-0.3,0-0.5,0.1-0.7,0.2c-0.2,0.2-0.2,0.4-0.2,0.6c0,0.2,0.1,0.3,0.2,0.4
		c0.1,0.1,0.4,0.3,0.9,0.4c1.2,0.3,2,0.6,2.5,0.9c0.5,0.3,0.9,0.7,1.1,1.2c0.2,0.5,0.3,1,0.3,1.5c0,0.7-0.2,1.3-0.5,1.8
		c-0.3,0.6-0.7,1-1.3,1.3c-0.6,0.3-1.2,0.4-2.1,0.4c-1.5,0-2.5-0.3-3.1-1C58,24.9,57.7,24,57.6,23z"/>
	<path class="st1" d="M66.2,16h8.2v2.6h-2.7v7.8H69v-7.8h-2.7V16z"/>
	<path class="st1" d="M75.6,16h3.5l1.4,3.5l1.4-3.5h3.5v10.4h-2.2v-7.9l-2.7,4.8l-2.6-4.8v7.9h-2.2V16z"/>
	<path class="st1" d="M87,16h7.2v2.2h-4.5v1.7h4.2V22h-4.2v2h4.6v2.4H87V16z"/>
	<path class="st1" d="M95.8,16h2.5l3.3,5.7V16h2.5v10.4h-2.5l-3.3-5.7v5.7h-2.5V16z"/>
	<path class="st1" d="M105.3,16h8.2v2.6h-2.7v7.8H108v-7.8h-2.7V16z"/>
	<g>
		<polygon class="st2" points="66,33 64.8,30.1 61.8,30.1 61.8,38.8 63.7,38.8 63.7,32.2 65.9,36.2 68.2,32.2 68.2,38.8 70.1,38.8 
			70.1,30.1 67.1,30.1 		"/>
		<rect x="71.9" y="30.1" class="st2" width="2.3" height="8.8"/>
		<polygon class="st2" points="80.7,34.9 77.9,30.1 75.8,30.1 75.8,38.8 78,38.8 78,34 80.7,38.8 82.8,38.8 82.8,30.1 80.7,30.1 		
			"/>
		<path class="st2" d="M90.4,31.3c-0.3-0.4-0.6-0.7-1-0.9c-0.4-0.2-0.9-0.3-1.6-0.3h-3.4v8.8h3.4c0.4,0,0.9-0.1,1.3-0.2
			c0.4-0.1,0.7-0.3,1-0.7c0.3-0.3,0.6-0.8,0.7-1.3c0.2-0.5,0.3-1.2,0.3-2.2c0-0.6-0.1-1.2-0.2-1.7C90.8,32.2,90.6,31.7,90.4,31.3z
			 M88.7,36c-0.1,0.3-0.3,0.5-0.5,0.7c-0.2,0.1-0.5,0.2-1,0.2h-0.6v-4.8h0.6c0.6,0,1,0.2,1.3,0.5c0.3,0.3,0.4,1,0.4,1.9
			C88.8,35.2,88.8,35.7,88.7,36z"/>
		<path class="st2" d="M97.3,33.6c-0.4-0.3-1.1-0.5-2.1-0.8c-0.4-0.1-0.7-0.2-0.8-0.3c-0.1-0.1-0.2-0.2-0.2-0.4
			c0-0.2,0.1-0.4,0.2-0.5c0.1-0.1,0.3-0.2,0.6-0.2c0.3,0,0.6,0.1,0.8,0.3c0.2,0.2,0.3,0.5,0.4,0.9l2.1-0.1c-0.1-0.9-0.4-1.6-0.9-2
			c-0.5-0.4-1.2-0.6-2.1-0.6c-0.8,0-1.4,0.1-1.8,0.3c-0.4,0.2-0.8,0.5-1,0.9c-0.2,0.4-0.3,0.8-0.3,1.3c0,0.7,0.2,1.2,0.6,1.7
			c0.4,0.4,1.1,0.8,2.1,1.1c0.6,0.2,1,0.3,1.2,0.5c0.2,0.2,0.2,0.4,0.2,0.6c0,0.2-0.1,0.4-0.3,0.6c-0.2,0.2-0.4,0.3-0.7,0.3
			c-0.4,0-0.8-0.2-1-0.5c-0.1-0.2-0.2-0.5-0.3-1l-2.2,0.2c0.1,0.9,0.3,1.6,0.8,2.2c0.5,0.6,1.3,0.9,2.6,0.9c0.7,0,1.3-0.1,1.8-0.4
			c0.5-0.2,0.8-0.6,1.1-1.1c0.3-0.5,0.4-1,0.4-1.6c0-0.5-0.1-0.9-0.3-1.3C98.1,34.1,97.8,33.8,97.3,33.6z"/>
		<polygon class="st2" points="105.8,30.1 105.7,30.1 99.7,30.1 99.7,38.8 105.9,38.8 105.9,36.8 102,36.8 102,35.1 105.5,35.1 
			105.5,33.3 102,33.3 102,31.9 105.7,31.9 105.8,31.9 108.9,31.9 108.9,38.8 111.1,38.8 111.1,31.9 113.5,31.9 113.5,30.1 		"/>
	</g>
	<g>
		<path class="st2" d="M25.2,9.5h2l0.8,1.9l0.7-1.9h2v5.8h-1.2v-4.4l-1.5,2.7l-1.5-2.7v4.4h-1.2V9.5z"/>
		<path class="st2" d="M31,9.5h1.7l1,1.9l1-1.9h1.6l-1.9,3.3v2.4h-1.5v-2.4L31,9.5z"/>
	</g>
	<polygon points="41.8,16 39,16 42.3,26.4 42.6,26.4 43.7,22.8 	"/>
	<path class="st2" d="M51.8,10.4l-1.6-5.1l-4.2,4c0.1,0,0.7,0.1,1.6,0.3l-3.8,13.3l-1.1,3.6h2.6l4.9-16.3
		C51,10.3,51.8,10.4,51.8,10.4z"/>
	<g>
		<g>
			<rect x="24.9" y="32.8" class="st3" width="6.7" height="6"/>
		</g>
		<g>
			<rect x="37.9" y="31.6" class="st4" width="6.7" height="7.2"/>
		</g>
		<g>
			<rect x="31.3" y="28.7" class="st5" width="6.7" height="10.1"/>
		</g>
		<g>
			<rect x="44.5" y="30.2" class="st6" width="6.7" height="8.6"/>
		</g>
		<g>
			<rect x="51.1" y="28.3" class="st7" width="6.7" height="10.5"/>
		</g>
		<g>
			<g>
				<path class="st0" d="M33.7,36.7C33.7,36.7,33.6,36.7,33.7,36.7l-5.4-1.2c-0.2,0-0.3-0.2-0.3-0.4c0-0.2,0.2-0.3,0.4-0.3l5.4,1.2
					c0.2,0,0.3,0.2,0.3,0.4C34,36.6,33.9,36.7,33.7,36.7z"/>
			</g>
		</g>
		<g>
			<g>
				<path class="st0" d="M40.5,34.5C40.5,34.5,40.5,34.5,40.5,34.5l-5.1,2.3c-0.2,0.1-0.4,0-0.5-0.2c-0.1-0.2,0-0.4,0.2-0.5l5-2.2
					c0.2-0.1,0.4,0,0.5,0.2C40.7,34.2,40.6,34.4,40.5,34.5z"/>
			</g>
		</g>
		<g>
			<g>
				<path class="st0" d="M46.9,36C46.8,36,46.8,36,46.9,36l-5.3-1.8c-0.2-0.1-0.3-0.3-0.2-0.4c0.1-0.2,0.3-0.3,0.4-0.2l5.2,1.8
					c0.2,0.1,0.3,0.3,0.2,0.4C47.2,36,47,36.1,46.9,36z"/>
			</g>
		</g>
		<g>
			<g>
				<path class="st0" d="M54.5,32.8C54.5,32.8,54.5,32.8,54.5,32.8l-5.6,3.4c-0.2,0.1-0.4,0.1-0.5-0.1c-0.1-0.2,0-0.4,0.2-0.5
					l5.6-3.4c0.2-0.1,0.4-0.1,0.5,0.1C54.7,32.5,54.7,32.7,54.5,32.8z"/>
			</g>
		</g>
		<g>
			<circle class="st8" cx="27.8" cy="35.2" r="0.9"/>
			<path class="st9" d="M27.8,36.4c-0.7,0-1.2-0.5-1.2-1.2s0.5-1.2,1.2-1.2s1.2,0.5,1.2,1.2S28.5,36.4,27.8,36.4z M27.8,34.6
				c-0.3,0-0.5,0.2-0.5,0.5c0,0.3,0.2,0.5,0.5,0.5c0.3,0,0.5-0.2,0.5-0.5C28.3,34.9,28.1,34.6,27.8,34.6z"/>
		</g>
		<g>
			<circle class="st8" cx="34.6" cy="36.5" r="1.3"/>
			<path class="st10" d="M34.6,38c-0.8,0-1.5-0.7-1.5-1.5s0.7-1.5,1.5-1.5c0.8,0,1.5,0.7,1.5,1.5S35.5,38,34.6,38z M34.6,35.5
				c-0.6,0-1,0.5-1,1c0,0.6,0.5,1,1,1c0.6,0,1-0.5,1-1C35.7,35.9,35.2,35.5,34.6,35.5z"/>
		</g>
		<g>
			<circle class="st11" cx="41.3" cy="34.1" r="1.5"/>
		</g>
		<g>
			<circle class="st12" cx="42.2" cy="34.9" r="0.9"/>
		</g>
		<g>
			<circle class="st13" cx="48.4" cy="35.9" r="0.6"/>
		</g>
		<g>
			<circle class="st14" cx="47.3" cy="35.7" r="0.6"/>
		</g>
		<g>
			<circle class="st4" cx="47.8" cy="36.8" r="0.9"/>
		</g>
		<g>
			<path class="st15" d="M56.1,33.3h-2.6c-0.5,0-0.8-0.4-0.8-0.8l0,0c0-0.5,0.4-0.8,0.8-0.8h2.6c0.5,0,0.8,0.4,0.8,0.8l0,0
				C56.9,32.9,56.6,33.3,56.1,33.3z"/>
		</g>
		<g>
			<path class="st16" d="M56.4,33.5h-2.6c-0.5,0-0.8-0.4-0.8-0.8l0,0c0-0.5,0.4-0.8,0.8-0.8h2.6c0.5,0,0.8,0.4,0.8,0.8l0,0
				C57.2,33.1,56.8,33.5,56.4,33.5z"/>
		</g>
		<g>
			<rect x="24.9" y="38.8" class="st17" width="32.9" height="0.5"/>
		</g>
	</g>
</g>
</svg>
