<?xml version="1.0" encoding="utf-8"?>
<!-- Generator: Adobe Illustrator 24.0.0, SVG Export Plug-In . SVG Version: 6.00 Build 0)  -->
<svg version="1.1" id="图层_1" xmlns="http://www.w3.org/2000/svg" xmlns:xlink="http://www.w3.org/1999/xlink" x="0px" y="0px"
	 viewBox="0 0 136 44" style="enable-background:new 0 0 136 44;" xml:space="preserve">
<style type="text/css">
	.st0{fill:#FFFFFF;}
	.st1{fill:#191919;}
	.st2{fill:#4A97C2;}
	.st3{fill:#4A96C1;}
</style>
<title>1</title>
<rect class="st0" width="136" height="44"/>
<path class="st1" d="M30.2,22c-0.1,4.8-3.3,9-7.9,10.4c-4.1,1.4-8.6,0.3-11.6-2.8C8.2,27.4,7,24,7.5,20.7c0.6-4.3,3.6-7.8,7.7-9.1
	c1.4-0.5,2.8-0.7,4.3-0.6c4.6,0.5,9,3.3,10.3,8.6C30,20.4,30.1,21.2,30.2,22z M28,22.6c0.1-3.9-2.2-7.4-5.8-8.8
	c-4.3-1.7-9.2,0.1-11.5,4.2c-1.9,3.5-1.2,7.8,1.8,10.4c3,2.7,7.3,3.2,10.8,1.2C26,28.3,27.8,25.6,28,22.6z"/>
<path class="st1" d="M119.8,16.1c1.7,0,3.4,0,5,0c1.9-0.1,3.5,1.2,3.7,3.1c0,0.1,0,0.2,0,0.4c0.2,2.5,0.1,5,0.1,7.5
	c0,0.2-0.3,0.5-0.5,0.5c-0.6,0.1-1.2,0-1.8,0s-0.7-0.2-0.7-0.7c0-2.1,0-4.3,0-6.4c0-1.1-0.9-2-2-2c-0.3,0-0.6,0.1-0.9,0.2
	c-0.2,0.1-0.3,0.5-0.3,0.7c0,2.4,0,4.8,0,7.2c0,1,0,1-1,1c-2,0-2,0-2-2s0-4.2,0-6.3c0-0.6-0.2-0.8-0.8-0.8c-2.2,0-2.2,0-2.2,2.1
	s0,4.1,0,6.1c0,0.6-0.2,0.8-0.7,0.8c-2.2,0-2.2,0.1-2.2-2.1c0-2.9,0-5.8,0-8.6c0-0.7,0.2-0.9,0.9-0.9c1.8,0,3.6,0,5.3,0L119.8,16.1z
	"/>
<path class="st1" d="M51.1,21.8c0-1.8,0-3.6,0-5.3c0-0.6,0.2-0.9,0.9-0.9c1.2,0.1,2.3,0,3.5,0.1c2.9,0.1,5.2,2.3,5.4,5.1
	c0.4,3.1-0.7,5.5-3.2,6.7c-0.6,0.3-1.3,0.5-2,0.5c-1.3,0.1-2.5,0-3.8,0.1c-0.7,0-0.8-0.3-0.8-0.9C51.2,25.3,51.1,23.6,51.1,21.8z
	 M53.9,21.8L53.9,21.8c0,1,0,2.1,0,3.1c0,0.2,0.2,0.5,0.3,0.5c0.7,0.1,1.4,0,2.1-0.1c2.3-0.8,2.6-3,1.9-5.3
	c-0.6-1.5-2.2-2.4-3.8-1.9c-0.3,0.1-0.4,0.4-0.5,0.6C53.9,19.7,53.9,20.8,53.9,21.8z"/>
<path class="st1" d="M106.9,16.1c2.6-0.2,4.9,1.7,5.2,4.3c0.5,2.4,0.2,4.7-1.9,6.3c-1.7,1.3-3.9,1.5-5.8,0.6c-1.8-0.7-3-2.5-2.9-4.5
	c-0.1-0.9,0-1.8,0.2-2.7C102.2,17.5,104.4,15.9,106.9,16.1z M109,23.5c0.3-1.1,0.3-2.4,0-3.5l0,0c-0.5-1.2-1.8-1.8-3-1.4
	c-0.6,0.2-1.1,0.7-1.4,1.4c-0.4,1.2-0.4,2.4,0,3.6c0.3,1,1.2,1.6,2.2,1.5C107.9,25.2,108.8,24.5,109,23.5L109,23.5z"/>
<path class="st1" d="M62.4,22c0-1.7,0-3.5,0-5.2c0-0.5,0.1-0.8,0.7-0.8c2,0,6.9,0,6.9,0v2.4h-5.2v2.4h4.8V23h-4.8v2.6H70V28
	c0,0-5,0-6.7,0c-0.7,0-0.9-0.1-0.9-0.9C62.5,25.4,62.4,23.7,62.4,22z"/>
<path class="st1" d="M96.8,16.1h2.1c0.4,0,0.6,0.2,0.6,0.6c-0.1,2.1,0.3,1.9-1.8,1.9c-0.7,0-1.4,0-2.1,0.1c-1,0-1.9,0.7-2,1.7
	c-0.1,1-0.1,2,0.1,2.9c0.2,1.1,1.2,1.8,2.3,1.7c0.9,0,1.8,0,2.6,0c0.6,0,0.8,0.2,0.8,0.8c-0.1,2,0.3,1.7-1.8,1.8c-0.7,0-1.5,0-2.2,0
	c-2,0.2-3.8-1.1-4.4-3c-0.8-2-0.7-4.3,0.2-6.3c0.6-1.4,1.9-2.3,3.4-2.3C95.4,16,96.1,16,96.8,16.1L96.8,16.1z"/>
<path class="st1" d="M38.9,21.2c0,0.2,0,0.5,0,0.7c0,1.8,0,3.5,0,5.3c0,0.6-0.2,0.8-0.8,0.8c-2.2,0-1.9,0.2-1.9-1.9
	c0-2.9,0-5.8,0-8.6c0-0.4,0.1-0.8,0.2-1.1c0.2-0.6,0.9-0.9,1.6-0.7c0.2,0.1,0.4,0.2,0.5,0.5c0.9,1.1,1.7,2.2,2.5,3.3
	c1,1.3,1.8,2.6,2.8,3.9c0.4,0.3,0.4,0.9,0.1,1.3c-0.1,0.1-0.1,0.1-0.2,0.2c-0.5,0.5-1.2,0.6-1.7,0.2c-0.2-0.2-0.4-0.4-0.6-0.6
	l-2.3-3.2L38.9,21.2z"/>
<path class="st1" d="M46.4,21.2l-1.7,2.3c-0.5-0.8-1-1.4-1.4-2c-0.1-0.1,0.1-0.5,0.2-0.6c1-1.5,2.1-2.9,3.1-4.3
	c0.3-0.6,1-0.9,1.7-0.7c0.6,0.2,1,0.8,0.9,1.4c0,3.4,0,6.8,0,10.2c0,0.4-0.2,0.6-0.6,0.6h-0.1c-2.3,0-1.9,0.3-1.9-1.8
	c0-1.6,0-3.2,0-4.9L46.4,21.2z"/>
<path class="st2" d="M71.9,16.1h2.6l4.6,5.7l-4.2,6h-2.8l3.6-5.4c0,0,0.4-0.8,0-1.2c-1.2-1.5-2.3-2.9-3.4-4.4
	C72.2,16.7,72.1,16.5,71.9,16.1z"/>
<path class="st2" d="M83.3,16.1c0,0-2.5,3.5-3.7,5.1c-0.1-0.1-1.5-1.8-1.5-1.8s0.7-0.7,1.1-1.3c0.2-0.3,1.5-2,1.5-2L83.3,16.1z"/>
<path class="st2" d="M80.6,27.9l-2.4-3.4c0,0,0.9-1.3,1.4-1.9c1.3,1.7,3.8,5.3,3.8,5.3H80.6z"/>
<path class="st1" d="M86.6,26.5c0-1.1,0-1.1,1-1.1s1,0,1.1,1.4c0,0.9-0.4,0.9-1,0.9C86.6,27.6,86.6,27.6,86.6,26.5z"/>
<path class="st1" d="M14.9,22.8c0,1,0,2,0,3c0,0.7-0.2,0.8-0.8,0.5c-0.6-0.2-1-0.7-1-1.3c0-1.8-0.1-3.7,0-5.5
	c0.2-1.5,1.5-2.7,3.1-2.5c0.5,0.1,0.9,0.2,1.3,0.5c1.4,1,2.6,2.1,3.8,3.3c1.1,1.1,0.4,3.4-1.3,4c-1.5,0.7-3.3-0.1-3.9-1.6
	C16.1,23.1,16,23,16,22.8c-0.3-1,0.1-2,1-2.5c0.7-0.4,0.9,0.3,1.2,0.6c0.1,0,0,0.5-0.1,0.7c-0.3,0.4-0.5,0.8-0.2,1.2
	c0.3,0.3,0.7,0.5,1.1,0.5c0.4-0.1,0.8-0.3,1-0.7c0.1-0.3,0-0.7-0.2-1c-1-0.9-2-1.8-3.1-2.6c-0.4-0.2-0.8-0.2-1.2-0.1
	c-0.3,0.2-0.5,0.6-0.6,1C14.9,20.9,14.9,21.9,14.9,22.8L14.9,22.8z"/>
<path class="st3" d="M23.2,22.8c0.1-0.9,0.1-1.8,0-2.7c0-0.5-0.3-0.9-0.6-1.2c-0.5-0.2-1-0.1-1.4,0.1c-0.5,0.3-1.1,0.1-1.4-0.4
	c0,0,0,0,0,0c0-0.2,0-0.4,0.1-0.5c0.9-0.9,2.2-1.1,3.3-0.6c1.1,0.4,1.8,1.4,1.8,2.5c0,1.6,0,3.2,0,4.8c0,0.6-0.3,1.2-0.8,1.5
	c-0.6,0.3-0.9,0.2-0.9-0.5C23.3,24.7,23.3,23.8,23.2,22.8L23.2,22.8z"/>
</svg>
