<?xml version="1.0" encoding="utf-8"?>
<!-- Generator: Adobe Illustrator 24.0.0, SVG Export Plug-In . SVG Version: 6.00 Build 0)  -->
<svg version="1.1" id="图层_1" xmlns="http://www.w3.org/2000/svg" xmlns:xlink="http://www.w3.org/1999/xlink" x="0px" y="0px"
	 viewBox="0 0 136 44" style="enable-background:new 0 0 136 44;" xml:space="preserve">
<style type="text/css">
	.st0{fill:#FFFFFF;}
	.st1{fill:#183264;}
	.st2{fill-rule:evenodd;clip-rule:evenodd;fill:#FFFFFF;}
	.st3{fill-rule:evenodd;clip-rule:evenodd;fill:#183162;}
	.st4{fill-rule:evenodd;clip-rule:evenodd;fill:url(#SVGID_1_);}
	.st5{fill-rule:evenodd;clip-rule:evenodd;fill:url(#SVGID_2_);}
</style>
<title>1</title>
<rect class="st0" width="136" height="44"/>
<g>
	<path class="st1" d="M37.1,27.2c-1.3,0-2.5-0.5-3.4-1.5c-1.8-2-1.8-5.1,0-7.1c0.9-1,2.1-1.5,3.4-1.5c1.4-0.1,2.8,0.6,3.7,1.7
		l-1.3,1.5C38.9,19.5,38,19,37.1,19c-0.7,0-1.5,0.4-1.9,1c-0.5,0.6-0.8,1.3-0.7,2.1c0,0.8,0.2,1.6,0.7,2.2c0.5,0.6,1.2,0.9,2,0.9
		c0.9,0,1.8-0.5,2.4-1.2l1.3,1.3C40,26.5,38.6,27.2,37.1,27.2z"/>
	<path class="st1" d="M44.9,27.2h-2.1v-10h2.1v2.4c0.4-1.4,1.8-2.4,3.3-2.4v2.3h-0.1c-1.8,0-3.1,1.3-3.1,3.8L44.9,27.2z"/>
	<path class="st1" d="M59.2,17.1l-4.7,12.7h-2.1l1-2.7l-4-10h2.2l2.7,7.4l2.6-7.4L59.2,17.1z"/>
	<path class="st1" d="M65.9,27.2c-1.3,0-2.4-0.6-3.1-1.7v4.4h-2.1V17.1h2.1v1.8c0.6-1.1,1.8-1.8,3.1-1.8c2.5,0.1,4.4,2.2,4.3,4.7
		c0,0.1,0,0.2,0,0.3C70.1,25.3,68,27.2,65.9,27.2z M65.4,19.1c-0.8,0-1.5,0.4-2,0.9c-0.5,0.6-0.8,1.4-0.7,2.1
		c-0.1,0.8,0.2,1.6,0.7,2.1c0.8,1.1,2.4,1.3,3.5,0.4c0.2-0.1,0.3-0.3,0.4-0.4c0.5-0.6,0.7-1.4,0.6-2.1c0.1-0.8-0.2-1.5-0.7-2.1
		C66.8,19.5,66.1,19.1,65.4,19.1L65.4,19.1z"/>
	<path class="st1" d="M74.8,19.2v4.7c0,0.3,0.1,0.7,0.3,0.9c0.2,0.2,0.5,0.4,0.8,0.3h0.9v2h-1.5c-1.5,0-2.6-0.7-2.6-2.8v-5h-1.2
		v-1.9h1.2v-2.6h2.1v2.6h2v1.9H74.8z"/>
	<path class="st1" d="M83.4,27.2c-1.3,0-2.6-0.5-3.4-1.5c-2-2.2-1.9-5.5,0.3-7.5c0.4-0.3,0.8-0.6,1.2-0.9c1.8-0.8,4-0.4,5.4,1
		c1.4,1.5,1.9,3.7,1.1,5.6C87.3,25.8,85.4,27.1,83.4,27.2z M83.4,19.1c-0.8,0-1.5,0.3-2,0.9c-0.5,0.6-0.8,1.4-0.8,2.2
		c0,0.8,0.2,1.6,0.8,2.2c0.5,0.6,1.3,0.9,2,0.9c0.8,0,1.5-0.3,2-0.9c0.5-0.6,0.8-1.4,0.8-2.2c0-0.8-0.2-1.6-0.8-2.2
		C84.9,19.4,84.2,19.1,83.4,19.1z"/>
	<path class="st1" d="M108.5,27.2c-1.3,0-2.6-0.5-3.5-1.5c-1-0.9-1.5-2.2-1.5-3.6c-0.1-2.1,1.1-4,3-4.8c1.8-0.8,4-0.4,5.4,1
		c1.5,1.5,1.9,3.7,1.1,5.7C112.3,25.9,110.5,27.1,108.5,27.2z M108.5,19.1c-0.8,0-1.5,0.3-2,0.9c-0.5,0.6-0.8,1.4-0.7,2.2
		c0,0.8,0.2,1.6,0.8,2.2c0.5,0.6,1.3,0.9,2,0.9c0.8,0,1.5-0.3,2-0.9c0.5-0.6,0.8-1.4,0.7-2.2c0-0.8-0.2-1.6-0.8-2.2
		C110,19.4,109.3,19.1,108.5,19.1L108.5,19.1z"/>
	<path class="st1" d="M125.9,17.1c2,0,3.2,1.3,3.2,3.7v6.4H127v-5.7c0-1.5-0.7-2.3-1.9-2.3s-2,0.8-2,2.4v5.7h-2.1v-5.7
		c0-1.5-0.7-2.3-1.9-2.3c-1.2,0-2,0.9-2,2.4v5.6h-2.1v-10h2.1v1.7c0.6-1,1.6-1.7,2.8-1.7c1.2-0.1,2.3,0.6,2.7,1.7
		C123.4,17.8,124.6,17.1,125.9,17.1z"/>
	<path class="st1" d="M92.2,25.1v1.1c0,0,0,0.1,0,0.1l-0.9,0.6c0,0-0.1,0-0.1,0l-0.9-0.5c0,0,0-0.1,0-0.1v-1.1c0,0,0-0.1,0-0.1
		l0.9-0.6h0.1l0.9,0.6C92.2,25,92.2,25.1,92.2,25.1z"/>
	<path class="st1" d="M98.5,27.2c-1.3,0-2.5-0.6-3.4-1.5c-1.8-2.1-1.7-5.1,0.1-7.1c0.9-0.9,2.1-1.4,3.4-1.4c1.4,0,2.8,0.6,3.7,1.7
		l-1.3,1.5c-0.6-0.8-1.4-1.2-2.4-1.3c-0.8,0-1.5,0.4-2,0.9c-0.5,0.6-0.8,1.3-0.7,2.1c-0.1,0.8,0.2,1.6,0.7,2.2c0.5,0.6,1.2,1,2,1
		c0.9,0,1.8-0.4,2.4-1.1l1.2,1.3C101.5,26.6,100,27.3,98.5,27.2z"/>
	<path class="st2" d="M17.1,10.4L6.9,16.2v11.6l10.2,5.8l10.2-5.8V16.2L17.1,10.4z"/>
	<path class="st3" d="M17.1,10.4L6.9,16.2v11.6l10.2,5.8l10.2-5.8V16.2L17.1,10.4z M13.1,15.4h8l1,4h-9.9L13.1,15.4z M15.4,22.3
		l-0.9-2.3h5.2l-0.8,2.3l0.2,2.5h-4L15.4,22.3z M17.9,27.5v-0.8l1.8-1.7v-2.7l2.3-1.5l2.7,2l-3.6,6.3h-1.5L17.9,27.5z M9.4,22.8
		l2.7-2l2.4,1.5V25l1.8,1.7v0.8l-1.7,1.6h-1.5L9.4,22.8z"/>
	
		<linearGradient id="SVGID_1_" gradientUnits="userSpaceOnUse" x1="22.1603" y1="1472.7839" x2="22.1603" y2="1454.5356" gradientTransform="matrix(1 0 0 1 0 -1441.6899)">
		<stop  offset="0" style="stop-color:#183162"/>
		<stop  offset="1" style="stop-color:#183162;stop-opacity:1.000000e-02"/>
	</linearGradient>
	<path class="st4" d="M21.1,29.1h-1.5l-1.7-1.5v-0.8l1.8-1.7v-2.7l2.3-1.5l2.7,2L21.1,29.1z M17.1,10.4v5h4l1,4h-5v0.6h2.6l-0.8,2.3
		l0.2,2.5h-2v8.8l10.2-5.8V16.2L17.1,10.4z"/>
	
		<linearGradient id="SVGID_2_" gradientUnits="userSpaceOnUse" x1="12.0241" y1="1472.7839" x2="12.0241" y2="1454.5356" gradientTransform="matrix(1 0 0 1 0 -1441.6899)">
		<stop  offset="0" style="stop-color:#183162;stop-opacity:1.000000e-02"/>
		<stop  offset="1" style="stop-color:#183162"/>
	</linearGradient>
	<path class="st5" d="M16.3,27.5l-1.7,1.6h-1.5l-3.7-6.3l2.7-2l2.4,1.5V25l1.8,1.7V27.5z M15.2,24.8l0.3-2.5l-0.9-2.3h2.6v-0.6h-5
		l0.9-4h4v-5L6.9,16.2v11.6l10.2,5.8v-8.8L15.2,24.8z"/>
</g>
</svg>
